<?xml version="1.0" encoding="utf-8" standalone="no"?>
<!DOCTYPE svg PUBLIC "-//W3C//DTD SVG 1.1//EN"
  "http://www.w3.org/Graphics/SVG/1.1/DTD/svg11.dtd">
<svg xmlns:xlink="http://www.w3.org/1999/xlink" width="736.703437pt" height="301.97875pt" viewBox="0 0 736.703437 301.97875" xmlns="http://www.w3.org/2000/svg" version="1.1">
 <metadata>
  <rdf:RDF xmlns:dc="http://purl.org/dc/elements/1.1/" xmlns:cc="http://creativecommons.org/ns#" xmlns:rdf="http://www.w3.org/1999/02/22-rdf-syntax-ns#">
   <cc:Work>
    <dc:type rdf:resource="http://purl.org/dc/dcmitype/StillImage"/>
    <dc:date>2026-03-06T22:04:26.730893</dc:date>
    <dc:format>image/svg+xml</dc:format>
    <dc:creator>
     <cc:Agent>
      <dc:title>Matplotlib v3.10.8, https://matplotlib.org/</dc:title>
     </cc:Agent>
    </dc:creator>
   </cc:Work>
  </rdf:RDF>
 </metadata>
 <defs>
  <style type="text/css">*{stroke-linejoin: round; stroke-linecap: butt}</style>
 </defs>
 <g id="figure_1">
  <g id="patch_1">
   <path d="M 0 301.97875 
L 736.703437 301.97875 
L 736.703437 0 
L 0 0 
z
" style="fill: #ffffff"/>
  </g>
  <g id="axes_1">
   <g id="patch_2">
    <path d="M 59.903438 256.68 
L 729.503438 256.68 
L 729.503438 7.2 
L 59.903438 7.2 
z
" style="fill: #ffffff"/>
   </g>
   <g id="matplotlib.axis_1">
    <g id="xtick_1">
     <g id="line2d_1">
      <defs>
       <path id="m9356458eb4" d="M 0 0 
L 0 3.5 
" style="stroke: #000000; stroke-width: 0.8"/>
      </defs>
      <g>
       <use xlink:href="#m9356458eb4" x="90.339801" y="256.68" style="stroke: #000000; stroke-width: 0.8"/>
      </g>
     </g>
     <g id="text_1">
      <!-- 0 -->
      <g transform="translate(87.158551 271.278437) scale(0.1 -0.1)">
       <defs>
        <path id="DejaVuSans-30" d="M 2034 4250 
Q 1547 4250 1301 3770 
Q 1056 3291 1056 2328 
Q 1056 1369 1301 889 
Q 1547 409 2034 409 
Q 2525 409 2770 889 
Q 3016 1369 3016 2328 
Q 3016 3291 2770 3770 
Q 2525 4250 2034 4250 
z
M 2034 4750 
Q 2819 4750 3233 4129 
Q 3647 3509 3647 2328 
Q 3647 1150 3233 529 
Q 2819 -91 2034 -91 
Q 1250 -91 836 529 
Q 422 1150 422 2328 
Q 422 3509 836 4129 
Q 1250 4750 2034 4750 
z
" transform="scale(0.015625)"/>
       </defs>
       <use xlink:href="#DejaVuSans-30"/>
      </g>
     </g>
    </g>
    <g id="xtick_2">
     <g id="line2d_2">
      <g>
       <use xlink:href="#m9356458eb4" x="212.207123" y="256.68" style="stroke: #000000; stroke-width: 0.8"/>
      </g>
     </g>
     <g id="text_2">
      <!-- 200 -->
      <g transform="translate(202.663373 271.278437) scale(0.1 -0.1)">
       <defs>
        <path id="DejaVuSans-32" d="M 1228 531 
L 3431 531 
L 3431 0 
L 469 0 
L 469 531 
Q 828 903 1448 1529 
Q 2069 2156 2228 2338 
Q 2531 2678 2651 2914 
Q 2772 3150 2772 3378 
Q 2772 3750 2511 3984 
Q 2250 4219 1831 4219 
Q 1534 4219 1204 4116 
Q 875 4013 500 3803 
L 500 4441 
Q 881 4594 1212 4672 
Q 1544 4750 1819 4750 
Q 2544 4750 2975 4387 
Q 3406 4025 3406 3419 
Q 3406 3131 3298 2873 
Q 3191 2616 2906 2266 
Q 2828 2175 2409 1742 
Q 1991 1309 1228 531 
z
" transform="scale(0.015625)"/>
       </defs>
       <use xlink:href="#DejaVuSans-32"/>
       <use xlink:href="#DejaVuSans-30" transform="translate(63.623047 0)"/>
       <use xlink:href="#DejaVuSans-30" transform="translate(127.246094 0)"/>
      </g>
     </g>
    </g>
    <g id="xtick_3">
     <g id="line2d_3">
      <g>
       <use xlink:href="#m9356458eb4" x="334.074445" y="256.68" style="stroke: #000000; stroke-width: 0.8"/>
      </g>
     </g>
     <g id="text_3">
      <!-- 400 -->
      <g transform="translate(324.530695 271.278437) scale(0.1 -0.1)">
       <defs>
        <path id="DejaVuSans-34" d="M 2419 4116 
L 825 1625 
L 2419 1625 
L 2419 4116 
z
M 2253 4666 
L 3047 4666 
L 3047 1625 
L 3713 1625 
L 3713 1100 
L 3047 1100 
L 3047 0 
L 2419 0 
L 2419 1100 
L 313 1100 
L 313 1709 
L 2253 4666 
z
" transform="scale(0.015625)"/>
       </defs>
       <use xlink:href="#DejaVuSans-34"/>
       <use xlink:href="#DejaVuSans-30" transform="translate(63.623047 0)"/>
       <use xlink:href="#DejaVuSans-30" transform="translate(127.246094 0)"/>
      </g>
     </g>
    </g>
    <g id="xtick_4">
     <g id="line2d_4">
      <g>
       <use xlink:href="#m9356458eb4" x="455.941767" y="256.68" style="stroke: #000000; stroke-width: 0.8"/>
      </g>
     </g>
     <g id="text_4">
      <!-- 600 -->
      <g transform="translate(446.398017 271.278437) scale(0.1 -0.1)">
       <defs>
        <path id="DejaVuSans-36" d="M 2113 2584 
Q 1688 2584 1439 2293 
Q 1191 2003 1191 1497 
Q 1191 994 1439 701 
Q 1688 409 2113 409 
Q 2538 409 2786 701 
Q 3034 994 3034 1497 
Q 3034 2003 2786 2293 
Q 2538 2584 2113 2584 
z
M 3366 4563 
L 3366 3988 
Q 3128 4100 2886 4159 
Q 2644 4219 2406 4219 
Q 1781 4219 1451 3797 
Q 1122 3375 1075 2522 
Q 1259 2794 1537 2939 
Q 1816 3084 2150 3084 
Q 2853 3084 3261 2657 
Q 3669 2231 3669 1497 
Q 3669 778 3244 343 
Q 2819 -91 2113 -91 
Q 1303 -91 875 529 
Q 447 1150 447 2328 
Q 447 3434 972 4092 
Q 1497 4750 2381 4750 
Q 2619 4750 2861 4703 
Q 3103 4656 3366 4563 
z
" transform="scale(0.015625)"/>
       </defs>
       <use xlink:href="#DejaVuSans-36"/>
       <use xlink:href="#DejaVuSans-30" transform="translate(63.623047 0)"/>
       <use xlink:href="#DejaVuSans-30" transform="translate(127.246094 0)"/>
      </g>
     </g>
    </g>
    <g id="xtick_5">
     <g id="line2d_5">
      <g>
       <use xlink:href="#m9356458eb4" x="577.809089" y="256.68" style="stroke: #000000; stroke-width: 0.8"/>
      </g>
     </g>
     <g id="text_5">
      <!-- 800 -->
      <g transform="translate(568.265339 271.278437) scale(0.1 -0.1)">
       <defs>
        <path id="DejaVuSans-38" d="M 2034 2216 
Q 1584 2216 1326 1975 
Q 1069 1734 1069 1313 
Q 1069 891 1326 650 
Q 1584 409 2034 409 
Q 2484 409 2743 651 
Q 3003 894 3003 1313 
Q 3003 1734 2745 1975 
Q 2488 2216 2034 2216 
z
M 1403 2484 
Q 997 2584 770 2862 
Q 544 3141 544 3541 
Q 544 4100 942 4425 
Q 1341 4750 2034 4750 
Q 2731 4750 3128 4425 
Q 3525 4100 3525 3541 
Q 3525 3141 3298 2862 
Q 3072 2584 2669 2484 
Q 3125 2378 3379 2068 
Q 3634 1759 3634 1313 
Q 3634 634 3220 271 
Q 2806 -91 2034 -91 
Q 1263 -91 848 271 
Q 434 634 434 1313 
Q 434 1759 690 2068 
Q 947 2378 1403 2484 
z
M 1172 3481 
Q 1172 3119 1398 2916 
Q 1625 2713 2034 2713 
Q 2441 2713 2670 2916 
Q 2900 3119 2900 3481 
Q 2900 3844 2670 4047 
Q 2441 4250 2034 4250 
Q 1625 4250 1398 4047 
Q 1172 3844 1172 3481 
z
" transform="scale(0.015625)"/>
       </defs>
       <use xlink:href="#DejaVuSans-38"/>
       <use xlink:href="#DejaVuSans-30" transform="translate(63.623047 0)"/>
       <use xlink:href="#DejaVuSans-30" transform="translate(127.246094 0)"/>
      </g>
     </g>
    </g>
    <g id="xtick_6">
     <g id="line2d_6">
      <g>
       <use xlink:href="#m9356458eb4" x="699.67641" y="256.68" style="stroke: #000000; stroke-width: 0.8"/>
      </g>
     </g>
     <g id="text_6">
      <!-- 1000 -->
      <g transform="translate(686.95141 271.278437) scale(0.1 -0.1)">
       <defs>
        <path id="DejaVuSans-31" d="M 794 531 
L 1825 531 
L 1825 4091 
L 703 3866 
L 703 4441 
L 1819 4666 
L 2450 4666 
L 2450 531 
L 3481 531 
L 3481 0 
L 794 0 
L 794 531 
z
" transform="scale(0.015625)"/>
       </defs>
       <use xlink:href="#DejaVuSans-31"/>
       <use xlink:href="#DejaVuSans-30" transform="translate(63.623047 0)"/>
       <use xlink:href="#DejaVuSans-30" transform="translate(127.246094 0)"/>
       <use xlink:href="#DejaVuSans-30" transform="translate(190.869141 0)"/>
      </g>
     </g>
    </g>
    <g id="text_7">
     <!-- Steps -->
     <g transform="translate(369.521719 291.035312) scale(0.18 -0.18)">
      <defs>
       <path id="DejaVuSans-53" d="M 3425 4513 
L 3425 3897 
Q 3066 4069 2747 4153 
Q 2428 4238 2131 4238 
Q 1616 4238 1336 4038 
Q 1056 3838 1056 3469 
Q 1056 3159 1242 3001 
Q 1428 2844 1947 2747 
L 2328 2669 
Q 3034 2534 3370 2195 
Q 3706 1856 3706 1288 
Q 3706 609 3251 259 
Q 2797 -91 1919 -91 
Q 1588 -91 1214 -16 
Q 841 59 441 206 
L 441 856 
Q 825 641 1194 531 
Q 1563 422 1919 422 
Q 2459 422 2753 634 
Q 3047 847 3047 1241 
Q 3047 1584 2836 1778 
Q 2625 1972 2144 2069 
L 1759 2144 
Q 1053 2284 737 2584 
Q 422 2884 422 3419 
Q 422 4038 858 4394 
Q 1294 4750 2059 4750 
Q 2388 4750 2728 4690 
Q 3069 4631 3425 4513 
z
" transform="scale(0.015625)"/>
       <path id="DejaVuSans-74" d="M 1172 4494 
L 1172 3500 
L 2356 3500 
L 2356 3053 
L 1172 3053 
L 1172 1153 
Q 1172 725 1289 603 
Q 1406 481 1766 481 
L 2356 481 
L 2356 0 
L 1766 0 
Q 1100 0 847 248 
Q 594 497 594 1153 
L 594 3053 
L 172 3053 
L 172 3500 
L 594 3500 
L 594 4494 
L 1172 4494 
z
" transform="scale(0.015625)"/>
       <path id="DejaVuSans-65" d="M 3597 1894 
L 3597 1613 
L 953 1613 
Q 991 1019 1311 708 
Q 1631 397 2203 397 
Q 2534 397 2845 478 
Q 3156 559 3463 722 
L 3463 178 
Q 3153 47 2828 -22 
Q 2503 -91 2169 -91 
Q 1331 -91 842 396 
Q 353 884 353 1716 
Q 353 2575 817 3079 
Q 1281 3584 2069 3584 
Q 2775 3584 3186 3129 
Q 3597 2675 3597 1894 
z
M 3022 2063 
Q 3016 2534 2758 2815 
Q 2500 3097 2075 3097 
Q 1594 3097 1305 2825 
Q 1016 2553 972 2059 
L 3022 2063 
z
" transform="scale(0.015625)"/>
       <path id="DejaVuSans-70" d="M 1159 525 
L 1159 -1331 
L 581 -1331 
L 581 3500 
L 1159 3500 
L 1159 2969 
Q 1341 3281 1617 3432 
Q 1894 3584 2278 3584 
Q 2916 3584 3314 3078 
Q 3713 2572 3713 1747 
Q 3713 922 3314 415 
Q 2916 -91 2278 -91 
Q 1894 -91 1617 61 
Q 1341 213 1159 525 
z
M 3116 1747 
Q 3116 2381 2855 2742 
Q 2594 3103 2138 3103 
Q 1681 3103 1420 2742 
Q 1159 2381 1159 1747 
Q 1159 1113 1420 752 
Q 1681 391 2138 391 
Q 2594 391 2855 752 
Q 3116 1113 3116 1747 
z
" transform="scale(0.015625)"/>
       <path id="DejaVuSans-73" d="M 2834 3397 
L 2834 2853 
Q 2591 2978 2328 3040 
Q 2066 3103 1784 3103 
Q 1356 3103 1142 2972 
Q 928 2841 928 2578 
Q 928 2378 1081 2264 
Q 1234 2150 1697 2047 
L 1894 2003 
Q 2506 1872 2764 1633 
Q 3022 1394 3022 966 
Q 3022 478 2636 193 
Q 2250 -91 1575 -91 
Q 1294 -91 989 -36 
Q 684 19 347 128 
L 347 722 
Q 666 556 975 473 
Q 1284 391 1588 391 
Q 1994 391 2212 530 
Q 2431 669 2431 922 
Q 2431 1156 2273 1281 
Q 2116 1406 1581 1522 
L 1381 1569 
Q 847 1681 609 1914 
Q 372 2147 372 2553 
Q 372 3047 722 3315 
Q 1072 3584 1716 3584 
Q 2034 3584 2315 3537 
Q 2597 3491 2834 3397 
z
" transform="scale(0.015625)"/>
      </defs>
      <use xlink:href="#DejaVuSans-53"/>
      <use xlink:href="#DejaVuSans-74" transform="translate(63.476562 0)"/>
      <use xlink:href="#DejaVuSans-65" transform="translate(102.685547 0)"/>
      <use xlink:href="#DejaVuSans-70" transform="translate(164.208984 0)"/>
      <use xlink:href="#DejaVuSans-73" transform="translate(227.685547 0)"/>
     </g>
    </g>
   </g>
   <g id="matplotlib.axis_2">
    <g id="ytick_1">
     <g id="line2d_7">
      <defs>
       <path id="m363d88c459" d="M 0 0 
L -3.5 0 
" style="stroke: #000000; stroke-width: 0.8"/>
      </defs>
      <g>
       <use xlink:href="#m363d88c459" x="59.903438" y="236.184655" style="stroke: #000000; stroke-width: 0.8"/>
      </g>
     </g>
     <g id="text_8">
      <!-- −1.0 -->
      <g transform="translate(28.620625 239.983874) scale(0.1 -0.1)">
       <defs>
        <path id="DejaVuSans-2212" d="M 678 2272 
L 4684 2272 
L 4684 1741 
L 678 1741 
L 678 2272 
z
" transform="scale(0.015625)"/>
        <path id="DejaVuSans-2e" d="M 684 794 
L 1344 794 
L 1344 0 
L 684 0 
L 684 794 
z
" transform="scale(0.015625)"/>
       </defs>
       <use xlink:href="#DejaVuSans-2212"/>
       <use xlink:href="#DejaVuSans-31" transform="translate(83.789062 0)"/>
       <use xlink:href="#DejaVuSans-2e" transform="translate(147.412109 0)"/>
       <use xlink:href="#DejaVuSans-30" transform="translate(179.199219 0)"/>
      </g>
     </g>
    </g>
    <g id="ytick_2">
     <g id="line2d_8">
      <g>
       <use xlink:href="#m363d88c459" x="59.903438" y="191.443874" style="stroke: #000000; stroke-width: 0.8"/>
      </g>
     </g>
     <g id="text_9">
      <!-- −0.5 -->
      <g transform="translate(28.620625 195.243092) scale(0.1 -0.1)">
       <defs>
        <path id="DejaVuSans-35" d="M 691 4666 
L 3169 4666 
L 3169 4134 
L 1269 4134 
L 1269 2991 
Q 1406 3038 1543 3061 
Q 1681 3084 1819 3084 
Q 2600 3084 3056 2656 
Q 3513 2228 3513 1497 
Q 3513 744 3044 326 
Q 2575 -91 1722 -91 
Q 1428 -91 1123 -41 
Q 819 9 494 109 
L 494 744 
Q 775 591 1075 516 
Q 1375 441 1709 441 
Q 2250 441 2565 725 
Q 2881 1009 2881 1497 
Q 2881 1984 2565 2268 
Q 2250 2553 1709 2553 
Q 1456 2553 1204 2497 
Q 953 2441 691 2322 
L 691 4666 
z
" transform="scale(0.015625)"/>
       </defs>
       <use xlink:href="#DejaVuSans-2212"/>
       <use xlink:href="#DejaVuSans-30" transform="translate(83.789062 0)"/>
       <use xlink:href="#DejaVuSans-2e" transform="translate(147.412109 0)"/>
       <use xlink:href="#DejaVuSans-35" transform="translate(179.199219 0)"/>
      </g>
     </g>
    </g>
    <g id="ytick_3">
     <g id="line2d_9">
      <g>
       <use xlink:href="#m363d88c459" x="59.903438" y="146.703092" style="stroke: #000000; stroke-width: 0.8"/>
      </g>
     </g>
     <g id="text_10">
      <!-- 0.0 -->
      <g transform="translate(37.000313 150.502311) scale(0.1 -0.1)">
       <use xlink:href="#DejaVuSans-30"/>
       <use xlink:href="#DejaVuSans-2e" transform="translate(63.623047 0)"/>
       <use xlink:href="#DejaVuSans-30" transform="translate(95.410156 0)"/>
      </g>
     </g>
    </g>
    <g id="ytick_4">
     <g id="line2d_10">
      <g>
       <use xlink:href="#m363d88c459" x="59.903438" y="101.962311" style="stroke: #000000; stroke-width: 0.8"/>
      </g>
     </g>
     <g id="text_11">
      <!-- 0.5 -->
      <g transform="translate(37.000313 105.76153) scale(0.1 -0.1)">
       <use xlink:href="#DejaVuSans-30"/>
       <use xlink:href="#DejaVuSans-2e" transform="translate(63.623047 0)"/>
       <use xlink:href="#DejaVuSans-35" transform="translate(95.410156 0)"/>
      </g>
     </g>
    </g>
    <g id="ytick_5">
     <g id="line2d_11">
      <g>
       <use xlink:href="#m363d88c459" x="59.903438" y="57.22153" style="stroke: #000000; stroke-width: 0.8"/>
      </g>
     </g>
     <g id="text_12">
      <!-- 1.0 -->
      <g transform="translate(37.000313 61.020748) scale(0.1 -0.1)">
       <use xlink:href="#DejaVuSans-31"/>
       <use xlink:href="#DejaVuSans-2e" transform="translate(63.623047 0)"/>
       <use xlink:href="#DejaVuSans-30" transform="translate(95.410156 0)"/>
      </g>
     </g>
    </g>
    <g id="ytick_6">
     <g id="line2d_12">
      <g>
       <use xlink:href="#m363d88c459" x="59.903438" y="12.480748" style="stroke: #000000; stroke-width: 0.8"/>
      </g>
     </g>
     <g id="text_13">
      <!-- 1.5 -->
      <g transform="translate(37.000313 16.279967) scale(0.1 -0.1)">
       <use xlink:href="#DejaVuSans-31"/>
       <use xlink:href="#DejaVuSans-2e" transform="translate(63.623047 0)"/>
       <use xlink:href="#DejaVuSans-35" transform="translate(95.410156 0)"/>
      </g>
     </g>
    </g>
    <g id="text_14">
     <!-- Average reward -->
     <g transform="translate(20.877188 202.926094) rotate(-90) scale(0.18 -0.18)">
      <defs>
       <path id="DejaVuSans-41" d="M 2188 4044 
L 1331 1722 
L 3047 1722 
L 2188 4044 
z
M 1831 4666 
L 2547 4666 
L 4325 0 
L 3669 0 
L 3244 1197 
L 1141 1197 
L 716 0 
L 50 0 
L 1831 4666 
z
" transform="scale(0.015625)"/>
       <path id="DejaVuSans-76" d="M 191 3500 
L 800 3500 
L 1894 563 
L 2988 3500 
L 3597 3500 
L 2284 0 
L 1503 0 
L 191 3500 
z
" transform="scale(0.015625)"/>
       <path id="DejaVuSans-72" d="M 2631 2963 
Q 2534 3019 2420 3045 
Q 2306 3072 2169 3072 
Q 1681 3072 1420 2755 
Q 1159 2438 1159 1844 
L 1159 0 
L 581 0 
L 581 3500 
L 1159 3500 
L 1159 2956 
Q 1341 3275 1631 3429 
Q 1922 3584 2338 3584 
Q 2397 3584 2469 3576 
Q 2541 3569 2628 3553 
L 2631 2963 
z
" transform="scale(0.015625)"/>
       <path id="DejaVuSans-61" d="M 2194 1759 
Q 1497 1759 1228 1600 
Q 959 1441 959 1056 
Q 959 750 1161 570 
Q 1363 391 1709 391 
Q 2188 391 2477 730 
Q 2766 1069 2766 1631 
L 2766 1759 
L 2194 1759 
z
M 3341 1997 
L 3341 0 
L 2766 0 
L 2766 531 
Q 2569 213 2275 61 
Q 1981 -91 1556 -91 
Q 1019 -91 701 211 
Q 384 513 384 1019 
Q 384 1609 779 1909 
Q 1175 2209 1959 2209 
L 2766 2209 
L 2766 2266 
Q 2766 2663 2505 2880 
Q 2244 3097 1772 3097 
Q 1472 3097 1187 3025 
Q 903 2953 641 2809 
L 641 3341 
Q 956 3463 1253 3523 
Q 1550 3584 1831 3584 
Q 2591 3584 2966 3190 
Q 3341 2797 3341 1997 
z
" transform="scale(0.015625)"/>
       <path id="DejaVuSans-67" d="M 2906 1791 
Q 2906 2416 2648 2759 
Q 2391 3103 1925 3103 
Q 1463 3103 1205 2759 
Q 947 2416 947 1791 
Q 947 1169 1205 825 
Q 1463 481 1925 481 
Q 2391 481 2648 825 
Q 2906 1169 2906 1791 
z
M 3481 434 
Q 3481 -459 3084 -895 
Q 2688 -1331 1869 -1331 
Q 1566 -1331 1297 -1286 
Q 1028 -1241 775 -1147 
L 775 -588 
Q 1028 -725 1275 -790 
Q 1522 -856 1778 -856 
Q 2344 -856 2625 -561 
Q 2906 -266 2906 331 
L 2906 616 
Q 2728 306 2450 153 
Q 2172 0 1784 0 
Q 1141 0 747 490 
Q 353 981 353 1791 
Q 353 2603 747 3093 
Q 1141 3584 1784 3584 
Q 2172 3584 2450 3431 
Q 2728 3278 2906 2969 
L 2906 3500 
L 3481 3500 
L 3481 434 
z
" transform="scale(0.015625)"/>
       <path id="DejaVuSans-20" transform="scale(0.015625)"/>
       <path id="DejaVuSans-77" d="M 269 3500 
L 844 3500 
L 1563 769 
L 2278 3500 
L 2956 3500 
L 3675 769 
L 4391 3500 
L 4966 3500 
L 4050 0 
L 3372 0 
L 2619 2869 
L 1863 0 
L 1184 0 
L 269 3500 
z
" transform="scale(0.015625)"/>
       <path id="DejaVuSans-64" d="M 2906 2969 
L 2906 4863 
L 3481 4863 
L 3481 0 
L 2906 0 
L 2906 525 
Q 2725 213 2448 61 
Q 2172 -91 1784 -91 
Q 1150 -91 751 415 
Q 353 922 353 1747 
Q 353 2572 751 3078 
Q 1150 3584 1784 3584 
Q 2172 3584 2448 3432 
Q 2725 3281 2906 2969 
z
M 947 1747 
Q 947 1113 1208 752 
Q 1469 391 1925 391 
Q 2381 391 2643 752 
Q 2906 1113 2906 1747 
Q 2906 2381 2643 2742 
Q 2381 3103 1925 3103 
Q 1469 3103 1208 2742 
Q 947 2381 947 1747 
z
" transform="scale(0.015625)"/>
      </defs>
      <use xlink:href="#DejaVuSans-41"/>
      <use xlink:href="#DejaVuSans-76" transform="translate(62.533203 0)"/>
      <use xlink:href="#DejaVuSans-65" transform="translate(121.712891 0)"/>
      <use xlink:href="#DejaVuSans-72" transform="translate(183.236328 0)"/>
      <use xlink:href="#DejaVuSans-61" transform="translate(224.349609 0)"/>
      <use xlink:href="#DejaVuSans-67" transform="translate(285.628906 0)"/>
      <use xlink:href="#DejaVuSans-65" transform="translate(349.105469 0)"/>
      <use xlink:href="#DejaVuSans-20" transform="translate(410.628906 0)"/>
      <use xlink:href="#DejaVuSans-72" transform="translate(442.416016 0)"/>
      <use xlink:href="#DejaVuSans-65" transform="translate(481.279297 0)"/>
      <use xlink:href="#DejaVuSans-77" transform="translate(542.802734 0)"/>
      <use xlink:href="#DejaVuSans-61" transform="translate(624.589844 0)"/>
      <use xlink:href="#DejaVuSans-72" transform="translate(685.869141 0)"/>
      <use xlink:href="#DejaVuSans-64" transform="translate(725.232422 0)"/>
     </g>
    </g>
   </g>
   <g id="line2d_13">
    <path d="M 90.339801 147.047833 
L 91.558474 146.396711 
L 92.167811 143.21289 
L 92.777148 146.974547 
L 93.386484 146.189778 
L 93.995821 146.026036 
L 94.605157 146.795413 
L 95.214494 149.122449 
L 95.823831 146.168134 
L 96.433167 50.840215 
L 97.042504 83.796741 
L 98.261177 122.872219 
L 98.870514 137.463625 
L 100.089187 171.04446 
L 100.698523 186.440651 
L 101.30786 208.529487 
L 101.917197 245.34 
L 102.526533 36.06681 
L 103.13587 67.084774 
L 103.745207 75.482332 
L 104.354543 90.588703 
L 104.96388 92.795446 
L 105.573216 105.217874 
L 106.182553 110.381965 
L 106.79189 110.1154 
L 107.401226 106.190026 
L 108.010563 101.274383 
L 108.619899 97.849123 
L 109.229236 95.164691 
L 109.838573 91.121833 
L 110.447909 81.368331 
L 111.057246 78.952012 
L 112.275919 71.200328 
L 113.494592 65.79741 
L 114.713266 60.532545 
L 115.322602 60.380823 
L 115.931939 60.511979 
L 116.541275 53.766632 
L 117.150612 54.327123 
L 118.369285 51.601519 
L 118.978622 55.631466 
L 119.587958 51.447864 
L 120.197295 51.212561 
L 120.806632 50.104054 
L 121.415968 50.610509 
L 122.025305 50.345788 
L 123.243978 45.384349 
L 123.853315 45.578906 
L 124.462651 46.618935 
L 125.071988 46.725817 
L 125.681324 44.018338 
L 126.290661 44.984747 
L 126.899998 47.216448 
L 127.509334 47.685984 
L 128.728008 44.806744 
L 129.337344 45.235261 
L 129.946681 43.704894 
L 130.556017 45.206619 
L 131.165354 45.928375 
L 131.774691 44.539179 
L 132.384027 43.538609 
L 132.993364 42.79548 
L 133.6027 44.723627 
L 134.212037 45.19469 
L 134.821374 42.900343 
L 135.43071 42.40889 
L 136.040047 42.462683 
L 136.649383 43.633703 
L 137.25872 43.874426 
L 137.868057 42.768098 
L 138.477393 43.193351 
L 139.08673 42.598706 
L 139.696066 43.656269 
L 140.305403 40.527683 
L 140.91474 41.951173 
L 141.524076 41.142752 
L 142.133413 41.744343 
L 142.74275 39.730307 
L 143.961423 43.122849 
L 145.180096 46.740157 
L 146.398769 41.995075 
L 147.008106 43.444426 
L 147.617442 43.308404 
L 148.226779 43.032951 
L 148.836116 44.933756 
L 149.445452 43.835921 
L 150.054789 41.998876 
L 150.664125 45.529352 
L 151.273462 40.820866 
L 151.882799 42.405099 
L 152.492135 42.208917 
L 153.101472 45.237439 
L 153.710809 42.978804 
L 154.320145 44.052092 
L 154.929482 42.169071 
L 155.538818 43.903606 
L 156.148155 42.72298 
L 156.757492 42.994125 
L 157.366828 42.228788 
L 157.976165 46.082931 
L 158.585501 42.168766 
L 159.194838 43.944929 
L 159.804175 42.817686 
L 160.413511 43.551087 
L 161.022848 40.67718 
L 161.632184 42.254558 
L 162.241521 44.208733 
L 162.850858 42.812451 
L 163.460194 43.214507 
L 164.069531 45.365447 
L 165.288204 37.159086 
L 165.897541 42.68287 
L 166.506877 43.775502 
L 167.116214 42.762455 
L 167.725551 40.3772 
L 168.334887 41.102438 
L 168.944224 39.67556 
L 169.55356 40.888417 
L 170.162897 41.753769 
L 171.38157 42.901319 
L 171.990907 42.372809 
L 172.600243 41.094316 
L 173.20958 42.061372 
L 173.818917 39.420824 
L 174.428253 41.806398 
L 175.03759 43.216778 
L 176.256263 41.100572 
L 176.8656 42.066213 
L 177.474936 39.846903 
L 178.084273 38.904443 
L 178.693609 39.13031 
L 179.912283 42.884879 
L 180.521619 43.377086 
L 181.130956 42.110959 
L 181.740293 40.385368 
L 182.349629 39.866423 
L 182.958966 36.712378 
L 183.568302 41.985913 
L 184.177639 39.488361 
L 184.786976 40.570647 
L 185.396312 39.034524 
L 186.005649 41.333338 
L 186.614985 41.582232 
L 187.224322 40.437921 
L 187.833659 41.856487 
L 188.442995 39.188202 
L 189.052332 41.523579 
L 189.661668 40.746418 
L 190.271005 40.24798 
L 190.880342 41.135036 
L 191.489678 44.016467 
L 192.099015 39.95664 
L 192.708352 42.081823 
L 193.317688 36.875901 
L 193.927025 40.547072 
L 194.536361 40.396972 
L 195.755035 38.482105 
L 196.364371 38.621817 
L 196.973708 36.91996 
L 197.583044 39.938774 
L 198.192381 37.923743 
L 198.801718 37.674075 
L 200.020391 40.309567 
L 200.629727 38.611371 
L 201.239064 43.647128 
L 201.848401 43.348316 
L 202.457737 39.783241 
L 203.067074 39.976396 
L 203.67641 40.482309 
L 204.285747 40.305944 
L 204.895084 40.333953 
L 205.50442 39.632748 
L 206.113757 39.800262 
L 206.723094 40.428357 
L 207.33243 37.184184 
L 207.941767 36.303945 
L 208.551103 39.954567 
L 209.16044 40.043126 
L 209.769777 35.647967 
L 210.379113 39.112664 
L 210.98845 39.136218 
L 211.597786 37.869186 
L 212.207123 38.054971 
L 212.81646 36.932443 
L 213.425796 37.835071 
L 214.035133 36.555535 
L 214.644469 38.099207 
L 215.863143 38.427996 
L 216.472479 36.855596 
L 217.081816 36.754871 
L 217.691152 38.794065 
L 218.300489 37.777147 
L 218.909826 36.133085 
L 219.519162 37.973018 
L 220.737836 38.516792 
L 221.347172 37.919793 
L 222.565845 40.034213 
L 223.175182 37.486797 
L 223.784519 37.935759 
L 224.393855 38.928404 
L 225.612528 37.242629 
L 226.221865 38.536326 
L 226.831202 38.725909 
L 228.049875 37.234715 
L 228.659211 40.37646 
L 229.268548 36.893421 
L 229.877885 37.264198 
L 230.487221 38.169814 
L 231.096558 38.243709 
L 231.705895 35.642274 
L 232.315231 37.422919 
L 232.924568 37.240948 
L 233.533904 35.908898 
L 234.143241 35.855578 
L 234.752578 37.104169 
L 235.361914 36.465654 
L 235.971251 37.567123 
L 236.580587 37.698084 
L 237.189924 37.333857 
L 237.799261 35.615383 
L 238.408597 38.412325 
L 239.017934 35.84379 
L 239.62727 35.717902 
L 240.236607 35.243948 
L 240.845944 34.076114 
L 241.45528 36.999195 
L 242.064617 36.392256 
L 242.673953 36.118489 
L 243.28329 33.611901 
L 243.892627 37.340743 
L 244.501963 35.997181 
L 245.1113 35.39765 
L 245.720637 37.401094 
L 246.329973 35.655906 
L 246.93931 36.718207 
L 247.548646 35.398632 
L 248.157983 37.979278 
L 248.76732 34.50488 
L 249.376656 36.714221 
L 249.985993 37.12604 
L 250.595329 36.857218 
L 251.204666 32.078833 
L 251.814003 32.943938 
L 252.423339 35.936182 
L 253.032676 35.391337 
L 253.642012 34.229838 
L 254.860686 36.400084 
L 255.470022 34.978084 
L 256.079359 35.984037 
L 256.688695 37.465232 
L 257.298032 38.135409 
L 257.907369 35.326009 
L 258.516705 38.711765 
L 259.126042 33.47803 
L 259.735379 36.404295 
L 260.344715 36.831847 
L 260.954052 35.686965 
L 261.563388 36.910959 
L 262.172725 36.028746 
L 262.782062 34.658871 
L 263.391398 36.587917 
L 264.000735 37.581475 
L 264.610071 35.615506 
L 265.219408 35.786634 
L 265.828745 33.201116 
L 266.438081 34.208218 
L 267.047418 35.714589 
L 267.656754 35.158002 
L 268.266091 36.191821 
L 268.875428 34.274973 
L 269.484764 32.806464 
L 270.094101 34.331764 
L 270.703438 34.83645 
L 271.312774 33.790923 
L 271.922111 34.229861 
L 272.531447 36.630435 
L 273.140784 36.467564 
L 273.750121 34.143945 
L 274.359457 34.761833 
L 274.968794 34.313389 
L 275.57813 36.00534 
L 276.187467 31.951729 
L 276.796804 35.424503 
L 277.40614 35.323072 
L 278.015477 35.998114 
L 278.624813 33.906837 
L 279.23415 35.731561 
L 279.843487 35.654841 
L 280.452823 34.87773 
L 281.06216 32.568407 
L 281.671496 33.308478 
L 282.280833 34.342215 
L 282.89017 34.369865 
L 283.499506 34.142042 
L 284.108843 36.878477 
L 284.71818 34.582271 
L 285.327516 34.244327 
L 285.936853 36.008666 
L 286.546189 33.264414 
L 287.155526 31.650726 
L 287.764863 31.609465 
L 288.374199 32.037061 
L 288.983536 31.463972 
L 289.592872 33.281539 
L 290.202209 32.822819 
L 290.811546 35.640149 
L 291.420882 33.403441 
L 292.030219 31.812705 
L 292.639555 34.047016 
L 293.248892 33.224219 
L 293.858229 32.991472 
L 294.467565 30.941798 
L 295.076902 35.791996 
L 295.686238 29.826579 
L 296.295575 32.79995 
L 296.904912 33.328311 
L 297.514248 34.195659 
L 298.123585 33.658883 
L 298.732922 34.762971 
L 299.342258 32.833532 
L 299.951595 32.220613 
L 300.560931 33.715586 
L 301.170268 31.869883 
L 301.779605 31.422409 
L 302.388941 34.273593 
L 302.998278 33.094871 
L 303.607614 32.857031 
L 304.216951 32.22139 
L 304.826288 34.525831 
L 305.435624 34.450715 
L 306.044961 32.420345 
L 306.654297 33.008808 
L 307.263634 35.339684 
L 307.872971 32.542656 
L 308.482307 35.075806 
L 309.091644 33.306591 
L 309.70098 30.914545 
L 310.310317 29.089455 
L 310.919654 34.612849 
L 311.52899 31.166929 
L 312.138327 30.478823 
L 312.747664 31.232033 
L 313.357 31.428004 
L 313.966337 31.433562 
L 314.575673 32.289726 
L 315.18501 34.700123 
L 315.794347 32.790649 
L 316.403683 31.635392 
L 317.01302 32.569039 
L 317.622356 30.658275 
L 318.231693 29.494896 
L 318.84103 32.655317 
L 319.450366 31.30124 
L 320.059703 32.401849 
L 320.669039 31.967448 
L 321.278376 33.770068 
L 321.887713 30.790083 
L 322.497049 31.206593 
L 323.106386 33.438305 
L 323.715723 30.478893 
L 324.325059 31.383632 
L 324.934396 32.036108 
L 325.543732 32.310256 
L 326.153069 32.013919 
L 326.762406 33.355688 
L 327.371742 31.088035 
L 327.981079 30.004484 
L 328.590415 31.451739 
L 329.199752 34.425914 
L 329.809089 32.349304 
L 330.418425 32.27933 
L 331.027762 29.482686 
L 331.637098 30.716994 
L 332.246435 32.394349 
L 332.855772 31.950502 
L 333.465108 30.883753 
L 334.074445 29.461929 
L 334.683781 32.328163 
L 335.293118 32.755817 
L 335.902455 28.833079 
L 336.511791 34.50648 
L 337.121128 29.024231 
L 337.730465 31.422483 
L 338.339801 31.299447 
L 338.949138 29.997534 
L 339.558474 34.773453 
L 340.167811 29.638893 
L 340.777148 29.628017 
L 341.386484 33.043298 
L 341.995821 32.694237 
L 342.605157 31.145338 
L 343.214494 31.673051 
L 343.823831 32.808558 
L 344.433167 35.431883 
L 345.042504 33.466311 
L 345.65184 29.791089 
L 346.261177 29.40828 
L 346.870514 29.843595 
L 347.47985 31.710045 
L 348.089187 32.386834 
L 348.698523 33.267981 
L 349.30786 31.483828 
L 349.917197 30.881823 
L 350.526533 28.462356 
L 351.13587 30.185168 
L 351.745207 31.504446 
L 352.354543 31.692162 
L 352.96388 31.550858 
L 353.573216 31.533358 
L 354.182553 30.481081 
L 355.401226 30.44011 
L 356.010563 28.384553 
L 356.619899 30.543789 
L 357.229236 30.948263 
L 357.838573 30.118845 
L 358.447909 29.820814 
L 359.057246 29.323644 
L 359.666582 30.459575 
L 360.275919 29.769759 
L 360.885256 29.435044 
L 361.494592 29.42412 
L 362.103929 29.280533 
L 362.713266 29.349794 
L 363.322602 29.05517 
L 363.931939 31.115026 
L 364.541275 31.785296 
L 365.150612 31.10776 
L 365.759949 29.369019 
L 366.369285 29.369374 
L 366.978622 28.652537 
L 367.587958 28.222144 
L 368.197295 28.134493 
L 368.806632 31.459034 
L 369.415968 28.940369 
L 370.025305 29.868753 
L 370.634641 31.808986 
L 371.243978 30.751855 
L 371.853315 28.610157 
L 372.462651 28.200807 
L 373.071988 30.72051 
L 373.681324 28.70535 
L 374.290661 31.786043 
L 374.899998 29.326429 
L 375.509334 27.875714 
L 376.118671 28.859433 
L 376.728008 28.500903 
L 377.337344 29.802331 
L 377.946681 28.389291 
L 378.556017 26.555469 
L 379.165354 28.031084 
L 379.774691 27.294792 
L 380.384027 27.225125 
L 380.993364 30.493234 
L 381.6027 26.997996 
L 382.212037 28.988005 
L 382.821374 28.5932 
L 383.43071 28.466659 
L 384.040047 29.784216 
L 384.649383 29.930047 
L 385.25872 28.705306 
L 386.477393 28.748733 
L 387.08673 27.979574 
L 387.696066 28.825847 
L 388.305403 27.725079 
L 388.91474 31.296353 
L 389.524076 28.822417 
L 390.133413 30.383216 
L 390.74275 28.634557 
L 391.352086 28.590966 
L 391.961423 26.442792 
L 392.570759 29.276264 
L 393.180096 28.768641 
L 393.789433 28.75665 
L 394.398769 29.851368 
L 395.008106 27.555475 
L 395.617442 26.90215 
L 396.226779 29.328108 
L 396.836116 27.026395 
L 397.445452 27.231636 
L 398.054789 28.295422 
L 398.664125 27.896807 
L 399.273462 29.872821 
L 399.882799 28.674182 
L 400.492135 30.020102 
L 401.101472 32.620024 
L 402.320145 28.050208 
L 402.929482 26.508818 
L 403.538818 30.851483 
L 404.148155 29.280065 
L 404.757492 30.118959 
L 405.366828 30.11929 
L 405.976165 28.120368 
L 406.585501 28.669365 
L 407.194838 29.563735 
L 407.804175 28.054353 
L 408.413511 28.449223 
L 409.022848 29.19757 
L 409.632184 27.468455 
L 410.241521 26.964352 
L 410.850858 27.061814 
L 411.460194 26.177575 
L 412.069531 26.633182 
L 412.678867 25.905482 
L 413.288204 28.219832 
L 413.897541 26.112638 
L 414.506877 28.140328 
L 415.116214 29.122347 
L 415.725551 25.342537 
L 416.334887 24.701111 
L 416.944224 27.427472 
L 417.55356 28.04989 
L 418.162897 25.793257 
L 418.772234 27.871126 
L 419.38157 28.515043 
L 419.990907 26.156788 
L 420.600243 27.711685 
L 421.20958 27.892175 
L 421.818917 29.409316 
L 423.03759 26.489529 
L 423.646926 27.007725 
L 424.256263 27.244932 
L 424.8656 24.535817 
L 425.474936 27.756051 
L 426.084273 27.801798 
L 426.693609 27.580386 
L 427.302946 26.865848 
L 427.912283 26.629899 
L 428.521619 27.20861 
L 429.130956 26.888684 
L 429.740293 27.50922 
L 430.349629 30.894466 
L 430.958966 26.215056 
L 431.568302 27.024941 
L 432.177639 26.485492 
L 432.786976 27.801853 
L 433.396312 27.535049 
L 434.005649 24.883445 
L 434.614985 27.586853 
L 435.224322 28.990981 
L 435.833659 27.595157 
L 436.442995 27.347533 
L 437.052332 28.659456 
L 437.661668 26.557272 
L 438.271005 28.461412 
L 438.880342 27.84824 
L 439.489678 27.771831 
L 440.099015 29.705175 
L 441.317688 29.923572 
L 441.927025 28.43064 
L 442.536361 26.144046 
L 443.145698 27.729579 
L 443.755035 26.913981 
L 444.364371 27.73442 
L 444.973708 27.638239 
L 445.583044 29.39741 
L 446.801718 26.853956 
L 447.411054 25.457637 
L 448.020391 28.811472 
L 448.629727 28.482306 
L 449.848401 24.684504 
L 450.457737 27.997128 
L 451.067074 26.024232 
L 452.285747 27.917983 
L 452.895084 28.387123 
L 453.50442 26.843288 
L 454.113757 29.079809 
L 454.723094 27.192259 
L 455.33243 27.861046 
L 455.941767 26.918716 
L 456.551103 25.507631 
L 457.16044 27.098134 
L 457.769777 23.32175 
L 458.379113 25.488642 
L 458.98845 26.824676 
L 459.597786 23.903601 
L 460.207123 25.926356 
L 460.81646 27.08211 
L 461.425796 26.821945 
L 462.035133 25.426931 
L 462.644469 26.065375 
L 463.253806 25.746054 
L 464.472479 26.793604 
L 465.081816 27.861991 
L 465.691152 23.88914 
L 466.909826 26.504726 
L 467.519162 25.395613 
L 468.128499 25.111595 
L 468.737836 26.752812 
L 469.347172 26.825603 
L 469.956509 24.371493 
L 470.565845 27.349326 
L 471.175182 25.927241 
L 471.784519 26.111948 
L 472.393855 26.015832 
L 473.003192 26.448837 
L 473.612528 27.03195 
L 474.221865 25.413967 
L 474.831202 25.898682 
L 475.440538 27.230169 
L 476.049875 24.239383 
L 476.659211 24.878826 
L 477.877885 27.789095 
L 478.487221 26.646648 
L 479.096558 27.627491 
L 479.705895 26.915474 
L 481.533904 24.181803 
L 482.143241 26.535479 
L 482.752578 25.496754 
L 483.361914 27.736698 
L 483.971251 27.125678 
L 484.580587 24.936866 
L 485.189924 24.805457 
L 485.799261 25.373952 
L 486.408597 28.116101 
L 487.017934 25.315402 
L 487.62727 26.414868 
L 488.236607 27.166469 
L 489.45528 25.41184 
L 490.064617 27.26807 
L 490.673953 23.783611 
L 491.28329 25.651509 
L 491.892627 24.037025 
L 492.501963 24.329117 
L 493.1113 26.662568 
L 493.720637 26.312129 
L 494.329973 26.542842 
L 494.93931 25.637076 
L 495.548646 26.393869 
L 496.157983 24.89765 
L 496.76732 25.593393 
L 497.376656 27.100627 
L 497.985993 25.160658 
L 498.595329 28.889979 
L 499.204666 26.271062 
L 499.814003 24.453876 
L 500.423339 25.876911 
L 501.032676 25.781518 
L 501.642012 25.087484 
L 502.251349 26.432107 
L 502.860686 26.622505 
L 503.470022 24.335127 
L 504.079359 24.629881 
L 504.688695 26.22245 
L 505.298032 27.112829 
L 505.907369 26.669096 
L 506.516705 24.54825 
L 507.126042 24.909789 
L 507.735379 23.424271 
L 508.344715 25.906144 
L 508.954052 24.53571 
L 509.563388 22.0399 
L 510.172725 25.197406 
L 510.782062 26.933552 
L 511.391398 24.631437 
L 512.000735 24.541205 
L 512.610071 25.923628 
L 513.219408 23.106115 
L 513.828745 26.800428 
L 514.438081 26.441809 
L 515.047418 24.861608 
L 515.656754 25.732635 
L 516.266091 24.676829 
L 517.484764 28.196346 
L 518.094101 25.577315 
L 518.703437 25.632294 
L 519.312774 25.518798 
L 519.922111 25.246451 
L 520.531447 26.015575 
L 521.140784 25.332246 
L 521.750121 23.110629 
L 522.359457 23.623333 
L 522.968794 23.587831 
L 523.57813 24.999122 
L 524.187467 24.809104 
L 524.796804 24.300428 
L 525.40614 24.639528 
L 526.015477 24.132341 
L 526.624813 22.546 
L 527.23415 25.606128 
L 527.843487 23.235935 
L 528.452823 23.938267 
L 529.06216 25.242859 
L 529.671496 24.345845 
L 530.280833 24.558075 
L 530.89017 25.363807 
L 531.499506 24.770094 
L 532.108843 24.973994 
L 532.71818 25.329703 
L 533.327516 26.134144 
L 533.936853 25.51891 
L 534.546189 23.320274 
L 535.155526 26.665327 
L 535.764863 23.028092 
L 536.374199 22.471745 
L 536.983536 25.966322 
L 537.592872 24.007074 
L 538.202209 23.899777 
L 538.811546 24.593686 
L 539.420882 21.85962 
L 540.030219 21.431866 
L 540.639555 22.310285 
L 541.248892 24.706777 
L 541.858229 24.214124 
L 542.467565 23.526343 
L 543.076902 23.845944 
L 543.686238 22.183338 
L 544.295575 25.569297 
L 544.904912 24.7173 
L 545.514248 23.305852 
L 546.123585 24.375419 
L 547.342258 24.844431 
L 547.951595 26.484025 
L 549.170268 24.719711 
L 549.779605 23.965462 
L 550.388941 23.02527 
L 550.998278 23.21734 
L 551.607614 23.223721 
L 552.216951 25.704879 
L 552.826288 24.05423 
L 553.435624 21.477113 
L 554.044961 24.632822 
L 554.654297 25.3015 
L 555.263634 25.009443 
L 555.872971 22.686595 
L 556.482307 22.99011 
L 557.091644 23.732293 
L 557.70098 25.119114 
L 558.310317 24.049563 
L 558.919654 24.553684 
L 559.52899 23.978564 
L 560.138327 23.172197 
L 560.747664 24.39144 
L 561.357 26.959481 
L 561.966337 25.271062 
L 563.18501 22.899482 
L 563.794347 22.375775 
L 564.403683 23.116058 
L 565.01302 21.922318 
L 565.622356 25.301789 
L 566.231693 25.239988 
L 566.84103 23.756465 
L 567.450366 24.433353 
L 568.059703 24.587852 
L 568.669039 23.112363 
L 569.278376 22.929447 
L 569.887713 25.938574 
L 570.497049 25.126331 
L 571.106386 25.359469 
L 571.715723 25.106011 
L 572.325059 22.319675 
L 572.934396 22.85765 
L 573.543732 25.192133 
L 574.762406 23.782973 
L 575.371742 23.891176 
L 575.981079 22.782766 
L 576.590415 22.842818 
L 577.199752 21.731498 
L 577.809089 21.548286 
L 578.418425 23.014834 
L 579.027762 22.524079 
L 579.637098 23.967428 
L 580.246435 24.435194 
L 580.855772 23.059701 
L 581.465108 22.592782 
L 582.074445 21.851228 
L 582.683781 22.819969 
L 583.293118 25.113664 
L 583.902455 24.379785 
L 584.511791 23.438849 
L 585.121128 24.280368 
L 585.730465 22.497045 
L 586.339801 23.924504 
L 586.949138 24.871663 
L 587.558474 23.976224 
L 588.167811 25.510728 
L 588.777148 24.096067 
L 589.386484 23.214416 
L 589.995821 23.188207 
L 590.605157 23.973144 
L 591.214494 21.485905 
L 591.823831 22.226852 
L 592.433167 24.769848 
L 593.65184 23.259873 
L 594.261177 23.461133 
L 594.870514 23.230257 
L 595.47985 25.252034 
L 596.089187 22.385522 
L 596.698523 22.995962 
L 597.30786 24.273021 
L 597.917197 25.978948 
L 598.526533 24.027445 
L 599.13587 23.243628 
L 599.745207 21.652299 
L 600.354543 22.182816 
L 600.96388 22.507107 
L 601.573216 23.771809 
L 602.182553 23.718871 
L 602.79189 23.212695 
L 603.401226 21.699323 
L 604.010563 23.990042 
L 604.619899 22.136668 
L 605.838573 24.126669 
L 606.447909 21.263316 
L 607.057246 24.197242 
L 607.666582 23.954321 
L 608.275919 22.546613 
L 608.885256 24.092531 
L 609.494592 23.275372 
L 610.103929 23.259403 
L 610.713266 23.964551 
L 611.931939 23.70185 
L 612.541275 24.010227 
L 613.150612 23.92372 
L 613.759949 21.049446 
L 614.369285 21.071266 
L 614.978622 20.591142 
L 615.587958 20.313768 
L 616.197295 19.277125 
L 616.806632 21.143587 
L 617.415968 21.351545 
L 618.025305 22.088145 
L 618.634641 23.439924 
L 619.243978 23.716793 
L 620.462651 21.542643 
L 621.071988 21.792742 
L 621.681324 23.709233 
L 622.290661 21.074662 
L 622.899998 24.845328 
L 623.509334 21.557108 
L 624.118671 21.56673 
L 624.728008 25.116247 
L 625.337344 22.037827 
L 625.946681 22.739819 
L 626.556017 23.719112 
L 627.165354 22.139972 
L 627.774691 21.605944 
L 628.384027 23.506096 
L 628.993364 23.962817 
L 629.6027 22.214186 
L 630.821374 21.569657 
L 631.43071 21.322785 
L 632.040047 21.263416 
L 632.649383 22.171105 
L 633.25872 22.146364 
L 633.868057 23.380534 
L 634.477393 22.74607 
L 635.08673 23.036088 
L 635.696066 21.278985 
L 636.305403 23.375108 
L 636.91474 21.707676 
L 637.524076 23.250945 
L 638.133413 22.009376 
L 638.74275 20.473471 
L 639.352086 22.035759 
L 639.961423 23.114848 
L 640.570759 23.896494 
L 641.180096 20.797734 
L 641.789433 22.608695 
L 642.398769 23.793122 
L 643.008106 22.285755 
L 643.617442 21.854552 
L 644.226779 21.958102 
L 644.836116 24.406945 
L 645.445452 24.746706 
L 646.054789 23.02963 
L 646.664125 24.700082 
L 647.273462 24.538136 
L 647.882799 22.635341 
L 648.492135 22.348079 
L 649.101472 22.861532 
L 649.710809 21.195986 
L 650.320145 21.063543 
L 650.929482 21.788876 
L 651.538818 20.393976 
L 652.148155 24.073655 
L 652.757492 20.93255 
L 653.366828 20.80672 
L 653.976165 21.977246 
L 654.585501 23.390725 
L 655.194838 23.534623 
L 655.804175 18.54 
L 656.413511 21.708267 
L 657.022848 20.097827 
L 658.241521 23.362975 
L 658.850858 23.286218 
L 659.460194 20.508256 
L 660.069531 23.376544 
L 660.678867 22.00998 
L 661.288204 21.68243 
L 661.897541 22.23251 
L 662.506877 22.283898 
L 663.116214 23.448625 
L 663.725551 23.166543 
L 664.334887 21.867648 
L 664.944224 22.826691 
L 665.55356 24.774184 
L 666.162897 22.001404 
L 666.772234 24.443563 
L 667.38157 22.214288 
L 667.990907 24.027021 
L 668.600243 21.719896 
L 669.20958 24.074267 
L 669.818917 22.481408 
L 670.428253 23.909446 
L 671.03759 22.962375 
L 671.646926 23.897739 
L 672.256263 22.469778 
L 672.8656 21.873275 
L 673.474936 22.130209 
L 674.084273 23.627321 
L 674.693609 21.30374 
L 675.302946 23.162466 
L 675.912283 20.856079 
L 676.521619 21.772189 
L 677.130956 23.28101 
L 677.740293 22.941441 
L 678.349629 21.009767 
L 678.958966 22.519498 
L 679.568302 19.793705 
L 680.177639 23.909463 
L 680.786976 21.883749 
L 681.396312 22.506851 
L 682.005649 20.781019 
L 683.224322 25.409284 
L 683.833659 21.982213 
L 684.442995 24.111184 
L 685.052332 24.085148 
L 685.661668 22.136544 
L 686.271005 21.744659 
L 686.880342 22.106 
L 687.489678 19.843306 
L 688.099015 22.616363 
L 689.317688 23.478685 
L 689.927025 23.042285 
L 690.536361 23.846168 
L 691.145698 20.30789 
L 692.364371 22.569376 
L 692.973708 22.356481 
L 693.583044 19.98576 
L 694.192381 24.161612 
L 694.801718 20.800433 
L 695.411054 21.074009 
L 696.020391 23.312506 
L 696.629727 20.295078 
L 697.239064 21.631543 
L 697.848401 21.687323 
L 698.457737 23.555592 
L 699.067074 24.465831 
L 699.067074 24.465831 
" clip-path="url(#p6273fdcfb6)" style="fill: none; stroke: #1f77b4; stroke-width: 1.5; stroke-linecap: square"/>
   </g>
   <g id="line2d_14">
    <path d="M 90.339801 146.145137 
L 90.949138 122.663603 
L 91.558474 110.395396 
L 92.167811 101.112045 
L 92.777148 95.028748 
L 93.386484 87.770775 
L 93.995821 87.774278 
L 95.823831 73.980809 
L 96.433167 74.272366 
L 97.65184 69.412788 
L 98.261177 70.862241 
L 99.47985 64.580833 
L 100.089187 67.029284 
L 100.698523 64.593288 
L 101.30786 65.372128 
L 101.917197 64.065251 
L 102.526533 63.789304 
L 103.13587 64.798954 
L 103.745207 61.920457 
L 104.354543 62.470731 
L 104.96388 60.07734 
L 105.573216 60.115953 
L 106.182553 57.995797 
L 106.79189 62.12101 
L 107.401226 61.280179 
L 108.010563 59.269249 
L 108.619899 58.179281 
L 109.229236 57.932541 
L 109.838573 58.659674 
L 110.447909 57.233863 
L 111.057246 56.996456 
L 111.666582 58.016188 
L 112.275919 56.468245 
L 112.885256 56.095733 
L 113.494592 57.511286 
L 114.103929 55.523282 
L 114.713266 54.510002 
L 115.322602 57.102346 
L 115.931939 57.301005 
L 116.541275 56.45912 
L 117.150612 52.234614 
L 117.759949 54.026127 
L 118.369285 53.987133 
L 118.978622 55.809342 
L 119.587958 54.322933 
L 120.197295 56.992639 
L 120.806632 53.834791 
L 121.415968 53.65658 
L 122.025305 52.52586 
L 122.634641 54.43524 
L 123.243978 52.229748 
L 123.853315 53.432531 
L 124.462651 51.525868 
L 125.071988 53.214762 
L 126.290661 53.319627 
L 126.899998 55.196064 
L 127.509334 51.074517 
L 128.118671 53.507112 
L 128.728008 55.413219 
L 129.337344 55.789107 
L 129.946681 51.048424 
L 130.556017 53.615509 
L 131.165354 53.652073 
L 131.774691 50.947386 
L 132.384027 50.739706 
L 132.993364 49.231059 
L 133.6027 51.729317 
L 134.212037 48.84477 
L 134.821374 50.049049 
L 135.43071 50.475701 
L 136.040047 47.878374 
L 136.649383 50.267246 
L 137.25872 49.581936 
L 137.868057 51.780929 
L 138.477393 51.16359 
L 139.08673 51.177356 
L 139.696066 47.322454 
L 140.305403 49.812991 
L 140.91474 46.676327 
L 141.524076 49.340773 
L 142.133413 51.230492 
L 142.74275 50.34544 
L 143.352086 48.593672 
L 143.961423 49.481014 
L 144.570759 50.624044 
L 145.180096 47.108369 
L 145.789433 50.232969 
L 146.398769 48.73555 
L 147.008106 49.19748 
L 147.617442 47.517592 
L 148.226779 47.964449 
L 148.836116 47.169244 
L 149.445452 49.038288 
L 150.054789 46.546128 
L 150.664125 47.624263 
L 151.273462 49.14562 
L 151.882799 48.859053 
L 152.492135 47.854068 
L 153.101472 50.621057 
L 153.710809 48.316745 
L 154.320145 47.145041 
L 154.929482 45.444345 
L 155.538818 47.59865 
L 156.148155 48.453371 
L 156.757492 47.119115 
L 157.366828 46.611852 
L 157.976165 46.814884 
L 158.585501 44.676445 
L 159.194838 46.431215 
L 159.804175 47.532804 
L 160.413511 47.205343 
L 161.022848 45.296721 
L 161.632184 42.649069 
L 162.241521 44.163108 
L 162.850858 44.806828 
L 163.460194 44.384418 
L 164.069531 47.426623 
L 164.678867 44.786777 
L 165.288204 45.222904 
L 165.897541 45.153759 
L 166.506877 45.350312 
L 167.116214 43.483744 
L 167.725551 45.077399 
L 168.334887 47.806411 
L 168.944224 46.507891 
L 169.55356 47.635839 
L 170.162897 46.70382 
L 170.772234 44.852021 
L 171.38157 45.457983 
L 171.990907 43.183184 
L 173.20958 43.907379 
L 173.818917 45.358311 
L 174.428253 44.551562 
L 175.03759 46.255268 
L 176.256263 44.405902 
L 176.8656 46.071506 
L 177.474936 41.841768 
L 178.084273 43.649019 
L 179.302946 44.083333 
L 179.912283 45.857628 
L 180.521619 41.951943 
L 181.130956 43.40391 
L 181.740293 45.510522 
L 182.349629 44.093171 
L 182.958966 46.204333 
L 183.568302 43.969441 
L 184.177639 43.684794 
L 184.786976 45.599159 
L 185.396312 44.027561 
L 186.614985 43.012168 
L 187.224322 42.061311 
L 187.833659 43.194246 
L 188.442995 43.585351 
L 189.052332 43.298558 
L 189.661668 42.804424 
L 190.271005 45.018556 
L 191.489678 43.306279 
L 192.099015 42.952181 
L 192.708352 44.875165 
L 193.317688 42.570056 
L 193.927025 39.260062 
L 194.536361 42.872649 
L 195.145698 44.011616 
L 195.755035 43.184036 
L 196.364371 43.407939 
L 196.973708 41.546688 
L 197.583044 43.611769 
L 198.192381 41.999557 
L 198.801718 41.672897 
L 199.411054 40.963454 
L 200.020391 41.251246 
L 201.239064 42.347958 
L 201.848401 41.633109 
L 202.457737 41.520377 
L 203.067074 41.756243 
L 203.67641 39.751917 
L 204.285747 42.298956 
L 205.50442 40.234569 
L 206.113757 40.644572 
L 206.723094 42.017121 
L 207.33243 42.143287 
L 207.941767 39.509726 
L 208.551103 41.496485 
L 209.16044 42.007322 
L 209.769777 41.41491 
L 210.379113 38.551681 
L 210.98845 40.4662 
L 211.597786 43.933334 
L 212.207123 42.769934 
L 212.81646 40.129823 
L 213.425796 43.288031 
L 214.035133 38.208095 
L 214.644469 42.347845 
L 215.253806 39.886927 
L 215.863143 41.433664 
L 216.472479 40.235887 
L 217.081816 40.870256 
L 217.691152 42.345599 
L 218.300489 42.9493 
L 218.909826 39.924286 
L 220.128499 42.961122 
L 220.737836 39.58379 
L 221.347172 39.724459 
L 221.956509 39.612909 
L 222.565845 43.419837 
L 223.175182 38.289482 
L 223.784519 39.554064 
L 224.393855 38.842403 
L 225.003192 42.285384 
L 225.612528 39.907221 
L 226.221865 39.099724 
L 226.831202 38.915908 
L 227.440538 38.118428 
L 228.049875 40.028052 
L 228.659211 39.595836 
L 229.268548 40.462881 
L 229.877885 42.536148 
L 230.487221 40.821653 
L 231.096558 38.471984 
L 231.705895 38.519381 
L 232.315231 39.870948 
L 232.924568 37.576102 
L 234.143241 36.826427 
L 234.752578 40.77952 
L 235.361914 37.43824 
L 235.971251 40.270543 
L 236.580587 42.168481 
L 237.189924 38.610787 
L 237.799261 37.898191 
L 238.408597 38.376119 
L 239.017934 37.659109 
L 239.62727 38.060971 
L 240.236607 36.026862 
L 240.845944 37.395208 
L 241.45528 39.14948 
L 242.064617 35.721523 
L 242.673953 40.045825 
L 243.28329 39.355817 
L 243.892627 35.958171 
L 244.501963 37.439632 
L 245.1113 40.008765 
L 245.720637 34.985425 
L 246.329973 38.300267 
L 246.93931 36.721696 
L 247.548646 38.727923 
L 248.157983 38.427952 
L 248.76732 36.287627 
L 249.376656 36.444505 
L 249.985993 37.152511 
L 250.595329 36.551004 
L 251.204666 41.992145 
L 251.814003 36.722612 
L 252.423339 36.217545 
L 253.032676 38.300897 
L 253.642012 38.055334 
L 254.251349 39.274597 
L 254.860686 37.894424 
L 255.470022 39.413823 
L 256.688695 38.193737 
L 257.298032 36.729869 
L 257.907369 36.780553 
L 258.516705 38.848473 
L 259.126042 37.468949 
L 259.735379 36.856981 
L 260.344715 37.063033 
L 260.954052 37.599138 
L 261.563388 38.349932 
L 262.782062 35.795505 
L 263.391398 36.653528 
L 264.000735 35.368865 
L 264.610071 34.791406 
L 265.219408 38.639928 
L 265.828745 37.522617 
L 266.438081 37.721918 
L 267.047418 35.269294 
L 267.656754 37.616197 
L 268.266091 36.975287 
L 268.875428 37.784746 
L 269.484764 37.387905 
L 270.094101 39.36826 
L 270.703438 35.923821 
L 271.312774 36.086046 
L 271.922111 36.726679 
L 272.531447 34.424943 
L 273.140784 37.694744 
L 273.750121 36.895358 
L 274.359457 36.549346 
L 274.968794 35.863376 
L 275.57813 36.100503 
L 276.796804 37.278589 
L 277.40614 36.074856 
L 278.015477 35.838767 
L 278.624813 35.984342 
L 279.23415 34.86607 
L 279.843487 37.288076 
L 280.452823 34.122877 
L 281.06216 35.621444 
L 281.671496 38.097694 
L 282.280833 36.932576 
L 282.89017 36.570867 
L 284.108843 34.125534 
L 284.71818 36.106121 
L 285.327516 33.10793 
L 285.936853 34.570129 
L 286.546189 33.779197 
L 287.155526 38.630324 
L 287.764863 33.129956 
L 288.374199 32.815101 
L 288.983536 33.185738 
L 289.592872 36.755756 
L 290.202209 36.209624 
L 290.811546 35.059868 
L 292.030219 34.780772 
L 292.639555 31.580819 
L 293.248892 35.308822 
L 293.858229 31.811808 
L 294.467565 38.747673 
L 295.076902 31.670908 
L 295.686238 35.850969 
L 296.295575 35.435651 
L 296.904912 33.324237 
L 297.514248 32.662435 
L 298.123585 36.049196 
L 298.732922 37.207599 
L 299.342258 32.09742 
L 299.951595 34.981888 
L 300.560931 31.920847 
L 301.170268 34.420719 
L 301.779605 34.786303 
L 302.388941 36.112995 
L 302.998278 34.946375 
L 303.607614 35.65312 
L 304.216951 34.06838 
L 304.826288 33.257002 
L 305.435624 33.18275 
L 306.044961 33.421147 
L 306.654297 35.717916 
L 307.263634 32.979843 
L 308.482307 36.308373 
L 309.091644 33.08653 
L 309.70098 32.06031 
L 310.310317 34.847251 
L 310.919654 34.966337 
L 311.52899 33.339761 
L 312.138327 33.807313 
L 312.747664 36.31115 
L 313.357 32.463879 
L 313.966337 33.168419 
L 314.575673 31.962763 
L 315.18501 33.747316 
L 315.794347 38.874444 
L 316.403683 34.139899 
L 317.01302 34.513159 
L 317.622356 33.235832 
L 318.231693 34.855343 
L 318.84103 35.027382 
L 319.450366 34.812755 
L 320.059703 32.821768 
L 320.669039 32.213816 
L 321.278376 35.171207 
L 321.887713 32.396864 
L 322.497049 34.482913 
L 323.106386 33.018949 
L 323.715723 31.960281 
L 324.325059 33.716887 
L 324.934396 31.956805 
L 325.543732 32.232807 
L 326.153069 32.183604 
L 326.762406 34.085349 
L 327.371742 30.348465 
L 327.981079 33.292192 
L 328.590415 34.3649 
L 329.199752 32.164269 
L 329.809089 31.986405 
L 330.418425 32.657094 
L 331.027762 31.079644 
L 331.637098 32.091722 
L 332.246435 34.099518 
L 333.465108 31.694369 
L 334.074445 31.238468 
L 334.683781 35.224935 
L 335.293118 32.050819 
L 335.902455 35.400082 
L 336.511791 32.225206 
L 337.121128 32.432867 
L 337.730465 31.578353 
L 338.339801 33.053925 
L 338.949138 32.169888 
L 339.558474 32.563647 
L 340.167811 29.514202 
L 340.777148 32.904634 
L 341.386484 32.543878 
L 341.995821 34.079493 
L 342.605157 30.481837 
L 343.214494 29.363037 
L 343.823831 32.152705 
L 344.433167 33.680054 
L 345.042504 31.453679 
L 345.65184 33.527818 
L 346.261177 31.369669 
L 346.870514 33.937645 
L 347.47985 32.951137 
L 348.089187 35.532599 
L 348.698523 34.319446 
L 349.30786 31.331076 
L 349.917197 32.21277 
L 350.526533 31.368307 
L 351.13587 32.519189 
L 351.745207 30.549208 
L 352.354543 33.643961 
L 352.96388 29.992501 
L 353.573216 32.060449 
L 354.182553 33.098808 
L 355.401226 30.620603 
L 356.010563 32.029312 
L 356.619899 30.62456 
L 357.229236 31.14986 
L 357.838573 33.136685 
L 358.447909 31.544811 
L 359.057246 30.9922 
L 359.666582 32.999347 
L 360.885256 31.542779 
L 361.494592 32.481514 
L 362.713266 30.017123 
L 363.322602 29.926195 
L 363.931939 32.843574 
L 364.541275 32.328748 
L 365.150612 33.33554 
L 365.759949 35.236983 
L 366.369285 29.408071 
L 366.978622 32.080159 
L 367.587958 32.769827 
L 368.197295 31.532906 
L 368.806632 30.885521 
L 369.415968 31.708846 
L 370.025305 29.962328 
L 370.634641 32.915548 
L 371.243978 31.587523 
L 371.853315 32.321728 
L 372.462651 29.547567 
L 373.071988 32.320599 
L 373.681324 31.884654 
L 374.290661 31.913807 
L 374.899998 31.280048 
L 375.509334 31.035383 
L 376.118671 33.2957 
L 376.728008 31.427882 
L 377.337344 31.710879 
L 377.946681 29.642181 
L 378.556017 30.67227 
L 379.165354 32.161624 
L 379.774691 30.715772 
L 380.384027 31.662456 
L 380.993364 30.603258 
L 381.6027 29.119022 
L 382.212037 31.803135 
L 382.821374 32.835991 
L 383.43071 30.740752 
L 384.040047 30.136711 
L 384.649383 31.958409 
L 385.25872 30.992277 
L 385.868057 33.602795 
L 386.477393 30.75722 
L 387.08673 29.46152 
L 387.696066 32.186862 
L 388.91474 29.891194 
L 389.524076 31.776512 
L 390.133413 31.187434 
L 390.74275 30.774683 
L 391.352086 33.453154 
L 391.961423 29.08793 
L 392.570759 30.382407 
L 393.180096 26.457064 
L 393.789433 29.135735 
L 394.398769 28.322633 
L 395.008106 30.215654 
L 395.617442 30.088544 
L 396.226779 29.600468 
L 396.836116 30.393638 
L 397.445452 29.156109 
L 398.054789 31.548371 
L 398.664125 26.231033 
L 399.273462 29.368658 
L 399.882799 31.756579 
L 400.492135 27.268267 
L 401.101472 32.454779 
L 401.710809 28.296349 
L 402.320145 30.618783 
L 402.929482 27.186094 
L 403.538818 30.770214 
L 404.148155 30.3312 
L 405.366828 30.06551 
L 405.976165 31.616256 
L 406.585501 28.638935 
L 407.194838 29.706921 
L 407.804175 30.473574 
L 408.413511 29.564624 
L 409.022848 30.275302 
L 409.632184 32.519912 
L 410.241521 29.909089 
L 410.850858 29.792261 
L 411.460194 31.45656 
L 412.678867 30.457476 
L 413.288204 31.239397 
L 413.897541 29.154852 
L 414.506877 28.80878 
L 415.116214 28.895877 
L 415.725551 29.737194 
L 416.334887 29.203078 
L 416.944224 30.732777 
L 417.55356 31.134384 
L 418.162897 28.423788 
L 418.772234 27.932896 
L 419.38157 28.779426 
L 419.990907 27.445466 
L 420.600243 30.433048 
L 421.20958 29.015983 
L 422.428253 29.203562 
L 423.646926 27.134234 
L 424.256263 29.904141 
L 424.8656 30.208339 
L 425.474936 27.409216 
L 426.693609 30.660331 
L 427.302946 28.485494 
L 427.912283 28.756144 
L 428.521619 27.389708 
L 429.130956 28.956707 
L 429.740293 29.975309 
L 430.349629 27.960081 
L 430.958966 27.89277 
L 431.568302 29.373994 
L 432.177639 28.364743 
L 432.786976 30.241219 
L 433.396312 32.721017 
L 434.005649 30.515366 
L 434.614985 28.786881 
L 435.224322 29.513001 
L 435.833659 29.702192 
L 436.442995 28.283946 
L 437.052332 28.298358 
L 437.661668 27.216353 
L 438.271005 26.504991 
L 438.880342 27.292555 
L 439.489678 25.273621 
L 440.099015 30.710706 
L 440.708352 30.091603 
L 441.317688 28.568777 
L 441.927025 29.260872 
L 442.536361 28.878008 
L 443.145698 31.420596 
L 443.755035 29.028413 
L 444.364371 27.284155 
L 444.973708 29.801816 
L 445.583044 29.581902 
L 446.192381 28.854142 
L 446.801718 29.885703 
L 448.020391 29.201615 
L 448.629727 28.356922 
L 449.239064 29.380577 
L 449.848401 27.293866 
L 450.457737 28.617321 
L 451.067074 27.12657 
L 451.67641 30.073098 
L 452.285747 27.950608 
L 452.895084 28.064375 
L 453.50442 29.564299 
L 454.113757 29.933159 
L 454.723094 29.373712 
L 455.33243 28.126401 
L 455.941767 28.493856 
L 456.551103 25.972986 
L 457.769777 28.800722 
L 458.379113 27.155858 
L 458.98845 28.669018 
L 459.597786 30.566645 
L 460.207123 30.2733 
L 460.81646 29.825212 
L 461.425796 29.942035 
L 462.035133 29.153784 
L 462.644469 30.188128 
L 463.253806 24.765323 
L 463.863143 30.095513 
L 464.472479 29.801154 
L 465.081816 28.998973 
L 465.691152 26.004448 
L 466.300489 29.055859 
L 467.519162 26.340144 
L 468.128499 31.476601 
L 468.737836 28.353284 
L 469.347172 28.334287 
L 469.956509 27.788984 
L 470.565845 28.553003 
L 471.175182 28.74615 
L 471.784519 25.61666 
L 472.393855 29.51874 
L 473.003192 28.666345 
L 473.612528 28.920457 
L 474.221865 25.802363 
L 474.831202 29.577735 
L 475.440538 28.74049 
L 476.659211 25.98165 
L 477.268548 26.929412 
L 477.877885 28.1202 
L 478.487221 27.47033 
L 479.096558 29.717735 
L 479.705895 28.986302 
L 480.315231 28.799719 
L 480.924568 26.598694 
L 481.533904 28.003527 
L 482.143241 26.728616 
L 483.361914 30.254203 
L 483.971251 28.041118 
L 484.580587 27.396618 
L 485.189924 29.302633 
L 485.799261 29.509867 
L 486.408597 27.422045 
L 487.017934 30.322223 
L 488.236607 28.570396 
L 488.845944 27.264161 
L 489.45528 28.605231 
L 490.064617 31.741792 
L 490.673953 28.024071 
L 491.28329 27.665644 
L 491.892627 26.969004 
L 492.501963 26.585334 
L 493.1113 29.7703 
L 493.720637 28.629 
L 494.329973 28.091134 
L 494.93931 26.828707 
L 495.548646 27.534011 
L 496.157983 24.941972 
L 496.76732 26.717799 
L 497.376656 27.558683 
L 497.985993 25.158311 
L 498.595329 26.816809 
L 499.204666 26.529307 
L 499.814003 29.99134 
L 501.032676 26.924613 
L 501.642012 27.511613 
L 502.251349 29.126674 
L 502.860686 25.417296 
L 503.470022 26.323785 
L 504.688695 28.549297 
L 505.298032 25.419797 
L 505.907369 27.35155 
L 506.516705 27.968303 
L 507.126042 27.411801 
L 507.735379 27.765655 
L 508.954052 27.279371 
L 509.563388 27.539366 
L 510.172725 30.17818 
L 510.782062 24.78493 
L 511.391398 27.320285 
L 512.000735 31.248503 
L 512.610071 28.446292 
L 513.219408 28.304791 
L 513.828745 27.278153 
L 514.438081 26.945165 
L 515.047418 27.963535 
L 515.656754 25.244829 
L 516.266091 26.101164 
L 516.875428 25.36574 
L 517.484764 27.792874 
L 518.094101 26.037058 
L 518.703437 28.14579 
L 519.312774 28.460639 
L 520.531447 25.930014 
L 521.140784 24.615323 
L 521.750121 26.693868 
L 522.359457 24.260827 
L 522.968794 24.461808 
L 523.57813 29.459376 
L 524.187467 24.517281 
L 525.40614 29.96675 
L 526.015477 29.073982 
L 526.624813 25.477705 
L 527.23415 25.523112 
L 527.843487 27.640153 
L 528.452823 26.159385 
L 529.06216 28.652476 
L 529.671496 24.382116 
L 530.280833 29.055196 
L 530.89017 26.797783 
L 531.499506 25.795152 
L 532.108843 26.999857 
L 532.71818 25.630088 
L 533.327516 26.543986 
L 533.936853 28.485015 
L 534.546189 28.193257 
L 535.764863 25.791683 
L 536.374199 27.501376 
L 536.983536 28.21793 
L 537.592872 26.441345 
L 538.811546 27.864666 
L 539.420882 24.658228 
L 540.030219 24.885924 
L 540.639555 28.875817 
L 541.248892 27.470239 
L 541.858229 25.747826 
L 542.467565 27.239076 
L 543.076902 26.813993 
L 543.686238 26.739094 
L 544.295575 24.014521 
L 544.904912 23.781664 
L 545.514248 28.791813 
L 546.123585 29.342995 
L 546.732922 26.021607 
L 547.342258 25.572515 
L 547.951595 28.491086 
L 548.560931 26.334913 
L 549.170268 25.669822 
L 549.779605 28.390212 
L 550.998278 26.03251 
L 551.607614 24.308165 
L 552.216951 27.381243 
L 552.826288 25.261607 
L 553.435624 25.628775 
L 554.044961 25.587713 
L 554.654297 24.748997 
L 555.263634 24.349275 
L 555.872971 27.175084 
L 556.482307 26.77855 
L 557.091644 28.122969 
L 557.70098 26.046509 
L 558.310317 29.984747 
L 558.919654 25.498961 
L 559.52899 26.187938 
L 560.138327 29.262461 
L 560.747664 26.635105 
L 561.357 26.037469 
L 561.966337 25.753661 
L 562.575673 26.343234 
L 563.18501 26.479048 
L 563.794347 27.787479 
L 564.403683 28.381027 
L 565.01302 25.382124 
L 565.622356 23.188715 
L 566.231693 23.835907 
L 566.84103 27.06326 
L 567.450366 27.85693 
L 568.059703 25.173061 
L 568.669039 27.488325 
L 569.278376 28.693969 
L 569.887713 23.435836 
L 570.497049 26.176216 
L 571.106386 26.966128 
L 571.715723 25.106038 
L 572.325059 27.25146 
L 572.934396 25.757026 
L 573.543732 25.143599 
L 574.153069 25.066183 
L 574.762406 27.524103 
L 575.371742 26.432156 
L 575.981079 27.029414 
L 576.590415 26.925311 
L 577.199752 26.045339 
L 578.418425 27.860072 
L 579.027762 22.773885 
L 579.637098 25.229547 
L 580.246435 24.80378 
L 580.855772 26.880065 
L 581.465108 23.500562 
L 582.074445 27.011625 
L 582.683781 26.183287 
L 583.293118 27.568144 
L 583.902455 25.054383 
L 584.511791 27.88045 
L 585.121128 26.276601 
L 585.730465 27.352891 
L 586.339801 27.443451 
L 586.949138 24.481386 
L 587.558474 25.460853 
L 588.167811 24.108042 
L 588.777148 25.835988 
L 589.386484 25.184329 
L 589.995821 26.11784 
L 591.214494 25.671646 
L 591.823831 24.043821 
L 592.433167 27.567509 
L 593.042504 26.894828 
L 594.261177 26.364518 
L 594.870514 24.489561 
L 595.47985 27.868642 
L 596.089187 25.214466 
L 596.698523 24.691465 
L 597.30786 27.236953 
L 597.917197 28.546109 
L 598.526533 23.317469 
L 599.13587 26.247464 
L 599.745207 25.683006 
L 600.354543 26.321346 
L 600.96388 26.656163 
L 601.573216 24.409507 
L 602.182553 29.141583 
L 602.79189 27.530878 
L 603.401226 22.379647 
L 604.010563 30.062225 
L 604.619899 26.157373 
L 606.447909 27.239008 
L 607.666582 25.422845 
L 608.275919 25.734759 
L 608.885256 26.700322 
L 609.494592 25.313386 
L 610.103929 24.644893 
L 610.713266 26.7086 
L 611.322602 26.828709 
L 611.931939 25.727487 
L 612.541275 25.206919 
L 613.150612 27.468414 
L 613.759949 27.060053 
L 614.369285 27.053421 
L 614.978622 24.09124 
L 615.587958 27.835098 
L 616.197295 25.685844 
L 616.806632 24.165509 
L 617.415968 24.989359 
L 618.025305 26.5032 
L 618.634641 26.252017 
L 619.243978 21.978737 
L 619.853315 25.543899 
L 620.462651 24.01075 
L 621.071988 24.566588 
L 621.681324 24.749414 
L 622.290661 26.25535 
L 622.899998 23.658668 
L 623.509334 26.113252 
L 624.118671 27.703568 
L 624.728008 23.991933 
L 625.337344 23.394876 
L 625.946681 26.113941 
L 626.556017 25.829628 
L 627.165354 22.384025 
L 627.774691 25.372299 
L 628.384027 25.522516 
L 628.993364 24.750892 
L 629.6027 26.009356 
L 630.212037 26.762954 
L 630.821374 24.681738 
L 631.43071 24.557325 
L 632.040047 24.881717 
L 632.649383 23.64693 
L 633.25872 26.703876 
L 633.868057 25.31274 
L 634.477393 26.093195 
L 635.08673 24.057851 
L 635.696066 26.021464 
L 636.305403 24.539975 
L 636.91474 26.721828 
L 637.524076 24.645066 
L 638.133413 26.837722 
L 638.74275 28.457314 
L 639.352086 26.04182 
L 639.961423 26.14473 
L 640.570759 25.318497 
L 641.180096 26.631271 
L 641.789433 26.280277 
L 642.398769 25.153587 
L 643.008106 25.828136 
L 644.226779 24.76188 
L 644.836116 25.659988 
L 645.445452 26.935336 
L 646.054789 25.412151 
L 646.664125 25.933451 
L 647.273462 25.020138 
L 647.882799 22.331767 
L 648.492135 24.561992 
L 649.101472 22.88034 
L 649.710809 25.38152 
L 650.320145 24.139675 
L 650.929482 25.672743 
L 651.538818 26.723976 
L 652.148155 25.605747 
L 653.366828 22.90162 
L 653.976165 26.227986 
L 654.585501 21.713996 
L 655.194838 23.130692 
L 655.804175 24.862486 
L 656.413511 23.5804 
L 657.022848 26.439746 
L 657.632184 27.044513 
L 658.241521 23.746572 
L 658.850858 26.60161 
L 659.460194 25.949334 
L 660.069531 24.602122 
L 660.678867 25.079951 
L 661.288204 27.063714 
L 661.897541 25.599694 
L 662.506877 25.970035 
L 663.116214 26.8782 
L 663.725551 24.79526 
L 664.334887 25.422513 
L 664.944224 23.999496 
L 665.55356 26.802416 
L 666.162897 27.630231 
L 666.772234 23.715781 
L 667.38157 26.229757 
L 667.990907 25.672673 
L 668.600243 27.128122 
L 669.20958 24.795195 
L 669.818917 25.618849 
L 670.428253 25.432183 
L 671.03759 24.687234 
L 671.646926 24.178993 
L 672.256263 25.005996 
L 672.8656 26.130731 
L 673.474936 23.57527 
L 674.084273 25.531841 
L 674.693609 26.468122 
L 675.302946 24.018443 
L 675.912283 25.394445 
L 677.130956 25.795344 
L 677.740293 25.476809 
L 678.349629 25.854913 
L 678.958966 25.155627 
L 679.568302 25.463964 
L 680.177639 25.40324 
L 680.786976 26.583789 
L 681.396312 23.289675 
L 682.005649 25.267289 
L 682.614985 25.449451 
L 683.224322 26.356958 
L 683.833659 25.531816 
L 684.442995 23.370418 
L 685.052332 23.485138 
L 685.661668 24.516557 
L 686.271005 23.903368 
L 686.880342 24.20838 
L 687.489678 26.394513 
L 688.099015 24.090262 
L 689.317688 24.715892 
L 689.927025 24.492912 
L 691.145698 25.245788 
L 691.755035 25.218748 
L 692.364371 24.501222 
L 693.583044 26.688359 
L 694.192381 23.439949 
L 694.801718 24.474185 
L 695.411054 23.914731 
L 696.020391 23.893357 
L 696.629727 24.77095 
L 697.239064 24.615231 
L 697.848401 25.312598 
L 698.457737 23.765566 
L 699.067074 24.566635 
L 699.067074 24.566635 
" clip-path="url(#p6273fdcfb6)" style="fill: none; stroke: #ff7f0e; stroke-width: 1.5; stroke-linecap: square"/>
   </g>
   <g id="patch_3">
    <path d="M 59.903438 256.68 
L 59.903438 7.2 
" style="fill: none; stroke: #000000; stroke-width: 0.8; stroke-linejoin: miter; stroke-linecap: square"/>
   </g>
   <g id="patch_4">
    <path d="M 729.503438 256.68 
L 729.503438 7.2 
" style="fill: none; stroke: #000000; stroke-width: 0.8; stroke-linejoin: miter; stroke-linecap: square"/>
   </g>
   <g id="patch_5">
    <path d="M 59.903438 256.68 
L 729.503438 256.68 
" style="fill: none; stroke: #000000; stroke-width: 0.8; stroke-linejoin: miter; stroke-linecap: square"/>
   </g>
   <g id="patch_6">
    <path d="M 59.903438 7.2 
L 729.503438 7.2 
" style="fill: none; stroke: #000000; stroke-width: 0.8; stroke-linejoin: miter; stroke-linecap: square"/>
   </g>
   <g id="legend_1">
    <g id="patch_7">
     <path d="M 525.183438 248.68 
L 718.303437 248.68 
Q 721.503438 248.68 721.503438 245.48 
L 721.503438 200.075 
Q 721.503438 196.875 718.303437 196.875 
L 525.183438 196.875 
Q 521.983438 196.875 521.983438 200.075 
L 521.983438 245.48 
Q 521.983438 248.68 525.183438 248.68 
z
" style="fill: #ffffff; opacity: 0.8; stroke: #cccccc; stroke-linejoin: miter"/>
    </g>
    <g id="line2d_15">
     <path d="M 528.383438 209.8325 
L 544.383438 209.8325 
L 560.383438 209.8325 
" style="fill: none; stroke: #1f77b4; stroke-width: 1.5; stroke-linecap: square"/>
    </g>
    <g id="text_15">
     <!-- UCB ($c=2$) -->
     <g transform="translate(573.183437 215.4325) scale(0.16 -0.16)">
      <defs>
       <path id="DejaVuSans-55" d="M 556 4666 
L 1191 4666 
L 1191 1831 
Q 1191 1081 1462 751 
Q 1734 422 2344 422 
Q 2950 422 3222 751 
Q 3494 1081 3494 1831 
L 3494 4666 
L 4128 4666 
L 4128 1753 
Q 4128 841 3676 375 
Q 3225 -91 2344 -91 
Q 1459 -91 1007 375 
Q 556 841 556 1753 
L 556 4666 
z
" transform="scale(0.015625)"/>
       <path id="DejaVuSans-43" d="M 4122 4306 
L 4122 3641 
Q 3803 3938 3442 4084 
Q 3081 4231 2675 4231 
Q 1875 4231 1450 3742 
Q 1025 3253 1025 2328 
Q 1025 1406 1450 917 
Q 1875 428 2675 428 
Q 3081 428 3442 575 
Q 3803 722 4122 1019 
L 4122 359 
Q 3791 134 3420 21 
Q 3050 -91 2638 -91 
Q 1578 -91 968 557 
Q 359 1206 359 2328 
Q 359 3453 968 4101 
Q 1578 4750 2638 4750 
Q 3056 4750 3426 4639 
Q 3797 4528 4122 4306 
z
" transform="scale(0.015625)"/>
       <path id="DejaVuSans-42" d="M 1259 2228 
L 1259 519 
L 2272 519 
Q 2781 519 3026 730 
Q 3272 941 3272 1375 
Q 3272 1813 3026 2020 
Q 2781 2228 2272 2228 
L 1259 2228 
z
M 1259 4147 
L 1259 2741 
L 2194 2741 
Q 2656 2741 2882 2914 
Q 3109 3088 3109 3444 
Q 3109 3797 2882 3972 
Q 2656 4147 2194 4147 
L 1259 4147 
z
M 628 4666 
L 2241 4666 
Q 2963 4666 3353 4366 
Q 3744 4066 3744 3513 
Q 3744 3084 3544 2831 
Q 3344 2578 2956 2516 
Q 3422 2416 3680 2098 
Q 3938 1781 3938 1306 
Q 3938 681 3513 340 
Q 3088 0 2303 0 
L 628 0 
L 628 4666 
z
" transform="scale(0.015625)"/>
       <path id="DejaVuSans-28" d="M 1984 4856 
Q 1566 4138 1362 3434 
Q 1159 2731 1159 2009 
Q 1159 1288 1364 580 
Q 1569 -128 1984 -844 
L 1484 -844 
Q 1016 -109 783 600 
Q 550 1309 550 2009 
Q 550 2706 781 3412 
Q 1013 4119 1484 4856 
L 1984 4856 
z
" transform="scale(0.015625)"/>
       <path id="DejaVuSans-Oblique-63" d="M 3431 3366 
L 3316 2797 
Q 3109 2947 2876 3022 
Q 2644 3097 2394 3097 
Q 2119 3097 1870 3000 
Q 1622 2903 1453 2725 
Q 1184 2453 1037 2087 
Q 891 1722 891 1331 
Q 891 859 1127 628 
Q 1363 397 1844 397 
Q 2081 397 2348 469 
Q 2616 541 2906 684 
L 2797 116 
Q 2547 13 2283 -39 
Q 2019 -91 1741 -91 
Q 1044 -91 669 257 
Q 294 606 294 1253 
Q 294 1797 489 2255 
Q 684 2713 1069 3078 
Q 1331 3328 1684 3456 
Q 2038 3584 2456 3584 
Q 2700 3584 2940 3529 
Q 3181 3475 3431 3366 
z
" transform="scale(0.015625)"/>
       <path id="DejaVuSans-3d" d="M 678 2906 
L 4684 2906 
L 4684 2381 
L 678 2381 
L 678 2906 
z
M 678 1631 
L 4684 1631 
L 4684 1100 
L 678 1100 
L 678 1631 
z
" transform="scale(0.015625)"/>
       <path id="DejaVuSans-29" d="M 513 4856 
L 1013 4856 
Q 1481 4119 1714 3412 
Q 1947 2706 1947 2009 
Q 1947 1309 1714 600 
Q 1481 -109 1013 -844 
L 513 -844 
Q 928 -128 1133 580 
Q 1338 1288 1338 2009 
Q 1338 2731 1133 3434 
Q 928 4138 513 4856 
z
" transform="scale(0.015625)"/>
      </defs>
      <use xlink:href="#DejaVuSans-55" transform="translate(0 0.125)"/>
      <use xlink:href="#DejaVuSans-43" transform="translate(73.193359 0.125)"/>
      <use xlink:href="#DejaVuSans-42" transform="translate(143.017578 0.125)"/>
      <use xlink:href="#DejaVuSans-20" transform="translate(211.621094 0.125)"/>
      <use xlink:href="#DejaVuSans-28" transform="translate(243.408203 0.125)"/>
      <use xlink:href="#DejaVuSans-Oblique-63" transform="translate(282.421875 0.125)"/>
      <use xlink:href="#DejaVuSans-3d" transform="translate(356.884766 0.125)"/>
      <use xlink:href="#DejaVuSans-32" transform="translate(460.15625 0.125)"/>
      <use xlink:href="#DejaVuSans-29" transform="translate(523.779297 0.125)"/>
     </g>
    </g>
    <g id="line2d_16">
     <path d="M 528.383438 233.32 
L 544.383438 233.32 
L 560.383438 233.32 
" style="fill: none; stroke: #ff7f0e; stroke-width: 1.5; stroke-linecap: square"/>
    </g>
    <g id="text_16">
     <!-- $\epsilon$-greedy ($\epsilon=0.1$) -->
     <g transform="translate(573.183437 238.92) scale(0.16 -0.16)">
      <defs>
       <path id="DejaVuSans-Oblique-3b5" d="M 1263 1888 
Q 925 1963 778 2166 
Q 669 2309 669 2503 
Q 669 3034 1175 3344 
Q 1575 3588 2188 3588 
Q 2425 3588 2684 3550 
Q 2944 3513 3234 3438 
L 3134 2916 
Q 2847 3006 2606 3047 
Q 2359 3088 2138 3088 
Q 1766 3088 1522 2944 
Q 1228 2772 1228 2522 
Q 1228 2356 1381 2241 
Q 1563 2103 1925 2103 
L 2409 2103 
L 2319 1628 
L 1856 1628 
Q 1425 1628 1172 1469 
Q 828 1253 828 916 
Q 828 703 1013 563 
Q 1244 388 1716 388 
Q 2006 388 2284 444 
Q 2563 503 2806 619 
L 2700 84 
Q 2403 -3 2131 -47 
Q 1859 -91 1609 -91 
Q 866 -91 516 194 
Q 250 413 250 781 
Q 250 1278 600 1584 
Q 859 1813 1263 1888 
z
" transform="scale(0.015625)"/>
       <path id="DejaVuSans-2d" d="M 313 2009 
L 1997 2009 
L 1997 1497 
L 313 1497 
L 313 2009 
z
" transform="scale(0.015625)"/>
       <path id="DejaVuSans-79" d="M 2059 -325 
Q 1816 -950 1584 -1140 
Q 1353 -1331 966 -1331 
L 506 -1331 
L 506 -850 
L 844 -850 
Q 1081 -850 1212 -737 
Q 1344 -625 1503 -206 
L 1606 56 
L 191 3500 
L 800 3500 
L 1894 763 
L 2988 3500 
L 3597 3500 
L 2059 -325 
z
" transform="scale(0.015625)"/>
      </defs>
      <use xlink:href="#DejaVuSans-Oblique-3b5" transform="translate(0 0.015625)"/>
      <use xlink:href="#DejaVuSans-2d" transform="translate(54.052734 0.015625)"/>
      <use xlink:href="#DejaVuSans-67" transform="translate(90.136719 0.015625)"/>
      <use xlink:href="#DejaVuSans-72" transform="translate(153.613281 0.015625)"/>
      <use xlink:href="#DejaVuSans-65" transform="translate(194.726562 0.015625)"/>
      <use xlink:href="#DejaVuSans-65" transform="translate(256.25 0.015625)"/>
      <use xlink:href="#DejaVuSans-64" transform="translate(317.773438 0.015625)"/>
      <use xlink:href="#DejaVuSans-79" transform="translate(381.25 0.015625)"/>
      <use xlink:href="#DejaVuSans-20" transform="translate(440.429688 0.015625)"/>
      <use xlink:href="#DejaVuSans-28" transform="translate(472.216797 0.015625)"/>
      <use xlink:href="#DejaVuSans-Oblique-3b5" transform="translate(511.230469 0.015625)"/>
      <use xlink:href="#DejaVuSans-3d" transform="translate(584.765625 0.015625)"/>
      <use xlink:href="#DejaVuSans-30" transform="translate(688.037109 0.015625)"/>
      <use xlink:href="#DejaVuSans-2e" transform="translate(751.660156 0.015625)"/>
      <use xlink:href="#DejaVuSans-31" transform="translate(783.447266 0.015625)"/>
      <use xlink:href="#DejaVuSans-29" transform="translate(847.070312 0.015625)"/>
     </g>
    </g>
   </g>
  </g>
 </g>
 <defs>
  <clipPath id="p6273fdcfb6">
   <rect x="59.903438" y="7.2" width="669.6" height="249.48"/>
  </clipPath>
 </defs>
</svg>
