<?xml version="1.0" encoding="utf-8" standalone="no"?>
<!DOCTYPE svg PUBLIC "-//W3C//DTD SVG 1.1//EN"
  "http://www.w3.org/Graphics/SVG/1.1/DTD/svg11.dtd">
<svg xmlns:xlink="http://www.w3.org/1999/xlink" width="725.145625pt" height="301.97875pt" viewBox="0 0 725.145625 301.97875" xmlns="http://www.w3.org/2000/svg" version="1.1">
 <metadata>
  <rdf:RDF xmlns:dc="http://purl.org/dc/elements/1.1/" xmlns:cc="http://creativecommons.org/ns#" xmlns:rdf="http://www.w3.org/1999/02/22-rdf-syntax-ns#">
   <cc:Work>
    <dc:type rdf:resource="http://purl.org/dc/dcmitype/StillImage"/>
    <dc:date>2026-03-06T22:54:24.852615</dc:date>
    <dc:format>image/svg+xml</dc:format>
    <dc:creator>
     <cc:Agent>
      <dc:title>Matplotlib v3.10.8, https://matplotlib.org/</dc:title>
     </cc:Agent>
    </dc:creator>
   </cc:Work>
  </rdf:RDF>
 </metadata>
 <defs>
  <style type="text/css">*{stroke-linejoin: round; stroke-linecap: butt}</style>
 </defs>
 <g id="figure_1">
  <g id="patch_1">
   <path d="M 0 301.97875 
L 725.145625 301.97875 
L 725.145625 0 
L 0 0 
z
" style="fill: #ffffff"/>
  </g>
  <g id="axes_1">
   <g id="patch_2">
    <path d="M 48.345625 256.68 
L 717.945625 256.68 
L 717.945625 7.2 
L 48.345625 7.2 
z
" style="fill: #ffffff"/>
   </g>
   <g id="matplotlib.axis_1">
    <g id="xtick_1">
     <g id="line2d_1">
      <defs>
       <path id="m69bf5e8db3" d="M 0 0 
L 0 3.5 
" style="stroke: #000000; stroke-width: 0.8"/>
      </defs>
      <g>
       <use xlink:href="#m69bf5e8db3" x="78.781989" y="256.68" style="stroke: #000000; stroke-width: 0.8"/>
      </g>
     </g>
     <g id="text_1">
      <!-- 0 -->
      <g transform="translate(75.600739 271.278437) scale(0.1 -0.1)">
       <defs>
        <path id="DejaVuSans-30" d="M 2034 4250 
Q 1547 4250 1301 3770 
Q 1056 3291 1056 2328 
Q 1056 1369 1301 889 
Q 1547 409 2034 409 
Q 2525 409 2770 889 
Q 3016 1369 3016 2328 
Q 3016 3291 2770 3770 
Q 2525 4250 2034 4250 
z
M 2034 4750 
Q 2819 4750 3233 4129 
Q 3647 3509 3647 2328 
Q 3647 1150 3233 529 
Q 2819 -91 2034 -91 
Q 1250 -91 836 529 
Q 422 1150 422 2328 
Q 422 3509 836 4129 
Q 1250 4750 2034 4750 
z
" transform="scale(0.015625)"/>
       </defs>
       <use xlink:href="#DejaVuSans-30"/>
      </g>
     </g>
    </g>
    <g id="xtick_2">
     <g id="line2d_2">
      <g>
       <use xlink:href="#m69bf5e8db3" x="200.649311" y="256.68" style="stroke: #000000; stroke-width: 0.8"/>
      </g>
     </g>
     <g id="text_2">
      <!-- 200 -->
      <g transform="translate(191.105561 271.278437) scale(0.1 -0.1)">
       <defs>
        <path id="DejaVuSans-32" d="M 1228 531 
L 3431 531 
L 3431 0 
L 469 0 
L 469 531 
Q 828 903 1448 1529 
Q 2069 2156 2228 2338 
Q 2531 2678 2651 2914 
Q 2772 3150 2772 3378 
Q 2772 3750 2511 3984 
Q 2250 4219 1831 4219 
Q 1534 4219 1204 4116 
Q 875 4013 500 3803 
L 500 4441 
Q 881 4594 1212 4672 
Q 1544 4750 1819 4750 
Q 2544 4750 2975 4387 
Q 3406 4025 3406 3419 
Q 3406 3131 3298 2873 
Q 3191 2616 2906 2266 
Q 2828 2175 2409 1742 
Q 1991 1309 1228 531 
z
" transform="scale(0.015625)"/>
       </defs>
       <use xlink:href="#DejaVuSans-32"/>
       <use xlink:href="#DejaVuSans-30" transform="translate(63.623047 0)"/>
       <use xlink:href="#DejaVuSans-30" transform="translate(127.246094 0)"/>
      </g>
     </g>
    </g>
    <g id="xtick_3">
     <g id="line2d_3">
      <g>
       <use xlink:href="#m69bf5e8db3" x="322.516632" y="256.68" style="stroke: #000000; stroke-width: 0.8"/>
      </g>
     </g>
     <g id="text_3">
      <!-- 400 -->
      <g transform="translate(312.972882 271.278437) scale(0.1 -0.1)">
       <defs>
        <path id="DejaVuSans-34" d="M 2419 4116 
L 825 1625 
L 2419 1625 
L 2419 4116 
z
M 2253 4666 
L 3047 4666 
L 3047 1625 
L 3713 1625 
L 3713 1100 
L 3047 1100 
L 3047 0 
L 2419 0 
L 2419 1100 
L 313 1100 
L 313 1709 
L 2253 4666 
z
" transform="scale(0.015625)"/>
       </defs>
       <use xlink:href="#DejaVuSans-34"/>
       <use xlink:href="#DejaVuSans-30" transform="translate(63.623047 0)"/>
       <use xlink:href="#DejaVuSans-30" transform="translate(127.246094 0)"/>
      </g>
     </g>
    </g>
    <g id="xtick_4">
     <g id="line2d_4">
      <g>
       <use xlink:href="#m69bf5e8db3" x="444.383954" y="256.68" style="stroke: #000000; stroke-width: 0.8"/>
      </g>
     </g>
     <g id="text_4">
      <!-- 600 -->
      <g transform="translate(434.840204 271.278437) scale(0.1 -0.1)">
       <defs>
        <path id="DejaVuSans-36" d="M 2113 2584 
Q 1688 2584 1439 2293 
Q 1191 2003 1191 1497 
Q 1191 994 1439 701 
Q 1688 409 2113 409 
Q 2538 409 2786 701 
Q 3034 994 3034 1497 
Q 3034 2003 2786 2293 
Q 2538 2584 2113 2584 
z
M 3366 4563 
L 3366 3988 
Q 3128 4100 2886 4159 
Q 2644 4219 2406 4219 
Q 1781 4219 1451 3797 
Q 1122 3375 1075 2522 
Q 1259 2794 1537 2939 
Q 1816 3084 2150 3084 
Q 2853 3084 3261 2657 
Q 3669 2231 3669 1497 
Q 3669 778 3244 343 
Q 2819 -91 2113 -91 
Q 1303 -91 875 529 
Q 447 1150 447 2328 
Q 447 3434 972 4092 
Q 1497 4750 2381 4750 
Q 2619 4750 2861 4703 
Q 3103 4656 3366 4563 
z
" transform="scale(0.015625)"/>
       </defs>
       <use xlink:href="#DejaVuSans-36"/>
       <use xlink:href="#DejaVuSans-30" transform="translate(63.623047 0)"/>
       <use xlink:href="#DejaVuSans-30" transform="translate(127.246094 0)"/>
      </g>
     </g>
    </g>
    <g id="xtick_5">
     <g id="line2d_5">
      <g>
       <use xlink:href="#m69bf5e8db3" x="566.251276" y="256.68" style="stroke: #000000; stroke-width: 0.8"/>
      </g>
     </g>
     <g id="text_5">
      <!-- 800 -->
      <g transform="translate(556.707526 271.278437) scale(0.1 -0.1)">
       <defs>
        <path id="DejaVuSans-38" d="M 2034 2216 
Q 1584 2216 1326 1975 
Q 1069 1734 1069 1313 
Q 1069 891 1326 650 
Q 1584 409 2034 409 
Q 2484 409 2743 651 
Q 3003 894 3003 1313 
Q 3003 1734 2745 1975 
Q 2488 2216 2034 2216 
z
M 1403 2484 
Q 997 2584 770 2862 
Q 544 3141 544 3541 
Q 544 4100 942 4425 
Q 1341 4750 2034 4750 
Q 2731 4750 3128 4425 
Q 3525 4100 3525 3541 
Q 3525 3141 3298 2862 
Q 3072 2584 2669 2484 
Q 3125 2378 3379 2068 
Q 3634 1759 3634 1313 
Q 3634 634 3220 271 
Q 2806 -91 2034 -91 
Q 1263 -91 848 271 
Q 434 634 434 1313 
Q 434 1759 690 2068 
Q 947 2378 1403 2484 
z
M 1172 3481 
Q 1172 3119 1398 2916 
Q 1625 2713 2034 2713 
Q 2441 2713 2670 2916 
Q 2900 3119 2900 3481 
Q 2900 3844 2670 4047 
Q 2441 4250 2034 4250 
Q 1625 4250 1398 4047 
Q 1172 3844 1172 3481 
z
" transform="scale(0.015625)"/>
       </defs>
       <use xlink:href="#DejaVuSans-38"/>
       <use xlink:href="#DejaVuSans-30" transform="translate(63.623047 0)"/>
       <use xlink:href="#DejaVuSans-30" transform="translate(127.246094 0)"/>
      </g>
     </g>
    </g>
    <g id="xtick_6">
     <g id="line2d_6">
      <g>
       <use xlink:href="#m69bf5e8db3" x="688.118598" y="256.68" style="stroke: #000000; stroke-width: 0.8"/>
      </g>
     </g>
     <g id="text_6">
      <!-- 1000 -->
      <g transform="translate(675.393598 271.278437) scale(0.1 -0.1)">
       <defs>
        <path id="DejaVuSans-31" d="M 794 531 
L 1825 531 
L 1825 4091 
L 703 3866 
L 703 4441 
L 1819 4666 
L 2450 4666 
L 2450 531 
L 3481 531 
L 3481 0 
L 794 0 
L 794 531 
z
" transform="scale(0.015625)"/>
       </defs>
       <use xlink:href="#DejaVuSans-31"/>
       <use xlink:href="#DejaVuSans-30" transform="translate(63.623047 0)"/>
       <use xlink:href="#DejaVuSans-30" transform="translate(127.246094 0)"/>
       <use xlink:href="#DejaVuSans-30" transform="translate(190.869141 0)"/>
      </g>
     </g>
    </g>
    <g id="text_7">
     <!-- Steps -->
     <g transform="translate(357.963906 291.035312) scale(0.18 -0.18)">
      <defs>
       <path id="DejaVuSans-53" d="M 3425 4513 
L 3425 3897 
Q 3066 4069 2747 4153 
Q 2428 4238 2131 4238 
Q 1616 4238 1336 4038 
Q 1056 3838 1056 3469 
Q 1056 3159 1242 3001 
Q 1428 2844 1947 2747 
L 2328 2669 
Q 3034 2534 3370 2195 
Q 3706 1856 3706 1288 
Q 3706 609 3251 259 
Q 2797 -91 1919 -91 
Q 1588 -91 1214 -16 
Q 841 59 441 206 
L 441 856 
Q 825 641 1194 531 
Q 1563 422 1919 422 
Q 2459 422 2753 634 
Q 3047 847 3047 1241 
Q 3047 1584 2836 1778 
Q 2625 1972 2144 2069 
L 1759 2144 
Q 1053 2284 737 2584 
Q 422 2884 422 3419 
Q 422 4038 858 4394 
Q 1294 4750 2059 4750 
Q 2388 4750 2728 4690 
Q 3069 4631 3425 4513 
z
" transform="scale(0.015625)"/>
       <path id="DejaVuSans-74" d="M 1172 4494 
L 1172 3500 
L 2356 3500 
L 2356 3053 
L 1172 3053 
L 1172 1153 
Q 1172 725 1289 603 
Q 1406 481 1766 481 
L 2356 481 
L 2356 0 
L 1766 0 
Q 1100 0 847 248 
Q 594 497 594 1153 
L 594 3053 
L 172 3053 
L 172 3500 
L 594 3500 
L 594 4494 
L 1172 4494 
z
" transform="scale(0.015625)"/>
       <path id="DejaVuSans-65" d="M 3597 1894 
L 3597 1613 
L 953 1613 
Q 991 1019 1311 708 
Q 1631 397 2203 397 
Q 2534 397 2845 478 
Q 3156 559 3463 722 
L 3463 178 
Q 3153 47 2828 -22 
Q 2503 -91 2169 -91 
Q 1331 -91 842 396 
Q 353 884 353 1716 
Q 353 2575 817 3079 
Q 1281 3584 2069 3584 
Q 2775 3584 3186 3129 
Q 3597 2675 3597 1894 
z
M 3022 2063 
Q 3016 2534 2758 2815 
Q 2500 3097 2075 3097 
Q 1594 3097 1305 2825 
Q 1016 2553 972 2059 
L 3022 2063 
z
" transform="scale(0.015625)"/>
       <path id="DejaVuSans-70" d="M 1159 525 
L 1159 -1331 
L 581 -1331 
L 581 3500 
L 1159 3500 
L 1159 2969 
Q 1341 3281 1617 3432 
Q 1894 3584 2278 3584 
Q 2916 3584 3314 3078 
Q 3713 2572 3713 1747 
Q 3713 922 3314 415 
Q 2916 -91 2278 -91 
Q 1894 -91 1617 61 
Q 1341 213 1159 525 
z
M 3116 1747 
Q 3116 2381 2855 2742 
Q 2594 3103 2138 3103 
Q 1681 3103 1420 2742 
Q 1159 2381 1159 1747 
Q 1159 1113 1420 752 
Q 1681 391 2138 391 
Q 2594 391 2855 752 
Q 3116 1113 3116 1747 
z
" transform="scale(0.015625)"/>
       <path id="DejaVuSans-73" d="M 2834 3397 
L 2834 2853 
Q 2591 2978 2328 3040 
Q 2066 3103 1784 3103 
Q 1356 3103 1142 2972 
Q 928 2841 928 2578 
Q 928 2378 1081 2264 
Q 1234 2150 1697 2047 
L 1894 2003 
Q 2506 1872 2764 1633 
Q 3022 1394 3022 966 
Q 3022 478 2636 193 
Q 2250 -91 1575 -91 
Q 1294 -91 989 -36 
Q 684 19 347 128 
L 347 722 
Q 666 556 975 473 
Q 1284 391 1588 391 
Q 1994 391 2212 530 
Q 2431 669 2431 922 
Q 2431 1156 2273 1281 
Q 2116 1406 1581 1522 
L 1381 1569 
Q 847 1681 609 1914 
Q 372 2147 372 2553 
Q 372 3047 722 3315 
Q 1072 3584 1716 3584 
Q 2034 3584 2315 3537 
Q 2597 3491 2834 3397 
z
" transform="scale(0.015625)"/>
      </defs>
      <use xlink:href="#DejaVuSans-53"/>
      <use xlink:href="#DejaVuSans-74" transform="translate(63.476562 0)"/>
      <use xlink:href="#DejaVuSans-65" transform="translate(102.685547 0)"/>
      <use xlink:href="#DejaVuSans-70" transform="translate(164.208984 0)"/>
      <use xlink:href="#DejaVuSans-73" transform="translate(227.685547 0)"/>
     </g>
    </g>
   </g>
   <g id="matplotlib.axis_2">
    <g id="ytick_1">
     <g id="line2d_7">
      <defs>
       <path id="m05a7bcebf4" d="M 0 0 
L -3.5 0 
" style="stroke: #000000; stroke-width: 0.8"/>
      </defs>
      <g>
       <use xlink:href="#m05a7bcebf4" x="48.345625" y="243.780791" style="stroke: #000000; stroke-width: 0.8"/>
      </g>
     </g>
     <g id="text_8">
      <!-- 10 -->
      <g transform="translate(28.620625 247.580009) scale(0.1 -0.1)">
       <use xlink:href="#DejaVuSans-31"/>
       <use xlink:href="#DejaVuSans-30" transform="translate(63.623047 0)"/>
      </g>
     </g>
    </g>
    <g id="ytick_2">
     <g id="line2d_8">
      <g>
       <use xlink:href="#m05a7bcebf4" x="48.345625" y="211.297262" style="stroke: #000000; stroke-width: 0.8"/>
      </g>
     </g>
     <g id="text_9">
      <!-- 20 -->
      <g transform="translate(28.620625 215.09648) scale(0.1 -0.1)">
       <use xlink:href="#DejaVuSans-32"/>
       <use xlink:href="#DejaVuSans-30" transform="translate(63.623047 0)"/>
      </g>
     </g>
    </g>
    <g id="ytick_3">
     <g id="line2d_9">
      <g>
       <use xlink:href="#m05a7bcebf4" x="48.345625" y="178.813732" style="stroke: #000000; stroke-width: 0.8"/>
      </g>
     </g>
     <g id="text_10">
      <!-- 30 -->
      <g transform="translate(28.620625 182.612951) scale(0.1 -0.1)">
       <defs>
        <path id="DejaVuSans-33" d="M 2597 2516 
Q 3050 2419 3304 2112 
Q 3559 1806 3559 1356 
Q 3559 666 3084 287 
Q 2609 -91 1734 -91 
Q 1441 -91 1130 -33 
Q 819 25 488 141 
L 488 750 
Q 750 597 1062 519 
Q 1375 441 1716 441 
Q 2309 441 2620 675 
Q 2931 909 2931 1356 
Q 2931 1769 2642 2001 
Q 2353 2234 1838 2234 
L 1294 2234 
L 1294 2753 
L 1863 2753 
Q 2328 2753 2575 2939 
Q 2822 3125 2822 3475 
Q 2822 3834 2567 4026 
Q 2313 4219 1838 4219 
Q 1578 4219 1281 4162 
Q 984 4106 628 3988 
L 628 4550 
Q 988 4650 1302 4700 
Q 1616 4750 1894 4750 
Q 2613 4750 3031 4423 
Q 3450 4097 3450 3541 
Q 3450 3153 3228 2886 
Q 3006 2619 2597 2516 
z
" transform="scale(0.015625)"/>
       </defs>
       <use xlink:href="#DejaVuSans-33"/>
       <use xlink:href="#DejaVuSans-30" transform="translate(63.623047 0)"/>
      </g>
     </g>
    </g>
    <g id="ytick_4">
     <g id="line2d_10">
      <g>
       <use xlink:href="#m05a7bcebf4" x="48.345625" y="146.330203" style="stroke: #000000; stroke-width: 0.8"/>
      </g>
     </g>
     <g id="text_11">
      <!-- 40 -->
      <g transform="translate(28.620625 150.129422) scale(0.1 -0.1)">
       <use xlink:href="#DejaVuSans-34"/>
       <use xlink:href="#DejaVuSans-30" transform="translate(63.623047 0)"/>
      </g>
     </g>
    </g>
    <g id="ytick_5">
     <g id="line2d_11">
      <g>
       <use xlink:href="#m05a7bcebf4" x="48.345625" y="113.846674" style="stroke: #000000; stroke-width: 0.8"/>
      </g>
     </g>
     <g id="text_12">
      <!-- 50 -->
      <g transform="translate(28.620625 117.645893) scale(0.1 -0.1)">
       <defs>
        <path id="DejaVuSans-35" d="M 691 4666 
L 3169 4666 
L 3169 4134 
L 1269 4134 
L 1269 2991 
Q 1406 3038 1543 3061 
Q 1681 3084 1819 3084 
Q 2600 3084 3056 2656 
Q 3513 2228 3513 1497 
Q 3513 744 3044 326 
Q 2575 -91 1722 -91 
Q 1428 -91 1123 -41 
Q 819 9 494 109 
L 494 744 
Q 775 591 1075 516 
Q 1375 441 1709 441 
Q 2250 441 2565 725 
Q 2881 1009 2881 1497 
Q 2881 1984 2565 2268 
Q 2250 2553 1709 2553 
Q 1456 2553 1204 2497 
Q 953 2441 691 2322 
L 691 4666 
z
" transform="scale(0.015625)"/>
       </defs>
       <use xlink:href="#DejaVuSans-35"/>
       <use xlink:href="#DejaVuSans-30" transform="translate(63.623047 0)"/>
      </g>
     </g>
    </g>
    <g id="ytick_6">
     <g id="line2d_12">
      <g>
       <use xlink:href="#m05a7bcebf4" x="48.345625" y="81.363145" style="stroke: #000000; stroke-width: 0.8"/>
      </g>
     </g>
     <g id="text_13">
      <!-- 60 -->
      <g transform="translate(28.620625 85.162364) scale(0.1 -0.1)">
       <use xlink:href="#DejaVuSans-36"/>
       <use xlink:href="#DejaVuSans-30" transform="translate(63.623047 0)"/>
      </g>
     </g>
    </g>
    <g id="ytick_7">
     <g id="line2d_13">
      <g>
       <use xlink:href="#m05a7bcebf4" x="48.345625" y="48.879616" style="stroke: #000000; stroke-width: 0.8"/>
      </g>
     </g>
     <g id="text_14">
      <!-- 70 -->
      <g transform="translate(28.620625 52.678835) scale(0.1 -0.1)">
       <defs>
        <path id="DejaVuSans-37" d="M 525 4666 
L 3525 4666 
L 3525 4397 
L 1831 0 
L 1172 0 
L 2766 4134 
L 525 4134 
L 525 4666 
z
" transform="scale(0.015625)"/>
       </defs>
       <use xlink:href="#DejaVuSans-37"/>
       <use xlink:href="#DejaVuSans-30" transform="translate(63.623047 0)"/>
      </g>
     </g>
    </g>
    <g id="ytick_8">
     <g id="line2d_14">
      <g>
       <use xlink:href="#m05a7bcebf4" x="48.345625" y="16.396087" style="stroke: #000000; stroke-width: 0.8"/>
      </g>
     </g>
     <g id="text_15">
      <!-- 80 -->
      <g transform="translate(28.620625 20.195306) scale(0.1 -0.1)">
       <use xlink:href="#DejaVuSans-38"/>
       <use xlink:href="#DejaVuSans-30" transform="translate(63.623047 0)"/>
      </g>
     </g>
    </g>
    <g id="text_16">
     <!-- % Optimal Action -->
     <g transform="translate(20.877187 210.007969) rotate(-90) scale(0.18 -0.18)">
      <defs>
       <path id="DejaVuSans-25" d="M 4653 2053 
Q 4381 2053 4226 1822 
Q 4072 1591 4072 1178 
Q 4072 772 4226 539 
Q 4381 306 4653 306 
Q 4919 306 5073 539 
Q 5228 772 5228 1178 
Q 5228 1588 5073 1820 
Q 4919 2053 4653 2053 
z
M 4653 2450 
Q 5147 2450 5437 2106 
Q 5728 1763 5728 1178 
Q 5728 594 5436 251 
Q 5144 -91 4653 -91 
Q 4153 -91 3862 251 
Q 3572 594 3572 1178 
Q 3572 1766 3864 2108 
Q 4156 2450 4653 2450 
z
M 1428 4353 
Q 1159 4353 1004 4120 
Q 850 3888 850 3481 
Q 850 3069 1003 2837 
Q 1156 2606 1428 2606 
Q 1700 2606 1854 2837 
Q 2009 3069 2009 3481 
Q 2009 3884 1853 4118 
Q 1697 4353 1428 4353 
z
M 4250 4750 
L 4750 4750 
L 1831 -91 
L 1331 -91 
L 4250 4750 
z
M 1428 4750 
Q 1922 4750 2215 4408 
Q 2509 4066 2509 3481 
Q 2509 2891 2217 2550 
Q 1925 2209 1428 2209 
Q 931 2209 642 2551 
Q 353 2894 353 3481 
Q 353 4063 643 4406 
Q 934 4750 1428 4750 
z
" transform="scale(0.015625)"/>
       <path id="DejaVuSans-20" transform="scale(0.015625)"/>
       <path id="DejaVuSans-4f" d="M 2522 4238 
Q 1834 4238 1429 3725 
Q 1025 3213 1025 2328 
Q 1025 1447 1429 934 
Q 1834 422 2522 422 
Q 3209 422 3611 934 
Q 4013 1447 4013 2328 
Q 4013 3213 3611 3725 
Q 3209 4238 2522 4238 
z
M 2522 4750 
Q 3503 4750 4090 4092 
Q 4678 3434 4678 2328 
Q 4678 1225 4090 567 
Q 3503 -91 2522 -91 
Q 1538 -91 948 565 
Q 359 1222 359 2328 
Q 359 3434 948 4092 
Q 1538 4750 2522 4750 
z
" transform="scale(0.015625)"/>
       <path id="DejaVuSans-69" d="M 603 3500 
L 1178 3500 
L 1178 0 
L 603 0 
L 603 3500 
z
M 603 4863 
L 1178 4863 
L 1178 4134 
L 603 4134 
L 603 4863 
z
" transform="scale(0.015625)"/>
       <path id="DejaVuSans-6d" d="M 3328 2828 
Q 3544 3216 3844 3400 
Q 4144 3584 4550 3584 
Q 5097 3584 5394 3201 
Q 5691 2819 5691 2113 
L 5691 0 
L 5113 0 
L 5113 2094 
Q 5113 2597 4934 2840 
Q 4756 3084 4391 3084 
Q 3944 3084 3684 2787 
Q 3425 2491 3425 1978 
L 3425 0 
L 2847 0 
L 2847 2094 
Q 2847 2600 2669 2842 
Q 2491 3084 2119 3084 
Q 1678 3084 1418 2786 
Q 1159 2488 1159 1978 
L 1159 0 
L 581 0 
L 581 3500 
L 1159 3500 
L 1159 2956 
Q 1356 3278 1631 3431 
Q 1906 3584 2284 3584 
Q 2666 3584 2933 3390 
Q 3200 3197 3328 2828 
z
" transform="scale(0.015625)"/>
       <path id="DejaVuSans-61" d="M 2194 1759 
Q 1497 1759 1228 1600 
Q 959 1441 959 1056 
Q 959 750 1161 570 
Q 1363 391 1709 391 
Q 2188 391 2477 730 
Q 2766 1069 2766 1631 
L 2766 1759 
L 2194 1759 
z
M 3341 1997 
L 3341 0 
L 2766 0 
L 2766 531 
Q 2569 213 2275 61 
Q 1981 -91 1556 -91 
Q 1019 -91 701 211 
Q 384 513 384 1019 
Q 384 1609 779 1909 
Q 1175 2209 1959 2209 
L 2766 2209 
L 2766 2266 
Q 2766 2663 2505 2880 
Q 2244 3097 1772 3097 
Q 1472 3097 1187 3025 
Q 903 2953 641 2809 
L 641 3341 
Q 956 3463 1253 3523 
Q 1550 3584 1831 3584 
Q 2591 3584 2966 3190 
Q 3341 2797 3341 1997 
z
" transform="scale(0.015625)"/>
       <path id="DejaVuSans-6c" d="M 603 4863 
L 1178 4863 
L 1178 0 
L 603 0 
L 603 4863 
z
" transform="scale(0.015625)"/>
       <path id="DejaVuSans-41" d="M 2188 4044 
L 1331 1722 
L 3047 1722 
L 2188 4044 
z
M 1831 4666 
L 2547 4666 
L 4325 0 
L 3669 0 
L 3244 1197 
L 1141 1197 
L 716 0 
L 50 0 
L 1831 4666 
z
" transform="scale(0.015625)"/>
       <path id="DejaVuSans-63" d="M 3122 3366 
L 3122 2828 
Q 2878 2963 2633 3030 
Q 2388 3097 2138 3097 
Q 1578 3097 1268 2742 
Q 959 2388 959 1747 
Q 959 1106 1268 751 
Q 1578 397 2138 397 
Q 2388 397 2633 464 
Q 2878 531 3122 666 
L 3122 134 
Q 2881 22 2623 -34 
Q 2366 -91 2075 -91 
Q 1284 -91 818 406 
Q 353 903 353 1747 
Q 353 2603 823 3093 
Q 1294 3584 2113 3584 
Q 2378 3584 2631 3529 
Q 2884 3475 3122 3366 
z
" transform="scale(0.015625)"/>
       <path id="DejaVuSans-6f" d="M 1959 3097 
Q 1497 3097 1228 2736 
Q 959 2375 959 1747 
Q 959 1119 1226 758 
Q 1494 397 1959 397 
Q 2419 397 2687 759 
Q 2956 1122 2956 1747 
Q 2956 2369 2687 2733 
Q 2419 3097 1959 3097 
z
M 1959 3584 
Q 2709 3584 3137 3096 
Q 3566 2609 3566 1747 
Q 3566 888 3137 398 
Q 2709 -91 1959 -91 
Q 1206 -91 779 398 
Q 353 888 353 1747 
Q 353 2609 779 3096 
Q 1206 3584 1959 3584 
z
" transform="scale(0.015625)"/>
       <path id="DejaVuSans-6e" d="M 3513 2113 
L 3513 0 
L 2938 0 
L 2938 2094 
Q 2938 2591 2744 2837 
Q 2550 3084 2163 3084 
Q 1697 3084 1428 2787 
Q 1159 2491 1159 1978 
L 1159 0 
L 581 0 
L 581 3500 
L 1159 3500 
L 1159 2956 
Q 1366 3272 1645 3428 
Q 1925 3584 2291 3584 
Q 2894 3584 3203 3211 
Q 3513 2838 3513 2113 
z
" transform="scale(0.015625)"/>
      </defs>
      <use xlink:href="#DejaVuSans-25"/>
      <use xlink:href="#DejaVuSans-20" transform="translate(95.019531 0)"/>
      <use xlink:href="#DejaVuSans-4f" transform="translate(126.806641 0)"/>
      <use xlink:href="#DejaVuSans-70" transform="translate(205.517578 0)"/>
      <use xlink:href="#DejaVuSans-74" transform="translate(268.994141 0)"/>
      <use xlink:href="#DejaVuSans-69" transform="translate(308.203125 0)"/>
      <use xlink:href="#DejaVuSans-6d" transform="translate(335.986328 0)"/>
      <use xlink:href="#DejaVuSans-61" transform="translate(433.398438 0)"/>
      <use xlink:href="#DejaVuSans-6c" transform="translate(494.677734 0)"/>
      <use xlink:href="#DejaVuSans-20" transform="translate(522.460938 0)"/>
      <use xlink:href="#DejaVuSans-41" transform="translate(554.248047 0)"/>
      <use xlink:href="#DejaVuSans-63" transform="translate(620.90625 0)"/>
      <use xlink:href="#DejaVuSans-74" transform="translate(675.886719 0)"/>
      <use xlink:href="#DejaVuSans-69" transform="translate(715.095703 0)"/>
      <use xlink:href="#DejaVuSans-6f" transform="translate(742.878906 0)"/>
      <use xlink:href="#DejaVuSans-6e" transform="translate(804.060547 0)"/>
     </g>
    </g>
   </g>
   <g id="line2d_15">
    <path d="M 78.781989 245.34 
L 79.391325 244.755296 
L 80.000662 244.430461 
L 80.609998 241.506944 
L 81.219335 242.156614 
L 81.828672 243.520922 
L 82.438008 244.040659 
L 83.047345 243.455955 
L 83.656682 243.455955 
L 84.266018 245.145099 
L 84.875355 134.960968 
L 85.484691 197.394311 
L 86.094028 220.132781 
L 86.703365 233.321094 
L 87.312701 235.529974 
L 87.922038 234.360567 
L 88.531374 233.710897 
L 89.140711 227.279158 
L 89.750048 217.404165 
L 90.359384 196.289871 
L 90.968721 156.33513 
L 91.578057 136.90998 
L 92.187394 127.749625 
L 92.796731 125.540745 
L 93.406067 118.329401 
L 94.62474 106.830232 
L 95.234077 100.008691 
L 95.843414 100.723329 
L 97.062087 89.938797 
L 97.671424 85.196202 
L 98.28076 82.662486 
L 98.890097 82.077783 
L 99.499433 76.880418 
L 100.10877 75.775978 
L 100.718107 75.711011 
L 101.327443 71.877955 
L 101.93678 70.253778 
L 102.546116 65.446216 
L 103.155453 64.666611 
L 104.374126 64.211842 
L 104.983463 62.977468 
L 106.202136 56.350828 
L 106.811473 55.051487 
L 107.420809 55.506256 
L 108.030146 55.571223 
L 108.639482 56.09096 
L 109.248819 54.53175 
L 109.858156 53.42731 
L 110.467492 53.362343 
L 111.076829 52.063002 
L 112.295502 51.738167 
L 112.904839 51.153463 
L 113.514175 51.153463 
L 114.123512 51.738167 
L 114.732849 49.984056 
L 115.342185 49.074517 
L 115.951522 49.594254 
L 116.560858 48.35988 
L 117.170195 48.814649 
L 117.779532 47.385374 
L 118.388868 48.164979 
L 118.998205 49.46432 
L 119.607541 46.410868 
L 120.216878 47.775176 
L 120.826215 46.215967 
L 121.435551 45.631263 
L 122.044888 45.566296 
L 123.263561 48.229946 
L 123.872898 47.710209 
L 124.482234 48.35988 
L 125.091571 47.90511 
L 125.700908 48.619748 
L 126.310244 48.944583 
L 126.919581 47.060539 
L 127.528917 47.775176 
L 128.138254 47.25544 
L 128.747591 47.515308 
L 129.356927 47.515308 
L 129.966264 46.670736 
L 130.5756 46.80067 
L 131.184937 46.475835 
L 131.794274 48.879616 
L 133.012947 43.097548 
L 133.622283 43.162515 
L 134.23162 43.877153 
L 134.840957 44.201988 
L 135.450293 42.317943 
L 137.278303 45.04656 
L 137.88764 44.007087 
L 139.106313 43.357416 
L 139.71565 43.032581 
L 140.324986 43.422383 
L 140.934323 41.73324 
L 141.543659 43.097548 
L 142.152996 43.747219 
L 142.762333 43.032581 
L 143.371669 43.357416 
L 143.981006 44.266955 
L 145.199679 45.436362 
L 145.809016 45.761197 
L 146.418352 45.176494 
L 147.027689 44.007087 
L 147.637025 41.408404 
L 148.855699 42.772713 
L 149.465035 42.512844 
L 150.074372 41.993108 
L 150.683709 41.148536 
L 151.293045 41.018602 
L 151.902382 41.863174 
L 152.511718 42.512844 
L 153.121055 40.498866 
L 153.730392 40.563833 
L 154.339728 41.083569 
L 154.949065 41.928141 
L 155.558401 41.603306 
L 156.777075 42.252976 
L 157.386411 42.707746 
L 157.995748 41.408404 
L 159.214421 41.018602 
L 159.823758 39.719261 
L 160.433094 40.238997 
L 161.042431 39.979129 
L 161.651768 41.083569 
L 162.261104 40.953635 
L 162.870441 41.603306 
L 163.479777 40.17403 
L 164.089114 39.199524 
L 165.307787 39.979129 
L 165.917124 41.538339 
L 167.135797 38.549854 
L 168.963807 40.888668 
L 170.18248 40.109063 
L 170.791817 39.134557 
L 171.401153 39.719261 
L 172.01049 39.719261 
L 172.619826 39.979129 
L 173.229163 38.744755 
L 173.8385 38.679788 
L 174.447836 39.784228 
L 176.275846 39.654294 
L 176.885183 39.134557 
L 177.494519 41.148536 
L 178.103856 40.953635 
L 178.713193 40.238997 
L 179.322529 39.329459 
L 179.931866 41.083569 
L 180.541202 40.368932 
L 181.150539 39.394426 
L 181.759876 39.849195 
L 182.369212 41.083569 
L 182.978549 40.368932 
L 183.587885 40.823701 
L 184.197222 39.004623 
L 184.806559 39.199524 
L 185.415895 40.433899 
L 186.025232 39.589327 
L 186.634568 39.329459 
L 187.243905 41.73324 
L 187.853242 42.512844 
L 188.462578 42.252976 
L 189.071915 40.888668 
L 189.681252 40.953635 
L 190.290588 40.6288 
L 191.509261 40.758734 
L 192.118598 39.459393 
L 192.727935 40.044096 
L 193.337271 40.433899 
L 193.946608 39.784228 
L 194.555944 38.939656 
L 195.165281 38.679788 
L 195.774618 39.849195 
L 196.383954 39.004623 
L 196.993291 39.589327 
L 197.602627 38.484887 
L 198.211964 38.744755 
L 198.821301 39.459393 
L 199.430637 38.354953 
L 200.039974 38.289986 
L 200.649311 38.744755 
L 201.258647 38.679788 
L 201.867984 39.329459 
L 202.47732 38.679788 
L 203.086657 38.354953 
L 203.695994 38.939656 
L 204.30533 38.549854 
L 204.914667 38.484887 
L 205.524003 38.874689 
L 206.13334 39.654294 
L 206.742677 38.744755 
L 207.352013 39.06959 
L 207.96135 38.41992 
L 209.180023 38.744755 
L 209.78936 39.784228 
L 211.008033 39.329459 
L 211.617369 39.459393 
L 212.226706 40.109063 
L 212.836043 40.498866 
L 213.445379 41.148536 
L 214.054716 41.083569 
L 214.664053 40.368932 
L 215.273389 41.27847 
L 215.882726 40.044096 
L 216.492062 41.148536 
L 217.101399 41.993108 
L 217.710736 43.097548 
L 218.320072 42.967614 
L 218.929409 41.603306 
L 219.538745 41.798207 
L 220.148082 40.433899 
L 220.757419 41.408404 
L 221.366755 40.563833 
L 221.976092 41.863174 
L 222.585428 41.343437 
L 223.194765 41.083569 
L 223.804102 42.252976 
L 224.413438 41.863174 
L 225.022775 42.317943 
L 225.632111 42.188009 
L 226.241448 41.408404 
L 226.850785 41.798207 
L 227.460121 41.863174 
L 228.069458 42.38291 
L 228.678795 42.38291 
L 229.288131 43.032581 
L 230.506804 42.123042 
L 231.116141 41.928141 
L 231.725478 42.967614 
L 232.944151 43.747219 
L 233.553487 43.292449 
L 234.162824 45.371395 
L 234.772161 44.201988 
L 235.381497 44.266955 
L 235.990834 45.371395 
L 236.60017 44.266955 
L 237.209507 45.306428 
L 237.818844 45.306428 
L 238.42818 45.891131 
L 239.037517 44.331922 
L 239.646854 44.007087 
L 240.25619 43.227482 
L 242.0842 43.812186 
L 242.693537 44.526823 
L 243.302873 43.94212 
L 243.91221 43.617284 
L 245.130883 42.707746 
L 245.74022 43.422383 
L 246.349556 42.447877 
L 246.958893 43.48735 
L 247.568229 43.682252 
L 248.177566 42.512844 
L 249.396239 44.266955 
L 250.005576 42.967614 
L 250.614912 42.642779 
L 251.224249 42.642779 
L 251.833586 43.162515 
L 252.442922 43.097548 
L 253.661596 42.188009 
L 254.270932 42.642779 
L 254.880269 42.707746 
L 255.489605 43.292449 
L 256.098942 42.123042 
L 256.708279 41.73324 
L 257.317615 42.642779 
L 257.926952 40.6288 
L 258.536288 40.238997 
L 259.145625 40.888668 
L 259.754962 41.27847 
L 260.364298 40.498866 
L 260.973635 40.563833 
L 261.582971 40.303964 
L 262.192308 40.888668 
L 262.801645 40.498866 
L 263.410981 40.498866 
L 264.020318 40.368932 
L 264.629654 39.979129 
L 265.238991 40.758734 
L 265.848328 41.148536 
L 266.457664 40.693767 
L 267.067001 40.888668 
L 267.676338 41.408404 
L 268.285674 41.083569 
L 268.895011 42.577812 
L 269.504347 41.993108 
L 270.113684 43.227482 
L 270.723021 42.447877 
L 271.332357 43.552317 
L 271.941694 42.317943 
L 272.55103 42.38291 
L 273.769704 42.058075 
L 274.37904 42.123042 
L 274.988377 41.993108 
L 275.597713 41.538339 
L 276.20705 42.577812 
L 276.816387 41.798207 
L 278.03506 42.707746 
L 278.644396 42.188009 
L 279.253733 42.38291 
L 279.86307 41.408404 
L 280.472406 41.27847 
L 281.081743 41.798207 
L 281.69108 41.73324 
L 282.300416 42.317943 
L 282.909753 42.123042 
L 283.519089 43.227482 
L 284.128426 42.447877 
L 284.737763 43.877153 
L 285.347099 43.422383 
L 285.956436 43.877153 
L 286.565772 43.617284 
L 287.784446 43.422383 
L 288.393782 43.48735 
L 289.003119 42.967614 
L 289.612455 43.032581 
L 290.831129 42.83768 
L 291.440465 41.928141 
L 292.049802 42.252976 
L 292.659139 42.38291 
L 293.268475 42.252976 
L 294.487148 41.538339 
L 295.096485 42.512844 
L 295.705822 42.058075 
L 296.924495 40.888668 
L 297.533831 42.123042 
L 298.752505 42.38291 
L 299.361841 41.148536 
L 299.971178 40.888668 
L 300.580514 40.368932 
L 301.189851 40.238997 
L 301.799188 39.329459 
L 302.408524 39.979129 
L 303.017861 39.52436 
L 303.627197 39.719261 
L 306.064544 38.614821 
L 306.673881 39.589327 
L 307.283217 39.264492 
L 307.892554 39.719261 
L 308.50189 40.563833 
L 309.111227 39.654294 
L 309.720564 40.563833 
L 310.3299 39.849195 
L 310.939237 40.17403 
L 311.548573 38.679788 
L 312.15791 39.06959 
L 312.767247 40.888668 
L 313.376583 40.17403 
L 313.98592 40.368932 
L 314.595256 39.979129 
L 315.204593 39.914162 
L 315.81393 38.744755 
L 317.032603 39.264492 
L 317.641939 39.06959 
L 318.251276 39.06959 
L 318.860613 38.289986 
L 319.469949 38.614821 
L 320.079286 38.679788 
L 320.688623 40.17403 
L 321.297959 39.329459 
L 321.907296 38.939656 
L 322.516632 38.809722 
L 323.125969 39.199524 
L 323.735306 38.095085 
L 324.344642 37.770249 
L 324.953979 36.600842 
L 326.172652 38.095085 
L 326.781989 37.575348 
L 327.391325 36.86071 
L 328.000662 37.055612 
L 328.609998 37.640315 
L 329.219335 35.951172 
L 329.828672 35.691303 
L 330.438008 36.276007 
L 331.047345 34.976666 
L 331.656682 34.911699 
L 332.266018 34.326995 
L 334.094028 34.00216 
L 334.703365 34.391962 
L 336.531374 36.276007 
L 337.140711 34.976666 
L 337.750048 35.041633 
L 338.359384 34.456929 
L 338.968721 34.326995 
L 339.578057 35.691303 
L 340.187394 35.561369 
L 341.406067 34.326995 
L 342.015404 34.067127 
L 342.62474 34.262028 
L 343.234077 34.976666 
L 343.843414 35.041633 
L 344.45275 34.391962 
L 345.062087 33.937193 
L 345.671424 34.067127 
L 346.28076 34.521896 
L 346.890097 35.561369 
L 347.499433 35.626336 
L 348.10877 36.340974 
L 348.718107 36.146073 
L 349.93678 36.340974 
L 351.155453 35.886205 
L 351.76479 35.691303 
L 352.374126 35.301501 
L 352.983463 35.1066 
L 353.592799 35.75627 
L 354.202136 35.301501 
L 354.811473 36.21104 
L 355.420809 36.665809 
L 356.030146 37.640315 
L 356.639482 38.030117 
L 357.858156 36.925677 
L 358.467492 36.795743 
L 359.076829 36.016139 
L 359.686166 35.626336 
L 360.295502 35.626336 
L 360.904839 36.081106 
L 361.514175 35.626336 
L 362.123512 35.886205 
L 362.732849 35.561369 
L 363.342185 35.366468 
L 363.951522 35.496402 
L 364.560858 35.236534 
L 365.170195 35.171567 
L 365.779532 35.236534 
L 366.388868 34.846732 
L 366.998205 35.561369 
L 367.607541 35.496402 
L 368.826215 37.31548 
L 369.435551 37.120579 
L 370.044888 37.445414 
L 371.263561 36.405941 
L 371.872898 36.600842 
L 372.482234 36.925677 
L 373.091571 36.86071 
L 373.700908 36.016139 
L 374.310244 36.340974 
L 374.919581 35.821237 
L 375.528917 36.016139 
L 376.138254 36.730776 
L 376.747591 37.055612 
L 379.184937 35.301501 
L 379.794274 35.431435 
L 380.40361 35.041633 
L 381.012947 35.301501 
L 381.622283 35.041633 
L 382.23162 35.171567 
L 382.840957 35.691303 
L 383.450293 35.951172 
L 384.05963 35.1066 
L 384.668967 34.846732 
L 385.278303 34.976666 
L 385.88764 34.456929 
L 386.496976 35.171567 
L 387.106313 34.976666 
L 387.71565 36.081106 
L 388.324986 35.75627 
L 388.934323 35.691303 
L 389.543659 35.431435 
L 390.762333 35.1066 
L 391.371669 35.236534 
L 391.981006 35.171567 
L 392.590342 36.21104 
L 393.199679 35.561369 
L 393.809016 35.561369 
L 394.418352 35.951172 
L 395.027689 35.236534 
L 395.637025 36.016139 
L 396.246362 36.146073 
L 396.855699 35.75627 
L 397.465035 35.561369 
L 398.074372 35.626336 
L 398.683709 35.561369 
L 399.293045 36.470908 
L 400.511718 36.21104 
L 401.121055 36.340974 
L 401.730392 35.626336 
L 402.339728 35.236534 
L 402.949065 35.236534 
L 403.558401 34.976666 
L 404.167738 35.561369 
L 404.777075 35.496402 
L 405.386411 36.081106 
L 406.605084 36.276007 
L 407.214421 35.951172 
L 407.823758 36.795743 
L 408.433094 37.380447 
L 409.042431 36.86071 
L 409.651768 36.925677 
L 410.261104 36.470908 
L 411.479777 34.911699 
L 412.089114 34.911699 
L 412.698451 35.041633 
L 413.307787 34.976666 
L 413.917124 35.366468 
L 414.52646 35.041633 
L 415.135797 35.171567 
L 415.745134 35.171567 
L 416.963807 34.586863 
L 417.573143 34.976666 
L 418.18248 34.976666 
L 418.791817 35.561369 
L 419.401153 35.1066 
L 420.01049 35.301501 
L 420.619826 35.236534 
L 421.229163 35.561369 
L 421.8385 35.236534 
L 423.057173 34.00216 
L 423.66651 33.612357 
L 424.275846 34.197061 
L 424.885183 34.262028 
L 425.494519 34.00216 
L 426.103856 34.262028 
L 426.713193 34.197061 
L 427.322529 34.391962 
L 427.931866 33.872226 
L 428.541202 33.612357 
L 429.150539 33.612357 
L 429.759876 33.742292 
L 430.369212 32.637852 
L 430.978549 33.092621 
L 431.587885 32.118115 
L 432.197222 32.702819 
L 432.806559 32.377983 
L 433.415895 31.728313 
L 434.025232 31.33851 
L 434.634568 30.428972 
L 435.243905 30.493939 
L 435.853242 31.273543 
L 436.462578 30.753807 
L 437.071915 30.753807 
L 438.290588 31.143609 
L 438.899925 30.883741 
L 440.118598 30.948708 
L 440.727935 30.753807 
L 441.337271 30.68884 
L 441.946608 30.493939 
L 443.774618 30.493939 
L 444.383954 31.143609 
L 444.993291 31.078642 
L 446.211964 31.923214 
L 446.821301 31.078642 
L 447.430637 31.013675 
L 448.039974 31.598379 
L 448.649311 31.273543 
L 449.258647 31.468445 
L 449.867984 30.428972 
L 450.47732 31.403478 
L 451.086657 31.208576 
L 452.30533 30.169103 
L 452.914667 30.104136 
L 453.524003 29.779301 
L 454.742677 28.804795 
L 455.352013 28.804795 
L 455.96135 29.259565 
L 456.570686 29.454466 
L 457.180023 28.739828 
L 457.78936 29.324532 
L 458.398696 29.5844 
L 459.008033 29.324532 
L 459.617369 28.934729 
L 460.226706 29.324532 
L 461.445379 29.5844 
L 462.054716 28.934729 
L 462.664053 29.259565 
L 463.273389 29.324532 
L 463.882726 29.259565 
L 464.492062 29.779301 
L 465.101399 29.779301 
L 465.710736 29.909235 
L 466.320072 29.5844 
L 466.929409 29.714334 
L 467.538745 29.259565 
L 468.148082 29.259565 
L 468.757419 29.064663 
L 469.366755 28.155125 
L 469.976092 28.155125 
L 470.585428 28.544927 
L 471.194765 27.765322 
L 471.804102 28.47996 
L 472.413438 28.155125 
L 473.022775 28.220092 
L 473.632111 28.934729 
L 474.241448 28.414993 
L 474.850785 28.739828 
L 475.460121 28.285059 
L 476.069458 28.02519 
L 476.678795 28.47996 
L 477.288131 28.155125 
L 477.897468 28.350026 
L 479.116141 26.920751 
L 479.725478 27.635388 
L 480.334814 27.505454 
L 482.772161 29.194598 
L 483.381497 29.194598 
L 484.60017 28.544927 
L 485.209507 28.674861 
L 485.818844 28.544927 
L 486.42818 29.194598 
L 487.037517 29.064663 
L 487.646854 29.324532 
L 488.25619 29.324532 
L 488.865527 29.649367 
L 489.474863 29.324532 
L 490.693537 29.12963 
L 491.302873 28.609894 
L 491.91221 28.609894 
L 492.521546 28.285059 
L 493.130883 27.765322 
L 493.74022 28.350026 
L 496.177566 26.790816 
L 496.786903 27.505454 
L 497.396239 27.440487 
L 498.005576 27.115652 
L 498.614912 27.440487 
L 499.224249 27.895256 
L 499.833586 27.570421 
L 501.052259 27.180619 
L 501.661596 27.310553 
L 502.270932 27.245586 
L 502.880269 27.050685 
L 503.489605 26.27108 
L 504.098942 26.465981 
L 504.708279 26.336047 
L 505.926952 26.595915 
L 506.536288 26.530948 
L 507.145625 26.595915 
L 507.754962 26.076179 
L 508.364298 26.206113 
L 508.973635 26.465981 
L 509.582971 26.141146 
L 511.410981 26.336047 
L 512.020318 26.141146 
L 513.238991 25.556442 
L 513.848328 25.296574 
L 514.457664 25.296574 
L 515.067001 25.036706 
L 515.676338 25.296574 
L 516.285674 25.296574 
L 516.895011 24.971739 
L 517.504347 25.101673 
L 518.113684 25.101673 
L 518.723021 26.336047 
L 519.332357 25.881278 
L 519.941694 25.621409 
L 520.55103 24.711871 
L 521.769704 25.621409 
L 522.988377 24.841805 
L 524.20705 25.036706 
L 524.816387 24.452002 
L 525.425723 24.387035 
L 526.03506 24.127167 
L 526.644396 24.127167 
L 527.86307 24.906772 
L 528.472406 24.646903 
L 529.081743 24.646903 
L 529.69108 24.257101 
L 530.300416 24.841805 
L 531.519089 24.581936 
L 532.128426 24.711871 
L 533.347099 24.192134 
L 533.956436 24.581936 
L 535.175109 24.841805 
L 535.784446 24.452002 
L 537.612455 23.997233 
L 538.221792 23.802332 
L 538.831129 24.257101 
L 539.440465 24.387035 
L 540.049802 23.542463 
L 540.659139 23.802332 
L 541.268475 23.152661 
L 541.877812 23.217628 
L 542.487148 23.867299 
L 543.096485 24.257101 
L 543.705822 23.932266 
L 544.315158 23.932266 
L 546.143168 23.477496 
L 546.752505 23.737365 
L 547.361841 23.737365 
L 547.971178 24.322068 
L 548.580514 23.607431 
L 549.189851 24.127167 
L 549.799188 24.127167 
L 550.408524 24.387035 
L 551.627197 23.737365 
L 552.236534 23.932266 
L 553.455207 24.516969 
L 554.064544 23.672398 
L 554.673881 24.257101 
L 555.892554 24.192134 
L 556.50189 23.672398 
L 557.111227 24.581936 
L 557.720564 24.322068 
L 558.3299 24.841805 
L 559.548573 24.192134 
L 560.15791 24.646903 
L 560.767247 24.322068 
L 561.376583 23.802332 
L 561.98592 23.542463 
L 563.204593 22.632925 
L 563.81393 22.632925 
L 564.423266 22.438023 
L 565.032603 22.632925 
L 565.641939 22.308089 
L 566.251276 22.827826 
L 566.860613 22.697892 
L 567.469949 22.178155 
L 568.079286 22.373056 
L 568.688623 21.788353 
L 569.907296 22.438023 
L 571.125969 21.398551 
L 571.735306 21.528485 
L 572.344642 22.308089 
L 572.953979 22.113188 
L 573.563315 21.268616 
L 574.172652 21.138682 
L 574.781989 21.593452 
L 576.000662 21.268616 
L 577.219335 20.294111 
L 577.828672 19.709407 
L 578.438008 20.813847 
L 579.047345 20.813847 
L 579.656682 21.398551 
L 580.266018 21.333584 
L 580.875355 21.918287 
L 581.484691 21.528485 
L 582.094028 22.308089 
L 582.703365 21.983254 
L 583.312701 22.373056 
L 583.922038 21.723386 
L 585.140711 21.983254 
L 585.750048 21.333584 
L 586.359384 21.983254 
L 586.968721 22.048221 
L 588.187394 22.632925 
L 588.796731 21.723386 
L 589.406067 21.658419 
L 590.015404 20.943781 
L 590.62474 20.683913 
L 591.234077 20.74888 
L 591.843414 21.138682 
L 592.45275 20.618946 
L 593.062087 21.073715 
L 593.671424 20.878814 
L 594.28076 21.008748 
L 594.890097 20.813847 
L 595.499433 19.839341 
L 596.10877 20.034242 
L 596.718107 19.774374 
L 597.327443 20.034242 
L 597.93678 19.969275 
L 598.546116 20.164176 
L 599.155453 20.164176 
L 600.374126 19.904308 
L 600.983463 20.164176 
L 602.202136 20.878814 
L 602.811473 20.683913 
L 603.420809 20.618946 
L 604.030146 20.683913 
L 604.639482 20.878814 
L 605.248819 21.723386 
L 605.858156 21.268616 
L 607.076829 21.658419 
L 607.686166 22.178155 
L 608.295502 21.723386 
L 608.904839 21.723386 
L 609.514175 21.983254 
L 610.123512 21.918287 
L 610.732849 22.178155 
L 611.951522 21.203649 
L 612.560858 21.203649 
L 613.170195 20.618946 
L 613.779532 20.943781 
L 614.388868 21.463518 
L 614.998205 21.398551 
L 615.607541 21.528485 
L 616.826215 21.333584 
L 617.435551 21.463518 
L 618.044888 21.008748 
L 619.263561 20.683913 
L 619.872898 20.164176 
L 621.091571 20.294111 
L 621.700908 20.034242 
L 622.310244 19.384572 
L 622.919581 20.034242 
L 623.528917 20.359078 
L 624.138254 19.64444 
L 624.747591 20.034242 
L 625.356927 19.449539 
L 625.966264 20.164176 
L 627.184937 20.424045 
L 627.794274 20.74888 
L 628.40361 20.034242 
L 629.012947 20.099209 
L 629.622283 19.969275 
L 630.840957 20.229144 
L 631.450293 20.164176 
L 632.05963 19.969275 
L 632.668967 20.229144 
L 633.278303 20.618946 
L 633.88764 20.683913 
L 634.496976 21.398551 
L 635.71565 20.489012 
L 636.324986 20.683913 
L 636.934323 20.099209 
L 637.543659 20.294111 
L 638.152996 20.618946 
L 638.762333 20.034242 
L 639.981006 20.359078 
L 640.590342 20.943781 
L 641.199679 20.099209 
L 641.809016 20.553979 
L 642.418352 20.553979 
L 643.027689 21.398551 
L 644.246362 20.618946 
L 644.855699 20.74888 
L 645.465035 20.099209 
L 646.074372 20.618946 
L 647.293045 20.943781 
L 647.902382 21.333584 
L 648.511718 20.813847 
L 649.121055 20.878814 
L 649.730392 21.398551 
L 650.339728 20.294111 
L 650.949065 20.683913 
L 651.558401 20.618946 
L 652.167738 21.008748 
L 652.777075 20.878814 
L 653.386411 20.294111 
L 654.605084 20.229144 
L 655.214421 20.878814 
L 656.433094 20.359078 
L 657.651768 20.683913 
L 658.261104 19.969275 
L 659.479777 20.164176 
L 660.089114 20.034242 
L 660.698451 20.164176 
L 661.307787 19.904308 
L 661.917124 20.164176 
L 662.52646 19.839341 
L 663.135797 19.124704 
L 663.745134 19.579473 
L 664.35447 19.774374 
L 664.963807 20.553979 
L 665.573143 19.969275 
L 666.791817 20.099209 
L 668.01049 20.74888 
L 668.619826 20.683913 
L 669.229163 20.359078 
L 670.447836 20.683913 
L 671.057173 20.618946 
L 671.66651 20.424045 
L 672.275846 20.034242 
L 672.885183 20.164176 
L 673.494519 19.579473 
L 674.103856 19.709407 
L 674.713193 19.189671 
L 676.541202 19.319605 
L 677.150539 19.579473 
L 677.759876 19.449539 
L 678.369212 19.64444 
L 678.978549 20.229144 
L 679.587885 19.059736 
L 680.197222 19.189671 
L 680.806559 19.969275 
L 681.415895 19.514506 
L 682.025232 19.904308 
L 682.634568 19.709407 
L 683.243905 20.034242 
L 685.071915 19.059736 
L 685.681252 19.449539 
L 686.290588 19.059736 
L 686.899925 19.124704 
L 687.509261 18.54 
L 687.509261 18.54 
" clip-path="url(#pdcda01a517)" style="fill: none; stroke: #1f77b4; stroke-width: 1.5; stroke-linecap: square"/>
   </g>
   <g id="line2d_16">
    <path d="M 78.781989 242.091647 
L 79.391325 229.163203 
L 80.000662 220.522584 
L 81.219335 210.972426 
L 81.828672 202.526709 
L 83.047345 196.289871 
L 83.656682 193.301386 
L 84.266018 189.143495 
L 86.703365 177.644325 
L 87.312701 177.384457 
L 87.922038 174.331005 
L 89.140711 172.706829 
L 89.750048 169.718344 
L 90.359384 170.173114 
L 91.578057 166.340057 
L 92.187394 166.794827 
L 92.796731 163.286606 
L 93.406067 164.001243 
L 94.015404 163.156671 
L 94.62474 161.792363 
L 95.234077 162.766869 
L 95.843414 161.662429 
L 96.45275 159.193681 
L 97.062087 159.843351 
L 97.671424 159.388582 
L 98.28076 157.049768 
L 98.890097 156.854867 
L 99.499433 156.075262 
L 100.10877 156.205196 
L 100.718107 155.620493 
L 101.327443 157.049768 
L 101.93678 154.58102 
L 102.546116 155.360624 
L 103.155453 155.750427 
L 103.76479 153.411613 
L 104.374126 152.242206 
L 104.983463 152.761942 
L 105.592799 150.358161 
L 106.202136 150.488095 
L 106.811473 150.098293 
L 107.420809 151.007832 
L 108.030146 150.942865 
L 108.639482 148.539083 
L 109.248819 149.383655 
L 109.858156 149.383655 
L 110.467492 148.409149 
L 111.076829 148.279215 
L 111.686166 145.940401 
L 112.295502 147.174775 
L 112.904839 146.914907 
L 113.514175 144.835961 
L 114.123512 145.7455 
L 114.732849 144.18629 
L 115.342185 143.471653 
L 115.951522 143.796488 
L 116.560858 144.770994 
L 117.170195 143.341719 
L 117.779532 145.355698 
L 118.388868 145.7455 
L 118.998205 142.821982 
L 119.607541 142.43218 
L 120.216878 140.483168 
L 120.826215 140.418201 
L 121.435551 141.197806 
L 122.044888 138.209321 
L 122.654225 139.313761 
L 123.263561 141.522641 
L 123.872898 140.483168 
L 124.482234 139.898465 
L 125.091571 138.209321 
L 125.700908 140.548135 
L 126.310244 138.274288 
L 126.919581 136.715079 
L 127.528917 140.028399 
L 128.138254 137.429716 
L 128.747591 140.288267 
L 129.356927 139.248794 
L 129.966264 137.169848 
L 130.5756 137.624618 
L 131.184937 137.299782 
L 131.794274 138.079387 
L 132.40361 137.429716 
L 133.012947 136.974947 
L 133.622283 137.624618 
L 134.840957 134.441232 
L 135.450293 136.585145 
L 136.05963 134.181364 
L 136.668967 134.441232 
L 137.278303 133.59666 
L 137.88764 134.051429 
L 138.496976 132.557187 
L 139.106313 133.921495 
L 139.71565 132.687121 
L 140.324986 132.102418 
L 140.934323 133.271825 
L 141.543659 132.622154 
L 142.152996 132.167385 
L 142.762333 129.958505 
L 143.371669 132.102418 
L 144.590342 132.427253 
L 145.199679 130.218373 
L 145.809016 128.594197 
L 146.418352 130.348307 
L 147.027689 131.062945 
L 147.637025 130.28334 
L 148.246362 130.608175 
L 148.855699 129.113933 
L 149.465035 130.218373 
L 150.074372 129.698636 
L 150.683709 127.099954 
L 151.293045 129.373801 
L 151.902382 128.529229 
L 152.511718 129.308834 
L 153.121055 126.515251 
L 153.730392 124.696173 
L 154.339728 124.371338 
L 154.949065 126.840086 
L 155.558401 126.710152 
L 156.777075 125.410811 
L 157.386411 127.619691 
L 157.995748 124.371338 
L 158.605084 125.605712 
L 159.214421 125.800613 
L 159.823758 124.176437 
L 160.433094 123.916568 
L 161.651768 125.475778 
L 162.261104 124.176437 
L 162.870441 125.021008 
L 163.479777 123.981535 
L 164.089114 122.292392 
L 164.698451 122.877095 
L 165.307787 124.176437 
L 165.917124 121.967557 
L 166.52646 121.577754 
L 167.135797 119.368874 
L 167.745134 119.953578 
L 168.35447 120.79815 
L 168.963807 120.473314 
L 169.573143 117.874632 
L 170.18248 122.747161 
L 170.791817 118.654237 
L 171.401153 120.538281 
L 172.01049 120.668215 
L 172.619826 121.642721 
L 173.229163 118.719204 
L 173.8385 120.213446 
L 174.447836 116.38039 
L 175.057173 119.433841 
L 175.66651 119.888611 
L 176.275846 118.1345 
L 176.885183 117.224961 
L 177.494519 118.914105 
L 178.103856 117.289928 
L 178.713193 118.069533 
L 179.322529 118.524302 
L 179.931866 115.990587 
L 180.541202 119.109006 
L 181.150539 115.795686 
L 181.759876 116.900126 
L 182.369212 115.016081 
L 182.978549 116.510324 
L 183.587885 116.250455 
L 184.197222 115.665752 
L 184.806559 113.261971 
L 185.415895 112.807201 
L 186.025232 111.767728 
L 186.634568 115.016081 
L 187.243905 112.352432 
L 187.853242 111.767728 
L 188.462578 113.586806 
L 189.071915 112.937135 
L 189.681252 115.535818 
L 190.290588 115.27595 
L 190.899925 112.742234 
L 191.509261 111.637794 
L 192.118598 112.677267 
L 192.727935 111.377926 
L 193.946608 111.50786 
L 194.555944 112.547333 
L 195.165281 109.948651 
L 195.774618 110.273486 
L 196.383954 111.767728 
L 196.993291 109.948651 
L 197.602627 109.818717 
L 198.211964 109.29898 
L 199.430637 110.208519 
L 200.039974 109.29898 
L 200.649311 108.779244 
L 201.258647 109.234013 
L 201.867984 110.273486 
L 202.47732 107.934672 
L 203.086657 109.363947 
L 203.695994 109.363947 
L 204.30533 108.909178 
L 204.914667 105.790759 
L 206.13334 106.570364 
L 206.742677 107.934672 
L 207.352013 105.660825 
L 207.96135 108.19454 
L 208.570686 105.400957 
L 209.180023 105.920693 
L 209.78936 105.141089 
L 210.398696 106.635331 
L 211.008033 105.920693 
L 211.617369 106.245529 
L 212.226706 107.54487 
L 212.836043 106.635331 
L 213.445379 104.686319 
L 214.054716 104.88122 
L 214.664053 103.906714 
L 215.273389 105.206056 
L 215.882726 102.867241 
L 217.101399 104.751286 
L 217.710736 102.282538 
L 218.320072 104.686319 
L 218.929409 102.347505 
L 219.538745 102.412472 
L 220.148082 105.011154 
L 220.757419 102.67234 
L 221.366755 102.932209 
L 221.976092 101.632867 
L 222.585428 101.827769 
L 223.194765 100.333526 
L 223.804102 101.308032 
L 224.413438 99.748823 
L 225.022775 101.827769 
L 225.632111 102.152604 
L 226.241448 102.867241 
L 226.850785 101.243065 
L 227.460121 102.152604 
L 228.678795 100.46346 
L 229.288131 101.178098 
L 229.897468 101.632867 
L 230.506804 99.35902 
L 231.116141 98.579416 
L 231.725478 100.268559 
L 232.334814 98.774317 
L 232.944151 99.034185 
L 233.553487 98.644383 
L 234.162824 99.229086 
L 234.772161 99.294053 
L 235.381497 95.136162 
L 235.990834 97.864778 
L 236.60017 98.70935 
L 237.209507 96.435503 
L 237.818844 96.825305 
L 238.42818 96.760338 
L 239.037517 96.305569 
L 239.646854 98.124646 
L 240.25619 95.785832 
L 240.865527 95.331063 
L 241.474863 96.110667 
L 242.0842 95.331063 
L 242.693537 93.83682 
L 243.302873 95.915766 
L 243.91221 94.876293 
L 244.521546 94.94126 
L 245.130883 94.356557 
L 245.74022 93.122183 
L 246.349556 92.212644 
L 246.958893 92.472512 
L 247.568229 91.368072 
L 248.177566 95.201129 
L 249.396239 92.73238 
L 250.005576 93.83682 
L 250.614912 93.83682 
L 251.224249 91.498006 
L 251.833586 91.433039 
L 252.442922 93.057216 
L 253.052259 91.887809 
L 253.661596 91.62794 
L 254.270932 91.62794 
L 254.880269 92.667413 
L 255.489605 92.602446 
L 256.098942 92.797347 
L 256.708279 91.822842 
L 257.317615 93.641919 
L 257.926952 90.198665 
L 258.536288 91.368072 
L 259.145625 90.393566 
L 259.754962 88.444555 
L 260.364298 90.003764 
L 260.973635 90.263632 
L 261.582971 89.224159 
L 262.192308 90.5235 
L 262.801645 90.5235 
L 263.410981 89.678929 
L 264.020318 91.562973 
L 264.629654 90.783369 
L 265.238991 90.458533 
L 265.848328 90.5235 
L 266.457664 91.108204 
L 267.067001 89.743896 
L 267.676338 87.859851 
L 268.285674 89.87383 
L 268.895011 88.834357 
L 269.504347 89.094225 
L 270.113684 88.899324 
L 270.723021 89.808863 
L 271.332357 88.379588 
L 271.941694 90.783369 
L 272.55103 86.040773 
L 273.160367 87.989785 
L 273.769704 87.794884 
L 274.37904 87.794884 
L 275.597713 87.21018 
L 276.20705 88.249653 
L 276.816387 86.950312 
L 277.425723 84.546531 
L 278.03506 86.300642 
L 278.644396 86.235675 
L 279.253733 85.0013 
L 279.86307 88.509522 
L 280.472406 87.21018 
L 281.081743 86.950312 
L 281.69108 87.015279 
L 282.909753 86.430576 
L 283.519089 83.766926 
L 284.128426 83.766926 
L 284.737763 86.755411 
L 285.347099 84.871366 
L 285.956436 84.221696 
L 286.565772 82.922355 
L 287.175109 84.221696 
L 287.784446 83.961828 
L 288.393782 81.558046 
L 289.003119 82.597519 
L 289.612455 83.89686 
L 290.221792 81.817915 
L 290.831129 81.752948 
L 291.440465 83.766926 
L 292.049802 83.89686 
L 292.659139 81.882882 
L 293.268475 81.493079 
L 294.487148 85.326136 
L 295.096485 81.233211 
L 295.705822 82.532552 
L 296.315158 84.286663 
L 296.924495 82.272684 
L 297.533831 81.623013 
L 298.143168 80.778442 
L 298.752505 82.792421 
L 299.361841 82.532552 
L 299.971178 81.103277 
L 300.580514 80.583541 
L 301.189851 82.792421 
L 301.799188 81.168244 
L 302.408524 82.402618 
L 303.017861 80.973343 
L 303.627197 80.973343 
L 304.236534 81.168244 
L 304.845871 81.687981 
L 305.455207 84.156729 
L 306.064544 79.868903 
L 306.673881 82.922355 
L 307.283217 81.03831 
L 307.892554 79.674002 
L 308.50189 80.518573 
L 309.111227 82.597519 
L 309.720564 79.738969 
L 310.3299 78.959364 
L 310.939237 78.504595 
L 311.548573 80.583541 
L 312.15791 80.323672 
L 312.767247 81.752948 
L 313.376583 81.947849 
L 313.98592 79.93387 
L 314.595256 76.815451 
L 315.81393 78.959364 
L 316.423266 77.984858 
L 317.032603 78.374661 
L 317.641939 79.089298 
L 318.251276 77.854924 
L 318.860613 77.075319 
L 319.469949 75.840945 
L 320.079286 78.439628 
L 320.688623 76.815451 
L 321.297959 76.555583 
L 321.907296 75.646044 
L 322.516632 75.711011 
L 323.125969 75.970879 
L 323.735306 76.62055 
L 324.344642 73.30723 
L 324.953979 77.465122 
L 325.563315 73.697032 
L 326.172652 76.62055 
L 326.781989 74.671538 
L 328.000662 75.840945 
L 328.609998 75.321209 
L 329.219335 73.956901 
L 329.828672 76.295715 
L 330.438008 75.51611 
L 331.047345 76.880418 
L 331.656682 75.061341 
L 332.266018 75.386176 
L 333.484691 72.852461 
L 334.094028 74.541604 
L 334.703365 72.722526 
L 335.312701 75.386176 
L 335.922038 72.267757 
L 336.531374 72.657559 
L 337.140711 73.502131 
L 337.750048 73.047362 
L 338.359384 72.397691 
L 338.968721 72.852461 
L 339.578057 71.228284 
L 340.187394 71.423185 
L 340.796731 72.267757 
L 341.406067 71.877955 
L 342.015404 71.228284 
L 342.62474 71.553119 
L 343.234077 74.086835 
L 343.843414 72.787494 
L 344.45275 74.346703 
L 345.062087 72.787494 
L 346.28076 70.578614 
L 346.890097 69.863976 
L 347.499433 70.253778 
L 348.10877 70.123844 
L 348.718107 70.318745 
L 349.327443 70.773515 
L 349.93678 70.513647 
L 350.546116 72.007889 
L 351.155453 68.954437 
L 351.76479 70.383712 
L 352.374126 69.019404 
L 352.983463 69.604108 
L 353.592799 70.448679 
L 354.202136 67.849997 
L 354.811473 68.369734 
L 355.420809 69.149338 
L 356.030146 69.344239 
L 356.639482 68.694569 
L 357.248819 66.745557 
L 357.858156 63.887007 
L 358.467492 67.590129 
L 359.076829 67.265294 
L 359.686166 68.564635 
L 360.295502 65.511183 
L 361.514175 67.070392 
L 362.123512 66.420722 
L 363.342185 66.225821 
L 363.951522 67.655096 
L 364.560858 67.005425 
L 365.779532 66.940458 
L 366.388868 66.290788 
L 366.998205 66.615623 
L 367.607541 66.68059 
L 368.216878 66.290788 
L 368.826215 68.109865 
L 369.435551 65.316282 
L 370.044888 64.406743 
L 370.654225 65.186348 
L 371.263561 67.135359 
L 371.872898 64.731578 
L 372.482234 65.316282 
L 373.091571 64.666611 
L 373.700908 64.276809 
L 374.310244 66.225821 
L 374.919581 65.57615 
L 375.528917 65.381249 
L 376.138254 63.36727 
L 376.747591 63.627138 
L 377.356927 64.796545 
L 377.966264 64.016941 
L 378.5756 63.757072 
L 379.184937 62.977468 
L 379.794274 65.316282 
L 381.012947 65.056414 
L 381.622283 64.211842 
L 382.23162 64.211842 
L 382.840957 64.92648 
L 383.450293 63.302303 
L 384.05963 63.562171 
L 384.668967 61.223357 
L 385.278303 61.743094 
L 385.88764 63.237336 
L 386.496976 62.002962 
L 387.106313 61.808061 
L 387.71565 62.782567 
L 388.324986 62.782567 
L 388.934323 62.132896 
L 389.543659 62.522698 
L 390.152996 61.743094 
L 390.762333 61.873028 
L 391.371669 60.50872 
L 391.981006 64.341776 
L 392.590342 60.183884 
L 393.199679 60.05395 
L 393.809016 60.638654 
L 394.418352 59.794082 
L 395.027689 59.859049 
L 395.637025 59.469247 
L 396.855699 62.132896 
L 397.465035 60.898522 
L 398.074372 60.703621 
L 398.683709 60.248851 
L 399.293045 61.418258 
L 399.902382 61.483225 
L 400.511718 59.988983 
L 401.121055 60.573687 
L 401.730392 60.50872 
L 402.339728 60.183884 
L 402.949065 62.132896 
L 403.558401 59.599181 
L 404.167738 59.988983 
L 404.777075 58.559708 
L 405.386411 59.014477 
L 405.995748 57.84507 
L 406.605084 60.118917 
L 407.214421 59.924016 
L 408.433094 57.780103 
L 409.042431 59.274345 
L 409.651768 60.248851 
L 410.261104 59.599181 
L 410.870441 56.805597 
L 411.479777 58.624675 
L 412.089114 56.74063 
L 412.698451 57.520235 
L 413.307787 57.325334 
L 413.917124 57.650169 
L 415.135797 59.274345 
L 415.745134 58.364807 
L 416.35447 55.311355 
L 417.573143 58.689642 
L 418.18248 56.870564 
L 419.401153 58.494741 
L 420.01049 58.494741 
L 420.619826 55.181421 
L 421.229163 56.480762 
L 422.447836 55.701157 
L 423.057173 56.870564 
L 423.66651 55.766124 
L 424.275846 56.805597 
L 424.885183 58.234873 
L 425.494519 55.181421 
L 426.103856 58.429774 
L 426.713193 56.74063 
L 427.322529 56.545729 
L 427.931866 56.610696 
L 428.541202 58.234873 
L 429.150539 57.910037 
L 429.759876 56.220894 
L 430.369212 58.364807 
L 430.978549 58.234873 
L 431.587885 55.376322 
L 432.197222 58.819576 
L 432.806559 57.520235 
L 433.415895 57.1954 
L 434.025232 55.376322 
L 434.634568 55.246388 
L 435.243905 56.805597 
L 435.853242 55.701157 
L 436.462578 56.285861 
L 437.071915 55.701157 
L 437.681252 56.025993 
L 438.290588 54.53175 
L 438.899925 57.390301 
L 439.509261 56.220894 
L 440.118598 54.466783 
L 440.727935 53.297376 
L 441.337271 53.557244 
L 441.946608 50.373858 
L 443.165281 54.596717 
L 443.774618 53.947047 
L 444.383954 53.817113 
L 444.993291 51.21843 
L 445.602627 52.32287 
L 446.211964 53.687178 
L 446.821301 53.557244 
L 447.430637 50.373858 
L 448.039974 54.53175 
L 448.649311 54.596717 
L 449.258647 54.012014 
L 449.867984 53.037508 
L 450.47732 52.517771 
L 451.086657 51.348364 
L 451.695994 50.958562 
L 452.30533 51.608233 
L 452.914667 52.517771 
L 453.524003 51.803134 
L 454.13334 50.893595 
L 454.742677 51.998035 
L 455.352013 48.164979 
L 456.570686 51.023529 
L 457.78936 50.11399 
L 458.398696 53.167442 
L 459.008033 50.503793 
L 460.226706 52.32287 
L 460.836043 51.998035 
L 461.445379 49.789155 
L 462.054716 49.789155 
L 462.664053 49.529287 
L 463.273389 51.6732 
L 463.882726 50.178957 
L 464.492062 50.049023 
L 465.101399 50.503793 
L 465.710736 51.803134 
L 466.320072 49.529287 
L 466.929409 48.814649 
L 467.538745 49.529287 
L 468.148082 52.647706 
L 468.757419 52.192936 
L 469.366755 48.879616 
L 469.976092 52.387837 
L 470.585428 49.854122 
L 471.194765 49.724188 
L 471.804102 48.100011 
L 472.413438 47.060539 
L 473.022775 49.984056 
L 473.632111 49.139484 
L 474.241448 49.139484 
L 474.850785 50.243924 
L 475.460121 49.984056 
L 476.069458 49.139484 
L 476.678795 49.269419 
L 477.288131 49.854122 
L 477.897468 49.854122 
L 478.506804 48.164979 
L 479.116141 49.139484 
L 479.725478 48.424847 
L 480.334814 48.814649 
L 480.944151 49.854122 
L 482.162824 49.139484 
L 482.772161 48.424847 
L 483.381497 49.399353 
L 483.990834 48.035044 
L 484.60017 49.139484 
L 485.209507 48.489814 
L 485.818844 50.698694 
L 486.42818 49.00955 
L 487.037517 49.334386 
L 487.646854 47.840143 
L 488.25619 48.619748 
L 488.865527 49.074517 
L 489.474863 46.475835 
L 490.0842 47.450341 
L 490.693537 44.656757 
L 491.302873 47.060539 
L 492.521546 48.879616 
L 493.130883 45.956099 
L 493.74022 47.320407 
L 494.349556 47.25544 
L 494.958893 46.735703 
L 495.568229 48.879616 
L 496.177566 47.645242 
L 496.786903 48.944583 
L 497.396239 46.865637 
L 498.005576 47.25544 
L 498.614912 49.529287 
L 499.224249 47.25544 
L 499.833586 46.80067 
L 500.442922 45.69623 
L 502.270932 48.489814 
L 502.880269 45.826164 
L 503.489605 46.605769 
L 504.098942 46.215967 
L 504.708279 47.125506 
L 505.317615 46.410868 
L 505.926952 46.670736 
L 506.536288 47.775176 
L 507.145625 45.306428 
L 507.754962 46.280934 
L 508.364298 46.410868 
L 508.973635 45.891131 
L 509.582971 47.190473 
L 510.801645 45.436362 
L 511.410981 46.280934 
L 512.020318 46.540802 
L 512.629654 44.396889 
L 513.238991 43.422383 
L 513.848328 46.475835 
L 514.457664 44.786691 
L 515.067001 46.021066 
L 515.676338 46.280934 
L 516.285674 45.891131 
L 516.895011 43.747219 
L 517.504347 45.956099 
L 518.113684 44.266955 
L 518.723021 44.072054 
L 519.332357 44.072054 
L 519.941694 43.292449 
L 520.55103 45.566296 
L 521.160367 42.577812 
L 521.769704 46.735703 
L 522.37904 45.241461 
L 522.988377 44.526823 
L 523.597713 43.552317 
L 524.20705 45.371395 
L 524.816387 42.188009 
L 525.425723 43.812186 
L 526.03506 46.086033 
L 526.644396 44.656757 
L 527.253733 44.461856 
L 527.86307 42.512844 
L 528.472406 42.772713 
L 529.081743 42.512844 
L 529.69108 43.357416 
L 530.300416 43.422383 
L 531.519089 41.27847 
L 532.128426 42.252976 
L 532.737763 39.589327 
L 533.347099 42.188009 
L 533.956436 42.317943 
L 534.565772 43.812186 
L 535.175109 40.953635 
L 535.784446 40.823701 
L 536.393782 39.654294 
L 537.003119 43.682252 
L 537.612455 40.888668 
L 538.221792 44.072054 
L 538.831129 40.563833 
L 539.440465 41.083569 
L 540.049802 38.354953 
L 540.659139 42.577812 
L 541.268475 41.148536 
L 541.877812 41.993108 
L 542.487148 43.48735 
L 543.096485 40.758734 
L 543.705822 39.589327 
L 544.315158 39.654294 
L 544.924495 38.809722 
L 545.533831 41.538339 
L 546.143168 39.06959 
L 546.752505 39.979129 
L 547.361841 40.433899 
L 547.971178 42.642779 
L 548.580514 40.17403 
L 549.189851 41.148536 
L 549.799188 37.185546 
L 550.408524 41.213503 
L 551.017861 41.213503 
L 551.627197 39.979129 
L 552.236534 40.6288 
L 552.845871 39.329459 
L 553.455207 41.343437 
L 554.064544 41.27847 
L 554.673881 39.06959 
L 555.892554 42.38291 
L 556.50189 39.654294 
L 557.111227 37.770249 
L 557.720564 36.405941 
L 558.3299 41.213503 
L 558.939237 39.394426 
L 559.548573 38.679788 
L 560.15791 41.148536 
L 560.767247 38.289986 
L 561.376583 39.654294 
L 561.98592 37.640315 
L 563.204593 39.329459 
L 563.81393 38.679788 
L 564.423266 39.134557 
L 565.641939 38.809722 
L 566.251276 38.225019 
L 566.860613 36.016139 
L 567.469949 38.484887 
L 568.079286 38.679788 
L 568.688623 39.589327 
L 569.297959 39.264492 
L 569.907296 37.96515 
L 570.516632 38.41992 
L 571.125969 36.925677 
L 571.735306 39.134557 
L 572.344642 38.41992 
L 572.953979 38.225019 
L 573.563315 37.770249 
L 574.172652 39.134557 
L 574.781989 39.329459 
L 575.391325 37.380447 
L 576.609998 36.276007 
L 577.219335 38.744755 
L 577.828672 36.405941 
L 578.438008 36.21104 
L 579.047345 35.821237 
L 579.656682 40.044096 
L 580.266018 37.250513 
L 580.875355 38.744755 
L 581.484691 37.055612 
L 582.094028 37.185546 
L 582.703365 36.795743 
L 583.312701 40.6288 
L 583.922038 36.730776 
L 584.531374 36.146073 
L 585.750048 37.185546 
L 586.359384 35.236534 
L 586.968721 36.276007 
L 587.578057 37.575348 
L 588.187394 37.575348 
L 588.796731 36.665809 
L 589.406067 37.900183 
L 590.015404 36.470908 
L 590.62474 36.665809 
L 591.234077 36.600842 
L 591.843414 36.730776 
L 592.45275 37.510381 
L 593.062087 35.561369 
L 593.671424 36.016139 
L 594.28076 34.846732 
L 594.890097 36.600842 
L 595.499433 36.081106 
L 596.10877 35.366468 
L 596.718107 39.199524 
L 597.327443 36.665809 
L 597.93678 35.1066 
L 598.546116 35.951172 
L 599.155453 35.1066 
L 599.76479 36.730776 
L 600.374126 36.405941 
L 600.983463 35.691303 
L 601.592799 37.185546 
L 602.202136 33.742292 
L 602.811473 35.431435 
L 603.420809 35.1066 
L 604.030146 36.016139 
L 604.639482 34.456929 
L 605.248819 34.781765 
L 605.858156 34.586863 
L 606.467492 34.911699 
L 607.076829 33.612357 
L 607.686166 34.911699 
L 608.295502 35.496402 
L 608.904839 35.496402 
L 609.514175 32.313016 
L 610.123512 34.846732 
L 610.732849 33.54739 
L 611.342185 35.75627 
L 611.951522 34.976666 
L 612.560858 33.222555 
L 613.170195 35.431435 
L 613.779532 33.287522 
L 614.388868 35.236534 
L 614.998205 32.702819 
L 615.607541 30.818774 
L 616.216878 32.507918 
L 616.826215 31.403478 
L 617.435551 33.222555 
L 618.044888 32.572885 
L 618.654225 30.299038 
L 619.263561 30.364005 
L 620.482234 34.00216 
L 621.091571 32.572885 
L 621.700908 34.067127 
L 622.310244 31.728313 
L 622.919581 34.067127 
L 623.528917 33.54739 
L 624.138254 31.273543 
L 624.747591 31.923214 
L 625.356927 32.89772 
L 625.966264 31.468445 
L 626.5756 30.753807 
L 627.184937 31.208576 
L 627.794274 33.222555 
L 628.40361 33.352489 
L 629.012947 30.948708 
L 629.622283 29.519433 
L 630.840957 32.702819 
L 631.450293 34.262028 
L 632.05963 34.132094 
L 632.668967 29.259565 
L 633.278303 33.027654 
L 633.88764 31.858247 
L 634.496976 32.702819 
L 635.106313 30.753807 
L 635.71565 31.923214 
L 636.324986 29.259565 
L 636.934323 31.728313 
L 637.543659 32.767786 
L 638.152996 32.507918 
L 638.762333 31.208576 
L 639.371669 30.948708 
L 639.981006 33.157588 
L 641.199679 31.988181 
L 641.809016 34.391962 
L 642.418352 31.79328 
L 643.027689 31.858247 
L 643.637025 31.728313 
L 644.246362 32.832753 
L 644.855699 29.974202 
L 645.465035 31.858247 
L 646.074372 29.5844 
L 646.683709 31.598379 
L 647.293045 31.078642 
L 647.902382 31.33851 
L 648.511718 32.832753 
L 649.121055 30.23407 
L 649.730392 30.883741 
L 650.339728 30.428972 
L 650.949065 33.352489 
L 651.558401 31.143609 
L 652.167738 31.923214 
L 652.777075 30.68884 
L 653.386411 33.027654 
L 653.995748 33.157588 
L 655.214421 30.039169 
L 655.823758 31.403478 
L 656.433094 30.753807 
L 657.042431 30.883741 
L 657.651768 32.053148 
L 658.261104 29.779301 
L 658.870441 29.324532 
L 659.479777 28.285059 
L 660.089114 34.262028 
L 660.698451 31.598379 
L 661.917124 30.68884 
L 662.52646 29.454466 
L 663.135797 30.558906 
L 663.745134 32.248049 
L 664.35447 31.663346 
L 664.963807 30.169103 
L 665.573143 29.259565 
L 666.18248 32.702819 
L 666.791817 26.530948 
L 667.401153 30.169103 
L 668.01049 31.273543 
L 668.619826 29.649367 
L 669.229163 29.5844 
L 669.8385 30.493939 
L 670.447836 29.844268 
L 671.66651 30.039169 
L 672.885183 31.663346 
L 673.494519 28.47996 
L 674.103856 31.403478 
L 674.713193 31.598379 
L 675.322529 28.414993 
L 676.541202 30.753807 
L 677.150539 31.013675 
L 677.759876 29.5844 
L 678.369212 26.530948 
L 678.978549 25.946245 
L 679.587885 30.948708 
L 680.197222 27.635388 
L 680.806559 27.830289 
L 681.415895 29.454466 
L 682.025232 27.765322 
L 682.634568 30.364005 
L 683.243905 27.505454 
L 683.853242 27.180619 
L 684.462578 29.454466 
L 685.071915 26.985718 
L 685.681252 27.960223 
L 686.290588 27.180619 
L 686.899925 29.194598 
L 687.509261 26.985718 
L 687.509261 26.985718 
" clip-path="url(#pdcda01a517)" style="fill: none; stroke: #ff7f0e; stroke-width: 1.5; stroke-linecap: square"/>
   </g>
   <g id="patch_3">
    <path d="M 48.345625 256.68 
L 48.345625 7.2 
" style="fill: none; stroke: #000000; stroke-width: 0.8; stroke-linejoin: miter; stroke-linecap: square"/>
   </g>
   <g id="patch_4">
    <path d="M 717.945625 256.68 
L 717.945625 7.2 
" style="fill: none; stroke: #000000; stroke-width: 0.8; stroke-linejoin: miter; stroke-linecap: square"/>
   </g>
   <g id="patch_5">
    <path d="M 48.345625 256.68 
L 717.945625 256.68 
" style="fill: none; stroke: #000000; stroke-width: 0.8; stroke-linejoin: miter; stroke-linecap: square"/>
   </g>
   <g id="patch_6">
    <path d="M 48.345625 7.2 
L 717.945625 7.2 
" style="fill: none; stroke: #000000; stroke-width: 0.8; stroke-linejoin: miter; stroke-linecap: square"/>
   </g>
   <g id="legend_1">
    <g id="patch_7">
     <path d="M 513.625625 248.68 
L 706.745625 248.68 
Q 709.945625 248.68 709.945625 245.48 
L 709.945625 200.075 
Q 709.945625 196.875 706.745625 196.875 
L 513.625625 196.875 
Q 510.425625 196.875 510.425625 200.075 
L 510.425625 245.48 
Q 510.425625 248.68 513.625625 248.68 
z
" style="fill: #ffffff; opacity: 0.8; stroke: #cccccc; stroke-linejoin: miter"/>
    </g>
    <g id="line2d_17">
     <path d="M 516.825625 209.8325 
L 532.825625 209.8325 
L 548.825625 209.8325 
" style="fill: none; stroke: #1f77b4; stroke-width: 1.5; stroke-linecap: square"/>
    </g>
    <g id="text_17">
     <!-- UCB ($c=1$) -->
     <g transform="translate(561.625625 215.4325) scale(0.16 -0.16)">
      <defs>
       <path id="DejaVuSans-55" d="M 556 4666 
L 1191 4666 
L 1191 1831 
Q 1191 1081 1462 751 
Q 1734 422 2344 422 
Q 2950 422 3222 751 
Q 3494 1081 3494 1831 
L 3494 4666 
L 4128 4666 
L 4128 1753 
Q 4128 841 3676 375 
Q 3225 -91 2344 -91 
Q 1459 -91 1007 375 
Q 556 841 556 1753 
L 556 4666 
z
" transform="scale(0.015625)"/>
       <path id="DejaVuSans-43" d="M 4122 4306 
L 4122 3641 
Q 3803 3938 3442 4084 
Q 3081 4231 2675 4231 
Q 1875 4231 1450 3742 
Q 1025 3253 1025 2328 
Q 1025 1406 1450 917 
Q 1875 428 2675 428 
Q 3081 428 3442 575 
Q 3803 722 4122 1019 
L 4122 359 
Q 3791 134 3420 21 
Q 3050 -91 2638 -91 
Q 1578 -91 968 557 
Q 359 1206 359 2328 
Q 359 3453 968 4101 
Q 1578 4750 2638 4750 
Q 3056 4750 3426 4639 
Q 3797 4528 4122 4306 
z
" transform="scale(0.015625)"/>
       <path id="DejaVuSans-42" d="M 1259 2228 
L 1259 519 
L 2272 519 
Q 2781 519 3026 730 
Q 3272 941 3272 1375 
Q 3272 1813 3026 2020 
Q 2781 2228 2272 2228 
L 1259 2228 
z
M 1259 4147 
L 1259 2741 
L 2194 2741 
Q 2656 2741 2882 2914 
Q 3109 3088 3109 3444 
Q 3109 3797 2882 3972 
Q 2656 4147 2194 4147 
L 1259 4147 
z
M 628 4666 
L 2241 4666 
Q 2963 4666 3353 4366 
Q 3744 4066 3744 3513 
Q 3744 3084 3544 2831 
Q 3344 2578 2956 2516 
Q 3422 2416 3680 2098 
Q 3938 1781 3938 1306 
Q 3938 681 3513 340 
Q 3088 0 2303 0 
L 628 0 
L 628 4666 
z
" transform="scale(0.015625)"/>
       <path id="DejaVuSans-28" d="M 1984 4856 
Q 1566 4138 1362 3434 
Q 1159 2731 1159 2009 
Q 1159 1288 1364 580 
Q 1569 -128 1984 -844 
L 1484 -844 
Q 1016 -109 783 600 
Q 550 1309 550 2009 
Q 550 2706 781 3412 
Q 1013 4119 1484 4856 
L 1984 4856 
z
" transform="scale(0.015625)"/>
       <path id="DejaVuSans-Oblique-63" d="M 3431 3366 
L 3316 2797 
Q 3109 2947 2876 3022 
Q 2644 3097 2394 3097 
Q 2119 3097 1870 3000 
Q 1622 2903 1453 2725 
Q 1184 2453 1037 2087 
Q 891 1722 891 1331 
Q 891 859 1127 628 
Q 1363 397 1844 397 
Q 2081 397 2348 469 
Q 2616 541 2906 684 
L 2797 116 
Q 2547 13 2283 -39 
Q 2019 -91 1741 -91 
Q 1044 -91 669 257 
Q 294 606 294 1253 
Q 294 1797 489 2255 
Q 684 2713 1069 3078 
Q 1331 3328 1684 3456 
Q 2038 3584 2456 3584 
Q 2700 3584 2940 3529 
Q 3181 3475 3431 3366 
z
" transform="scale(0.015625)"/>
       <path id="DejaVuSans-3d" d="M 678 2906 
L 4684 2906 
L 4684 2381 
L 678 2381 
L 678 2906 
z
M 678 1631 
L 4684 1631 
L 4684 1100 
L 678 1100 
L 678 1631 
z
" transform="scale(0.015625)"/>
       <path id="DejaVuSans-29" d="M 513 4856 
L 1013 4856 
Q 1481 4119 1714 3412 
Q 1947 2706 1947 2009 
Q 1947 1309 1714 600 
Q 1481 -109 1013 -844 
L 513 -844 
Q 928 -128 1133 580 
Q 1338 1288 1338 2009 
Q 1338 2731 1133 3434 
Q 928 4138 513 4856 
z
" transform="scale(0.015625)"/>
      </defs>
      <use xlink:href="#DejaVuSans-55" transform="translate(0 0.125)"/>
      <use xlink:href="#DejaVuSans-43" transform="translate(73.193359 0.125)"/>
      <use xlink:href="#DejaVuSans-42" transform="translate(143.017578 0.125)"/>
      <use xlink:href="#DejaVuSans-20" transform="translate(211.621094 0.125)"/>
      <use xlink:href="#DejaVuSans-28" transform="translate(243.408203 0.125)"/>
      <use xlink:href="#DejaVuSans-Oblique-63" transform="translate(282.421875 0.125)"/>
      <use xlink:href="#DejaVuSans-3d" transform="translate(356.884766 0.125)"/>
      <use xlink:href="#DejaVuSans-31" transform="translate(460.15625 0.125)"/>
      <use xlink:href="#DejaVuSans-29" transform="translate(523.779297 0.125)"/>
     </g>
    </g>
    <g id="line2d_18">
     <path d="M 516.825625 233.32 
L 532.825625 233.32 
L 548.825625 233.32 
" style="fill: none; stroke: #ff7f0e; stroke-width: 1.5; stroke-linecap: square"/>
    </g>
    <g id="text_18">
     <!-- $\epsilon$-greedy ($\epsilon=0.1$) -->
     <g transform="translate(561.625625 238.92) scale(0.16 -0.16)">
      <defs>
       <path id="DejaVuSans-Oblique-3b5" d="M 1263 1888 
Q 925 1963 778 2166 
Q 669 2309 669 2503 
Q 669 3034 1175 3344 
Q 1575 3588 2188 3588 
Q 2425 3588 2684 3550 
Q 2944 3513 3234 3438 
L 3134 2916 
Q 2847 3006 2606 3047 
Q 2359 3088 2138 3088 
Q 1766 3088 1522 2944 
Q 1228 2772 1228 2522 
Q 1228 2356 1381 2241 
Q 1563 2103 1925 2103 
L 2409 2103 
L 2319 1628 
L 1856 1628 
Q 1425 1628 1172 1469 
Q 828 1253 828 916 
Q 828 703 1013 563 
Q 1244 388 1716 388 
Q 2006 388 2284 444 
Q 2563 503 2806 619 
L 2700 84 
Q 2403 -3 2131 -47 
Q 1859 -91 1609 -91 
Q 866 -91 516 194 
Q 250 413 250 781 
Q 250 1278 600 1584 
Q 859 1813 1263 1888 
z
" transform="scale(0.015625)"/>
       <path id="DejaVuSans-2d" d="M 313 2009 
L 1997 2009 
L 1997 1497 
L 313 1497 
L 313 2009 
z
" transform="scale(0.015625)"/>
       <path id="DejaVuSans-67" d="M 2906 1791 
Q 2906 2416 2648 2759 
Q 2391 3103 1925 3103 
Q 1463 3103 1205 2759 
Q 947 2416 947 1791 
Q 947 1169 1205 825 
Q 1463 481 1925 481 
Q 2391 481 2648 825 
Q 2906 1169 2906 1791 
z
M 3481 434 
Q 3481 -459 3084 -895 
Q 2688 -1331 1869 -1331 
Q 1566 -1331 1297 -1286 
Q 1028 -1241 775 -1147 
L 775 -588 
Q 1028 -725 1275 -790 
Q 1522 -856 1778 -856 
Q 2344 -856 2625 -561 
Q 2906 -266 2906 331 
L 2906 616 
Q 2728 306 2450 153 
Q 2172 0 1784 0 
Q 1141 0 747 490 
Q 353 981 353 1791 
Q 353 2603 747 3093 
Q 1141 3584 1784 3584 
Q 2172 3584 2450 3431 
Q 2728 3278 2906 2969 
L 2906 3500 
L 3481 3500 
L 3481 434 
z
" transform="scale(0.015625)"/>
       <path id="DejaVuSans-72" d="M 2631 2963 
Q 2534 3019 2420 3045 
Q 2306 3072 2169 3072 
Q 1681 3072 1420 2755 
Q 1159 2438 1159 1844 
L 1159 0 
L 581 0 
L 581 3500 
L 1159 3500 
L 1159 2956 
Q 1341 3275 1631 3429 
Q 1922 3584 2338 3584 
Q 2397 3584 2469 3576 
Q 2541 3569 2628 3553 
L 2631 2963 
z
" transform="scale(0.015625)"/>
       <path id="DejaVuSans-64" d="M 2906 2969 
L 2906 4863 
L 3481 4863 
L 3481 0 
L 2906 0 
L 2906 525 
Q 2725 213 2448 61 
Q 2172 -91 1784 -91 
Q 1150 -91 751 415 
Q 353 922 353 1747 
Q 353 2572 751 3078 
Q 1150 3584 1784 3584 
Q 2172 3584 2448 3432 
Q 2725 3281 2906 2969 
z
M 947 1747 
Q 947 1113 1208 752 
Q 1469 391 1925 391 
Q 2381 391 2643 752 
Q 2906 1113 2906 1747 
Q 2906 2381 2643 2742 
Q 2381 3103 1925 3103 
Q 1469 3103 1208 2742 
Q 947 2381 947 1747 
z
" transform="scale(0.015625)"/>
       <path id="DejaVuSans-79" d="M 2059 -325 
Q 1816 -950 1584 -1140 
Q 1353 -1331 966 -1331 
L 506 -1331 
L 506 -850 
L 844 -850 
Q 1081 -850 1212 -737 
Q 1344 -625 1503 -206 
L 1606 56 
L 191 3500 
L 800 3500 
L 1894 763 
L 2988 3500 
L 3597 3500 
L 2059 -325 
z
" transform="scale(0.015625)"/>
       <path id="DejaVuSans-2e" d="M 684 794 
L 1344 794 
L 1344 0 
L 684 0 
L 684 794 
z
" transform="scale(0.015625)"/>
      </defs>
      <use xlink:href="#DejaVuSans-Oblique-3b5" transform="translate(0 0.015625)"/>
      <use xlink:href="#DejaVuSans-2d" transform="translate(54.052734 0.015625)"/>
      <use xlink:href="#DejaVuSans-67" transform="translate(90.136719 0.015625)"/>
      <use xlink:href="#DejaVuSans-72" transform="translate(153.613281 0.015625)"/>
      <use xlink:href="#DejaVuSans-65" transform="translate(194.726562 0.015625)"/>
      <use xlink:href="#DejaVuSans-65" transform="translate(256.25 0.015625)"/>
      <use xlink:href="#DejaVuSans-64" transform="translate(317.773438 0.015625)"/>
      <use xlink:href="#DejaVuSans-79" transform="translate(381.25 0.015625)"/>
      <use xlink:href="#DejaVuSans-20" transform="translate(440.429688 0.015625)"/>
      <use xlink:href="#DejaVuSans-28" transform="translate(472.216797 0.015625)"/>
      <use xlink:href="#DejaVuSans-Oblique-3b5" transform="translate(511.230469 0.015625)"/>
      <use xlink:href="#DejaVuSans-3d" transform="translate(584.765625 0.015625)"/>
      <use xlink:href="#DejaVuSans-30" transform="translate(688.037109 0.015625)"/>
      <use xlink:href="#DejaVuSans-2e" transform="translate(751.660156 0.015625)"/>
      <use xlink:href="#DejaVuSans-31" transform="translate(783.447266 0.015625)"/>
      <use xlink:href="#DejaVuSans-29" transform="translate(847.070312 0.015625)"/>
     </g>
    </g>
   </g>
  </g>
 </g>
 <defs>
  <clipPath id="pdcda01a517">
   <rect x="48.345625" y="7.2" width="669.6" height="249.48"/>
  </clipPath>
 </defs>
</svg>
