<?xml version="1.0" encoding="utf-8" standalone="no"?>
<!DOCTYPE svg PUBLIC "-//W3C//DTD SVG 1.1//EN"
  "http://www.w3.org/Graphics/SVG/1.1/DTD/svg11.dtd">
<svg xmlns:xlink="http://www.w3.org/1999/xlink" width="734.685pt" height="389.01pt" viewBox="0 0 734.685 389.01" xmlns="http://www.w3.org/2000/svg" version="1.1">
 <metadata>
  <rdf:RDF xmlns:dc="http://purl.org/dc/elements/1.1/" xmlns:cc="http://creativecommons.org/ns#" xmlns:rdf="http://www.w3.org/1999/02/22-rdf-syntax-ns#">
   <cc:Work>
    <dc:type rdf:resource="http://purl.org/dc/dcmitype/StillImage"/>
    <dc:date>2026-03-08T00:59:30.184950</dc:date>
    <dc:format>image/svg+xml</dc:format>
    <dc:creator>
     <cc:Agent>
      <dc:title>Matplotlib v3.10.3, https://matplotlib.org/</dc:title>
     </cc:Agent>
    </dc:creator>
   </cc:Work>
  </rdf:RDF>
 </metadata>
 <defs>
  <style type="text/css">*{stroke-linejoin: round; stroke-linecap: butt}</style>
 </defs>
 <g id="figure_1">
  <g id="patch_1">
   <path d="M 0 389.01 
L 734.685 389.01 
L 734.685 0 
L 0 0 
z
"/>
  </g>
  <g id="axes_1">
   <g id="patch_2">
    <path d="M 57.885 339.84 
L 727.485 339.84 
L 727.485 7.2 
L 57.885 7.2 
z
"/>
   </g>
   <g id="matplotlib.axis_1">
    <g id="xtick_1">
     <g id="line2d_1">
      <defs>
       <path id="m799abef4f2" d="M 0 0 
L 0 3.5 
" style="stroke: #ffffff; stroke-width: 0.8"/>
      </defs>
      <g>
       <use xlink:href="#m799abef4f2" x="88.321364" y="339.84" style="fill: #ffffff; stroke: #ffffff; stroke-width: 0.8"/>
      </g>
     </g>
     <g id="text_1">
      <!-- 0 -->
      <g style="fill: #ffffff" transform="translate(83.867614 357.477813) scale(0.14 -0.14)">
       <defs>
        <path id="DejaVuSans-30" d="M 2034 4250 
Q 1547 4250 1301 3770 
Q 1056 3291 1056 2328 
Q 1056 1369 1301 889 
Q 1547 409 2034 409 
Q 2525 409 2770 889 
Q 3016 1369 3016 2328 
Q 3016 3291 2770 3770 
Q 2525 4250 2034 4250 
z
M 2034 4750 
Q 2819 4750 3233 4129 
Q 3647 3509 3647 2328 
Q 3647 1150 3233 529 
Q 2819 -91 2034 -91 
Q 1250 -91 836 529 
Q 422 1150 422 2328 
Q 422 3509 836 4129 
Q 1250 4750 2034 4750 
z
" transform="scale(0.015625)"/>
       </defs>
       <use xlink:href="#DejaVuSans-30"/>
      </g>
     </g>
    </g>
    <g id="xtick_2">
     <g id="line2d_2">
      <g>
       <use xlink:href="#m799abef4f2" x="210.310797" y="339.84" style="fill: #ffffff; stroke: #ffffff; stroke-width: 0.8"/>
      </g>
     </g>
     <g id="text_2">
      <!-- 100 -->
      <g style="fill: #ffffff" transform="translate(196.949547 357.477813) scale(0.14 -0.14)">
       <defs>
        <path id="DejaVuSans-31" d="M 794 531 
L 1825 531 
L 1825 4091 
L 703 3866 
L 703 4441 
L 1819 4666 
L 2450 4666 
L 2450 531 
L 3481 531 
L 3481 0 
L 794 0 
L 794 531 
z
" transform="scale(0.015625)"/>
       </defs>
       <use xlink:href="#DejaVuSans-31"/>
       <use xlink:href="#DejaVuSans-30" transform="translate(63.623047 0)"/>
       <use xlink:href="#DejaVuSans-30" transform="translate(127.246094 0)"/>
      </g>
     </g>
    </g>
    <g id="xtick_3">
     <g id="line2d_3">
      <g>
       <use xlink:href="#m799abef4f2" x="332.30023" y="339.84" style="fill: #ffffff; stroke: #ffffff; stroke-width: 0.8"/>
      </g>
     </g>
     <g id="text_3">
      <!-- 200 -->
      <g style="fill: #ffffff" transform="translate(318.93898 357.477813) scale(0.14 -0.14)">
       <defs>
        <path id="DejaVuSans-32" d="M 1228 531 
L 3431 531 
L 3431 0 
L 469 0 
L 469 531 
Q 828 903 1448 1529 
Q 2069 2156 2228 2338 
Q 2531 2678 2651 2914 
Q 2772 3150 2772 3378 
Q 2772 3750 2511 3984 
Q 2250 4219 1831 4219 
Q 1534 4219 1204 4116 
Q 875 4013 500 3803 
L 500 4441 
Q 881 4594 1212 4672 
Q 1544 4750 1819 4750 
Q 2544 4750 2975 4387 
Q 3406 4025 3406 3419 
Q 3406 3131 3298 2873 
Q 3191 2616 2906 2266 
Q 2828 2175 2409 1742 
Q 1991 1309 1228 531 
z
" transform="scale(0.015625)"/>
       </defs>
       <use xlink:href="#DejaVuSans-32"/>
       <use xlink:href="#DejaVuSans-30" transform="translate(63.623047 0)"/>
       <use xlink:href="#DejaVuSans-30" transform="translate(127.246094 0)"/>
      </g>
     </g>
    </g>
    <g id="xtick_4">
     <g id="line2d_4">
      <g>
       <use xlink:href="#m799abef4f2" x="454.289664" y="339.84" style="fill: #ffffff; stroke: #ffffff; stroke-width: 0.8"/>
      </g>
     </g>
     <g id="text_4">
      <!-- 300 -->
      <g style="fill: #ffffff" transform="translate(440.928414 357.477813) scale(0.14 -0.14)">
       <defs>
        <path id="DejaVuSans-33" d="M 2597 2516 
Q 3050 2419 3304 2112 
Q 3559 1806 3559 1356 
Q 3559 666 3084 287 
Q 2609 -91 1734 -91 
Q 1441 -91 1130 -33 
Q 819 25 488 141 
L 488 750 
Q 750 597 1062 519 
Q 1375 441 1716 441 
Q 2309 441 2620 675 
Q 2931 909 2931 1356 
Q 2931 1769 2642 2001 
Q 2353 2234 1838 2234 
L 1294 2234 
L 1294 2753 
L 1863 2753 
Q 2328 2753 2575 2939 
Q 2822 3125 2822 3475 
Q 2822 3834 2567 4026 
Q 2313 4219 1838 4219 
Q 1578 4219 1281 4162 
Q 984 4106 628 3988 
L 628 4550 
Q 988 4650 1302 4700 
Q 1616 4750 1894 4750 
Q 2613 4750 3031 4423 
Q 3450 4097 3450 3541 
Q 3450 3153 3228 2886 
Q 3006 2619 2597 2516 
z
" transform="scale(0.015625)"/>
       </defs>
       <use xlink:href="#DejaVuSans-33"/>
       <use xlink:href="#DejaVuSans-30" transform="translate(63.623047 0)"/>
       <use xlink:href="#DejaVuSans-30" transform="translate(127.246094 0)"/>
      </g>
     </g>
    </g>
    <g id="xtick_5">
     <g id="line2d_5">
      <g>
       <use xlink:href="#m799abef4f2" x="576.279097" y="339.84" style="fill: #ffffff; stroke: #ffffff; stroke-width: 0.8"/>
      </g>
     </g>
     <g id="text_5">
      <!-- 400 -->
      <g style="fill: #ffffff" transform="translate(562.917847 357.477813) scale(0.14 -0.14)">
       <defs>
        <path id="DejaVuSans-34" d="M 2419 4116 
L 825 1625 
L 2419 1625 
L 2419 4116 
z
M 2253 4666 
L 3047 4666 
L 3047 1625 
L 3713 1625 
L 3713 1100 
L 3047 1100 
L 3047 0 
L 2419 0 
L 2419 1100 
L 313 1100 
L 313 1709 
L 2253 4666 
z
" transform="scale(0.015625)"/>
       </defs>
       <use xlink:href="#DejaVuSans-34"/>
       <use xlink:href="#DejaVuSans-30" transform="translate(63.623047 0)"/>
       <use xlink:href="#DejaVuSans-30" transform="translate(127.246094 0)"/>
      </g>
     </g>
    </g>
    <g id="xtick_6">
     <g id="line2d_6">
      <g>
       <use xlink:href="#m799abef4f2" x="698.268531" y="339.84" style="fill: #ffffff; stroke: #ffffff; stroke-width: 0.8"/>
      </g>
     </g>
     <g id="text_6">
      <!-- 500 -->
      <g style="fill: #ffffff" transform="translate(684.907281 357.477813) scale(0.14 -0.14)">
       <defs>
        <path id="DejaVuSans-35" d="M 691 4666 
L 3169 4666 
L 3169 4134 
L 1269 4134 
L 1269 2991 
Q 1406 3038 1543 3061 
Q 1681 3084 1819 3084 
Q 2600 3084 3056 2656 
Q 3513 2228 3513 1497 
Q 3513 744 3044 326 
Q 2575 -91 1722 -91 
Q 1428 -91 1123 -41 
Q 819 9 494 109 
L 494 744 
Q 775 591 1075 516 
Q 1375 441 1709 441 
Q 2250 441 2565 725 
Q 2881 1009 2881 1497 
Q 2881 1984 2565 2268 
Q 2250 2553 1709 2553 
Q 1456 2553 1204 2497 
Q 953 2441 691 2322 
L 691 4666 
z
" transform="scale(0.015625)"/>
       </defs>
       <use xlink:href="#DejaVuSans-35"/>
       <use xlink:href="#DejaVuSans-30" transform="translate(63.623047 0)"/>
       <use xlink:href="#DejaVuSans-30" transform="translate(127.246094 0)"/>
      </g>
     </g>
    </g>
    <g id="text_7">
     <!-- Steps -->
     <g style="fill: #ffffff" transform="translate(367.503281 378.066563) scale(0.18 -0.18)">
      <defs>
       <path id="DejaVuSans-53" d="M 3425 4513 
L 3425 3897 
Q 3066 4069 2747 4153 
Q 2428 4238 2131 4238 
Q 1616 4238 1336 4038 
Q 1056 3838 1056 3469 
Q 1056 3159 1242 3001 
Q 1428 2844 1947 2747 
L 2328 2669 
Q 3034 2534 3370 2195 
Q 3706 1856 3706 1288 
Q 3706 609 3251 259 
Q 2797 -91 1919 -91 
Q 1588 -91 1214 -16 
Q 841 59 441 206 
L 441 856 
Q 825 641 1194 531 
Q 1563 422 1919 422 
Q 2459 422 2753 634 
Q 3047 847 3047 1241 
Q 3047 1584 2836 1778 
Q 2625 1972 2144 2069 
L 1759 2144 
Q 1053 2284 737 2584 
Q 422 2884 422 3419 
Q 422 4038 858 4394 
Q 1294 4750 2059 4750 
Q 2388 4750 2728 4690 
Q 3069 4631 3425 4513 
z
" transform="scale(0.015625)"/>
       <path id="DejaVuSans-74" d="M 1172 4494 
L 1172 3500 
L 2356 3500 
L 2356 3053 
L 1172 3053 
L 1172 1153 
Q 1172 725 1289 603 
Q 1406 481 1766 481 
L 2356 481 
L 2356 0 
L 1766 0 
Q 1100 0 847 248 
Q 594 497 594 1153 
L 594 3053 
L 172 3053 
L 172 3500 
L 594 3500 
L 594 4494 
L 1172 4494 
z
" transform="scale(0.015625)"/>
       <path id="DejaVuSans-65" d="M 3597 1894 
L 3597 1613 
L 953 1613 
Q 991 1019 1311 708 
Q 1631 397 2203 397 
Q 2534 397 2845 478 
Q 3156 559 3463 722 
L 3463 178 
Q 3153 47 2828 -22 
Q 2503 -91 2169 -91 
Q 1331 -91 842 396 
Q 353 884 353 1716 
Q 353 2575 817 3079 
Q 1281 3584 2069 3584 
Q 2775 3584 3186 3129 
Q 3597 2675 3597 1894 
z
M 3022 2063 
Q 3016 2534 2758 2815 
Q 2500 3097 2075 3097 
Q 1594 3097 1305 2825 
Q 1016 2553 972 2059 
L 3022 2063 
z
" transform="scale(0.015625)"/>
       <path id="DejaVuSans-70" d="M 1159 525 
L 1159 -1331 
L 581 -1331 
L 581 3500 
L 1159 3500 
L 1159 2969 
Q 1341 3281 1617 3432 
Q 1894 3584 2278 3584 
Q 2916 3584 3314 3078 
Q 3713 2572 3713 1747 
Q 3713 922 3314 415 
Q 2916 -91 2278 -91 
Q 1894 -91 1617 61 
Q 1341 213 1159 525 
z
M 3116 1747 
Q 3116 2381 2855 2742 
Q 2594 3103 2138 3103 
Q 1681 3103 1420 2742 
Q 1159 2381 1159 1747 
Q 1159 1113 1420 752 
Q 1681 391 2138 391 
Q 2594 391 2855 752 
Q 3116 1113 3116 1747 
z
" transform="scale(0.015625)"/>
       <path id="DejaVuSans-73" d="M 2834 3397 
L 2834 2853 
Q 2591 2978 2328 3040 
Q 2066 3103 1784 3103 
Q 1356 3103 1142 2972 
Q 928 2841 928 2578 
Q 928 2378 1081 2264 
Q 1234 2150 1697 2047 
L 1894 2003 
Q 2506 1872 2764 1633 
Q 3022 1394 3022 966 
Q 3022 478 2636 193 
Q 2250 -91 1575 -91 
Q 1294 -91 989 -36 
Q 684 19 347 128 
L 347 722 
Q 666 556 975 473 
Q 1284 391 1588 391 
Q 1994 391 2212 530 
Q 2431 669 2431 922 
Q 2431 1156 2273 1281 
Q 2116 1406 1581 1522 
L 1381 1569 
Q 847 1681 609 1914 
Q 372 2147 372 2553 
Q 372 3047 722 3315 
Q 1072 3584 1716 3584 
Q 2034 3584 2315 3537 
Q 2597 3491 2834 3397 
z
" transform="scale(0.015625)"/>
      </defs>
      <use xlink:href="#DejaVuSans-53"/>
      <use xlink:href="#DejaVuSans-74" transform="translate(63.476562 0)"/>
      <use xlink:href="#DejaVuSans-65" transform="translate(102.685547 0)"/>
      <use xlink:href="#DejaVuSans-70" transform="translate(164.208984 0)"/>
      <use xlink:href="#DejaVuSans-73" transform="translate(227.685547 0)"/>
     </g>
    </g>
   </g>
   <g id="matplotlib.axis_2">
    <g id="ytick_1">
     <g id="line2d_7">
      <defs>
       <path id="m7553ac1e36" d="M 0 0 
L -3.5 0 
" style="stroke: #ffffff; stroke-width: 0.8"/>
      </defs>
      <g>
       <use xlink:href="#m7553ac1e36" x="57.885" y="322.815717" style="fill: #ffffff; stroke: #ffffff; stroke-width: 0.8"/>
      </g>
     </g>
     <g id="text_8">
      <!-- 0.0 -->
      <g style="fill: #ffffff" transform="translate(28.620625 328.134623) scale(0.14 -0.14)">
       <defs>
        <path id="DejaVuSans-2e" d="M 684 794 
L 1344 794 
L 1344 0 
L 684 0 
L 684 794 
z
" transform="scale(0.015625)"/>
       </defs>
       <use xlink:href="#DejaVuSans-30"/>
       <use xlink:href="#DejaVuSans-2e" transform="translate(63.623047 0)"/>
       <use xlink:href="#DejaVuSans-30" transform="translate(95.410156 0)"/>
      </g>
     </g>
    </g>
    <g id="ytick_2">
     <g id="line2d_8">
      <g>
       <use xlink:href="#m7553ac1e36" x="57.885" y="280.984225" style="fill: #ffffff; stroke: #ffffff; stroke-width: 0.8"/>
      </g>
     </g>
     <g id="text_9">
      <!-- 0.2 -->
      <g style="fill: #ffffff" transform="translate(28.620625 286.303132) scale(0.14 -0.14)">
       <use xlink:href="#DejaVuSans-30"/>
       <use xlink:href="#DejaVuSans-2e" transform="translate(63.623047 0)"/>
       <use xlink:href="#DejaVuSans-32" transform="translate(95.410156 0)"/>
      </g>
     </g>
    </g>
    <g id="ytick_3">
     <g id="line2d_9">
      <g>
       <use xlink:href="#m7553ac1e36" x="57.885" y="239.152734" style="fill: #ffffff; stroke: #ffffff; stroke-width: 0.8"/>
      </g>
     </g>
     <g id="text_10">
      <!-- 0.4 -->
      <g style="fill: #ffffff" transform="translate(28.620625 244.47164) scale(0.14 -0.14)">
       <use xlink:href="#DejaVuSans-30"/>
       <use xlink:href="#DejaVuSans-2e" transform="translate(63.623047 0)"/>
       <use xlink:href="#DejaVuSans-34" transform="translate(95.410156 0)"/>
      </g>
     </g>
    </g>
    <g id="ytick_4">
     <g id="line2d_10">
      <g>
       <use xlink:href="#m7553ac1e36" x="57.885" y="197.321242" style="fill: #ffffff; stroke: #ffffff; stroke-width: 0.8"/>
      </g>
     </g>
     <g id="text_11">
      <!-- 0.6 -->
      <g style="fill: #ffffff" transform="translate(28.620625 202.640148) scale(0.14 -0.14)">
       <defs>
        <path id="DejaVuSans-36" d="M 2113 2584 
Q 1688 2584 1439 2293 
Q 1191 2003 1191 1497 
Q 1191 994 1439 701 
Q 1688 409 2113 409 
Q 2538 409 2786 701 
Q 3034 994 3034 1497 
Q 3034 2003 2786 2293 
Q 2538 2584 2113 2584 
z
M 3366 4563 
L 3366 3988 
Q 3128 4100 2886 4159 
Q 2644 4219 2406 4219 
Q 1781 4219 1451 3797 
Q 1122 3375 1075 2522 
Q 1259 2794 1537 2939 
Q 1816 3084 2150 3084 
Q 2853 3084 3261 2657 
Q 3669 2231 3669 1497 
Q 3669 778 3244 343 
Q 2819 -91 2113 -91 
Q 1303 -91 875 529 
Q 447 1150 447 2328 
Q 447 3434 972 4092 
Q 1497 4750 2381 4750 
Q 2619 4750 2861 4703 
Q 3103 4656 3366 4563 
z
" transform="scale(0.015625)"/>
       </defs>
       <use xlink:href="#DejaVuSans-30"/>
       <use xlink:href="#DejaVuSans-2e" transform="translate(63.623047 0)"/>
       <use xlink:href="#DejaVuSans-36" transform="translate(95.410156 0)"/>
      </g>
     </g>
    </g>
    <g id="ytick_5">
     <g id="line2d_11">
      <g>
       <use xlink:href="#m7553ac1e36" x="57.885" y="155.48975" style="fill: #ffffff; stroke: #ffffff; stroke-width: 0.8"/>
      </g>
     </g>
     <g id="text_12">
      <!-- 0.8 -->
      <g style="fill: #ffffff" transform="translate(28.620625 160.808656) scale(0.14 -0.14)">
       <defs>
        <path id="DejaVuSans-38" d="M 2034 2216 
Q 1584 2216 1326 1975 
Q 1069 1734 1069 1313 
Q 1069 891 1326 650 
Q 1584 409 2034 409 
Q 2484 409 2743 651 
Q 3003 894 3003 1313 
Q 3003 1734 2745 1975 
Q 2488 2216 2034 2216 
z
M 1403 2484 
Q 997 2584 770 2862 
Q 544 3141 544 3541 
Q 544 4100 942 4425 
Q 1341 4750 2034 4750 
Q 2731 4750 3128 4425 
Q 3525 4100 3525 3541 
Q 3525 3141 3298 2862 
Q 3072 2584 2669 2484 
Q 3125 2378 3379 2068 
Q 3634 1759 3634 1313 
Q 3634 634 3220 271 
Q 2806 -91 2034 -91 
Q 1263 -91 848 271 
Q 434 634 434 1313 
Q 434 1759 690 2068 
Q 947 2378 1403 2484 
z
M 1172 3481 
Q 1172 3119 1398 2916 
Q 1625 2713 2034 2713 
Q 2441 2713 2670 2916 
Q 2900 3119 2900 3481 
Q 2900 3844 2670 4047 
Q 2441 4250 2034 4250 
Q 1625 4250 1398 4047 
Q 1172 3844 1172 3481 
z
" transform="scale(0.015625)"/>
       </defs>
       <use xlink:href="#DejaVuSans-30"/>
       <use xlink:href="#DejaVuSans-2e" transform="translate(63.623047 0)"/>
       <use xlink:href="#DejaVuSans-38" transform="translate(95.410156 0)"/>
      </g>
     </g>
    </g>
    <g id="ytick_6">
     <g id="line2d_12">
      <g>
       <use xlink:href="#m7553ac1e36" x="57.885" y="113.658258" style="fill: #ffffff; stroke: #ffffff; stroke-width: 0.8"/>
      </g>
     </g>
     <g id="text_13">
      <!-- 1.0 -->
      <g style="fill: #ffffff" transform="translate(28.620625 118.977165) scale(0.14 -0.14)">
       <use xlink:href="#DejaVuSans-31"/>
       <use xlink:href="#DejaVuSans-2e" transform="translate(63.623047 0)"/>
       <use xlink:href="#DejaVuSans-30" transform="translate(95.410156 0)"/>
      </g>
     </g>
    </g>
    <g id="ytick_7">
     <g id="line2d_13">
      <g>
       <use xlink:href="#m7553ac1e36" x="57.885" y="71.826767" style="fill: #ffffff; stroke: #ffffff; stroke-width: 0.8"/>
      </g>
     </g>
     <g id="text_14">
      <!-- 1.2 -->
      <g style="fill: #ffffff" transform="translate(28.620625 77.145673) scale(0.14 -0.14)">
       <use xlink:href="#DejaVuSans-31"/>
       <use xlink:href="#DejaVuSans-2e" transform="translate(63.623047 0)"/>
       <use xlink:href="#DejaVuSans-32" transform="translate(95.410156 0)"/>
      </g>
     </g>
    </g>
    <g id="ytick_8">
     <g id="line2d_14">
      <g>
       <use xlink:href="#m7553ac1e36" x="57.885" y="29.995275" style="fill: #ffffff; stroke: #ffffff; stroke-width: 0.8"/>
      </g>
     </g>
     <g id="text_15">
      <!-- 1.4 -->
      <g style="fill: #ffffff" transform="translate(28.620625 35.314181) scale(0.14 -0.14)">
       <use xlink:href="#DejaVuSans-31"/>
       <use xlink:href="#DejaVuSans-2e" transform="translate(63.623047 0)"/>
       <use xlink:href="#DejaVuSans-34" transform="translate(95.410156 0)"/>
      </g>
     </g>
    </g>
    <g id="text_16">
     <!-- Average reward -->
     <g style="fill: #ffffff" transform="translate(20.877188 244.506094) rotate(-90) scale(0.18 -0.18)">
      <defs>
       <path id="DejaVuSans-41" d="M 2188 4044 
L 1331 1722 
L 3047 1722 
L 2188 4044 
z
M 1831 4666 
L 2547 4666 
L 4325 0 
L 3669 0 
L 3244 1197 
L 1141 1197 
L 716 0 
L 50 0 
L 1831 4666 
z
" transform="scale(0.015625)"/>
       <path id="DejaVuSans-76" d="M 191 3500 
L 800 3500 
L 1894 563 
L 2988 3500 
L 3597 3500 
L 2284 0 
L 1503 0 
L 191 3500 
z
" transform="scale(0.015625)"/>
       <path id="DejaVuSans-72" d="M 2631 2963 
Q 2534 3019 2420 3045 
Q 2306 3072 2169 3072 
Q 1681 3072 1420 2755 
Q 1159 2438 1159 1844 
L 1159 0 
L 581 0 
L 581 3500 
L 1159 3500 
L 1159 2956 
Q 1341 3275 1631 3429 
Q 1922 3584 2338 3584 
Q 2397 3584 2469 3576 
Q 2541 3569 2628 3553 
L 2631 2963 
z
" transform="scale(0.015625)"/>
       <path id="DejaVuSans-61" d="M 2194 1759 
Q 1497 1759 1228 1600 
Q 959 1441 959 1056 
Q 959 750 1161 570 
Q 1363 391 1709 391 
Q 2188 391 2477 730 
Q 2766 1069 2766 1631 
L 2766 1759 
L 2194 1759 
z
M 3341 1997 
L 3341 0 
L 2766 0 
L 2766 531 
Q 2569 213 2275 61 
Q 1981 -91 1556 -91 
Q 1019 -91 701 211 
Q 384 513 384 1019 
Q 384 1609 779 1909 
Q 1175 2209 1959 2209 
L 2766 2209 
L 2766 2266 
Q 2766 2663 2505 2880 
Q 2244 3097 1772 3097 
Q 1472 3097 1187 3025 
Q 903 2953 641 2809 
L 641 3341 
Q 956 3463 1253 3523 
Q 1550 3584 1831 3584 
Q 2591 3584 2966 3190 
Q 3341 2797 3341 1997 
z
" transform="scale(0.015625)"/>
       <path id="DejaVuSans-67" d="M 2906 1791 
Q 2906 2416 2648 2759 
Q 2391 3103 1925 3103 
Q 1463 3103 1205 2759 
Q 947 2416 947 1791 
Q 947 1169 1205 825 
Q 1463 481 1925 481 
Q 2391 481 2648 825 
Q 2906 1169 2906 1791 
z
M 3481 434 
Q 3481 -459 3084 -895 
Q 2688 -1331 1869 -1331 
Q 1566 -1331 1297 -1286 
Q 1028 -1241 775 -1147 
L 775 -588 
Q 1028 -725 1275 -790 
Q 1522 -856 1778 -856 
Q 2344 -856 2625 -561 
Q 2906 -266 2906 331 
L 2906 616 
Q 2728 306 2450 153 
Q 2172 0 1784 0 
Q 1141 0 747 490 
Q 353 981 353 1791 
Q 353 2603 747 3093 
Q 1141 3584 1784 3584 
Q 2172 3584 2450 3431 
Q 2728 3278 2906 2969 
L 2906 3500 
L 3481 3500 
L 3481 434 
z
" transform="scale(0.015625)"/>
       <path id="DejaVuSans-20" transform="scale(0.015625)"/>
       <path id="DejaVuSans-77" d="M 269 3500 
L 844 3500 
L 1563 769 
L 2278 3500 
L 2956 3500 
L 3675 769 
L 4391 3500 
L 4966 3500 
L 4050 0 
L 3372 0 
L 2619 2869 
L 1863 0 
L 1184 0 
L 269 3500 
z
" transform="scale(0.015625)"/>
       <path id="DejaVuSans-64" d="M 2906 2969 
L 2906 4863 
L 3481 4863 
L 3481 0 
L 2906 0 
L 2906 525 
Q 2725 213 2448 61 
Q 2172 -91 1784 -91 
Q 1150 -91 751 415 
Q 353 922 353 1747 
Q 353 2572 751 3078 
Q 1150 3584 1784 3584 
Q 2172 3584 2448 3432 
Q 2725 3281 2906 2969 
z
M 947 1747 
Q 947 1113 1208 752 
Q 1469 391 1925 391 
Q 2381 391 2643 752 
Q 2906 1113 2906 1747 
Q 2906 2381 2643 2742 
Q 2381 3103 1925 3103 
Q 1469 3103 1208 2742 
Q 947 2381 947 1747 
z
" transform="scale(0.015625)"/>
      </defs>
      <use xlink:href="#DejaVuSans-41"/>
      <use xlink:href="#DejaVuSans-76" transform="translate(62.533203 0)"/>
      <use xlink:href="#DejaVuSans-65" transform="translate(121.712891 0)"/>
      <use xlink:href="#DejaVuSans-72" transform="translate(183.236328 0)"/>
      <use xlink:href="#DejaVuSans-61" transform="translate(224.349609 0)"/>
      <use xlink:href="#DejaVuSans-67" transform="translate(285.628906 0)"/>
      <use xlink:href="#DejaVuSans-65" transform="translate(349.105469 0)"/>
      <use xlink:href="#DejaVuSans-20" transform="translate(410.628906 0)"/>
      <use xlink:href="#DejaVuSans-72" transform="translate(442.416016 0)"/>
      <use xlink:href="#DejaVuSans-65" transform="translate(481.279297 0)"/>
      <use xlink:href="#DejaVuSans-77" transform="translate(542.802734 0)"/>
      <use xlink:href="#DejaVuSans-61" transform="translate(624.589844 0)"/>
      <use xlink:href="#DejaVuSans-72" transform="translate(685.869141 0)"/>
      <use xlink:href="#DejaVuSans-64" transform="translate(725.232422 0)"/>
     </g>
    </g>
   </g>
   <g id="line2d_15">
    <path d="M 88.321364 323.307139 
L 89.541258 320.656575 
L 90.761152 324.72 
L 91.981047 321.560559 
L 93.200941 322.986697 
L 94.420835 322.552781 
L 95.64073 323.457635 
L 96.860624 323.532339 
L 98.080518 323.381828 
L 99.300413 321.816117 
L 100.520307 94.879179 
L 101.740201 162.137133 
L 102.960096 205.726606 
L 104.17999 237.646596 
L 105.399884 263.652605 
L 107.839673 302.803021 
L 109.059567 314.282932 
L 110.279462 316.524213 
L 111.499356 295.426847 
L 112.71925 197.979496 
L 113.939145 145.934978 
L 115.159039 116.607052 
L 116.378933 103.467125 
L 117.598828 94.505733 
L 118.818722 88.47423 
L 120.038616 84.058241 
L 121.258511 79.210328 
L 122.478405 76.722454 
L 123.698299 71.768496 
L 127.357982 65.365594 
L 128.577877 61.631423 
L 129.797771 58.868247 
L 131.017665 58.037605 
L 132.23756 55.693909 
L 133.457454 54.021893 
L 134.677348 51.356067 
L 137.117137 49.32711 
L 138.337031 48.771947 
L 139.556926 47.60333 
L 140.77682 44.865543 
L 141.996714 43.356282 
L 143.216609 44.582569 
L 144.436503 42.780867 
L 145.656397 42.415906 
L 146.876292 41.414605 
L 148.096186 41.531344 
L 149.31608 39.861576 
L 150.535975 39.907853 
L 151.755869 39.153017 
L 152.975763 38.159303 
L 154.195658 37.71422 
L 155.415552 37.961011 
L 156.635446 38.470675 
L 157.855341 38.486527 
L 159.075235 36.177725 
L 160.295129 36.882352 
L 161.515024 36.77462 
L 162.734918 36.339221 
L 163.954812 34.851277 
L 165.174707 34.457201 
L 166.394601 35.471698 
L 167.614495 36.162123 
L 168.83439 34.377101 
L 170.054284 34.394932 
L 171.274178 34.023393 
L 172.494073 34.713385 
L 173.713967 34.15623 
L 174.933861 34.909853 
L 176.153756 34.623658 
L 178.593544 33.575144 
L 179.813439 34.255181 
L 182.253227 33.63606 
L 183.473122 34.41417 
L 185.91291 33.582616 
L 187.132805 33.842599 
L 188.352699 32.567564 
L 189.572593 32.640103 
L 190.792488 34.36885 
L 192.012382 33.352044 
L 193.232276 33.334224 
L 194.452171 32.857827 
L 195.672065 33.856191 
L 196.891959 32.541443 
L 198.111854 32.663519 
L 199.331748 33.45796 
L 200.551642 32.643669 
L 201.771537 35.069036 
L 202.991431 33.179688 
L 204.211325 32.165004 
L 205.43122 32.623683 
L 206.651114 32.203547 
L 207.871008 31.928759 
L 210.310797 34.70416 
L 211.530691 33.150383 
L 212.750586 33.983521 
L 213.97048 34.474735 
L 215.190374 33.082401 
L 216.410269 33.24887 
L 217.630163 32.842506 
L 218.850057 32.148459 
L 221.289846 34.613316 
L 222.50974 32.039245 
L 223.729635 33.399711 
L 224.949529 33.35894 
L 226.169423 32.491706 
L 227.389318 32.010314 
L 228.609212 32.300839 
L 229.829106 32.883369 
L 232.268895 32.198324 
L 234.708684 32.04711 
L 235.928578 31.335958 
L 237.148472 33.027928 
L 238.368367 33.141783 
L 239.588261 32.961285 
L 240.808155 32.638685 
L 242.02805 32.8509 
L 243.247944 31.238251 
L 244.467838 33.375929 
L 245.687733 32.694045 
L 246.907627 32.55753 
L 248.127521 33.177971 
L 249.347416 31.769247 
L 250.56731 32.125516 
L 251.787204 33.591926 
L 253.007099 32.972965 
L 254.226993 33.172956 
L 255.446887 32.01268 
L 256.666782 33.080403 
L 257.886676 32.586697 
L 259.10657 31.411439 
L 260.326465 30.695264 
L 261.546359 31.635523 
L 262.766253 33.841073 
L 263.986148 32.585206 
L 265.206042 32.306427 
L 266.425936 31.633358 
L 267.645831 32.074812 
L 268.865725 32.023569 
L 270.085619 32.11811 
L 271.305514 32.959059 
L 272.525408 31.096961 
L 273.745302 31.067513 
L 274.965197 32.141225 
L 277.404985 32.088301 
L 278.62488 31.44909 
L 279.844774 32.084044 
L 281.064668 32.110265 
L 282.284563 31.495725 
L 283.504457 33.23622 
L 284.724351 31.190079 
L 285.944246 31.8745 
L 287.16414 31.461856 
L 289.603929 31.782629 
L 290.823823 31.571513 
L 292.043717 32.028523 
L 293.263612 30.079673 
L 294.483506 30.360863 
L 295.7034 31.336305 
L 296.923295 31.881832 
L 298.143189 31.683137 
L 299.363083 32.02483 
L 300.582978 30.34254 
L 301.802872 31.983542 
L 303.022766 30.098089 
L 304.242661 30.741103 
L 305.462555 31.088415 
L 306.682449 32.377992 
L 307.902344 30.433312 
L 309.122238 30.565408 
L 310.342132 31.688444 
L 311.562027 31.435425 
L 312.781921 31.339033 
L 314.001815 31.730687 
L 315.22171 30.994064 
L 316.441604 29.851557 
L 317.661498 31.30692 
L 318.881393 31.703261 
L 320.101287 31.52757 
L 321.321181 31.896603 
L 322.541076 30.058288 
L 323.76097 30.2745 
L 324.980864 30.362163 
L 326.200759 30.937555 
L 327.420653 30.424678 
L 328.640547 31.495805 
L 329.860442 30.131348 
L 331.080336 32.403807 
L 332.30023 30.791421 
L 333.520125 30.077428 
L 334.740019 29.886142 
L 335.959913 31.187246 
L 337.179808 30.667469 
L 338.399702 31.345955 
L 339.619596 30.201614 
L 340.839491 29.6854 
L 342.059385 31.123549 
L 343.279279 30.300996 
L 344.499174 31.008357 
L 345.719068 31.276775 
L 346.938962 31.810533 
L 348.158857 31.794573 
L 349.378751 30.095053 
L 350.598645 30.959431 
L 351.81854 30.807417 
L 353.038434 29.816496 
L 354.258328 30.223688 
L 355.478223 31.05305 
L 357.918011 30.263342 
L 359.137906 31.113242 
L 360.3578 30.282529 
L 364.017483 31.32461 
L 365.237377 29.770477 
L 366.457272 30.194284 
L 367.677166 30.888484 
L 368.89706 31.421305 
L 370.116955 29.252595 
L 371.336849 30.184942 
L 372.556743 30.142216 
L 373.776638 29.779487 
L 374.996532 30.831982 
L 376.216426 30.47799 
L 377.436321 30.826004 
L 378.656215 28.748901 
L 379.876109 28.93468 
L 381.096004 29.472165 
L 382.315898 28.952545 
L 383.535792 28.902198 
L 384.755687 29.780509 
L 385.975581 29.663256 
L 388.41537 28.980492 
L 389.635264 29.810974 
L 390.855158 29.581365 
L 393.294947 30.016441 
L 394.514842 29.253931 
L 395.734736 29.817062 
L 396.95463 28.70387 
L 398.174525 30.342184 
L 399.394419 28.526235 
L 400.614313 29.889181 
L 401.834208 28.275482 
L 403.054102 29.09951 
L 404.273996 28.84757 
L 406.713785 29.199849 
L 407.933679 28.692977 
L 409.153574 29.970527 
L 410.373468 29.09212 
L 411.593362 28.773494 
L 412.813257 27.438452 
L 414.033151 28.499925 
L 415.253045 28.801706 
L 416.47294 28.423561 
L 417.692834 28.302868 
L 420.132623 28.495817 
L 421.352517 29.574994 
L 422.572411 29.054811 
L 423.792306 27.649453 
L 426.232094 28.664208 
L 427.451989 28.566696 
L 428.671883 27.299507 
L 429.891777 29.384029 
L 431.111672 27.715473 
L 432.331566 28.708268 
L 433.55146 28.167784 
L 434.771355 28.443324 
L 435.991249 28.281096 
L 437.211143 27.55713 
L 438.431038 28.819933 
L 439.650932 26.810922 
L 440.870826 26.791015 
L 442.090721 27.793013 
L 443.310615 27.221294 
L 444.530509 28.162196 
L 445.750404 27.689858 
L 446.970298 27.516702 
L 449.410087 26.599461 
L 450.629981 28.660246 
L 451.849875 29.313641 
L 453.06977 28.313129 
L 454.289664 28.09572 
L 455.509558 26.102811 
L 456.729453 27.296277 
L 457.949347 26.520702 
L 459.169241 26.607859 
L 460.389136 27.988577 
L 461.60903 27.318726 
L 462.828924 28.022725 
L 464.048819 26.711819 
L 465.268713 27.209505 
L 466.488607 28.076683 
L 467.708502 26.669026 
L 468.928396 28.262095 
L 471.368185 27.528687 
L 472.588079 27.347831 
L 473.807973 26.633816 
L 475.027868 26.278465 
L 476.247762 27.838228 
L 477.467656 27.217926 
L 478.687551 26.457814 
L 479.907445 27.313711 
L 482.347234 26.702303 
L 483.567128 27.529951 
L 486.006917 26.839487 
L 487.226811 27.007625 
L 488.446705 26.857341 
L 489.6666 25.307943 
L 490.886494 27.474666 
L 492.106388 27.080033 
L 493.326283 26.337117 
L 494.546177 27.375484 
L 495.766071 26.300551 
L 496.985966 27.34782 
L 498.20586 27.594417 
L 499.425754 27.202724 
L 500.645649 26.161819 
L 501.865543 27.365856 
L 503.085437 28.288063 
L 504.305332 27.109314 
L 505.525226 25.748189 
L 506.74512 27.142277 
L 507.965015 27.721865 
L 509.184909 26.076551 
L 510.404803 25.797069 
L 511.624698 27.202423 
L 512.844592 27.274779 
L 514.064486 24.667054 
L 515.284381 25.715546 
L 516.504275 26.430083 
L 517.724169 25.611531 
L 518.944064 26.458211 
L 520.163958 25.19735 
L 521.383852 25.89151 
L 523.823641 26.050437 
L 525.043535 24.759528 
L 526.26343 24.90522 
L 527.483324 26.668147 
L 528.703218 25.452391 
L 531.143007 25.454645 
L 532.362901 27.263078 
L 533.582796 26.456788 
L 534.80269 25.283334 
L 536.022584 26.683464 
L 537.242479 26.752434 
L 538.462373 25.867993 
L 539.682267 25.220714 
L 540.902162 25.148437 
L 542.122056 25.463915 
L 543.34195 25.384627 
L 544.561845 25.808115 
L 545.781739 25.864275 
L 547.001633 24.865449 
L 548.221528 25.80739 
L 549.441422 24.92678 
L 551.881211 25.899765 
L 553.101105 26.809652 
L 554.320999 24.818924 
L 555.540894 25.354616 
L 556.760788 24.543803 
L 557.980682 23.907232 
L 560.420471 24.374844 
L 561.640365 26.025067 
L 562.86026 25.093748 
L 564.080154 25.64952 
L 565.300048 24.440116 
L 566.519943 26.008725 
L 567.739837 24.896568 
L 568.959731 25.101634 
L 570.179626 24.577825 
L 571.39952 25.299004 
L 572.619414 24.485497 
L 573.839309 24.784415 
L 575.059203 24.237214 
L 576.279097 25.084091 
L 577.498992 25.10375 
L 578.718886 26.295996 
L 579.93878 24.550376 
L 581.158675 24.374957 
L 582.378569 25.40336 
L 583.598463 23.381078 
L 584.818358 24.628128 
L 586.038252 23.493155 
L 587.258146 25.055599 
L 588.478041 24.843332 
L 589.697935 24.329222 
L 590.917829 24.100823 
L 592.137724 24.603526 
L 593.357618 24.288391 
L 594.577512 24.186703 
L 595.797407 25.46957 
L 597.017301 23.694392 
L 599.45709 25.078828 
L 600.676984 24.096082 
L 601.896878 24.477813 
L 603.116773 24.387186 
L 604.336667 24.971501 
L 605.556561 24.303844 
L 606.776456 25.080972 
L 607.99635 24.308728 
L 609.216244 24.426382 
L 610.436139 25.411032 
L 611.656033 24.341894 
L 612.875927 23.773523 
L 614.095822 23.336118 
L 615.315716 25.513703 
L 616.53561 24.463772 
L 617.755505 24.996526 
L 618.975399 23.941163 
L 620.195293 24.638634 
L 621.415188 24.497829 
L 622.635082 24.849422 
L 623.854976 23.829862 
L 625.074871 23.899565 
L 626.294765 23.746673 
L 627.514659 23.290778 
L 628.734554 24.518156 
L 629.954448 24.487769 
L 631.174342 24.212233 
L 632.394237 23.447783 
L 633.614131 24.153083 
L 634.834025 23.363013 
L 636.05392 24.106413 
L 637.273814 23.750869 
L 638.493708 23.269302 
L 639.713603 24.341946 
L 640.933497 24.067393 
L 642.153391 23.120599 
L 643.373286 22.32 
L 644.59318 24.414975 
L 645.813074 23.847792 
L 647.032969 24.473122 
L 648.252863 24.078988 
L 649.472757 24.412596 
L 650.692652 23.712514 
L 653.13244 24.162701 
L 654.352335 23.673433 
L 655.572229 25.007166 
L 656.792123 23.025676 
L 659.231912 23.210581 
L 660.451806 24.082039 
L 661.671701 24.369015 
L 664.111489 23.567878 
L 665.331384 23.897544 
L 666.551278 23.68957 
L 667.771172 22.859522 
L 668.991067 23.614051 
L 670.210961 23.153736 
L 671.430855 24.513581 
L 672.65075 23.819417 
L 673.870644 24.373349 
L 675.090538 24.124847 
L 676.310433 22.425522 
L 677.530327 22.855354 
L 678.750221 22.702206 
L 681.19001 24.084153 
L 684.849693 23.13769 
L 686.069587 24.04913 
L 687.289482 23.252483 
L 688.509376 23.708375 
L 689.72927 23.242223 
L 690.949165 22.330319 
L 692.169059 23.794257 
L 693.388953 22.839719 
L 694.608848 22.984375 
L 695.828742 22.354163 
L 697.048636 24.072546 
L 697.048636 24.072546 
" clip-path="url(#p27436eb0bf)" style="fill: none; stroke: #8dd3c7; stroke-width: 1.5; stroke-linecap: square"/>
   </g>
   <g id="line2d_16">
    <path d="M 88.321364 323.271046 
L 89.541258 269.359417 
L 90.761152 239.30376 
L 93.200941 200.059065 
L 94.420835 189.199171 
L 96.860624 171.670721 
L 99.300413 157.89238 
L 100.520307 153.500322 
L 101.740201 148.687196 
L 102.960096 144.684456 
L 104.17999 141.550154 
L 105.399884 139.423213 
L 106.619779 136.105487 
L 107.839673 134.545591 
L 109.059567 131.065687 
L 110.279462 131.920826 
L 111.499356 129.265636 
L 112.71925 127.817893 
L 113.939145 125.984055 
L 116.378933 123.443293 
L 117.598828 121.707699 
L 118.818722 122.002628 
L 120.038616 121.27783 
L 121.258511 120.00395 
L 122.478405 119.033715 
L 123.698299 117.914946 
L 124.918194 118.385787 
L 126.138088 116.12526 
L 127.357982 117.207133 
L 128.577877 115.205101 
L 129.797771 115.260428 
L 131.017665 113.84237 
L 132.23756 113.957253 
L 133.457454 112.455752 
L 134.677348 112.993404 
L 135.897243 111.596424 
L 137.117137 109.69975 
L 138.337031 110.232717 
L 139.556926 110.381923 
L 140.77682 109.557298 
L 141.996714 109.465196 
L 143.216609 109.964074 
L 144.436503 108.168241 
L 145.656397 108.226174 
L 146.876292 107.3303 
L 148.096186 106.235049 
L 149.31608 106.888156 
L 150.535975 106.308594 
L 151.755869 106.225433 
L 152.975763 105.476667 
L 154.195658 105.496817 
L 155.415552 104.590405 
L 156.635446 104.016818 
L 160.295129 102.663585 
L 161.515024 103.365773 
L 162.734918 103.825899 
L 163.954812 102.647635 
L 165.174707 101.772418 
L 166.394601 101.975007 
L 167.614495 101.22179 
L 168.83439 100.198246 
L 170.054284 100.008475 
L 171.274178 101.415929 
L 172.494073 100.152703 
L 174.933861 99.752876 
L 176.153756 99.376353 
L 177.37365 99.966441 
L 178.593544 100.063094 
L 179.813439 98.955227 
L 181.033333 98.490807 
L 182.253227 98.499606 
L 183.473122 96.775745 
L 184.693016 97.227747 
L 185.91291 96.749321 
L 187.132805 95.33364 
L 188.352699 97.236472 
L 189.572593 96.715134 
L 190.792488 97.188145 
L 192.012382 97.02255 
L 193.232276 96.197223 
L 194.452171 95.555975 
L 195.672065 95.430927 
L 196.891959 95.024745 
L 198.111854 95.587538 
L 199.331748 94.168887 
L 201.771537 94.241613 
L 202.991431 93.899827 
L 204.211325 92.920614 
L 205.43122 93.865625 
L 206.651114 93.700853 
L 207.871008 92.778892 
L 209.090903 94.391568 
L 212.750586 91.260195 
L 215.190374 92.627 
L 216.410269 91.553702 
L 217.630163 91.653528 
L 218.850057 91.943289 
L 220.069952 91.225422 
L 221.289846 91.717659 
L 222.50974 91.166155 
L 223.729635 90.739629 
L 224.949529 90.941175 
L 226.169423 89.895935 
L 227.389318 89.689128 
L 228.609212 90.284893 
L 229.829106 89.82144 
L 231.049001 88.939677 
L 232.268895 88.736419 
L 233.488789 87.972012 
L 234.708684 88.745748 
L 235.928578 89.041555 
L 237.148472 89.807557 
L 238.368367 87.383533 
L 239.588261 86.765168 
L 240.808155 87.881446 
L 242.02805 88.028603 
L 243.247944 87.422349 
L 244.467838 87.627093 
L 245.687733 86.156288 
L 246.907627 87.436557 
L 248.127521 86.940068 
L 249.347416 86.56839 
L 250.56731 86.63674 
L 251.787204 86.233475 
L 253.007099 86.575033 
L 254.226993 86.22263 
L 255.446887 86.680966 
L 256.666782 86.383349 
L 257.886676 85.638593 
L 259.10657 85.587363 
L 260.326465 86.196354 
L 261.546359 84.768675 
L 262.766253 84.922482 
L 263.986148 85.58498 
L 265.206042 84.112547 
L 266.425936 84.223667 
L 267.645831 84.459926 
L 268.865725 84.329334 
L 270.085619 83.607444 
L 271.305514 83.375434 
L 272.525408 83.028197 
L 273.745302 83.356094 
L 274.965197 82.363066 
L 276.185091 84.594638 
L 281.064668 81.894962 
L 282.284563 83.747386 
L 283.504457 82.311944 
L 284.724351 81.107522 
L 285.944246 82.575419 
L 287.16414 82.116522 
L 288.384034 80.235746 
L 289.603929 82.604408 
L 290.823823 81.178646 
L 292.043717 80.023834 
L 293.263612 80.587402 
L 294.483506 80.523959 
L 295.7034 80.851398 
L 296.923295 79.726243 
L 298.143189 80.892633 
L 299.363083 80.144789 
L 300.582978 80.710673 
L 301.802872 79.422038 
L 303.022766 80.014333 
L 304.242661 78.766432 
L 305.462555 79.057635 
L 306.682449 79.06454 
L 307.902344 79.906254 
L 309.122238 78.312009 
L 310.342132 78.075519 
L 311.562027 78.946391 
L 312.781921 79.265014 
L 314.001815 77.98588 
L 315.22171 80.145572 
L 316.441604 78.768347 
L 317.661498 77.729805 
L 318.881393 77.603854 
L 321.321181 78.113163 
L 322.541076 77.199295 
L 323.76097 77.79795 
L 324.980864 77.075814 
L 326.200759 78.261322 
L 327.420653 76.138362 
L 328.640547 77.900336 
L 329.860442 76.472573 
L 331.080336 75.343059 
L 332.30023 77.023937 
L 333.520125 75.876397 
L 334.740019 76.968195 
L 335.959913 77.436549 
L 337.179808 75.534932 
L 338.399702 75.628945 
L 339.619596 76.631711 
L 340.839491 74.883448 
L 342.059385 76.557815 
L 343.279279 75.6495 
L 344.499174 75.663507 
L 345.719068 75.002119 
L 346.938962 75.757692 
L 348.158857 75.964188 
L 349.378751 74.793229 
L 350.598645 74.660299 
L 351.81854 74.126204 
L 353.038434 74.848422 
L 354.258328 72.410466 
L 355.478223 75.400294 
L 356.698117 75.059392 
L 357.918011 73.629151 
L 359.137906 74.902684 
L 360.3578 73.403383 
L 361.577694 74.272147 
L 362.797589 73.329513 
L 364.017483 73.20577 
L 365.237377 73.97798 
L 366.457272 73.764842 
L 367.677166 73.17793 
L 368.89706 73.488457 
L 370.116955 72.591796 
L 371.336849 72.701114 
L 372.556743 71.897373 
L 373.776638 73.494545 
L 374.996532 72.327803 
L 376.216426 73.843715 
L 377.436321 74.09004 
L 378.656215 72.588296 
L 379.876109 71.378278 
L 381.096004 70.872327 
L 382.315898 73.318953 
L 383.535792 71.291016 
L 384.755687 71.093561 
L 385.975581 71.672106 
L 387.195475 71.04398 
L 388.41537 70.817357 
L 389.635264 70.944615 
L 390.855158 70.667315 
L 392.075053 70.878094 
L 393.294947 69.359288 
L 394.514842 70.818782 
L 395.734736 70.651181 
L 396.95463 70.278581 
L 398.174525 70.331748 
L 399.394419 72.033476 
L 400.614313 70.48337 
L 401.834208 70.521741 
L 403.054102 69.305107 
L 405.493891 70.354131 
L 406.713785 69.550622 
L 407.933679 70.496925 
L 409.153574 68.755736 
L 410.373468 69.59279 
L 411.593362 69.642577 
L 412.813257 67.48998 
L 414.033151 68.737808 
L 415.253045 67.94748 
L 416.47294 69.069086 
L 417.692834 68.370099 
L 418.912728 67.136419 
L 420.132623 68.201841 
L 421.352517 67.582719 
L 422.572411 68.465895 
L 423.792306 68.092669 
L 425.0122 68.990382 
L 426.232094 68.22782 
L 428.671883 67.73997 
L 429.891777 68.238513 
L 431.111672 68.270782 
L 432.331566 66.827686 
L 433.55146 68.037692 
L 434.771355 67.448907 
L 435.991249 67.169386 
L 437.211143 68.653113 
L 438.431038 66.45668 
L 439.650932 67.244391 
L 440.870826 67.039442 
L 443.310615 67.905344 
L 444.530509 67.017027 
L 445.750404 66.403429 
L 446.970298 67.063647 
L 448.190192 66.497134 
L 449.410087 66.723094 
L 450.629981 65.802159 
L 451.849875 66.386393 
L 453.06977 66.370831 
L 455.509558 66.000193 
L 456.729453 66.364379 
L 457.949347 65.494807 
L 459.169241 66.419882 
L 460.389136 66.928345 
L 461.60903 65.403955 
L 462.828924 66.044871 
L 464.048819 65.929277 
L 465.268713 64.83755 
L 467.708502 65.198565 
L 468.928396 64.126754 
L 470.14829 65.998942 
L 471.368185 64.28871 
L 472.588079 64.928023 
L 473.807973 64.260288 
L 475.027868 64.763054 
L 476.247762 64.373412 
L 477.467656 64.586288 
L 478.687551 64.278132 
L 479.907445 64.543805 
L 481.127339 65.23963 
L 482.347234 63.07391 
L 483.567128 64.417996 
L 484.787022 63.618365 
L 486.006917 63.737022 
L 487.226811 63.415264 
L 488.446705 62.936689 
L 489.6666 63.027664 
L 490.886494 64.793799 
L 492.106388 62.070877 
L 493.326283 63.073502 
L 495.766071 63.518255 
L 496.985966 61.510572 
L 498.20586 62.575403 
L 499.425754 63.079438 
L 500.645649 63.143211 
L 501.865543 61.758015 
L 503.085437 63.042658 
L 504.305332 63.244455 
L 505.525226 61.139352 
L 506.74512 62.125309 
L 507.965015 62.373663 
L 509.184909 63.244625 
L 510.404803 61.517065 
L 511.624698 63.02355 
L 512.844592 61.981152 
L 514.064486 61.98296 
L 515.284381 62.248357 
L 516.504275 61.600197 
L 517.724169 61.12736 
L 518.944064 61.677338 
L 520.163958 62.534527 
L 521.383852 60.871227 
L 522.603747 60.212126 
L 523.823641 61.066043 
L 525.043535 60.614009 
L 526.26343 60.663773 
L 527.483324 61.126703 
L 529.923113 61.028311 
L 531.143007 60.476729 
L 532.362901 60.338903 
L 533.582796 61.123686 
L 534.80269 60.792627 
L 536.022584 59.560777 
L 537.242479 62.582427 
L 538.462373 60.485529 
L 539.682267 60.130789 
L 540.902162 60.058402 
L 542.122056 59.815271 
L 543.34195 59.34666 
L 544.561845 59.065084 
L 545.781739 60.487609 
L 547.001633 60.36112 
L 548.221528 59.903966 
L 549.441422 60.358603 
L 550.661316 59.124402 
L 551.881211 60.495333 
L 553.101105 59.017839 
L 554.320999 60.004235 
L 555.540894 58.745719 
L 556.760788 59.769121 
L 557.980682 59.798499 
L 560.420471 58.67672 
L 561.640365 58.938095 
L 562.86026 59.782881 
L 564.080154 58.398623 
L 565.300048 59.6106 
L 566.519943 59.9607 
L 567.739837 57.010733 
L 568.959731 59.091096 
L 570.179626 57.835621 
L 571.39952 58.78686 
L 572.619414 58.406635 
L 573.839309 57.766282 
L 575.059203 58.684272 
L 576.279097 57.748 
L 577.498992 59.079275 
L 578.718886 58.281133 
L 579.93878 58.276982 
L 581.158675 58.125868 
L 582.378569 56.540092 
L 583.598463 56.045721 
L 584.818358 57.816015 
L 586.038252 56.366149 
L 587.258146 56.421185 
L 588.478041 57.230958 
L 589.697935 56.568371 
L 590.917829 58.026781 
L 592.137724 57.889339 
L 593.357618 57.010657 
L 594.577512 56.400977 
L 595.797407 56.875751 
L 597.017301 56.521653 
L 598.237195 57.108205 
L 599.45709 56.602855 
L 600.676984 57.886984 
L 601.896878 56.657954 
L 603.116773 56.135064 
L 604.336667 57.390317 
L 606.776456 55.531861 
L 607.99635 55.237377 
L 609.216244 54.360596 
L 610.436139 56.363735 
L 611.656033 55.463431 
L 612.875927 57.393865 
L 614.095822 55.50776 
L 615.315716 56.638399 
L 616.53561 55.147374 
L 617.755505 57.165343 
L 618.975399 56.604476 
L 620.195293 54.811915 
L 621.415188 55.499618 
L 622.635082 55.245549 
L 623.854976 55.923587 
L 625.074871 54.685017 
L 626.294765 56.157167 
L 627.514659 54.704457 
L 628.734554 56.633853 
L 629.954448 54.104039 
L 631.174342 55.753007 
L 632.394237 55.178365 
L 633.614131 56.956392 
L 634.834025 55.001109 
L 636.05392 55.745679 
L 637.273814 54.465454 
L 638.493708 55.942065 
L 639.713603 55.852219 
L 640.933497 54.575785 
L 642.153391 54.552771 
L 643.373286 54.109688 
L 644.59318 55.214267 
L 645.813074 54.99854 
L 647.032969 53.49944 
L 648.252863 55.781522 
L 649.472757 54.055496 
L 650.692652 55.369756 
L 651.912546 55.714622 
L 653.13244 53.636157 
L 654.352335 55.287749 
L 655.572229 54.701559 
L 656.792123 53.838796 
L 658.012018 54.556389 
L 660.451806 54.68817 
L 661.671701 54.12778 
L 662.891595 54.249183 
L 664.111489 52.590062 
L 665.331384 52.395173 
L 666.551278 53.545078 
L 667.771172 54.043084 
L 668.991067 53.444126 
L 670.210961 53.559687 
L 671.430855 53.035574 
L 672.65075 54.175283 
L 673.870644 54.211297 
L 675.090538 55.019745 
L 676.310433 54.502094 
L 677.530327 51.722023 
L 678.750221 54.101597 
L 681.19001 52.644408 
L 682.409904 53.135701 
L 683.629799 51.288069 
L 684.849693 53.489236 
L 686.069587 52.462037 
L 687.289482 51.657241 
L 688.509376 53.439815 
L 689.72927 52.124131 
L 690.949165 52.381169 
L 692.169059 54.161039 
L 693.388953 51.300954 
L 694.608848 52.96006 
L 695.828742 51.865067 
L 697.048636 53.642346 
L 697.048636 53.642346 
" clip-path="url(#p27436eb0bf)" style="fill: none; stroke: #feffb3; stroke-width: 1.5; stroke-linecap: square"/>
   </g>
   <g id="patch_3">
    <path d="M 57.885 339.84 
L 57.885 7.2 
" style="fill: none; stroke: #ffffff; stroke-width: 0.8; stroke-linejoin: miter; stroke-linecap: square"/>
   </g>
   <g id="patch_4">
    <path d="M 727.485 339.84 
L 727.485 7.2 
" style="fill: none; stroke: #ffffff; stroke-width: 0.8; stroke-linejoin: miter; stroke-linecap: square"/>
   </g>
   <g id="patch_5">
    <path d="M 57.885 339.84 
L 727.485 339.84 
" style="fill: none; stroke: #ffffff; stroke-width: 0.8; stroke-linejoin: miter; stroke-linecap: square"/>
   </g>
   <g id="patch_6">
    <path d="M 57.885 7.2 
L 727.485 7.2 
" style="fill: none; stroke: #ffffff; stroke-width: 0.8; stroke-linejoin: miter; stroke-linecap: square"/>
   </g>
   <g id="legend_1">
    <g id="patch_7">
     <path d="M 523.165 331.84 
L 716.285 331.84 
Q 719.485 331.84 719.485 328.64 
L 719.485 283.235 
Q 719.485 280.035 716.285 280.035 
L 523.165 280.035 
Q 519.965 280.035 519.965 283.235 
L 519.965 328.64 
Q 519.965 331.84 523.165 331.84 
z
" style="opacity: 0.8; stroke: #cccccc; stroke-linejoin: miter"/>
    </g>
    <g id="line2d_17">
     <path d="M 526.365 292.9925 
L 542.365 292.9925 
L 558.365 292.9925 
" style="fill: none; stroke: #8dd3c7; stroke-width: 1.5; stroke-linecap: square"/>
    </g>
    <g id="text_17">
     <!-- UCB ($c=2$) -->
     <g style="fill: #ffffff" transform="translate(571.165 298.5925) scale(0.16 -0.16)">
      <defs>
       <path id="DejaVuSans-55" d="M 556 4666 
L 1191 4666 
L 1191 1831 
Q 1191 1081 1462 751 
Q 1734 422 2344 422 
Q 2950 422 3222 751 
Q 3494 1081 3494 1831 
L 3494 4666 
L 4128 4666 
L 4128 1753 
Q 4128 841 3676 375 
Q 3225 -91 2344 -91 
Q 1459 -91 1007 375 
Q 556 841 556 1753 
L 556 4666 
z
" transform="scale(0.015625)"/>
       <path id="DejaVuSans-43" d="M 4122 4306 
L 4122 3641 
Q 3803 3938 3442 4084 
Q 3081 4231 2675 4231 
Q 1875 4231 1450 3742 
Q 1025 3253 1025 2328 
Q 1025 1406 1450 917 
Q 1875 428 2675 428 
Q 3081 428 3442 575 
Q 3803 722 4122 1019 
L 4122 359 
Q 3791 134 3420 21 
Q 3050 -91 2638 -91 
Q 1578 -91 968 557 
Q 359 1206 359 2328 
Q 359 3453 968 4101 
Q 1578 4750 2638 4750 
Q 3056 4750 3426 4639 
Q 3797 4528 4122 4306 
z
" transform="scale(0.015625)"/>
       <path id="DejaVuSans-42" d="M 1259 2228 
L 1259 519 
L 2272 519 
Q 2781 519 3026 730 
Q 3272 941 3272 1375 
Q 3272 1813 3026 2020 
Q 2781 2228 2272 2228 
L 1259 2228 
z
M 1259 4147 
L 1259 2741 
L 2194 2741 
Q 2656 2741 2882 2914 
Q 3109 3088 3109 3444 
Q 3109 3797 2882 3972 
Q 2656 4147 2194 4147 
L 1259 4147 
z
M 628 4666 
L 2241 4666 
Q 2963 4666 3353 4366 
Q 3744 4066 3744 3513 
Q 3744 3084 3544 2831 
Q 3344 2578 2956 2516 
Q 3422 2416 3680 2098 
Q 3938 1781 3938 1306 
Q 3938 681 3513 340 
Q 3088 0 2303 0 
L 628 0 
L 628 4666 
z
" transform="scale(0.015625)"/>
       <path id="DejaVuSans-28" d="M 1984 4856 
Q 1566 4138 1362 3434 
Q 1159 2731 1159 2009 
Q 1159 1288 1364 580 
Q 1569 -128 1984 -844 
L 1484 -844 
Q 1016 -109 783 600 
Q 550 1309 550 2009 
Q 550 2706 781 3412 
Q 1013 4119 1484 4856 
L 1984 4856 
z
" transform="scale(0.015625)"/>
       <path id="DejaVuSans-Oblique-63" d="M 3431 3366 
L 3316 2797 
Q 3109 2947 2876 3022 
Q 2644 3097 2394 3097 
Q 2119 3097 1870 3000 
Q 1622 2903 1453 2725 
Q 1184 2453 1037 2087 
Q 891 1722 891 1331 
Q 891 859 1127 628 
Q 1363 397 1844 397 
Q 2081 397 2348 469 
Q 2616 541 2906 684 
L 2797 116 
Q 2547 13 2283 -39 
Q 2019 -91 1741 -91 
Q 1044 -91 669 257 
Q 294 606 294 1253 
Q 294 1797 489 2255 
Q 684 2713 1069 3078 
Q 1331 3328 1684 3456 
Q 2038 3584 2456 3584 
Q 2700 3584 2940 3529 
Q 3181 3475 3431 3366 
z
" transform="scale(0.015625)"/>
       <path id="DejaVuSans-3d" d="M 678 2906 
L 4684 2906 
L 4684 2381 
L 678 2381 
L 678 2906 
z
M 678 1631 
L 4684 1631 
L 4684 1100 
L 678 1100 
L 678 1631 
z
" transform="scale(0.015625)"/>
       <path id="DejaVuSans-29" d="M 513 4856 
L 1013 4856 
Q 1481 4119 1714 3412 
Q 1947 2706 1947 2009 
Q 1947 1309 1714 600 
Q 1481 -109 1013 -844 
L 513 -844 
Q 928 -128 1133 580 
Q 1338 1288 1338 2009 
Q 1338 2731 1133 3434 
Q 928 4138 513 4856 
z
" transform="scale(0.015625)"/>
      </defs>
      <use xlink:href="#DejaVuSans-55" transform="translate(0 0.125)"/>
      <use xlink:href="#DejaVuSans-43" transform="translate(73.193359 0.125)"/>
      <use xlink:href="#DejaVuSans-42" transform="translate(143.017578 0.125)"/>
      <use xlink:href="#DejaVuSans-20" transform="translate(211.621094 0.125)"/>
      <use xlink:href="#DejaVuSans-28" transform="translate(243.408203 0.125)"/>
      <use xlink:href="#DejaVuSans-Oblique-63" transform="translate(282.421875 0.125)"/>
      <use xlink:href="#DejaVuSans-3d" transform="translate(356.884766 0.125)"/>
      <use xlink:href="#DejaVuSans-32" transform="translate(460.15625 0.125)"/>
      <use xlink:href="#DejaVuSans-29" transform="translate(523.779297 0.125)"/>
     </g>
    </g>
    <g id="line2d_18">
     <path d="M 526.365 316.48 
L 542.365 316.48 
L 558.365 316.48 
" style="fill: none; stroke: #feffb3; stroke-width: 1.5; stroke-linecap: square"/>
    </g>
    <g id="text_18">
     <!-- $\epsilon$-greedy ($\epsilon=0.1$) -->
     <g style="fill: #ffffff" transform="translate(571.165 322.08) scale(0.16 -0.16)">
      <defs>
       <path id="DejaVuSans-Oblique-3b5" d="M 1263 1888 
Q 925 1963 778 2166 
Q 669 2309 669 2503 
Q 669 3034 1175 3344 
Q 1575 3588 2188 3588 
Q 2425 3588 2684 3550 
Q 2944 3513 3234 3438 
L 3134 2916 
Q 2847 3006 2606 3047 
Q 2359 3088 2138 3088 
Q 1766 3088 1522 2944 
Q 1228 2772 1228 2522 
Q 1228 2356 1381 2241 
Q 1563 2103 1925 2103 
L 2409 2103 
L 2319 1628 
L 1856 1628 
Q 1425 1628 1172 1469 
Q 828 1253 828 916 
Q 828 703 1013 563 
Q 1244 388 1716 388 
Q 2006 388 2284 444 
Q 2563 503 2806 619 
L 2700 84 
Q 2403 -3 2131 -47 
Q 1859 -91 1609 -91 
Q 866 -91 516 194 
Q 250 413 250 781 
Q 250 1278 600 1584 
Q 859 1813 1263 1888 
z
" transform="scale(0.015625)"/>
       <path id="DejaVuSans-2d" d="M 313 2009 
L 1997 2009 
L 1997 1497 
L 313 1497 
L 313 2009 
z
" transform="scale(0.015625)"/>
       <path id="DejaVuSans-79" d="M 2059 -325 
Q 1816 -950 1584 -1140 
Q 1353 -1331 966 -1331 
L 506 -1331 
L 506 -850 
L 844 -850 
Q 1081 -850 1212 -737 
Q 1344 -625 1503 -206 
L 1606 56 
L 191 3500 
L 800 3500 
L 1894 763 
L 2988 3500 
L 3597 3500 
L 2059 -325 
z
" transform="scale(0.015625)"/>
      </defs>
      <use xlink:href="#DejaVuSans-Oblique-3b5" transform="translate(0 0.015625)"/>
      <use xlink:href="#DejaVuSans-2d" transform="translate(54.052734 0.015625)"/>
      <use xlink:href="#DejaVuSans-67" transform="translate(90.136719 0.015625)"/>
      <use xlink:href="#DejaVuSans-72" transform="translate(153.613281 0.015625)"/>
      <use xlink:href="#DejaVuSans-65" transform="translate(194.726562 0.015625)"/>
      <use xlink:href="#DejaVuSans-65" transform="translate(256.25 0.015625)"/>
      <use xlink:href="#DejaVuSans-64" transform="translate(317.773438 0.015625)"/>
      <use xlink:href="#DejaVuSans-79" transform="translate(381.25 0.015625)"/>
      <use xlink:href="#DejaVuSans-20" transform="translate(440.429688 0.015625)"/>
      <use xlink:href="#DejaVuSans-28" transform="translate(472.216797 0.015625)"/>
      <use xlink:href="#DejaVuSans-Oblique-3b5" transform="translate(511.230469 0.015625)"/>
      <use xlink:href="#DejaVuSans-3d" transform="translate(584.765625 0.015625)"/>
      <use xlink:href="#DejaVuSans-30" transform="translate(688.037109 0.015625)"/>
      <use xlink:href="#DejaVuSans-2e" transform="translate(751.660156 0.015625)"/>
      <use xlink:href="#DejaVuSans-31" transform="translate(783.447266 0.015625)"/>
      <use xlink:href="#DejaVuSans-29" transform="translate(847.070312 0.015625)"/>
     </g>
    </g>
   </g>
  </g>
 </g>
 <defs>
  <clipPath id="p27436eb0bf">
   <rect x="57.885" y="7.2" width="669.6" height="332.64"/>
  </clipPath>
 </defs>
</svg>
