<?xml version="1.0" encoding="utf-8" standalone="no"?>
<!DOCTYPE svg PUBLIC "-//W3C//DTD SVG 1.1//EN"
  "http://www.w3.org/Graphics/SVG/1.1/DTD/svg11.dtd">
<svg xmlns:xlink="http://www.w3.org/1999/xlink" width="730.235625pt" height="389.01pt" viewBox="0 0 730.235625 389.01" xmlns="http://www.w3.org/2000/svg" version="1.1">
 <metadata>
  <rdf:RDF xmlns:dc="http://purl.org/dc/elements/1.1/" xmlns:cc="http://creativecommons.org/ns#" xmlns:rdf="http://www.w3.org/1999/02/22-rdf-syntax-ns#">
   <cc:Work>
    <dc:type rdf:resource="http://purl.org/dc/dcmitype/StillImage"/>
    <dc:date>2026-03-08T00:59:29.790288</dc:date>
    <dc:format>image/svg+xml</dc:format>
    <dc:creator>
     <cc:Agent>
      <dc:title>Matplotlib v3.10.3, https://matplotlib.org/</dc:title>
     </cc:Agent>
    </dc:creator>
   </cc:Work>
  </rdf:RDF>
 </metadata>
 <defs>
  <style type="text/css">*{stroke-linejoin: round; stroke-linecap: butt}</style>
 </defs>
 <g id="figure_1">
  <g id="patch_1">
   <path d="M 0 389.01 
L 730.235625 389.01 
L 730.235625 0 
L 0 0 
z
" style="fill: #ffffff"/>
  </g>
  <g id="axes_1">
   <g id="patch_2">
    <path d="M 53.435625 339.84 
L 723.035625 339.84 
L 723.035625 7.2 
L 53.435625 7.2 
z
" style="fill: #ffffff"/>
   </g>
   <g id="matplotlib.axis_1">
    <g id="xtick_1">
     <g id="line2d_1">
      <defs>
       <path id="m9f1d01df24" d="M 0 0 
L 0 3.5 
" style="stroke: #000000; stroke-width: 0.8"/>
      </defs>
      <g>
       <use xlink:href="#m9f1d01df24" x="83.871989" y="339.84" style="stroke: #000000; stroke-width: 0.8"/>
      </g>
     </g>
     <g id="text_1">
      <!-- 0 -->
      <g transform="translate(79.418239 357.477813) scale(0.14 -0.14)">
       <defs>
        <path id="DejaVuSans-30" d="M 2034 4250 
Q 1547 4250 1301 3770 
Q 1056 3291 1056 2328 
Q 1056 1369 1301 889 
Q 1547 409 2034 409 
Q 2525 409 2770 889 
Q 3016 1369 3016 2328 
Q 3016 3291 2770 3770 
Q 2525 4250 2034 4250 
z
M 2034 4750 
Q 2819 4750 3233 4129 
Q 3647 3509 3647 2328 
Q 3647 1150 3233 529 
Q 2819 -91 2034 -91 
Q 1250 -91 836 529 
Q 422 1150 422 2328 
Q 422 3509 836 4129 
Q 1250 4750 2034 4750 
z
" transform="scale(0.015625)"/>
       </defs>
       <use xlink:href="#DejaVuSans-30"/>
      </g>
     </g>
    </g>
    <g id="xtick_2">
     <g id="line2d_2">
      <g>
       <use xlink:href="#m9f1d01df24" x="205.861422" y="339.84" style="stroke: #000000; stroke-width: 0.8"/>
      </g>
     </g>
     <g id="text_2">
      <!-- 100 -->
      <g transform="translate(192.500172 357.477813) scale(0.14 -0.14)">
       <defs>
        <path id="DejaVuSans-31" d="M 794 531 
L 1825 531 
L 1825 4091 
L 703 3866 
L 703 4441 
L 1819 4666 
L 2450 4666 
L 2450 531 
L 3481 531 
L 3481 0 
L 794 0 
L 794 531 
z
" transform="scale(0.015625)"/>
       </defs>
       <use xlink:href="#DejaVuSans-31"/>
       <use xlink:href="#DejaVuSans-30" transform="translate(63.623047 0)"/>
       <use xlink:href="#DejaVuSans-30" transform="translate(127.246094 0)"/>
      </g>
     </g>
    </g>
    <g id="xtick_3">
     <g id="line2d_3">
      <g>
       <use xlink:href="#m9f1d01df24" x="327.850855" y="339.84" style="stroke: #000000; stroke-width: 0.8"/>
      </g>
     </g>
     <g id="text_3">
      <!-- 200 -->
      <g transform="translate(314.489605 357.477813) scale(0.14 -0.14)">
       <defs>
        <path id="DejaVuSans-32" d="M 1228 531 
L 3431 531 
L 3431 0 
L 469 0 
L 469 531 
Q 828 903 1448 1529 
Q 2069 2156 2228 2338 
Q 2531 2678 2651 2914 
Q 2772 3150 2772 3378 
Q 2772 3750 2511 3984 
Q 2250 4219 1831 4219 
Q 1534 4219 1204 4116 
Q 875 4013 500 3803 
L 500 4441 
Q 881 4594 1212 4672 
Q 1544 4750 1819 4750 
Q 2544 4750 2975 4387 
Q 3406 4025 3406 3419 
Q 3406 3131 3298 2873 
Q 3191 2616 2906 2266 
Q 2828 2175 2409 1742 
Q 1991 1309 1228 531 
z
" transform="scale(0.015625)"/>
       </defs>
       <use xlink:href="#DejaVuSans-32"/>
       <use xlink:href="#DejaVuSans-30" transform="translate(63.623047 0)"/>
       <use xlink:href="#DejaVuSans-30" transform="translate(127.246094 0)"/>
      </g>
     </g>
    </g>
    <g id="xtick_4">
     <g id="line2d_4">
      <g>
       <use xlink:href="#m9f1d01df24" x="449.840289" y="339.84" style="stroke: #000000; stroke-width: 0.8"/>
      </g>
     </g>
     <g id="text_4">
      <!-- 300 -->
      <g transform="translate(436.479039 357.477813) scale(0.14 -0.14)">
       <defs>
        <path id="DejaVuSans-33" d="M 2597 2516 
Q 3050 2419 3304 2112 
Q 3559 1806 3559 1356 
Q 3559 666 3084 287 
Q 2609 -91 1734 -91 
Q 1441 -91 1130 -33 
Q 819 25 488 141 
L 488 750 
Q 750 597 1062 519 
Q 1375 441 1716 441 
Q 2309 441 2620 675 
Q 2931 909 2931 1356 
Q 2931 1769 2642 2001 
Q 2353 2234 1838 2234 
L 1294 2234 
L 1294 2753 
L 1863 2753 
Q 2328 2753 2575 2939 
Q 2822 3125 2822 3475 
Q 2822 3834 2567 4026 
Q 2313 4219 1838 4219 
Q 1578 4219 1281 4162 
Q 984 4106 628 3988 
L 628 4550 
Q 988 4650 1302 4700 
Q 1616 4750 1894 4750 
Q 2613 4750 3031 4423 
Q 3450 4097 3450 3541 
Q 3450 3153 3228 2886 
Q 3006 2619 2597 2516 
z
" transform="scale(0.015625)"/>
       </defs>
       <use xlink:href="#DejaVuSans-33"/>
       <use xlink:href="#DejaVuSans-30" transform="translate(63.623047 0)"/>
       <use xlink:href="#DejaVuSans-30" transform="translate(127.246094 0)"/>
      </g>
     </g>
    </g>
    <g id="xtick_5">
     <g id="line2d_5">
      <g>
       <use xlink:href="#m9f1d01df24" x="571.829722" y="339.84" style="stroke: #000000; stroke-width: 0.8"/>
      </g>
     </g>
     <g id="text_5">
      <!-- 400 -->
      <g transform="translate(558.468472 357.477813) scale(0.14 -0.14)">
       <defs>
        <path id="DejaVuSans-34" d="M 2419 4116 
L 825 1625 
L 2419 1625 
L 2419 4116 
z
M 2253 4666 
L 3047 4666 
L 3047 1625 
L 3713 1625 
L 3713 1100 
L 3047 1100 
L 3047 0 
L 2419 0 
L 2419 1100 
L 313 1100 
L 313 1709 
L 2253 4666 
z
" transform="scale(0.015625)"/>
       </defs>
       <use xlink:href="#DejaVuSans-34"/>
       <use xlink:href="#DejaVuSans-30" transform="translate(63.623047 0)"/>
       <use xlink:href="#DejaVuSans-30" transform="translate(127.246094 0)"/>
      </g>
     </g>
    </g>
    <g id="xtick_6">
     <g id="line2d_6">
      <g>
       <use xlink:href="#m9f1d01df24" x="693.819156" y="339.84" style="stroke: #000000; stroke-width: 0.8"/>
      </g>
     </g>
     <g id="text_6">
      <!-- 500 -->
      <g transform="translate(680.457906 357.477813) scale(0.14 -0.14)">
       <defs>
        <path id="DejaVuSans-35" d="M 691 4666 
L 3169 4666 
L 3169 4134 
L 1269 4134 
L 1269 2991 
Q 1406 3038 1543 3061 
Q 1681 3084 1819 3084 
Q 2600 3084 3056 2656 
Q 3513 2228 3513 1497 
Q 3513 744 3044 326 
Q 2575 -91 1722 -91 
Q 1428 -91 1123 -41 
Q 819 9 494 109 
L 494 744 
Q 775 591 1075 516 
Q 1375 441 1709 441 
Q 2250 441 2565 725 
Q 2881 1009 2881 1497 
Q 2881 1984 2565 2268 
Q 2250 2553 1709 2553 
Q 1456 2553 1204 2497 
Q 953 2441 691 2322 
L 691 4666 
z
" transform="scale(0.015625)"/>
       </defs>
       <use xlink:href="#DejaVuSans-35"/>
       <use xlink:href="#DejaVuSans-30" transform="translate(63.623047 0)"/>
       <use xlink:href="#DejaVuSans-30" transform="translate(127.246094 0)"/>
      </g>
     </g>
    </g>
    <g id="text_7">
     <!-- Steps -->
     <g transform="translate(363.053906 378.066563) scale(0.18 -0.18)">
      <defs>
       <path id="DejaVuSans-53" d="M 3425 4513 
L 3425 3897 
Q 3066 4069 2747 4153 
Q 2428 4238 2131 4238 
Q 1616 4238 1336 4038 
Q 1056 3838 1056 3469 
Q 1056 3159 1242 3001 
Q 1428 2844 1947 2747 
L 2328 2669 
Q 3034 2534 3370 2195 
Q 3706 1856 3706 1288 
Q 3706 609 3251 259 
Q 2797 -91 1919 -91 
Q 1588 -91 1214 -16 
Q 841 59 441 206 
L 441 856 
Q 825 641 1194 531 
Q 1563 422 1919 422 
Q 2459 422 2753 634 
Q 3047 847 3047 1241 
Q 3047 1584 2836 1778 
Q 2625 1972 2144 2069 
L 1759 2144 
Q 1053 2284 737 2584 
Q 422 2884 422 3419 
Q 422 4038 858 4394 
Q 1294 4750 2059 4750 
Q 2388 4750 2728 4690 
Q 3069 4631 3425 4513 
z
" transform="scale(0.015625)"/>
       <path id="DejaVuSans-74" d="M 1172 4494 
L 1172 3500 
L 2356 3500 
L 2356 3053 
L 1172 3053 
L 1172 1153 
Q 1172 725 1289 603 
Q 1406 481 1766 481 
L 2356 481 
L 2356 0 
L 1766 0 
Q 1100 0 847 248 
Q 594 497 594 1153 
L 594 3053 
L 172 3053 
L 172 3500 
L 594 3500 
L 594 4494 
L 1172 4494 
z
" transform="scale(0.015625)"/>
       <path id="DejaVuSans-65" d="M 3597 1894 
L 3597 1613 
L 953 1613 
Q 991 1019 1311 708 
Q 1631 397 2203 397 
Q 2534 397 2845 478 
Q 3156 559 3463 722 
L 3463 178 
Q 3153 47 2828 -22 
Q 2503 -91 2169 -91 
Q 1331 -91 842 396 
Q 353 884 353 1716 
Q 353 2575 817 3079 
Q 1281 3584 2069 3584 
Q 2775 3584 3186 3129 
Q 3597 2675 3597 1894 
z
M 3022 2063 
Q 3016 2534 2758 2815 
Q 2500 3097 2075 3097 
Q 1594 3097 1305 2825 
Q 1016 2553 972 2059 
L 3022 2063 
z
" transform="scale(0.015625)"/>
       <path id="DejaVuSans-70" d="M 1159 525 
L 1159 -1331 
L 581 -1331 
L 581 3500 
L 1159 3500 
L 1159 2969 
Q 1341 3281 1617 3432 
Q 1894 3584 2278 3584 
Q 2916 3584 3314 3078 
Q 3713 2572 3713 1747 
Q 3713 922 3314 415 
Q 2916 -91 2278 -91 
Q 1894 -91 1617 61 
Q 1341 213 1159 525 
z
M 3116 1747 
Q 3116 2381 2855 2742 
Q 2594 3103 2138 3103 
Q 1681 3103 1420 2742 
Q 1159 2381 1159 1747 
Q 1159 1113 1420 752 
Q 1681 391 2138 391 
Q 2594 391 2855 752 
Q 3116 1113 3116 1747 
z
" transform="scale(0.015625)"/>
       <path id="DejaVuSans-73" d="M 2834 3397 
L 2834 2853 
Q 2591 2978 2328 3040 
Q 2066 3103 1784 3103 
Q 1356 3103 1142 2972 
Q 928 2841 928 2578 
Q 928 2378 1081 2264 
Q 1234 2150 1697 2047 
L 1894 2003 
Q 2506 1872 2764 1633 
Q 3022 1394 3022 966 
Q 3022 478 2636 193 
Q 2250 -91 1575 -91 
Q 1294 -91 989 -36 
Q 684 19 347 128 
L 347 722 
Q 666 556 975 473 
Q 1284 391 1588 391 
Q 1994 391 2212 530 
Q 2431 669 2431 922 
Q 2431 1156 2273 1281 
Q 2116 1406 1581 1522 
L 1381 1569 
Q 847 1681 609 1914 
Q 372 2147 372 2553 
Q 372 3047 722 3315 
Q 1072 3584 1716 3584 
Q 2034 3584 2315 3537 
Q 2597 3491 2834 3397 
z
" transform="scale(0.015625)"/>
      </defs>
      <use xlink:href="#DejaVuSans-53"/>
      <use xlink:href="#DejaVuSans-74" transform="translate(63.476562 0)"/>
      <use xlink:href="#DejaVuSans-65" transform="translate(102.685547 0)"/>
      <use xlink:href="#DejaVuSans-70" transform="translate(164.208984 0)"/>
      <use xlink:href="#DejaVuSans-73" transform="translate(227.685547 0)"/>
     </g>
    </g>
   </g>
   <g id="matplotlib.axis_2">
    <g id="ytick_1">
     <g id="line2d_7">
      <defs>
       <path id="mbee61f0922" d="M 0 0 
L -3.5 0 
" style="stroke: #000000; stroke-width: 0.8"/>
      </defs>
      <g>
       <use xlink:href="#mbee61f0922" x="53.435625" y="324.08547" style="stroke: #000000; stroke-width: 0.8"/>
      </g>
     </g>
     <g id="text_8">
      <!-- 10 -->
      <g transform="translate(28.620625 329.404377) scale(0.14 -0.14)">
       <use xlink:href="#DejaVuSans-31"/>
       <use xlink:href="#DejaVuSans-30" transform="translate(63.623047 0)"/>
      </g>
     </g>
    </g>
    <g id="ytick_2">
     <g id="line2d_8">
      <g>
       <use xlink:href="#mbee61f0922" x="53.435625" y="277.428884" style="stroke: #000000; stroke-width: 0.8"/>
      </g>
     </g>
     <g id="text_9">
      <!-- 20 -->
      <g transform="translate(28.620625 282.74779) scale(0.14 -0.14)">
       <use xlink:href="#DejaVuSans-32"/>
       <use xlink:href="#DejaVuSans-30" transform="translate(63.623047 0)"/>
      </g>
     </g>
    </g>
    <g id="ytick_3">
     <g id="line2d_9">
      <g>
       <use xlink:href="#mbee61f0922" x="53.435625" y="230.772297" style="stroke: #000000; stroke-width: 0.8"/>
      </g>
     </g>
     <g id="text_10">
      <!-- 30 -->
      <g transform="translate(28.620625 236.091204) scale(0.14 -0.14)">
       <use xlink:href="#DejaVuSans-33"/>
       <use xlink:href="#DejaVuSans-30" transform="translate(63.623047 0)"/>
      </g>
     </g>
    </g>
    <g id="ytick_4">
     <g id="line2d_10">
      <g>
       <use xlink:href="#mbee61f0922" x="53.435625" y="184.115711" style="stroke: #000000; stroke-width: 0.8"/>
      </g>
     </g>
     <g id="text_11">
      <!-- 40 -->
      <g transform="translate(28.620625 189.434617) scale(0.14 -0.14)">
       <use xlink:href="#DejaVuSans-34"/>
       <use xlink:href="#DejaVuSans-30" transform="translate(63.623047 0)"/>
      </g>
     </g>
    </g>
    <g id="ytick_5">
     <g id="line2d_11">
      <g>
       <use xlink:href="#mbee61f0922" x="53.435625" y="137.459124" style="stroke: #000000; stroke-width: 0.8"/>
      </g>
     </g>
     <g id="text_12">
      <!-- 50 -->
      <g transform="translate(28.620625 142.778031) scale(0.14 -0.14)">
       <use xlink:href="#DejaVuSans-35"/>
       <use xlink:href="#DejaVuSans-30" transform="translate(63.623047 0)"/>
      </g>
     </g>
    </g>
    <g id="ytick_6">
     <g id="line2d_12">
      <g>
       <use xlink:href="#mbee61f0922" x="53.435625" y="90.802538" style="stroke: #000000; stroke-width: 0.8"/>
      </g>
     </g>
     <g id="text_13">
      <!-- 60 -->
      <g transform="translate(28.620625 96.121444) scale(0.14 -0.14)">
       <defs>
        <path id="DejaVuSans-36" d="M 2113 2584 
Q 1688 2584 1439 2293 
Q 1191 2003 1191 1497 
Q 1191 994 1439 701 
Q 1688 409 2113 409 
Q 2538 409 2786 701 
Q 3034 994 3034 1497 
Q 3034 2003 2786 2293 
Q 2538 2584 2113 2584 
z
M 3366 4563 
L 3366 3988 
Q 3128 4100 2886 4159 
Q 2644 4219 2406 4219 
Q 1781 4219 1451 3797 
Q 1122 3375 1075 2522 
Q 1259 2794 1537 2939 
Q 1816 3084 2150 3084 
Q 2853 3084 3261 2657 
Q 3669 2231 3669 1497 
Q 3669 778 3244 343 
Q 2819 -91 2113 -91 
Q 1303 -91 875 529 
Q 447 1150 447 2328 
Q 447 3434 972 4092 
Q 1497 4750 2381 4750 
Q 2619 4750 2861 4703 
Q 3103 4656 3366 4563 
z
" transform="scale(0.015625)"/>
       </defs>
       <use xlink:href="#DejaVuSans-36"/>
       <use xlink:href="#DejaVuSans-30" transform="translate(63.623047 0)"/>
      </g>
     </g>
    </g>
    <g id="ytick_7">
     <g id="line2d_13">
      <g>
       <use xlink:href="#mbee61f0922" x="53.435625" y="44.145951" style="stroke: #000000; stroke-width: 0.8"/>
      </g>
     </g>
     <g id="text_14">
      <!-- 70 -->
      <g transform="translate(28.620625 49.464857) scale(0.14 -0.14)">
       <defs>
        <path id="DejaVuSans-37" d="M 525 4666 
L 3525 4666 
L 3525 4397 
L 1831 0 
L 1172 0 
L 2766 4134 
L 525 4134 
L 525 4666 
z
" transform="scale(0.015625)"/>
       </defs>
       <use xlink:href="#DejaVuSans-37"/>
       <use xlink:href="#DejaVuSans-30" transform="translate(63.623047 0)"/>
      </g>
     </g>
    </g>
    <g id="text_15">
     <!-- % Optimal Action -->
     <g transform="translate(20.877187 251.587969) rotate(-90) scale(0.18 -0.18)">
      <defs>
       <path id="DejaVuSans-25" d="M 4653 2053 
Q 4381 2053 4226 1822 
Q 4072 1591 4072 1178 
Q 4072 772 4226 539 
Q 4381 306 4653 306 
Q 4919 306 5073 539 
Q 5228 772 5228 1178 
Q 5228 1588 5073 1820 
Q 4919 2053 4653 2053 
z
M 4653 2450 
Q 5147 2450 5437 2106 
Q 5728 1763 5728 1178 
Q 5728 594 5436 251 
Q 5144 -91 4653 -91 
Q 4153 -91 3862 251 
Q 3572 594 3572 1178 
Q 3572 1766 3864 2108 
Q 4156 2450 4653 2450 
z
M 1428 4353 
Q 1159 4353 1004 4120 
Q 850 3888 850 3481 
Q 850 3069 1003 2837 
Q 1156 2606 1428 2606 
Q 1700 2606 1854 2837 
Q 2009 3069 2009 3481 
Q 2009 3884 1853 4118 
Q 1697 4353 1428 4353 
z
M 4250 4750 
L 4750 4750 
L 1831 -91 
L 1331 -91 
L 4250 4750 
z
M 1428 4750 
Q 1922 4750 2215 4408 
Q 2509 4066 2509 3481 
Q 2509 2891 2217 2550 
Q 1925 2209 1428 2209 
Q 931 2209 642 2551 
Q 353 2894 353 3481 
Q 353 4063 643 4406 
Q 934 4750 1428 4750 
z
" transform="scale(0.015625)"/>
       <path id="DejaVuSans-20" transform="scale(0.015625)"/>
       <path id="DejaVuSans-4f" d="M 2522 4238 
Q 1834 4238 1429 3725 
Q 1025 3213 1025 2328 
Q 1025 1447 1429 934 
Q 1834 422 2522 422 
Q 3209 422 3611 934 
Q 4013 1447 4013 2328 
Q 4013 3213 3611 3725 
Q 3209 4238 2522 4238 
z
M 2522 4750 
Q 3503 4750 4090 4092 
Q 4678 3434 4678 2328 
Q 4678 1225 4090 567 
Q 3503 -91 2522 -91 
Q 1538 -91 948 565 
Q 359 1222 359 2328 
Q 359 3434 948 4092 
Q 1538 4750 2522 4750 
z
" transform="scale(0.015625)"/>
       <path id="DejaVuSans-69" d="M 603 3500 
L 1178 3500 
L 1178 0 
L 603 0 
L 603 3500 
z
M 603 4863 
L 1178 4863 
L 1178 4134 
L 603 4134 
L 603 4863 
z
" transform="scale(0.015625)"/>
       <path id="DejaVuSans-6d" d="M 3328 2828 
Q 3544 3216 3844 3400 
Q 4144 3584 4550 3584 
Q 5097 3584 5394 3201 
Q 5691 2819 5691 2113 
L 5691 0 
L 5113 0 
L 5113 2094 
Q 5113 2597 4934 2840 
Q 4756 3084 4391 3084 
Q 3944 3084 3684 2787 
Q 3425 2491 3425 1978 
L 3425 0 
L 2847 0 
L 2847 2094 
Q 2847 2600 2669 2842 
Q 2491 3084 2119 3084 
Q 1678 3084 1418 2786 
Q 1159 2488 1159 1978 
L 1159 0 
L 581 0 
L 581 3500 
L 1159 3500 
L 1159 2956 
Q 1356 3278 1631 3431 
Q 1906 3584 2284 3584 
Q 2666 3584 2933 3390 
Q 3200 3197 3328 2828 
z
" transform="scale(0.015625)"/>
       <path id="DejaVuSans-61" d="M 2194 1759 
Q 1497 1759 1228 1600 
Q 959 1441 959 1056 
Q 959 750 1161 570 
Q 1363 391 1709 391 
Q 2188 391 2477 730 
Q 2766 1069 2766 1631 
L 2766 1759 
L 2194 1759 
z
M 3341 1997 
L 3341 0 
L 2766 0 
L 2766 531 
Q 2569 213 2275 61 
Q 1981 -91 1556 -91 
Q 1019 -91 701 211 
Q 384 513 384 1019 
Q 384 1609 779 1909 
Q 1175 2209 1959 2209 
L 2766 2209 
L 2766 2266 
Q 2766 2663 2505 2880 
Q 2244 3097 1772 3097 
Q 1472 3097 1187 3025 
Q 903 2953 641 2809 
L 641 3341 
Q 956 3463 1253 3523 
Q 1550 3584 1831 3584 
Q 2591 3584 2966 3190 
Q 3341 2797 3341 1997 
z
" transform="scale(0.015625)"/>
       <path id="DejaVuSans-6c" d="M 603 4863 
L 1178 4863 
L 1178 0 
L 603 0 
L 603 4863 
z
" transform="scale(0.015625)"/>
       <path id="DejaVuSans-41" d="M 2188 4044 
L 1331 1722 
L 3047 1722 
L 2188 4044 
z
M 1831 4666 
L 2547 4666 
L 4325 0 
L 3669 0 
L 3244 1197 
L 1141 1197 
L 716 0 
L 50 0 
L 1831 4666 
z
" transform="scale(0.015625)"/>
       <path id="DejaVuSans-63" d="M 3122 3366 
L 3122 2828 
Q 2878 2963 2633 3030 
Q 2388 3097 2138 3097 
Q 1578 3097 1268 2742 
Q 959 2388 959 1747 
Q 959 1106 1268 751 
Q 1578 397 2138 397 
Q 2388 397 2633 464 
Q 2878 531 3122 666 
L 3122 134 
Q 2881 22 2623 -34 
Q 2366 -91 2075 -91 
Q 1284 -91 818 406 
Q 353 903 353 1747 
Q 353 2603 823 3093 
Q 1294 3584 2113 3584 
Q 2378 3584 2631 3529 
Q 2884 3475 3122 3366 
z
" transform="scale(0.015625)"/>
       <path id="DejaVuSans-6f" d="M 1959 3097 
Q 1497 3097 1228 2736 
Q 959 2375 959 1747 
Q 959 1119 1226 758 
Q 1494 397 1959 397 
Q 2419 397 2687 759 
Q 2956 1122 2956 1747 
Q 2956 2369 2687 2733 
Q 2419 3097 1959 3097 
z
M 1959 3584 
Q 2709 3584 3137 3096 
Q 3566 2609 3566 1747 
Q 3566 888 3137 398 
Q 2709 -91 1959 -91 
Q 1206 -91 779 398 
Q 353 888 353 1747 
Q 353 2609 779 3096 
Q 1206 3584 1959 3584 
z
" transform="scale(0.015625)"/>
       <path id="DejaVuSans-6e" d="M 3513 2113 
L 3513 0 
L 2938 0 
L 2938 2094 
Q 2938 2591 2744 2837 
Q 2550 3084 2163 3084 
Q 1697 3084 1428 2787 
Q 1159 2491 1159 1978 
L 1159 0 
L 581 0 
L 581 3500 
L 1159 3500 
L 1159 2956 
Q 1366 3272 1645 3428 
Q 1925 3584 2291 3584 
Q 2894 3584 3203 3211 
Q 3513 2838 3513 2113 
z
" transform="scale(0.015625)"/>
      </defs>
      <use xlink:href="#DejaVuSans-25"/>
      <use xlink:href="#DejaVuSans-20" transform="translate(95.019531 0)"/>
      <use xlink:href="#DejaVuSans-4f" transform="translate(126.806641 0)"/>
      <use xlink:href="#DejaVuSans-70" transform="translate(205.517578 0)"/>
      <use xlink:href="#DejaVuSans-74" transform="translate(268.994141 0)"/>
      <use xlink:href="#DejaVuSans-69" transform="translate(308.203125 0)"/>
      <use xlink:href="#DejaVuSans-6d" transform="translate(335.986328 0)"/>
      <use xlink:href="#DejaVuSans-61" transform="translate(433.398438 0)"/>
      <use xlink:href="#DejaVuSans-6c" transform="translate(494.677734 0)"/>
      <use xlink:href="#DejaVuSans-20" transform="translate(522.460938 0)"/>
      <use xlink:href="#DejaVuSans-41" transform="translate(554.248047 0)"/>
      <use xlink:href="#DejaVuSans-63" transform="translate(620.90625 0)"/>
      <use xlink:href="#DejaVuSans-74" transform="translate(675.886719 0)"/>
      <use xlink:href="#DejaVuSans-69" transform="translate(715.095703 0)"/>
      <use xlink:href="#DejaVuSans-6f" transform="translate(742.878906 0)"/>
      <use xlink:href="#DejaVuSans-6e" transform="translate(804.060547 0)"/>
     </g>
    </g>
   </g>
   <g id="line2d_14">
    <path d="M 83.871989 323.502263 
L 85.091883 324.230106 
L 86.311777 324.454057 
L 87.531672 323.366959 
L 89.97146 323.940835 
L 91.191355 324.617356 
L 92.411249 323.90351 
L 93.631143 324.72 
L 94.851038 324.449392 
L 96.070932 167.739249 
L 97.290826 257.595169 
L 98.510721 290.231451 
L 99.730615 304.886285 
L 100.950509 310.601717 
L 102.170404 311.828785 
L 103.390298 308.236228 
L 104.610192 299.366811 
L 105.830087 282.89237 
L 107.049981 254.0586 
L 108.269875 196.768977 
L 109.48977 174.61643 
L 110.709664 160.675442 
L 113.149453 142.484039 
L 114.369347 134.188498 
L 115.589241 127.423292 
L 119.248924 109.819762 
L 120.468819 105.228754 
L 121.688713 99.886575 
L 122.908607 95.654823 
L 124.128502 90.863191 
L 126.56829 83.188183 
L 130.227973 73.908188 
L 133.887656 67.054335 
L 135.107551 64.912798 
L 137.547339 61.254921 
L 138.767234 59.855224 
L 139.987128 57.909644 
L 142.426917 55.455508 
L 144.866705 52.516143 
L 146.0866 51.942267 
L 147.306494 50.043344 
L 148.526388 49.189528 
L 149.746283 48.676306 
L 150.966177 47.379253 
L 152.186071 47.108644 
L 154.62586 45.191059 
L 155.845754 44.990435 
L 157.065649 44.285921 
L 158.285543 44.346575 
L 159.505437 43.161497 
L 160.725332 42.233031 
L 161.945226 41.766465 
L 163.16512 41.603167 
L 164.385015 40.595385 
L 165.604909 40.77268 
L 166.824803 40.007512 
L 168.044698 39.396311 
L 169.264592 39.629594 
L 170.484486 39.121037 
L 172.924275 38.528498 
L 174.144169 38.500504 
L 175.364064 38.169242 
L 176.583958 38.187905 
L 177.803852 37.87064 
L 179.023747 37.707342 
L 180.243641 37.418071 
L 181.463535 36.876855 
L 182.68343 36.610912 
L 183.903324 35.962386 
L 185.123218 35.486489 
L 187.563007 35.715106 
L 188.782901 35.155227 
L 190.002796 35.668449 
L 192.442584 35.159893 
L 193.662479 34.530029 
L 194.882373 34.912613 
L 196.102267 35.061914 
L 197.322162 34.674664 
L 198.542056 34.614011 
L 199.76195 34.15211 
L 200.981845 34.614011 
L 202.201739 34.567354 
L 203.421633 34.012141 
L 204.641528 34.240758 
L 205.861422 34.628008 
L 207.081316 34.586017 
L 209.521105 34.29208 
L 210.740999 34.310743 
L 211.960894 34.189436 
L 213.180788 33.881502 
L 214.400682 34.711989 
L 215.620577 34.21743 
L 218.060365 34.450713 
L 220.500154 34.07746 
L 224.159837 34.29208 
L 225.379731 34.791306 
L 226.599626 34.530029 
L 227.81952 34.763312 
L 229.039414 34.264086 
L 230.259309 34.688661 
L 231.479203 34.306077 
L 233.918992 34.693327 
L 235.138886 34.511366 
L 236.35878 34.156776 
L 237.578675 34.142779 
L 238.798569 33.960818 
L 240.018463 34.39939 
L 242.458252 34.119451 
L 243.678146 34.231427 
L 244.898041 34.968601 
L 246.117935 34.8193 
L 247.337829 34.833297 
L 248.557724 34.567354 
L 254.657195 34.959269 
L 255.87709 35.211215 
L 257.096984 34.474041 
L 258.316878 35.047917 
L 260.756667 34.833297 
L 261.976561 34.945272 
L 263.196456 34.879953 
L 264.41635 34.446047 
L 265.636244 34.949938 
L 266.856139 35.122567 
L 268.076033 34.767977 
L 269.295927 34.548691 
L 270.515822 34.837962 
L 271.735716 34.89395 
L 272.95561 34.446047 
L 274.175505 35.005926 
L 275.395399 34.609345 
L 276.615293 35.206549 
L 277.835188 35.309194 
L 279.055082 35.038585 
L 280.274976 35.323191 
L 281.494871 35.897067 
L 282.714765 35.206549 
L 283.934659 35.481823 
L 285.154554 35.430501 
L 286.374448 35.523814 
L 287.594342 36.135015 
L 290.034131 35.276534 
L 291.254025 35.505151 
L 292.47392 35.066579 
L 293.693814 35.14123 
L 294.913708 35.827082 
L 296.133603 35.318525 
L 297.353497 35.038585 
L 299.793286 35.383844 
L 301.01318 35.2812 
L 302.233074 35.836413 
L 303.452969 35.24854 
L 304.672863 35.369847 
L 305.892757 35.836413 
L 308.332546 35.066579 
L 309.55244 35.052582 
L 310.772335 35.150561 
L 311.992229 34.954604 
L 313.212123 35.150561 
L 314.432018 35.052582 
L 315.651912 35.673115 
L 316.871806 35.584468 
L 319.311595 36.121018 
L 320.531489 35.565805 
L 321.751384 35.150561 
L 322.971278 35.561139 
L 324.191172 35.491154 
L 325.411067 35.948389 
L 326.630961 35.836413 
L 327.850855 36.31231 
L 329.07075 35.962386 
L 330.290644 35.999711 
L 331.510538 35.780425 
L 333.950327 36.172341 
L 335.170221 35.71044 
L 337.61001 36.195669 
L 338.829904 35.738434 
L 340.049799 35.794422 
L 341.269693 36.13035 
L 342.489587 35.873738 
L 343.709482 36.144347 
L 344.929376 35.738434 
L 346.14927 35.551808 
L 347.369165 35.49582 
L 348.589059 35.253206 
L 349.808953 35.46316 
L 351.028848 35.449163 
L 352.248742 35.645121 
L 353.468636 35.24854 
L 354.688531 35.327856 
L 355.908425 35.584468 
L 357.128319 35.649787 
L 358.348214 35.971717 
L 359.568108 36.037036 
L 360.788002 35.673115 
L 362.007897 35.691778 
L 363.227791 35.911064 
L 364.447685 35.327856 
L 366.887474 35.234543 
L 368.107368 34.889284 
L 369.327263 34.716655 
L 370.547157 34.777309 
L 371.767051 35.080576 
L 372.986946 34.898616 
L 374.20684 34.879953 
L 375.426734 34.665333 
L 376.646629 34.660667 
L 377.866523 34.385393 
L 379.086417 34.497369 
L 380.306312 34.208098 
L 381.526206 34.376062 
L 382.7461 34.343402 
L 383.965995 34.581351 
L 386.405783 33.918827 
L 388.845572 34.21743 
L 390.065467 34.469375 
L 391.285361 34.194101 
L 393.72515 34.175439 
L 394.945044 34.245424 
L 396.164938 33.946821 
L 397.384833 34.100788 
L 398.604727 34.441381 
L 399.824621 34.338737 
L 401.044516 34.030803 
L 402.26441 33.984147 
L 404.704199 34.049466 
L 405.924093 33.792855 
L 407.143987 33.755529 
L 408.363882 33.288963 
L 409.583776 33.148994 
L 412.023565 33.288963 
L 413.243459 33.414936 
L 414.463353 33.330954 
L 415.683248 33.456927 
L 416.903142 33.223644 
L 418.123036 33.638888 
L 419.342931 33.223644 
L 420.562825 33.144328 
L 421.782719 32.920376 
L 423.002614 33.158325 
L 424.222508 32.878386 
L 425.442402 33.223644 
L 426.662297 33.19565 
L 427.882191 33.284298 
L 429.102085 33.037018 
L 430.32198 33.22831 
L 431.541874 33.176988 
L 432.761768 33.526912 
L 435.201557 32.971699 
L 437.641346 33.176988 
L 438.86124 32.957702 
L 440.081134 32.901714 
L 442.520923 32.430482 
L 443.740817 32.206531 
L 447.4005 32.449145 
L 448.620395 32.099221 
L 449.840289 32.085224 
L 451.060183 31.954585 
L 452.280078 31.977913 
L 453.499972 31.548673 
L 458.379549 31.679311 
L 459.599444 31.273399 
L 460.819338 31.800618 
L 462.039232 31.879935 
L 463.259127 31.655983 
L 466.91881 31.987245 
L 469.358598 31.348049 
L 470.578493 31.338718 
L 471.798387 31.044782 
L 473.018281 31.362046 
L 474.238176 31.194083 
L 475.45807 30.811499 
L 476.677964 31.049447 
L 479.117753 30.92814 
L 482.777436 30.699523 
L 483.99733 30.536225 
L 485.217225 30.130313 
L 486.437119 30.522228 
L 487.657013 30.265617 
L 488.876908 30.139644 
L 490.096802 30.671529 
L 491.316696 30.447577 
L 492.536591 30.396255 
L 494.976379 30.643535 
L 496.196274 30.554888 
L 497.416168 30.652866 
L 498.636062 30.862821 
L 499.855957 30.372927 
L 501.075851 30.148975 
L 502.295745 30.662198 
L 504.735534 30.284279 
L 505.955428 30.279614 
L 507.175323 30.396255 
L 509.615111 29.957683 
L 512.0549 29.761726 
L 513.274794 29.990343 
L 518.154372 29.89703 
L 520.59416 29.537774 
L 521.814055 29.481786 
L 523.033949 29.057211 
L 524.253843 29.038548 
L 525.473738 29.173853 
L 526.693632 28.968564 
L 527.913526 29.439795 
L 529.133421 29.12253 
L 530.353315 29.089871 
L 531.573209 29.234506 
L 532.793104 28.987226 
L 534.012998 28.954567 
L 536.452787 28.52066 
L 537.672681 28.529992 
L 540.11247 28.086754 
L 541.332364 28.245386 
L 543.772153 27.582863 
L 544.992047 27.718167 
L 546.211941 27.578197 
L 547.431836 27.652848 
L 549.871624 27.284261 
L 551.091519 26.939002 
L 552.311413 27.130294 
L 553.531307 26.869017 
L 554.751202 27.106966 
L 555.971096 26.6404 
L 557.19099 26.869017 
L 558.410885 26.925005 
L 559.630779 26.60774 
L 560.850673 26.122512 
L 562.070568 25.991873 
L 564.510356 26.402451 
L 565.730251 26.206494 
L 566.950145 26.388454 
L 568.170039 26.122512 
L 569.389934 26.281144 
L 571.829722 25.921888 
L 573.049617 25.954548 
L 575.489405 26.421114 
L 579.149088 25.800581 
L 580.368983 25.884563 
L 581.588877 26.211159 
L 584.028666 25.968545 
L 585.24856 26.313804 
L 586.468454 26.323135 
L 587.688349 25.926554 
L 591.348032 25.861235 
L 593.78782 25.739928 
L 595.007715 26.080521 
L 597.447503 25.749259 
L 599.887292 25.492648 
L 602.327081 25.688606 
L 603.546975 25.338681 
L 604.766869 25.926554 
L 605.986764 25.585961 
L 608.426552 25.408666 
L 609.646447 25.147389 
L 610.866341 25.100733 
L 612.086235 25.511311 
L 614.526024 25.29669 
L 616.965813 24.746143 
L 618.185707 24.610838 
L 619.405601 24.592176 
L 620.625496 24.788133 
L 621.84539 24.517525 
L 623.065284 24.634167 
L 624.285179 24.321568 
L 625.505073 24.461537 
L 626.724967 24.246917 
L 627.944862 24.298239 
L 629.164756 23.994971 
L 630.38465 24.26558 
L 631.604545 24.074288 
L 634.044333 24.148938 
L 636.484122 24.060291 
L 637.704016 23.994971 
L 638.923911 24.153604 
L 640.143805 24.15827 
L 641.363699 24.34023 
L 642.583594 24.349562 
L 643.803488 23.850336 
L 645.023382 24.088285 
L 646.243277 23.687038 
L 647.463171 23.696369 
L 648.683065 23.477083 
L 651.122854 23.472418 
L 652.342748 23.215806 
L 653.562643 23.178481 
L 654.782537 23.355776 
L 657.222326 23.234469 
L 659.662114 23.645047 
L 660.882009 23.449089 
L 662.101903 23.551734 
L 663.321797 23.290457 
L 664.541692 23.332448 
L 665.761586 23.187813 
L 668.201375 23.225138 
L 669.421269 23.486415 
L 670.641163 23.239135 
L 671.861058 23.30912 
L 673.080952 23.197144 
L 674.300846 23.290457 
L 675.520741 23.234469 
L 676.740635 23.369773 
L 677.960529 22.856551 
L 679.180424 22.632599 
L 680.400318 22.730578 
L 682.840107 22.581277 
L 684.060001 22.767903 
L 686.49979 22.557949 
L 687.719684 22.613936 
L 691.379367 22.361991 
L 692.599261 22.32 
L 692.599261 22.32 
" clip-path="url(#p961ae67b5e)" style="fill: none; stroke: #1f77b4; stroke-width: 1.5; stroke-linecap: square"/>
   </g>
   <g id="line2d_15">
    <path d="M 83.871989 324.39807 
L 85.091883 305.091574 
L 86.311777 291.3932 
L 87.531672 280.190954 
L 88.751566 270.70567 
L 89.97146 263.436574 
L 92.411249 250.536027 
L 94.851038 240.52819 
L 98.510721 229.027341 
L 99.730615 225.752049 
L 102.170404 221.137712 
L 103.390298 219.551388 
L 104.610192 216.742662 
L 105.830087 215.161003 
L 107.049981 212.982141 
L 108.269875 212.021015 
L 110.709664 208.423792 
L 111.929558 207.546649 
L 113.149453 205.78303 
L 114.369347 204.989868 
L 118.02903 201.401976 
L 119.248924 200.510835 
L 120.468819 199.311761 
L 122.908607 197.688112 
L 125.348396 195.737867 
L 126.56829 195.537243 
L 127.788185 194.081558 
L 129.008079 193.792287 
L 130.227973 192.887149 
L 131.447868 192.168638 
L 132.667762 190.815597 
L 133.887656 190.045763 
L 135.107551 189.994441 
L 136.327445 189.411233 
L 137.547339 188.272813 
L 138.767234 187.8669 
L 139.987128 187.167052 
L 142.426917 186.089284 
L 143.646811 185.254132 
L 144.866705 185.006852 
L 146.0866 183.82644 
L 147.306494 183.565163 
L 150.966177 181.890192 
L 152.186071 181.404963 
L 153.405966 181.134355 
L 154.62586 180.49516 
L 155.845754 179.729992 
L 157.065649 179.482712 
L 159.505437 178.306966 
L 160.725332 177.583789 
L 161.945226 177.112557 
L 163.16512 176.813955 
L 165.604909 175.362935 
L 166.824803 175.731522 
L 168.044698 174.635092 
L 169.264592 174.919698 
L 170.484486 174.201186 
L 171.704381 173.258723 
L 172.924275 173.24006 
L 174.144169 172.395576 
L 175.364064 172.465561 
L 176.583958 171.807703 
L 179.023747 170.823249 
L 180.243641 170.809252 
L 181.463535 170.445331 
L 182.68343 169.115618 
L 183.903324 169.348901 
L 185.123218 169.264919 
L 187.563007 167.883884 
L 188.782901 167.477972 
L 190.002796 167.28668 
L 191.22269 166.871436 
L 192.442584 165.989627 
L 193.662479 165.872985 
L 194.882373 165.495067 
L 196.102267 164.916525 
L 197.322162 164.725233 
L 198.542056 163.913409 
L 199.76195 163.56815 
L 200.981845 163.558819 
L 202.201739 163.381524 
L 203.421633 162.2571 
L 204.641528 162.788985 
L 205.861422 161.683224 
L 207.081316 161.286643 
L 208.301211 160.586794 
L 209.521105 160.507478 
L 210.740999 160.087569 
L 211.960894 159.826292 
L 213.180788 159.952265 
L 214.400682 158.435926 
L 215.620577 159.336398 
L 216.840471 159.336398 
L 218.060365 158.249299 
L 219.28026 157.745408 
L 220.500154 157.4748 
L 221.720048 157.44214 
L 222.939943 156.564996 
L 224.159837 156.457686 
L 225.379731 156.182412 
L 226.599626 155.291272 
L 229.039414 155.09998 
L 230.259309 154.708064 
L 232.699097 153.359689 
L 233.918992 153.807592 
L 235.138886 152.650509 
L 236.35878 152.384566 
L 237.578675 152.454551 
L 238.798569 151.48876 
L 240.018463 151.661389 
L 241.238358 151.264808 
L 243.678146 150.849565 
L 244.898041 150.396996 
L 246.117935 149.813788 
L 247.337829 149.365885 
L 249.777618 149.253909 
L 250.997512 149.417207 
L 252.217407 148.61938 
L 253.437301 147.989516 
L 255.87709 147.583604 
L 258.316878 146.697128 
L 259.536773 146.039271 
L 260.756667 146.123252 
L 261.976561 145.092142 
L 263.196456 145.661352 
L 264.41635 145.437401 
L 265.636244 144.690895 
L 266.856139 144.112354 
L 268.076033 144.135682 
L 270.515822 143.533812 
L 271.735716 143.823083 
L 272.95561 142.950604 
L 275.395399 142.456045 
L 276.615293 142.096789 
L 277.835188 141.980147 
L 279.055082 141.158992 
L 280.274976 141.410937 
L 281.494871 141.219645 
L 282.714765 140.897715 
L 283.934659 140.767076 
L 285.154554 139.941255 
L 286.374448 140.188535 
L 287.594342 139.595996 
L 288.814237 138.611542 
L 290.034131 138.401587 
L 291.254025 138.485569 
L 293.693814 138.112316 
L 294.913708 137.767058 
L 297.353497 137.351814 
L 298.573391 136.72195 
L 301.01318 135.858803 
L 302.233074 135.667511 
L 303.452969 135.863469 
L 305.892757 134.879015 
L 307.112652 135.032982 
L 308.332546 134.893012 
L 309.55244 134.127844 
L 310.772335 133.754591 
L 311.992229 133.955215 
L 313.212123 132.966095 
L 314.432018 133.2507 
L 315.651912 133.246034 
L 316.871806 132.667493 
L 318.091701 132.616171 
L 319.311595 131.5524 
L 320.531489 131.095166 
L 321.751384 131.393768 
L 322.971278 131.202476 
L 324.191172 130.647263 
L 325.411067 129.910089 
L 327.850855 129.686137 
L 329.07075 129.518173 
L 330.290644 129.000285 
L 331.510538 129.560164 
L 332.730433 128.687686 
L 333.950327 128.836987 
L 335.170221 128.50106 
L 336.390116 127.829205 
L 337.61001 127.712563 
L 338.829904 127.801211 
L 340.049799 127.460618 
L 341.269693 126.924067 
L 342.489587 126.812091 
L 343.709482 126.354857 
L 344.929376 125.650342 
L 346.14927 125.510372 
L 347.369165 125.529035 
L 348.589059 125.70633 
L 349.808953 124.913168 
L 351.028848 124.684551 
L 352.248742 124.577241 
L 353.468636 124.227316 
L 355.908425 123.065567 
L 357.128319 123.569458 
L 358.348214 123.47148 
L 359.568108 122.94426 
L 360.788002 121.614547 
L 362.007897 122.356387 
L 364.447685 121.693864 
L 365.66758 121.577222 
L 366.887474 120.6021 
L 368.107368 121.166644 
L 369.327263 120.718741 
L 370.547157 120.126202 
L 371.767051 120.78406 
L 372.986946 120.485458 
L 374.20684 119.538329 
L 375.426734 119.071764 
L 376.646629 119.3657 
L 377.866523 119.169742 
L 379.086417 118.325258 
L 381.526206 117.863358 
L 382.7461 117.989331 
L 383.965995 117.849361 
L 387.625678 116.981548 
L 390.065467 116.14173 
L 391.285361 116.127733 
L 394.945044 115.385893 
L 396.164938 115.441881 
L 397.384833 114.770026 
L 398.604727 114.90533 
L 399.824621 114.009524 
L 401.044516 113.836894 
L 402.26441 113.967533 
L 404.704199 113.104386 
L 405.924093 113.123049 
L 407.143987 113.020404 
L 408.363882 111.905312 
L 409.583776 111.937971 
L 410.80367 111.457409 
L 412.023565 111.583381 
L 413.243459 111.130812 
L 414.463353 110.132362 
L 415.683248 110.384307 
L 416.903142 110.500949 
L 418.123036 110.496283 
L 420.562825 109.703121 
L 421.782719 109.866419 
L 423.002614 109.497832 
L 424.222508 108.858637 
L 425.442402 108.73733 
L 426.662297 109.115248 
L 427.882191 108.191448 
L 429.102085 108.448059 
L 430.32198 107.976827 
L 432.761768 107.351629 
L 433.981663 106.927054 
L 436.421451 106.89906 
L 437.641346 106.997039 
L 438.86124 106.227205 
L 440.081134 106.950382 
L 441.301029 106.105898 
L 443.740817 105.298739 
L 444.960712 105.168101 
L 446.180606 104.73886 
L 447.4005 104.920821 
L 448.620395 104.87883 
L 449.840289 104.486915 
L 453.499972 104.150987 
L 454.719866 103.474467 
L 455.939761 103.474467 
L 457.159655 102.970575 
L 458.379549 102.872597 
L 462.039232 102.252064 
L 463.259127 101.225619 
L 465.698915 101.878811 
L 466.91881 100.983005 
L 468.138704 101.062321 
L 469.358598 100.460451 
L 470.578493 100.152518 
L 471.798387 100.152518 
L 473.018281 99.942563 
L 474.238176 99.135404 
L 475.45807 99.275374 
L 477.897859 98.542865 
L 479.117753 98.846133 
L 480.337647 98.626847 
L 481.557542 97.982986 
L 482.777436 98.295586 
L 483.99733 98.01098 
L 485.217225 97.264475 
L 487.657013 97.427773 
L 488.876908 96.830569 
L 490.096802 97.035858 
L 491.316696 96.886557 
L 492.536591 95.617497 
L 493.756485 95.220916 
L 494.976379 95.720142 
L 497.416168 95.500856 
L 499.855957 94.427754 
L 501.075851 94.735688 
L 502.295745 94.007845 
L 503.51564 94.269122 
L 504.735534 93.835216 
L 505.955428 93.835216 
L 507.175323 93.947192 
L 508.395217 93.242677 
L 509.615111 93.303331 
L 510.835006 93.079379 
L 513.274794 92.356202 
L 515.714583 91.870974 
L 516.934477 91.745001 
L 518.154372 90.685896 
L 519.374266 91.073146 
L 520.59416 91.091809 
L 523.033949 90.555258 
L 525.473738 90.503936 
L 526.693632 90.559923 
L 527.913526 90.214665 
L 530.353315 88.996928 
L 531.573209 89.211548 
L 532.793104 89.794755 
L 534.012998 89.01559 
L 535.232892 89.043584 
L 536.452787 88.292413 
L 537.672681 88.348401 
L 538.892575 87.377944 
L 540.11247 88.511699 
L 541.332364 87.825848 
L 542.552258 88.063796 
L 543.772153 88.432383 
L 544.992047 87.606562 
L 546.211941 86.388825 
L 547.431836 87.121333 
L 548.65173 86.678095 
L 549.871624 85.828946 
L 551.091519 86.346834 
L 552.311413 86.216195 
L 553.531307 85.707638 
L 554.751202 85.833611 
L 559.630779 85.241073 
L 560.850673 85.208413 
L 562.070568 84.461908 
L 563.290462 83.94402 
L 564.510356 83.701405 
L 565.730251 83.780721 
L 566.950145 83.398137 
L 570.609828 83.412134 
L 571.829722 82.875584 
L 573.049617 83.337484 
L 575.489405 82.539656 
L 576.7093 82.539656 
L 577.929194 81.816479 
L 579.149088 81.415233 
L 580.368983 81.545871 
L 581.588877 81.144624 
L 582.808771 81.018652 
L 584.028666 81.424564 
L 585.24856 80.7947 
L 586.468454 80.472769 
L 588.908243 80.757375 
L 590.128137 80.146173 
L 591.348032 80.038863 
L 592.567926 78.783801 
L 593.78782 79.474319 
L 595.007715 79.581629 
L 596.227609 78.830458 
L 597.447503 79.045078 
L 598.667398 78.415214 
L 599.887292 78.727813 
L 601.107186 78.298573 
L 602.327081 77.552067 
L 603.546975 77.482082 
L 604.766869 77.673374 
L 605.986764 77.67804 
L 607.206658 76.702917 
L 609.646447 77.164817 
L 610.866341 76.404315 
L 612.086235 76.973525 
L 613.30613 76.222354 
L 614.526024 77.010851 
L 615.745918 75.97974 
L 616.965813 75.984406 
L 618.185707 75.51784 
L 619.405601 75.419861 
L 620.625496 75.065271 
L 621.84539 75.578494 
L 623.065284 74.575377 
L 624.285179 75.783783 
L 625.505073 74.500726 
L 626.724967 74.971958 
L 627.944862 74.426076 
L 629.164756 75.02328 
L 630.38465 73.520938 
L 631.604545 73.936182 
L 632.824439 73.441622 
L 634.044333 73.614251 
L 636.484122 73.264327 
L 637.704016 73.129023 
L 638.923911 72.326529 
L 640.143805 72.018596 
L 641.363699 72.956393 
L 642.583594 72.200557 
L 643.803488 72.396514 
L 645.023382 70.856847 
L 646.243277 71.808641 
L 647.463171 71.211437 
L 648.683065 71.16478 
L 649.90296 71.449386 
L 651.122854 70.959491 
L 652.342748 70.306299 
L 653.562643 70.800859 
L 654.782537 70.063685 
L 656.002431 70.338959 
L 657.222326 69.620447 
L 658.44222 69.279854 
L 659.662114 69.709095 
L 660.882009 69.00458 
L 662.101903 68.580006 
L 663.321797 69.181876 
L 664.541692 68.598668 
L 665.761586 68.524018 
L 669.421269 67.86616 
L 670.641163 68.46803 
L 671.861058 67.576889 
L 673.080952 67.170977 
L 674.300846 67.432254 
L 675.520741 66.975019 
L 676.740635 67.366934 
L 677.960529 66.858378 
L 679.180424 66.205185 
L 680.400318 66.867709 
L 681.620212 66.186523 
L 682.840107 66.73707 
L 684.060001 65.95324 
L 685.279895 66.545778 
L 686.49979 65.593984 
L 687.719684 66.317161 
L 688.939578 65.309379 
L 690.159473 65.07143 
L 691.379367 65.076096 
L 692.599261 64.870807 
L 692.599261 64.870807 
" clip-path="url(#p961ae67b5e)" style="fill: none; stroke: #ff7f0e; stroke-width: 1.5; stroke-linecap: square"/>
   </g>
   <g id="patch_3">
    <path d="M 53.435625 339.84 
L 53.435625 7.2 
" style="fill: none; stroke: #000000; stroke-width: 0.8; stroke-linejoin: miter; stroke-linecap: square"/>
   </g>
   <g id="patch_4">
    <path d="M 723.035625 339.84 
L 723.035625 7.2 
" style="fill: none; stroke: #000000; stroke-width: 0.8; stroke-linejoin: miter; stroke-linecap: square"/>
   </g>
   <g id="patch_5">
    <path d="M 53.435625 339.84 
L 723.035625 339.84 
" style="fill: none; stroke: #000000; stroke-width: 0.8; stroke-linejoin: miter; stroke-linecap: square"/>
   </g>
   <g id="patch_6">
    <path d="M 53.435625 7.2 
L 723.035625 7.2 
" style="fill: none; stroke: #000000; stroke-width: 0.8; stroke-linejoin: miter; stroke-linecap: square"/>
   </g>
   <g id="legend_1">
    <g id="patch_7">
     <path d="M 518.715625 331.84 
L 711.835625 331.84 
Q 715.035625 331.84 715.035625 328.64 
L 715.035625 283.235 
Q 715.035625 280.035 711.835625 280.035 
L 518.715625 280.035 
Q 515.515625 280.035 515.515625 283.235 
L 515.515625 328.64 
Q 515.515625 331.84 518.715625 331.84 
z
" style="fill: #ffffff; opacity: 0.8; stroke: #cccccc; stroke-linejoin: miter"/>
    </g>
    <g id="line2d_16">
     <path d="M 521.915625 292.9925 
L 537.915625 292.9925 
L 553.915625 292.9925 
" style="fill: none; stroke: #1f77b4; stroke-width: 1.5; stroke-linecap: square"/>
    </g>
    <g id="text_16">
     <!-- UCB ($c=2$) -->
     <g transform="translate(566.715625 298.5925) scale(0.16 -0.16)">
      <defs>
       <path id="DejaVuSans-55" d="M 556 4666 
L 1191 4666 
L 1191 1831 
Q 1191 1081 1462 751 
Q 1734 422 2344 422 
Q 2950 422 3222 751 
Q 3494 1081 3494 1831 
L 3494 4666 
L 4128 4666 
L 4128 1753 
Q 4128 841 3676 375 
Q 3225 -91 2344 -91 
Q 1459 -91 1007 375 
Q 556 841 556 1753 
L 556 4666 
z
" transform="scale(0.015625)"/>
       <path id="DejaVuSans-43" d="M 4122 4306 
L 4122 3641 
Q 3803 3938 3442 4084 
Q 3081 4231 2675 4231 
Q 1875 4231 1450 3742 
Q 1025 3253 1025 2328 
Q 1025 1406 1450 917 
Q 1875 428 2675 428 
Q 3081 428 3442 575 
Q 3803 722 4122 1019 
L 4122 359 
Q 3791 134 3420 21 
Q 3050 -91 2638 -91 
Q 1578 -91 968 557 
Q 359 1206 359 2328 
Q 359 3453 968 4101 
Q 1578 4750 2638 4750 
Q 3056 4750 3426 4639 
Q 3797 4528 4122 4306 
z
" transform="scale(0.015625)"/>
       <path id="DejaVuSans-42" d="M 1259 2228 
L 1259 519 
L 2272 519 
Q 2781 519 3026 730 
Q 3272 941 3272 1375 
Q 3272 1813 3026 2020 
Q 2781 2228 2272 2228 
L 1259 2228 
z
M 1259 4147 
L 1259 2741 
L 2194 2741 
Q 2656 2741 2882 2914 
Q 3109 3088 3109 3444 
Q 3109 3797 2882 3972 
Q 2656 4147 2194 4147 
L 1259 4147 
z
M 628 4666 
L 2241 4666 
Q 2963 4666 3353 4366 
Q 3744 4066 3744 3513 
Q 3744 3084 3544 2831 
Q 3344 2578 2956 2516 
Q 3422 2416 3680 2098 
Q 3938 1781 3938 1306 
Q 3938 681 3513 340 
Q 3088 0 2303 0 
L 628 0 
L 628 4666 
z
" transform="scale(0.015625)"/>
       <path id="DejaVuSans-28" d="M 1984 4856 
Q 1566 4138 1362 3434 
Q 1159 2731 1159 2009 
Q 1159 1288 1364 580 
Q 1569 -128 1984 -844 
L 1484 -844 
Q 1016 -109 783 600 
Q 550 1309 550 2009 
Q 550 2706 781 3412 
Q 1013 4119 1484 4856 
L 1984 4856 
z
" transform="scale(0.015625)"/>
       <path id="DejaVuSans-Oblique-63" d="M 3431 3366 
L 3316 2797 
Q 3109 2947 2876 3022 
Q 2644 3097 2394 3097 
Q 2119 3097 1870 3000 
Q 1622 2903 1453 2725 
Q 1184 2453 1037 2087 
Q 891 1722 891 1331 
Q 891 859 1127 628 
Q 1363 397 1844 397 
Q 2081 397 2348 469 
Q 2616 541 2906 684 
L 2797 116 
Q 2547 13 2283 -39 
Q 2019 -91 1741 -91 
Q 1044 -91 669 257 
Q 294 606 294 1253 
Q 294 1797 489 2255 
Q 684 2713 1069 3078 
Q 1331 3328 1684 3456 
Q 2038 3584 2456 3584 
Q 2700 3584 2940 3529 
Q 3181 3475 3431 3366 
z
" transform="scale(0.015625)"/>
       <path id="DejaVuSans-3d" d="M 678 2906 
L 4684 2906 
L 4684 2381 
L 678 2381 
L 678 2906 
z
M 678 1631 
L 4684 1631 
L 4684 1100 
L 678 1100 
L 678 1631 
z
" transform="scale(0.015625)"/>
       <path id="DejaVuSans-29" d="M 513 4856 
L 1013 4856 
Q 1481 4119 1714 3412 
Q 1947 2706 1947 2009 
Q 1947 1309 1714 600 
Q 1481 -109 1013 -844 
L 513 -844 
Q 928 -128 1133 580 
Q 1338 1288 1338 2009 
Q 1338 2731 1133 3434 
Q 928 4138 513 4856 
z
" transform="scale(0.015625)"/>
      </defs>
      <use xlink:href="#DejaVuSans-55" transform="translate(0 0.125)"/>
      <use xlink:href="#DejaVuSans-43" transform="translate(73.193359 0.125)"/>
      <use xlink:href="#DejaVuSans-42" transform="translate(143.017578 0.125)"/>
      <use xlink:href="#DejaVuSans-20" transform="translate(211.621094 0.125)"/>
      <use xlink:href="#DejaVuSans-28" transform="translate(243.408203 0.125)"/>
      <use xlink:href="#DejaVuSans-Oblique-63" transform="translate(282.421875 0.125)"/>
      <use xlink:href="#DejaVuSans-3d" transform="translate(356.884766 0.125)"/>
      <use xlink:href="#DejaVuSans-32" transform="translate(460.15625 0.125)"/>
      <use xlink:href="#DejaVuSans-29" transform="translate(523.779297 0.125)"/>
     </g>
    </g>
    <g id="line2d_17">
     <path d="M 521.915625 316.48 
L 537.915625 316.48 
L 553.915625 316.48 
" style="fill: none; stroke: #ff7f0e; stroke-width: 1.5; stroke-linecap: square"/>
    </g>
    <g id="text_17">
     <!-- $\epsilon$-greedy ($\epsilon=0.1$) -->
     <g transform="translate(566.715625 322.08) scale(0.16 -0.16)">
      <defs>
       <path id="DejaVuSans-Oblique-3b5" d="M 1263 1888 
Q 925 1963 778 2166 
Q 669 2309 669 2503 
Q 669 3034 1175 3344 
Q 1575 3588 2188 3588 
Q 2425 3588 2684 3550 
Q 2944 3513 3234 3438 
L 3134 2916 
Q 2847 3006 2606 3047 
Q 2359 3088 2138 3088 
Q 1766 3088 1522 2944 
Q 1228 2772 1228 2522 
Q 1228 2356 1381 2241 
Q 1563 2103 1925 2103 
L 2409 2103 
L 2319 1628 
L 1856 1628 
Q 1425 1628 1172 1469 
Q 828 1253 828 916 
Q 828 703 1013 563 
Q 1244 388 1716 388 
Q 2006 388 2284 444 
Q 2563 503 2806 619 
L 2700 84 
Q 2403 -3 2131 -47 
Q 1859 -91 1609 -91 
Q 866 -91 516 194 
Q 250 413 250 781 
Q 250 1278 600 1584 
Q 859 1813 1263 1888 
z
" transform="scale(0.015625)"/>
       <path id="DejaVuSans-2d" d="M 313 2009 
L 1997 2009 
L 1997 1497 
L 313 1497 
L 313 2009 
z
" transform="scale(0.015625)"/>
       <path id="DejaVuSans-67" d="M 2906 1791 
Q 2906 2416 2648 2759 
Q 2391 3103 1925 3103 
Q 1463 3103 1205 2759 
Q 947 2416 947 1791 
Q 947 1169 1205 825 
Q 1463 481 1925 481 
Q 2391 481 2648 825 
Q 2906 1169 2906 1791 
z
M 3481 434 
Q 3481 -459 3084 -895 
Q 2688 -1331 1869 -1331 
Q 1566 -1331 1297 -1286 
Q 1028 -1241 775 -1147 
L 775 -588 
Q 1028 -725 1275 -790 
Q 1522 -856 1778 -856 
Q 2344 -856 2625 -561 
Q 2906 -266 2906 331 
L 2906 616 
Q 2728 306 2450 153 
Q 2172 0 1784 0 
Q 1141 0 747 490 
Q 353 981 353 1791 
Q 353 2603 747 3093 
Q 1141 3584 1784 3584 
Q 2172 3584 2450 3431 
Q 2728 3278 2906 2969 
L 2906 3500 
L 3481 3500 
L 3481 434 
z
" transform="scale(0.015625)"/>
       <path id="DejaVuSans-72" d="M 2631 2963 
Q 2534 3019 2420 3045 
Q 2306 3072 2169 3072 
Q 1681 3072 1420 2755 
Q 1159 2438 1159 1844 
L 1159 0 
L 581 0 
L 581 3500 
L 1159 3500 
L 1159 2956 
Q 1341 3275 1631 3429 
Q 1922 3584 2338 3584 
Q 2397 3584 2469 3576 
Q 2541 3569 2628 3553 
L 2631 2963 
z
" transform="scale(0.015625)"/>
       <path id="DejaVuSans-64" d="M 2906 2969 
L 2906 4863 
L 3481 4863 
L 3481 0 
L 2906 0 
L 2906 525 
Q 2725 213 2448 61 
Q 2172 -91 1784 -91 
Q 1150 -91 751 415 
Q 353 922 353 1747 
Q 353 2572 751 3078 
Q 1150 3584 1784 3584 
Q 2172 3584 2448 3432 
Q 2725 3281 2906 2969 
z
M 947 1747 
Q 947 1113 1208 752 
Q 1469 391 1925 391 
Q 2381 391 2643 752 
Q 2906 1113 2906 1747 
Q 2906 2381 2643 2742 
Q 2381 3103 1925 3103 
Q 1469 3103 1208 2742 
Q 947 2381 947 1747 
z
" transform="scale(0.015625)"/>
       <path id="DejaVuSans-79" d="M 2059 -325 
Q 1816 -950 1584 -1140 
Q 1353 -1331 966 -1331 
L 506 -1331 
L 506 -850 
L 844 -850 
Q 1081 -850 1212 -737 
Q 1344 -625 1503 -206 
L 1606 56 
L 191 3500 
L 800 3500 
L 1894 763 
L 2988 3500 
L 3597 3500 
L 2059 -325 
z
" transform="scale(0.015625)"/>
       <path id="DejaVuSans-2e" d="M 684 794 
L 1344 794 
L 1344 0 
L 684 0 
L 684 794 
z
" transform="scale(0.015625)"/>
      </defs>
      <use xlink:href="#DejaVuSans-Oblique-3b5" transform="translate(0 0.015625)"/>
      <use xlink:href="#DejaVuSans-2d" transform="translate(54.052734 0.015625)"/>
      <use xlink:href="#DejaVuSans-67" transform="translate(90.136719 0.015625)"/>
      <use xlink:href="#DejaVuSans-72" transform="translate(153.613281 0.015625)"/>
      <use xlink:href="#DejaVuSans-65" transform="translate(194.726562 0.015625)"/>
      <use xlink:href="#DejaVuSans-65" transform="translate(256.25 0.015625)"/>
      <use xlink:href="#DejaVuSans-64" transform="translate(317.773438 0.015625)"/>
      <use xlink:href="#DejaVuSans-79" transform="translate(381.25 0.015625)"/>
      <use xlink:href="#DejaVuSans-20" transform="translate(440.429688 0.015625)"/>
      <use xlink:href="#DejaVuSans-28" transform="translate(472.216797 0.015625)"/>
      <use xlink:href="#DejaVuSans-Oblique-3b5" transform="translate(511.230469 0.015625)"/>
      <use xlink:href="#DejaVuSans-3d" transform="translate(584.765625 0.015625)"/>
      <use xlink:href="#DejaVuSans-30" transform="translate(688.037109 0.015625)"/>
      <use xlink:href="#DejaVuSans-2e" transform="translate(751.660156 0.015625)"/>
      <use xlink:href="#DejaVuSans-31" transform="translate(783.447266 0.015625)"/>
      <use xlink:href="#DejaVuSans-29" transform="translate(847.070312 0.015625)"/>
     </g>
    </g>
   </g>
  </g>
 </g>
 <defs>
  <clipPath id="p961ae67b5e">
   <rect x="53.435625" y="7.2" width="669.6" height="332.64"/>
  </clipPath>
 </defs>
</svg>
