<?xml version="1.0" encoding="utf-8" standalone="no"?>
<!DOCTYPE svg PUBLIC "-//W3C//DTD SVG 1.1//EN"
  "http://www.w3.org/Graphics/SVG/1.1/DTD/svg11.dtd">
<svg xmlns:xlink="http://www.w3.org/1999/xlink" width="730.235625pt" height="389.01pt" viewBox="0 0 730.235625 389.01" xmlns="http://www.w3.org/2000/svg" version="1.1">
 <metadata>
  <rdf:RDF xmlns:dc="http://purl.org/dc/elements/1.1/" xmlns:cc="http://creativecommons.org/ns#" xmlns:rdf="http://www.w3.org/1999/02/22-rdf-syntax-ns#">
   <cc:Work>
    <dc:type rdf:resource="http://purl.org/dc/dcmitype/StillImage"/>
    <dc:date>2026-03-08T00:58:30.792509</dc:date>
    <dc:format>image/svg+xml</dc:format>
    <dc:creator>
     <cc:Agent>
      <dc:title>Matplotlib v3.10.3, https://matplotlib.org/</dc:title>
     </cc:Agent>
    </dc:creator>
   </cc:Work>
  </rdf:RDF>
 </metadata>
 <defs>
  <style type="text/css">*{stroke-linejoin: round; stroke-linecap: butt}</style>
 </defs>
 <g id="figure_1">
  <g id="patch_1">
   <path d="M 0 389.01 
L 730.235625 389.01 
L 730.235625 0 
L 0 0 
z
" style="fill: #ffffff"/>
  </g>
  <g id="axes_1">
   <g id="patch_2">
    <path d="M 53.435625 339.84 
L 723.035625 339.84 
L 723.035625 7.2 
L 53.435625 7.2 
z
" style="fill: #ffffff"/>
   </g>
   <g id="matplotlib.axis_1">
    <g id="xtick_1">
     <g id="line2d_1">
      <defs>
       <path id="m4f7f11b042" d="M 0 0 
L 0 3.5 
" style="stroke: #000000; stroke-width: 0.8"/>
      </defs>
      <g>
       <use xlink:href="#m4f7f11b042" x="83.871989" y="339.84" style="stroke: #000000; stroke-width: 0.8"/>
      </g>
     </g>
     <g id="text_1">
      <!-- 0 -->
      <g transform="translate(79.418239 357.477813) scale(0.14 -0.14)">
       <defs>
        <path id="DejaVuSans-30" d="M 2034 4250 
Q 1547 4250 1301 3770 
Q 1056 3291 1056 2328 
Q 1056 1369 1301 889 
Q 1547 409 2034 409 
Q 2525 409 2770 889 
Q 3016 1369 3016 2328 
Q 3016 3291 2770 3770 
Q 2525 4250 2034 4250 
z
M 2034 4750 
Q 2819 4750 3233 4129 
Q 3647 3509 3647 2328 
Q 3647 1150 3233 529 
Q 2819 -91 2034 -91 
Q 1250 -91 836 529 
Q 422 1150 422 2328 
Q 422 3509 836 4129 
Q 1250 4750 2034 4750 
z
" transform="scale(0.015625)"/>
       </defs>
       <use xlink:href="#DejaVuSans-30"/>
      </g>
     </g>
    </g>
    <g id="xtick_2">
     <g id="line2d_2">
      <g>
       <use xlink:href="#m4f7f11b042" x="205.861422" y="339.84" style="stroke: #000000; stroke-width: 0.8"/>
      </g>
     </g>
     <g id="text_2">
      <!-- 100 -->
      <g transform="translate(192.500172 357.477813) scale(0.14 -0.14)">
       <defs>
        <path id="DejaVuSans-31" d="M 794 531 
L 1825 531 
L 1825 4091 
L 703 3866 
L 703 4441 
L 1819 4666 
L 2450 4666 
L 2450 531 
L 3481 531 
L 3481 0 
L 794 0 
L 794 531 
z
" transform="scale(0.015625)"/>
       </defs>
       <use xlink:href="#DejaVuSans-31"/>
       <use xlink:href="#DejaVuSans-30" transform="translate(63.623047 0)"/>
       <use xlink:href="#DejaVuSans-30" transform="translate(127.246094 0)"/>
      </g>
     </g>
    </g>
    <g id="xtick_3">
     <g id="line2d_3">
      <g>
       <use xlink:href="#m4f7f11b042" x="327.850855" y="339.84" style="stroke: #000000; stroke-width: 0.8"/>
      </g>
     </g>
     <g id="text_3">
      <!-- 200 -->
      <g transform="translate(314.489605 357.477813) scale(0.14 -0.14)">
       <defs>
        <path id="DejaVuSans-32" d="M 1228 531 
L 3431 531 
L 3431 0 
L 469 0 
L 469 531 
Q 828 903 1448 1529 
Q 2069 2156 2228 2338 
Q 2531 2678 2651 2914 
Q 2772 3150 2772 3378 
Q 2772 3750 2511 3984 
Q 2250 4219 1831 4219 
Q 1534 4219 1204 4116 
Q 875 4013 500 3803 
L 500 4441 
Q 881 4594 1212 4672 
Q 1544 4750 1819 4750 
Q 2544 4750 2975 4387 
Q 3406 4025 3406 3419 
Q 3406 3131 3298 2873 
Q 3191 2616 2906 2266 
Q 2828 2175 2409 1742 
Q 1991 1309 1228 531 
z
" transform="scale(0.015625)"/>
       </defs>
       <use xlink:href="#DejaVuSans-32"/>
       <use xlink:href="#DejaVuSans-30" transform="translate(63.623047 0)"/>
       <use xlink:href="#DejaVuSans-30" transform="translate(127.246094 0)"/>
      </g>
     </g>
    </g>
    <g id="xtick_4">
     <g id="line2d_4">
      <g>
       <use xlink:href="#m4f7f11b042" x="449.840289" y="339.84" style="stroke: #000000; stroke-width: 0.8"/>
      </g>
     </g>
     <g id="text_4">
      <!-- 300 -->
      <g transform="translate(436.479039 357.477813) scale(0.14 -0.14)">
       <defs>
        <path id="DejaVuSans-33" d="M 2597 2516 
Q 3050 2419 3304 2112 
Q 3559 1806 3559 1356 
Q 3559 666 3084 287 
Q 2609 -91 1734 -91 
Q 1441 -91 1130 -33 
Q 819 25 488 141 
L 488 750 
Q 750 597 1062 519 
Q 1375 441 1716 441 
Q 2309 441 2620 675 
Q 2931 909 2931 1356 
Q 2931 1769 2642 2001 
Q 2353 2234 1838 2234 
L 1294 2234 
L 1294 2753 
L 1863 2753 
Q 2328 2753 2575 2939 
Q 2822 3125 2822 3475 
Q 2822 3834 2567 4026 
Q 2313 4219 1838 4219 
Q 1578 4219 1281 4162 
Q 984 4106 628 3988 
L 628 4550 
Q 988 4650 1302 4700 
Q 1616 4750 1894 4750 
Q 2613 4750 3031 4423 
Q 3450 4097 3450 3541 
Q 3450 3153 3228 2886 
Q 3006 2619 2597 2516 
z
" transform="scale(0.015625)"/>
       </defs>
       <use xlink:href="#DejaVuSans-33"/>
       <use xlink:href="#DejaVuSans-30" transform="translate(63.623047 0)"/>
       <use xlink:href="#DejaVuSans-30" transform="translate(127.246094 0)"/>
      </g>
     </g>
    </g>
    <g id="xtick_5">
     <g id="line2d_5">
      <g>
       <use xlink:href="#m4f7f11b042" x="571.829722" y="339.84" style="stroke: #000000; stroke-width: 0.8"/>
      </g>
     </g>
     <g id="text_5">
      <!-- 400 -->
      <g transform="translate(558.468472 357.477813) scale(0.14 -0.14)">
       <defs>
        <path id="DejaVuSans-34" d="M 2419 4116 
L 825 1625 
L 2419 1625 
L 2419 4116 
z
M 2253 4666 
L 3047 4666 
L 3047 1625 
L 3713 1625 
L 3713 1100 
L 3047 1100 
L 3047 0 
L 2419 0 
L 2419 1100 
L 313 1100 
L 313 1709 
L 2253 4666 
z
" transform="scale(0.015625)"/>
       </defs>
       <use xlink:href="#DejaVuSans-34"/>
       <use xlink:href="#DejaVuSans-30" transform="translate(63.623047 0)"/>
       <use xlink:href="#DejaVuSans-30" transform="translate(127.246094 0)"/>
      </g>
     </g>
    </g>
    <g id="xtick_6">
     <g id="line2d_6">
      <g>
       <use xlink:href="#m4f7f11b042" x="693.819156" y="339.84" style="stroke: #000000; stroke-width: 0.8"/>
      </g>
     </g>
     <g id="text_6">
      <!-- 500 -->
      <g transform="translate(680.457906 357.477813) scale(0.14 -0.14)">
       <defs>
        <path id="DejaVuSans-35" d="M 691 4666 
L 3169 4666 
L 3169 4134 
L 1269 4134 
L 1269 2991 
Q 1406 3038 1543 3061 
Q 1681 3084 1819 3084 
Q 2600 3084 3056 2656 
Q 3513 2228 3513 1497 
Q 3513 744 3044 326 
Q 2575 -91 1722 -91 
Q 1428 -91 1123 -41 
Q 819 9 494 109 
L 494 744 
Q 775 591 1075 516 
Q 1375 441 1709 441 
Q 2250 441 2565 725 
Q 2881 1009 2881 1497 
Q 2881 1984 2565 2268 
Q 2250 2553 1709 2553 
Q 1456 2553 1204 2497 
Q 953 2441 691 2322 
L 691 4666 
z
" transform="scale(0.015625)"/>
       </defs>
       <use xlink:href="#DejaVuSans-35"/>
       <use xlink:href="#DejaVuSans-30" transform="translate(63.623047 0)"/>
       <use xlink:href="#DejaVuSans-30" transform="translate(127.246094 0)"/>
      </g>
     </g>
    </g>
    <g id="text_7">
     <!-- Steps -->
     <g transform="translate(363.053906 378.066563) scale(0.18 -0.18)">
      <defs>
       <path id="DejaVuSans-53" d="M 3425 4513 
L 3425 3897 
Q 3066 4069 2747 4153 
Q 2428 4238 2131 4238 
Q 1616 4238 1336 4038 
Q 1056 3838 1056 3469 
Q 1056 3159 1242 3001 
Q 1428 2844 1947 2747 
L 2328 2669 
Q 3034 2534 3370 2195 
Q 3706 1856 3706 1288 
Q 3706 609 3251 259 
Q 2797 -91 1919 -91 
Q 1588 -91 1214 -16 
Q 841 59 441 206 
L 441 856 
Q 825 641 1194 531 
Q 1563 422 1919 422 
Q 2459 422 2753 634 
Q 3047 847 3047 1241 
Q 3047 1584 2836 1778 
Q 2625 1972 2144 2069 
L 1759 2144 
Q 1053 2284 737 2584 
Q 422 2884 422 3419 
Q 422 4038 858 4394 
Q 1294 4750 2059 4750 
Q 2388 4750 2728 4690 
Q 3069 4631 3425 4513 
z
" transform="scale(0.015625)"/>
       <path id="DejaVuSans-74" d="M 1172 4494 
L 1172 3500 
L 2356 3500 
L 2356 3053 
L 1172 3053 
L 1172 1153 
Q 1172 725 1289 603 
Q 1406 481 1766 481 
L 2356 481 
L 2356 0 
L 1766 0 
Q 1100 0 847 248 
Q 594 497 594 1153 
L 594 3053 
L 172 3053 
L 172 3500 
L 594 3500 
L 594 4494 
L 1172 4494 
z
" transform="scale(0.015625)"/>
       <path id="DejaVuSans-65" d="M 3597 1894 
L 3597 1613 
L 953 1613 
Q 991 1019 1311 708 
Q 1631 397 2203 397 
Q 2534 397 2845 478 
Q 3156 559 3463 722 
L 3463 178 
Q 3153 47 2828 -22 
Q 2503 -91 2169 -91 
Q 1331 -91 842 396 
Q 353 884 353 1716 
Q 353 2575 817 3079 
Q 1281 3584 2069 3584 
Q 2775 3584 3186 3129 
Q 3597 2675 3597 1894 
z
M 3022 2063 
Q 3016 2534 2758 2815 
Q 2500 3097 2075 3097 
Q 1594 3097 1305 2825 
Q 1016 2553 972 2059 
L 3022 2063 
z
" transform="scale(0.015625)"/>
       <path id="DejaVuSans-70" d="M 1159 525 
L 1159 -1331 
L 581 -1331 
L 581 3500 
L 1159 3500 
L 1159 2969 
Q 1341 3281 1617 3432 
Q 1894 3584 2278 3584 
Q 2916 3584 3314 3078 
Q 3713 2572 3713 1747 
Q 3713 922 3314 415 
Q 2916 -91 2278 -91 
Q 1894 -91 1617 61 
Q 1341 213 1159 525 
z
M 3116 1747 
Q 3116 2381 2855 2742 
Q 2594 3103 2138 3103 
Q 1681 3103 1420 2742 
Q 1159 2381 1159 1747 
Q 1159 1113 1420 752 
Q 1681 391 2138 391 
Q 2594 391 2855 752 
Q 3116 1113 3116 1747 
z
" transform="scale(0.015625)"/>
       <path id="DejaVuSans-73" d="M 2834 3397 
L 2834 2853 
Q 2591 2978 2328 3040 
Q 2066 3103 1784 3103 
Q 1356 3103 1142 2972 
Q 928 2841 928 2578 
Q 928 2378 1081 2264 
Q 1234 2150 1697 2047 
L 1894 2003 
Q 2506 1872 2764 1633 
Q 3022 1394 3022 966 
Q 3022 478 2636 193 
Q 2250 -91 1575 -91 
Q 1294 -91 989 -36 
Q 684 19 347 128 
L 347 722 
Q 666 556 975 473 
Q 1284 391 1588 391 
Q 1994 391 2212 530 
Q 2431 669 2431 922 
Q 2431 1156 2273 1281 
Q 2116 1406 1581 1522 
L 1381 1569 
Q 847 1681 609 1914 
Q 372 2147 372 2553 
Q 372 3047 722 3315 
Q 1072 3584 1716 3584 
Q 2034 3584 2315 3537 
Q 2597 3491 2834 3397 
z
" transform="scale(0.015625)"/>
      </defs>
      <use xlink:href="#DejaVuSans-53"/>
      <use xlink:href="#DejaVuSans-74" transform="translate(63.476562 0)"/>
      <use xlink:href="#DejaVuSans-65" transform="translate(102.685547 0)"/>
      <use xlink:href="#DejaVuSans-70" transform="translate(164.208984 0)"/>
      <use xlink:href="#DejaVuSans-73" transform="translate(227.685547 0)"/>
     </g>
    </g>
   </g>
   <g id="matplotlib.axis_2">
    <g id="ytick_1">
     <g id="line2d_7">
      <defs>
       <path id="m16582bf402" d="M 0 0 
L -3.5 0 
" style="stroke: #000000; stroke-width: 0.8"/>
      </defs>
      <g>
       <use xlink:href="#m16582bf402" x="53.435625" y="327.990096" style="stroke: #000000; stroke-width: 0.8"/>
      </g>
     </g>
     <g id="text_8">
      <!-- 0 -->
      <g transform="translate(37.528125 333.309002) scale(0.14 -0.14)">
       <use xlink:href="#DejaVuSans-30"/>
      </g>
     </g>
    </g>
    <g id="ytick_2">
     <g id="line2d_8">
      <g>
       <use xlink:href="#m16582bf402" x="53.435625" y="281.407536" style="stroke: #000000; stroke-width: 0.8"/>
      </g>
     </g>
     <g id="text_9">
      <!-- 10 -->
      <g transform="translate(28.620625 286.726443) scale(0.14 -0.14)">
       <use xlink:href="#DejaVuSans-31"/>
       <use xlink:href="#DejaVuSans-30" transform="translate(63.623047 0)"/>
      </g>
     </g>
    </g>
    <g id="ytick_3">
     <g id="line2d_9">
      <g>
       <use xlink:href="#m16582bf402" x="53.435625" y="234.824977" style="stroke: #000000; stroke-width: 0.8"/>
      </g>
     </g>
     <g id="text_10">
      <!-- 20 -->
      <g transform="translate(28.620625 240.143883) scale(0.14 -0.14)">
       <use xlink:href="#DejaVuSans-32"/>
       <use xlink:href="#DejaVuSans-30" transform="translate(63.623047 0)"/>
      </g>
     </g>
    </g>
    <g id="ytick_4">
     <g id="line2d_10">
      <g>
       <use xlink:href="#m16582bf402" x="53.435625" y="188.242418" style="stroke: #000000; stroke-width: 0.8"/>
      </g>
     </g>
     <g id="text_11">
      <!-- 30 -->
      <g transform="translate(28.620625 193.561324) scale(0.14 -0.14)">
       <use xlink:href="#DejaVuSans-33"/>
       <use xlink:href="#DejaVuSans-30" transform="translate(63.623047 0)"/>
      </g>
     </g>
    </g>
    <g id="ytick_5">
     <g id="line2d_11">
      <g>
       <use xlink:href="#m16582bf402" x="53.435625" y="141.659859" style="stroke: #000000; stroke-width: 0.8"/>
      </g>
     </g>
     <g id="text_12">
      <!-- 40 -->
      <g transform="translate(28.620625 146.978765) scale(0.14 -0.14)">
       <use xlink:href="#DejaVuSans-34"/>
       <use xlink:href="#DejaVuSans-30" transform="translate(63.623047 0)"/>
      </g>
     </g>
    </g>
    <g id="ytick_6">
     <g id="line2d_12">
      <g>
       <use xlink:href="#m16582bf402" x="53.435625" y="95.077299" style="stroke: #000000; stroke-width: 0.8"/>
      </g>
     </g>
     <g id="text_13">
      <!-- 50 -->
      <g transform="translate(28.620625 100.396206) scale(0.14 -0.14)">
       <use xlink:href="#DejaVuSans-35"/>
       <use xlink:href="#DejaVuSans-30" transform="translate(63.623047 0)"/>
      </g>
     </g>
    </g>
    <g id="ytick_7">
     <g id="line2d_13">
      <g>
       <use xlink:href="#m16582bf402" x="53.435625" y="48.49474" style="stroke: #000000; stroke-width: 0.8"/>
      </g>
     </g>
     <g id="text_14">
      <!-- 60 -->
      <g transform="translate(28.620625 53.813646) scale(0.14 -0.14)">
       <defs>
        <path id="DejaVuSans-36" d="M 2113 2584 
Q 1688 2584 1439 2293 
Q 1191 2003 1191 1497 
Q 1191 994 1439 701 
Q 1688 409 2113 409 
Q 2538 409 2786 701 
Q 3034 994 3034 1497 
Q 3034 2003 2786 2293 
Q 2538 2584 2113 2584 
z
M 3366 4563 
L 3366 3988 
Q 3128 4100 2886 4159 
Q 2644 4219 2406 4219 
Q 1781 4219 1451 3797 
Q 1122 3375 1075 2522 
Q 1259 2794 1537 2939 
Q 1816 3084 2150 3084 
Q 2853 3084 3261 2657 
Q 3669 2231 3669 1497 
Q 3669 778 3244 343 
Q 2819 -91 2113 -91 
Q 1303 -91 875 529 
Q 447 1150 447 2328 
Q 447 3434 972 4092 
Q 1497 4750 2381 4750 
Q 2619 4750 2861 4703 
Q 3103 4656 3366 4563 
z
" transform="scale(0.015625)"/>
       </defs>
       <use xlink:href="#DejaVuSans-36"/>
       <use xlink:href="#DejaVuSans-30" transform="translate(63.623047 0)"/>
      </g>
     </g>
    </g>
    <g id="text_15">
     <!-- % Optimal Action -->
     <g transform="translate(20.877187 251.587969) rotate(-90) scale(0.18 -0.18)">
      <defs>
       <path id="DejaVuSans-25" d="M 4653 2053 
Q 4381 2053 4226 1822 
Q 4072 1591 4072 1178 
Q 4072 772 4226 539 
Q 4381 306 4653 306 
Q 4919 306 5073 539 
Q 5228 772 5228 1178 
Q 5228 1588 5073 1820 
Q 4919 2053 4653 2053 
z
M 4653 2450 
Q 5147 2450 5437 2106 
Q 5728 1763 5728 1178 
Q 5728 594 5436 251 
Q 5144 -91 4653 -91 
Q 4153 -91 3862 251 
Q 3572 594 3572 1178 
Q 3572 1766 3864 2108 
Q 4156 2450 4653 2450 
z
M 1428 4353 
Q 1159 4353 1004 4120 
Q 850 3888 850 3481 
Q 850 3069 1003 2837 
Q 1156 2606 1428 2606 
Q 1700 2606 1854 2837 
Q 2009 3069 2009 3481 
Q 2009 3884 1853 4118 
Q 1697 4353 1428 4353 
z
M 4250 4750 
L 4750 4750 
L 1831 -91 
L 1331 -91 
L 4250 4750 
z
M 1428 4750 
Q 1922 4750 2215 4408 
Q 2509 4066 2509 3481 
Q 2509 2891 2217 2550 
Q 1925 2209 1428 2209 
Q 931 2209 642 2551 
Q 353 2894 353 3481 
Q 353 4063 643 4406 
Q 934 4750 1428 4750 
z
" transform="scale(0.015625)"/>
       <path id="DejaVuSans-20" transform="scale(0.015625)"/>
       <path id="DejaVuSans-4f" d="M 2522 4238 
Q 1834 4238 1429 3725 
Q 1025 3213 1025 2328 
Q 1025 1447 1429 934 
Q 1834 422 2522 422 
Q 3209 422 3611 934 
Q 4013 1447 4013 2328 
Q 4013 3213 3611 3725 
Q 3209 4238 2522 4238 
z
M 2522 4750 
Q 3503 4750 4090 4092 
Q 4678 3434 4678 2328 
Q 4678 1225 4090 567 
Q 3503 -91 2522 -91 
Q 1538 -91 948 565 
Q 359 1222 359 2328 
Q 359 3434 948 4092 
Q 1538 4750 2522 4750 
z
" transform="scale(0.015625)"/>
       <path id="DejaVuSans-69" d="M 603 3500 
L 1178 3500 
L 1178 0 
L 603 0 
L 603 3500 
z
M 603 4863 
L 1178 4863 
L 1178 4134 
L 603 4134 
L 603 4863 
z
" transform="scale(0.015625)"/>
       <path id="DejaVuSans-6d" d="M 3328 2828 
Q 3544 3216 3844 3400 
Q 4144 3584 4550 3584 
Q 5097 3584 5394 3201 
Q 5691 2819 5691 2113 
L 5691 0 
L 5113 0 
L 5113 2094 
Q 5113 2597 4934 2840 
Q 4756 3084 4391 3084 
Q 3944 3084 3684 2787 
Q 3425 2491 3425 1978 
L 3425 0 
L 2847 0 
L 2847 2094 
Q 2847 2600 2669 2842 
Q 2491 3084 2119 3084 
Q 1678 3084 1418 2786 
Q 1159 2488 1159 1978 
L 1159 0 
L 581 0 
L 581 3500 
L 1159 3500 
L 1159 2956 
Q 1356 3278 1631 3431 
Q 1906 3584 2284 3584 
Q 2666 3584 2933 3390 
Q 3200 3197 3328 2828 
z
" transform="scale(0.015625)"/>
       <path id="DejaVuSans-61" d="M 2194 1759 
Q 1497 1759 1228 1600 
Q 959 1441 959 1056 
Q 959 750 1161 570 
Q 1363 391 1709 391 
Q 2188 391 2477 730 
Q 2766 1069 2766 1631 
L 2766 1759 
L 2194 1759 
z
M 3341 1997 
L 3341 0 
L 2766 0 
L 2766 531 
Q 2569 213 2275 61 
Q 1981 -91 1556 -91 
Q 1019 -91 701 211 
Q 384 513 384 1019 
Q 384 1609 779 1909 
Q 1175 2209 1959 2209 
L 2766 2209 
L 2766 2266 
Q 2766 2663 2505 2880 
Q 2244 3097 1772 3097 
Q 1472 3097 1187 3025 
Q 903 2953 641 2809 
L 641 3341 
Q 956 3463 1253 3523 
Q 1550 3584 1831 3584 
Q 2591 3584 2966 3190 
Q 3341 2797 3341 1997 
z
" transform="scale(0.015625)"/>
       <path id="DejaVuSans-6c" d="M 603 4863 
L 1178 4863 
L 1178 0 
L 603 0 
L 603 4863 
z
" transform="scale(0.015625)"/>
       <path id="DejaVuSans-41" d="M 2188 4044 
L 1331 1722 
L 3047 1722 
L 2188 4044 
z
M 1831 4666 
L 2547 4666 
L 4325 0 
L 3669 0 
L 3244 1197 
L 1141 1197 
L 716 0 
L 50 0 
L 1831 4666 
z
" transform="scale(0.015625)"/>
       <path id="DejaVuSans-63" d="M 3122 3366 
L 3122 2828 
Q 2878 2963 2633 3030 
Q 2388 3097 2138 3097 
Q 1578 3097 1268 2742 
Q 959 2388 959 1747 
Q 959 1106 1268 751 
Q 1578 397 2138 397 
Q 2388 397 2633 464 
Q 2878 531 3122 666 
L 3122 134 
Q 2881 22 2623 -34 
Q 2366 -91 2075 -91 
Q 1284 -91 818 406 
Q 353 903 353 1747 
Q 353 2603 823 3093 
Q 1294 3584 2113 3584 
Q 2378 3584 2631 3529 
Q 2884 3475 3122 3366 
z
" transform="scale(0.015625)"/>
       <path id="DejaVuSans-6f" d="M 1959 3097 
Q 1497 3097 1228 2736 
Q 959 2375 959 1747 
Q 959 1119 1226 758 
Q 1494 397 1959 397 
Q 2419 397 2687 759 
Q 2956 1122 2956 1747 
Q 2956 2369 2687 2733 
Q 2419 3097 1959 3097 
z
M 1959 3584 
Q 2709 3584 3137 3096 
Q 3566 2609 3566 1747 
Q 3566 888 3137 398 
Q 2709 -91 1959 -91 
Q 1206 -91 779 398 
Q 353 888 353 1747 
Q 353 2609 779 3096 
Q 1206 3584 1959 3584 
z
" transform="scale(0.015625)"/>
       <path id="DejaVuSans-6e" d="M 3513 2113 
L 3513 0 
L 2938 0 
L 2938 2094 
Q 2938 2591 2744 2837 
Q 2550 3084 2163 3084 
Q 1697 3084 1428 2787 
Q 1159 2491 1159 1978 
L 1159 0 
L 581 0 
L 581 3500 
L 1159 3500 
L 1159 2956 
Q 1366 3272 1645 3428 
Q 1925 3584 2291 3584 
Q 2894 3584 3203 3211 
Q 3513 2838 3513 2113 
z
" transform="scale(0.015625)"/>
      </defs>
      <use xlink:href="#DejaVuSans-25"/>
      <use xlink:href="#DejaVuSans-20" transform="translate(95.019531 0)"/>
      <use xlink:href="#DejaVuSans-4f" transform="translate(126.806641 0)"/>
      <use xlink:href="#DejaVuSans-70" transform="translate(205.517578 0)"/>
      <use xlink:href="#DejaVuSans-74" transform="translate(268.994141 0)"/>
      <use xlink:href="#DejaVuSans-69" transform="translate(308.203125 0)"/>
      <use xlink:href="#DejaVuSans-6d" transform="translate(335.986328 0)"/>
      <use xlink:href="#DejaVuSans-61" transform="translate(433.398438 0)"/>
      <use xlink:href="#DejaVuSans-6c" transform="translate(494.677734 0)"/>
      <use xlink:href="#DejaVuSans-20" transform="translate(522.460938 0)"/>
      <use xlink:href="#DejaVuSans-41" transform="translate(554.248047 0)"/>
      <use xlink:href="#DejaVuSans-63" transform="translate(620.90625 0)"/>
      <use xlink:href="#DejaVuSans-74" transform="translate(675.886719 0)"/>
      <use xlink:href="#DejaVuSans-69" transform="translate(715.095703 0)"/>
      <use xlink:href="#DejaVuSans-6f" transform="translate(742.878906 0)"/>
      <use xlink:href="#DejaVuSans-6e" transform="translate(804.060547 0)"/>
     </g>
    </g>
   </g>
   <g id="line2d_14">
    <path d="M 83.871989 281.230523 
L 85.091883 280.820596 
L 86.311777 281.416853 
L 87.531672 281.305055 
L 88.751566 281.659082 
L 89.97146 281.510018 
L 91.191355 281.155991 
L 92.411249 281.244497 
L 93.631143 282.930786 
L 94.851038 280.801963 
L 96.070932 125.775206 
L 97.290826 228.582914 
L 98.510721 267.735555 
L 99.730615 288.758264 
L 100.950509 301.610392 
L 102.170404 311.117893 
L 103.390298 317.37393 
L 104.610192 321.314815 
L 105.830087 324.314732 
L 107.049981 324.72 
L 108.269875 80.944151 
L 109.48977 187.716035 
L 110.709664 221.348643 
L 111.929558 233.511349 
L 113.149453 234.079656 
L 114.369347 232.453925 
L 115.589241 226.53794 
L 116.809136 216.480765 
L 118.02903 207.588155 
L 120.468819 185.871366 
L 121.688713 177.267567 
L 122.908607 167.713484 
L 125.348396 154.754216 
L 126.56829 146.27619 
L 129.008079 134.802906 
L 130.227973 129.921054 
L 131.447868 125.686699 
L 133.887656 115.559651 
L 135.107551 112.238314 
L 136.327445 108.139049 
L 137.547339 105.381361 
L 138.767234 102.255672 
L 139.987128 98.748005 
L 142.426917 93.912735 
L 143.646811 90.805679 
L 144.866705 88.551083 
L 146.0866 86.79492 
L 147.306494 83.222038 
L 148.526388 81.461217 
L 149.746283 80.41311 
L 150.966177 79.821511 
L 152.186071 77.222204 
L 153.405966 76.607315 
L 155.845754 74.087198 
L 157.065649 73.202129 
L 158.285543 71.548449 
L 159.505437 70.346619 
L 160.725332 70.053148 
L 161.945226 70.095073 
L 163.16512 69.303169 
L 164.385015 68.879268 
L 165.604909 67.947617 
L 166.824803 68.669646 
L 168.044698 68.068731 
L 169.264592 66.074998 
L 170.484486 67.006649 
L 171.704381 66.265986 
L 172.924275 66.135555 
L 174.144169 66.242695 
L 175.364064 66.559457 
L 176.583958 66.410392 
L 177.803852 65.366943 
L 179.023747 66.000466 
L 180.243641 65.651097 
L 181.463535 66.503557 
L 182.68343 67.83116 
L 183.903324 65.93525 
L 187.563007 65.697679 
L 188.782901 66.126239 
L 190.002796 66.773736 
L 191.22269 66.242695 
L 192.442584 66.36381 
L 194.882373 67.043915 
L 196.102267 66.769078 
L 197.322162 67.113789 
L 198.542056 67.179005 
L 199.76195 67.425892 
L 200.981845 67.910351 
L 202.201739 68.185188 
L 203.421633 67.784578 
L 204.641528 67.970908 
L 205.861422 68.012832 
L 207.081316 68.185188 
L 208.301211 67.887059 
L 209.521105 68.143264 
L 210.740999 68.618406 
L 211.960894 69.773653 
L 213.180788 70.090415 
L 214.400682 70.090415 
L 215.620577 71.152497 
L 216.840471 71.026724 
L 218.060365 71.09194 
L 219.28026 71.655589 
L 220.500154 71.585715 
L 221.720048 70.789153 
L 222.939943 71.012749 
L 225.379731 72.503391 
L 227.81952 72.643139 
L 229.039414 72.508049 
L 231.479203 73.099648 
L 232.699097 73.150889 
L 233.918992 72.927292 
L 235.138886 72.876052 
L 236.35878 72.680405 
L 237.578675 72.768912 
L 238.798569 73.449017 
L 240.018463 73.276662 
L 241.238358 73.89621 
L 243.678146 73.532866 
L 246.117935 73.86826 
L 247.337829 73.327902 
L 250.997512 73.397776 
L 252.217407 73.25337 
L 253.437301 73.383801 
L 254.657195 73.770437 
L 255.87709 73.472308 
L 257.096984 72.9599 
L 258.316878 72.955242 
L 259.536773 73.304611 
L 260.756667 73.150889 
L 261.976561 73.299953 
L 263.196456 73.188155 
L 264.41635 72.838786 
L 265.636244 72.624506 
L 266.856139 72.591898 
L 268.076033 72.722329 
L 269.295927 73.039091 
L 270.515822 72.820153 
L 271.735716 72.806178 
L 272.95561 73.46765 
L 274.175505 72.801519 
L 275.395399 72.983191 
L 276.615293 72.9599 
L 277.835188 73.272003 
L 279.055082 72.563948 
L 280.274976 72.326377 
L 281.494871 72.740962 
L 282.714765 71.883843 
L 283.934659 72.331036 
L 285.154554 72.410226 
L 286.374448 72.191288 
L 287.594342 72.796861 
L 288.814237 72.945925 
L 290.034131 72.647797 
L 291.254025 73.001824 
L 292.47392 73.039091 
L 293.693814 72.88071 
L 294.913708 72.466125 
L 296.133603 72.470783 
L 297.353497 72.326377 
L 298.573391 72.568607 
L 299.793286 72.522024 
L 301.01318 71.949059 
L 302.233074 72.512708 
L 303.452969 72.121414 
L 304.672863 71.567082 
L 307.112652 71.655589 
L 308.332546 71.259637 
L 309.55244 70.714621 
L 310.772335 70.928901 
L 311.992229 70.737912 
L 313.212123 70.314011 
L 315.651912 70.467733 
L 316.871806 69.973958 
L 318.091701 69.94135 
L 319.311595 70.216187 
L 320.531489 70.127681 
L 321.751384 69.643222 
L 322.971278 68.897901 
L 325.411067 68.664988 
L 326.630961 68.613747 
L 327.850855 69.24727 
L 329.07075 69.27522 
L 330.290644 68.664988 
L 331.510538 68.637039 
L 332.730433 69.005041 
L 333.950327 69.019016 
L 335.170221 69.256587 
L 336.390116 69.14013 
L 337.61001 69.144789 
L 338.829904 68.711571 
L 340.049799 68.399468 
L 341.269693 68.450708 
L 342.489587 68.105998 
L 343.709482 67.998858 
L 344.929376 67.4585 
L 346.14927 67.64483 
L 347.369165 66.633989 
L 348.589059 67.081181 
L 349.808953 67.118447 
L 351.028848 66.489583 
L 354.688531 66.154188 
L 355.908425 65.66973 
L 357.128319 65.655755 
L 358.348214 65.767553 
L 359.568108 66.135555 
L 360.788002 66.014441 
L 362.007897 66.168163 
L 363.227791 65.809477 
L 364.447685 66.130897 
L 365.66758 65.199246 
L 368.107368 64.896459 
L 369.327263 65.031549 
L 370.547157 64.970991 
L 371.767051 64.607647 
L 372.986946 63.978783 
L 374.20684 64.207037 
L 375.426734 63.899592 
L 376.646629 63.969466 
L 381.526206 63.205512 
L 382.7461 63.629414 
L 383.965995 63.517615 
L 385.185889 63.154271 
L 386.405783 63.457058 
L 388.845572 63.186879 
L 390.065467 62.488141 
L 391.285361 62.059581 
L 392.505255 62.185354 
L 393.72515 61.579781 
L 396.164938 61.794061 
L 397.384833 61.593756 
L 398.604727 61.55649 
L 399.824621 60.885701 
L 401.044516 60.587572 
L 402.26441 61.006815 
L 404.704199 61.26302 
L 405.924093 60.298761 
L 407.143987 60.238203 
L 408.363882 59.949391 
L 409.583776 59.84691 
L 410.80367 58.971158 
L 412.023565 59.23202 
L 413.243459 58.584522 
L 414.463353 58.626447 
L 415.683248 58.887309 
L 418.123036 58.132672 
L 419.342931 57.92305 
L 420.562825 57.941683 
L 421.782719 56.888917 
L 423.002614 57.242945 
L 424.222508 56.74917 
L 425.442402 56.711904 
L 426.662297 56.297319 
L 427.882191 56.767803 
L 429.102085 55.528707 
L 430.32198 55.384301 
L 432.761768 55.393617 
L 433.981663 55.924658 
L 435.201557 55.663796 
L 436.421451 55.151388 
L 437.641346 54.312902 
L 438.86124 54.364143 
L 440.081134 54.541156 
L 441.301029 54.312902 
L 442.520923 54.536498 
L 443.740817 54.909158 
L 444.960712 54.895184 
L 446.180606 54.648296 
L 447.4005 54.527181 
L 448.620395 54.839285 
L 449.840289 54.536498 
L 451.060183 54.452649 
L 452.280078 54.727486 
L 453.499972 54.625005 
L 454.719866 53.982166 
L 455.939761 53.739936 
L 458.379549 53.898317 
L 459.599444 54.145204 
L 460.819338 53.851734 
L 462.039232 53.264794 
L 463.259127 53.334668 
L 464.479021 52.989957 
L 465.698915 52.435625 
L 466.91881 52.784994 
L 468.138704 52.691829 
L 469.358598 52.389042 
L 470.578493 52.766361 
L 471.798387 52.160787 
L 473.018281 51.774152 
L 476.677964 51.108022 
L 477.897859 51.024173 
L 480.337647 50.646854 
L 481.557542 50.758652 
L 482.777436 50.241586 
L 485.217225 49.920166 
L 487.657013 50.101838 
L 490.096802 49.365834 
L 491.316696 49.156212 
L 492.536591 49.281985 
L 493.756485 49.090997 
L 494.976379 49.235403 
L 497.416168 49.174845 
L 498.636062 48.718336 
L 499.855957 48.41555 
L 501.075851 48.322385 
L 502.295745 47.828609 
L 503.51564 47.917116 
L 504.735534 48.243194 
L 505.955428 48.429524 
L 507.175323 48.853426 
L 508.395217 48.625171 
L 509.615111 48.583247 
L 510.835006 48.215245 
L 512.0549 48.327043 
L 513.274794 47.861217 
L 514.494689 47.931091 
L 515.714583 47.3721 
L 516.934477 47.688862 
L 518.154372 47.744761 
L 519.374266 47.278935 
L 520.59416 47.032048 
L 523.033949 47.227694 
L 524.253843 46.510323 
L 526.693632 46.514981 
L 527.913526 46.226169 
L 529.133421 45.648546 
L 530.353315 45.657862 
L 531.573209 45.886117 
L 532.793104 45.601963 
L 534.012998 45.480848 
L 535.232892 45.592647 
L 536.452787 45.331784 
L 537.672681 44.921858 
L 538.892575 45.280543 
L 540.11247 45.518115 
L 541.332364 45.448241 
L 542.552258 44.56783 
L 543.772153 44.78211 
L 544.992047 44.516589 
L 546.211941 44.507273 
L 547.431836 44.083372 
L 548.65173 44.507273 
L 551.091519 44.064739 
L 552.311413 44.106663 
L 553.531307 44.018156 
L 554.751202 44.097346 
L 560.850673 42.462299 
L 562.070568 42.364475 
L 563.290462 42.578755 
L 565.730251 41.893991 
L 566.950145 42.00579 
L 568.170039 41.623813 
L 569.389934 41.921941 
L 570.609828 41.120721 
L 571.829722 40.766693 
L 573.049617 40.845884 
L 575.489405 40.421983 
L 576.7093 40.557072 
L 577.929194 40.529122 
L 580.368983 39.942182 
L 581.588877 40.012056 
L 582.808771 39.909574 
L 584.028666 39.68132 
L 585.24856 40.05398 
L 587.688349 40.240311 
L 588.908243 40.026031 
L 591.348032 38.554022 
L 592.567926 38.721719 
L 593.78782 38.675137 
L 597.447503 39.043139 
L 599.887292 39.17357 
L 602.327081 38.856809 
L 604.766869 38.614579 
L 605.986764 38.735694 
L 607.206658 38.47949 
L 610.866341 38.153412 
L 613.30613 37.338217 
L 616.965813 37.347534 
L 618.185707 37.729511 
L 620.625496 36.863075 
L 621.84539 36.797859 
L 626.724967 35.884841 
L 627.944862 35.419016 
L 629.164756 35.339825 
L 630.38465 35.046355 
L 631.604545 34.934557 
L 632.824439 35.088279 
L 634.044333 34.878658 
L 635.264228 34.887974 
L 636.484122 34.692328 
L 637.704016 34.790151 
L 638.923911 34.65972 
L 640.143805 34.175261 
L 642.583594 33.93769 
L 643.803488 34.026197 
L 645.023382 33.774651 
L 646.243277 33.825892 
L 647.463171 33.476523 
L 648.683065 33.010697 
L 649.90296 33.006039 
L 651.122854 33.592979 
L 652.342748 33.141129 
L 654.782537 33.527764 
L 656.002431 33.383358 
L 657.222326 32.731202 
L 658.44222 32.689278 
L 659.662114 32.810392 
L 660.882009 32.321275 
L 662.101903 32.195503 
L 664.541692 32.479656 
L 665.761586 32.209477 
L 666.98148 32.195503 
L 668.201375 31.869425 
L 670.641163 31.911349 
L 671.861058 31.329067 
L 673.080952 31.384966 
L 674.300846 31.124104 
L 676.740635 31.012306 
L 677.960529 31.166028 
L 679.180424 30.937773 
L 680.400318 30.94709 
L 681.620212 30.560455 
L 682.840107 30.481264 
L 684.060001 30.243693 
L 685.279895 30.504556 
L 686.49979 30.155186 
L 687.719684 30.071338 
L 688.939578 30.122579 
L 690.159473 30.029414 
L 691.379367 29.82445 
L 692.599261 30.015439 
L 692.599261 30.015439 
" clip-path="url(#pd7bbd19c6b)" style="fill: none; stroke: #1f77b4; stroke-width: 1.5; stroke-linecap: square"/>
   </g>
   <g id="line2d_15">
    <path d="M 83.871989 281.286422 
L 85.091883 262.243472 
L 86.311777 248.4923 
L 87.531672 237.261245 
L 88.751566 227.655921 
L 89.97146 219.559872 
L 92.411249 206.814884 
L 93.631143 201.602296 
L 94.851038 197.680044 
L 96.070932 192.821483 
L 98.510721 185.596528 
L 99.730615 183.416465 
L 100.950509 180.486422 
L 104.610192 173.839091 
L 107.049981 170.312791 
L 108.269875 168.174651 
L 109.48977 167.093936 
L 110.709664 165.831549 
L 111.929558 164.373514 
L 113.149453 162.715175 
L 114.369347 162.193451 
L 115.589241 160.591011 
L 118.02903 158.173376 
L 119.248924 158.061578 
L 120.468819 156.915647 
L 121.688713 155.261966 
L 122.908607 154.353606 
L 124.128502 153.151776 
L 125.348396 152.970104 
L 127.788185 151.470146 
L 129.008079 150.408063 
L 130.227973 149.7233 
L 131.447868 148.633268 
L 132.667762 148.269924 
L 133.887656 147.39883 
L 135.107551 147.030828 
L 136.327445 146.266874 
L 137.547339 145.297956 
L 138.767234 144.492078 
L 139.987128 144.664434 
L 141.207022 142.77784 
L 142.426917 142.903613 
L 143.646811 141.89743 
L 144.866705 142.027861 
L 146.0866 141.394338 
L 147.306494 140.253065 
L 148.526388 140.071393 
L 149.746283 139.507744 
L 150.966177 138.524852 
L 152.186071 137.798164 
L 153.405966 137.667733 
L 154.62586 137.001603 
L 155.845754 136.903779 
L 157.065649 135.804431 
L 159.505437 135.296681 
L 160.725332 134.299814 
L 161.945226 133.955103 
L 163.16512 133.293631 
L 164.385015 133.773431 
L 165.604909 132.306081 
L 166.824803 132.184966 
L 169.264592 130.820097 
L 170.484486 130.694324 
L 171.704381 130.312347 
L 172.924275 129.748698 
L 176.583958 128.747173 
L 177.803852 128.071726 
L 179.023747 128.099676 
L 180.243641 127.032935 
L 181.463535 127.209949 
L 182.68343 126.991011 
L 183.903324 125.453786 
L 186.343113 125.500369 
L 187.563007 124.862188 
L 188.782901 124.731757 
L 190.002796 124.163449 
L 191.22269 123.343596 
L 192.442584 123.320305 
L 193.662479 122.463186 
L 194.882373 122.770631 
L 196.102267 122.635541 
L 197.322162 121.466319 
L 200.981845 120.455478 
L 202.201739 120.884037 
L 203.421633 119.281597 
L 204.641528 119.225698 
L 205.861422 118.396528 
L 207.081316 118.326655 
L 208.301211 117.716423 
L 209.521105 117.679157 
L 210.740999 117.334446 
L 211.960894 116.81738 
L 213.180788 116.700923 
L 214.400682 116.109325 
L 215.620577 115.969577 
L 216.840471 115.219598 
L 218.060365 114.926128 
L 219.28026 114.823646 
L 220.500154 114.870229 
L 221.720048 114.129566 
L 222.939943 114.204098 
L 226.599626 112.326821 
L 232.699097 110.207315 
L 233.918992 110.999218 
L 235.138886 109.988377 
L 236.35878 109.862604 
L 237.578675 109.406095 
L 238.798569 109.117283 
L 241.238358 108.097125 
L 242.458252 107.971352 
L 243.678146 107.500868 
L 244.898041 107.584716 
L 246.117935 106.462077 
L 247.337829 106.215189 
L 248.557724 106.448102 
L 250.997512 105.297513 
L 252.217407 104.943485 
L 253.437301 104.803738 
L 254.657195 104.007176 
L 255.87709 103.997859 
L 257.096984 103.308438 
L 258.316878 103.606566 
L 259.536773 102.754105 
L 260.756667 102.726156 
L 261.976561 102.483926 
L 263.196456 102.945094 
L 264.41635 101.896986 
L 265.636244 101.091108 
L 268.076033 100.993284 
L 269.295927 100.592674 
L 270.515822 100.494851 
L 271.735716 99.819404 
L 272.95561 100.038342 
L 274.175505 98.515092 
L 275.395399 98.73403 
L 276.615293 98.743347 
L 277.835188 98.272863 
L 279.055082 97.378478 
L 280.274976 97.117615 
L 282.714765 97.248047 
L 283.934659 96.614524 
L 285.154554 96.558625 
L 286.374448 96.274471 
L 287.594342 96.218572 
L 288.814237 96.689056 
L 290.034131 95.147173 
L 291.254025 95.282263 
L 292.47392 94.672031 
L 293.693814 94.318004 
L 296.133603 93.884786 
L 297.353497 93.628582 
L 299.793286 93.353745 
L 303.452969 92.151915 
L 304.672863 91.485784 
L 305.892757 91.839811 
L 308.332546 90.64264 
L 311.992229 90.10694 
L 313.212123 90.204764 
L 314.432018 89.701672 
L 315.651912 88.634931 
L 316.871806 89.114732 
L 318.091701 88.686172 
L 319.311595 88.099232 
L 321.751384 87.745204 
L 322.971278 87.120998 
L 324.191172 87.167581 
L 325.411067 86.575982 
L 326.630961 86.212638 
L 327.850855 86.268537 
L 331.510538 85.504583 
L 332.730433 85.430051 
L 333.950327 84.647464 
L 335.170221 84.461134 
L 336.390116 84.088474 
L 337.61001 84.116423 
L 338.829904 83.916118 
L 340.049799 83.194088 
L 341.269693 83.413026 
L 342.489587 83.068316 
L 343.709482 82.159956 
L 344.929376 82.588515 
L 346.14927 81.670839 
L 347.369165 82.062132 
L 348.589059 81.596307 
L 349.808953 81.936359 
L 351.028848 80.776454 
L 352.248742 80.222121 
L 353.468636 80.450376 
L 354.688531 80.138273 
L 355.908425 80.245412 
L 357.128319 79.39761 
L 359.568108 78.726821 
L 360.788002 79.346369 
L 362.007897 78.00945 
L 363.227791 78.354161 
L 365.66758 77.268787 
L 368.107368 77.278103 
L 371.767051 76.146147 
L 374.20684 75.57784 
L 375.426734 75.153939 
L 376.646629 75.139964 
L 377.866523 74.431909 
L 379.086417 75.186547 
L 380.306312 74.008008 
L 381.526206 73.994033 
L 382.7461 73.686588 
L 383.965995 72.74562 
L 385.185889 73.071698 
L 386.405783 72.195946 
L 387.625678 72.768912 
L 388.845572 72.9599 
L 391.285361 71.869868 
L 392.505255 71.744095 
L 393.72515 71.907134 
L 396.164938 70.952192 
L 397.384833 71.38541 
L 398.604727 70.360593 
L 399.824621 70.551582 
L 401.044516 70.118364 
L 402.26441 70.775178 
L 403.484304 69.978616 
L 404.704199 69.456892 
L 405.924093 69.340435 
L 407.143987 67.998858 
L 408.363882 69.298511 
L 409.583776 68.869951 
L 410.80367 68.227112 
L 412.023565 68.138605 
L 413.243459 67.686754 
L 414.463353 67.439867 
L 415.683248 66.932117 
L 416.903142 66.890193 
L 418.123036 66.47095 
L 419.342931 66.307911 
L 420.562825 66.526849 
L 421.782719 65.436817 
L 423.002614 65.660413 
L 425.442402 64.961675 
L 426.662297 64.91975 
L 427.882191 64.528457 
L 429.102085 64.598331 
L 430.32198 63.950833 
L 431.541874 64.416659 
L 432.761768 63.578173 
L 436.421451 63.363893 
L 437.641346 62.618572 
L 438.86124 62.851485 
L 440.081134 62.292494 
L 441.301029 61.989707 
L 442.520923 62.087531 
L 443.740817 61.216437 
L 444.960712 61.999024 
L 446.180606 60.988182 
L 447.4005 60.83446 
L 448.620395 61.044082 
L 449.840289 60.568939 
L 451.060183 60.829802 
L 453.499972 60.028582 
L 454.719866 60.023923 
L 455.939761 58.659054 
L 457.159655 59.590706 
L 458.379549 59.003765 
L 459.599444 58.593839 
L 460.819338 58.440116 
L 462.039232 58.551915 
L 463.259127 58.309685 
L 464.479021 58.365584 
L 465.698915 58.197887 
L 466.91881 57.503807 
L 468.138704 56.972766 
L 469.358598 57.638896 
L 470.578493 56.21347 
L 471.798387 56.618738 
L 473.018281 56.334585 
L 474.238176 55.393617 
L 475.45807 55.533365 
L 476.677964 55.347035 
L 477.897859 55.770936 
L 479.117753 55.249211 
L 480.337647 55.100147 
L 481.557542 55.142071 
L 482.777436 54.340851 
L 483.99733 54.662271 
L 485.217225 54.671587 
L 486.437119 54.154521 
L 490.096802 53.255478 
L 491.316696 53.166971 
L 492.536591 52.892134 
L 493.756485 52.188737 
L 494.976379 51.876634 
L 496.196274 52.174762 
L 497.416168 52.221345 
L 498.636062 52.142154 
L 499.855957 51.573847 
L 501.075851 51.480682 
L 502.295745 50.348726 
L 503.51564 50.982249 
L 504.735534 50.81921 
L 505.955428 50.507107 
L 507.175323 50.665487 
L 508.395217 50.623563 
L 509.615111 49.822343 
L 512.0549 50.106497 
L 514.494689 48.909325 
L 516.934477 49.137579 
L 518.154372 48.457474 
L 519.374266 47.945066 
L 520.59416 47.72147 
L 521.814055 47.32086 
L 523.033949 47.209061 
L 524.253843 48.080155 
L 525.473738 47.278935 
L 526.693632 47.567747 
L 527.913526 47.353467 
L 529.133421 47.339493 
L 530.353315 46.86435 
L 531.573209 46.822426 
L 534.012998 45.909408 
L 535.232892 46.533614 
L 536.452787 44.828693 
L 537.672681 46.007231 
L 538.892575 45.350417 
L 540.11247 44.362867 
L 541.332364 45.233961 
L 542.552258 44.292993 
L 543.772153 44.181195 
L 544.992047 43.729344 
L 546.211941 44.288335 
L 548.65173 43.9017 
L 551.091519 42.914149 
L 552.311413 43.216936 
L 554.751202 42.392425 
L 555.971096 42.317893 
L 557.19099 42.411058 
L 558.410885 42.187462 
L 559.630779 40.948365 
L 560.850673 41.563255 
L 562.070568 41.442141 
L 563.290462 41.134696 
L 564.510356 41.432824 
L 565.730251 40.128512 
L 566.950145 40.780668 
L 568.170039 41.111404 
L 570.609828 39.317976 
L 571.829722 39.630079 
L 573.049617 39.397166 
L 574.269511 38.77296 
L 576.7093 38.763643 
L 577.929194 39.099038 
L 581.588877 38.153412 
L 582.808771 38.591288 
L 585.24856 37.417407 
L 586.468454 37.715536 
L 588.908243 37.175178 
L 590.128137 37.594421 
L 591.348032 37.645662 
L 592.567926 36.327376 
L 595.007715 36.099121 
L 596.227609 35.86155 
L 597.447503 35.749752 
L 598.667398 35.335167 
L 602.327081 35.195419 
L 603.546975 35.092938 
L 604.766869 34.510656 
L 605.986764 34.790151 
L 608.426552 34.226502 
L 609.646447 33.555713 
L 610.866341 34.352275 
L 612.086235 33.518447 
L 614.526024 33.13647 
L 615.745918 33.825892 
L 616.965813 33.080571 
L 618.185707 32.838342 
L 620.625496 31.953273 
L 621.84539 32.293326 
L 623.065284 32.023147 
L 624.285179 32.284009 
L 625.505073 31.398941 
L 626.724967 31.16137 
L 627.944862 32.093021 
L 629.164756 31.832159 
L 630.38465 31.193978 
L 631.604545 31.31975 
L 632.824439 30.397416 
L 634.044333 31.049572 
L 635.264228 30.14587 
L 636.484122 30.369466 
L 637.704016 30.057363 
L 638.923911 29.903641 
L 640.143805 30.499897 
L 641.363699 29.787184 
L 642.583594 28.664545 
L 643.803488 29.111737 
L 645.023382 29.037205 
L 646.243277 28.361758 
L 647.463171 28.822925 
L 648.683065 28.65057 
L 649.90296 28.3571 
L 651.122854 28.860191 
L 652.342748 27.709602 
L 653.562643 26.950306 
L 654.782537 27.942515 
L 656.002431 27.472031 
L 657.222326 26.600937 
L 658.44222 26.987572 
L 659.662114 26.610254 
L 660.882009 26.666153 
L 662.101903 27.248435 
L 663.321797 26.358708 
L 666.98148 25.860275 
L 668.201375 25.301284 
L 669.421269 26.009339 
L 670.641163 25.501589 
L 671.861058 25.823008 
L 673.080952 25.021788 
L 674.300846 25.091662 
L 675.520741 24.905332 
L 676.740635 24.299759 
L 677.960529 24.076162 
L 679.180424 24.24386 
L 680.400318 23.503197 
L 681.620212 23.470589 
L 684.060001 23.880516 
L 685.279895 23.368108 
L 686.49979 23.661578 
L 687.719684 23.074637 
L 688.939578 22.74856 
L 690.159473 22.776509 
L 691.379367 22.967498 
L 692.599261 22.32 
L 692.599261 22.32 
" clip-path="url(#pd7bbd19c6b)" style="fill: none; stroke: #ff7f0e; stroke-width: 1.5; stroke-linecap: square"/>
   </g>
   <g id="patch_3">
    <path d="M 53.435625 339.84 
L 53.435625 7.2 
" style="fill: none; stroke: #000000; stroke-width: 0.8; stroke-linejoin: miter; stroke-linecap: square"/>
   </g>
   <g id="patch_4">
    <path d="M 723.035625 339.84 
L 723.035625 7.2 
" style="fill: none; stroke: #000000; stroke-width: 0.8; stroke-linejoin: miter; stroke-linecap: square"/>
   </g>
   <g id="patch_5">
    <path d="M 53.435625 339.84 
L 723.035625 339.84 
" style="fill: none; stroke: #000000; stroke-width: 0.8; stroke-linejoin: miter; stroke-linecap: square"/>
   </g>
   <g id="patch_6">
    <path d="M 53.435625 7.2 
L 723.035625 7.2 
" style="fill: none; stroke: #000000; stroke-width: 0.8; stroke-linejoin: miter; stroke-linecap: square"/>
   </g>
   <g id="legend_1">
    <g id="patch_7">
     <path d="M 518.715625 331.84 
L 711.835625 331.84 
Q 715.035625 331.84 715.035625 328.64 
L 715.035625 283.235 
Q 715.035625 280.035 711.835625 280.035 
L 518.715625 280.035 
Q 515.515625 280.035 515.515625 283.235 
L 515.515625 328.64 
Q 515.515625 331.84 518.715625 331.84 
z
" style="fill: #ffffff; opacity: 0.8; stroke: #cccccc; stroke-linejoin: miter"/>
    </g>
    <g id="line2d_16">
     <path d="M 521.915625 292.9925 
L 537.915625 292.9925 
L 553.915625 292.9925 
" style="fill: none; stroke: #1f77b4; stroke-width: 1.5; stroke-linecap: square"/>
    </g>
    <g id="text_16">
     <!-- UCB ($c=2$) -->
     <g transform="translate(566.715625 298.5925) scale(0.16 -0.16)">
      <defs>
       <path id="DejaVuSans-55" d="M 556 4666 
L 1191 4666 
L 1191 1831 
Q 1191 1081 1462 751 
Q 1734 422 2344 422 
Q 2950 422 3222 751 
Q 3494 1081 3494 1831 
L 3494 4666 
L 4128 4666 
L 4128 1753 
Q 4128 841 3676 375 
Q 3225 -91 2344 -91 
Q 1459 -91 1007 375 
Q 556 841 556 1753 
L 556 4666 
z
" transform="scale(0.015625)"/>
       <path id="DejaVuSans-43" d="M 4122 4306 
L 4122 3641 
Q 3803 3938 3442 4084 
Q 3081 4231 2675 4231 
Q 1875 4231 1450 3742 
Q 1025 3253 1025 2328 
Q 1025 1406 1450 917 
Q 1875 428 2675 428 
Q 3081 428 3442 575 
Q 3803 722 4122 1019 
L 4122 359 
Q 3791 134 3420 21 
Q 3050 -91 2638 -91 
Q 1578 -91 968 557 
Q 359 1206 359 2328 
Q 359 3453 968 4101 
Q 1578 4750 2638 4750 
Q 3056 4750 3426 4639 
Q 3797 4528 4122 4306 
z
" transform="scale(0.015625)"/>
       <path id="DejaVuSans-42" d="M 1259 2228 
L 1259 519 
L 2272 519 
Q 2781 519 3026 730 
Q 3272 941 3272 1375 
Q 3272 1813 3026 2020 
Q 2781 2228 2272 2228 
L 1259 2228 
z
M 1259 4147 
L 1259 2741 
L 2194 2741 
Q 2656 2741 2882 2914 
Q 3109 3088 3109 3444 
Q 3109 3797 2882 3972 
Q 2656 4147 2194 4147 
L 1259 4147 
z
M 628 4666 
L 2241 4666 
Q 2963 4666 3353 4366 
Q 3744 4066 3744 3513 
Q 3744 3084 3544 2831 
Q 3344 2578 2956 2516 
Q 3422 2416 3680 2098 
Q 3938 1781 3938 1306 
Q 3938 681 3513 340 
Q 3088 0 2303 0 
L 628 0 
L 628 4666 
z
" transform="scale(0.015625)"/>
       <path id="DejaVuSans-28" d="M 1984 4856 
Q 1566 4138 1362 3434 
Q 1159 2731 1159 2009 
Q 1159 1288 1364 580 
Q 1569 -128 1984 -844 
L 1484 -844 
Q 1016 -109 783 600 
Q 550 1309 550 2009 
Q 550 2706 781 3412 
Q 1013 4119 1484 4856 
L 1984 4856 
z
" transform="scale(0.015625)"/>
       <path id="DejaVuSans-Oblique-63" d="M 3431 3366 
L 3316 2797 
Q 3109 2947 2876 3022 
Q 2644 3097 2394 3097 
Q 2119 3097 1870 3000 
Q 1622 2903 1453 2725 
Q 1184 2453 1037 2087 
Q 891 1722 891 1331 
Q 891 859 1127 628 
Q 1363 397 1844 397 
Q 2081 397 2348 469 
Q 2616 541 2906 684 
L 2797 116 
Q 2547 13 2283 -39 
Q 2019 -91 1741 -91 
Q 1044 -91 669 257 
Q 294 606 294 1253 
Q 294 1797 489 2255 
Q 684 2713 1069 3078 
Q 1331 3328 1684 3456 
Q 2038 3584 2456 3584 
Q 2700 3584 2940 3529 
Q 3181 3475 3431 3366 
z
" transform="scale(0.015625)"/>
       <path id="DejaVuSans-3d" d="M 678 2906 
L 4684 2906 
L 4684 2381 
L 678 2381 
L 678 2906 
z
M 678 1631 
L 4684 1631 
L 4684 1100 
L 678 1100 
L 678 1631 
z
" transform="scale(0.015625)"/>
       <path id="DejaVuSans-29" d="M 513 4856 
L 1013 4856 
Q 1481 4119 1714 3412 
Q 1947 2706 1947 2009 
Q 1947 1309 1714 600 
Q 1481 -109 1013 -844 
L 513 -844 
Q 928 -128 1133 580 
Q 1338 1288 1338 2009 
Q 1338 2731 1133 3434 
Q 928 4138 513 4856 
z
" transform="scale(0.015625)"/>
      </defs>
      <use xlink:href="#DejaVuSans-55" transform="translate(0 0.125)"/>
      <use xlink:href="#DejaVuSans-43" transform="translate(73.193359 0.125)"/>
      <use xlink:href="#DejaVuSans-42" transform="translate(143.017578 0.125)"/>
      <use xlink:href="#DejaVuSans-20" transform="translate(211.621094 0.125)"/>
      <use xlink:href="#DejaVuSans-28" transform="translate(243.408203 0.125)"/>
      <use xlink:href="#DejaVuSans-Oblique-63" transform="translate(282.421875 0.125)"/>
      <use xlink:href="#DejaVuSans-3d" transform="translate(356.884766 0.125)"/>
      <use xlink:href="#DejaVuSans-32" transform="translate(460.15625 0.125)"/>
      <use xlink:href="#DejaVuSans-29" transform="translate(523.779297 0.125)"/>
     </g>
    </g>
    <g id="line2d_17">
     <path d="M 521.915625 316.48 
L 537.915625 316.48 
L 553.915625 316.48 
" style="fill: none; stroke: #ff7f0e; stroke-width: 1.5; stroke-linecap: square"/>
    </g>
    <g id="text_17">
     <!-- $\epsilon$-greedy ($\epsilon=0.1$) -->
     <g transform="translate(566.715625 322.08) scale(0.16 -0.16)">
      <defs>
       <path id="DejaVuSans-Oblique-3b5" d="M 1263 1888 
Q 925 1963 778 2166 
Q 669 2309 669 2503 
Q 669 3034 1175 3344 
Q 1575 3588 2188 3588 
Q 2425 3588 2684 3550 
Q 2944 3513 3234 3438 
L 3134 2916 
Q 2847 3006 2606 3047 
Q 2359 3088 2138 3088 
Q 1766 3088 1522 2944 
Q 1228 2772 1228 2522 
Q 1228 2356 1381 2241 
Q 1563 2103 1925 2103 
L 2409 2103 
L 2319 1628 
L 1856 1628 
Q 1425 1628 1172 1469 
Q 828 1253 828 916 
Q 828 703 1013 563 
Q 1244 388 1716 388 
Q 2006 388 2284 444 
Q 2563 503 2806 619 
L 2700 84 
Q 2403 -3 2131 -47 
Q 1859 -91 1609 -91 
Q 866 -91 516 194 
Q 250 413 250 781 
Q 250 1278 600 1584 
Q 859 1813 1263 1888 
z
" transform="scale(0.015625)"/>
       <path id="DejaVuSans-2d" d="M 313 2009 
L 1997 2009 
L 1997 1497 
L 313 1497 
L 313 2009 
z
" transform="scale(0.015625)"/>
       <path id="DejaVuSans-67" d="M 2906 1791 
Q 2906 2416 2648 2759 
Q 2391 3103 1925 3103 
Q 1463 3103 1205 2759 
Q 947 2416 947 1791 
Q 947 1169 1205 825 
Q 1463 481 1925 481 
Q 2391 481 2648 825 
Q 2906 1169 2906 1791 
z
M 3481 434 
Q 3481 -459 3084 -895 
Q 2688 -1331 1869 -1331 
Q 1566 -1331 1297 -1286 
Q 1028 -1241 775 -1147 
L 775 -588 
Q 1028 -725 1275 -790 
Q 1522 -856 1778 -856 
Q 2344 -856 2625 -561 
Q 2906 -266 2906 331 
L 2906 616 
Q 2728 306 2450 153 
Q 2172 0 1784 0 
Q 1141 0 747 490 
Q 353 981 353 1791 
Q 353 2603 747 3093 
Q 1141 3584 1784 3584 
Q 2172 3584 2450 3431 
Q 2728 3278 2906 2969 
L 2906 3500 
L 3481 3500 
L 3481 434 
z
" transform="scale(0.015625)"/>
       <path id="DejaVuSans-72" d="M 2631 2963 
Q 2534 3019 2420 3045 
Q 2306 3072 2169 3072 
Q 1681 3072 1420 2755 
Q 1159 2438 1159 1844 
L 1159 0 
L 581 0 
L 581 3500 
L 1159 3500 
L 1159 2956 
Q 1341 3275 1631 3429 
Q 1922 3584 2338 3584 
Q 2397 3584 2469 3576 
Q 2541 3569 2628 3553 
L 2631 2963 
z
" transform="scale(0.015625)"/>
       <path id="DejaVuSans-64" d="M 2906 2969 
L 2906 4863 
L 3481 4863 
L 3481 0 
L 2906 0 
L 2906 525 
Q 2725 213 2448 61 
Q 2172 -91 1784 -91 
Q 1150 -91 751 415 
Q 353 922 353 1747 
Q 353 2572 751 3078 
Q 1150 3584 1784 3584 
Q 2172 3584 2448 3432 
Q 2725 3281 2906 2969 
z
M 947 1747 
Q 947 1113 1208 752 
Q 1469 391 1925 391 
Q 2381 391 2643 752 
Q 2906 1113 2906 1747 
Q 2906 2381 2643 2742 
Q 2381 3103 1925 3103 
Q 1469 3103 1208 2742 
Q 947 2381 947 1747 
z
" transform="scale(0.015625)"/>
       <path id="DejaVuSans-79" d="M 2059 -325 
Q 1816 -950 1584 -1140 
Q 1353 -1331 966 -1331 
L 506 -1331 
L 506 -850 
L 844 -850 
Q 1081 -850 1212 -737 
Q 1344 -625 1503 -206 
L 1606 56 
L 191 3500 
L 800 3500 
L 1894 763 
L 2988 3500 
L 3597 3500 
L 2059 -325 
z
" transform="scale(0.015625)"/>
       <path id="DejaVuSans-2e" d="M 684 794 
L 1344 794 
L 1344 0 
L 684 0 
L 684 794 
z
" transform="scale(0.015625)"/>
      </defs>
      <use xlink:href="#DejaVuSans-Oblique-3b5" transform="translate(0 0.015625)"/>
      <use xlink:href="#DejaVuSans-2d" transform="translate(54.052734 0.015625)"/>
      <use xlink:href="#DejaVuSans-67" transform="translate(90.136719 0.015625)"/>
      <use xlink:href="#DejaVuSans-72" transform="translate(153.613281 0.015625)"/>
      <use xlink:href="#DejaVuSans-65" transform="translate(194.726562 0.015625)"/>
      <use xlink:href="#DejaVuSans-65" transform="translate(256.25 0.015625)"/>
      <use xlink:href="#DejaVuSans-64" transform="translate(317.773438 0.015625)"/>
      <use xlink:href="#DejaVuSans-79" transform="translate(381.25 0.015625)"/>
      <use xlink:href="#DejaVuSans-20" transform="translate(440.429688 0.015625)"/>
      <use xlink:href="#DejaVuSans-28" transform="translate(472.216797 0.015625)"/>
      <use xlink:href="#DejaVuSans-Oblique-3b5" transform="translate(511.230469 0.015625)"/>
      <use xlink:href="#DejaVuSans-3d" transform="translate(584.765625 0.015625)"/>
      <use xlink:href="#DejaVuSans-30" transform="translate(688.037109 0.015625)"/>
      <use xlink:href="#DejaVuSans-2e" transform="translate(751.660156 0.015625)"/>
      <use xlink:href="#DejaVuSans-31" transform="translate(783.447266 0.015625)"/>
      <use xlink:href="#DejaVuSans-29" transform="translate(847.070312 0.015625)"/>
     </g>
    </g>
   </g>
  </g>
 </g>
 <defs>
  <clipPath id="pd7bbd19c6b">
   <rect x="53.435625" y="7.2" width="669.6" height="332.64"/>
  </clipPath>
 </defs>
</svg>
