<?xml version="1.0" encoding="utf-8" standalone="no"?>
<!DOCTYPE svg PUBLIC "-//W3C//DTD SVG 1.1//EN"
  "http://www.w3.org/Graphics/SVG/1.1/DTD/svg11.dtd">
<svg xmlns:xlink="http://www.w3.org/1999/xlink" width="725.145625pt" height="301.97875pt" viewBox="0 0 725.145625 301.97875" xmlns="http://www.w3.org/2000/svg" version="1.1">
 <metadata>
  <rdf:RDF xmlns:dc="http://purl.org/dc/elements/1.1/" xmlns:cc="http://creativecommons.org/ns#" xmlns:rdf="http://www.w3.org/1999/02/22-rdf-syntax-ns#">
   <cc:Work>
    <dc:type rdf:resource="http://purl.org/dc/dcmitype/StillImage"/>
    <dc:date>2026-03-07T23:10:54.882679</dc:date>
    <dc:format>image/svg+xml</dc:format>
    <dc:creator>
     <cc:Agent>
      <dc:title>Matplotlib v3.10.3, https://matplotlib.org/</dc:title>
     </cc:Agent>
    </dc:creator>
   </cc:Work>
  </rdf:RDF>
 </metadata>
 <defs>
  <style type="text/css">*{stroke-linejoin: round; stroke-linecap: butt}</style>
 </defs>
 <g id="figure_1">
  <g id="patch_1">
   <path d="M 0 301.97875 
L 725.145625 301.97875 
L 725.145625 0 
L 0 0 
z
" style="fill: #ffffff"/>
  </g>
  <g id="axes_1">
   <g id="patch_2">
    <path d="M 48.345625 256.68 
L 717.945625 256.68 
L 717.945625 7.2 
L 48.345625 7.2 
z
" style="fill: #ffffff"/>
   </g>
   <g id="matplotlib.axis_1">
    <g id="xtick_1">
     <g id="line2d_1">
      <defs>
       <path id="m3be5995d18" d="M 0 0 
L 0 3.5 
" style="stroke: #000000; stroke-width: 0.8"/>
      </defs>
      <g>
       <use xlink:href="#m3be5995d18" x="78.781989" y="256.68" style="stroke: #000000; stroke-width: 0.8"/>
      </g>
     </g>
     <g id="text_1">
      <!-- 0 -->
      <g transform="translate(75.600739 271.278437) scale(0.1 -0.1)">
       <defs>
        <path id="DejaVuSans-30" d="M 2034 4250 
Q 1547 4250 1301 3770 
Q 1056 3291 1056 2328 
Q 1056 1369 1301 889 
Q 1547 409 2034 409 
Q 2525 409 2770 889 
Q 3016 1369 3016 2328 
Q 3016 3291 2770 3770 
Q 2525 4250 2034 4250 
z
M 2034 4750 
Q 2819 4750 3233 4129 
Q 3647 3509 3647 2328 
Q 3647 1150 3233 529 
Q 2819 -91 2034 -91 
Q 1250 -91 836 529 
Q 422 1150 422 2328 
Q 422 3509 836 4129 
Q 1250 4750 2034 4750 
z
" transform="scale(0.015625)"/>
       </defs>
       <use xlink:href="#DejaVuSans-30"/>
      </g>
     </g>
    </g>
    <g id="xtick_2">
     <g id="line2d_2">
      <g>
       <use xlink:href="#m3be5995d18" x="200.771422" y="256.68" style="stroke: #000000; stroke-width: 0.8"/>
      </g>
     </g>
     <g id="text_2">
      <!-- 100 -->
      <g transform="translate(191.227672 271.278437) scale(0.1 -0.1)">
       <defs>
        <path id="DejaVuSans-31" d="M 794 531 
L 1825 531 
L 1825 4091 
L 703 3866 
L 703 4441 
L 1819 4666 
L 2450 4666 
L 2450 531 
L 3481 531 
L 3481 0 
L 794 0 
L 794 531 
z
" transform="scale(0.015625)"/>
       </defs>
       <use xlink:href="#DejaVuSans-31"/>
       <use xlink:href="#DejaVuSans-30" transform="translate(63.623047 0)"/>
       <use xlink:href="#DejaVuSans-30" transform="translate(127.246094 0)"/>
      </g>
     </g>
    </g>
    <g id="xtick_3">
     <g id="line2d_3">
      <g>
       <use xlink:href="#m3be5995d18" x="322.760855" y="256.68" style="stroke: #000000; stroke-width: 0.8"/>
      </g>
     </g>
     <g id="text_3">
      <!-- 200 -->
      <g transform="translate(313.217105 271.278437) scale(0.1 -0.1)">
       <defs>
        <path id="DejaVuSans-32" d="M 1228 531 
L 3431 531 
L 3431 0 
L 469 0 
L 469 531 
Q 828 903 1448 1529 
Q 2069 2156 2228 2338 
Q 2531 2678 2651 2914 
Q 2772 3150 2772 3378 
Q 2772 3750 2511 3984 
Q 2250 4219 1831 4219 
Q 1534 4219 1204 4116 
Q 875 4013 500 3803 
L 500 4441 
Q 881 4594 1212 4672 
Q 1544 4750 1819 4750 
Q 2544 4750 2975 4387 
Q 3406 4025 3406 3419 
Q 3406 3131 3298 2873 
Q 3191 2616 2906 2266 
Q 2828 2175 2409 1742 
Q 1991 1309 1228 531 
z
" transform="scale(0.015625)"/>
       </defs>
       <use xlink:href="#DejaVuSans-32"/>
       <use xlink:href="#DejaVuSans-30" transform="translate(63.623047 0)"/>
       <use xlink:href="#DejaVuSans-30" transform="translate(127.246094 0)"/>
      </g>
     </g>
    </g>
    <g id="xtick_4">
     <g id="line2d_4">
      <g>
       <use xlink:href="#m3be5995d18" x="444.750289" y="256.68" style="stroke: #000000; stroke-width: 0.8"/>
      </g>
     </g>
     <g id="text_4">
      <!-- 300 -->
      <g transform="translate(435.206539 271.278437) scale(0.1 -0.1)">
       <defs>
        <path id="DejaVuSans-33" d="M 2597 2516 
Q 3050 2419 3304 2112 
Q 3559 1806 3559 1356 
Q 3559 666 3084 287 
Q 2609 -91 1734 -91 
Q 1441 -91 1130 -33 
Q 819 25 488 141 
L 488 750 
Q 750 597 1062 519 
Q 1375 441 1716 441 
Q 2309 441 2620 675 
Q 2931 909 2931 1356 
Q 2931 1769 2642 2001 
Q 2353 2234 1838 2234 
L 1294 2234 
L 1294 2753 
L 1863 2753 
Q 2328 2753 2575 2939 
Q 2822 3125 2822 3475 
Q 2822 3834 2567 4026 
Q 2313 4219 1838 4219 
Q 1578 4219 1281 4162 
Q 984 4106 628 3988 
L 628 4550 
Q 988 4650 1302 4700 
Q 1616 4750 1894 4750 
Q 2613 4750 3031 4423 
Q 3450 4097 3450 3541 
Q 3450 3153 3228 2886 
Q 3006 2619 2597 2516 
z
" transform="scale(0.015625)"/>
       </defs>
       <use xlink:href="#DejaVuSans-33"/>
       <use xlink:href="#DejaVuSans-30" transform="translate(63.623047 0)"/>
       <use xlink:href="#DejaVuSans-30" transform="translate(127.246094 0)"/>
      </g>
     </g>
    </g>
    <g id="xtick_5">
     <g id="line2d_5">
      <g>
       <use xlink:href="#m3be5995d18" x="566.739722" y="256.68" style="stroke: #000000; stroke-width: 0.8"/>
      </g>
     </g>
     <g id="text_5">
      <!-- 400 -->
      <g transform="translate(557.195972 271.278437) scale(0.1 -0.1)">
       <defs>
        <path id="DejaVuSans-34" d="M 2419 4116 
L 825 1625 
L 2419 1625 
L 2419 4116 
z
M 2253 4666 
L 3047 4666 
L 3047 1625 
L 3713 1625 
L 3713 1100 
L 3047 1100 
L 3047 0 
L 2419 0 
L 2419 1100 
L 313 1100 
L 313 1709 
L 2253 4666 
z
" transform="scale(0.015625)"/>
       </defs>
       <use xlink:href="#DejaVuSans-34"/>
       <use xlink:href="#DejaVuSans-30" transform="translate(63.623047 0)"/>
       <use xlink:href="#DejaVuSans-30" transform="translate(127.246094 0)"/>
      </g>
     </g>
    </g>
    <g id="xtick_6">
     <g id="line2d_6">
      <g>
       <use xlink:href="#m3be5995d18" x="688.729156" y="256.68" style="stroke: #000000; stroke-width: 0.8"/>
      </g>
     </g>
     <g id="text_6">
      <!-- 500 -->
      <g transform="translate(679.185406 271.278437) scale(0.1 -0.1)">
       <defs>
        <path id="DejaVuSans-35" d="M 691 4666 
L 3169 4666 
L 3169 4134 
L 1269 4134 
L 1269 2991 
Q 1406 3038 1543 3061 
Q 1681 3084 1819 3084 
Q 2600 3084 3056 2656 
Q 3513 2228 3513 1497 
Q 3513 744 3044 326 
Q 2575 -91 1722 -91 
Q 1428 -91 1123 -41 
Q 819 9 494 109 
L 494 744 
Q 775 591 1075 516 
Q 1375 441 1709 441 
Q 2250 441 2565 725 
Q 2881 1009 2881 1497 
Q 2881 1984 2565 2268 
Q 2250 2553 1709 2553 
Q 1456 2553 1204 2497 
Q 953 2441 691 2322 
L 691 4666 
z
" transform="scale(0.015625)"/>
       </defs>
       <use xlink:href="#DejaVuSans-35"/>
       <use xlink:href="#DejaVuSans-30" transform="translate(63.623047 0)"/>
       <use xlink:href="#DejaVuSans-30" transform="translate(127.246094 0)"/>
      </g>
     </g>
    </g>
    <g id="text_7">
     <!-- Steps -->
     <g transform="translate(357.963906 291.035312) scale(0.18 -0.18)">
      <defs>
       <path id="DejaVuSans-53" d="M 3425 4513 
L 3425 3897 
Q 3066 4069 2747 4153 
Q 2428 4238 2131 4238 
Q 1616 4238 1336 4038 
Q 1056 3838 1056 3469 
Q 1056 3159 1242 3001 
Q 1428 2844 1947 2747 
L 2328 2669 
Q 3034 2534 3370 2195 
Q 3706 1856 3706 1288 
Q 3706 609 3251 259 
Q 2797 -91 1919 -91 
Q 1588 -91 1214 -16 
Q 841 59 441 206 
L 441 856 
Q 825 641 1194 531 
Q 1563 422 1919 422 
Q 2459 422 2753 634 
Q 3047 847 3047 1241 
Q 3047 1584 2836 1778 
Q 2625 1972 2144 2069 
L 1759 2144 
Q 1053 2284 737 2584 
Q 422 2884 422 3419 
Q 422 4038 858 4394 
Q 1294 4750 2059 4750 
Q 2388 4750 2728 4690 
Q 3069 4631 3425 4513 
z
" transform="scale(0.015625)"/>
       <path id="DejaVuSans-74" d="M 1172 4494 
L 1172 3500 
L 2356 3500 
L 2356 3053 
L 1172 3053 
L 1172 1153 
Q 1172 725 1289 603 
Q 1406 481 1766 481 
L 2356 481 
L 2356 0 
L 1766 0 
Q 1100 0 847 248 
Q 594 497 594 1153 
L 594 3053 
L 172 3053 
L 172 3500 
L 594 3500 
L 594 4494 
L 1172 4494 
z
" transform="scale(0.015625)"/>
       <path id="DejaVuSans-65" d="M 3597 1894 
L 3597 1613 
L 953 1613 
Q 991 1019 1311 708 
Q 1631 397 2203 397 
Q 2534 397 2845 478 
Q 3156 559 3463 722 
L 3463 178 
Q 3153 47 2828 -22 
Q 2503 -91 2169 -91 
Q 1331 -91 842 396 
Q 353 884 353 1716 
Q 353 2575 817 3079 
Q 1281 3584 2069 3584 
Q 2775 3584 3186 3129 
Q 3597 2675 3597 1894 
z
M 3022 2063 
Q 3016 2534 2758 2815 
Q 2500 3097 2075 3097 
Q 1594 3097 1305 2825 
Q 1016 2553 972 2059 
L 3022 2063 
z
" transform="scale(0.015625)"/>
       <path id="DejaVuSans-70" d="M 1159 525 
L 1159 -1331 
L 581 -1331 
L 581 3500 
L 1159 3500 
L 1159 2969 
Q 1341 3281 1617 3432 
Q 1894 3584 2278 3584 
Q 2916 3584 3314 3078 
Q 3713 2572 3713 1747 
Q 3713 922 3314 415 
Q 2916 -91 2278 -91 
Q 1894 -91 1617 61 
Q 1341 213 1159 525 
z
M 3116 1747 
Q 3116 2381 2855 2742 
Q 2594 3103 2138 3103 
Q 1681 3103 1420 2742 
Q 1159 2381 1159 1747 
Q 1159 1113 1420 752 
Q 1681 391 2138 391 
Q 2594 391 2855 752 
Q 3116 1113 3116 1747 
z
" transform="scale(0.015625)"/>
       <path id="DejaVuSans-73" d="M 2834 3397 
L 2834 2853 
Q 2591 2978 2328 3040 
Q 2066 3103 1784 3103 
Q 1356 3103 1142 2972 
Q 928 2841 928 2578 
Q 928 2378 1081 2264 
Q 1234 2150 1697 2047 
L 1894 2003 
Q 2506 1872 2764 1633 
Q 3022 1394 3022 966 
Q 3022 478 2636 193 
Q 2250 -91 1575 -91 
Q 1294 -91 989 -36 
Q 684 19 347 128 
L 347 722 
Q 666 556 975 473 
Q 1284 391 1588 391 
Q 1994 391 2212 530 
Q 2431 669 2431 922 
Q 2431 1156 2273 1281 
Q 2116 1406 1581 1522 
L 1381 1569 
Q 847 1681 609 1914 
Q 372 2147 372 2553 
Q 372 3047 722 3315 
Q 1072 3584 1716 3584 
Q 2034 3584 2315 3537 
Q 2597 3491 2834 3397 
z
" transform="scale(0.015625)"/>
      </defs>
      <use xlink:href="#DejaVuSans-53"/>
      <use xlink:href="#DejaVuSans-74" transform="translate(63.476562 0)"/>
      <use xlink:href="#DejaVuSans-65" transform="translate(102.685547 0)"/>
      <use xlink:href="#DejaVuSans-70" transform="translate(164.208984 0)"/>
      <use xlink:href="#DejaVuSans-73" transform="translate(227.685547 0)"/>
     </g>
    </g>
   </g>
   <g id="matplotlib.axis_2">
    <g id="ytick_1">
     <g id="line2d_7">
      <defs>
       <path id="m4b60200ca2" d="M 0 0 
L -3.5 0 
" style="stroke: #000000; stroke-width: 0.8"/>
      </defs>
      <g>
       <use xlink:href="#m4b60200ca2" x="48.345625" y="242.951913" style="stroke: #000000; stroke-width: 0.8"/>
      </g>
     </g>
     <g id="text_8">
      <!-- 10 -->
      <g transform="translate(28.620625 246.751132) scale(0.1 -0.1)">
       <use xlink:href="#DejaVuSans-31"/>
       <use xlink:href="#DejaVuSans-30" transform="translate(63.623047 0)"/>
      </g>
     </g>
    </g>
    <g id="ytick_2">
     <g id="line2d_8">
      <g>
       <use xlink:href="#m4b60200ca2" x="48.345625" y="208.83639" style="stroke: #000000; stroke-width: 0.8"/>
      </g>
     </g>
     <g id="text_9">
      <!-- 20 -->
      <g transform="translate(28.620625 212.635609) scale(0.1 -0.1)">
       <use xlink:href="#DejaVuSans-32"/>
       <use xlink:href="#DejaVuSans-30" transform="translate(63.623047 0)"/>
      </g>
     </g>
    </g>
    <g id="ytick_3">
     <g id="line2d_9">
      <g>
       <use xlink:href="#m4b60200ca2" x="48.345625" y="174.720866" style="stroke: #000000; stroke-width: 0.8"/>
      </g>
     </g>
     <g id="text_10">
      <!-- 30 -->
      <g transform="translate(28.620625 178.520085) scale(0.1 -0.1)">
       <use xlink:href="#DejaVuSans-33"/>
       <use xlink:href="#DejaVuSans-30" transform="translate(63.623047 0)"/>
      </g>
     </g>
    </g>
    <g id="ytick_4">
     <g id="line2d_10">
      <g>
       <use xlink:href="#m4b60200ca2" x="48.345625" y="140.605343" style="stroke: #000000; stroke-width: 0.8"/>
      </g>
     </g>
     <g id="text_11">
      <!-- 40 -->
      <g transform="translate(28.620625 144.404562) scale(0.1 -0.1)">
       <use xlink:href="#DejaVuSans-34"/>
       <use xlink:href="#DejaVuSans-30" transform="translate(63.623047 0)"/>
      </g>
     </g>
    </g>
    <g id="ytick_5">
     <g id="line2d_11">
      <g>
       <use xlink:href="#m4b60200ca2" x="48.345625" y="106.489819" style="stroke: #000000; stroke-width: 0.8"/>
      </g>
     </g>
     <g id="text_12">
      <!-- 50 -->
      <g transform="translate(28.620625 110.289038) scale(0.1 -0.1)">
       <use xlink:href="#DejaVuSans-35"/>
       <use xlink:href="#DejaVuSans-30" transform="translate(63.623047 0)"/>
      </g>
     </g>
    </g>
    <g id="ytick_6">
     <g id="line2d_12">
      <g>
       <use xlink:href="#m4b60200ca2" x="48.345625" y="72.374296" style="stroke: #000000; stroke-width: 0.8"/>
      </g>
     </g>
     <g id="text_13">
      <!-- 60 -->
      <g transform="translate(28.620625 76.173515) scale(0.1 -0.1)">
       <defs>
        <path id="DejaVuSans-36" d="M 2113 2584 
Q 1688 2584 1439 2293 
Q 1191 2003 1191 1497 
Q 1191 994 1439 701 
Q 1688 409 2113 409 
Q 2538 409 2786 701 
Q 3034 994 3034 1497 
Q 3034 2003 2786 2293 
Q 2538 2584 2113 2584 
z
M 3366 4563 
L 3366 3988 
Q 3128 4100 2886 4159 
Q 2644 4219 2406 4219 
Q 1781 4219 1451 3797 
Q 1122 3375 1075 2522 
Q 1259 2794 1537 2939 
Q 1816 3084 2150 3084 
Q 2853 3084 3261 2657 
Q 3669 2231 3669 1497 
Q 3669 778 3244 343 
Q 2819 -91 2113 -91 
Q 1303 -91 875 529 
Q 447 1150 447 2328 
Q 447 3434 972 4092 
Q 1497 4750 2381 4750 
Q 2619 4750 2861 4703 
Q 3103 4656 3366 4563 
z
" transform="scale(0.015625)"/>
       </defs>
       <use xlink:href="#DejaVuSans-36"/>
       <use xlink:href="#DejaVuSans-30" transform="translate(63.623047 0)"/>
      </g>
     </g>
    </g>
    <g id="ytick_7">
     <g id="line2d_13">
      <g>
       <use xlink:href="#m4b60200ca2" x="48.345625" y="38.258773" style="stroke: #000000; stroke-width: 0.8"/>
      </g>
     </g>
     <g id="text_14">
      <!-- 70 -->
      <g transform="translate(28.620625 42.057991) scale(0.1 -0.1)">
       <defs>
        <path id="DejaVuSans-37" d="M 525 4666 
L 3525 4666 
L 3525 4397 
L 1831 0 
L 1172 0 
L 2766 4134 
L 525 4134 
L 525 4666 
z
" transform="scale(0.015625)"/>
       </defs>
       <use xlink:href="#DejaVuSans-37"/>
       <use xlink:href="#DejaVuSans-30" transform="translate(63.623047 0)"/>
      </g>
     </g>
    </g>
    <g id="text_15">
     <!-- % Optimal Action -->
     <g transform="translate(20.877187 210.007969) rotate(-90) scale(0.18 -0.18)">
      <defs>
       <path id="DejaVuSans-25" d="M 4653 2053 
Q 4381 2053 4226 1822 
Q 4072 1591 4072 1178 
Q 4072 772 4226 539 
Q 4381 306 4653 306 
Q 4919 306 5073 539 
Q 5228 772 5228 1178 
Q 5228 1588 5073 1820 
Q 4919 2053 4653 2053 
z
M 4653 2450 
Q 5147 2450 5437 2106 
Q 5728 1763 5728 1178 
Q 5728 594 5436 251 
Q 5144 -91 4653 -91 
Q 4153 -91 3862 251 
Q 3572 594 3572 1178 
Q 3572 1766 3864 2108 
Q 4156 2450 4653 2450 
z
M 1428 4353 
Q 1159 4353 1004 4120 
Q 850 3888 850 3481 
Q 850 3069 1003 2837 
Q 1156 2606 1428 2606 
Q 1700 2606 1854 2837 
Q 2009 3069 2009 3481 
Q 2009 3884 1853 4118 
Q 1697 4353 1428 4353 
z
M 4250 4750 
L 4750 4750 
L 1831 -91 
L 1331 -91 
L 4250 4750 
z
M 1428 4750 
Q 1922 4750 2215 4408 
Q 2509 4066 2509 3481 
Q 2509 2891 2217 2550 
Q 1925 2209 1428 2209 
Q 931 2209 642 2551 
Q 353 2894 353 3481 
Q 353 4063 643 4406 
Q 934 4750 1428 4750 
z
" transform="scale(0.015625)"/>
       <path id="DejaVuSans-20" transform="scale(0.015625)"/>
       <path id="DejaVuSans-4f" d="M 2522 4238 
Q 1834 4238 1429 3725 
Q 1025 3213 1025 2328 
Q 1025 1447 1429 934 
Q 1834 422 2522 422 
Q 3209 422 3611 934 
Q 4013 1447 4013 2328 
Q 4013 3213 3611 3725 
Q 3209 4238 2522 4238 
z
M 2522 4750 
Q 3503 4750 4090 4092 
Q 4678 3434 4678 2328 
Q 4678 1225 4090 567 
Q 3503 -91 2522 -91 
Q 1538 -91 948 565 
Q 359 1222 359 2328 
Q 359 3434 948 4092 
Q 1538 4750 2522 4750 
z
" transform="scale(0.015625)"/>
       <path id="DejaVuSans-69" d="M 603 3500 
L 1178 3500 
L 1178 0 
L 603 0 
L 603 3500 
z
M 603 4863 
L 1178 4863 
L 1178 4134 
L 603 4134 
L 603 4863 
z
" transform="scale(0.015625)"/>
       <path id="DejaVuSans-6d" d="M 3328 2828 
Q 3544 3216 3844 3400 
Q 4144 3584 4550 3584 
Q 5097 3584 5394 3201 
Q 5691 2819 5691 2113 
L 5691 0 
L 5113 0 
L 5113 2094 
Q 5113 2597 4934 2840 
Q 4756 3084 4391 3084 
Q 3944 3084 3684 2787 
Q 3425 2491 3425 1978 
L 3425 0 
L 2847 0 
L 2847 2094 
Q 2847 2600 2669 2842 
Q 2491 3084 2119 3084 
Q 1678 3084 1418 2786 
Q 1159 2488 1159 1978 
L 1159 0 
L 581 0 
L 581 3500 
L 1159 3500 
L 1159 2956 
Q 1356 3278 1631 3431 
Q 1906 3584 2284 3584 
Q 2666 3584 2933 3390 
Q 3200 3197 3328 2828 
z
" transform="scale(0.015625)"/>
       <path id="DejaVuSans-61" d="M 2194 1759 
Q 1497 1759 1228 1600 
Q 959 1441 959 1056 
Q 959 750 1161 570 
Q 1363 391 1709 391 
Q 2188 391 2477 730 
Q 2766 1069 2766 1631 
L 2766 1759 
L 2194 1759 
z
M 3341 1997 
L 3341 0 
L 2766 0 
L 2766 531 
Q 2569 213 2275 61 
Q 1981 -91 1556 -91 
Q 1019 -91 701 211 
Q 384 513 384 1019 
Q 384 1609 779 1909 
Q 1175 2209 1959 2209 
L 2766 2209 
L 2766 2266 
Q 2766 2663 2505 2880 
Q 2244 3097 1772 3097 
Q 1472 3097 1187 3025 
Q 903 2953 641 2809 
L 641 3341 
Q 956 3463 1253 3523 
Q 1550 3584 1831 3584 
Q 2591 3584 2966 3190 
Q 3341 2797 3341 1997 
z
" transform="scale(0.015625)"/>
       <path id="DejaVuSans-6c" d="M 603 4863 
L 1178 4863 
L 1178 0 
L 603 0 
L 603 4863 
z
" transform="scale(0.015625)"/>
       <path id="DejaVuSans-41" d="M 2188 4044 
L 1331 1722 
L 3047 1722 
L 2188 4044 
z
M 1831 4666 
L 2547 4666 
L 4325 0 
L 3669 0 
L 3244 1197 
L 1141 1197 
L 716 0 
L 50 0 
L 1831 4666 
z
" transform="scale(0.015625)"/>
       <path id="DejaVuSans-63" d="M 3122 3366 
L 3122 2828 
Q 2878 2963 2633 3030 
Q 2388 3097 2138 3097 
Q 1578 3097 1268 2742 
Q 959 2388 959 1747 
Q 959 1106 1268 751 
Q 1578 397 2138 397 
Q 2388 397 2633 464 
Q 2878 531 3122 666 
L 3122 134 
Q 2881 22 2623 -34 
Q 2366 -91 2075 -91 
Q 1284 -91 818 406 
Q 353 903 353 1747 
Q 353 2603 823 3093 
Q 1294 3584 2113 3584 
Q 2378 3584 2631 3529 
Q 2884 3475 3122 3366 
z
" transform="scale(0.015625)"/>
       <path id="DejaVuSans-6f" d="M 1959 3097 
Q 1497 3097 1228 2736 
Q 959 2375 959 1747 
Q 959 1119 1226 758 
Q 1494 397 1959 397 
Q 2419 397 2687 759 
Q 2956 1122 2956 1747 
Q 2956 2369 2687 2733 
Q 2419 3097 1959 3097 
z
M 1959 3584 
Q 2709 3584 3137 3096 
Q 3566 2609 3566 1747 
Q 3566 888 3137 398 
Q 2709 -91 1959 -91 
Q 1206 -91 779 398 
Q 353 888 353 1747 
Q 353 2609 779 3096 
Q 1206 3584 1959 3584 
z
" transform="scale(0.015625)"/>
       <path id="DejaVuSans-6e" d="M 3513 2113 
L 3513 0 
L 2938 0 
L 2938 2094 
Q 2938 2591 2744 2837 
Q 2550 3084 2163 3084 
Q 1697 3084 1428 2787 
Q 1159 2491 1159 1978 
L 1159 0 
L 581 0 
L 581 3500 
L 1159 3500 
L 1159 2956 
Q 1366 3272 1645 3428 
Q 1925 3584 2291 3584 
Q 2894 3584 3203 3211 
Q 3513 2838 3513 2113 
z
" transform="scale(0.015625)"/>
      </defs>
      <use xlink:href="#DejaVuSans-25"/>
      <use xlink:href="#DejaVuSans-20" transform="translate(95.019531 0)"/>
      <use xlink:href="#DejaVuSans-4f" transform="translate(126.806641 0)"/>
      <use xlink:href="#DejaVuSans-70" transform="translate(205.517578 0)"/>
      <use xlink:href="#DejaVuSans-74" transform="translate(268.994141 0)"/>
      <use xlink:href="#DejaVuSans-69" transform="translate(308.203125 0)"/>
      <use xlink:href="#DejaVuSans-6d" transform="translate(335.986328 0)"/>
      <use xlink:href="#DejaVuSans-61" transform="translate(433.398438 0)"/>
      <use xlink:href="#DejaVuSans-6c" transform="translate(494.677734 0)"/>
      <use xlink:href="#DejaVuSans-20" transform="translate(522.460938 0)"/>
      <use xlink:href="#DejaVuSans-41" transform="translate(554.248047 0)"/>
      <use xlink:href="#DejaVuSans-63" transform="translate(620.90625 0)"/>
      <use xlink:href="#DejaVuSans-74" transform="translate(675.886719 0)"/>
      <use xlink:href="#DejaVuSans-69" transform="translate(715.095703 0)"/>
      <use xlink:href="#DejaVuSans-6f" transform="translate(742.878906 0)"/>
      <use xlink:href="#DejaVuSans-6e" transform="translate(804.060547 0)"/>
     </g>
    </g>
   </g>
   <g id="line2d_14">
    <path d="M 78.781989 242.201372 
L 80.001883 244.111841 
L 81.221777 245.34 
L 82.441672 240.76852 
L 83.661566 243.3613 
L 84.88146 241.791986 
L 86.101355 241.45083 
L 87.321249 242.406065 
L 88.541143 244.111841 
L 89.761038 243.975379 
L 90.980932 125.662744 
L 92.200826 194.303177 
L 93.420721 218.388736 
L 94.640615 227.258773 
L 95.860509 234.491264 
L 97.080404 235.514729 
L 99.520192 225.484765 
L 100.740087 210.883321 
L 101.959981 190.550469 
L 103.179875 151.044693 
L 105.619664 123.001733 
L 106.839558 114.950469 
L 108.059453 111.334224 
L 109.279347 102.805343 
L 111.719136 95.914007 
L 115.378819 79.060939 
L 116.598713 76.263466 
L 117.818607 72.988375 
L 119.038502 73.397762 
L 120.258396 68.553357 
L 121.47829 67.188736 
L 122.698185 63.845415 
L 123.918079 61.934946 
L 125.137973 57.704621 
L 126.357868 57.02231 
L 127.577762 58.182238 
L 128.797656 55.248303 
L 130.017551 54.497762 
L 131.237445 54.088375 
L 132.457339 50.813285 
L 133.677234 49.585126 
L 134.897128 47.606426 
L 136.117022 47.401733 
L 137.336917 46.378267 
L 138.556811 46.241805 
L 139.776705 44.263105 
L 140.9966 43.853718 
L 142.216494 40.71509 
L 143.436388 40.373935 
L 144.656283 38.872852 
L 145.876177 38.258773 
L 147.096071 38.395235 
L 148.315966 37.167076 
L 149.53586 37.030614 
L 150.755754 38.190542 
L 151.975649 36.894152 
L 153.195543 39.555162 
L 154.415437 37.44 
L 155.635332 36.348303 
L 156.855226 37.167076 
L 158.07512 36.211841 
L 159.295015 33.823755 
L 161.734803 34.84722 
L 162.954698 33.277906 
L 164.174592 33.687292 
L 165.394486 30.548664 
L 166.614381 30.139278 
L 167.834275 31.640361 
L 169.054169 31.503899 
L 170.274064 31.640361 
L 171.493958 30.412202 
L 172.713852 32.25444 
L 173.933747 30.685126 
L 175.153641 30.889819 
L 177.59343 30.207509 
L 178.813324 30.27574 
L 180.033218 29.661661 
L 181.253113 30.958051 
L 182.473007 30.821588 
L 183.692901 31.162744 
L 184.912796 31.981516 
L 186.13269 31.503899 
L 187.352584 33.619061 
L 188.572479 31.845054 
L 189.792373 31.230975 
L 191.012267 29.866354 
L 192.232162 29.934585 
L 193.452056 31.367437 
L 195.891845 33.414368 
L 197.111739 33.073213 
L 198.331633 31.776823 
L 199.551528 33.073213 
L 200.771422 33.346137 
L 201.991316 32.800289 
L 203.211211 33.277906 
L 204.431105 33.55083 
L 205.650999 32.117978 
L 206.870894 31.845054 
L 208.090788 33.346137 
L 209.310682 31.981516 
L 210.530577 32.459134 
L 211.750471 31.435668 
L 212.970365 33.209675 
L 214.19026 34.301372 
L 215.410154 33.414368 
L 216.630048 33.960217 
L 217.849943 35.597762 
L 219.069837 34.574296 
L 220.289731 34.096679 
L 221.509626 34.028448 
L 222.72952 33.346137 
L 223.949414 32.800289 
L 225.169309 31.367437 
L 226.389203 32.459134 
L 227.609097 32.390903 
L 228.828992 30.685126 
L 230.048886 30.480433 
L 231.26878 31.094513 
L 233.708569 29.456968 
L 234.928463 28.024116 
L 236.148358 27.341805 
L 237.368252 28.024116 
L 238.588146 27.955884 
L 239.808041 28.365271 
L 241.027935 28.433502 
L 242.247829 28.29704 
L 243.467724 27.955884 
L 244.687618 27.887653 
L 247.127407 29.59343 
L 248.347301 29.729892 
L 249.567195 30.139278 
L 250.78709 29.525199 
L 252.006984 30.412202 
L 253.226878 29.320505 
L 254.446773 28.911119 
L 255.666667 29.252274 
L 256.886561 29.184043 
L 258.106456 30.548664 
L 259.32635 29.729892 
L 260.546244 29.798123 
L 262.986033 29.388736 
L 264.205927 29.661661 
L 265.425822 30.412202 
L 266.645716 29.661661 
L 267.86561 30.071047 
L 269.085505 30.071047 
L 270.305399 28.911119 
L 271.525293 28.160578 
L 272.745188 29.59343 
L 273.965082 29.320505 
L 275.184976 28.911119 
L 276.404871 29.525199 
L 277.624765 28.29704 
L 278.844659 27.819422 
L 280.064554 30.207509 
L 281.284448 29.866354 
L 282.504342 28.433502 
L 283.724237 28.842888 
L 284.944131 30.412202 
L 286.164025 29.320505 
L 287.38392 30.753357 
L 288.603814 30.958051 
L 289.823708 31.776823 
L 291.043603 30.343971 
L 292.263497 30.480433 
L 293.483391 29.661661 
L 295.92318 30.889819 
L 297.143074 31.981516 
L 299.582863 31.094513 
L 300.802757 31.845054 
L 303.242546 30.685126 
L 304.46244 30.685126 
L 305.682335 30.480433 
L 306.902229 29.866354 
L 308.122123 30.821588 
L 309.342018 30.616895 
L 310.561912 31.981516 
L 311.781806 31.57213 
L 313.001701 31.708592 
L 314.221595 32.25444 
L 315.441489 32.049747 
L 316.661384 32.390903 
L 317.881278 33.004982 
L 319.101172 33.209675 
L 321.540961 31.845054 
L 322.760855 32.117978 
L 323.98075 31.845054 
L 325.200644 32.117978 
L 326.420538 32.86852 
L 327.640433 32.049747 
L 328.860327 31.913285 
L 330.080221 32.049747 
L 331.300116 32.459134 
L 332.52001 31.913285 
L 333.739904 31.845054 
L 334.959799 31.503899 
L 336.179693 32.049747 
L 337.399587 31.57213 
L 338.619482 33.004982 
L 339.839376 33.141444 
L 341.05927 33.073213 
L 342.279165 32.527365 
L 343.499059 33.687292 
L 344.718953 32.936751 
L 345.938848 32.049747 
L 347.158742 33.277906 
L 348.378636 31.981516 
L 349.598531 32.459134 
L 350.818425 32.595596 
L 352.038319 33.073213 
L 354.478108 31.845054 
L 355.698002 31.913285 
L 356.917897 31.435668 
L 358.137791 33.482599 
L 359.357685 32.595596 
L 360.57758 33.073213 
L 361.797474 33.209675 
L 363.017368 32.86852 
L 364.237263 31.230975 
L 365.457157 31.913285 
L 366.677051 31.640361 
L 367.896946 30.343971 
L 369.11684 30.27574 
L 370.336734 31.640361 
L 371.556629 31.845054 
L 372.776523 32.390903 
L 373.996417 32.117978 
L 375.216312 32.800289 
L 376.436206 33.755523 
L 377.6561 32.595596 
L 378.875995 33.209675 
L 380.095889 32.663827 
L 381.315783 33.277906 
L 382.535678 31.708592 
L 383.755572 32.049747 
L 384.975467 32.732058 
L 386.195361 31.640361 
L 387.415255 31.981516 
L 388.63515 31.230975 
L 389.855044 30.753357 
L 391.074938 31.230975 
L 392.294833 31.503899 
L 393.514727 31.503899 
L 394.734621 31.026282 
L 395.954516 29.934585 
L 397.17441 29.456968 
L 399.614199 30.958051 
L 400.834093 29.456968 
L 402.053987 29.047581 
L 403.273882 29.456968 
L 404.493776 30.002816 
L 405.71367 29.798123 
L 406.933565 29.798123 
L 408.153459 28.433502 
L 409.373353 27.273574 
L 410.593248 28.092347 
L 411.813142 27.205343 
L 413.033036 27.00065 
L 414.252931 28.501733 
L 415.472825 27.887653 
L 416.692719 27.819422 
L 417.912614 28.638195 
L 419.132508 28.365271 
L 420.352402 27.137112 
L 421.572297 27.887653 
L 422.792191 29.456968 
L 424.012085 28.29704 
L 426.451874 29.047581 
L 427.671768 28.97935 
L 428.891663 30.207509 
L 430.111557 29.798123 
L 431.331451 29.661661 
L 432.551346 30.27574 
L 434.991134 28.433502 
L 436.211029 28.365271 
L 437.430923 28.911119 
L 438.650817 28.638195 
L 439.870712 28.092347 
L 443.530395 29.59343 
L 444.750289 28.842888 
L 445.970183 30.139278 
L 447.190078 28.638195 
L 448.409972 28.842888 
L 449.629866 28.433502 
L 450.849761 29.115812 
L 453.289549 28.365271 
L 454.509444 28.774657 
L 455.729338 28.774657 
L 456.949232 28.433502 
L 458.169127 29.047581 
L 460.608915 29.661661 
L 461.82881 29.252274 
L 463.048704 29.320505 
L 464.268598 29.184043 
L 465.488493 28.911119 
L 466.708387 28.433502 
L 467.928281 28.842888 
L 470.36807 28.228809 
L 471.587964 29.388736 
L 472.807859 28.365271 
L 474.027753 28.97935 
L 475.247647 28.29704 
L 476.467542 28.433502 
L 477.687436 28.433502 
L 478.90733 28.092347 
L 480.127225 28.501733 
L 481.347119 28.29704 
L 482.567013 29.252274 
L 483.786908 28.024116 
L 485.006802 27.341805 
L 486.226696 28.433502 
L 487.446591 28.160578 
L 489.886379 26.250108 
L 491.106274 27.614729 
L 492.326168 27.273574 
L 493.546062 26.523032 
L 494.765957 26.795957 
L 495.985851 27.410036 
L 497.205745 27.341805 
L 498.42564 26.795957 
L 499.645534 26.795957 
L 500.865428 28.842888 
L 502.085323 29.115812 
L 503.305217 28.911119 
L 504.525111 29.320505 
L 505.745006 28.228809 
L 506.9649 27.68296 
L 508.184794 27.00065 
L 509.404689 27.205343 
L 511.844477 28.228809 
L 513.064372 27.410036 
L 514.284266 28.29704 
L 515.50416 27.68296 
L 516.724055 27.410036 
L 517.943949 28.365271 
L 519.163843 28.433502 
L 521.603632 26.523032 
L 522.823526 26.795957 
L 524.043421 26.045415 
L 525.263315 26.727726 
L 526.483209 27.273574 
L 527.703104 26.318339 
L 528.922998 26.795957 
L 530.142892 25.840722 
L 531.362787 26.659495 
L 532.582681 25.431336 
L 533.802575 25.499567 
L 535.02247 26.591264 
L 536.242364 24.680794 
L 537.462258 25.158412 
L 538.682153 24.817256 
L 541.121941 25.021949 
L 542.341836 25.636029 
L 543.56173 25.021949 
L 544.781624 24.612563 
L 546.001519 24.40787 
L 547.221413 25.090181 
L 548.441307 25.363105 
L 550.881096 24.885487 
L 552.10099 24.817256 
L 553.320885 25.158412 
L 554.540779 25.021949 
L 555.760673 23.930253 
L 556.980568 23.384404 
L 558.200462 23.657329 
L 559.420356 23.72556 
L 560.640251 23.452635 
L 561.860145 23.72556 
L 563.080039 24.544332 
L 564.299934 24.134946 
L 565.519828 24.134946 
L 566.739722 24.680794 
L 567.959617 24.544332 
L 569.179511 23.589097 
L 570.399405 23.862022 
L 571.6193 23.930253 
L 572.839194 23.657329 
L 574.059088 23.589097 
L 575.278983 23.384404 
L 576.498877 22.633863 
L 577.718771 22.702094 
L 578.938666 22.633863 
L 580.15856 23.316173 
L 582.598349 22.42917 
L 583.818243 22.088014 
L 586.258032 21.610397 
L 587.477926 20.5187 
L 588.69782 21.201011 
L 589.917715 21.746859 
L 591.137609 22.838556 
L 592.357503 22.906787 
L 593.577398 22.019783 
L 594.797292 21.678628 
L 596.017186 22.224477 
L 597.237081 22.497401 
L 598.456975 21.678628 
L 599.676869 21.81509 
L 600.896764 22.42917 
L 602.116658 21.746859 
L 603.336552 22.633863 
L 604.556447 22.292708 
L 605.776341 22.088014 
L 606.996235 22.224477 
L 608.21613 22.838556 
L 609.436024 21.81509 
L 610.655918 22.088014 
L 611.875813 23.11148 
L 613.095707 21.337473 
L 614.315601 21.542166 
L 615.535496 22.633863 
L 616.75539 22.906787 
L 619.195179 21.337473 
L 620.415073 21.269242 
L 621.634967 20.245776 
L 622.854862 19.972852 
L 624.074756 19.495235 
L 625.29465 18.881155 
L 626.514545 18.608231 
L 627.734439 19.427004 
L 628.954333 19.358773 
L 630.174228 20.109314 
L 631.394122 19.495235 
L 632.614016 19.22231 
L 633.833911 20.177545 
L 635.053805 19.768159 
L 636.273699 19.631697 
L 637.493594 20.245776 
L 638.713488 19.972852 
L 639.933382 19.972852 
L 641.153277 19.83639 
L 642.373171 20.314007 
L 643.593065 19.768159 
L 644.81296 19.085848 
L 646.032854 19.495235 
L 647.252748 19.768159 
L 648.472643 20.177545 
L 649.692537 19.83639 
L 652.132326 20.177545 
L 653.35222 19.904621 
L 654.572114 20.109314 
L 655.792009 20.177545 
L 657.011903 19.563466 
L 658.231797 19.563466 
L 659.451692 19.699928 
L 660.671586 18.608231 
L 663.111375 18.949386 
L 664.331269 19.83639 
L 665.551163 19.22231 
L 666.771058 19.904621 
L 667.990952 19.495235 
L 669.210846 19.358773 
L 670.430741 19.631697 
L 671.650635 19.017617 
L 672.870529 19.631697 
L 674.090424 18.949386 
L 675.310318 19.22231 
L 676.530212 18.949386 
L 677.750107 19.495235 
L 678.970001 18.54 
L 680.189895 19.154079 
L 681.40979 19.017617 
L 682.629684 19.22231 
L 683.849578 19.154079 
L 685.069473 19.358773 
L 686.289367 19.768159 
L 687.509261 19.904621 
L 687.509261 19.904621 
" clip-path="url(#p59caa243da)" style="fill: none; stroke: #1f77b4; stroke-width: 1.5; stroke-linecap: square"/>
   </g>
   <g id="line2d_15">
    <path d="M 78.781989 240.15444 
L 80.001883 225.962383 
L 82.441672 206.380072 
L 83.661566 198.055884 
L 84.88146 193.82556 
L 86.101355 190.209314 
L 87.321249 184.887292 
L 88.541143 182.362744 
L 90.980932 176.426643 
L 92.200826 175.471408 
L 93.420721 170.968159 
L 94.640615 169.535307 
L 95.860509 164.963827 
L 97.080404 163.87213 
L 98.300298 161.688736 
L 99.520192 162.643971 
L 100.740087 161.211119 
L 101.959981 160.187653 
L 103.179875 160.460578 
L 104.39977 156.503177 
L 105.619664 155.002094 
L 106.839558 155.820866 
L 108.059453 154.388014 
L 109.279347 153.705704 
L 110.499241 153.637473 
L 111.719136 151.727004 
L 112.93903 151.317617 
L 114.158924 149.952996 
L 115.378819 149.952996 
L 116.598713 148.178989 
L 117.818607 149.54361 
L 119.038502 146.882599 
L 120.258396 148.383682 
L 121.47829 147.496679 
L 122.698185 144.835668 
L 123.918079 145.586209 
L 125.137973 145.65444 
L 126.357868 145.313285 
L 127.577762 143.607509 
L 128.797656 143.471047 
L 130.017551 145.517978 
L 131.237445 141.833502 
L 132.457339 143.198123 
L 133.677234 141.628809 
L 134.897128 142.37935 
L 136.117022 141.355884 
L 137.336917 139.513646 
L 138.556811 140.537112 
L 139.776705 139.854801 
L 140.9966 139.445415 
L 142.216494 139.854801 
L 143.436388 138.353718 
L 144.656283 137.80787 
L 145.876177 138.421949 
L 147.096071 138.149025 
L 148.315966 137.671408 
L 149.53586 134.942166 
L 150.755754 137.262022 
L 151.975649 135.419783 
L 153.195543 136.852635 
L 154.415437 135.21509 
L 155.635332 134.259856 
L 156.855226 136.375018 
L 158.07512 133.9187 
L 159.295015 134.669242 
L 161.734803 132.690542 
L 162.954698 132.349386 
L 164.174592 133.577545 
L 165.394486 133.304621 
L 167.834275 131.598845 
L 169.054169 132.895235 
L 170.274064 130.438917 
L 171.493958 129.824838 
L 172.713852 131.462383 
L 173.933747 130.370686 
L 175.153641 129.620144 
L 176.373535 130.848303 
L 177.59343 128.528448 
L 178.813324 129.006065 
L 180.033218 128.255523 
L 181.253113 128.733141 
L 182.473007 126.617978 
L 183.692901 127.232058 
L 184.912796 126.276823 
L 186.13269 127.777906 
L 187.352584 127.300289 
L 188.572479 126.549747 
L 189.792373 124.980433 
L 191.012267 124.639278 
L 192.232162 124.980433 
L 193.452056 124.502816 
L 194.67195 126.617978 
L 195.891845 125.662744 
L 197.111739 123.684043 
L 198.331633 123.615812 
L 199.551528 124.229892 
L 200.771422 124.025199 
L 201.991316 122.046498 
L 203.211211 122.933502 
L 204.431105 124.229892 
L 205.650999 123.206426 
L 206.870894 123.001733 
L 208.090788 121.159495 
L 209.310682 120.954801 
L 210.530577 120.20426 
L 211.750471 121.364188 
L 212.970365 121.091264 
L 214.19026 119.590181 
L 215.410154 120.681877 
L 216.630048 120.20426 
L 217.849943 120.477184 
L 219.069837 117.884404 
L 220.289731 119.044332 
L 221.509626 119.317256 
L 222.72952 119.044332 
L 223.949414 118.634946 
L 225.169309 117.270325 
L 226.389203 118.976101 
L 227.609097 119.453718 
L 228.828992 117.475018 
L 230.048886 114.541083 
L 231.26878 116.383321 
L 232.488675 117.543249 
L 233.708569 116.110397 
L 234.928463 115.63278 
L 237.368252 115.564549 
L 238.588146 115.291625 
L 239.808041 116.656245 
L 241.027935 115.223394 
L 242.247829 113.108231 
L 244.687618 114.472852 
L 245.907512 113.244693 
L 247.127407 111.607148 
L 248.347301 114.063466 
L 249.567195 113.108231 
L 250.78709 112.971769 
L 252.006984 112.35769 
L 253.226878 112.084765 
L 254.446773 112.494152 
L 255.666667 112.494152 
L 256.886561 111.675379 
L 258.106456 110.44722 
L 260.546244 110.515451 
L 261.766139 111.811841 
L 262.986033 110.720144 
L 264.205927 110.993069 
L 265.425822 112.289458 
L 266.645716 109.901372 
L 267.86561 111.811841 
L 269.085505 110.993069 
L 270.305399 109.560217 
L 271.525293 109.355523 
L 272.745188 109.969603 
L 273.965082 108.673213 
L 275.184976 108.263827 
L 277.624765 110.44722 
L 278.844659 107.445054 
L 280.064554 109.355523 
L 282.504342 107.513285 
L 283.724237 108.195596 
L 284.944131 108.604982 
L 286.164025 107.445054 
L 287.38392 107.376823 
L 288.603814 107.85444 
L 289.823708 109.560217 
L 291.043603 107.786209 
L 292.263497 105.602816 
L 293.483391 105.739278 
L 295.92318 108.400289 
L 297.143074 106.830975 
L 299.582863 104.920505 
L 300.802757 102.532419 
L 302.022652 103.828809 
L 303.242546 104.101733 
L 304.46244 101.98657 
L 305.682335 100.894874 
L 306.902229 103.351191 
L 308.122123 101.98657 
L 309.342018 103.487653 
L 310.561912 101.713646 
L 311.781806 101.30426 
L 313.001701 100.553718 
L 314.221595 101.372491 
L 315.441489 102.805343 
L 316.661384 101.372491 
L 317.881278 101.713646 
L 319.101172 101.440722 
L 320.321067 99.939639 
L 321.540961 101.440722 
L 322.760855 99.257329 
L 323.98075 100.553718 
L 325.200644 97.210397 
L 326.420538 100.349025 
L 327.640433 100.417256 
L 328.860327 98.575018 
L 330.080221 98.097401 
L 331.300116 98.438556 
L 332.52001 100.212563 
L 333.739904 100.280794 
L 334.959799 98.847942 
L 336.179693 98.370325 
L 337.399587 99.871408 
L 338.619482 98.165632 
L 339.839376 100.076101 
L 341.05927 97.142166 
L 342.279165 95.163466 
L 343.499059 96.801011 
L 344.718953 96.323394 
L 345.938848 97.346859 
L 347.158742 96.596318 
L 348.378636 96.73278 
L 349.598531 96.255162 
L 350.818425 95.163466 
L 352.038319 97.41509 
L 353.258214 95.845776 
L 354.478108 95.095235 
L 355.698002 95.095235 
L 356.917897 93.798845 
L 358.137791 94.82231 
L 359.357685 95.641083 
L 360.57758 95.572852 
L 361.797474 93.116534 
L 363.017368 92.229531 
L 364.237263 94.071769 
L 365.457157 94.754079 
L 366.677051 94.890542 
L 367.896946 94.344693 
L 369.11684 92.229531 
L 370.336734 92.707148 
L 371.556629 95.231697 
L 372.776523 92.297762 
L 373.996417 91.820144 
L 375.216312 92.638917 
L 376.436206 91.274296 
L 377.6561 92.229531 
L 378.875995 91.478989 
L 380.095889 90.25083 
L 381.315783 91.342527 
L 382.535678 91.137834 
L 384.975467 90.933141 
L 386.195361 89.773213 
L 387.415255 90.182599 
L 388.63515 93.594152 
L 389.855044 91.751913 
L 391.074938 88.817978 
L 392.294833 89.773213 
L 393.514727 88.681516 
L 394.734621 89.841444 
L 395.954516 90.182599 
L 397.17441 89.909675 
L 398.394304 87.316895 
L 399.614199 91.137834 
L 400.834093 91.001372 
L 402.053987 88.95444 
L 403.273882 89.773213 
L 404.493776 91.615451 
L 405.71367 87.658051 
L 406.933565 89.909675 
L 408.153459 87.589819 
L 409.373353 87.453357 
L 410.593248 88.135668 
L 411.813142 86.020505 
L 413.033036 86.839278 
L 414.252931 86.156968 
L 415.472825 87.385126 
L 416.692719 86.702816 
L 417.912614 83.837112 
L 419.132508 85.338195 
L 420.352402 85.269964 
L 422.792191 83.564188 
L 424.012085 83.973574 
L 425.23198 83.018339 
L 426.451874 83.905343 
L 427.671768 85.406426 
L 428.891663 83.973574 
L 430.111557 80.562022 
L 431.331451 84.860578 
L 432.551346 84.38296 
L 433.77124 82.608953 
L 434.991134 82.540722 
L 436.211029 81.312563 
L 438.650817 80.357329 
L 439.870712 77.901011 
L 441.090606 81.10787 
L 442.3105 80.766715 
L 444.750289 81.517256 
L 445.970183 79.947942 
L 447.190078 80.630253 
L 448.409972 81.585487 
L 449.629866 78.583321 
L 450.849761 80.357329 
L 452.069655 78.310397 
L 453.289549 81.10787 
L 454.509444 77.559856 
L 455.729338 80.016173 
L 456.949232 80.016173 
L 458.169127 80.42556 
L 459.389021 76.604621 
L 460.608915 77.082238 
L 461.82881 78.788014 
L 463.048704 75.92231 
L 465.488493 78.173935 
L 466.708387 77.286931 
L 467.928281 77.286931 
L 469.148176 76.058773 
L 470.36807 75.649386 
L 471.587964 76.058773 
L 472.807859 77.355162 
L 474.027753 76.672852 
L 475.247647 78.310397 
L 476.467542 74.694152 
L 477.687436 76.468159 
L 478.90733 76.195235 
L 480.127225 75.035307 
L 481.347119 75.92231 
L 482.567013 75.171769 
L 483.786908 74.55769 
L 485.006802 75.785848 
L 486.226696 73.397762 
L 487.446591 74.148303 
L 488.666485 75.990542 
L 489.886379 74.216534 
L 491.106274 75.035307 
L 492.326168 74.625921 
L 493.546062 74.762383 
L 494.765957 74.421227 
L 495.985851 74.830614 
L 497.205745 72.988375 
L 498.42564 75.854079 
L 499.645534 75.444693 
L 502.085323 72.510758 
L 503.305217 73.124838 
L 504.525111 73.465993 
L 505.745006 74.694152 
L 506.9649 74.421227 
L 508.184794 72.64722 
L 509.404689 71.96491 
L 510.624583 72.510758 
L 511.844477 71.96491 
L 513.064372 72.101372 
L 514.284266 71.623755 
L 515.50416 70.463827 
L 516.724055 70.532058 
L 519.163843 72.374296 
L 520.383738 69.781516 
L 521.603632 71.419061 
L 522.823526 68.553357 
L 524.043421 71.214368 
L 525.263315 70.259134 
L 526.483209 70.873213 
L 527.703104 70.395596 
L 528.922998 69.235668 
L 530.142892 68.416895 
L 531.362787 68.553357 
L 532.582681 69.781516 
L 533.802575 69.37213 
L 535.02247 70.259134 
L 536.242364 70.736751 
L 537.462258 69.235668 
L 538.682153 68.962744 
L 539.902047 70.327365 
L 541.121941 68.143971 
L 542.341836 66.369964 
L 543.56173 68.894513 
L 544.781624 68.758051 
L 546.001519 67.325199 
L 547.221413 66.915812 
L 548.441307 67.529892 
L 549.661202 72.101372 
L 550.881096 66.847581 
L 552.10099 67.734585 
L 553.320885 69.030975 
L 554.540779 67.461661 
L 555.760673 68.962744 
L 556.980568 66.847581 
L 558.200462 67.734585 
L 559.420356 66.369964 
L 560.640251 66.233502 
L 561.860145 67.461661 
L 563.080039 68.007509 
L 564.299934 66.915812 
L 565.519828 67.871047 
L 566.739722 66.09704 
L 567.959617 66.233502 
L 569.179511 66.642888 
L 570.399405 64.80065 
L 571.6193 65.005343 
L 572.839194 66.369964 
L 574.059088 64.664188 
L 575.278983 65.210036 
L 576.498877 63.026643 
L 577.718771 63.981877 
L 578.938666 66.369964 
L 580.15856 64.254801 
L 581.378454 63.367798 
L 582.598349 64.732419 
L 583.818243 62.890181 
L 585.038137 64.118339 
L 586.258032 66.847581 
L 587.477926 64.050108 
L 588.69782 63.163105 
L 589.917715 65.755884 
L 591.137609 64.18657 
L 592.357503 63.163105 
L 593.577398 61.389097 
L 594.797292 63.299567 
L 596.017186 62.480794 
L 597.237081 62.821949 
L 598.456975 61.047942 
L 599.676869 61.593791 
L 600.896764 62.276101 
L 602.116658 62.344332 
L 603.336552 61.116173 
L 604.556447 58.728087 
L 605.776341 63.436029 
L 606.996235 60.092708 
L 608.21613 62.20787 
L 609.436024 60.979711 
L 610.655918 62.480794 
L 611.875813 61.116173 
L 613.095707 61.593791 
L 614.315601 62.20787 
L 615.535496 60.570325 
L 616.75539 61.866715 
L 617.975284 60.22917 
L 619.195179 61.389097 
L 620.415073 60.570325 
L 621.634967 62.071408 
L 622.854862 61.252635 
L 624.074756 58.591625 
L 625.29465 61.047942 
L 626.514545 58.864549 
L 627.734439 58.523394 
L 628.954333 59.888014 
L 630.174228 58.93278 
L 631.394122 59.956245 
L 632.614016 58.864549 
L 633.833911 57.363466 
L 635.053805 59.888014 
L 636.273699 57.499928 
L 637.493594 57.158773 
L 638.713488 57.227004 
L 639.933382 59.001011 
L 641.153277 57.841083 
L 642.373171 57.227004 
L 643.593065 57.841083 
L 644.81296 55.589458 
L 646.032854 58.591625 
L 647.252748 59.001011 
L 648.472643 55.180072 
L 649.692537 58.864549 
L 650.912431 57.295235 
L 652.132326 57.841083 
L 653.35222 57.295235 
L 654.572114 55.589458 
L 655.792009 56.067076 
L 657.011903 57.227004 
L 659.451692 58.659856 
L 660.671586 55.180072 
L 661.89148 54.975379 
L 663.111375 55.521227 
L 664.331269 57.568159 
L 665.551163 55.930614 
L 666.771058 55.998845 
L 667.990952 53.542527 
L 669.210846 55.316534 
L 670.430741 55.452996 
L 671.650635 56.612924 
L 672.870529 56.135307 
L 674.090424 54.429531 
L 675.310318 54.3613 
L 676.530212 54.907148 
L 677.750107 54.975379 
L 678.970001 56.271769 
L 680.189895 56.544693 
L 681.40979 53.610758 
L 682.629684 54.975379 
L 683.849578 56.067076 
L 685.069473 53.542527 
L 686.289367 54.088375 
L 687.509261 54.838917 
L 687.509261 54.838917 
" clip-path="url(#p59caa243da)" style="fill: none; stroke: #ff7f0e; stroke-width: 1.5; stroke-linecap: square"/>
   </g>
   <g id="patch_3">
    <path d="M 48.345625 256.68 
L 48.345625 7.2 
" style="fill: none; stroke: #000000; stroke-width: 0.8; stroke-linejoin: miter; stroke-linecap: square"/>
   </g>
   <g id="patch_4">
    <path d="M 717.945625 256.68 
L 717.945625 7.2 
" style="fill: none; stroke: #000000; stroke-width: 0.8; stroke-linejoin: miter; stroke-linecap: square"/>
   </g>
   <g id="patch_5">
    <path d="M 48.345625 256.68 
L 717.945625 256.68 
" style="fill: none; stroke: #000000; stroke-width: 0.8; stroke-linejoin: miter; stroke-linecap: square"/>
   </g>
   <g id="patch_6">
    <path d="M 48.345625 7.2 
L 717.945625 7.2 
" style="fill: none; stroke: #000000; stroke-width: 0.8; stroke-linejoin: miter; stroke-linecap: square"/>
   </g>
   <g id="legend_1">
    <g id="patch_7">
     <path d="M 513.625625 248.68 
L 706.745625 248.68 
Q 709.945625 248.68 709.945625 245.48 
L 709.945625 200.075 
Q 709.945625 196.875 706.745625 196.875 
L 513.625625 196.875 
Q 510.425625 196.875 510.425625 200.075 
L 510.425625 245.48 
Q 510.425625 248.68 513.625625 248.68 
z
" style="fill: #ffffff; opacity: 0.8; stroke: #cccccc; stroke-linejoin: miter"/>
    </g>
    <g id="line2d_16">
     <path d="M 516.825625 209.8325 
L 532.825625 209.8325 
L 548.825625 209.8325 
" style="fill: none; stroke: #1f77b4; stroke-width: 1.5; stroke-linecap: square"/>
    </g>
    <g id="text_16">
     <!-- UCB ($c=1$) -->
     <g transform="translate(561.625625 215.4325) scale(0.16 -0.16)">
      <defs>
       <path id="DejaVuSans-55" d="M 556 4666 
L 1191 4666 
L 1191 1831 
Q 1191 1081 1462 751 
Q 1734 422 2344 422 
Q 2950 422 3222 751 
Q 3494 1081 3494 1831 
L 3494 4666 
L 4128 4666 
L 4128 1753 
Q 4128 841 3676 375 
Q 3225 -91 2344 -91 
Q 1459 -91 1007 375 
Q 556 841 556 1753 
L 556 4666 
z
" transform="scale(0.015625)"/>
       <path id="DejaVuSans-43" d="M 4122 4306 
L 4122 3641 
Q 3803 3938 3442 4084 
Q 3081 4231 2675 4231 
Q 1875 4231 1450 3742 
Q 1025 3253 1025 2328 
Q 1025 1406 1450 917 
Q 1875 428 2675 428 
Q 3081 428 3442 575 
Q 3803 722 4122 1019 
L 4122 359 
Q 3791 134 3420 21 
Q 3050 -91 2638 -91 
Q 1578 -91 968 557 
Q 359 1206 359 2328 
Q 359 3453 968 4101 
Q 1578 4750 2638 4750 
Q 3056 4750 3426 4639 
Q 3797 4528 4122 4306 
z
" transform="scale(0.015625)"/>
       <path id="DejaVuSans-42" d="M 1259 2228 
L 1259 519 
L 2272 519 
Q 2781 519 3026 730 
Q 3272 941 3272 1375 
Q 3272 1813 3026 2020 
Q 2781 2228 2272 2228 
L 1259 2228 
z
M 1259 4147 
L 1259 2741 
L 2194 2741 
Q 2656 2741 2882 2914 
Q 3109 3088 3109 3444 
Q 3109 3797 2882 3972 
Q 2656 4147 2194 4147 
L 1259 4147 
z
M 628 4666 
L 2241 4666 
Q 2963 4666 3353 4366 
Q 3744 4066 3744 3513 
Q 3744 3084 3544 2831 
Q 3344 2578 2956 2516 
Q 3422 2416 3680 2098 
Q 3938 1781 3938 1306 
Q 3938 681 3513 340 
Q 3088 0 2303 0 
L 628 0 
L 628 4666 
z
" transform="scale(0.015625)"/>
       <path id="DejaVuSans-28" d="M 1984 4856 
Q 1566 4138 1362 3434 
Q 1159 2731 1159 2009 
Q 1159 1288 1364 580 
Q 1569 -128 1984 -844 
L 1484 -844 
Q 1016 -109 783 600 
Q 550 1309 550 2009 
Q 550 2706 781 3412 
Q 1013 4119 1484 4856 
L 1984 4856 
z
" transform="scale(0.015625)"/>
       <path id="DejaVuSans-Oblique-63" d="M 3431 3366 
L 3316 2797 
Q 3109 2947 2876 3022 
Q 2644 3097 2394 3097 
Q 2119 3097 1870 3000 
Q 1622 2903 1453 2725 
Q 1184 2453 1037 2087 
Q 891 1722 891 1331 
Q 891 859 1127 628 
Q 1363 397 1844 397 
Q 2081 397 2348 469 
Q 2616 541 2906 684 
L 2797 116 
Q 2547 13 2283 -39 
Q 2019 -91 1741 -91 
Q 1044 -91 669 257 
Q 294 606 294 1253 
Q 294 1797 489 2255 
Q 684 2713 1069 3078 
Q 1331 3328 1684 3456 
Q 2038 3584 2456 3584 
Q 2700 3584 2940 3529 
Q 3181 3475 3431 3366 
z
" transform="scale(0.015625)"/>
       <path id="DejaVuSans-3d" d="M 678 2906 
L 4684 2906 
L 4684 2381 
L 678 2381 
L 678 2906 
z
M 678 1631 
L 4684 1631 
L 4684 1100 
L 678 1100 
L 678 1631 
z
" transform="scale(0.015625)"/>
       <path id="DejaVuSans-29" d="M 513 4856 
L 1013 4856 
Q 1481 4119 1714 3412 
Q 1947 2706 1947 2009 
Q 1947 1309 1714 600 
Q 1481 -109 1013 -844 
L 513 -844 
Q 928 -128 1133 580 
Q 1338 1288 1338 2009 
Q 1338 2731 1133 3434 
Q 928 4138 513 4856 
z
" transform="scale(0.015625)"/>
      </defs>
      <use xlink:href="#DejaVuSans-55" transform="translate(0 0.125)"/>
      <use xlink:href="#DejaVuSans-43" transform="translate(73.193359 0.125)"/>
      <use xlink:href="#DejaVuSans-42" transform="translate(143.017578 0.125)"/>
      <use xlink:href="#DejaVuSans-20" transform="translate(211.621094 0.125)"/>
      <use xlink:href="#DejaVuSans-28" transform="translate(243.408203 0.125)"/>
      <use xlink:href="#DejaVuSans-Oblique-63" transform="translate(282.421875 0.125)"/>
      <use xlink:href="#DejaVuSans-3d" transform="translate(356.884766 0.125)"/>
      <use xlink:href="#DejaVuSans-31" transform="translate(460.15625 0.125)"/>
      <use xlink:href="#DejaVuSans-29" transform="translate(523.779297 0.125)"/>
     </g>
    </g>
    <g id="line2d_17">
     <path d="M 516.825625 233.32 
L 532.825625 233.32 
L 548.825625 233.32 
" style="fill: none; stroke: #ff7f0e; stroke-width: 1.5; stroke-linecap: square"/>
    </g>
    <g id="text_17">
     <!-- $\epsilon$-greedy ($\epsilon=0.1$) -->
     <g transform="translate(561.625625 238.92) scale(0.16 -0.16)">
      <defs>
       <path id="DejaVuSans-Oblique-3b5" d="M 1263 1888 
Q 925 1963 778 2166 
Q 669 2309 669 2503 
Q 669 3034 1175 3344 
Q 1575 3588 2188 3588 
Q 2425 3588 2684 3550 
Q 2944 3513 3234 3438 
L 3134 2916 
Q 2847 3006 2606 3047 
Q 2359 3088 2138 3088 
Q 1766 3088 1522 2944 
Q 1228 2772 1228 2522 
Q 1228 2356 1381 2241 
Q 1563 2103 1925 2103 
L 2409 2103 
L 2319 1628 
L 1856 1628 
Q 1425 1628 1172 1469 
Q 828 1253 828 916 
Q 828 703 1013 563 
Q 1244 388 1716 388 
Q 2006 388 2284 444 
Q 2563 503 2806 619 
L 2700 84 
Q 2403 -3 2131 -47 
Q 1859 -91 1609 -91 
Q 866 -91 516 194 
Q 250 413 250 781 
Q 250 1278 600 1584 
Q 859 1813 1263 1888 
z
" transform="scale(0.015625)"/>
       <path id="DejaVuSans-2d" d="M 313 2009 
L 1997 2009 
L 1997 1497 
L 313 1497 
L 313 2009 
z
" transform="scale(0.015625)"/>
       <path id="DejaVuSans-67" d="M 2906 1791 
Q 2906 2416 2648 2759 
Q 2391 3103 1925 3103 
Q 1463 3103 1205 2759 
Q 947 2416 947 1791 
Q 947 1169 1205 825 
Q 1463 481 1925 481 
Q 2391 481 2648 825 
Q 2906 1169 2906 1791 
z
M 3481 434 
Q 3481 -459 3084 -895 
Q 2688 -1331 1869 -1331 
Q 1566 -1331 1297 -1286 
Q 1028 -1241 775 -1147 
L 775 -588 
Q 1028 -725 1275 -790 
Q 1522 -856 1778 -856 
Q 2344 -856 2625 -561 
Q 2906 -266 2906 331 
L 2906 616 
Q 2728 306 2450 153 
Q 2172 0 1784 0 
Q 1141 0 747 490 
Q 353 981 353 1791 
Q 353 2603 747 3093 
Q 1141 3584 1784 3584 
Q 2172 3584 2450 3431 
Q 2728 3278 2906 2969 
L 2906 3500 
L 3481 3500 
L 3481 434 
z
" transform="scale(0.015625)"/>
       <path id="DejaVuSans-72" d="M 2631 2963 
Q 2534 3019 2420 3045 
Q 2306 3072 2169 3072 
Q 1681 3072 1420 2755 
Q 1159 2438 1159 1844 
L 1159 0 
L 581 0 
L 581 3500 
L 1159 3500 
L 1159 2956 
Q 1341 3275 1631 3429 
Q 1922 3584 2338 3584 
Q 2397 3584 2469 3576 
Q 2541 3569 2628 3553 
L 2631 2963 
z
" transform="scale(0.015625)"/>
       <path id="DejaVuSans-64" d="M 2906 2969 
L 2906 4863 
L 3481 4863 
L 3481 0 
L 2906 0 
L 2906 525 
Q 2725 213 2448 61 
Q 2172 -91 1784 -91 
Q 1150 -91 751 415 
Q 353 922 353 1747 
Q 353 2572 751 3078 
Q 1150 3584 1784 3584 
Q 2172 3584 2448 3432 
Q 2725 3281 2906 2969 
z
M 947 1747 
Q 947 1113 1208 752 
Q 1469 391 1925 391 
Q 2381 391 2643 752 
Q 2906 1113 2906 1747 
Q 2906 2381 2643 2742 
Q 2381 3103 1925 3103 
Q 1469 3103 1208 2742 
Q 947 2381 947 1747 
z
" transform="scale(0.015625)"/>
       <path id="DejaVuSans-79" d="M 2059 -325 
Q 1816 -950 1584 -1140 
Q 1353 -1331 966 -1331 
L 506 -1331 
L 506 -850 
L 844 -850 
Q 1081 -850 1212 -737 
Q 1344 -625 1503 -206 
L 1606 56 
L 191 3500 
L 800 3500 
L 1894 763 
L 2988 3500 
L 3597 3500 
L 2059 -325 
z
" transform="scale(0.015625)"/>
       <path id="DejaVuSans-2e" d="M 684 794 
L 1344 794 
L 1344 0 
L 684 0 
L 684 794 
z
" transform="scale(0.015625)"/>
      </defs>
      <use xlink:href="#DejaVuSans-Oblique-3b5" transform="translate(0 0.015625)"/>
      <use xlink:href="#DejaVuSans-2d" transform="translate(54.052734 0.015625)"/>
      <use xlink:href="#DejaVuSans-67" transform="translate(90.136719 0.015625)"/>
      <use xlink:href="#DejaVuSans-72" transform="translate(153.613281 0.015625)"/>
      <use xlink:href="#DejaVuSans-65" transform="translate(194.726562 0.015625)"/>
      <use xlink:href="#DejaVuSans-65" transform="translate(256.25 0.015625)"/>
      <use xlink:href="#DejaVuSans-64" transform="translate(317.773438 0.015625)"/>
      <use xlink:href="#DejaVuSans-79" transform="translate(381.25 0.015625)"/>
      <use xlink:href="#DejaVuSans-20" transform="translate(440.429688 0.015625)"/>
      <use xlink:href="#DejaVuSans-28" transform="translate(472.216797 0.015625)"/>
      <use xlink:href="#DejaVuSans-Oblique-3b5" transform="translate(511.230469 0.015625)"/>
      <use xlink:href="#DejaVuSans-3d" transform="translate(584.765625 0.015625)"/>
      <use xlink:href="#DejaVuSans-30" transform="translate(688.037109 0.015625)"/>
      <use xlink:href="#DejaVuSans-2e" transform="translate(751.660156 0.015625)"/>
      <use xlink:href="#DejaVuSans-31" transform="translate(783.447266 0.015625)"/>
      <use xlink:href="#DejaVuSans-29" transform="translate(847.070312 0.015625)"/>
     </g>
    </g>
   </g>
  </g>
 </g>
 <defs>
  <clipPath id="p59caa243da">
   <rect x="48.345625" y="7.2" width="669.6" height="249.48"/>
  </clipPath>
 </defs>
</svg>
