<?xml version="1.0" encoding="utf-8" standalone="no"?>
<!DOCTYPE svg PUBLIC "-//W3C//DTD SVG 1.1//EN"
  "http://www.w3.org/Graphics/SVG/1.1/DTD/svg11.dtd">
<svg xmlns:xlink="http://www.w3.org/1999/xlink" width="752.63875pt" height="408.36625pt" viewBox="0 0 752.63875 408.36625" xmlns="http://www.w3.org/2000/svg" version="1.1">
 <metadata>
  <rdf:RDF xmlns:dc="http://purl.org/dc/elements/1.1/" xmlns:cc="http://creativecommons.org/ns#" xmlns:rdf="http://www.w3.org/1999/02/22-rdf-syntax-ns#">
   <cc:Work>
    <dc:type rdf:resource="http://purl.org/dc/dcmitype/StillImage"/>
    <dc:date>2026-03-08T00:49:18.941438</dc:date>
    <dc:format>image/svg+xml</dc:format>
    <dc:creator>
     <cc:Agent>
      <dc:title>Matplotlib v3.10.3, https://matplotlib.org/</dc:title>
     </cc:Agent>
    </dc:creator>
   </cc:Work>
  </rdf:RDF>
 </metadata>
 <defs>
  <style type="text/css">*{stroke-linejoin: round; stroke-linecap: butt}</style>
 </defs>
 <g id="figure_1">
  <g id="patch_1">
   <path d="M 0 408.36625 
L 752.63875 408.36625 
L 752.63875 0 
L 0 0 
z
" style="fill: #ffffff"/>
  </g>
  <g id="axes_1">
   <g id="patch_2">
    <path d="M 75.83875 339.84 
L 745.43875 339.84 
L 745.43875 7.2 
L 75.83875 7.2 
z
" style="fill: #ffffff"/>
   </g>
   <g id="matplotlib.axis_1">
    <g id="xtick_1">
     <g id="line2d_1">
      <defs>
       <path id="m36eeb05a72" d="M 0 0 
L 0 3.5 
" style="stroke: #000000; stroke-width: 0.8"/>
      </defs>
      <g>
       <use xlink:href="#m36eeb05a72" x="106.275114" y="339.84" style="stroke: #000000; stroke-width: 0.8"/>
      </g>
     </g>
     <g id="text_1">
      <!-- 0 -->
      <g transform="translate(98.640114 365.07625) scale(0.24 -0.24)">
       <defs>
        <path id="DejaVuSans-30" d="M 2034 4250 
Q 1547 4250 1301 3770 
Q 1056 3291 1056 2328 
Q 1056 1369 1301 889 
Q 1547 409 2034 409 
Q 2525 409 2770 889 
Q 3016 1369 3016 2328 
Q 3016 3291 2770 3770 
Q 2525 4250 2034 4250 
z
M 2034 4750 
Q 2819 4750 3233 4129 
Q 3647 3509 3647 2328 
Q 3647 1150 3233 529 
Q 2819 -91 2034 -91 
Q 1250 -91 836 529 
Q 422 1150 422 2328 
Q 422 3509 836 4129 
Q 1250 4750 2034 4750 
z
" transform="scale(0.015625)"/>
       </defs>
       <use xlink:href="#DejaVuSans-30"/>
      </g>
     </g>
    </g>
    <g id="xtick_2">
     <g id="line2d_2">
      <g>
       <use xlink:href="#m36eeb05a72" x="228.264547" y="339.84" style="stroke: #000000; stroke-width: 0.8"/>
      </g>
     </g>
     <g id="text_2">
      <!-- 100 -->
      <g transform="translate(205.359547 365.07625) scale(0.24 -0.24)">
       <defs>
        <path id="DejaVuSans-31" d="M 794 531 
L 1825 531 
L 1825 4091 
L 703 3866 
L 703 4441 
L 1819 4666 
L 2450 4666 
L 2450 531 
L 3481 531 
L 3481 0 
L 794 0 
L 794 531 
z
" transform="scale(0.015625)"/>
       </defs>
       <use xlink:href="#DejaVuSans-31"/>
       <use xlink:href="#DejaVuSans-30" transform="translate(63.623047 0)"/>
       <use xlink:href="#DejaVuSans-30" transform="translate(127.246094 0)"/>
      </g>
     </g>
    </g>
    <g id="xtick_3">
     <g id="line2d_3">
      <g>
       <use xlink:href="#m36eeb05a72" x="350.25398" y="339.84" style="stroke: #000000; stroke-width: 0.8"/>
      </g>
     </g>
     <g id="text_3">
      <!-- 200 -->
      <g transform="translate(327.34898 365.07625) scale(0.24 -0.24)">
       <defs>
        <path id="DejaVuSans-32" d="M 1228 531 
L 3431 531 
L 3431 0 
L 469 0 
L 469 531 
Q 828 903 1448 1529 
Q 2069 2156 2228 2338 
Q 2531 2678 2651 2914 
Q 2772 3150 2772 3378 
Q 2772 3750 2511 3984 
Q 2250 4219 1831 4219 
Q 1534 4219 1204 4116 
Q 875 4013 500 3803 
L 500 4441 
Q 881 4594 1212 4672 
Q 1544 4750 1819 4750 
Q 2544 4750 2975 4387 
Q 3406 4025 3406 3419 
Q 3406 3131 3298 2873 
Q 3191 2616 2906 2266 
Q 2828 2175 2409 1742 
Q 1991 1309 1228 531 
z
" transform="scale(0.015625)"/>
       </defs>
       <use xlink:href="#DejaVuSans-32"/>
       <use xlink:href="#DejaVuSans-30" transform="translate(63.623047 0)"/>
       <use xlink:href="#DejaVuSans-30" transform="translate(127.246094 0)"/>
      </g>
     </g>
    </g>
    <g id="xtick_4">
     <g id="line2d_4">
      <g>
       <use xlink:href="#m36eeb05a72" x="472.243414" y="339.84" style="stroke: #000000; stroke-width: 0.8"/>
      </g>
     </g>
     <g id="text_4">
      <!-- 300 -->
      <g transform="translate(449.338414 365.07625) scale(0.24 -0.24)">
       <defs>
        <path id="DejaVuSans-33" d="M 2597 2516 
Q 3050 2419 3304 2112 
Q 3559 1806 3559 1356 
Q 3559 666 3084 287 
Q 2609 -91 1734 -91 
Q 1441 -91 1130 -33 
Q 819 25 488 141 
L 488 750 
Q 750 597 1062 519 
Q 1375 441 1716 441 
Q 2309 441 2620 675 
Q 2931 909 2931 1356 
Q 2931 1769 2642 2001 
Q 2353 2234 1838 2234 
L 1294 2234 
L 1294 2753 
L 1863 2753 
Q 2328 2753 2575 2939 
Q 2822 3125 2822 3475 
Q 2822 3834 2567 4026 
Q 2313 4219 1838 4219 
Q 1578 4219 1281 4162 
Q 984 4106 628 3988 
L 628 4550 
Q 988 4650 1302 4700 
Q 1616 4750 1894 4750 
Q 2613 4750 3031 4423 
Q 3450 4097 3450 3541 
Q 3450 3153 3228 2886 
Q 3006 2619 2597 2516 
z
" transform="scale(0.015625)"/>
       </defs>
       <use xlink:href="#DejaVuSans-33"/>
       <use xlink:href="#DejaVuSans-30" transform="translate(63.623047 0)"/>
       <use xlink:href="#DejaVuSans-30" transform="translate(127.246094 0)"/>
      </g>
     </g>
    </g>
    <g id="xtick_5">
     <g id="line2d_5">
      <g>
       <use xlink:href="#m36eeb05a72" x="594.232847" y="339.84" style="stroke: #000000; stroke-width: 0.8"/>
      </g>
     </g>
     <g id="text_5">
      <!-- 400 -->
      <g transform="translate(571.327847 365.07625) scale(0.24 -0.24)">
       <defs>
        <path id="DejaVuSans-34" d="M 2419 4116 
L 825 1625 
L 2419 1625 
L 2419 4116 
z
M 2253 4666 
L 3047 4666 
L 3047 1625 
L 3713 1625 
L 3713 1100 
L 3047 1100 
L 3047 0 
L 2419 0 
L 2419 1100 
L 313 1100 
L 313 1709 
L 2253 4666 
z
" transform="scale(0.015625)"/>
       </defs>
       <use xlink:href="#DejaVuSans-34"/>
       <use xlink:href="#DejaVuSans-30" transform="translate(63.623047 0)"/>
       <use xlink:href="#DejaVuSans-30" transform="translate(127.246094 0)"/>
      </g>
     </g>
    </g>
    <g id="xtick_6">
     <g id="line2d_6">
      <g>
       <use xlink:href="#m36eeb05a72" x="716.222281" y="339.84" style="stroke: #000000; stroke-width: 0.8"/>
      </g>
     </g>
     <g id="text_6">
      <!-- 500 -->
      <g transform="translate(693.317281 365.07625) scale(0.24 -0.24)">
       <defs>
        <path id="DejaVuSans-35" d="M 691 4666 
L 3169 4666 
L 3169 4134 
L 1269 4134 
L 1269 2991 
Q 1406 3038 1543 3061 
Q 1681 3084 1819 3084 
Q 2600 3084 3056 2656 
Q 3513 2228 3513 1497 
Q 3513 744 3044 326 
Q 2575 -91 1722 -91 
Q 1428 -91 1123 -41 
Q 819 9 494 109 
L 494 744 
Q 775 591 1075 516 
Q 1375 441 1709 441 
Q 2250 441 2565 725 
Q 2881 1009 2881 1497 
Q 2881 1984 2565 2268 
Q 2250 2553 1709 2553 
Q 1456 2553 1204 2497 
Q 953 2441 691 2322 
L 691 4666 
z
" transform="scale(0.015625)"/>
       </defs>
       <use xlink:href="#DejaVuSans-35"/>
       <use xlink:href="#DejaVuSans-30" transform="translate(63.623047 0)"/>
       <use xlink:href="#DejaVuSans-30" transform="translate(127.246094 0)"/>
      </g>
     </g>
    </g>
    <g id="text_7">
     <!-- Steps -->
     <g transform="translate(371.467188 395.343125) scale(0.28 -0.28)">
      <defs>
       <path id="DejaVuSans-53" d="M 3425 4513 
L 3425 3897 
Q 3066 4069 2747 4153 
Q 2428 4238 2131 4238 
Q 1616 4238 1336 4038 
Q 1056 3838 1056 3469 
Q 1056 3159 1242 3001 
Q 1428 2844 1947 2747 
L 2328 2669 
Q 3034 2534 3370 2195 
Q 3706 1856 3706 1288 
Q 3706 609 3251 259 
Q 2797 -91 1919 -91 
Q 1588 -91 1214 -16 
Q 841 59 441 206 
L 441 856 
Q 825 641 1194 531 
Q 1563 422 1919 422 
Q 2459 422 2753 634 
Q 3047 847 3047 1241 
Q 3047 1584 2836 1778 
Q 2625 1972 2144 2069 
L 1759 2144 
Q 1053 2284 737 2584 
Q 422 2884 422 3419 
Q 422 4038 858 4394 
Q 1294 4750 2059 4750 
Q 2388 4750 2728 4690 
Q 3069 4631 3425 4513 
z
" transform="scale(0.015625)"/>
       <path id="DejaVuSans-74" d="M 1172 4494 
L 1172 3500 
L 2356 3500 
L 2356 3053 
L 1172 3053 
L 1172 1153 
Q 1172 725 1289 603 
Q 1406 481 1766 481 
L 2356 481 
L 2356 0 
L 1766 0 
Q 1100 0 847 248 
Q 594 497 594 1153 
L 594 3053 
L 172 3053 
L 172 3500 
L 594 3500 
L 594 4494 
L 1172 4494 
z
" transform="scale(0.015625)"/>
       <path id="DejaVuSans-65" d="M 3597 1894 
L 3597 1613 
L 953 1613 
Q 991 1019 1311 708 
Q 1631 397 2203 397 
Q 2534 397 2845 478 
Q 3156 559 3463 722 
L 3463 178 
Q 3153 47 2828 -22 
Q 2503 -91 2169 -91 
Q 1331 -91 842 396 
Q 353 884 353 1716 
Q 353 2575 817 3079 
Q 1281 3584 2069 3584 
Q 2775 3584 3186 3129 
Q 3597 2675 3597 1894 
z
M 3022 2063 
Q 3016 2534 2758 2815 
Q 2500 3097 2075 3097 
Q 1594 3097 1305 2825 
Q 1016 2553 972 2059 
L 3022 2063 
z
" transform="scale(0.015625)"/>
       <path id="DejaVuSans-70" d="M 1159 525 
L 1159 -1331 
L 581 -1331 
L 581 3500 
L 1159 3500 
L 1159 2969 
Q 1341 3281 1617 3432 
Q 1894 3584 2278 3584 
Q 2916 3584 3314 3078 
Q 3713 2572 3713 1747 
Q 3713 922 3314 415 
Q 2916 -91 2278 -91 
Q 1894 -91 1617 61 
Q 1341 213 1159 525 
z
M 3116 1747 
Q 3116 2381 2855 2742 
Q 2594 3103 2138 3103 
Q 1681 3103 1420 2742 
Q 1159 2381 1159 1747 
Q 1159 1113 1420 752 
Q 1681 391 2138 391 
Q 2594 391 2855 752 
Q 3116 1113 3116 1747 
z
" transform="scale(0.015625)"/>
       <path id="DejaVuSans-73" d="M 2834 3397 
L 2834 2853 
Q 2591 2978 2328 3040 
Q 2066 3103 1784 3103 
Q 1356 3103 1142 2972 
Q 928 2841 928 2578 
Q 928 2378 1081 2264 
Q 1234 2150 1697 2047 
L 1894 2003 
Q 2506 1872 2764 1633 
Q 3022 1394 3022 966 
Q 3022 478 2636 193 
Q 2250 -91 1575 -91 
Q 1294 -91 989 -36 
Q 684 19 347 128 
L 347 722 
Q 666 556 975 473 
Q 1284 391 1588 391 
Q 1994 391 2212 530 
Q 2431 669 2431 922 
Q 2431 1156 2273 1281 
Q 2116 1406 1581 1522 
L 1381 1569 
Q 847 1681 609 1914 
Q 372 2147 372 2553 
Q 372 3047 722 3315 
Q 1072 3584 1716 3584 
Q 2034 3584 2315 3537 
Q 2597 3491 2834 3397 
z
" transform="scale(0.015625)"/>
      </defs>
      <use xlink:href="#DejaVuSans-53"/>
      <use xlink:href="#DejaVuSans-74" transform="translate(63.476562 0)"/>
      <use xlink:href="#DejaVuSans-65" transform="translate(102.685547 0)"/>
      <use xlink:href="#DejaVuSans-70" transform="translate(164.208984 0)"/>
      <use xlink:href="#DejaVuSans-73" transform="translate(227.685547 0)"/>
     </g>
    </g>
   </g>
   <g id="matplotlib.axis_2">
    <g id="ytick_1">
     <g id="line2d_7">
      <defs>
       <path id="m0d3c4e848f" d="M 0 0 
L -3.5 0 
" style="stroke: #000000; stroke-width: 0.8"/>
      </defs>
      <g>
       <use xlink:href="#m0d3c4e848f" x="75.83875" y="322.100198" style="stroke: #000000; stroke-width: 0.8"/>
      </g>
     </g>
     <g id="text_8">
      <!-- 10 -->
      <g transform="translate(38.29875 331.218323) scale(0.24 -0.24)">
       <use xlink:href="#DejaVuSans-31"/>
       <use xlink:href="#DejaVuSans-30" transform="translate(63.623047 0)"/>
      </g>
     </g>
    </g>
    <g id="ytick_2">
     <g id="line2d_8">
      <g>
       <use xlink:href="#m0d3c4e848f" x="75.83875" y="275.31802" style="stroke: #000000; stroke-width: 0.8"/>
      </g>
     </g>
     <g id="text_9">
      <!-- 20 -->
      <g transform="translate(38.29875 284.436145) scale(0.24 -0.24)">
       <use xlink:href="#DejaVuSans-32"/>
       <use xlink:href="#DejaVuSans-30" transform="translate(63.623047 0)"/>
      </g>
     </g>
    </g>
    <g id="ytick_3">
     <g id="line2d_9">
      <g>
       <use xlink:href="#m0d3c4e848f" x="75.83875" y="228.535842" style="stroke: #000000; stroke-width: 0.8"/>
      </g>
     </g>
     <g id="text_10">
      <!-- 30 -->
      <g transform="translate(38.29875 237.653967) scale(0.24 -0.24)">
       <use xlink:href="#DejaVuSans-33"/>
       <use xlink:href="#DejaVuSans-30" transform="translate(63.623047 0)"/>
      </g>
     </g>
    </g>
    <g id="ytick_4">
     <g id="line2d_10">
      <g>
       <use xlink:href="#m0d3c4e848f" x="75.83875" y="181.753663" style="stroke: #000000; stroke-width: 0.8"/>
      </g>
     </g>
     <g id="text_11">
      <!-- 40 -->
      <g transform="translate(38.29875 190.871788) scale(0.24 -0.24)">
       <use xlink:href="#DejaVuSans-34"/>
       <use xlink:href="#DejaVuSans-30" transform="translate(63.623047 0)"/>
      </g>
     </g>
    </g>
    <g id="ytick_5">
     <g id="line2d_11">
      <g>
       <use xlink:href="#m0d3c4e848f" x="75.83875" y="134.971485" style="stroke: #000000; stroke-width: 0.8"/>
      </g>
     </g>
     <g id="text_12">
      <!-- 50 -->
      <g transform="translate(38.29875 144.08961) scale(0.24 -0.24)">
       <use xlink:href="#DejaVuSans-35"/>
       <use xlink:href="#DejaVuSans-30" transform="translate(63.623047 0)"/>
      </g>
     </g>
    </g>
    <g id="ytick_6">
     <g id="line2d_12">
      <g>
       <use xlink:href="#m0d3c4e848f" x="75.83875" y="88.189307" style="stroke: #000000; stroke-width: 0.8"/>
      </g>
     </g>
     <g id="text_13">
      <!-- 60 -->
      <g transform="translate(38.29875 97.307432) scale(0.24 -0.24)">
       <defs>
        <path id="DejaVuSans-36" d="M 2113 2584 
Q 1688 2584 1439 2293 
Q 1191 2003 1191 1497 
Q 1191 994 1439 701 
Q 1688 409 2113 409 
Q 2538 409 2786 701 
Q 3034 994 3034 1497 
Q 3034 2003 2786 2293 
Q 2538 2584 2113 2584 
z
M 3366 4563 
L 3366 3988 
Q 3128 4100 2886 4159 
Q 2644 4219 2406 4219 
Q 1781 4219 1451 3797 
Q 1122 3375 1075 2522 
Q 1259 2794 1537 2939 
Q 1816 3084 2150 3084 
Q 2853 3084 3261 2657 
Q 3669 2231 3669 1497 
Q 3669 778 3244 343 
Q 2819 -91 2113 -91 
Q 1303 -91 875 529 
Q 447 1150 447 2328 
Q 447 3434 972 4092 
Q 1497 4750 2381 4750 
Q 2619 4750 2861 4703 
Q 3103 4656 3366 4563 
z
" transform="scale(0.015625)"/>
       </defs>
       <use xlink:href="#DejaVuSans-36"/>
       <use xlink:href="#DejaVuSans-30" transform="translate(63.623047 0)"/>
      </g>
     </g>
    </g>
    <g id="ytick_7">
     <g id="line2d_13">
      <g>
       <use xlink:href="#m0d3c4e848f" x="75.83875" y="41.407129" style="stroke: #000000; stroke-width: 0.8"/>
      </g>
     </g>
     <g id="text_14">
      <!-- 70 -->
      <g transform="translate(38.29875 50.525254) scale(0.24 -0.24)">
       <defs>
        <path id="DejaVuSans-37" d="M 525 4666 
L 3525 4666 
L 3525 4397 
L 1831 0 
L 1172 0 
L 2766 4134 
L 525 4134 
L 525 4666 
z
" transform="scale(0.015625)"/>
       </defs>
       <use xlink:href="#DejaVuSans-37"/>
       <use xlink:href="#DejaVuSans-30" transform="translate(63.623047 0)"/>
      </g>
     </g>
    </g>
    <g id="text_15">
     <!-- % Optimal Action -->
     <g transform="translate(28.475625 294.959062) rotate(-90) scale(0.28 -0.28)">
      <defs>
       <path id="DejaVuSans-25" d="M 4653 2053 
Q 4381 2053 4226 1822 
Q 4072 1591 4072 1178 
Q 4072 772 4226 539 
Q 4381 306 4653 306 
Q 4919 306 5073 539 
Q 5228 772 5228 1178 
Q 5228 1588 5073 1820 
Q 4919 2053 4653 2053 
z
M 4653 2450 
Q 5147 2450 5437 2106 
Q 5728 1763 5728 1178 
Q 5728 594 5436 251 
Q 5144 -91 4653 -91 
Q 4153 -91 3862 251 
Q 3572 594 3572 1178 
Q 3572 1766 3864 2108 
Q 4156 2450 4653 2450 
z
M 1428 4353 
Q 1159 4353 1004 4120 
Q 850 3888 850 3481 
Q 850 3069 1003 2837 
Q 1156 2606 1428 2606 
Q 1700 2606 1854 2837 
Q 2009 3069 2009 3481 
Q 2009 3884 1853 4118 
Q 1697 4353 1428 4353 
z
M 4250 4750 
L 4750 4750 
L 1831 -91 
L 1331 -91 
L 4250 4750 
z
M 1428 4750 
Q 1922 4750 2215 4408 
Q 2509 4066 2509 3481 
Q 2509 2891 2217 2550 
Q 1925 2209 1428 2209 
Q 931 2209 642 2551 
Q 353 2894 353 3481 
Q 353 4063 643 4406 
Q 934 4750 1428 4750 
z
" transform="scale(0.015625)"/>
       <path id="DejaVuSans-20" transform="scale(0.015625)"/>
       <path id="DejaVuSans-4f" d="M 2522 4238 
Q 1834 4238 1429 3725 
Q 1025 3213 1025 2328 
Q 1025 1447 1429 934 
Q 1834 422 2522 422 
Q 3209 422 3611 934 
Q 4013 1447 4013 2328 
Q 4013 3213 3611 3725 
Q 3209 4238 2522 4238 
z
M 2522 4750 
Q 3503 4750 4090 4092 
Q 4678 3434 4678 2328 
Q 4678 1225 4090 567 
Q 3503 -91 2522 -91 
Q 1538 -91 948 565 
Q 359 1222 359 2328 
Q 359 3434 948 4092 
Q 1538 4750 2522 4750 
z
" transform="scale(0.015625)"/>
       <path id="DejaVuSans-69" d="M 603 3500 
L 1178 3500 
L 1178 0 
L 603 0 
L 603 3500 
z
M 603 4863 
L 1178 4863 
L 1178 4134 
L 603 4134 
L 603 4863 
z
" transform="scale(0.015625)"/>
       <path id="DejaVuSans-6d" d="M 3328 2828 
Q 3544 3216 3844 3400 
Q 4144 3584 4550 3584 
Q 5097 3584 5394 3201 
Q 5691 2819 5691 2113 
L 5691 0 
L 5113 0 
L 5113 2094 
Q 5113 2597 4934 2840 
Q 4756 3084 4391 3084 
Q 3944 3084 3684 2787 
Q 3425 2491 3425 1978 
L 3425 0 
L 2847 0 
L 2847 2094 
Q 2847 2600 2669 2842 
Q 2491 3084 2119 3084 
Q 1678 3084 1418 2786 
Q 1159 2488 1159 1978 
L 1159 0 
L 581 0 
L 581 3500 
L 1159 3500 
L 1159 2956 
Q 1356 3278 1631 3431 
Q 1906 3584 2284 3584 
Q 2666 3584 2933 3390 
Q 3200 3197 3328 2828 
z
" transform="scale(0.015625)"/>
       <path id="DejaVuSans-61" d="M 2194 1759 
Q 1497 1759 1228 1600 
Q 959 1441 959 1056 
Q 959 750 1161 570 
Q 1363 391 1709 391 
Q 2188 391 2477 730 
Q 2766 1069 2766 1631 
L 2766 1759 
L 2194 1759 
z
M 3341 1997 
L 3341 0 
L 2766 0 
L 2766 531 
Q 2569 213 2275 61 
Q 1981 -91 1556 -91 
Q 1019 -91 701 211 
Q 384 513 384 1019 
Q 384 1609 779 1909 
Q 1175 2209 1959 2209 
L 2766 2209 
L 2766 2266 
Q 2766 2663 2505 2880 
Q 2244 3097 1772 3097 
Q 1472 3097 1187 3025 
Q 903 2953 641 2809 
L 641 3341 
Q 956 3463 1253 3523 
Q 1550 3584 1831 3584 
Q 2591 3584 2966 3190 
Q 3341 2797 3341 1997 
z
" transform="scale(0.015625)"/>
       <path id="DejaVuSans-6c" d="M 603 4863 
L 1178 4863 
L 1178 0 
L 603 0 
L 603 4863 
z
" transform="scale(0.015625)"/>
       <path id="DejaVuSans-41" d="M 2188 4044 
L 1331 1722 
L 3047 1722 
L 2188 4044 
z
M 1831 4666 
L 2547 4666 
L 4325 0 
L 3669 0 
L 3244 1197 
L 1141 1197 
L 716 0 
L 50 0 
L 1831 4666 
z
" transform="scale(0.015625)"/>
       <path id="DejaVuSans-63" d="M 3122 3366 
L 3122 2828 
Q 2878 2963 2633 3030 
Q 2388 3097 2138 3097 
Q 1578 3097 1268 2742 
Q 959 2388 959 1747 
Q 959 1106 1268 751 
Q 1578 397 2138 397 
Q 2388 397 2633 464 
Q 2878 531 3122 666 
L 3122 134 
Q 2881 22 2623 -34 
Q 2366 -91 2075 -91 
Q 1284 -91 818 406 
Q 353 903 353 1747 
Q 353 2603 823 3093 
Q 1294 3584 2113 3584 
Q 2378 3584 2631 3529 
Q 2884 3475 3122 3366 
z
" transform="scale(0.015625)"/>
       <path id="DejaVuSans-6f" d="M 1959 3097 
Q 1497 3097 1228 2736 
Q 959 2375 959 1747 
Q 959 1119 1226 758 
Q 1494 397 1959 397 
Q 2419 397 2687 759 
Q 2956 1122 2956 1747 
Q 2956 2369 2687 2733 
Q 2419 3097 1959 3097 
z
M 1959 3584 
Q 2709 3584 3137 3096 
Q 3566 2609 3566 1747 
Q 3566 888 3137 398 
Q 2709 -91 1959 -91 
Q 1206 -91 779 398 
Q 353 888 353 1747 
Q 353 2609 779 3096 
Q 1206 3584 1959 3584 
z
" transform="scale(0.015625)"/>
       <path id="DejaVuSans-6e" d="M 3513 2113 
L 3513 0 
L 2938 0 
L 2938 2094 
Q 2938 2591 2744 2837 
Q 2550 3084 2163 3084 
Q 1697 3084 1428 2787 
Q 1159 2491 1159 1978 
L 1159 0 
L 581 0 
L 581 3500 
L 1159 3500 
L 1159 2956 
Q 1366 3272 1645 3428 
Q 1925 3584 2291 3584 
Q 2894 3584 3203 3211 
Q 3513 2838 3513 2113 
z
" transform="scale(0.015625)"/>
      </defs>
      <use xlink:href="#DejaVuSans-25"/>
      <use xlink:href="#DejaVuSans-20" transform="translate(95.019531 0)"/>
      <use xlink:href="#DejaVuSans-4f" transform="translate(126.806641 0)"/>
      <use xlink:href="#DejaVuSans-70" transform="translate(205.517578 0)"/>
      <use xlink:href="#DejaVuSans-74" transform="translate(268.994141 0)"/>
      <use xlink:href="#DejaVuSans-69" transform="translate(308.203125 0)"/>
      <use xlink:href="#DejaVuSans-6d" transform="translate(335.986328 0)"/>
      <use xlink:href="#DejaVuSans-61" transform="translate(433.398438 0)"/>
      <use xlink:href="#DejaVuSans-6c" transform="translate(494.677734 0)"/>
      <use xlink:href="#DejaVuSans-20" transform="translate(522.460938 0)"/>
      <use xlink:href="#DejaVuSans-41" transform="translate(554.248047 0)"/>
      <use xlink:href="#DejaVuSans-63" transform="translate(620.90625 0)"/>
      <use xlink:href="#DejaVuSans-74" transform="translate(675.886719 0)"/>
      <use xlink:href="#DejaVuSans-69" transform="translate(715.095703 0)"/>
      <use xlink:href="#DejaVuSans-6f" transform="translate(742.878906 0)"/>
      <use xlink:href="#DejaVuSans-6e" transform="translate(804.060547 0)"/>
     </g>
    </g>
   </g>
   <g id="line2d_14">
    <path d="M 106.275114 321.445248 
L 107.495008 322.942277 
L 108.714902 322.287327 
L 109.934797 323.035842 
L 111.154691 324.72 
L 112.374585 320.790297 
L 113.59448 321.632376 
L 114.814374 320.790297 
L 116.034268 320.135347 
L 117.254163 323.22297 
L 118.474057 169.122475 
L 119.693951 255.763069 
L 120.913846 290.56901 
L 122.13374 303.480891 
L 123.353634 310.030396 
L 125.793423 308.907624 
L 127.013317 298.334851 
L 128.233212 279.996238 
L 129.453106 256.41802 
L 130.673 197.753168 
L 131.892895 172.397228 
L 133.112789 163.789307 
L 134.332683 148.257624 
L 135.552578 144.140792 
L 136.772472 140.86604 
L 137.992366 134.690792 
L 139.212261 122.714554 
L 140.432155 118.410594 
L 141.652049 111.767525 
L 142.871944 108.212079 
L 144.091838 100.446238 
L 145.311732 97.26505 
L 146.531627 94.645248 
L 147.751521 88.095743 
L 148.971415 86.224455 
L 150.19131 81.920495 
L 151.411204 80.049208 
L 152.631098 77.148713 
L 153.850993 72.564059 
L 155.070887 70.879901 
L 156.290781 66.950198 
L 157.510676 64.143267 
L 158.73057 62.739802 
L 159.950464 61.804158 
L 161.170359 61.897723 
L 162.390253 56.096733 
L 163.610147 58.997228 
L 164.830042 54.038317 
L 166.049936 54.038317 
L 167.26983 51.979901 
L 168.489725 49.360099 
L 169.709619 48.798713 
L 170.929513 48.050198 
L 172.149408 45.056139 
L 173.369302 44.214059 
L 174.589196 43.746238 
L 175.809091 42.904158 
L 177.028985 41.687822 
L 178.248879 41.126436 
L 179.468774 41.594257 
L 180.688668 41.781386 
L 181.908562 41.032871 
L 183.128457 39.442277 
L 184.348351 40.284356 
L 185.568245 39.816535 
L 186.78814 36.448218 
L 188.008034 38.787327 
L 189.227928 38.319505 
L 190.447823 35.886832 
L 191.667717 36.728911 
L 192.887611 37.851683 
L 194.107506 36.261089 
L 195.3274 36.354653 
L 196.547294 36.728911 
L 197.767189 38.787327 
L 198.987083 37.009604 
L 200.206977 38.600198 
L 201.426872 39.442277 
L 202.646766 37.383861 
L 203.86666 34.576931 
L 205.086555 34.857624 
L 206.306449 36.354653 
L 207.526343 35.231881 
L 208.746238 36.635347 
L 209.966132 36.354653 
L 211.186026 35.793267 
L 212.405921 34.951188 
L 213.625815 34.764059 
L 214.845709 32.799208 
L 216.065604 33.454158 
L 217.285498 32.144257 
L 218.505392 33.641287 
L 219.725287 34.389802 
L 220.945181 34.764059 
L 222.165075 35.699703 
L 223.38497 37.383861 
L 224.604864 36.167525 
L 225.824758 35.699703 
L 227.044653 37.383861 
L 228.264547 37.477426 
L 229.484441 35.41901 
L 230.704336 35.325446 
L 231.92423 37.196733 
L 233.144124 39.72297 
L 234.364019 37.383861 
L 235.583913 38.038812 
L 236.803807 36.635347 
L 238.023702 36.448218 
L 239.243596 37.57099 
L 240.46349 36.822475 
L 241.683385 35.41901 
L 242.903279 35.980396 
L 244.123173 35.793267 
L 245.343068 37.664554 
L 246.562962 38.413069 
L 247.782856 37.57099 
L 249.002751 36.354653 
L 250.222645 37.758119 
L 251.442539 36.91604 
L 252.662434 38.319505 
L 253.882328 38.132376 
L 255.102222 37.477426 
L 256.322117 37.664554 
L 257.542011 36.541782 
L 258.761905 39.255149 
L 259.9818 39.442277 
L 261.201694 37.945248 
L 262.421588 39.161584 
L 263.641483 37.196733 
L 264.861377 36.822475 
L 266.081271 37.196733 
L 267.301166 38.132376 
L 268.52106 35.512574 
L 269.740954 35.793267 
L 270.960849 38.038812 
L 272.180743 36.635347 
L 273.400637 36.448218 
L 274.620532 35.325446 
L 275.840426 34.483366 
L 277.06032 34.389802 
L 278.280215 34.857624 
L 279.500109 34.576931 
L 280.720003 36.448218 
L 281.939898 33.641287 
L 283.159792 33.641287 
L 284.379686 33.360594 
L 285.599581 34.764059 
L 286.819475 32.144257 
L 288.039369 34.389802 
L 289.259264 34.483366 
L 290.479158 33.641287 
L 291.699052 34.576931 
L 292.918947 32.892772 
L 294.138841 34.296238 
L 295.358735 33.26703 
L 296.57863 34.670495 
L 297.798524 33.26703 
L 299.018418 35.980396 
L 300.238313 35.231881 
L 303.897996 37.196733 
L 305.11789 37.664554 
L 306.337784 36.167525 
L 307.557679 37.851683 
L 309.997467 35.138317 
L 311.217362 34.857624 
L 312.437256 35.606139 
L 313.65715 35.325446 
L 316.096939 35.231881 
L 317.316833 37.477426 
L 318.536728 34.296238 
L 319.756622 35.41901 
L 320.976516 35.231881 
L 322.196411 33.547723 
L 323.416305 34.951188 
L 324.636199 34.109109 
L 325.856094 36.07396 
L 327.075988 35.606139 
L 328.295882 36.728911 
L 329.515777 35.886832 
L 330.735671 35.325446 
L 331.955565 34.951188 
L 333.17546 34.764059 
L 335.615248 34.764059 
L 336.835143 34.109109 
L 338.055037 33.26703 
L 340.494826 34.109109 
L 341.71472 33.92198 
L 342.934614 34.576931 
L 344.154509 34.296238 
L 345.374403 34.202673 
L 346.594297 32.237822 
L 347.814192 31.957129 
L 350.25398 33.173465 
L 351.473875 31.957129 
L 352.693769 33.079901 
L 353.913663 33.173465 
L 355.133558 32.42495 
L 356.353452 34.483366 
L 357.573346 33.547723 
L 358.793241 32.331386 
L 360.013135 35.138317 
L 361.233029 36.354653 
L 362.452924 35.699703 
L 363.672818 35.325446 
L 364.892712 36.635347 
L 366.112607 34.857624 
L 367.332501 37.196733 
L 368.552395 36.167525 
L 369.77229 35.699703 
L 370.992184 33.92198 
L 372.212078 33.547723 
L 373.431973 34.109109 
L 374.651867 34.296238 
L 375.871761 33.079901 
L 377.091656 32.144257 
L 378.31155 32.237822 
L 379.531444 32.986337 
L 380.751339 31.77 
L 383.191127 30.740792 
L 384.411022 32.331386 
L 385.630916 32.331386 
L 386.85081 34.202673 
L 389.290599 34.576931 
L 391.730388 35.793267 
L 392.950282 34.670495 
L 394.170176 34.764059 
L 395.390071 36.261089 
L 396.609965 35.793267 
L 397.829859 34.951188 
L 399.049754 34.576931 
L 400.269648 33.079901 
L 401.489542 33.173465 
L 402.709437 33.547723 
L 403.929331 33.26703 
L 405.149225 33.454158 
L 406.36912 32.42495 
L 407.589014 33.734851 
L 408.808908 32.518515 
L 410.028803 35.980396 
L 411.248697 35.793267 
L 413.688486 34.951188 
L 414.90838 33.828416 
L 416.128275 33.079901 
L 417.348169 34.109109 
L 418.568063 32.331386 
L 419.787958 34.576931 
L 421.007852 34.296238 
L 422.227746 34.483366 
L 423.447641 34.015545 
L 424.667535 34.296238 
L 425.887429 35.699703 
L 427.107324 34.951188 
L 428.327218 35.138317 
L 429.547112 33.734851 
L 430.767007 35.793267 
L 431.986901 35.325446 
L 433.206795 35.886832 
L 434.42669 35.606139 
L 435.646584 34.951188 
L 436.866478 35.044752 
L 438.086373 34.951188 
L 439.306267 34.389802 
L 440.526161 36.91604 
L 441.746056 34.951188 
L 442.96595 35.325446 
L 444.185844 35.886832 
L 446.625633 35.980396 
L 447.845527 36.354653 
L 449.065422 35.699703 
L 450.285316 34.670495 
L 451.50521 34.764059 
L 452.725105 35.044752 
L 453.944999 34.576931 
L 455.164893 33.734851 
L 456.384788 35.980396 
L 457.604682 35.512574 
L 458.824576 36.07396 
L 460.044471 35.886832 
L 461.264365 35.512574 
L 462.484259 36.91604 
L 463.704154 35.699703 
L 464.924048 36.07396 
L 466.143942 35.606139 
L 467.363837 34.764059 
L 468.583731 33.26703 
L 469.803625 33.828416 
L 472.243414 34.670495 
L 473.463308 35.231881 
L 474.683203 36.261089 
L 475.903097 32.892772 
L 477.122991 34.951188 
L 478.342886 34.576931 
L 479.56278 33.92198 
L 480.782674 32.986337 
L 482.002569 34.296238 
L 483.222463 34.764059 
L 484.442357 32.986337 
L 485.662252 32.237822 
L 486.882146 32.986337 
L 488.10204 32.144257 
L 489.321935 31.77 
L 491.761723 32.892772 
L 492.981618 32.331386 
L 494.201512 32.612079 
L 495.421406 31.302178 
L 496.641301 32.237822 
L 497.861195 32.705644 
L 499.081089 32.518515 
L 501.520878 30.647228 
L 502.740772 31.021485 
L 503.960667 30.553663 
L 506.400455 30.460099 
L 507.62035 31.77 
L 510.060138 31.77 
L 512.499927 31.11505 
L 513.719821 31.863564 
L 514.939716 32.237822 
L 516.15961 31.957129 
L 517.379504 32.42495 
L 518.599399 32.612079 
L 519.819293 33.641287 
L 521.039187 31.582871 
L 522.259082 31.957129 
L 523.478976 32.518515 
L 524.69887 32.705644 
L 525.918765 32.518515 
L 527.138659 33.173465 
L 528.358553 32.892772 
L 529.578448 31.395743 
L 530.798342 31.021485 
L 532.018236 31.582871 
L 533.238131 34.389802 
L 534.458025 33.641287 
L 535.677919 34.109109 
L 536.897814 33.173465 
L 538.117708 33.454158 
L 539.337602 32.42495 
L 540.557497 32.518515 
L 541.777391 33.547723 
L 542.997285 32.799208 
L 544.21718 33.547723 
L 545.437074 32.612079 
L 546.656968 32.144257 
L 547.876863 31.395743 
L 549.096757 31.208614 
L 550.316651 30.27297 
L 551.536546 31.302178 
L 553.976334 30.460099 
L 555.196229 30.553663 
L 556.416123 31.77 
L 557.636017 30.927921 
L 558.855912 32.705644 
L 563.735489 30.553663 
L 564.955383 30.085842 
L 566.175278 31.676436 
L 567.395172 30.366535 
L 568.615066 29.898713 
L 569.834961 30.834356 
L 572.274749 28.869505 
L 573.494644 29.430891 
L 574.714538 29.243762 
L 575.934432 28.869505 
L 577.154327 28.869505 
L 578.374221 28.12099 
L 579.594115 26.530396 
L 580.81401 27.185347 
L 582.033904 26.62396 
L 583.253798 26.811089 
L 584.473693 26.62396 
L 585.693587 27.185347 
L 588.133376 26.156139 
L 589.35327 27.185347 
L 590.573164 26.811089 
L 591.793059 26.062574 
L 595.452742 26.530396 
L 596.672636 27.653168 
L 597.89253 26.343267 
L 599.112425 25.875446 
L 601.552213 26.904653 
L 602.772108 25.781881 
L 605.211896 25.126931 
L 606.431791 25.220495 
L 607.651685 26.156139 
L 608.871579 26.62396 
L 610.091474 26.904653 
L 611.311368 26.343267 
L 612.531262 25.594752 
L 613.751157 27.278911 
L 614.971051 28.495248 
L 616.190945 30.460099 
L 617.41084 29.992277 
L 618.630734 29.805149 
L 619.850628 30.27297 
L 621.070523 28.401683 
L 622.290417 28.588812 
L 623.510311 28.495248 
L 624.730206 28.963069 
L 625.9501 29.61802 
L 627.169994 28.027426 
L 628.389889 28.027426 
L 629.609783 27.46604 
L 630.829677 26.530396 
L 632.049572 27.840297 
L 633.269466 26.717525 
L 634.48936 27.653168 
L 635.709255 25.781881 
L 636.929149 26.530396 
L 638.149043 25.126931 
L 639.368938 24.752673 
L 640.588832 24.004158 
L 641.808726 24.939802 
L 643.028621 24.47198 
L 644.248515 25.688317 
L 645.468409 26.062574 
L 646.688304 25.96901 
L 647.908198 25.407624 
L 649.128092 26.343267 
L 650.347987 25.781881 
L 651.567881 25.501188 
L 652.787775 26.998218 
L 654.00767 25.407624 
L 655.227564 26.156139 
L 657.667353 26.811089 
L 658.887247 27.091782 
L 660.107141 27.091782 
L 661.327036 27.933861 
L 662.54693 26.717525 
L 663.766824 25.875446 
L 664.986719 25.314059 
L 666.206613 25.688317 
L 667.426507 26.436832 
L 668.646402 25.501188 
L 669.866296 25.314059 
L 671.08619 25.594752 
L 673.525979 24.659109 
L 674.745873 24.659109 
L 675.965768 25.781881 
L 677.185662 25.126931 
L 678.405556 24.191287 
L 679.625451 24.659109 
L 680.845345 24.097723 
L 682.065239 23.162079 
L 683.285134 24.284851 
L 684.505028 23.536337 
L 685.724922 24.378416 
L 686.944817 23.723465 
L 688.164711 23.442772 
L 689.384605 24.939802 
L 690.6045 24.752673 
L 691.824394 23.723465 
L 693.044288 24.752673 
L 695.484077 25.96901 
L 696.703971 24.097723 
L 697.923866 23.629901 
L 699.14376 23.629901 
L 700.363654 23.349208 
L 701.583549 22.32 
L 702.803443 24.846238 
L 705.243232 25.314059 
L 706.463126 23.723465 
L 707.68302 25.033366 
L 708.902915 25.033366 
L 710.122809 25.875446 
L 711.342703 25.96901 
L 712.562598 25.033366 
L 713.782492 24.752673 
L 715.002386 25.407624 
L 715.002386 25.407624 
" clip-path="url(#pb1f6c71b67)" style="fill: none; stroke: #1f77b4; stroke-width: 1.5; stroke-linecap: square"/>
   </g>
   <g id="line2d_15">
    <path d="M 106.275114 323.129406 
L 108.714902 287.668515 
L 109.934797 278.592772 
L 111.154691 268.300693 
L 112.374585 261.751188 
L 113.59448 254.453168 
L 114.814374 249.307129 
L 116.034268 243.225446 
L 117.254163 238.734356 
L 118.474057 236.956634 
L 119.693951 232.184851 
L 120.913846 226.664554 
L 122.13374 226.290297 
L 123.353634 221.331386 
L 124.573529 218.524455 
L 125.793423 216.46604 
L 128.233212 211.039307 
L 129.453106 212.162079 
L 130.673 211.507129 
L 131.892895 210.384356 
L 133.112789 208.887327 
L 134.332683 205.51901 
L 135.552578 201.402178 
L 136.772472 200.092277 
L 137.992366 200.934356 
L 139.212261 200.279406 
L 141.652049 197.940297 
L 142.871944 194.57198 
L 144.091838 195.788317 
L 145.311732 193.91703 
L 146.531627 194.291287 
L 147.751521 193.262079 
L 148.971415 193.823465 
L 151.411204 189.051683 
L 152.631098 190.735842 
L 153.850993 193.07495 
L 155.070887 186.899703 
L 156.290781 188.209604 
L 157.510676 187.27396 
L 158.73057 187.27396 
L 159.950464 186.431881 
L 161.170359 185.028416 
L 162.390253 184.186337 
L 163.610147 182.97 
L 164.830042 182.221485 
L 166.049936 182.31505 
L 167.26983 181.005149 
L 168.489725 181.098713 
L 169.709619 182.782871 
L 170.929513 181.379406 
L 173.369302 178.011089 
L 174.589196 179.414554 
L 175.809091 178.478911 
L 177.028985 176.326931 
L 178.248879 177.075446 
L 179.468774 176.326931 
L 180.688668 176.888317 
L 181.908562 174.081386 
L 183.128457 173.239307 
L 184.348351 173.894257 
L 185.568245 172.490792 
L 188.008034 170.338812 
L 189.227928 172.584356 
L 190.447823 172.771485 
L 191.667717 171.742277 
L 192.887611 170.525941 
L 194.107506 168.841782 
L 195.3274 172.958614 
L 196.547294 171.36802 
L 197.767189 168.654653 
L 198.987083 170.058119 
L 200.206977 166.409109 
L 201.426872 168.561089 
L 202.646766 167.157624 
L 203.86666 166.970495 
L 205.086555 166.502673 
L 206.306449 167.064059 
L 207.526343 162.666535 
L 208.746238 165.754158 
L 209.966132 166.596238 
L 211.186026 164.444257 
L 212.405921 165.941287 
L 213.625815 164.07 
L 216.065604 164.912079 
L 217.285498 163.695743 
L 218.505392 161.263069 
L 219.725287 161.356634 
L 220.945181 162.011584 
L 222.165075 163.321485 
L 223.38497 161.450198 
L 224.604864 161.356634 
L 225.824758 159.859604 
L 227.044653 160.327426 
L 228.264547 160.233861 
L 229.484441 158.362574 
L 230.704336 157.988317 
L 231.92423 158.362574 
L 233.144124 157.988317 
L 234.364019 156.304158 
L 235.583913 155.929901 
L 236.803807 155.836337 
L 238.023702 155.462079 
L 239.243596 157.146238 
L 240.46349 153.590792 
L 241.683385 152.935842 
L 242.903279 153.497228 
L 244.123173 154.807129 
L 245.343068 152.748713 
L 246.562962 153.403663 
L 247.782856 154.713564 
L 249.002751 151.906634 
L 250.222645 152.46802 
L 251.442539 151.532376 
L 252.662434 154.245743 
L 253.882328 150.97099 
L 255.102222 151.251683 
L 256.322117 152.655149 
L 257.542011 150.877426 
L 258.761905 151.813069 
L 261.201694 149.661089 
L 262.421588 146.760594 
L 263.641483 147.883366 
L 264.861377 149.193267 
L 266.081271 146.573465 
L 267.301166 148.444752 
L 268.52106 146.012079 
L 269.740954 147.509109 
L 270.960849 149.286832 
L 272.180743 147.789802 
L 273.400637 147.789802 
L 274.620532 145.918515 
L 275.840426 146.199208 
L 277.06032 143.67297 
L 278.280215 147.041287 
L 279.500109 145.731386 
L 280.720003 144.140792 
L 281.939898 143.860099 
L 283.159792 147.602673 
L 284.379686 143.392277 
L 285.599581 141.708119 
L 286.819475 141.801683 
L 288.039369 141.146733 
L 289.259264 142.550198 
L 290.479158 142.737327 
L 291.699052 141.708119 
L 292.918947 142.550198 
L 295.358735 137.87198 
L 296.57863 140.585347 
L 297.798524 140.585347 
L 299.018418 141.240297 
L 300.238313 139.556139 
L 301.458207 139.743267 
L 302.678101 139.181881 
L 303.897996 140.117525 
L 305.11789 138.246238 
L 306.337784 138.901188 
L 307.557679 134.503663 
L 308.777573 138.620495 
L 309.997467 133.100198 
L 311.217362 137.029901 
L 312.437256 134.971485 
L 313.65715 136.37495 
L 314.877045 135.813564 
L 316.096939 136.749208 
L 317.316833 137.497723 
L 318.536728 134.503663 
L 319.756622 134.597228 
L 320.976516 134.316535 
L 322.196411 133.474455 
L 323.416305 131.790297 
L 324.636199 131.322475 
L 325.856094 132.164554 
L 328.295882 131.135347 
L 329.515777 128.609109 
L 330.735671 130.386832 
L 331.955565 133.287327 
L 333.17546 130.57396 
L 334.395354 130.948218 
L 335.615248 129.170495 
L 338.055037 131.322475 
L 339.274931 127.299208 
L 340.494826 130.57396 
L 341.71472 131.041782 
L 342.934614 128.42198 
L 344.154509 127.673465 
L 345.374403 129.076931 
L 346.594297 128.234851 
L 347.814192 126.082871 
L 349.034086 125.61505 
L 350.25398 125.895743 
L 351.473875 126.363564 
L 352.693769 127.673465 
L 353.913663 124.960099 
L 356.353452 123.182376 
L 357.573346 127.392772 
L 360.013135 125.334356 
L 361.233029 124.11802 
L 362.452924 123.463069 
L 363.672818 124.211584 
L 364.892712 121.12396 
L 366.112607 122.995248 
L 367.332501 125.240792 
L 368.552395 124.679406 
L 369.77229 123.088812 
L 370.992184 120.843267 
L 372.212078 123.743762 
L 373.431973 124.492277 
L 374.651867 120.936832 
L 375.871761 120.749703 
L 377.091656 120.281881 
L 378.31155 117.942772 
L 379.531444 119.814059 
L 380.751339 120.375446 
L 381.971233 117.287822 
L 383.191127 117.849208 
L 384.411022 119.065545 
L 385.630916 121.96604 
L 386.85081 115.790792 
L 388.070705 115.229406 
L 389.290599 116.16505 
L 390.510493 116.82 
L 391.730388 116.726436 
L 392.950282 117.287822 
L 394.170176 113.638812 
L 395.390071 115.697228 
L 396.609965 115.416535 
L 397.829859 114.855149 
L 399.049754 112.796733 
L 400.269648 116.726436 
L 401.489542 113.451683 
L 402.709437 114.574455 
L 403.929331 114.574455 
L 405.149225 109.615545 
L 406.36912 112.328911 
L 407.589014 111.112574 
L 408.808908 110.270495 
L 410.028803 112.328911 
L 411.248697 109.802673 
L 412.468592 108.960594 
L 413.688486 110.831881 
L 414.90838 112.328911 
L 416.128275 112.703168 
L 417.348169 106.434356 
L 418.568063 109.802673 
L 419.787958 111.01901 
L 421.007852 111.767525 
L 422.227746 107.276436 
L 423.447641 109.896238 
L 424.667535 109.241287 
L 425.887429 111.112574 
L 427.107324 109.241287 
L 428.327218 106.247228 
L 429.547112 109.709109 
L 430.767007 106.247228 
L 431.986901 109.147723 
L 433.206795 105.87297 
L 434.42669 106.71505 
L 435.646584 104.937327 
L 436.866478 107.463564 
L 438.086373 104.282376 
L 439.306267 107.089307 
L 440.526161 104.188812 
L 441.746056 107.182871 
L 442.96595 106.808614 
L 444.185844 105.592277 
L 445.405739 106.247228 
L 446.625633 103.253168 
L 447.845527 105.124455 
L 449.065422 102.972475 
L 452.725105 101.56901 
L 453.944999 102.972475 
L 455.164893 102.22396 
L 456.384788 102.036832 
L 457.604682 103.06604 
L 458.824576 103.159604 
L 460.044471 101.943267 
L 461.264365 102.598218 
L 462.484259 98.294257 
L 463.704154 99.229901 
L 464.924048 98.855644 
L 466.143942 99.229901 
L 467.363837 100.914059 
L 468.583731 101.288317 
L 469.803625 97.077921 
L 472.243414 99.136337 
L 473.463308 94.083861 
L 474.683203 98.481386 
L 475.903097 95.113069 
L 477.122991 94.551683 
L 478.342886 99.323465 
L 479.56278 97.452178 
L 480.782674 96.516535 
L 482.002569 95.300198 
L 483.222463 98.57495 
L 484.442357 94.738812 
L 485.662252 97.732871 
L 486.882146 93.241782 
L 488.10204 96.984356 
L 489.321935 96.142277 
L 490.541829 93.241782 
L 491.761723 94.645248 
L 492.981618 95.487327 
L 494.201512 94.551683 
L 495.421406 94.832376 
L 496.641301 93.335347 
L 497.861195 95.019505 
L 499.081089 93.148218 
L 500.300984 91.651188 
L 501.520878 91.089802 
L 502.740772 89.499208 
L 503.960667 93.335347 
L 505.180561 89.96703 
L 506.400455 93.335347 
L 507.62035 90.715545 
L 508.840244 92.586832 
L 510.060138 89.499208 
L 511.280033 93.896733 
L 512.499927 90.434851 
L 513.719821 90.247723 
L 514.939716 91.651188 
L 516.15961 90.434851 
L 517.379504 88.937822 
L 518.599399 87.066535 
L 519.819293 90.996238 
L 521.039187 91.744752 
L 522.259082 85.850198 
L 523.478976 88.844257 
L 524.69887 88.376436 
L 525.918765 88.750693 
L 527.138659 88.189307 
L 529.578448 87.81505 
L 530.798342 88.002178 
L 532.018236 91.838317 
L 533.238131 87.347228 
L 534.458025 86.411584 
L 535.677919 86.97297 
L 536.897814 88.189307 
L 538.117708 89.12495 
L 539.337602 83.604653 
L 540.557497 87.347228 
L 541.777391 83.136832 
L 542.997285 84.446733 
L 544.21718 83.604653 
L 545.437074 88.282871 
L 546.656968 85.475941 
L 547.876863 87.721485 
L 549.096757 85.008119 
L 550.316651 85.382376 
L 552.75644 83.417525 
L 555.196229 83.32396 
L 556.416123 82.388317 
L 557.636017 79.581386 
L 558.855912 83.885347 
L 560.075806 81.920495 
L 561.2957 81.17198 
L 562.515595 84.540297 
L 564.955383 81.359109 
L 566.175278 81.17198 
L 567.395172 78.832871 
L 568.615066 81.452673 
L 569.834961 78.926436 
L 571.054855 80.142772 
L 572.274749 81.639802 
L 573.494644 75.558119 
L 574.714538 78.926436 
L 575.934432 79.300693 
L 577.154327 78.177921 
L 578.374221 79.67495 
L 579.594115 78.084356 
L 580.81401 77.242277 
L 582.033904 78.739307 
L 583.253798 76.86802 
L 584.473693 78.832871 
L 585.693587 77.803663 
L 586.913481 75.745248 
L 588.133376 77.710099 
L 589.35327 76.587327 
L 590.573164 72.938317 
L 591.793059 75.932376 
L 593.012953 77.429406 
L 594.232847 75.37099 
L 595.452742 76.493762 
L 596.672636 74.71604 
L 597.89253 77.055149 
L 599.112425 78.552178 
L 600.332319 73.031881 
L 601.552213 76.025941 
L 602.772108 74.622475 
L 603.992002 76.213069 
L 605.211896 79.487822 
L 606.431791 78.271485 
L 607.651685 74.996733 
L 608.871579 74.528911 
L 610.091474 71.254158 
L 611.311368 74.71604 
L 612.531262 75.558119 
L 613.751157 74.809604 
L 614.971051 71.72198 
L 616.190945 70.505644 
L 617.41084 73.686832 
L 618.630734 69.944257 
L 619.850628 73.686832 
L 621.070523 74.996733 
L 622.290417 71.628416 
L 623.510311 72.844752 
L 624.730206 69.944257 
L 625.9501 70.412079 
L 627.169994 69.289307 
L 628.389889 68.727921 
L 629.609783 69.757129 
L 630.829677 69.757129 
L 632.049572 71.441287 
L 633.269466 68.540792 
L 634.48936 68.447228 
L 635.709255 70.599208 
L 636.929149 71.06703 
L 638.149043 72.564059 
L 639.368938 70.786337 
L 640.588832 64.236832 
L 641.808726 69.195743 
L 643.028621 69.195743 
L 644.248515 69.850693 
L 645.468409 70.131386 
L 646.688304 67.324455 
L 647.908198 68.540792 
L 649.128092 67.885842 
L 650.347987 64.891782 
L 651.567881 68.540792 
L 652.787775 66.388812 
L 654.00767 67.605149 
L 655.227564 69.757129 
L 656.447458 64.704653 
L 657.667353 67.792277 
L 658.887247 67.41802 
L 660.107141 69.289307 
L 661.327036 68.634356 
L 662.54693 68.166535 
L 663.766824 67.230891 
L 664.986719 67.230891 
L 666.206613 68.260099 
L 667.426507 65.92099 
L 668.646402 66.201683 
L 669.866296 64.985347 
L 671.08619 63.956139 
L 672.306085 63.301188 
L 673.525979 63.581881 
L 674.745873 65.640297 
L 675.965768 62.926931 
L 677.185662 64.891782 
L 678.405556 64.891782 
L 679.625451 60.213564 
L 680.845345 63.956139 
L 682.065239 65.640297 
L 683.285134 61.991287 
L 684.505028 63.020495 
L 685.724922 63.020495 
L 686.944817 64.985347 
L 690.6045 61.336337 
L 691.824394 60.307129 
L 693.044288 62.27198 
L 694.264183 61.523465 
L 695.484077 58.716535 
L 696.703971 60.587822 
L 697.923866 57.032376 
L 699.14376 60.77495 
L 700.363654 59.371485 
L 701.583549 60.400693 
L 704.023337 59.371485 
L 705.243232 56.283861 
L 706.463126 59.277921 
L 707.68302 59.932871 
L 708.902915 60.962079 
L 710.122809 59.090792 
L 711.342703 58.155149 
L 712.562598 57.032376 
L 713.782492 58.810099 
L 715.002386 59.184356 
L 715.002386 59.184356 
" clip-path="url(#pb1f6c71b67)" style="fill: none; stroke: #ff7f0e; stroke-width: 1.5; stroke-linecap: square"/>
   </g>
   <g id="patch_3">
    <path d="M 75.83875 339.84 
L 75.83875 7.2 
" style="fill: none; stroke: #000000; stroke-width: 0.8; stroke-linejoin: miter; stroke-linecap: square"/>
   </g>
   <g id="patch_4">
    <path d="M 745.43875 339.84 
L 745.43875 7.2 
" style="fill: none; stroke: #000000; stroke-width: 0.8; stroke-linejoin: miter; stroke-linecap: square"/>
   </g>
   <g id="patch_5">
    <path d="M 75.83875 339.84 
L 745.43875 339.84 
" style="fill: none; stroke: #000000; stroke-width: 0.8; stroke-linejoin: miter; stroke-linecap: square"/>
   </g>
   <g id="patch_6">
    <path d="M 75.83875 7.2 
L 745.43875 7.2 
" style="fill: none; stroke: #000000; stroke-width: 0.8; stroke-linejoin: miter; stroke-linecap: square"/>
   </g>
   <g id="legend_1">
    <g id="patch_7">
     <path d="M 413.41875 326.84 
L 727.23875 326.84 
Q 732.43875 326.84 732.43875 321.64 
L 732.43875 247.856875 
Q 732.43875 242.656875 727.23875 242.656875 
L 413.41875 242.656875 
Q 408.21875 242.656875 408.21875 247.856875 
L 408.21875 321.64 
Q 408.21875 326.84 413.41875 326.84 
z
" style="fill: #ffffff; opacity: 0.8; stroke: #cccccc; stroke-linejoin: miter"/>
    </g>
    <g id="line2d_16">
     <path d="M 418.61875 263.712812 
L 444.61875 263.712812 
L 470.61875 263.712812 
" style="fill: none; stroke: #1f77b4; stroke-width: 1.5; stroke-linecap: square"/>
    </g>
    <g id="text_16">
     <!-- UCB ($c=2$) -->
     <g transform="translate(491.41875 272.812812) scale(0.26 -0.26)">
      <defs>
       <path id="DejaVuSans-55" d="M 556 4666 
L 1191 4666 
L 1191 1831 
Q 1191 1081 1462 751 
Q 1734 422 2344 422 
Q 2950 422 3222 751 
Q 3494 1081 3494 1831 
L 3494 4666 
L 4128 4666 
L 4128 1753 
Q 4128 841 3676 375 
Q 3225 -91 2344 -91 
Q 1459 -91 1007 375 
Q 556 841 556 1753 
L 556 4666 
z
" transform="scale(0.015625)"/>
       <path id="DejaVuSans-43" d="M 4122 4306 
L 4122 3641 
Q 3803 3938 3442 4084 
Q 3081 4231 2675 4231 
Q 1875 4231 1450 3742 
Q 1025 3253 1025 2328 
Q 1025 1406 1450 917 
Q 1875 428 2675 428 
Q 3081 428 3442 575 
Q 3803 722 4122 1019 
L 4122 359 
Q 3791 134 3420 21 
Q 3050 -91 2638 -91 
Q 1578 -91 968 557 
Q 359 1206 359 2328 
Q 359 3453 968 4101 
Q 1578 4750 2638 4750 
Q 3056 4750 3426 4639 
Q 3797 4528 4122 4306 
z
" transform="scale(0.015625)"/>
       <path id="DejaVuSans-42" d="M 1259 2228 
L 1259 519 
L 2272 519 
Q 2781 519 3026 730 
Q 3272 941 3272 1375 
Q 3272 1813 3026 2020 
Q 2781 2228 2272 2228 
L 1259 2228 
z
M 1259 4147 
L 1259 2741 
L 2194 2741 
Q 2656 2741 2882 2914 
Q 3109 3088 3109 3444 
Q 3109 3797 2882 3972 
Q 2656 4147 2194 4147 
L 1259 4147 
z
M 628 4666 
L 2241 4666 
Q 2963 4666 3353 4366 
Q 3744 4066 3744 3513 
Q 3744 3084 3544 2831 
Q 3344 2578 2956 2516 
Q 3422 2416 3680 2098 
Q 3938 1781 3938 1306 
Q 3938 681 3513 340 
Q 3088 0 2303 0 
L 628 0 
L 628 4666 
z
" transform="scale(0.015625)"/>
       <path id="DejaVuSans-28" d="M 1984 4856 
Q 1566 4138 1362 3434 
Q 1159 2731 1159 2009 
Q 1159 1288 1364 580 
Q 1569 -128 1984 -844 
L 1484 -844 
Q 1016 -109 783 600 
Q 550 1309 550 2009 
Q 550 2706 781 3412 
Q 1013 4119 1484 4856 
L 1984 4856 
z
" transform="scale(0.015625)"/>
       <path id="DejaVuSans-Oblique-63" d="M 3431 3366 
L 3316 2797 
Q 3109 2947 2876 3022 
Q 2644 3097 2394 3097 
Q 2119 3097 1870 3000 
Q 1622 2903 1453 2725 
Q 1184 2453 1037 2087 
Q 891 1722 891 1331 
Q 891 859 1127 628 
Q 1363 397 1844 397 
Q 2081 397 2348 469 
Q 2616 541 2906 684 
L 2797 116 
Q 2547 13 2283 -39 
Q 2019 -91 1741 -91 
Q 1044 -91 669 257 
Q 294 606 294 1253 
Q 294 1797 489 2255 
Q 684 2713 1069 3078 
Q 1331 3328 1684 3456 
Q 2038 3584 2456 3584 
Q 2700 3584 2940 3529 
Q 3181 3475 3431 3366 
z
" transform="scale(0.015625)"/>
       <path id="DejaVuSans-3d" d="M 678 2906 
L 4684 2906 
L 4684 2381 
L 678 2381 
L 678 2906 
z
M 678 1631 
L 4684 1631 
L 4684 1100 
L 678 1100 
L 678 1631 
z
" transform="scale(0.015625)"/>
       <path id="DejaVuSans-29" d="M 513 4856 
L 1013 4856 
Q 1481 4119 1714 3412 
Q 1947 2706 1947 2009 
Q 1947 1309 1714 600 
Q 1481 -109 1013 -844 
L 513 -844 
Q 928 -128 1133 580 
Q 1338 1288 1338 2009 
Q 1338 2731 1133 3434 
Q 928 4138 513 4856 
z
" transform="scale(0.015625)"/>
      </defs>
      <use xlink:href="#DejaVuSans-55" transform="translate(0 0.125)"/>
      <use xlink:href="#DejaVuSans-43" transform="translate(73.193359 0.125)"/>
      <use xlink:href="#DejaVuSans-42" transform="translate(143.017578 0.125)"/>
      <use xlink:href="#DejaVuSans-20" transform="translate(211.621094 0.125)"/>
      <use xlink:href="#DejaVuSans-28" transform="translate(243.408203 0.125)"/>
      <use xlink:href="#DejaVuSans-Oblique-63" transform="translate(282.421875 0.125)"/>
      <use xlink:href="#DejaVuSans-3d" transform="translate(356.884766 0.125)"/>
      <use xlink:href="#DejaVuSans-32" transform="translate(460.15625 0.125)"/>
      <use xlink:href="#DejaVuSans-29" transform="translate(523.779297 0.125)"/>
     </g>
    </g>
    <g id="line2d_17">
     <path d="M 418.61875 301.88 
L 444.61875 301.88 
L 470.61875 301.88 
" style="fill: none; stroke: #ff7f0e; stroke-width: 1.5; stroke-linecap: square"/>
    </g>
    <g id="text_17">
     <!-- $\epsilon$-greedy ($\epsilon=0.1$) -->
     <g transform="translate(491.41875 310.98) scale(0.26 -0.26)">
      <defs>
       <path id="DejaVuSans-Oblique-3b5" d="M 1263 1888 
Q 925 1963 778 2166 
Q 669 2309 669 2503 
Q 669 3034 1175 3344 
Q 1575 3588 2188 3588 
Q 2425 3588 2684 3550 
Q 2944 3513 3234 3438 
L 3134 2916 
Q 2847 3006 2606 3047 
Q 2359 3088 2138 3088 
Q 1766 3088 1522 2944 
Q 1228 2772 1228 2522 
Q 1228 2356 1381 2241 
Q 1563 2103 1925 2103 
L 2409 2103 
L 2319 1628 
L 1856 1628 
Q 1425 1628 1172 1469 
Q 828 1253 828 916 
Q 828 703 1013 563 
Q 1244 388 1716 388 
Q 2006 388 2284 444 
Q 2563 503 2806 619 
L 2700 84 
Q 2403 -3 2131 -47 
Q 1859 -91 1609 -91 
Q 866 -91 516 194 
Q 250 413 250 781 
Q 250 1278 600 1584 
Q 859 1813 1263 1888 
z
" transform="scale(0.015625)"/>
       <path id="DejaVuSans-2d" d="M 313 2009 
L 1997 2009 
L 1997 1497 
L 313 1497 
L 313 2009 
z
" transform="scale(0.015625)"/>
       <path id="DejaVuSans-67" d="M 2906 1791 
Q 2906 2416 2648 2759 
Q 2391 3103 1925 3103 
Q 1463 3103 1205 2759 
Q 947 2416 947 1791 
Q 947 1169 1205 825 
Q 1463 481 1925 481 
Q 2391 481 2648 825 
Q 2906 1169 2906 1791 
z
M 3481 434 
Q 3481 -459 3084 -895 
Q 2688 -1331 1869 -1331 
Q 1566 -1331 1297 -1286 
Q 1028 -1241 775 -1147 
L 775 -588 
Q 1028 -725 1275 -790 
Q 1522 -856 1778 -856 
Q 2344 -856 2625 -561 
Q 2906 -266 2906 331 
L 2906 616 
Q 2728 306 2450 153 
Q 2172 0 1784 0 
Q 1141 0 747 490 
Q 353 981 353 1791 
Q 353 2603 747 3093 
Q 1141 3584 1784 3584 
Q 2172 3584 2450 3431 
Q 2728 3278 2906 2969 
L 2906 3500 
L 3481 3500 
L 3481 434 
z
" transform="scale(0.015625)"/>
       <path id="DejaVuSans-72" d="M 2631 2963 
Q 2534 3019 2420 3045 
Q 2306 3072 2169 3072 
Q 1681 3072 1420 2755 
Q 1159 2438 1159 1844 
L 1159 0 
L 581 0 
L 581 3500 
L 1159 3500 
L 1159 2956 
Q 1341 3275 1631 3429 
Q 1922 3584 2338 3584 
Q 2397 3584 2469 3576 
Q 2541 3569 2628 3553 
L 2631 2963 
z
" transform="scale(0.015625)"/>
       <path id="DejaVuSans-64" d="M 2906 2969 
L 2906 4863 
L 3481 4863 
L 3481 0 
L 2906 0 
L 2906 525 
Q 2725 213 2448 61 
Q 2172 -91 1784 -91 
Q 1150 -91 751 415 
Q 353 922 353 1747 
Q 353 2572 751 3078 
Q 1150 3584 1784 3584 
Q 2172 3584 2448 3432 
Q 2725 3281 2906 2969 
z
M 947 1747 
Q 947 1113 1208 752 
Q 1469 391 1925 391 
Q 2381 391 2643 752 
Q 2906 1113 2906 1747 
Q 2906 2381 2643 2742 
Q 2381 3103 1925 3103 
Q 1469 3103 1208 2742 
Q 947 2381 947 1747 
z
" transform="scale(0.015625)"/>
       <path id="DejaVuSans-79" d="M 2059 -325 
Q 1816 -950 1584 -1140 
Q 1353 -1331 966 -1331 
L 506 -1331 
L 506 -850 
L 844 -850 
Q 1081 -850 1212 -737 
Q 1344 -625 1503 -206 
L 1606 56 
L 191 3500 
L 800 3500 
L 1894 763 
L 2988 3500 
L 3597 3500 
L 2059 -325 
z
" transform="scale(0.015625)"/>
       <path id="DejaVuSans-2e" d="M 684 794 
L 1344 794 
L 1344 0 
L 684 0 
L 684 794 
z
" transform="scale(0.015625)"/>
      </defs>
      <use xlink:href="#DejaVuSans-Oblique-3b5" transform="translate(0 0.015625)"/>
      <use xlink:href="#DejaVuSans-2d" transform="translate(54.052734 0.015625)"/>
      <use xlink:href="#DejaVuSans-67" transform="translate(90.136719 0.015625)"/>
      <use xlink:href="#DejaVuSans-72" transform="translate(153.613281 0.015625)"/>
      <use xlink:href="#DejaVuSans-65" transform="translate(194.726562 0.015625)"/>
      <use xlink:href="#DejaVuSans-65" transform="translate(256.25 0.015625)"/>
      <use xlink:href="#DejaVuSans-64" transform="translate(317.773438 0.015625)"/>
      <use xlink:href="#DejaVuSans-79" transform="translate(381.25 0.015625)"/>
      <use xlink:href="#DejaVuSans-20" transform="translate(440.429688 0.015625)"/>
      <use xlink:href="#DejaVuSans-28" transform="translate(472.216797 0.015625)"/>
      <use xlink:href="#DejaVuSans-Oblique-3b5" transform="translate(511.230469 0.015625)"/>
      <use xlink:href="#DejaVuSans-3d" transform="translate(584.765625 0.015625)"/>
      <use xlink:href="#DejaVuSans-30" transform="translate(688.037109 0.015625)"/>
      <use xlink:href="#DejaVuSans-2e" transform="translate(751.660156 0.015625)"/>
      <use xlink:href="#DejaVuSans-31" transform="translate(783.447266 0.015625)"/>
      <use xlink:href="#DejaVuSans-29" transform="translate(847.070312 0.015625)"/>
     </g>
    </g>
   </g>
  </g>
 </g>
 <defs>
  <clipPath id="pb1f6c71b67">
   <rect x="75.83875" y="7.2" width="669.6" height="332.64"/>
  </clipPath>
 </defs>
</svg>
