<?xml version="1.0" encoding="utf-8" standalone="no"?>
<!DOCTYPE svg PUBLIC "-//W3C//DTD SVG 1.1//EN"
  "http://www.w3.org/Graphics/SVG/1.1/DTD/svg11.dtd">
<svg xmlns:xlink="http://www.w3.org/1999/xlink" width="781.090473pt" height="414.952577pt" viewBox="0 0 781.090473 414.952577" xmlns="http://www.w3.org/2000/svg" version="1.1">
 <metadata>
  <rdf:RDF xmlns:dc="http://purl.org/dc/elements/1.1/" xmlns:cc="http://creativecommons.org/ns#" xmlns:rdf="http://www.w3.org/1999/02/22-rdf-syntax-ns#">
   <cc:Work>
    <dc:type rdf:resource="http://purl.org/dc/dcmitype/StillImage"/>
    <dc:date>2026-03-07T23:58:19.837209</dc:date>
    <dc:format>image/svg+xml</dc:format>
    <dc:creator>
     <cc:Agent>
      <dc:title>Matplotlib v3.10.3, https://matplotlib.org/</dc:title>
     </cc:Agent>
    </dc:creator>
   </cc:Work>
  </rdf:RDF>
 </metadata>
 <defs>
  <style type="text/css">*{stroke-linejoin: round; stroke-linecap: butt}</style>
 </defs>
 <g id="figure_1">
  <g id="patch_1">
   <path d="M 0 414.952577 
L 781.090473 414.952577 
L 781.090473 0 
L 0 0 
z
" style="fill: #ffffff"/>
  </g>
  <g id="axes_1">
   <g id="patch_2">
    <path d="M 103.5775 346.426327 
L 773.1775 346.426327 
L 773.1775 13.786327 
L 103.5775 13.786327 
z
" style="fill: #ffffff"/>
   </g>
   <g id="matplotlib.axis_1">
    <g id="xtick_1">
     <g id="line2d_1">
      <defs>
       <path id="m2b2b30193d" d="M 0 0 
L 0 3.5 
" style="stroke: #000000; stroke-width: 0.8"/>
      </defs>
      <g>
       <use xlink:href="#m2b2b30193d" x="134.013864" y="346.426327" style="stroke: #000000; stroke-width: 0.8"/>
      </g>
     </g>
     <g id="text_1">
      <!-- 0 -->
      <g transform="translate(126.378864 371.662577) scale(0.24 -0.24)">
       <defs>
        <path id="DejaVuSans-30" d="M 2034 4250 
Q 1547 4250 1301 3770 
Q 1056 3291 1056 2328 
Q 1056 1369 1301 889 
Q 1547 409 2034 409 
Q 2525 409 2770 889 
Q 3016 1369 3016 2328 
Q 3016 3291 2770 3770 
Q 2525 4250 2034 4250 
z
M 2034 4750 
Q 2819 4750 3233 4129 
Q 3647 3509 3647 2328 
Q 3647 1150 3233 529 
Q 2819 -91 2034 -91 
Q 1250 -91 836 529 
Q 422 1150 422 2328 
Q 422 3509 836 4129 
Q 1250 4750 2034 4750 
z
" transform="scale(0.015625)"/>
       </defs>
       <use xlink:href="#DejaVuSans-30"/>
      </g>
     </g>
    </g>
    <g id="xtick_2">
     <g id="line2d_2">
      <g>
       <use xlink:href="#m2b2b30193d" x="255.881186" y="346.426327" style="stroke: #000000; stroke-width: 0.8"/>
      </g>
     </g>
     <g id="text_2">
      <!-- 200 -->
      <g transform="translate(232.976186 371.662577) scale(0.24 -0.24)">
       <defs>
        <path id="DejaVuSans-32" d="M 1228 531 
L 3431 531 
L 3431 0 
L 469 0 
L 469 531 
Q 828 903 1448 1529 
Q 2069 2156 2228 2338 
Q 2531 2678 2651 2914 
Q 2772 3150 2772 3378 
Q 2772 3750 2511 3984 
Q 2250 4219 1831 4219 
Q 1534 4219 1204 4116 
Q 875 4013 500 3803 
L 500 4441 
Q 881 4594 1212 4672 
Q 1544 4750 1819 4750 
Q 2544 4750 2975 4387 
Q 3406 4025 3406 3419 
Q 3406 3131 3298 2873 
Q 3191 2616 2906 2266 
Q 2828 2175 2409 1742 
Q 1991 1309 1228 531 
z
" transform="scale(0.015625)"/>
       </defs>
       <use xlink:href="#DejaVuSans-32"/>
       <use xlink:href="#DejaVuSans-30" transform="translate(63.623047 0)"/>
       <use xlink:href="#DejaVuSans-30" transform="translate(127.246094 0)"/>
      </g>
     </g>
    </g>
    <g id="xtick_3">
     <g id="line2d_3">
      <g>
       <use xlink:href="#m2b2b30193d" x="377.748507" y="346.426327" style="stroke: #000000; stroke-width: 0.8"/>
      </g>
     </g>
     <g id="text_3">
      <!-- 400 -->
      <g transform="translate(354.843507 371.662577) scale(0.24 -0.24)">
       <defs>
        <path id="DejaVuSans-34" d="M 2419 4116 
L 825 1625 
L 2419 1625 
L 2419 4116 
z
M 2253 4666 
L 3047 4666 
L 3047 1625 
L 3713 1625 
L 3713 1100 
L 3047 1100 
L 3047 0 
L 2419 0 
L 2419 1100 
L 313 1100 
L 313 1709 
L 2253 4666 
z
" transform="scale(0.015625)"/>
       </defs>
       <use xlink:href="#DejaVuSans-34"/>
       <use xlink:href="#DejaVuSans-30" transform="translate(63.623047 0)"/>
       <use xlink:href="#DejaVuSans-30" transform="translate(127.246094 0)"/>
      </g>
     </g>
    </g>
    <g id="xtick_4">
     <g id="line2d_4">
      <g>
       <use xlink:href="#m2b2b30193d" x="499.615829" y="346.426327" style="stroke: #000000; stroke-width: 0.8"/>
      </g>
     </g>
     <g id="text_4">
      <!-- 600 -->
      <g transform="translate(476.710829 371.662577) scale(0.24 -0.24)">
       <defs>
        <path id="DejaVuSans-36" d="M 2113 2584 
Q 1688 2584 1439 2293 
Q 1191 2003 1191 1497 
Q 1191 994 1439 701 
Q 1688 409 2113 409 
Q 2538 409 2786 701 
Q 3034 994 3034 1497 
Q 3034 2003 2786 2293 
Q 2538 2584 2113 2584 
z
M 3366 4563 
L 3366 3988 
Q 3128 4100 2886 4159 
Q 2644 4219 2406 4219 
Q 1781 4219 1451 3797 
Q 1122 3375 1075 2522 
Q 1259 2794 1537 2939 
Q 1816 3084 2150 3084 
Q 2853 3084 3261 2657 
Q 3669 2231 3669 1497 
Q 3669 778 3244 343 
Q 2819 -91 2113 -91 
Q 1303 -91 875 529 
Q 447 1150 447 2328 
Q 447 3434 972 4092 
Q 1497 4750 2381 4750 
Q 2619 4750 2861 4703 
Q 3103 4656 3366 4563 
z
" transform="scale(0.015625)"/>
       </defs>
       <use xlink:href="#DejaVuSans-36"/>
       <use xlink:href="#DejaVuSans-30" transform="translate(63.623047 0)"/>
       <use xlink:href="#DejaVuSans-30" transform="translate(127.246094 0)"/>
      </g>
     </g>
    </g>
    <g id="xtick_5">
     <g id="line2d_5">
      <g>
       <use xlink:href="#m2b2b30193d" x="621.483151" y="346.426327" style="stroke: #000000; stroke-width: 0.8"/>
      </g>
     </g>
     <g id="text_5">
      <!-- 800 -->
      <g transform="translate(598.578151 371.662577) scale(0.24 -0.24)">
       <defs>
        <path id="DejaVuSans-38" d="M 2034 2216 
Q 1584 2216 1326 1975 
Q 1069 1734 1069 1313 
Q 1069 891 1326 650 
Q 1584 409 2034 409 
Q 2484 409 2743 651 
Q 3003 894 3003 1313 
Q 3003 1734 2745 1975 
Q 2488 2216 2034 2216 
z
M 1403 2484 
Q 997 2584 770 2862 
Q 544 3141 544 3541 
Q 544 4100 942 4425 
Q 1341 4750 2034 4750 
Q 2731 4750 3128 4425 
Q 3525 4100 3525 3541 
Q 3525 3141 3298 2862 
Q 3072 2584 2669 2484 
Q 3125 2378 3379 2068 
Q 3634 1759 3634 1313 
Q 3634 634 3220 271 
Q 2806 -91 2034 -91 
Q 1263 -91 848 271 
Q 434 634 434 1313 
Q 434 1759 690 2068 
Q 947 2378 1403 2484 
z
M 1172 3481 
Q 1172 3119 1398 2916 
Q 1625 2713 2034 2713 
Q 2441 2713 2670 2916 
Q 2900 3119 2900 3481 
Q 2900 3844 2670 4047 
Q 2441 4250 2034 4250 
Q 1625 4250 1398 4047 
Q 1172 3844 1172 3481 
z
" transform="scale(0.015625)"/>
       </defs>
       <use xlink:href="#DejaVuSans-38"/>
       <use xlink:href="#DejaVuSans-30" transform="translate(63.623047 0)"/>
       <use xlink:href="#DejaVuSans-30" transform="translate(127.246094 0)"/>
      </g>
     </g>
    </g>
    <g id="xtick_6">
     <g id="line2d_6">
      <g>
       <use xlink:href="#m2b2b30193d" x="743.350473" y="346.426327" style="stroke: #000000; stroke-width: 0.8"/>
      </g>
     </g>
     <g id="text_6">
      <!-- 1000 -->
      <g transform="translate(712.810473 371.662577) scale(0.24 -0.24)">
       <defs>
        <path id="DejaVuSans-31" d="M 794 531 
L 1825 531 
L 1825 4091 
L 703 3866 
L 703 4441 
L 1819 4666 
L 2450 4666 
L 2450 531 
L 3481 531 
L 3481 0 
L 794 0 
L 794 531 
z
" transform="scale(0.015625)"/>
       </defs>
       <use xlink:href="#DejaVuSans-31"/>
       <use xlink:href="#DejaVuSans-30" transform="translate(63.623047 0)"/>
       <use xlink:href="#DejaVuSans-30" transform="translate(127.246094 0)"/>
       <use xlink:href="#DejaVuSans-30" transform="translate(190.869141 0)"/>
      </g>
     </g>
    </g>
    <g id="text_7">
     <!-- Steps -->
     <g transform="translate(399.205938 401.929452) scale(0.28 -0.28)">
      <defs>
       <path id="DejaVuSans-53" d="M 3425 4513 
L 3425 3897 
Q 3066 4069 2747 4153 
Q 2428 4238 2131 4238 
Q 1616 4238 1336 4038 
Q 1056 3838 1056 3469 
Q 1056 3159 1242 3001 
Q 1428 2844 1947 2747 
L 2328 2669 
Q 3034 2534 3370 2195 
Q 3706 1856 3706 1288 
Q 3706 609 3251 259 
Q 2797 -91 1919 -91 
Q 1588 -91 1214 -16 
Q 841 59 441 206 
L 441 856 
Q 825 641 1194 531 
Q 1563 422 1919 422 
Q 2459 422 2753 634 
Q 3047 847 3047 1241 
Q 3047 1584 2836 1778 
Q 2625 1972 2144 2069 
L 1759 2144 
Q 1053 2284 737 2584 
Q 422 2884 422 3419 
Q 422 4038 858 4394 
Q 1294 4750 2059 4750 
Q 2388 4750 2728 4690 
Q 3069 4631 3425 4513 
z
" transform="scale(0.015625)"/>
       <path id="DejaVuSans-74" d="M 1172 4494 
L 1172 3500 
L 2356 3500 
L 2356 3053 
L 1172 3053 
L 1172 1153 
Q 1172 725 1289 603 
Q 1406 481 1766 481 
L 2356 481 
L 2356 0 
L 1766 0 
Q 1100 0 847 248 
Q 594 497 594 1153 
L 594 3053 
L 172 3053 
L 172 3500 
L 594 3500 
L 594 4494 
L 1172 4494 
z
" transform="scale(0.015625)"/>
       <path id="DejaVuSans-65" d="M 3597 1894 
L 3597 1613 
L 953 1613 
Q 991 1019 1311 708 
Q 1631 397 2203 397 
Q 2534 397 2845 478 
Q 3156 559 3463 722 
L 3463 178 
Q 3153 47 2828 -22 
Q 2503 -91 2169 -91 
Q 1331 -91 842 396 
Q 353 884 353 1716 
Q 353 2575 817 3079 
Q 1281 3584 2069 3584 
Q 2775 3584 3186 3129 
Q 3597 2675 3597 1894 
z
M 3022 2063 
Q 3016 2534 2758 2815 
Q 2500 3097 2075 3097 
Q 1594 3097 1305 2825 
Q 1016 2553 972 2059 
L 3022 2063 
z
" transform="scale(0.015625)"/>
       <path id="DejaVuSans-70" d="M 1159 525 
L 1159 -1331 
L 581 -1331 
L 581 3500 
L 1159 3500 
L 1159 2969 
Q 1341 3281 1617 3432 
Q 1894 3584 2278 3584 
Q 2916 3584 3314 3078 
Q 3713 2572 3713 1747 
Q 3713 922 3314 415 
Q 2916 -91 2278 -91 
Q 1894 -91 1617 61 
Q 1341 213 1159 525 
z
M 3116 1747 
Q 3116 2381 2855 2742 
Q 2594 3103 2138 3103 
Q 1681 3103 1420 2742 
Q 1159 2381 1159 1747 
Q 1159 1113 1420 752 
Q 1681 391 2138 391 
Q 2594 391 2855 752 
Q 3116 1113 3116 1747 
z
" transform="scale(0.015625)"/>
       <path id="DejaVuSans-73" d="M 2834 3397 
L 2834 2853 
Q 2591 2978 2328 3040 
Q 2066 3103 1784 3103 
Q 1356 3103 1142 2972 
Q 928 2841 928 2578 
Q 928 2378 1081 2264 
Q 1234 2150 1697 2047 
L 1894 2003 
Q 2506 1872 2764 1633 
Q 3022 1394 3022 966 
Q 3022 478 2636 193 
Q 2250 -91 1575 -91 
Q 1294 -91 989 -36 
Q 684 19 347 128 
L 347 722 
Q 666 556 975 473 
Q 1284 391 1588 391 
Q 1994 391 2212 530 
Q 2431 669 2431 922 
Q 2431 1156 2273 1281 
Q 2116 1406 1581 1522 
L 1381 1569 
Q 847 1681 609 1914 
Q 372 2147 372 2553 
Q 372 3047 722 3315 
Q 1072 3584 1716 3584 
Q 2034 3584 2315 3537 
Q 2597 3491 2834 3397 
z
" transform="scale(0.015625)"/>
      </defs>
      <use xlink:href="#DejaVuSans-53"/>
      <use xlink:href="#DejaVuSans-74" transform="translate(63.476562 0)"/>
      <use xlink:href="#DejaVuSans-65" transform="translate(102.685547 0)"/>
      <use xlink:href="#DejaVuSans-70" transform="translate(164.208984 0)"/>
      <use xlink:href="#DejaVuSans-73" transform="translate(227.685547 0)"/>
     </g>
    </g>
   </g>
   <g id="matplotlib.axis_2">
    <g id="ytick_1">
     <g id="line2d_7">
      <defs>
       <path id="m55f76e4e8b" d="M 0 0 
L -3.5 0 
" style="stroke: #000000; stroke-width: 0.8"/>
      </defs>
      <g>
       <use xlink:href="#m55f76e4e8b" x="103.5775" y="322.958699" style="stroke: #000000; stroke-width: 0.8"/>
      </g>
     </g>
     <g id="text_8">
      <!-- −1.0 -->
      <g transform="translate(38.29875 332.076824) scale(0.24 -0.24)">
       <defs>
        <path id="DejaVuSans-2212" d="M 678 2272 
L 4684 2272 
L 4684 1741 
L 678 1741 
L 678 2272 
z
" transform="scale(0.015625)"/>
        <path id="DejaVuSans-2e" d="M 684 794 
L 1344 794 
L 1344 0 
L 684 0 
L 684 794 
z
" transform="scale(0.015625)"/>
       </defs>
       <use xlink:href="#DejaVuSans-2212"/>
       <use xlink:href="#DejaVuSans-31" transform="translate(83.789062 0)"/>
       <use xlink:href="#DejaVuSans-2e" transform="translate(147.412109 0)"/>
       <use xlink:href="#DejaVuSans-30" transform="translate(179.199219 0)"/>
      </g>
     </g>
    </g>
    <g id="ytick_2">
     <g id="line2d_8">
      <g>
       <use xlink:href="#m55f76e4e8b" x="103.5775" y="261.630584" style="stroke: #000000; stroke-width: 0.8"/>
      </g>
     </g>
     <g id="text_9">
      <!-- −0.5 -->
      <g transform="translate(38.29875 270.748709) scale(0.24 -0.24)">
       <defs>
        <path id="DejaVuSans-35" d="M 691 4666 
L 3169 4666 
L 3169 4134 
L 1269 4134 
L 1269 2991 
Q 1406 3038 1543 3061 
Q 1681 3084 1819 3084 
Q 2600 3084 3056 2656 
Q 3513 2228 3513 1497 
Q 3513 744 3044 326 
Q 2575 -91 1722 -91 
Q 1428 -91 1123 -41 
Q 819 9 494 109 
L 494 744 
Q 775 591 1075 516 
Q 1375 441 1709 441 
Q 2250 441 2565 725 
Q 2881 1009 2881 1497 
Q 2881 1984 2565 2268 
Q 2250 2553 1709 2553 
Q 1456 2553 1204 2497 
Q 953 2441 691 2322 
L 691 4666 
z
" transform="scale(0.015625)"/>
       </defs>
       <use xlink:href="#DejaVuSans-2212"/>
       <use xlink:href="#DejaVuSans-30" transform="translate(83.789062 0)"/>
       <use xlink:href="#DejaVuSans-2e" transform="translate(147.412109 0)"/>
       <use xlink:href="#DejaVuSans-35" transform="translate(179.199219 0)"/>
      </g>
     </g>
    </g>
    <g id="ytick_3">
     <g id="line2d_9">
      <g>
       <use xlink:href="#m55f76e4e8b" x="103.5775" y="200.302469" style="stroke: #000000; stroke-width: 0.8"/>
      </g>
     </g>
     <g id="text_10">
      <!-- 0.0 -->
      <g transform="translate(58.41 209.420594) scale(0.24 -0.24)">
       <use xlink:href="#DejaVuSans-30"/>
       <use xlink:href="#DejaVuSans-2e" transform="translate(63.623047 0)"/>
       <use xlink:href="#DejaVuSans-30" transform="translate(95.410156 0)"/>
      </g>
     </g>
    </g>
    <g id="ytick_4">
     <g id="line2d_10">
      <g>
       <use xlink:href="#m55f76e4e8b" x="103.5775" y="138.974355" style="stroke: #000000; stroke-width: 0.8"/>
      </g>
     </g>
     <g id="text_11">
      <!-- 0.5 -->
      <g transform="translate(58.41 148.09248) scale(0.24 -0.24)">
       <use xlink:href="#DejaVuSans-30"/>
       <use xlink:href="#DejaVuSans-2e" transform="translate(63.623047 0)"/>
       <use xlink:href="#DejaVuSans-35" transform="translate(95.410156 0)"/>
      </g>
     </g>
    </g>
    <g id="ytick_5">
     <g id="line2d_11">
      <g>
       <use xlink:href="#m55f76e4e8b" x="103.5775" y="77.64624" style="stroke: #000000; stroke-width: 0.8"/>
      </g>
     </g>
     <g id="text_12">
      <!-- 1.0 -->
      <g transform="translate(58.41 86.764365) scale(0.24 -0.24)">
       <use xlink:href="#DejaVuSans-31"/>
       <use xlink:href="#DejaVuSans-2e" transform="translate(63.623047 0)"/>
       <use xlink:href="#DejaVuSans-30" transform="translate(95.410156 0)"/>
      </g>
     </g>
    </g>
    <g id="ytick_6">
     <g id="line2d_12">
      <g>
       <use xlink:href="#m55f76e4e8b" x="103.5775" y="16.318125" style="stroke: #000000; stroke-width: 0.8"/>
      </g>
     </g>
     <g id="text_13">
      <!-- 1.5 -->
      <g transform="translate(58.41 25.43625) scale(0.24 -0.24)">
       <use xlink:href="#DejaVuSans-31"/>
       <use xlink:href="#DejaVuSans-2e" transform="translate(63.623047 0)"/>
       <use xlink:href="#DejaVuSans-35" transform="translate(95.410156 0)"/>
      </g>
     </g>
    </g>
    <g id="text_14">
     <!-- Average reward -->
     <g transform="translate(28.475625 290.529139) rotate(-90) scale(0.28 -0.28)">
      <defs>
       <path id="DejaVuSans-41" d="M 2188 4044 
L 1331 1722 
L 3047 1722 
L 2188 4044 
z
M 1831 4666 
L 2547 4666 
L 4325 0 
L 3669 0 
L 3244 1197 
L 1141 1197 
L 716 0 
L 50 0 
L 1831 4666 
z
" transform="scale(0.015625)"/>
       <path id="DejaVuSans-76" d="M 191 3500 
L 800 3500 
L 1894 563 
L 2988 3500 
L 3597 3500 
L 2284 0 
L 1503 0 
L 191 3500 
z
" transform="scale(0.015625)"/>
       <path id="DejaVuSans-72" d="M 2631 2963 
Q 2534 3019 2420 3045 
Q 2306 3072 2169 3072 
Q 1681 3072 1420 2755 
Q 1159 2438 1159 1844 
L 1159 0 
L 581 0 
L 581 3500 
L 1159 3500 
L 1159 2956 
Q 1341 3275 1631 3429 
Q 1922 3584 2338 3584 
Q 2397 3584 2469 3576 
Q 2541 3569 2628 3553 
L 2631 2963 
z
" transform="scale(0.015625)"/>
       <path id="DejaVuSans-61" d="M 2194 1759 
Q 1497 1759 1228 1600 
Q 959 1441 959 1056 
Q 959 750 1161 570 
Q 1363 391 1709 391 
Q 2188 391 2477 730 
Q 2766 1069 2766 1631 
L 2766 1759 
L 2194 1759 
z
M 3341 1997 
L 3341 0 
L 2766 0 
L 2766 531 
Q 2569 213 2275 61 
Q 1981 -91 1556 -91 
Q 1019 -91 701 211 
Q 384 513 384 1019 
Q 384 1609 779 1909 
Q 1175 2209 1959 2209 
L 2766 2209 
L 2766 2266 
Q 2766 2663 2505 2880 
Q 2244 3097 1772 3097 
Q 1472 3097 1187 3025 
Q 903 2953 641 2809 
L 641 3341 
Q 956 3463 1253 3523 
Q 1550 3584 1831 3584 
Q 2591 3584 2966 3190 
Q 3341 2797 3341 1997 
z
" transform="scale(0.015625)"/>
       <path id="DejaVuSans-67" d="M 2906 1791 
Q 2906 2416 2648 2759 
Q 2391 3103 1925 3103 
Q 1463 3103 1205 2759 
Q 947 2416 947 1791 
Q 947 1169 1205 825 
Q 1463 481 1925 481 
Q 2391 481 2648 825 
Q 2906 1169 2906 1791 
z
M 3481 434 
Q 3481 -459 3084 -895 
Q 2688 -1331 1869 -1331 
Q 1566 -1331 1297 -1286 
Q 1028 -1241 775 -1147 
L 775 -588 
Q 1028 -725 1275 -790 
Q 1522 -856 1778 -856 
Q 2344 -856 2625 -561 
Q 2906 -266 2906 331 
L 2906 616 
Q 2728 306 2450 153 
Q 2172 0 1784 0 
Q 1141 0 747 490 
Q 353 981 353 1791 
Q 353 2603 747 3093 
Q 1141 3584 1784 3584 
Q 2172 3584 2450 3431 
Q 2728 3278 2906 2969 
L 2906 3500 
L 3481 3500 
L 3481 434 
z
" transform="scale(0.015625)"/>
       <path id="DejaVuSans-20" transform="scale(0.015625)"/>
       <path id="DejaVuSans-77" d="M 269 3500 
L 844 3500 
L 1563 769 
L 2278 3500 
L 2956 3500 
L 3675 769 
L 4391 3500 
L 4966 3500 
L 4050 0 
L 3372 0 
L 2619 2869 
L 1863 0 
L 1184 0 
L 269 3500 
z
" transform="scale(0.015625)"/>
       <path id="DejaVuSans-64" d="M 2906 2969 
L 2906 4863 
L 3481 4863 
L 3481 0 
L 2906 0 
L 2906 525 
Q 2725 213 2448 61 
Q 2172 -91 1784 -91 
Q 1150 -91 751 415 
Q 353 922 353 1747 
Q 353 2572 751 3078 
Q 1150 3584 1784 3584 
Q 2172 3584 2448 3432 
Q 2725 3281 2906 2969 
z
M 947 1747 
Q 947 1113 1208 752 
Q 1469 391 1925 391 
Q 2381 391 2643 752 
Q 2906 1113 2906 1747 
Q 2906 2381 2643 2742 
Q 2381 3103 1925 3103 
Q 1469 3103 1208 2742 
Q 947 2381 947 1747 
z
" transform="scale(0.015625)"/>
      </defs>
      <use xlink:href="#DejaVuSans-41"/>
      <use xlink:href="#DejaVuSans-76" transform="translate(62.533203 0)"/>
      <use xlink:href="#DejaVuSans-65" transform="translate(121.712891 0)"/>
      <use xlink:href="#DejaVuSans-72" transform="translate(183.236328 0)"/>
      <use xlink:href="#DejaVuSans-61" transform="translate(224.349609 0)"/>
      <use xlink:href="#DejaVuSans-67" transform="translate(285.628906 0)"/>
      <use xlink:href="#DejaVuSans-65" transform="translate(349.105469 0)"/>
      <use xlink:href="#DejaVuSans-20" transform="translate(410.628906 0)"/>
      <use xlink:href="#DejaVuSans-72" transform="translate(442.416016 0)"/>
      <use xlink:href="#DejaVuSans-65" transform="translate(481.279297 0)"/>
      <use xlink:href="#DejaVuSans-77" transform="translate(542.802734 0)"/>
      <use xlink:href="#DejaVuSans-61" transform="translate(624.589844 0)"/>
      <use xlink:href="#DejaVuSans-72" transform="translate(685.869141 0)"/>
      <use xlink:href="#DejaVuSans-64" transform="translate(725.232422 0)"/>
     </g>
    </g>
   </g>
   <g id="line2d_13">
    <path d="M 134.013864 200.106216 
L 134.6232 199.744328 
L 135.841873 201.032025 
L 136.45121 198.83046 
L 137.060547 200.674274 
L 137.669883 199.66448 
L 138.27922 200.908357 
L 138.888557 200.039497 
L 139.497893 199.819844 
L 140.10723 66.04033 
L 140.716566 114.57671 
L 141.93524 166.759958 
L 143.153913 210.443454 
L 144.372586 255.987662 
L 144.981923 286.664206 
L 145.591259 331.306327 
L 146.200596 49.853648 
L 146.809932 84.2494 
L 147.419269 106.637023 
L 148.028606 121.979839 
L 148.637942 133.135657 
L 149.247279 140.911249 
L 149.856615 146.427699 
L 150.465952 148.657073 
L 151.075289 147.798086 
L 151.684625 142.483762 
L 154.731308 104.613924 
L 155.340645 100.172294 
L 155.949982 94.520174 
L 156.559318 92.170535 
L 158.387328 82.907394 
L 158.996665 82.218227 
L 159.606001 78.490997 
L 160.215338 78.220223 
L 161.434011 75.800124 
L 162.043348 73.986786 
L 162.652684 72.910112 
L 163.262021 70.810107 
L 163.871357 68.293815 
L 164.480694 68.971274 
L 165.699367 67.531658 
L 166.308704 65.881637 
L 166.918041 64.755246 
L 167.527377 65.19865 
L 168.136714 63.548229 
L 168.74605 62.464465 
L 169.355387 62.510172 
L 169.964724 62.067379 
L 170.57406 62.512942 
L 171.183397 61.581753 
L 171.792733 61.864629 
L 172.40207 61.782096 
L 173.011407 61.000913 
L 173.620743 60.901823 
L 174.23008 60.329817 
L 174.839416 60.981238 
L 175.448753 59.496401 
L 176.05809 60.804332 
L 176.667426 59.084445 
L 177.276763 60.982634 
L 177.8861 58.875845 
L 178.495436 59.379397 
L 179.104773 59.625778 
L 179.714109 58.749642 
L 180.323446 59.253933 
L 180.932783 58.972961 
L 181.542119 58.1399 
L 182.151456 59.101486 
L 182.760792 59.53899 
L 183.370129 58.449095 
L 183.979466 57.704413 
L 184.588802 58.650637 
L 185.807475 58.622987 
L 186.416812 59.773446 
L 187.026149 57.852092 
L 187.635485 59.175902 
L 188.244822 57.851717 
L 188.854158 57.981833 
L 189.463495 59.178424 
L 190.072832 58.364381 
L 190.682168 57.737095 
L 191.291505 56.891464 
L 191.900842 57.673121 
L 192.510178 58.221945 
L 193.119515 57.623128 
L 193.728851 58.557449 
L 194.338188 58.316499 
L 194.947525 58.550134 
L 196.166198 58.373806 
L 196.775534 58.090289 
L 197.384871 58.483324 
L 197.994208 58.112492 
L 198.603544 58.584685 
L 199.212881 58.173636 
L 199.822217 59.632818 
L 201.040891 58.154915 
L 201.650227 58.079767 
L 202.259564 58.239921 
L 202.8689 58.534712 
L 203.478237 57.6956 
L 204.69691 57.671868 
L 205.306247 58.695858 
L 206.52492 57.177643 
L 207.134257 57.4502 
L 207.743593 56.419966 
L 208.35293 56.808071 
L 208.962267 58.398373 
L 209.571603 58.339856 
L 210.18094 57.443278 
L 210.790276 57.346502 
L 211.399613 57.629255 
L 212.00895 56.783809 
L 212.618286 57.174902 
L 213.227623 57.257378 
L 213.836959 57.166052 
L 214.446296 57.64357 
L 215.055633 57.735886 
L 215.664969 56.952889 
L 216.883643 56.685391 
L 217.492979 57.190774 
L 218.102316 56.75003 
L 218.711652 56.596767 
L 219.320989 55.218053 
L 219.930326 56.687306 
L 220.539662 56.180113 
L 221.148999 56.789478 
L 221.758335 55.648026 
L 222.367672 55.828534 
L 222.977009 56.187998 
L 223.586345 56.296472 
L 224.195682 56.563865 
L 224.805018 55.288343 
L 225.414355 55.44554 
L 226.023692 56.002779 
L 226.633028 56.971343 
L 227.242365 56.329311 
L 227.851701 55.240836 
L 228.461038 55.579929 
L 229.070375 55.43213 
L 229.679711 55.582585 
L 230.289048 56.018806 
L 230.898385 55.006909 
L 231.507721 54.651645 
L 232.726394 56.070505 
L 233.335731 55.295612 
L 233.945068 55.991353 
L 234.554404 53.819894 
L 235.163741 54.858686 
L 235.773077 55.492718 
L 236.991751 54.054676 
L 237.601087 55.335254 
L 238.210424 55.313925 
L 240.038434 54.798851 
L 240.64777 54.255776 
L 241.257107 54.401302 
L 241.866443 55.228668 
L 243.085117 55.229585 
L 243.694453 54.197159 
L 244.30379 54.074408 
L 244.913127 55.035899 
L 245.522463 52.671493 
L 246.741136 53.248144 
L 247.350473 53.752784 
L 248.569146 52.925 
L 249.178483 53.050996 
L 249.787819 54.293289 
L 250.397156 53.355241 
L 251.006493 52.745778 
L 251.615829 52.836647 
L 252.225166 52.507603 
L 253.443839 53.338852 
L 254.053176 53.455583 
L 254.662512 53.831154 
L 255.271849 53.294664 
L 255.881186 53.387544 
L 256.490522 53.802631 
L 257.099859 52.598906 
L 257.709195 51.773935 
L 258.318532 52.189856 
L 258.927869 52.02947 
L 259.537205 50.708029 
L 260.146542 51.064793 
L 260.755878 51.285024 
L 261.365215 51.941344 
L 261.974552 51.734462 
L 262.583888 51.287453 
L 263.193225 52.924409 
L 263.802561 52.2151 
L 264.411898 52.618705 
L 265.021235 51.972475 
L 265.630571 51.702156 
L 266.239908 50.507116 
L 266.849244 51.564578 
L 267.458581 50.742109 
L 268.067918 50.879322 
L 268.677254 51.692924 
L 269.286591 50.843406 
L 269.895928 51.05412 
L 271.114601 51.181383 
L 271.723937 49.994123 
L 272.333274 51.621792 
L 272.942611 51.68792 
L 273.551947 51.002475 
L 274.161284 51.335154 
L 275.379957 50.822297 
L 275.989294 49.359977 
L 276.59863 50.695757 
L 277.207967 50.11258 
L 277.817303 50.753892 
L 278.42664 49.176065 
L 279.035977 49.610365 
L 279.645313 51.653433 
L 280.25465 50.964529 
L 280.863986 50.679567 
L 281.473323 48.930968 
L 282.08266 49.995062 
L 282.691996 51.341133 
L 283.301333 49.340859 
L 284.520006 50.682537 
L 285.129343 49.702366 
L 285.738679 49.963925 
L 286.348016 49.474709 
L 286.957353 49.487491 
L 287.566689 48.779847 
L 288.176026 50.524945 
L 288.785362 50.007605 
L 289.394699 49.829232 
L 290.004036 50.201934 
L 290.613372 49.727667 
L 291.222709 50.432831 
L 291.832045 48.993356 
L 292.441382 49.854097 
L 293.050719 49.273151 
L 293.660055 49.642877 
L 294.269392 49.568763 
L 294.878729 50.72116 
L 295.488065 49.472032 
L 296.097402 49.101938 
L 297.316075 49.561797 
L 297.925412 50.04639 
L 298.534748 49.717716 
L 299.144085 48.994157 
L 299.753421 49.215787 
L 300.362758 48.634071 
L 300.972095 48.412344 
L 301.581431 49.11883 
L 302.190768 49.527015 
L 302.800104 48.554337 
L 303.409441 48.318889 
L 304.018778 48.768641 
L 304.628114 47.658204 
L 305.237451 48.366643 
L 305.846787 47.256137 
L 306.456124 48.638743 
L 307.065461 49.093163 
L 307.674797 48.247992 
L 308.284134 47.786832 
L 308.893471 48.423092 
L 309.502807 47.033378 
L 310.112144 47.617502 
L 311.330817 47.325047 
L 311.940154 48.171383 
L 313.158827 46.583625 
L 313.768163 47.078468 
L 314.3775 46.061077 
L 314.986837 47.385495 
L 316.20551 47.009723 
L 316.814846 46.418911 
L 317.424183 47.26579 
L 318.03352 46.223774 
L 318.642856 46.106177 
L 319.252193 47.212038 
L 319.861529 45.75082 
L 320.470866 47.397265 
L 321.080203 46.45969 
L 321.689539 45.863602 
L 322.298876 45.492688 
L 322.908213 46.71834 
L 323.517549 44.897134 
L 324.126886 46.612231 
L 324.736222 45.66406 
L 325.345559 45.100056 
L 325.954896 46.194224 
L 326.564232 46.287199 
L 327.173569 45.720719 
L 327.782905 46.719813 
L 328.392242 46.155944 
L 329.001579 45.229211 
L 329.610915 46.794932 
L 330.220252 46.102331 
L 330.829588 46.449904 
L 331.438925 46.14938 
L 332.657598 44.74846 
L 333.266935 46.289076 
L 334.485608 45.773318 
L 335.094945 46.05742 
L 335.704281 45.774009 
L 336.313618 45.051158 
L 336.922955 45.718356 
L 337.532291 45.482774 
L 338.141628 44.483539 
L 338.750964 45.321105 
L 339.360301 44.640406 
L 339.969638 45.32589 
L 340.578974 45.649119 
L 341.188311 43.889573 
L 341.797647 45.339313 
L 342.406984 46.024257 
L 343.016321 45.444667 
L 343.625657 44.669052 
L 344.234994 44.219525 
L 344.84433 45.480742 
L 345.453667 45.001712 
L 346.063004 44.724363 
L 346.67234 45.72273 
L 347.281677 45.173764 
L 347.891014 45.061423 
L 348.50035 44.141856 
L 349.109687 45.29072 
L 349.719023 45.765698 
L 350.32836 44.897178 
L 351.547033 44.450168 
L 352.15637 45.514226 
L 352.765706 44.497608 
L 353.375043 44.390514 
L 353.98438 43.658936 
L 354.593716 44.114439 
L 355.203053 43.742333 
L 355.812389 45.115157 
L 356.421726 44.87316 
L 357.031063 43.963041 
L 358.249736 45.009145 
L 358.859072 44.012938 
L 359.468409 44.007807 
L 360.077746 44.206611 
L 360.687082 43.791153 
L 361.296419 44.781313 
L 361.905756 43.793348 
L 362.515092 44.875553 
L 363.733765 44.226134 
L 364.343102 43.69806 
L 364.952439 44.230249 
L 365.561775 43.796732 
L 366.171112 43.626553 
L 366.780448 43.228086 
L 367.389785 43.471545 
L 367.999122 43.150641 
L 368.608458 43.572832 
L 369.217795 43.771724 
L 369.827131 43.412325 
L 370.436468 43.297836 
L 371.045805 43.909872 
L 371.655141 43.134378 
L 372.264478 42.583321 
L 372.873814 43.821527 
L 373.483151 43.303631 
L 374.092488 42.95517 
L 374.701824 42.934993 
L 375.311161 42.300879 
L 375.920498 42.699265 
L 376.529834 43.330283 
L 377.139171 42.054435 
L 377.748507 41.998414 
L 378.357844 43.500577 
L 378.967181 43.44605 
L 379.576517 42.265373 
L 380.185854 42.856567 
L 380.79519 43.290496 
L 381.404527 42.450658 
L 382.013864 42.742493 
L 382.6232 41.78107 
L 383.232537 42.560568 
L 383.841873 42.118835 
L 384.45121 42.985987 
L 385.669883 42.475448 
L 386.27922 41.642645 
L 386.888557 42.153674 
L 387.497893 41.853701 
L 388.10723 42.45785 
L 388.716566 41.904424 
L 389.325903 42.291889 
L 389.93524 42.446613 
L 390.544576 41.912804 
L 391.153913 40.614925 
L 391.763249 41.554765 
L 392.372586 42.273652 
L 392.981923 40.846564 
L 393.591259 41.744371 
L 394.200596 41.215771 
L 396.028606 40.685197 
L 396.637942 41.444484 
L 397.247279 41.684394 
L 397.856615 42.343693 
L 398.465952 41.06712 
L 399.075289 41.318611 
L 399.684625 41.000933 
L 400.293962 41.385449 
L 400.903299 41.603593 
L 401.512635 40.456887 
L 402.121972 40.467169 
L 402.731308 41.220904 
L 403.340645 41.033661 
L 403.949982 41.412574 
L 404.559318 41.620577 
L 405.168655 40.481401 
L 405.777991 40.566711 
L 406.387328 41.107589 
L 406.996665 40.40627 
L 407.606001 40.301909 
L 408.215338 41.900258 
L 410.043348 39.482536 
L 411.262021 41.162412 
L 411.871357 40.147017 
L 412.480694 41.183178 
L 413.090031 40.384493 
L 413.699367 40.863183 
L 414.308704 40.243225 
L 414.918041 41.128767 
L 415.527377 39.79609 
L 416.136714 40.7751 
L 416.74605 40.406 
L 417.355387 39.851641 
L 418.57406 39.190103 
L 419.183397 39.642073 
L 419.792733 38.686526 
L 420.40207 39.750749 
L 421.011407 40.241496 
L 421.620743 40.013267 
L 422.23008 39.342725 
L 422.839416 39.743221 
L 423.448753 39.458441 
L 424.05809 40.631199 
L 425.276763 39.162239 
L 425.8861 39.403027 
L 426.495436 39.997833 
L 427.104773 38.816484 
L 427.714109 39.04565 
L 428.323446 39.612995 
L 428.932783 39.325692 
L 429.542119 38.660499 
L 430.151456 39.467861 
L 430.760792 39.743611 
L 431.370129 39.760659 
L 431.979466 38.80762 
L 432.588802 38.512263 
L 433.198139 37.600917 
L 433.807475 37.656443 
L 434.416812 38.733358 
L 435.026149 38.824158 
L 435.635485 38.632879 
L 436.244822 38.271675 
L 436.854158 38.707753 
L 437.463495 38.819593 
L 438.072832 39.684328 
L 438.682168 38.685306 
L 439.291505 39.539585 
L 439.900842 39.185333 
L 440.510178 39.600863 
L 441.119515 39.725772 
L 441.728851 38.992786 
L 442.338188 39.357815 
L 442.947525 38.797885 
L 443.556861 39.108243 
L 444.166198 37.430161 
L 444.775534 38.327314 
L 445.384871 39.940224 
L 445.994208 38.261029 
L 446.603544 38.330344 
L 447.212881 38.831861 
L 447.822217 38.91198 
L 448.431554 37.9403 
L 449.040891 38.320458 
L 449.650227 38.305239 
L 450.259564 38.92148 
L 451.478237 38.236353 
L 452.087574 38.296496 
L 452.69691 38.238028 
L 453.306247 37.986493 
L 453.915584 38.228585 
L 455.134257 37.455938 
L 455.743593 37.838616 
L 456.35293 38.813597 
L 456.962267 39.504788 
L 457.571603 37.964165 
L 458.18094 38.247681 
L 458.790276 39.03498 
L 460.00895 36.737307 
L 460.618286 38.350369 
L 461.227623 38.495725 
L 462.446296 38.192301 
L 463.055633 38.911054 
L 463.664969 38.517509 
L 464.274306 38.430301 
L 464.883643 37.735182 
L 466.102316 38.194166 
L 466.711652 37.889489 
L 467.320989 38.140914 
L 467.930326 37.282135 
L 468.539662 37.569303 
L 469.148999 37.465499 
L 469.758335 38.589631 
L 470.367672 37.870249 
L 470.977009 38.171406 
L 471.586345 37.865331 
L 472.195682 38.098086 
L 472.805018 37.890893 
L 473.414355 36.943651 
L 474.023692 38.075006 
L 475.242365 38.508702 
L 475.851701 37.539081 
L 476.461038 37.728477 
L 477.070375 37.274424 
L 477.679711 38.142198 
L 478.289048 36.867927 
L 478.898385 37.36201 
L 480.117058 37.602385 
L 481.335731 38.025626 
L 481.945068 37.149202 
L 482.554404 37.313324 
L 483.163741 37.017997 
L 483.773077 38.377432 
L 484.382414 36.497313 
L 485.601087 36.383798 
L 486.210424 35.848149 
L 486.81976 35.708782 
L 487.429097 36.470978 
L 488.038434 35.840342 
L 488.64777 36.881507 
L 489.257107 35.88627 
L 490.47578 36.782179 
L 491.085117 36.707973 
L 491.694453 36.287941 
L 492.30379 36.620654 
L 492.913127 36.0351 
L 493.522463 37.093178 
L 494.1318 36.259428 
L 494.741136 35.842603 
L 495.350473 36.728059 
L 496.569146 36.484437 
L 497.178483 35.503142 
L 497.787819 36.361511 
L 498.397156 35.922628 
L 499.615829 35.903917 
L 500.225166 36.141471 
L 500.834502 37.191768 
L 501.443839 36.047608 
L 502.053176 36.301608 
L 502.662512 36.423687 
L 503.271849 35.445807 
L 503.881186 36.317524 
L 504.490522 35.208737 
L 505.099859 35.7433 
L 505.709195 35.974436 
L 506.318532 37.269666 
L 506.927869 35.716187 
L 507.537205 35.889283 
L 508.146542 35.51852 
L 508.755878 35.477164 
L 509.365215 36.190864 
L 509.974552 35.783249 
L 510.583888 36.120562 
L 511.193225 34.968785 
L 511.802561 36.583545 
L 512.411898 35.331477 
L 513.021235 35.627036 
L 513.630571 36.268423 
L 514.239908 35.566948 
L 514.849244 37.193245 
L 516.067918 35.537951 
L 516.677254 34.443781 
L 517.286591 35.156335 
L 517.895928 35.642345 
L 518.505264 34.640134 
L 519.723937 35.977256 
L 520.333274 35.420171 
L 520.942611 35.307165 
L 521.551947 35.393394 
L 522.161284 36.090911 
L 522.77062 35.408081 
L 523.379957 35.520514 
L 523.989294 35.008037 
L 524.59863 35.741375 
L 525.207967 35.158294 
L 525.817303 35.265955 
L 526.42664 35.827113 
L 527.035977 35.795065 
L 528.863986 35.174366 
L 529.473323 34.556188 
L 530.08266 35.640957 
L 530.691996 35.831673 
L 531.301333 35.226692 
L 531.91067 34.25233 
L 532.520006 36.492987 
L 533.129343 35.124956 
L 533.738679 35.775891 
L 534.348016 34.455069 
L 535.566689 34.782622 
L 536.176026 34.602584 
L 537.394699 36.00365 
L 538.004036 35.144213 
L 538.613372 34.84822 
L 539.222709 35.485177 
L 539.832045 34.474427 
L 540.441382 34.080196 
L 541.050719 35.482146 
L 541.660055 34.532935 
L 542.269392 34.560125 
L 542.878729 35.704544 
L 543.488065 34.372513 
L 544.097402 33.718429 
L 544.706738 35.462343 
L 545.316075 34.184221 
L 545.925412 35.361211 
L 546.534748 34.454468 
L 547.144085 34.158831 
L 547.753421 34.576702 
L 548.972095 35.000542 
L 549.581431 34.591737 
L 550.190768 35.290258 
L 550.800104 34.457683 
L 551.409441 35.222533 
L 552.018778 35.092165 
L 552.628114 33.383609 
L 553.237451 34.089284 
L 553.846787 33.980652 
L 554.456124 34.461131 
L 555.065461 33.326723 
L 555.674797 34.61311 
L 556.284134 34.602364 
L 556.893471 34.904875 
L 557.502807 34.991294 
L 558.72148 33.948139 
L 559.330817 34.969925 
L 559.940154 34.771169 
L 560.54949 34.158721 
L 561.158827 34.347643 
L 562.3775 33.468199 
L 562.986837 34.299763 
L 564.20551 33.891286 
L 564.814846 33.395809 
L 565.424183 34.351715 
L 566.03352 33.802997 
L 566.642856 34.466182 
L 567.252193 33.721199 
L 567.861529 34.593472 
L 568.470866 33.717473 
L 569.080203 34.214417 
L 569.689539 33.359152 
L 570.298876 33.897162 
L 570.908213 33.782399 
L 571.517549 34.096011 
L 572.126886 33.604119 
L 572.736222 33.402565 
L 573.345559 33.523165 
L 573.954896 34.016416 
L 574.564232 34.083246 
L 575.173569 33.230367 
L 575.782905 33.756774 
L 576.392242 33.610412 
L 577.001579 34.826788 
L 577.610915 34.352208 
L 578.220252 34.817838 
L 579.438925 33.506664 
L 580.048262 33.370247 
L 580.657598 34.378895 
L 581.266935 32.652656 
L 581.876271 34.480228 
L 582.485608 33.835315 
L 583.094945 33.607447 
L 583.704281 33.721753 
L 584.313618 32.956017 
L 584.922955 33.23916 
L 585.532291 33.722285 
L 586.141628 33.941199 
L 586.750964 33.94097 
L 587.360301 32.730643 
L 587.969638 33.71727 
L 588.578974 34.045846 
L 589.188311 33.237507 
L 589.797647 32.830895 
L 590.406984 33.121101 
L 591.016321 33.72618 
L 591.625657 33.215798 
L 592.234994 33.091071 
L 592.84433 34.012749 
L 593.453667 33.058893 
L 594.063004 33.437413 
L 594.67234 32.465648 
L 595.281677 33.079172 
L 595.891014 32.551211 
L 596.50035 33.338154 
L 597.109687 33.173202 
L 597.719023 33.202227 
L 598.32836 33.834831 
L 598.937697 32.909507 
L 599.547033 33.235039 
L 600.15637 33.848766 
L 600.765706 32.711378 
L 601.375043 31.87784 
L 601.98438 32.35846 
L 602.593716 33.157873 
L 603.203053 33.762329 
L 603.812389 33.001083 
L 604.421726 31.924873 
L 605.031063 32.207454 
L 606.249736 33.340897 
L 606.859072 33.354687 
L 607.468409 32.182924 
L 608.077746 33.061663 
L 608.687082 33.656157 
L 609.296419 32.872274 
L 609.905756 33.88132 
L 610.515092 33.21446 
L 611.733765 32.294907 
L 612.343102 32.013326 
L 612.952439 33.088522 
L 613.561775 33.290228 
L 614.171112 33.327699 
L 614.780448 32.23901 
L 615.389785 33.498213 
L 615.999122 32.37279 
L 616.608458 31.945788 
L 617.217795 31.938256 
L 617.827131 33.078184 
L 619.045805 32.678534 
L 619.655141 31.895828 
L 620.264478 32.268542 
L 620.873814 31.826552 
L 621.483151 31.784371 
L 622.092488 32.091518 
L 622.701824 32.91002 
L 623.311161 32.97405 
L 623.920498 32.145493 
L 624.529834 32.18775 
L 625.139171 32.344575 
L 625.748507 31.650962 
L 626.357844 32.725825 
L 626.967181 32.223705 
L 627.576517 31.004843 
L 628.185854 32.143034 
L 628.79519 32.68879 
L 629.404527 32.258246 
L 630.013864 31.32761 
L 630.6232 33.370986 
L 631.232537 32.460286 
L 631.841873 31.795534 
L 632.45121 32.309927 
L 633.669883 31.875557 
L 634.27922 32.376 
L 634.888557 31.950981 
L 635.497893 32.235359 
L 636.10723 31.715522 
L 636.716566 30.321044 
L 637.325903 32.712997 
L 637.93524 32.74436 
L 638.544576 32.09439 
L 639.763249 32.11224 
L 640.372586 31.59423 
L 640.981923 32.420491 
L 642.200596 31.971147 
L 642.809932 31.622743 
L 643.419269 32.98975 
L 644.028606 31.863556 
L 644.637942 32.448439 
L 645.247279 31.865401 
L 646.465952 31.293632 
L 647.075289 32.322146 
L 647.684625 31.020075 
L 648.293962 31.542229 
L 648.903299 32.838018 
L 649.512635 30.60786 
L 650.121972 30.83916 
L 650.731308 31.937825 
L 651.340645 31.525447 
L 652.559318 31.619891 
L 654.387328 31.823342 
L 654.996665 31.221713 
L 655.606001 31.457421 
L 656.215338 31.002346 
L 656.824674 32.165287 
L 657.434011 30.864102 
L 658.043348 31.761627 
L 658.652684 32.18135 
L 659.262021 30.850398 
L 659.871357 31.716466 
L 660.480694 31.39695 
L 661.090031 31.993259 
L 661.699367 32.248446 
L 662.308704 31.888669 
L 662.918041 31.846646 
L 663.527377 31.508428 
L 664.136714 29.951934 
L 664.74605 30.910885 
L 665.355387 31.623074 
L 665.964724 30.344258 
L 666.57406 31.157463 
L 667.183397 31.596748 
L 667.792733 32.212873 
L 668.40207 31.799755 
L 669.011407 32.266834 
L 670.23008 30.935805 
L 670.839416 31.400275 
L 671.448753 32.06547 
L 672.667426 31.386951 
L 673.276763 30.548724 
L 673.8861 31.650151 
L 675.104773 32.180985 
L 675.714109 31.365365 
L 676.323446 31.085438 
L 676.932783 31.889949 
L 677.542119 29.346204 
L 678.151456 30.767217 
L 678.760792 31.214815 
L 679.370129 30.817977 
L 679.979466 31.607011 
L 680.588802 30.800135 
L 681.198139 31.270772 
L 681.807475 31.37563 
L 682.416812 30.690218 
L 683.026149 30.994688 
L 683.635485 30.239585 
L 684.244822 31.663156 
L 684.854158 30.878881 
L 686.072832 31.51375 
L 687.291505 30.240097 
L 687.900842 31.133045 
L 688.510178 30.418785 
L 689.119515 31.337374 
L 689.728851 30.759992 
L 690.338188 31.413397 
L 690.947525 30.881921 
L 692.166198 31.123354 
L 692.775534 32.156106 
L 693.384871 30.530704 
L 693.994208 30.909461 
L 694.603544 31.684242 
L 695.212881 31.661206 
L 695.822217 31.177285 
L 696.431554 31.542874 
L 697.040891 31.379026 
L 697.650227 30.800959 
L 698.259564 30.901594 
L 698.8689 31.497525 
L 699.478237 30.5757 
L 700.087574 31.023849 
L 700.69691 30.61551 
L 701.306247 31.396339 
L 701.915584 30.72399 
L 702.52492 30.741702 
L 703.134257 31.09587 
L 703.743593 30.931668 
L 704.35293 30.62815 
L 704.962267 30.142508 
L 705.571603 31.021678 
L 706.18094 31.301216 
L 706.790276 30.58993 
L 707.399613 31.010373 
L 708.618286 30.233035 
L 709.227623 30.735784 
L 709.836959 31.079808 
L 711.055633 30.402458 
L 711.664969 29.570745 
L 712.274306 31.439949 
L 712.883643 29.935869 
L 713.492979 30.509388 
L 714.102316 30.744457 
L 714.711652 31.270125 
L 715.320989 29.8758 
L 715.930326 29.626851 
L 716.539662 30.238299 
L 717.148999 29.71982 
L 717.758335 30.396723 
L 718.367672 29.559938 
L 718.977009 30.206284 
L 719.586345 30.022803 
L 720.195682 30.17094 
L 720.805018 30.956044 
L 721.414355 30.274659 
L 722.023692 28.906327 
L 722.633028 30.008828 
L 723.242365 29.65454 
L 723.851701 31.158475 
L 724.461038 29.548668 
L 725.070375 30.090348 
L 725.679711 29.581023 
L 726.289048 30.112322 
L 726.898385 29.626032 
L 727.507721 30.320694 
L 728.117058 30.081077 
L 729.335731 30.398115 
L 729.945068 29.881064 
L 730.554404 30.349017 
L 731.163741 30.371577 
L 731.773077 29.861892 
L 732.382414 30.307485 
L 732.991751 30.33188 
L 733.601087 30.912875 
L 734.210424 30.165283 
L 734.81976 30.440088 
L 735.429097 29.808055 
L 736.038434 30.047933 
L 736.64777 29.64725 
L 737.257107 29.847069 
L 737.866443 30.805406 
L 738.47578 30.421306 
L 739.085117 30.727637 
L 739.694453 30.135439 
L 740.30379 30.126379 
L 740.913127 30.315735 
L 741.522463 30.658355 
L 742.1318 29.722328 
L 742.741136 30.398964 
L 742.741136 30.398964 
" clip-path="url(#p9f55ce0206)" style="fill: none; stroke: #1f77b4; stroke-width: 1.5; stroke-linecap: square"/>
   </g>
   <g id="line2d_14">
    <path d="M 134.013864 200.460207 
L 134.6232 168.755223 
L 135.232537 150.315743 
L 135.841873 138.039741 
L 136.45121 128.145677 
L 138.27922 112.015759 
L 138.888557 108.546312 
L 139.497893 103.918819 
L 140.10723 101.177458 
L 140.716566 97.726361 
L 141.325903 97.569621 
L 141.93524 94.060593 
L 142.544576 94.06672 
L 143.153913 91.724798 
L 143.763249 90.765392 
L 144.372586 90.080045 
L 144.981923 87.437435 
L 145.591259 86.883915 
L 146.200596 85.885609 
L 146.809932 85.610553 
L 147.419269 84.002892 
L 148.028606 84.318678 
L 148.637942 83.428722 
L 149.247279 83.224824 
L 149.856615 81.374183 
L 150.465952 81.217648 
L 151.075289 81.960754 
L 151.684625 80.566856 
L 152.293962 80.922387 
L 152.903299 80.445898 
L 153.512635 79.434946 
L 154.121972 78.829694 
L 154.731308 78.62527 
L 155.340645 78.543141 
L 155.949982 77.964122 
L 156.559318 78.137223 
L 157.168655 75.812597 
L 157.777991 77.204364 
L 158.387328 75.813608 
L 158.996665 77.874312 
L 159.606001 75.168812 
L 160.215338 76.132211 
L 160.824674 75.822793 
L 161.434011 74.934007 
L 162.043348 74.35965 
L 162.652684 74.12417 
L 163.262021 75.430655 
L 163.871357 74.373787 
L 165.090031 73.541798 
L 166.308704 72.445825 
L 166.918041 72.62496 
L 167.527377 71.812591 
L 168.136714 73.0493 
L 168.74605 72.730103 
L 169.355387 72.210306 
L 169.964724 72.63869 
L 170.57406 72.604555 
L 171.183397 70.845167 
L 171.792733 71.523364 
L 172.40207 71.615134 
L 173.011407 71.216215 
L 173.620743 70.572656 
L 174.23008 70.957673 
L 174.839416 72.025086 
L 175.448753 69.796788 
L 176.05809 70.3432 
L 176.667426 68.414433 
L 177.276763 69.797989 
L 177.8861 69.702289 
L 178.495436 68.399116 
L 179.104773 69.613563 
L 180.323446 69.08804 
L 180.932783 69.051452 
L 181.542119 69.607068 
L 182.151456 68.66774 
L 183.370129 67.94471 
L 183.979466 67.692827 
L 184.588802 68.530751 
L 185.198139 67.605695 
L 185.807475 67.266967 
L 186.416812 68.573663 
L 187.026149 68.07772 
L 187.635485 67.108442 
L 188.244822 66.58428 
L 188.854158 67.422467 
L 189.463495 67.843738 
L 190.072832 67.027576 
L 190.682168 66.953214 
L 191.291505 66.471471 
L 191.900842 65.779488 
L 192.510178 67.26561 
L 193.728851 65.125248 
L 194.338188 65.873819 
L 194.947525 66.323443 
L 195.556861 67.002115 
L 196.166198 65.607955 
L 197.384871 66.055225 
L 197.994208 65.32853 
L 198.603544 65.299034 
L 199.822217 63.984358 
L 200.431554 65.431879 
L 201.040891 63.244426 
L 201.650227 65.302821 
L 202.259564 64.753057 
L 202.8689 64.749487 
L 203.478237 63.462157 
L 204.087574 64.172111 
L 204.69691 64.661294 
L 205.306247 63.692547 
L 205.915584 64.462379 
L 206.52492 63.306669 
L 207.743593 63.744987 
L 208.962267 63.398552 
L 209.571603 62.188717 
L 210.18094 62.524501 
L 210.790276 64.487328 
L 211.399613 63.195948 
L 212.00895 63.267832 
L 212.618286 62.420345 
L 213.227623 63.114284 
L 213.836959 63.034039 
L 215.055633 60.67376 
L 215.664969 61.83235 
L 216.274306 62.144765 
L 216.883643 61.217994 
L 217.492979 61.81582 
L 219.320989 61.355629 
L 219.930326 61.510525 
L 220.539662 61.428262 
L 221.148999 61.222963 
L 221.758335 60.260043 
L 222.367672 61.084032 
L 222.977009 61.024202 
L 223.586345 61.096085 
L 224.805018 60.271729 
L 225.414355 61.761023 
L 226.023692 61.033869 
L 226.633028 60.046647 
L 227.242365 59.54119 
L 227.851701 60.340598 
L 228.461038 60.322527 
L 229.070375 58.54831 
L 229.679711 60.047361 
L 230.289048 60.141211 
L 230.898385 59.880274 
L 231.507721 60.538926 
L 232.117058 59.821786 
L 233.335731 59.228933 
L 233.945068 60.311667 
L 234.554404 59.372768 
L 235.163741 59.44469 
L 235.773077 59.034964 
L 236.382414 59.278425 
L 236.991751 58.954603 
L 237.601087 58.795949 
L 238.210424 59.299386 
L 238.81976 58.427591 
L 239.429097 58.444631 
L 240.038434 58.024076 
L 240.64777 58.074254 
L 241.257107 58.902445 
L 241.866443 57.809499 
L 242.47578 58.768373 
L 243.085117 57.295163 
L 243.694453 57.298874 
L 244.30379 57.862839 
L 244.913127 57.574834 
L 245.522463 58.302643 
L 246.1318 58.632097 
L 246.741136 57.465251 
L 247.350473 58.746086 
L 247.95981 57.512562 
L 248.569146 57.998236 
L 249.178483 57.151882 
L 249.787819 56.778498 
L 250.397156 58.194132 
L 251.006493 56.984868 
L 251.615829 57.211213 
L 252.225166 57.602955 
L 252.834502 57.415691 
L 253.443839 57.549234 
L 254.053176 56.723886 
L 254.662512 57.142416 
L 255.271849 56.34574 
L 256.490522 55.736803 
L 257.099859 56.237654 
L 257.709195 56.96036 
L 258.318532 57.189844 
L 258.927869 56.05728 
L 260.146542 56.364126 
L 260.755878 55.43693 
L 261.365215 55.308319 
L 261.974552 56.076946 
L 263.193225 55.091181 
L 263.802561 55.286314 
L 264.411898 54.188211 
L 265.021235 55.836664 
L 265.630571 55.618365 
L 267.458581 55.678391 
L 268.067918 54.294038 
L 268.677254 55.271663 
L 269.286591 54.588729 
L 269.895928 55.912076 
L 270.505264 54.099033 
L 271.114601 54.373798 
L 271.723937 54.511489 
L 272.942611 55.134961 
L 273.551947 54.562959 
L 274.161284 54.968194 
L 274.77062 54.903929 
L 275.379957 55.812269 
L 276.59863 54.894945 
L 277.207967 53.174207 
L 277.817303 53.922145 
L 278.42664 53.758389 
L 279.035977 54.343542 
L 279.645313 54.523121 
L 280.863986 52.519805 
L 281.473323 53.449557 
L 282.08266 53.363359 
L 282.691996 53.463431 
L 283.301333 53.317644 
L 283.91067 53.405467 
L 284.520006 52.384319 
L 285.129343 53.483347 
L 285.738679 53.96917 
L 286.348016 54.285671 
L 286.957353 52.64553 
L 287.566689 52.685706 
L 288.176026 54.015251 
L 288.785362 52.087212 
L 290.004036 53.388239 
L 290.613372 51.745005 
L 291.222709 52.876446 
L 291.832045 52.098433 
L 292.441382 53.995001 
L 293.050719 51.757305 
L 293.660055 52.803456 
L 294.269392 51.691864 
L 294.878729 51.677334 
L 295.488065 51.087983 
L 296.097402 52.557529 
L 296.706738 52.050478 
L 297.316075 51.202726 
L 297.925412 51.127824 
L 298.534748 51.831278 
L 299.144085 51.764725 
L 299.753421 51.851656 
L 300.362758 52.858548 
L 300.972095 52.513213 
L 301.581431 51.474172 
L 302.190768 52.625296 
L 302.800104 51.537253 
L 303.409441 51.916872 
L 304.018778 51.598127 
L 304.628114 50.454835 
L 305.237451 51.736456 
L 305.846787 51.368679 
L 306.456124 51.620688 
L 307.065461 50.961809 
L 307.674797 52.961918 
L 308.284134 50.560156 
L 308.893471 51.277439 
L 309.502807 51.025386 
L 310.112144 50.149107 
L 310.72148 51.02641 
L 311.330817 51.024844 
L 311.940154 50.865254 
L 312.54949 49.403583 
L 313.158827 50.713625 
L 313.768163 50.369944 
L 314.3775 51.007356 
L 314.986837 50.610443 
L 315.596173 50.682172 
L 316.20551 50.206436 
L 316.814846 50.646194 
L 317.424183 50.244783 
L 318.03352 49.997504 
L 318.642856 50.300664 
L 319.252193 50.406846 
L 319.861529 50.079296 
L 320.470866 50.909127 
L 321.080203 49.520947 
L 321.689539 49.804203 
L 322.298876 48.953403 
L 322.908213 49.889826 
L 324.126886 49.304382 
L 325.345559 49.606583 
L 325.954896 49.271232 
L 327.173569 49.669627 
L 327.782905 49.011801 
L 329.001579 48.352874 
L 329.610915 49.754777 
L 330.220252 49.748453 
L 330.829588 50.068275 
L 331.438925 49.587755 
L 332.048262 47.720651 
L 332.657598 48.458726 
L 333.266935 50.087655 
L 333.876271 48.75472 
L 335.094945 49.064063 
L 335.704281 48.838285 
L 336.313618 49.617412 
L 336.922955 49.096877 
L 337.532291 48.739027 
L 338.141628 47.103463 
L 338.750964 48.551231 
L 339.360301 48.886213 
L 339.969638 48.076951 
L 340.578974 48.39169 
L 341.188311 48.39952 
L 341.797647 48.874911 
L 342.406984 49.67187 
L 343.016321 46.374319 
L 343.625657 48.402591 
L 344.234994 48.595305 
L 344.84433 47.814149 
L 345.453667 49.441397 
L 346.063004 47.265009 
L 346.67234 48.013501 
L 347.281677 47.238861 
L 347.891014 48.126236 
L 348.50035 47.240252 
L 349.109687 47.872782 
L 349.719023 48.197543 
L 350.32836 47.300884 
L 350.937697 47.913885 
L 351.547033 46.81827 
L 352.15637 46.033143 
L 352.765706 46.781652 
L 353.375043 48.318924 
L 353.98438 46.884735 
L 354.593716 46.9505 
L 355.203053 46.660828 
L 355.812389 45.609021 
L 356.421726 48.169301 
L 357.031063 47.842897 
L 357.640399 47.34146 
L 358.249736 47.188471 
L 358.859072 46.627422 
L 359.468409 47.439828 
L 360.077746 46.945504 
L 360.687082 47.534048 
L 361.296419 46.041077 
L 361.905756 47.498947 
L 362.515092 46.471359 
L 363.733765 46.381294 
L 364.343102 47.175681 
L 364.952439 45.18055 
L 366.171112 45.312865 
L 366.780448 46.753527 
L 367.389785 47.270214 
L 367.999122 47.139135 
L 368.608458 46.735265 
L 369.217795 47.034345 
L 369.827131 45.870845 
L 370.436468 45.451287 
L 371.045805 46.135487 
L 371.655141 45.828442 
L 372.264478 45.729344 
L 372.873814 45.150322 
L 373.483151 44.791851 
L 374.092488 45.576031 
L 374.701824 46.565256 
L 375.311161 45.85737 
L 376.529834 45.55907 
L 377.139171 46.70006 
L 377.748507 45.622894 
L 378.357844 45.825894 
L 378.967181 44.903764 
L 379.576517 46.559459 
L 380.185854 46.428448 
L 380.79519 44.982048 
L 381.404527 45.183539 
L 382.013864 45.029749 
L 382.6232 45.032951 
L 383.232537 44.848239 
L 383.841873 44.895808 
L 384.45121 44.421113 
L 385.060547 44.258409 
L 385.669883 46.356551 
L 386.27922 44.035676 
L 386.888557 45.525802 
L 387.497893 43.88383 
L 388.10723 45.871339 
L 388.716566 45.591632 
L 389.325903 44.771515 
L 391.153913 44.426186 
L 391.763249 44.821748 
L 392.372586 44.398687 
L 393.591259 44.319584 
L 394.200596 43.907802 
L 394.809932 42.845908 
L 395.419269 45.775214 
L 396.028606 45.575846 
L 396.637942 44.16944 
L 397.247279 43.952113 
L 397.856615 45.350605 
L 398.465952 44.0066 
L 399.075289 44.556289 
L 399.684625 43.578194 
L 400.293962 43.608169 
L 400.903299 44.419389 
L 401.512635 44.13695 
L 402.121972 43.622244 
L 403.340645 44.000292 
L 403.949982 43.139253 
L 404.559318 44.988403 
L 405.168655 43.921758 
L 405.777991 43.926593 
L 407.606001 43.698298 
L 408.215338 44.261907 
L 408.824674 43.059189 
L 409.434011 43.081343 
L 410.043348 43.481122 
L 410.652684 44.169221 
L 411.262021 44.100014 
L 411.871357 44.549453 
L 412.480694 43.638073 
L 413.090031 43.586957 
L 413.699367 43.140553 
L 414.918041 43.967658 
L 415.527377 43.284176 
L 416.136714 42.352921 
L 416.74605 43.377375 
L 417.355387 42.926672 
L 417.964724 42.331326 
L 418.57406 42.512579 
L 419.183397 41.967134 
L 419.792733 43.332008 
L 420.40207 43.151701 
L 421.011407 43.696048 
L 421.620743 41.896673 
L 422.23008 42.318206 
L 422.839416 43.853509 
L 423.448753 43.023569 
L 424.05809 44.041186 
L 425.276763 42.95426 
L 425.8861 42.938188 
L 426.495436 41.592317 
L 427.104773 42.725525 
L 427.714109 43.081892 
L 428.323446 43.253552 
L 428.932783 42.972724 
L 429.542119 42.06166 
L 430.151456 43.231661 
L 430.760792 42.793854 
L 431.370129 42.679844 
L 431.979466 43.163077 
L 432.588802 42.497438 
L 433.198139 43.195943 
L 433.807475 41.089928 
L 434.416812 42.26762 
L 435.026149 41.791417 
L 435.635485 42.888514 
L 436.244822 43.404429 
L 436.854158 42.904102 
L 437.463495 41.600773 
L 438.072832 41.366219 
L 439.291505 43.150925 
L 439.900842 41.84764 
L 441.119515 42.7504 
L 441.728851 41.742541 
L 442.338188 41.829287 
L 442.947525 42.114476 
L 443.556861 41.791219 
L 444.166198 42.370184 
L 444.775534 40.610991 
L 445.384871 41.806736 
L 445.994208 41.401488 
L 446.603544 41.534443 
L 447.212881 42.139119 
L 447.822217 41.283453 
L 448.431554 40.19867 
L 449.650227 41.535551 
L 450.259564 42.066633 
L 450.8689 40.302552 
L 451.478237 40.983023 
L 452.087574 42.213907 
L 452.69691 41.755297 
L 453.306247 42.173518 
L 453.915584 41.388105 
L 454.52492 42.339474 
L 455.134257 40.817616 
L 455.743593 40.686796 
L 456.35293 41.665383 
L 456.962267 40.59639 
L 457.571603 41.998434 
L 458.18094 39.763798 
L 458.790276 42.048949 
L 459.399613 40.68997 
L 460.00895 42.040927 
L 460.618286 42.193672 
L 461.227623 40.950704 
L 461.836959 40.208776 
L 462.446296 41.0647 
L 463.664969 42.10157 
L 464.274306 41.105727 
L 464.883643 40.333174 
L 465.492979 40.53969 
L 466.102316 40.620194 
L 466.711652 41.068209 
L 467.320989 41.833127 
L 467.930326 39.440331 
L 468.539662 42.353911 
L 469.148999 40.112615 
L 469.758335 41.750949 
L 470.367672 40.964406 
L 470.977009 41.303709 
L 471.586345 40.45702 
L 472.195682 39.84118 
L 472.805018 40.906884 
L 473.414355 40.852208 
L 474.023692 41.218756 
L 474.633028 40.783782 
L 475.242365 38.355084 
L 475.851701 39.790745 
L 476.461038 40.684854 
L 477.070375 40.031422 
L 478.289048 40.318419 
L 478.898385 39.419408 
L 479.507721 39.731194 
L 480.117058 40.73413 
L 480.726394 40.42552 
L 481.335731 39.440134 
L 481.945068 40.898846 
L 482.554404 40.489118 
L 483.163741 39.151318 
L 483.773077 38.312016 
L 484.382414 40.617947 
L 484.991751 40.622543 
L 486.210424 39.450448 
L 486.81976 40.075235 
L 488.038434 39.087484 
L 488.64777 39.24086 
L 489.257107 39.689333 
L 489.866443 39.825536 
L 490.47578 39.445807 
L 491.694453 39.809161 
L 492.30379 39.755365 
L 492.913127 39.040707 
L 493.522463 39.289351 
L 494.1318 39.078874 
L 494.741136 38.609102 
L 495.350473 39.154111 
L 495.95981 38.813175 
L 496.569146 39.618524 
L 497.178483 39.255412 
L 497.787819 39.777758 
L 498.397156 39.428386 
L 499.006493 40.241462 
L 499.615829 38.746897 
L 500.225166 39.036657 
L 500.834502 39.712246 
L 501.443839 39.002947 
L 502.053176 39.518677 
L 502.662512 40.424401 
L 503.271849 39.022466 
L 504.490522 39.881617 
L 505.099859 38.9628 
L 505.709195 39.360539 
L 506.318532 39.047991 
L 506.927869 39.160333 
L 507.537205 40.185186 
L 508.146542 39.083014 
L 508.755878 38.85265 
L 509.365215 39.003547 
L 509.974552 40.543272 
L 510.583888 38.573003 
L 511.193225 37.27493 
L 511.802561 39.30917 
L 512.411898 38.611779 
L 513.021235 40.040549 
L 513.630571 39.034497 
L 514.239908 38.255861 
L 514.849244 38.496409 
L 515.458581 38.401325 
L 516.067918 40.193249 
L 516.677254 38.960447 
L 517.286591 38.846114 
L 517.895928 39.594167 
L 518.505264 38.970495 
L 519.114601 38.895133 
L 519.723937 38.58752 
L 520.333274 38.929106 
L 520.942611 38.571974 
L 521.551947 39.605031 
L 522.161284 38.764272 
L 522.77062 38.712352 
L 523.379957 38.395236 
L 523.989294 39.904531 
L 524.59863 38.521315 
L 525.207967 38.056722 
L 526.42664 37.8801 
L 527.035977 40.397216 
L 527.645313 38.59642 
L 528.25465 38.470635 
L 528.863986 39.316726 
L 529.473323 37.965573 
L 530.08266 37.648229 
L 530.691996 39.847212 
L 531.301333 38.739293 
L 532.520006 38.290807 
L 533.129343 38.524787 
L 533.738679 39.723733 
L 534.348016 39.201966 
L 535.566689 37.815405 
L 536.176026 37.444159 
L 536.785362 38.81036 
L 537.394699 38.558035 
L 538.004036 39.224325 
L 538.613372 39.458691 
L 539.222709 38.994821 
L 539.832045 37.358934 
L 540.441382 39.039823 
L 541.050719 37.997083 
L 541.660055 38.865175 
L 542.269392 38.778075 
L 542.878729 39.030013 
L 543.488065 38.718655 
L 544.097402 38.000391 
L 544.706738 37.925744 
L 545.316075 38.475442 
L 545.925412 37.600227 
L 546.534748 38.273889 
L 547.144085 36.613704 
L 547.753421 37.969782 
L 548.362758 38.941837 
L 548.972095 38.347843 
L 549.581431 37.229669 
L 550.190768 36.666414 
L 550.800104 38.466607 
L 551.409441 37.786919 
L 552.018778 38.505414 
L 552.628114 39.045092 
L 553.237451 37.331386 
L 553.846787 37.175958 
L 554.456124 38.530941 
L 555.065461 37.513375 
L 555.674797 39.181887 
L 556.284134 36.853382 
L 556.893471 37.713741 
L 557.502807 36.71974 
L 558.112144 38.084524 
L 558.72148 37.4477 
L 559.330817 38.64653 
L 559.940154 37.839525 
L 560.54949 37.272219 
L 561.158827 37.549273 
L 561.768163 38.15177 
L 562.3775 37.381242 
L 562.986837 38.458499 
L 563.596173 38.184874 
L 564.20551 38.145725 
L 564.814846 38.404313 
L 565.424183 38.427146 
L 566.03352 38.834726 
L 566.642856 39.079176 
L 567.252193 37.264848 
L 567.861529 36.277267 
L 568.470866 38.005867 
L 569.080203 37.160928 
L 569.689539 38.180885 
L 570.298876 38.371229 
L 570.908213 37.264956 
L 571.517549 36.811859 
L 572.126886 38.351414 
L 572.736222 38.153035 
L 573.345559 37.427802 
L 573.954896 36.503795 
L 574.564232 38.664716 
L 575.173569 38.236069 
L 575.782905 37.018405 
L 576.392242 37.125501 
L 577.001579 36.729069 
L 577.610915 37.327093 
L 578.220252 36.539689 
L 578.829588 36.522234 
L 579.438925 37.208862 
L 580.048262 37.722198 
L 581.266935 38.342878 
L 581.876271 36.426041 
L 582.485608 37.259422 
L 583.094945 36.158538 
L 583.704281 36.840741 
L 584.313618 36.558441 
L 584.922955 37.525166 
L 585.532291 37.035065 
L 586.141628 37.311256 
L 586.750964 36.175784 
L 587.360301 36.810294 
L 587.969638 36.763199 
L 588.578974 36.406194 
L 589.797647 37.199049 
L 590.406984 37.212416 
L 591.016321 36.730517 
L 591.625657 37.785786 
L 592.234994 37.620777 
L 592.84433 37.7076 
L 593.453667 36.466832 
L 594.063004 37.427427 
L 594.67234 36.933471 
L 595.281677 36.908912 
L 595.891014 36.742176 
L 596.50035 36.436951 
L 597.109687 36.468274 
L 597.719023 37.326493 
L 598.937697 36.668096 
L 599.547033 37.049189 
L 600.15637 36.160563 
L 600.765706 36.361816 
L 601.375043 35.307708 
L 601.98438 36.260488 
L 602.593716 36.48929 
L 603.203053 37.051993 
L 603.812389 37.090783 
L 604.421726 36.438475 
L 605.031063 37.312666 
L 605.640399 37.293308 
L 606.249736 36.962453 
L 606.859072 36.990482 
L 607.468409 37.692715 
L 608.077746 37.11552 
L 608.687082 36.191065 
L 609.296419 37.378259 
L 609.905756 37.175829 
L 610.515092 37.188882 
L 611.124429 36.087019 
L 611.733765 36.977254 
L 612.343102 36.833125 
L 612.952439 37.124387 
L 613.561775 37.584194 
L 614.171112 36.206613 
L 614.780448 36.080338 
L 615.389785 35.734688 
L 615.999122 36.981634 
L 616.608458 35.299548 
L 617.217795 36.224282 
L 617.827131 35.42075 
L 618.436468 36.514961 
L 619.045805 36.296699 
L 619.655141 35.805182 
L 620.264478 36.561419 
L 620.873814 37.075901 
L 621.483151 37.046667 
L 622.092488 36.770078 
L 622.701824 36.289244 
L 623.311161 36.541833 
L 623.920498 35.885503 
L 624.529834 37.145474 
L 625.139171 35.595664 
L 625.748507 36.289 
L 626.357844 37.343223 
L 626.967181 36.693644 
L 628.185854 36.598055 
L 628.79519 36.426786 
L 629.404527 36.509091 
L 630.013864 36.038174 
L 631.232537 36.726859 
L 631.841873 35.611756 
L 633.060547 36.612715 
L 633.669883 36.649701 
L 634.27922 35.111205 
L 634.888557 36.042586 
L 636.10723 37.001475 
L 636.716566 36.558577 
L 637.325903 35.588309 
L 637.93524 36.721719 
L 638.544576 36.081048 
L 639.153913 36.376406 
L 639.763249 35.458957 
L 640.372586 35.900423 
L 640.981923 35.53518 
L 641.591259 36.402432 
L 642.200596 36.126258 
L 642.809932 36.329632 
L 643.419269 35.223602 
L 644.028606 35.333206 
L 644.637942 36.596739 
L 645.247279 37.00524 
L 646.465952 36.015089 
L 647.075289 35.790063 
L 647.684625 35.334163 
L 648.293962 36.780203 
L 648.903299 35.031141 
L 649.512635 35.526806 
L 650.121972 35.589791 
L 650.731308 36.17269 
L 651.340645 35.701928 
L 651.949982 37.044334 
L 652.559318 35.729726 
L 653.168655 36.975233 
L 653.777991 36.515128 
L 654.387328 36.476856 
L 654.996665 34.615697 
L 655.606001 34.935742 
L 656.215338 36.676872 
L 656.824674 36.326848 
L 657.434011 36.264841 
L 658.043348 35.546066 
L 658.652684 35.224944 
L 659.262021 35.121345 
L 659.871357 36.08136 
L 660.480694 35.668201 
L 661.090031 35.481705 
L 661.699367 35.955402 
L 662.308704 35.611672 
L 662.918041 35.547614 
L 663.527377 36.25685 
L 664.136714 35.248189 
L 664.74605 35.678344 
L 665.355387 34.99947 
L 666.57406 35.970799 
L 667.183397 36.460758 
L 667.792733 34.694891 
L 668.40207 36.312093 
L 669.011407 35.743545 
L 669.620743 35.367334 
L 670.23008 34.851777 
L 670.839416 36.508832 
L 671.448753 35.475277 
L 672.05809 36.395682 
L 672.667426 34.945354 
L 673.276763 35.319514 
L 673.8861 35.000835 
L 674.495436 36.135021 
L 675.104773 35.691318 
L 675.714109 36.462607 
L 676.323446 36.096808 
L 676.932783 34.645226 
L 677.542119 35.867322 
L 678.151456 35.834864 
L 678.760792 36.186325 
L 679.370129 35.542506 
L 679.979466 35.375882 
L 680.588802 36.488473 
L 681.198139 36.803794 
L 681.807475 35.663027 
L 682.416812 36.173466 
L 683.026149 35.250643 
L 683.635485 34.790223 
L 684.244822 35.688032 
L 684.854158 35.765649 
L 685.463495 34.243323 
L 687.291505 35.519981 
L 687.900842 35.095354 
L 688.510178 35.024614 
L 689.119515 35.227219 
L 689.728851 35.790845 
L 690.338188 33.921562 
L 690.947525 35.726179 
L 691.556861 35.356123 
L 692.166198 34.492684 
L 692.775534 35.834978 
L 693.384871 36.256132 
L 693.994208 35.598828 
L 694.603544 34.07435 
L 695.212881 35.290267 
L 695.822217 34.969602 
L 696.431554 35.14749 
L 697.040891 35.675294 
L 697.650227 36.005132 
L 698.259564 34.90465 
L 698.8689 34.773774 
L 699.478237 35.871189 
L 700.087574 35.511292 
L 700.69691 36.16951 
L 701.306247 36.069451 
L 701.915584 35.59446 
L 702.52492 34.266631 
L 703.134257 35.258493 
L 703.743593 35.668932 
L 704.35293 35.251373 
L 704.962267 35.137252 
L 705.571603 34.218036 
L 706.18094 35.565281 
L 707.399613 33.547895 
L 708.00895 34.748342 
L 708.618286 34.428473 
L 709.227623 34.66069 
L 709.836959 35.443435 
L 710.446296 33.467544 
L 711.055633 35.276814 
L 711.664969 36.065305 
L 712.274306 34.861932 
L 712.883643 34.500505 
L 713.492979 34.599231 
L 714.102316 34.546909 
L 714.711652 35.354183 
L 716.539662 35.412907 
L 717.148999 34.20467 
L 717.758335 34.803827 
L 718.367672 34.747912 
L 718.977009 35.98981 
L 719.586345 35.525129 
L 720.195682 36.42515 
L 720.805018 34.897458 
L 721.414355 35.662968 
L 722.023692 36.068127 
L 722.633028 35.613633 
L 723.242365 35.414472 
L 723.851701 34.532172 
L 724.461038 34.524087 
L 725.070375 35.152697 
L 725.679711 34.142741 
L 726.289048 35.837498 
L 726.898385 34.480545 
L 727.507721 34.633827 
L 728.117058 35.37565 
L 728.726394 34.760773 
L 729.335731 33.900305 
L 729.945068 34.704269 
L 730.554404 35.785667 
L 731.163741 34.97649 
L 731.773077 35.038848 
L 732.382414 34.829491 
L 732.991751 34.764947 
L 733.601087 34.952343 
L 734.210424 34.822749 
L 734.81976 34.022098 
L 735.429097 35.104225 
L 736.038434 35.204449 
L 736.64777 34.926305 
L 737.257107 35.201768 
L 738.47578 34.11554 
L 739.085117 35.622779 
L 739.694453 34.422524 
L 740.30379 35.976691 
L 741.522463 34.153507 
L 742.1318 34.039777 
L 742.741136 34.042413 
L 742.741136 34.042413 
" clip-path="url(#p9f55ce0206)" style="fill: none; stroke: #ff7f0e; stroke-width: 1.5; stroke-linecap: square"/>
   </g>
   <g id="patch_3">
    <path d="M 103.5775 346.426327 
L 103.5775 13.786327 
" style="fill: none; stroke: #000000; stroke-width: 0.8; stroke-linejoin: miter; stroke-linecap: square"/>
   </g>
   <g id="patch_4">
    <path d="M 773.1775 346.426327 
L 773.1775 13.786327 
" style="fill: none; stroke: #000000; stroke-width: 0.8; stroke-linejoin: miter; stroke-linecap: square"/>
   </g>
   <g id="patch_5">
    <path d="M 103.5775 346.426327 
L 773.1775 346.426327 
" style="fill: none; stroke: #000000; stroke-width: 0.8; stroke-linejoin: miter; stroke-linecap: square"/>
   </g>
   <g id="patch_6">
    <path d="M 103.5775 13.786327 
L 773.1775 13.786327 
" style="fill: none; stroke: #000000; stroke-width: 0.8; stroke-linejoin: miter; stroke-linecap: square"/>
   </g>
   <g id="legend_1">
    <g id="patch_7">
     <path d="M 441.1575 333.426327 
L 754.9775 333.426327 
Q 760.1775 333.426327 760.1775 328.226327 
L 760.1775 254.443202 
Q 760.1775 249.243202 754.9775 249.243202 
L 441.1575 249.243202 
Q 435.9575 249.243202 435.9575 254.443202 
L 435.9575 328.226327 
Q 435.9575 333.426327 441.1575 333.426327 
z
" style="fill: #ffffff; opacity: 0.8; stroke: #cccccc; stroke-linejoin: miter"/>
    </g>
    <g id="line2d_15">
     <path d="M 446.3575 270.299139 
L 472.3575 270.299139 
L 498.3575 270.299139 
" style="fill: none; stroke: #1f77b4; stroke-width: 1.5; stroke-linecap: square"/>
    </g>
    <g id="text_15">
     <!-- UCB ($c=2$) -->
     <g transform="translate(519.1575 279.399139) scale(0.26 -0.26)">
      <defs>
       <path id="DejaVuSans-55" d="M 556 4666 
L 1191 4666 
L 1191 1831 
Q 1191 1081 1462 751 
Q 1734 422 2344 422 
Q 2950 422 3222 751 
Q 3494 1081 3494 1831 
L 3494 4666 
L 4128 4666 
L 4128 1753 
Q 4128 841 3676 375 
Q 3225 -91 2344 -91 
Q 1459 -91 1007 375 
Q 556 841 556 1753 
L 556 4666 
z
" transform="scale(0.015625)"/>
       <path id="DejaVuSans-43" d="M 4122 4306 
L 4122 3641 
Q 3803 3938 3442 4084 
Q 3081 4231 2675 4231 
Q 1875 4231 1450 3742 
Q 1025 3253 1025 2328 
Q 1025 1406 1450 917 
Q 1875 428 2675 428 
Q 3081 428 3442 575 
Q 3803 722 4122 1019 
L 4122 359 
Q 3791 134 3420 21 
Q 3050 -91 2638 -91 
Q 1578 -91 968 557 
Q 359 1206 359 2328 
Q 359 3453 968 4101 
Q 1578 4750 2638 4750 
Q 3056 4750 3426 4639 
Q 3797 4528 4122 4306 
z
" transform="scale(0.015625)"/>
       <path id="DejaVuSans-42" d="M 1259 2228 
L 1259 519 
L 2272 519 
Q 2781 519 3026 730 
Q 3272 941 3272 1375 
Q 3272 1813 3026 2020 
Q 2781 2228 2272 2228 
L 1259 2228 
z
M 1259 4147 
L 1259 2741 
L 2194 2741 
Q 2656 2741 2882 2914 
Q 3109 3088 3109 3444 
Q 3109 3797 2882 3972 
Q 2656 4147 2194 4147 
L 1259 4147 
z
M 628 4666 
L 2241 4666 
Q 2963 4666 3353 4366 
Q 3744 4066 3744 3513 
Q 3744 3084 3544 2831 
Q 3344 2578 2956 2516 
Q 3422 2416 3680 2098 
Q 3938 1781 3938 1306 
Q 3938 681 3513 340 
Q 3088 0 2303 0 
L 628 0 
L 628 4666 
z
" transform="scale(0.015625)"/>
       <path id="DejaVuSans-28" d="M 1984 4856 
Q 1566 4138 1362 3434 
Q 1159 2731 1159 2009 
Q 1159 1288 1364 580 
Q 1569 -128 1984 -844 
L 1484 -844 
Q 1016 -109 783 600 
Q 550 1309 550 2009 
Q 550 2706 781 3412 
Q 1013 4119 1484 4856 
L 1984 4856 
z
" transform="scale(0.015625)"/>
       <path id="DejaVuSans-Oblique-63" d="M 3431 3366 
L 3316 2797 
Q 3109 2947 2876 3022 
Q 2644 3097 2394 3097 
Q 2119 3097 1870 3000 
Q 1622 2903 1453 2725 
Q 1184 2453 1037 2087 
Q 891 1722 891 1331 
Q 891 859 1127 628 
Q 1363 397 1844 397 
Q 2081 397 2348 469 
Q 2616 541 2906 684 
L 2797 116 
Q 2547 13 2283 -39 
Q 2019 -91 1741 -91 
Q 1044 -91 669 257 
Q 294 606 294 1253 
Q 294 1797 489 2255 
Q 684 2713 1069 3078 
Q 1331 3328 1684 3456 
Q 2038 3584 2456 3584 
Q 2700 3584 2940 3529 
Q 3181 3475 3431 3366 
z
" transform="scale(0.015625)"/>
       <path id="DejaVuSans-3d" d="M 678 2906 
L 4684 2906 
L 4684 2381 
L 678 2381 
L 678 2906 
z
M 678 1631 
L 4684 1631 
L 4684 1100 
L 678 1100 
L 678 1631 
z
" transform="scale(0.015625)"/>
       <path id="DejaVuSans-29" d="M 513 4856 
L 1013 4856 
Q 1481 4119 1714 3412 
Q 1947 2706 1947 2009 
Q 1947 1309 1714 600 
Q 1481 -109 1013 -844 
L 513 -844 
Q 928 -128 1133 580 
Q 1338 1288 1338 2009 
Q 1338 2731 1133 3434 
Q 928 4138 513 4856 
z
" transform="scale(0.015625)"/>
      </defs>
      <use xlink:href="#DejaVuSans-55" transform="translate(0 0.125)"/>
      <use xlink:href="#DejaVuSans-43" transform="translate(73.193359 0.125)"/>
      <use xlink:href="#DejaVuSans-42" transform="translate(143.017578 0.125)"/>
      <use xlink:href="#DejaVuSans-20" transform="translate(211.621094 0.125)"/>
      <use xlink:href="#DejaVuSans-28" transform="translate(243.408203 0.125)"/>
      <use xlink:href="#DejaVuSans-Oblique-63" transform="translate(282.421875 0.125)"/>
      <use xlink:href="#DejaVuSans-3d" transform="translate(356.884766 0.125)"/>
      <use xlink:href="#DejaVuSans-32" transform="translate(460.15625 0.125)"/>
      <use xlink:href="#DejaVuSans-29" transform="translate(523.779297 0.125)"/>
     </g>
    </g>
    <g id="line2d_16">
     <path d="M 446.3575 308.466327 
L 472.3575 308.466327 
L 498.3575 308.466327 
" style="fill: none; stroke: #ff7f0e; stroke-width: 1.5; stroke-linecap: square"/>
    </g>
    <g id="text_16">
     <!-- $\epsilon$-greedy ($\epsilon=0.1$) -->
     <g transform="translate(519.1575 317.566327) scale(0.26 -0.26)">
      <defs>
       <path id="DejaVuSans-Oblique-3b5" d="M 1263 1888 
Q 925 1963 778 2166 
Q 669 2309 669 2503 
Q 669 3034 1175 3344 
Q 1575 3588 2188 3588 
Q 2425 3588 2684 3550 
Q 2944 3513 3234 3438 
L 3134 2916 
Q 2847 3006 2606 3047 
Q 2359 3088 2138 3088 
Q 1766 3088 1522 2944 
Q 1228 2772 1228 2522 
Q 1228 2356 1381 2241 
Q 1563 2103 1925 2103 
L 2409 2103 
L 2319 1628 
L 1856 1628 
Q 1425 1628 1172 1469 
Q 828 1253 828 916 
Q 828 703 1013 563 
Q 1244 388 1716 388 
Q 2006 388 2284 444 
Q 2563 503 2806 619 
L 2700 84 
Q 2403 -3 2131 -47 
Q 1859 -91 1609 -91 
Q 866 -91 516 194 
Q 250 413 250 781 
Q 250 1278 600 1584 
Q 859 1813 1263 1888 
z
" transform="scale(0.015625)"/>
       <path id="DejaVuSans-2d" d="M 313 2009 
L 1997 2009 
L 1997 1497 
L 313 1497 
L 313 2009 
z
" transform="scale(0.015625)"/>
       <path id="DejaVuSans-79" d="M 2059 -325 
Q 1816 -950 1584 -1140 
Q 1353 -1331 966 -1331 
L 506 -1331 
L 506 -850 
L 844 -850 
Q 1081 -850 1212 -737 
Q 1344 -625 1503 -206 
L 1606 56 
L 191 3500 
L 800 3500 
L 1894 763 
L 2988 3500 
L 3597 3500 
L 2059 -325 
z
" transform="scale(0.015625)"/>
      </defs>
      <use xlink:href="#DejaVuSans-Oblique-3b5" transform="translate(0 0.015625)"/>
      <use xlink:href="#DejaVuSans-2d" transform="translate(54.052734 0.015625)"/>
      <use xlink:href="#DejaVuSans-67" transform="translate(90.136719 0.015625)"/>
      <use xlink:href="#DejaVuSans-72" transform="translate(153.613281 0.015625)"/>
      <use xlink:href="#DejaVuSans-65" transform="translate(194.726562 0.015625)"/>
      <use xlink:href="#DejaVuSans-65" transform="translate(256.25 0.015625)"/>
      <use xlink:href="#DejaVuSans-64" transform="translate(317.773438 0.015625)"/>
      <use xlink:href="#DejaVuSans-79" transform="translate(381.25 0.015625)"/>
      <use xlink:href="#DejaVuSans-20" transform="translate(440.429688 0.015625)"/>
      <use xlink:href="#DejaVuSans-28" transform="translate(472.216797 0.015625)"/>
      <use xlink:href="#DejaVuSans-Oblique-3b5" transform="translate(511.230469 0.015625)"/>
      <use xlink:href="#DejaVuSans-3d" transform="translate(584.765625 0.015625)"/>
      <use xlink:href="#DejaVuSans-30" transform="translate(688.037109 0.015625)"/>
      <use xlink:href="#DejaVuSans-2e" transform="translate(751.660156 0.015625)"/>
      <use xlink:href="#DejaVuSans-31" transform="translate(783.447266 0.015625)"/>
      <use xlink:href="#DejaVuSans-29" transform="translate(847.070312 0.015625)"/>
     </g>
    </g>
   </g>
  </g>
 </g>
 <defs>
  <clipPath id="p9f55ce0206">
   <rect x="103.5775" y="13.786327" width="669.6" height="332.64"/>
  </clipPath>
 </defs>
</svg>
