<?xml version="1.0" encoding="utf-8" standalone="no"?>
<!DOCTYPE svg PUBLIC "-//W3C//DTD SVG 1.1//EN"
  "http://www.w3.org/Graphics/SVG/1.1/DTD/svg11.dtd">
<svg xmlns:xlink="http://www.w3.org/1999/xlink" width="753.351723pt" height="408.36625pt" viewBox="0 0 753.351723 408.36625" xmlns="http://www.w3.org/2000/svg" version="1.1">
 <metadata>
  <rdf:RDF xmlns:dc="http://purl.org/dc/elements/1.1/" xmlns:cc="http://creativecommons.org/ns#" xmlns:rdf="http://www.w3.org/1999/02/22-rdf-syntax-ns#">
   <cc:Work>
    <dc:type rdf:resource="http://purl.org/dc/dcmitype/StillImage"/>
    <dc:date>2026-03-07T23:58:16.924094</dc:date>
    <dc:format>image/svg+xml</dc:format>
    <dc:creator>
     <cc:Agent>
      <dc:title>Matplotlib v3.10.3, https://matplotlib.org/</dc:title>
     </cc:Agent>
    </dc:creator>
   </cc:Work>
  </rdf:RDF>
 </metadata>
 <defs>
  <style type="text/css">*{stroke-linejoin: round; stroke-linecap: butt}</style>
 </defs>
 <g id="figure_1">
  <g id="patch_1">
   <path d="M 0 408.36625 
L 753.351723 408.36625 
L 753.351723 0 
L 0 0 
z
" style="fill: #ffffff"/>
  </g>
  <g id="axes_1">
   <g id="patch_2">
    <path d="M 75.83875 339.84 
L 745.43875 339.84 
L 745.43875 7.2 
L 75.83875 7.2 
z
" style="fill: #ffffff"/>
   </g>
   <g id="matplotlib.axis_1">
    <g id="xtick_1">
     <g id="line2d_1">
      <defs>
       <path id="m359da64b91" d="M 0 0 
L 0 3.5 
" style="stroke: #000000; stroke-width: 0.8"/>
      </defs>
      <g>
       <use xlink:href="#m359da64b91" x="106.275114" y="339.84" style="stroke: #000000; stroke-width: 0.8"/>
      </g>
     </g>
     <g id="text_1">
      <!-- 0 -->
      <g transform="translate(98.640114 365.07625) scale(0.24 -0.24)">
       <defs>
        <path id="DejaVuSans-30" d="M 2034 4250 
Q 1547 4250 1301 3770 
Q 1056 3291 1056 2328 
Q 1056 1369 1301 889 
Q 1547 409 2034 409 
Q 2525 409 2770 889 
Q 3016 1369 3016 2328 
Q 3016 3291 2770 3770 
Q 2525 4250 2034 4250 
z
M 2034 4750 
Q 2819 4750 3233 4129 
Q 3647 3509 3647 2328 
Q 3647 1150 3233 529 
Q 2819 -91 2034 -91 
Q 1250 -91 836 529 
Q 422 1150 422 2328 
Q 422 3509 836 4129 
Q 1250 4750 2034 4750 
z
" transform="scale(0.015625)"/>
       </defs>
       <use xlink:href="#DejaVuSans-30"/>
      </g>
     </g>
    </g>
    <g id="xtick_2">
     <g id="line2d_2">
      <g>
       <use xlink:href="#m359da64b91" x="228.142436" y="339.84" style="stroke: #000000; stroke-width: 0.8"/>
      </g>
     </g>
     <g id="text_2">
      <!-- 200 -->
      <g transform="translate(205.237436 365.07625) scale(0.24 -0.24)">
       <defs>
        <path id="DejaVuSans-32" d="M 1228 531 
L 3431 531 
L 3431 0 
L 469 0 
L 469 531 
Q 828 903 1448 1529 
Q 2069 2156 2228 2338 
Q 2531 2678 2651 2914 
Q 2772 3150 2772 3378 
Q 2772 3750 2511 3984 
Q 2250 4219 1831 4219 
Q 1534 4219 1204 4116 
Q 875 4013 500 3803 
L 500 4441 
Q 881 4594 1212 4672 
Q 1544 4750 1819 4750 
Q 2544 4750 2975 4387 
Q 3406 4025 3406 3419 
Q 3406 3131 3298 2873 
Q 3191 2616 2906 2266 
Q 2828 2175 2409 1742 
Q 1991 1309 1228 531 
z
" transform="scale(0.015625)"/>
       </defs>
       <use xlink:href="#DejaVuSans-32"/>
       <use xlink:href="#DejaVuSans-30" transform="translate(63.623047 0)"/>
       <use xlink:href="#DejaVuSans-30" transform="translate(127.246094 0)"/>
      </g>
     </g>
    </g>
    <g id="xtick_3">
     <g id="line2d_3">
      <g>
       <use xlink:href="#m359da64b91" x="350.009757" y="339.84" style="stroke: #000000; stroke-width: 0.8"/>
      </g>
     </g>
     <g id="text_3">
      <!-- 400 -->
      <g transform="translate(327.104757 365.07625) scale(0.24 -0.24)">
       <defs>
        <path id="DejaVuSans-34" d="M 2419 4116 
L 825 1625 
L 2419 1625 
L 2419 4116 
z
M 2253 4666 
L 3047 4666 
L 3047 1625 
L 3713 1625 
L 3713 1100 
L 3047 1100 
L 3047 0 
L 2419 0 
L 2419 1100 
L 313 1100 
L 313 1709 
L 2253 4666 
z
" transform="scale(0.015625)"/>
       </defs>
       <use xlink:href="#DejaVuSans-34"/>
       <use xlink:href="#DejaVuSans-30" transform="translate(63.623047 0)"/>
       <use xlink:href="#DejaVuSans-30" transform="translate(127.246094 0)"/>
      </g>
     </g>
    </g>
    <g id="xtick_4">
     <g id="line2d_4">
      <g>
       <use xlink:href="#m359da64b91" x="471.877079" y="339.84" style="stroke: #000000; stroke-width: 0.8"/>
      </g>
     </g>
     <g id="text_4">
      <!-- 600 -->
      <g transform="translate(448.972079 365.07625) scale(0.24 -0.24)">
       <defs>
        <path id="DejaVuSans-36" d="M 2113 2584 
Q 1688 2584 1439 2293 
Q 1191 2003 1191 1497 
Q 1191 994 1439 701 
Q 1688 409 2113 409 
Q 2538 409 2786 701 
Q 3034 994 3034 1497 
Q 3034 2003 2786 2293 
Q 2538 2584 2113 2584 
z
M 3366 4563 
L 3366 3988 
Q 3128 4100 2886 4159 
Q 2644 4219 2406 4219 
Q 1781 4219 1451 3797 
Q 1122 3375 1075 2522 
Q 1259 2794 1537 2939 
Q 1816 3084 2150 3084 
Q 2853 3084 3261 2657 
Q 3669 2231 3669 1497 
Q 3669 778 3244 343 
Q 2819 -91 2113 -91 
Q 1303 -91 875 529 
Q 447 1150 447 2328 
Q 447 3434 972 4092 
Q 1497 4750 2381 4750 
Q 2619 4750 2861 4703 
Q 3103 4656 3366 4563 
z
" transform="scale(0.015625)"/>
       </defs>
       <use xlink:href="#DejaVuSans-36"/>
       <use xlink:href="#DejaVuSans-30" transform="translate(63.623047 0)"/>
       <use xlink:href="#DejaVuSans-30" transform="translate(127.246094 0)"/>
      </g>
     </g>
    </g>
    <g id="xtick_5">
     <g id="line2d_5">
      <g>
       <use xlink:href="#m359da64b91" x="593.744401" y="339.84" style="stroke: #000000; stroke-width: 0.8"/>
      </g>
     </g>
     <g id="text_5">
      <!-- 800 -->
      <g transform="translate(570.839401 365.07625) scale(0.24 -0.24)">
       <defs>
        <path id="DejaVuSans-38" d="M 2034 2216 
Q 1584 2216 1326 1975 
Q 1069 1734 1069 1313 
Q 1069 891 1326 650 
Q 1584 409 2034 409 
Q 2484 409 2743 651 
Q 3003 894 3003 1313 
Q 3003 1734 2745 1975 
Q 2488 2216 2034 2216 
z
M 1403 2484 
Q 997 2584 770 2862 
Q 544 3141 544 3541 
Q 544 4100 942 4425 
Q 1341 4750 2034 4750 
Q 2731 4750 3128 4425 
Q 3525 4100 3525 3541 
Q 3525 3141 3298 2862 
Q 3072 2584 2669 2484 
Q 3125 2378 3379 2068 
Q 3634 1759 3634 1313 
Q 3634 634 3220 271 
Q 2806 -91 2034 -91 
Q 1263 -91 848 271 
Q 434 634 434 1313 
Q 434 1759 690 2068 
Q 947 2378 1403 2484 
z
M 1172 3481 
Q 1172 3119 1398 2916 
Q 1625 2713 2034 2713 
Q 2441 2713 2670 2916 
Q 2900 3119 2900 3481 
Q 2900 3844 2670 4047 
Q 2441 4250 2034 4250 
Q 1625 4250 1398 4047 
Q 1172 3844 1172 3481 
z
" transform="scale(0.015625)"/>
       </defs>
       <use xlink:href="#DejaVuSans-38"/>
       <use xlink:href="#DejaVuSans-30" transform="translate(63.623047 0)"/>
       <use xlink:href="#DejaVuSans-30" transform="translate(127.246094 0)"/>
      </g>
     </g>
    </g>
    <g id="xtick_6">
     <g id="line2d_6">
      <g>
       <use xlink:href="#m359da64b91" x="715.611723" y="339.84" style="stroke: #000000; stroke-width: 0.8"/>
      </g>
     </g>
     <g id="text_6">
      <!-- 1000 -->
      <g transform="translate(685.071723 365.07625) scale(0.24 -0.24)">
       <defs>
        <path id="DejaVuSans-31" d="M 794 531 
L 1825 531 
L 1825 4091 
L 703 3866 
L 703 4441 
L 1819 4666 
L 2450 4666 
L 2450 531 
L 3481 531 
L 3481 0 
L 794 0 
L 794 531 
z
" transform="scale(0.015625)"/>
       </defs>
       <use xlink:href="#DejaVuSans-31"/>
       <use xlink:href="#DejaVuSans-30" transform="translate(63.623047 0)"/>
       <use xlink:href="#DejaVuSans-30" transform="translate(127.246094 0)"/>
       <use xlink:href="#DejaVuSans-30" transform="translate(190.869141 0)"/>
      </g>
     </g>
    </g>
    <g id="text_7">
     <!-- Steps -->
     <g transform="translate(371.467188 395.343125) scale(0.28 -0.28)">
      <defs>
       <path id="DejaVuSans-53" d="M 3425 4513 
L 3425 3897 
Q 3066 4069 2747 4153 
Q 2428 4238 2131 4238 
Q 1616 4238 1336 4038 
Q 1056 3838 1056 3469 
Q 1056 3159 1242 3001 
Q 1428 2844 1947 2747 
L 2328 2669 
Q 3034 2534 3370 2195 
Q 3706 1856 3706 1288 
Q 3706 609 3251 259 
Q 2797 -91 1919 -91 
Q 1588 -91 1214 -16 
Q 841 59 441 206 
L 441 856 
Q 825 641 1194 531 
Q 1563 422 1919 422 
Q 2459 422 2753 634 
Q 3047 847 3047 1241 
Q 3047 1584 2836 1778 
Q 2625 1972 2144 2069 
L 1759 2144 
Q 1053 2284 737 2584 
Q 422 2884 422 3419 
Q 422 4038 858 4394 
Q 1294 4750 2059 4750 
Q 2388 4750 2728 4690 
Q 3069 4631 3425 4513 
z
" transform="scale(0.015625)"/>
       <path id="DejaVuSans-74" d="M 1172 4494 
L 1172 3500 
L 2356 3500 
L 2356 3053 
L 1172 3053 
L 1172 1153 
Q 1172 725 1289 603 
Q 1406 481 1766 481 
L 2356 481 
L 2356 0 
L 1766 0 
Q 1100 0 847 248 
Q 594 497 594 1153 
L 594 3053 
L 172 3053 
L 172 3500 
L 594 3500 
L 594 4494 
L 1172 4494 
z
" transform="scale(0.015625)"/>
       <path id="DejaVuSans-65" d="M 3597 1894 
L 3597 1613 
L 953 1613 
Q 991 1019 1311 708 
Q 1631 397 2203 397 
Q 2534 397 2845 478 
Q 3156 559 3463 722 
L 3463 178 
Q 3153 47 2828 -22 
Q 2503 -91 2169 -91 
Q 1331 -91 842 396 
Q 353 884 353 1716 
Q 353 2575 817 3079 
Q 1281 3584 2069 3584 
Q 2775 3584 3186 3129 
Q 3597 2675 3597 1894 
z
M 3022 2063 
Q 3016 2534 2758 2815 
Q 2500 3097 2075 3097 
Q 1594 3097 1305 2825 
Q 1016 2553 972 2059 
L 3022 2063 
z
" transform="scale(0.015625)"/>
       <path id="DejaVuSans-70" d="M 1159 525 
L 1159 -1331 
L 581 -1331 
L 581 3500 
L 1159 3500 
L 1159 2969 
Q 1341 3281 1617 3432 
Q 1894 3584 2278 3584 
Q 2916 3584 3314 3078 
Q 3713 2572 3713 1747 
Q 3713 922 3314 415 
Q 2916 -91 2278 -91 
Q 1894 -91 1617 61 
Q 1341 213 1159 525 
z
M 3116 1747 
Q 3116 2381 2855 2742 
Q 2594 3103 2138 3103 
Q 1681 3103 1420 2742 
Q 1159 2381 1159 1747 
Q 1159 1113 1420 752 
Q 1681 391 2138 391 
Q 2594 391 2855 752 
Q 3116 1113 3116 1747 
z
" transform="scale(0.015625)"/>
       <path id="DejaVuSans-73" d="M 2834 3397 
L 2834 2853 
Q 2591 2978 2328 3040 
Q 2066 3103 1784 3103 
Q 1356 3103 1142 2972 
Q 928 2841 928 2578 
Q 928 2378 1081 2264 
Q 1234 2150 1697 2047 
L 1894 2003 
Q 2506 1872 2764 1633 
Q 3022 1394 3022 966 
Q 3022 478 2636 193 
Q 2250 -91 1575 -91 
Q 1294 -91 989 -36 
Q 684 19 347 128 
L 347 722 
Q 666 556 975 473 
Q 1284 391 1588 391 
Q 1994 391 2212 530 
Q 2431 669 2431 922 
Q 2431 1156 2273 1281 
Q 2116 1406 1581 1522 
L 1381 1569 
Q 847 1681 609 1914 
Q 372 2147 372 2553 
Q 372 3047 722 3315 
Q 1072 3584 1716 3584 
Q 2034 3584 2315 3537 
Q 2597 3491 2834 3397 
z
" transform="scale(0.015625)"/>
      </defs>
      <use xlink:href="#DejaVuSans-53"/>
      <use xlink:href="#DejaVuSans-74" transform="translate(63.476562 0)"/>
      <use xlink:href="#DejaVuSans-65" transform="translate(102.685547 0)"/>
      <use xlink:href="#DejaVuSans-70" transform="translate(164.208984 0)"/>
      <use xlink:href="#DejaVuSans-73" transform="translate(227.685547 0)"/>
     </g>
    </g>
   </g>
   <g id="matplotlib.axis_2">
    <g id="ytick_1">
     <g id="line2d_7">
      <defs>
       <path id="m906d0cd67e" d="M 0 0 
L -3.5 0 
" style="stroke: #000000; stroke-width: 0.8"/>
      </defs>
      <g>
       <use xlink:href="#m906d0cd67e" x="75.83875" y="327.509165" style="stroke: #000000; stroke-width: 0.8"/>
      </g>
     </g>
     <g id="text_8">
      <!-- 0 -->
      <g transform="translate(53.56875 336.62729) scale(0.24 -0.24)">
       <use xlink:href="#DejaVuSans-30"/>
      </g>
     </g>
    </g>
    <g id="ytick_2">
     <g id="line2d_8">
      <g>
       <use xlink:href="#m906d0cd67e" x="75.83875" y="287.434954" style="stroke: #000000; stroke-width: 0.8"/>
      </g>
     </g>
     <g id="text_9">
      <!-- 10 -->
      <g transform="translate(38.29875 296.553079) scale(0.24 -0.24)">
       <use xlink:href="#DejaVuSans-31"/>
       <use xlink:href="#DejaVuSans-30" transform="translate(63.623047 0)"/>
      </g>
     </g>
    </g>
    <g id="ytick_3">
     <g id="line2d_9">
      <g>
       <use xlink:href="#m906d0cd67e" x="75.83875" y="247.360742" style="stroke: #000000; stroke-width: 0.8"/>
      </g>
     </g>
     <g id="text_10">
      <!-- 20 -->
      <g transform="translate(38.29875 256.478867) scale(0.24 -0.24)">
       <use xlink:href="#DejaVuSans-32"/>
       <use xlink:href="#DejaVuSans-30" transform="translate(63.623047 0)"/>
      </g>
     </g>
    </g>
    <g id="ytick_4">
     <g id="line2d_10">
      <g>
       <use xlink:href="#m906d0cd67e" x="75.83875" y="207.286531" style="stroke: #000000; stroke-width: 0.8"/>
      </g>
     </g>
     <g id="text_11">
      <!-- 30 -->
      <g transform="translate(38.29875 216.404656) scale(0.24 -0.24)">
       <defs>
        <path id="DejaVuSans-33" d="M 2597 2516 
Q 3050 2419 3304 2112 
Q 3559 1806 3559 1356 
Q 3559 666 3084 287 
Q 2609 -91 1734 -91 
Q 1441 -91 1130 -33 
Q 819 25 488 141 
L 488 750 
Q 750 597 1062 519 
Q 1375 441 1716 441 
Q 2309 441 2620 675 
Q 2931 909 2931 1356 
Q 2931 1769 2642 2001 
Q 2353 2234 1838 2234 
L 1294 2234 
L 1294 2753 
L 1863 2753 
Q 2328 2753 2575 2939 
Q 2822 3125 2822 3475 
Q 2822 3834 2567 4026 
Q 2313 4219 1838 4219 
Q 1578 4219 1281 4162 
Q 984 4106 628 3988 
L 628 4550 
Q 988 4650 1302 4700 
Q 1616 4750 1894 4750 
Q 2613 4750 3031 4423 
Q 3450 4097 3450 3541 
Q 3450 3153 3228 2886 
Q 3006 2619 2597 2516 
z
" transform="scale(0.015625)"/>
       </defs>
       <use xlink:href="#DejaVuSans-33"/>
       <use xlink:href="#DejaVuSans-30" transform="translate(63.623047 0)"/>
      </g>
     </g>
    </g>
    <g id="ytick_5">
     <g id="line2d_11">
      <g>
       <use xlink:href="#m906d0cd67e" x="75.83875" y="167.212319" style="stroke: #000000; stroke-width: 0.8"/>
      </g>
     </g>
     <g id="text_12">
      <!-- 40 -->
      <g transform="translate(38.29875 176.330444) scale(0.24 -0.24)">
       <use xlink:href="#DejaVuSans-34"/>
       <use xlink:href="#DejaVuSans-30" transform="translate(63.623047 0)"/>
      </g>
     </g>
    </g>
    <g id="ytick_6">
     <g id="line2d_12">
      <g>
       <use xlink:href="#m906d0cd67e" x="75.83875" y="127.138108" style="stroke: #000000; stroke-width: 0.8"/>
      </g>
     </g>
     <g id="text_13">
      <!-- 50 -->
      <g transform="translate(38.29875 136.256233) scale(0.24 -0.24)">
       <defs>
        <path id="DejaVuSans-35" d="M 691 4666 
L 3169 4666 
L 3169 4134 
L 1269 4134 
L 1269 2991 
Q 1406 3038 1543 3061 
Q 1681 3084 1819 3084 
Q 2600 3084 3056 2656 
Q 3513 2228 3513 1497 
Q 3513 744 3044 326 
Q 2575 -91 1722 -91 
Q 1428 -91 1123 -41 
Q 819 9 494 109 
L 494 744 
Q 775 591 1075 516 
Q 1375 441 1709 441 
Q 2250 441 2565 725 
Q 2881 1009 2881 1497 
Q 2881 1984 2565 2268 
Q 2250 2553 1709 2553 
Q 1456 2553 1204 2497 
Q 953 2441 691 2322 
L 691 4666 
z
" transform="scale(0.015625)"/>
       </defs>
       <use xlink:href="#DejaVuSans-35"/>
       <use xlink:href="#DejaVuSans-30" transform="translate(63.623047 0)"/>
      </g>
     </g>
    </g>
    <g id="ytick_7">
     <g id="line2d_13">
      <g>
       <use xlink:href="#m906d0cd67e" x="75.83875" y="87.063896" style="stroke: #000000; stroke-width: 0.8"/>
      </g>
     </g>
     <g id="text_14">
      <!-- 60 -->
      <g transform="translate(38.29875 96.182021) scale(0.24 -0.24)">
       <use xlink:href="#DejaVuSans-36"/>
       <use xlink:href="#DejaVuSans-30" transform="translate(63.623047 0)"/>
      </g>
     </g>
    </g>
    <g id="ytick_8">
     <g id="line2d_14">
      <g>
       <use xlink:href="#m906d0cd67e" x="75.83875" y="46.989685" style="stroke: #000000; stroke-width: 0.8"/>
      </g>
     </g>
     <g id="text_15">
      <!-- 70 -->
      <g transform="translate(38.29875 56.10781) scale(0.24 -0.24)">
       <defs>
        <path id="DejaVuSans-37" d="M 525 4666 
L 3525 4666 
L 3525 4397 
L 1831 0 
L 1172 0 
L 2766 4134 
L 525 4134 
L 525 4666 
z
" transform="scale(0.015625)"/>
       </defs>
       <use xlink:href="#DejaVuSans-37"/>
       <use xlink:href="#DejaVuSans-30" transform="translate(63.623047 0)"/>
      </g>
     </g>
    </g>
    <g id="text_16">
     <!-- % Optimal Action -->
     <g transform="translate(28.475625 294.959062) rotate(-90) scale(0.28 -0.28)">
      <defs>
       <path id="DejaVuSans-25" d="M 4653 2053 
Q 4381 2053 4226 1822 
Q 4072 1591 4072 1178 
Q 4072 772 4226 539 
Q 4381 306 4653 306 
Q 4919 306 5073 539 
Q 5228 772 5228 1178 
Q 5228 1588 5073 1820 
Q 4919 2053 4653 2053 
z
M 4653 2450 
Q 5147 2450 5437 2106 
Q 5728 1763 5728 1178 
Q 5728 594 5436 251 
Q 5144 -91 4653 -91 
Q 4153 -91 3862 251 
Q 3572 594 3572 1178 
Q 3572 1766 3864 2108 
Q 4156 2450 4653 2450 
z
M 1428 4353 
Q 1159 4353 1004 4120 
Q 850 3888 850 3481 
Q 850 3069 1003 2837 
Q 1156 2606 1428 2606 
Q 1700 2606 1854 2837 
Q 2009 3069 2009 3481 
Q 2009 3884 1853 4118 
Q 1697 4353 1428 4353 
z
M 4250 4750 
L 4750 4750 
L 1831 -91 
L 1331 -91 
L 4250 4750 
z
M 1428 4750 
Q 1922 4750 2215 4408 
Q 2509 4066 2509 3481 
Q 2509 2891 2217 2550 
Q 1925 2209 1428 2209 
Q 931 2209 642 2551 
Q 353 2894 353 3481 
Q 353 4063 643 4406 
Q 934 4750 1428 4750 
z
" transform="scale(0.015625)"/>
       <path id="DejaVuSans-20" transform="scale(0.015625)"/>
       <path id="DejaVuSans-4f" d="M 2522 4238 
Q 1834 4238 1429 3725 
Q 1025 3213 1025 2328 
Q 1025 1447 1429 934 
Q 1834 422 2522 422 
Q 3209 422 3611 934 
Q 4013 1447 4013 2328 
Q 4013 3213 3611 3725 
Q 3209 4238 2522 4238 
z
M 2522 4750 
Q 3503 4750 4090 4092 
Q 4678 3434 4678 2328 
Q 4678 1225 4090 567 
Q 3503 -91 2522 -91 
Q 1538 -91 948 565 
Q 359 1222 359 2328 
Q 359 3434 948 4092 
Q 1538 4750 2522 4750 
z
" transform="scale(0.015625)"/>
       <path id="DejaVuSans-69" d="M 603 3500 
L 1178 3500 
L 1178 0 
L 603 0 
L 603 3500 
z
M 603 4863 
L 1178 4863 
L 1178 4134 
L 603 4134 
L 603 4863 
z
" transform="scale(0.015625)"/>
       <path id="DejaVuSans-6d" d="M 3328 2828 
Q 3544 3216 3844 3400 
Q 4144 3584 4550 3584 
Q 5097 3584 5394 3201 
Q 5691 2819 5691 2113 
L 5691 0 
L 5113 0 
L 5113 2094 
Q 5113 2597 4934 2840 
Q 4756 3084 4391 3084 
Q 3944 3084 3684 2787 
Q 3425 2491 3425 1978 
L 3425 0 
L 2847 0 
L 2847 2094 
Q 2847 2600 2669 2842 
Q 2491 3084 2119 3084 
Q 1678 3084 1418 2786 
Q 1159 2488 1159 1978 
L 1159 0 
L 581 0 
L 581 3500 
L 1159 3500 
L 1159 2956 
Q 1356 3278 1631 3431 
Q 1906 3584 2284 3584 
Q 2666 3584 2933 3390 
Q 3200 3197 3328 2828 
z
" transform="scale(0.015625)"/>
       <path id="DejaVuSans-61" d="M 2194 1759 
Q 1497 1759 1228 1600 
Q 959 1441 959 1056 
Q 959 750 1161 570 
Q 1363 391 1709 391 
Q 2188 391 2477 730 
Q 2766 1069 2766 1631 
L 2766 1759 
L 2194 1759 
z
M 3341 1997 
L 3341 0 
L 2766 0 
L 2766 531 
Q 2569 213 2275 61 
Q 1981 -91 1556 -91 
Q 1019 -91 701 211 
Q 384 513 384 1019 
Q 384 1609 779 1909 
Q 1175 2209 1959 2209 
L 2766 2209 
L 2766 2266 
Q 2766 2663 2505 2880 
Q 2244 3097 1772 3097 
Q 1472 3097 1187 3025 
Q 903 2953 641 2809 
L 641 3341 
Q 956 3463 1253 3523 
Q 1550 3584 1831 3584 
Q 2591 3584 2966 3190 
Q 3341 2797 3341 1997 
z
" transform="scale(0.015625)"/>
       <path id="DejaVuSans-6c" d="M 603 4863 
L 1178 4863 
L 1178 0 
L 603 0 
L 603 4863 
z
" transform="scale(0.015625)"/>
       <path id="DejaVuSans-41" d="M 2188 4044 
L 1331 1722 
L 3047 1722 
L 2188 4044 
z
M 1831 4666 
L 2547 4666 
L 4325 0 
L 3669 0 
L 3244 1197 
L 1141 1197 
L 716 0 
L 50 0 
L 1831 4666 
z
" transform="scale(0.015625)"/>
       <path id="DejaVuSans-63" d="M 3122 3366 
L 3122 2828 
Q 2878 2963 2633 3030 
Q 2388 3097 2138 3097 
Q 1578 3097 1268 2742 
Q 959 2388 959 1747 
Q 959 1106 1268 751 
Q 1578 397 2138 397 
Q 2388 397 2633 464 
Q 2878 531 3122 666 
L 3122 134 
Q 2881 22 2623 -34 
Q 2366 -91 2075 -91 
Q 1284 -91 818 406 
Q 353 903 353 1747 
Q 353 2603 823 3093 
Q 1294 3584 2113 3584 
Q 2378 3584 2631 3529 
Q 2884 3475 3122 3366 
z
" transform="scale(0.015625)"/>
       <path id="DejaVuSans-6f" d="M 1959 3097 
Q 1497 3097 1228 2736 
Q 959 2375 959 1747 
Q 959 1119 1226 758 
Q 1494 397 1959 397 
Q 2419 397 2687 759 
Q 2956 1122 2956 1747 
Q 2956 2369 2687 2733 
Q 2419 3097 1959 3097 
z
M 1959 3584 
Q 2709 3584 3137 3096 
Q 3566 2609 3566 1747 
Q 3566 888 3137 398 
Q 2709 -91 1959 -91 
Q 1206 -91 779 398 
Q 353 888 353 1747 
Q 353 2609 779 3096 
Q 1206 3584 1959 3584 
z
" transform="scale(0.015625)"/>
       <path id="DejaVuSans-6e" d="M 3513 2113 
L 3513 0 
L 2938 0 
L 2938 2094 
Q 2938 2591 2744 2837 
Q 2550 3084 2163 3084 
Q 1697 3084 1428 2787 
Q 1159 2491 1159 1978 
L 1159 0 
L 581 0 
L 581 3500 
L 1159 3500 
L 1159 2956 
Q 1366 3272 1645 3428 
Q 1925 3584 2291 3584 
Q 2894 3584 3203 3211 
Q 3513 2838 3513 2113 
z
" transform="scale(0.015625)"/>
      </defs>
      <use xlink:href="#DejaVuSans-25"/>
      <use xlink:href="#DejaVuSans-20" transform="translate(95.019531 0)"/>
      <use xlink:href="#DejaVuSans-4f" transform="translate(126.806641 0)"/>
      <use xlink:href="#DejaVuSans-70" transform="translate(205.517578 0)"/>
      <use xlink:href="#DejaVuSans-74" transform="translate(268.994141 0)"/>
      <use xlink:href="#DejaVuSans-69" transform="translate(308.203125 0)"/>
      <use xlink:href="#DejaVuSans-6d" transform="translate(335.986328 0)"/>
      <use xlink:href="#DejaVuSans-61" transform="translate(433.398438 0)"/>
      <use xlink:href="#DejaVuSans-6c" transform="translate(494.677734 0)"/>
      <use xlink:href="#DejaVuSans-20" transform="translate(522.460938 0)"/>
      <use xlink:href="#DejaVuSans-41" transform="translate(554.248047 0)"/>
      <use xlink:href="#DejaVuSans-63" transform="translate(620.90625 0)"/>
      <use xlink:href="#DejaVuSans-74" transform="translate(675.886719 0)"/>
      <use xlink:href="#DejaVuSans-69" transform="translate(715.095703 0)"/>
      <use xlink:href="#DejaVuSans-6f" transform="translate(742.878906 0)"/>
      <use xlink:href="#DejaVuSans-6e" transform="translate(804.060547 0)"/>
     </g>
    </g>
   </g>
   <g id="line2d_15">
    <path d="M 106.275114 287.62731 
L 106.88445 287.426939 
L 107.493787 287.547161 
L 108.103123 287.410909 
L 108.71246 286.889944 
L 109.321797 287.635325 
L 109.931133 287.715473 
L 110.54047 288.516957 
L 111.149807 287.074286 
L 111.759143 286.505232 
L 112.36848 153.114212 
L 112.977816 242.736178 
L 113.587153 276.262263 
L 114.19649 292.861002 
L 114.805826 305.700779 
L 115.415163 312.825974 
L 116.024499 317.795176 
L 116.633836 321.618256 
L 117.243173 324.343302 
L 117.852509 324.72 
L 118.461846 114.218182 
L 119.071182 208.208237 
L 119.680519 237.173878 
L 120.289856 246.270724 
L 120.899192 248.627087 
L 121.508529 246.286753 
L 123.336539 224.35013 
L 124.555212 205.579369 
L 125.164549 197.011503 
L 126.383222 183.330167 
L 126.992558 177.968237 
L 128.211232 165.521187 
L 130.039241 152.328757 
L 132.476588 138.286753 
L 133.085924 135.842226 
L 133.695261 132.475993 
L 134.304598 129.847124 
L 134.913934 128.316289 
L 136.132607 122.273098 
L 136.741944 121.736104 
L 137.351281 120.782338 
L 138.569954 115.933358 
L 139.179291 116.021521 
L 139.788627 113.55295 
L 140.397964 111.709536 
L 141.0073 111.461076 
L 142.225974 109.297069 
L 142.83531 108.695955 
L 143.444647 107.670056 
L 144.053983 106.091132 
L 145.272657 105.586197 
L 145.881993 104.143525 
L 146.49133 103.65462 
L 147.100666 103.766827 
L 147.710003 103.261892 
L 148.31934 103.462263 
L 148.928676 103.173729 
L 149.538013 103.510353 
L 150.14735 102.316141 
L 150.756686 101.386419 
L 151.366023 101.506642 
L 151.975359 102.732913 
L 152.584696 102.556586 
L 153.194033 101.041781 
L 153.803369 100.681113 
L 154.412706 100.897514 
L 155.022042 100.761262 
L 155.631379 101.418479 
L 156.240716 101.306271 
L 157.459389 102.86115 
L 158.068725 102.3482 
L 159.287399 103.566456 
L 159.896735 103.117625 
L 160.506072 103.173729 
L 161.115408 103.382115 
L 162.334082 103.358071 
L 162.943418 102.789017 
L 163.552755 103.021447 
L 164.162092 103.774842 
L 164.771428 103.798887 
L 165.380765 103.606531 
L 166.599438 104.215659 
L 167.208775 105.754508 
L 168.427448 105.69039 
L 169.036784 106.139221 
L 169.646121 106.395696 
L 170.255458 106.491874 
L 171.474131 108.166976 
L 172.083467 107.517774 
L 173.911477 107.477699 
L 174.520814 106.836512 
L 175.13015 107.397551 
L 175.739487 107.365492 
L 176.348824 107.766234 
L 176.95816 107.629981 
L 177.567497 106.812468 
L 178.176834 106.580037 
L 179.395507 106.884601 
L 180.004843 106.748349 
L 180.61418 107.469685 
L 181.223517 107.421596 
L 181.832853 108.607792 
L 182.44219 108.046753 
L 183.051526 107.894471 
L 183.660863 107.870427 
L 184.2702 108.383377 
L 184.879536 108.19102 
L 185.488873 107.766234 
L 186.098209 107.581892 
L 186.707546 108.054768 
L 187.926219 108.527644 
L 189.144893 108.45551 
L 190.363566 107.934545 
L 190.972902 107.830353 
L 192.800912 108.126902 
L 193.410249 108.744045 
L 194.019585 108.559703 
L 194.628922 108.816178 
L 195.238259 108.880297 
L 195.847595 108.567718 
L 196.456932 108.439481 
L 197.066268 108.47154 
L 197.675605 108.792134 
L 198.284942 107.918516 
L 198.894278 108.20705 
L 199.503615 109.305083 
L 200.112951 108.856252 
L 200.722288 109.24898 
L 201.331625 109.21692 
L 201.940961 108.327273 
L 202.550298 107.97462 
L 203.159635 109.425306 
L 203.768971 109.048609 
L 204.987644 108.928386 
L 206.206318 109.721855 
L 207.424991 108.054768 
L 208.034327 108.110872 
L 208.643664 108.054768 
L 209.253001 107.718145 
L 209.862337 108.319258 
L 210.471674 108.046753 
L 211.08101 107.405566 
L 211.690347 106.355622 
L 212.299684 107.21321 
L 212.90902 107.044898 
L 214.127693 107.413581 
L 214.73703 106.507904 
L 215.346367 107.205195 
L 215.955703 107.373506 
L 216.56504 106.483859 
L 217.174377 106.315547 
L 217.783713 105.482004 
L 218.39305 105.882746 
L 219.002386 105.618256 
L 219.611723 105.970909 
L 220.22106 105.810612 
L 220.830396 105.257588 
L 221.439733 105.554137 
L 222.049069 105.618256 
L 222.658406 104.91295 
L 223.267743 104.736623 
L 223.877079 104.864861 
L 224.486416 104.271763 
L 225.095752 104.584341 
L 225.705089 104.728609 
L 226.314426 105.289647 
L 226.923762 105.65833 
L 227.533099 105.009128 
L 228.142436 105.065232 
L 228.751772 105.69039 
L 229.361109 105.738479 
L 229.970445 105.305677 
L 231.189119 105.129351 
L 231.798455 104.287792 
L 232.407792 104.175584 
L 233.626465 104.840816 
L 234.235802 105.017143 
L 235.454475 104.576327 
L 236.063811 104.111466 
L 236.673148 104.007273 
L 237.282485 104.175584 
L 237.891821 104.768683 
L 238.501158 103.117625 
L 239.110494 103.790872 
L 239.719831 103.975213 
L 240.329168 103.806902 
L 240.938504 104.087421 
L 241.547841 102.981373 
L 242.157178 103.237848 
L 242.766514 102.821076 
L 243.375851 102.837106 
L 243.985187 102.428349 
L 244.594524 101.779147 
L 245.203861 102.62872 
L 245.813197 102.372245 
L 246.422534 101.891354 
L 247.03187 101.811206 
L 247.641207 101.041781 
L 248.250544 99.631169 
L 248.85988 99.871614 
L 249.469217 99.943748 
L 250.078553 99.238442 
L 250.68789 98.869759 
L 251.906563 99.607124 
L 252.5159 99.687273 
L 253.125236 99.486902 
L 253.734573 99.518961 
L 254.953246 99.278516 
L 255.562583 98.701447 
L 256.781256 99.623154 
L 257.390593 99.599109 
L 257.999929 99.390724 
L 258.609266 99.486902 
L 259.218603 99.022041 
L 259.827939 99.142263 
L 260.437276 99.0541 
L 261.655949 99.190353 
L 262.265286 98.853729 
L 263.483959 98.845714 
L 264.702632 97.362968 
L 265.311969 97.435102 
L 265.921305 97.074434 
L 266.530642 97.178627 
L 267.139979 96.890093 
L 267.749315 97.03436 
L 268.358652 96.898108 
L 268.967988 96.072579 
L 269.577325 96.032505 
L 270.795998 96.184787 
L 271.405335 95.607718 
L 272.624008 95.367273 
L 273.233345 94.710056 
L 273.842681 94.774174 
L 275.061354 95.26308 
L 275.670691 94.814249 
L 276.889364 94.245195 
L 277.498701 94.645937 
L 278.108037 94.365417 
L 278.717374 93.876512 
L 279.326711 93.820408 
L 279.936047 94.23718 
L 280.545384 93.97269 
L 281.154721 93.916586 
L 282.373394 93.4918 
L 282.98273 92.834583 
L 283.592067 92.866642 
L 284.81074 93.187236 
L 285.420077 92.762449 
L 286.029413 92.089202 
L 286.63875 91.872801 
L 287.248087 92.489944 
L 287.857423 91.391911 
L 288.46676 91.335807 
L 289.076096 90.718664 
L 289.685433 91.279703 
L 290.904106 90.301892 
L 291.513443 90.4141 
L 292.732116 89.452319 
L 293.341453 90.14961 
L 293.950789 90.374026 
L 295.169463 90.478219 
L 296.388136 89.3882 
L 298.216146 89.364156 
L 298.825482 88.955399 
L 299.434819 88.11384 
L 300.653492 88.322226 
L 301.262829 88.121855 
L 301.872165 88.706939 
L 303.700175 88.057737 
L 304.309512 87.528757 
L 304.918848 87.392505 
L 305.528185 87.777217 
L 306.137521 87.063896 
L 306.746858 87.753173 
L 307.356195 87.168089 
L 307.965531 87.128015 
L 308.574868 87.296327 
L 309.184205 87.600891 
L 309.793541 86.663154 
L 310.402878 87.280297 
L 311.012214 87.216178 
L 311.621551 86.727273 
L 312.230888 86.615065 
L 312.840224 86.671169 
L 313.449561 86.054026 
L 314.058897 86.062041 
L 315.277571 86.558961 
L 315.886907 85.781521 
L 316.496244 85.388794 
L 317.10558 86.198293 
L 317.714917 86.430724 
L 318.93359 86.558961 
L 319.542927 86.302486 
L 320.7616 86.510872 
L 321.370937 86.759332 
L 321.980273 86.695213 
L 322.58961 86.246382 
L 323.808283 86.478813 
L 325.026956 86.118145 
L 325.636293 85.701373 
L 326.24563 85.61321 
L 326.854966 84.675473 
L 327.464303 85.268571 
L 328.682976 84.811725 
L 329.901649 85.236512 
L 330.510986 85.212468 
L 331.120322 84.731577 
L 331.729659 84.763636 
L 333.557669 84.290761 
L 334.167006 84.475102 
L 334.776342 84.523191 
L 335.385679 83.978182 
L 335.995015 84.515176 
L 336.604352 84.643414 
L 338.432362 83.954137 
L 339.041698 83.489276 
L 339.651035 83.593469 
L 340.260372 83.03243 
L 340.869708 83.57744 
L 341.479045 83.769796 
L 342.088381 83.537365 
L 343.307055 83.721707 
L 343.916391 83.521336 
L 344.525728 82.8 
L 345.135064 82.727866 
L 345.744401 82.864119 
L 346.353738 82.238961 
L 346.963074 82.134768 
L 347.572411 81.533655 
L 348.181748 81.637848 
L 348.791084 81.974471 
L 349.400421 81.942412 
L 350.009757 82.367199 
L 351.228431 81.29321 
L 351.837767 81.189017 
L 352.447104 81.349314 
L 353.05644 80.76423 
L 353.665777 80.571874 
L 354.88445 79.882597 
L 356.103123 79.826494 
L 356.71246 79.345603 
L 357.321797 79.674212 
L 357.931133 79.00898 
L 359.149807 78.984935 
L 360.36848 78.407866 
L 360.977816 78.896772 
L 361.587153 78.528089 
L 362.19649 78.399852 
L 362.805826 78.952876 
L 363.415163 77.822783 
L 364.024499 78.119332 
L 365.243173 78.111317 
L 366.461846 77.341892 
L 367.071182 77.373952 
L 367.680519 76.94115 
L 369.508529 76.95718 
L 370.117865 77.20564 
L 370.727202 76.580482 
L 371.336539 76.44423 
L 371.945875 76.836957 
L 375.601895 75.546568 
L 376.211232 75.602672 
L 377.429905 75.201929 
L 378.039241 75.354212 
L 378.648578 75.121781 
L 379.867251 74.913395 
L 380.476588 75.514508 
L 381.695261 75.105751 
L 382.304598 75.161855 
L 382.913934 75.009573 
L 383.523271 74.488609 
L 384.132607 74.849276 
L 384.741944 74.536698 
L 385.351281 74.464564 
L 385.960617 74.584787 
L 386.569954 74.312282 
L 387.179291 74.632876 
L 387.788627 74.280223 
L 388.397964 74.680965 
L 389.0073 74.208089 
L 389.616637 73.951614 
L 390.225974 73.310427 
L 390.83531 73.64705 
L 391.444647 73.366531 
L 392.053983 73.270353 
L 392.66332 72.781447 
L 393.272657 72.86961 
L 393.881993 72.308571 
L 394.49133 72.492913 
L 396.31934 72.084156 
L 396.928676 71.523117 
L 398.14735 71.827681 
L 398.756686 72.292542 
L 399.366023 71.37885 
L 399.975359 71.691429 
L 400.584696 71.563191 
L 401.194033 71.074286 
L 401.803369 71.106345 
L 402.412706 70.777737 
L 403.022042 70.986122 
L 403.631379 70.665529 
L 404.240716 70.777737 
L 404.850052 70.425083 
L 405.459389 70.216698 
L 406.068725 70.280816 
L 406.678062 70.048386 
L 407.287399 70.160594 
L 407.896735 69.85603 
L 408.506072 69.984267 
L 409.724745 69.815955 
L 410.334082 70.000297 
L 410.943418 69.535436 
L 411.552755 69.615584 
L 412.162092 69.503377 
L 412.771428 68.966382 
L 413.380765 69.359109 
L 413.990101 69.014471 
L 414.599438 69.495362 
L 415.818111 69.727792 
L 417.036784 69.134694 
L 417.646121 69.695733 
L 418.255458 69.286976 
L 418.864794 69.030501 
L 420.083467 68.966382 
L 420.692804 68.605714 
L 421.302141 68.493506 
L 421.911477 68.677848 
L 423.13015 68.293135 
L 423.739487 68.028646 
L 424.348824 67.900408 
L 424.95816 67.30731 
L 425.567497 67.05885 
L 426.176834 67.299295 
L 426.78617 67.235176 
L 427.395507 66.842449 
L 428.61418 66.714212 
L 429.223517 66.866494 
L 431.051526 66.762301 
L 431.660863 66.802375 
L 432.879536 67.475622 
L 433.488873 67.499666 
L 434.707546 67.243191 
L 435.316883 66.922597 
L 436.535556 66.938627 
L 437.144893 66.954657 
L 437.754229 66.666122 
L 438.363566 66.770315 
L 439.582239 67.419518 
L 440.191576 67.147013 
L 441.410249 67.179072 
L 442.019585 67.155028 
L 442.628922 66.938627 
L 443.847595 67.299295 
L 445.066268 67.122968 
L 445.675605 67.203117 
L 446.284942 67.507681 
L 446.894278 67.467607 
L 448.112951 67.692022 
L 448.722288 67.130983 
L 449.331625 67.371429 
L 449.940961 67.475622 
L 450.550298 66.962672 
L 451.159635 67.04282 
L 451.768971 66.882523 
L 452.378308 66.858479 
L 452.987644 66.658108 
L 453.596981 67.114954 
L 454.206318 66.457737 
L 454.815654 66.714212 
L 455.424991 66.602004 
L 456.034327 65.968831 
L 457.862337 65.391763 
L 458.471674 64.798664 
L 459.08101 64.74256 
L 459.690347 64.878813 
L 460.299684 64.694471 
L 460.90902 64.333803 
L 464.56504 63.76475 
L 465.174377 63.876957 
L 465.783713 63.612468 
L 466.39305 63.925046 
L 467.611723 63.323933 
L 468.22106 63.452171 
L 468.830396 63.339963 
L 469.439733 62.851058 
L 470.049069 62.570538 
L 471.267743 62.859072 
L 472.486416 62.778924 
L 473.095752 62.506419 
L 473.705089 62.979295 
L 474.314426 62.538479 
L 475.533099 62.306048 
L 476.142436 62.450315 
L 476.751772 62.883117 
L 477.361109 62.794954 
L 477.970445 62.418256 
L 478.579782 62.851058 
L 479.189119 61.969425 
L 480.407792 61.664861 
L 481.017128 61.608757 
L 481.626465 61.985455 
L 482.235802 61.480519 
L 482.845138 61.608757 
L 483.454475 61.600742 
L 484.673148 61.785083 
L 485.282485 61.352282 
L 487.719831 61.360297 
L 488.329168 61.015659 
L 488.938504 61.087792 
L 490.157178 60.406531 
L 490.766514 60.590872 
L 491.985187 60.598887 
L 492.594524 60.638961 
L 493.203861 60.238219 
L 494.422534 60.374471 
L 495.03187 60.478664 
L 495.641207 60.286308 
L 496.250544 60.302338 
L 498.68789 59.765343 
L 499.297227 59.372616 
L 499.906563 59.340557 
L 500.5159 58.891725 
L 501.125236 59.068052 
L 501.734573 58.787532 
L 502.34391 58.811577 
L 502.953246 59.108126 
L 503.562583 58.939814 
L 505.999929 59.18026 
L 507.218603 59.035993 
L 507.827939 58.731429 
L 508.437276 58.795547 
L 509.046612 58.643265 
L 509.655949 59.196289 
L 510.265286 58.731429 
L 510.874622 58.731429 
L 511.483959 58.370761 
L 512.093295 58.282597 
L 513.311969 58.675325 
L 513.921305 58.619221 
L 514.530642 58.378776 
L 515.139979 58.523043 
L 517.577325 57.745603 
L 518.186662 57.978033 
L 520.014671 57.986048 
L 520.624008 57.601336 
L 521.233345 57.793692 
L 521.842681 57.449054 
L 522.452018 57.416994 
L 523.061354 57.272727 
L 523.670691 57.008237 
L 524.889364 57.224638 
L 525.498701 57.14449 
L 526.108037 56.855955 
L 526.717374 56.89603 
L 527.326711 56.759777 
L 527.936047 57.200594 
L 528.545384 57.320816 
L 529.154721 57.024267 
L 529.764057 56.855955 
L 530.373394 57.120445 
L 530.98273 56.912059 
L 531.592067 56.575436 
L 532.201404 56.663599 
L 532.81074 56.61551 
L 533.420077 56.254842 
L 534.029413 56.407124 
L 534.63875 56.10256 
L 535.248087 56.391095 
L 536.46676 56.326976 
L 537.076096 55.966308 
L 537.685433 56.086531 
L 538.904106 56.006382 
L 539.513443 56.166679 
L 540.122779 55.806011 
L 540.732116 55.773952 
L 541.341453 56.126605 
L 541.950789 56.158664 
L 542.560126 55.942263 
L 543.778799 55.918219 
L 546.216146 55.685788 
L 547.434819 54.972468 
L 548.044155 54.780111 
L 548.653492 55.220928 
L 549.262829 55.381224 
L 549.872165 55.220928 
L 550.481502 55.34115 
L 551.090838 55.07666 
L 551.700175 55.333135 
L 552.309512 55.445343 
L 552.918848 55.09269 
L 553.528185 55.068646 
L 554.137521 54.892319 
L 554.746858 55.084675 
L 555.965531 55.004527 
L 557.184205 54.483562 
L 559.012214 54.499592 
L 560.840224 54.06679 
L 561.449561 54.251132 
L 562.058897 53.906494 
L 562.668234 53.962597 
L 564.496244 53.481707 
L 565.10558 53.85039 
L 565.714917 53.882449 
L 566.324254 53.401558 
L 566.93359 53.241262 
L 568.152264 53.233247 
L 568.7616 52.848534 
L 569.370937 52.680223 
L 571.198947 53.409573 
L 573.026956 53.024861 
L 573.636293 52.656178 
L 574.24563 52.736327 
L 574.854966 53.193173 
L 575.464303 52.968757 
L 576.073639 52.57603 
L 576.682976 52.640148 
L 577.901649 52.32757 
L 579.120322 52.688237 
L 579.729659 52.672208 
L 580.338996 52.495881 
L 581.557669 52.455807 
L 582.167006 52.359629 
L 582.776342 52.656178 
L 583.385679 52.680223 
L 583.995015 53.080965 
L 585.213689 53.401558 
L 585.823025 52.511911 
L 586.432362 52.391688 
L 587.041698 52.039035 
L 588.260372 52.503896 
L 588.869708 52.095139 
L 589.479045 52.119184 
L 590.088381 52.31154 
L 590.697718 51.862709 
L 591.307055 52.06308 
L 592.525728 51.710427 
L 593.744401 51.598219 
L 594.963074 51.429907 
L 595.572411 51.069239 
L 596.181748 50.884898 
L 597.400421 50.732616 
L 598.009757 50.884898 
L 598.619094 50.748646 
L 599.228431 50.347904 
L 600.447104 50.235696 
L 601.05644 50.219666 
L 602.275114 50.468126 
L 602.88445 50.916957 
L 604.71246 50.564304 
L 605.321797 50.307829 
L 605.931133 50.211651 
L 607.149807 50.283785 
L 608.36848 50.2918 
L 608.977816 50.075399 
L 609.587153 50.428052 
L 610.19649 50.139518 
L 610.805826 50.404007 
L 611.415163 50.083414 
L 612.024499 49.987236 
L 612.633836 50.179592 
L 613.243173 50.147532 
L 613.852509 49.867013 
L 615.071182 50.04334 
L 615.680519 49.682672 
L 616.899192 49.522375 
L 617.508529 49.554434 
L 618.117865 49.297959 
L 618.727202 49.506345 
L 619.945875 49.041484 
L 620.555212 49.105603 
L 621.164549 48.801039 
L 622.383222 48.785009 
L 622.992558 48.945306 
L 623.601895 48.696846 
L 624.211232 48.584638 
L 624.820568 48.616698 
L 625.429905 48.400297 
L 626.039241 48.496475 
L 626.648578 48.328163 
L 627.257915 48.015584 
L 628.476588 47.831243 
L 629.085924 48.087718 
L 630.304598 47.943451 
L 630.913934 48.199926 
L 631.523271 47.959481 
L 632.132607 48.288089 
L 632.741944 47.815213 
L 633.351281 48.175881 
L 634.569954 48.103748 
L 635.179291 48.175881 
L 637.616637 47.703006 
L 638.225974 47.935436 
L 638.83531 47.558738 
L 641.272657 47.262189 
L 641.881993 47.678961 
L 642.49133 47.526679 
L 643.710003 47.686976 
L 644.31934 47.919406 
L 644.928676 47.959481 
L 645.538013 47.71102 
L 646.14735 47.919406 
L 646.756686 47.839258 
L 647.366023 47.622857 
L 649.194033 47.767124 
L 650.412706 47.47859 
L 651.631379 47.654917 
L 652.240716 47.222115 
L 652.850052 47.294249 
L 653.459389 47.190056 
L 654.068725 47.262189 
L 655.287399 47.125937 
L 656.506072 47.238145 
L 657.115408 47.045788 
L 657.724745 47.053803 
L 658.334082 46.725195 
L 658.943418 46.661076 
L 662.599438 47.093878 
L 663.208775 46.685121 
L 663.818111 46.741224 
L 664.427448 46.46872 
L 665.646121 46.412616 
L 666.255458 46.268349 
L 667.474131 46.925566 
L 669.911477 46.508794 
L 670.520814 46.46872 
L 671.739487 46.140111 
L 672.95816 46.324453 
L 673.567497 46.292393 
L 674.176834 46.043933 
L 674.78617 45.619147 
L 675.395507 45.795473 
L 676.004843 45.739369 
L 676.61418 45.931725 
L 677.832853 45.45885 
L 679.051526 46.019889 
L 679.660863 45.731354 
L 681.488873 45.603117 
L 682.098209 45.819518 
L 682.707546 45.587087 
L 683.316883 45.530983 
L 683.926219 45.306568 
L 684.535556 45.410761 
L 685.754229 45.258479 
L 686.363566 45.354657 
L 686.972902 45.098182 
L 687.582239 45.306568 
L 688.800912 45.090167 
L 689.410249 45.130241 
L 690.019585 44.881781 
L 691.238259 45.250464 
L 691.847595 45.050093 
L 693.066268 45.034063 
L 693.675605 45.170315 
L 694.894278 44.713469 
L 695.503615 44.905826 
L 697.331625 43.93603 
L 698.550298 44.232579 
L 699.159635 43.879926 
L 699.768971 44.280668 
L 703.424991 44.064267 
L 705.253001 44.240594 
L 706.471674 44.224564 
L 707.08101 43.968089 
L 708.299684 43.968089 
L 708.90902 44.256623 
L 711.955703 44.176475 
L 712.56504 44.240594 
L 713.174377 43.735659 
L 713.783713 43.863896 
L 714.39305 43.735659 
L 715.002386 43.879926 
L 715.002386 43.879926 
" clip-path="url(#pf2fa79af23)" style="fill: none; stroke: #1f77b4; stroke-width: 1.5; stroke-linecap: square"/>
   </g>
   <g id="line2d_16">
    <path d="M 106.275114 287.515102 
L 106.88445 271.028571 
L 107.493787 258.821967 
L 108.71246 241.269462 
L 109.321797 234.657217 
L 111.149807 219.116438 
L 112.36848 211.117625 
L 112.977816 208.528831 
L 113.587153 206.509091 
L 114.19649 202.950501 
L 115.415163 199.047273 
L 117.243173 193.837625 
L 119.071182 188.972616 
L 119.680519 187.890612 
L 120.289856 187.545974 
L 122.117865 183.803043 
L 122.727202 183.242004 
L 123.945875 180.500928 
L 124.555212 180.492913 
L 125.164549 179.563191 
L 125.773885 179.11436 
L 126.383222 178.513247 
L 126.992558 177.206827 
L 127.601895 176.709907 
L 128.211232 175.563785 
L 128.820568 176.05269 
L 129.429905 174.121113 
L 130.039241 174.185232 
L 130.648578 173.447866 
L 131.257915 173.391763 
L 131.867251 171.941076 
L 132.476588 171.299889 
L 133.085924 170.995325 
L 133.695261 170.466345 
L 134.304598 170.514434 
L 134.913934 168.96757 
L 135.523271 168.839332 
L 136.132607 168.334397 
L 136.741944 168.590872 
L 137.351281 168.246234 
L 137.960617 166.507013 
L 138.569954 166.675325 
L 139.179291 166.090241 
L 139.788627 165.056327 
L 140.397964 165.184564 
L 141.0073 164.359035 
L 141.616637 163.958293 
L 142.225974 163.894174 
L 143.444647 162.876289 
L 144.053983 162.57974 
L 144.66332 162.555696 
L 145.272657 161.329425 
L 146.49133 160.511911 
L 147.100666 161.096994 
L 147.710003 159.870724 
L 148.31934 159.189462 
L 148.928676 158.957032 
L 149.538013 158.892913 
L 150.14735 157.915102 
L 150.756686 157.602523 
L 151.975359 157.786865 
L 152.584696 157.009425 
L 153.194033 156.584638 
L 153.803369 157.057514 
L 154.412706 155.294249 
L 155.022042 155.622857 
L 156.850052 154.380557 
L 157.459389 154.027904 
L 158.068725 154.1882 
L 158.678062 152.69744 
L 159.287399 152.609276 
L 159.896735 153.018033 
L 160.506072 151.984119 
L 161.724745 151.823822 
L 162.334082 151.447124 
L 162.943418 150.813952 
L 163.552755 150.749833 
L 164.162092 149.747978 
L 164.771428 150.060557 
L 165.990101 148.906419 
L 166.599438 148.914434 
L 167.208775 148.786197 
L 167.818111 148.209128 
L 168.427448 148.153024 
L 169.036784 147.984712 
L 170.255458 146.694323 
L 170.864794 146.437848 
L 171.474131 146.598145 
L 172.083467 146.221447 
L 172.692804 146.07718 
L 173.302141 145.363859 
L 173.911477 145.31577 
L 174.520814 144.410093 
L 175.13015 144.971132 
L 175.739487 144.009351 
L 176.348824 144.418108 
L 176.95816 143.456327 
L 177.567497 142.75102 
L 178.176834 143.223896 
L 178.78617 142.197996 
L 179.395507 141.75718 
L 180.004843 141.933506 
L 180.61418 141.388497 
L 181.223517 141.98961 
L 181.832853 141.075918 
L 182.44219 141.124007 
L 183.051526 139.905751 
L 183.660863 140.338553 
L 184.2702 140.314508 
L 184.879536 139.577143 
L 185.488873 140.025974 
L 186.098209 138.911911 
L 187.316883 138.455065 
L 188.535556 137.485269 
L 189.144893 136.828052 
L 189.754229 137.148646 
L 190.363566 136.587607 
L 191.582239 136.242968 
L 192.191576 135.89833 
L 192.800912 135.810167 
L 193.410249 135.193024 
L 194.019585 134.768237 
L 194.628922 134.848386 
L 195.238259 133.934694 
L 195.847595 134.88846 
L 196.456932 133.373655 
L 197.066268 133.734323 
L 197.675605 133.6141 
L 198.284942 132.956883 
L 198.894278 132.684378 
L 199.503615 131.906939 
L 200.722288 132.5882 
L 201.331625 131.706568 
L 201.940961 131.938998 
L 202.550298 131.770686 
L 203.159635 130.239852 
L 203.768971 130.800891 
L 204.378308 130.969202 
L 204.987644 130.368089 
L 205.596981 130.183748 
L 206.206318 130.424193 
L 207.424991 129.590649 
L 208.034327 128.957477 
L 208.643664 129.037625 
L 209.253001 127.586939 
L 209.862337 128.412468 
L 210.471674 127.939592 
L 211.08101 128.139963 
L 211.690347 127.971651 
L 212.299684 126.472876 
L 212.90902 127.378553 
L 213.518357 126.304564 
L 214.127693 126.240445 
L 215.346367 125.655362 
L 215.955703 125.967941 
L 216.56504 124.701596 
L 217.174377 124.405046 
L 217.783713 124.252764 
L 218.39305 124.605417 
L 219.002386 124.300853 
L 219.611723 123.707755 
L 220.22106 124.020334 
L 220.830396 123.691725 
L 221.439733 123.803933 
L 223.267743 122.361262 
L 223.877079 122.20898 
L 224.486416 122.68987 
L 225.095752 121.832282 
L 226.314426 121.543748 
L 226.923762 121.872356 
L 227.533099 120.662115 
L 228.751772 120.221299 
L 229.361109 120.573952 
L 230.579782 119.604156 
L 231.189119 119.836586 
L 231.798455 118.417959 
L 232.407792 119.6282 
L 233.017128 118.498108 
L 233.626465 118.474063 
L 234.235802 118.049276 
L 235.454475 116.919184 
L 236.063811 117.424119 
L 237.282485 116.021521 
L 237.891821 116.911169 
L 238.501158 116.414249 
L 239.110494 116.734842 
L 239.719831 116.454323 
L 240.329168 114.466642 
L 240.938504 115.749017 
L 241.547841 115.540631 
L 242.157178 115.524601 
L 242.766514 114.626939 
L 243.375851 114.346419 
L 243.985187 114.506716 
L 244.594524 114.322375 
L 245.203861 113.777365 
L 245.813197 113.673173 
L 246.422534 113.905603 
L 247.03187 113.985751 
L 247.641207 113.480816 
L 248.250544 112.727421 
L 249.469217 112.623228 
L 250.68789 111.581299 
L 251.297227 111.541224 
L 251.906563 110.996215 
L 252.5159 111.613358 
L 253.125236 110.098553 
L 253.734573 109.99436 
L 254.34391 110.643562 
L 255.562583 109.826048 
L 256.17192 110.162672 
L 256.781256 108.575733 
L 257.390593 109.377217 
L 257.999929 109.665751 
L 258.609266 109.385232 
L 259.218603 108.631837 
L 259.827939 108.158961 
L 260.437276 108.359332 
L 261.655949 107.469685 
L 262.265286 107.95859 
L 262.874622 107.493729 
L 263.483959 107.485714 
L 264.093295 106.604082 
L 264.702632 106.499889 
L 265.311969 106.70026 
L 265.921305 107.076957 
L 266.530642 106.131206 
L 267.139979 105.506048 
L 267.749315 105.730464 
L 268.358652 105.67436 
L 268.967988 105.353766 
L 269.577325 104.472134 
L 270.186662 104.608386 
L 270.795998 105.570167 
L 272.624008 103.943154 
L 273.233345 104.231688 
L 273.842681 103.326011 
L 274.452018 103.991243 
L 275.061354 103.40616 
L 275.670691 103.005417 
L 276.889364 102.676809 
L 277.498701 102.035622 
L 278.108037 102.252022 
L 278.717374 101.490612 
L 279.326711 101.674954 
L 281.154721 101.346345 
L 281.764057 101.418479 
L 282.373394 100.456698 
L 282.98273 100.424638 
L 283.592067 101.057811 
L 284.201404 100.232282 
L 284.81074 99.879629 
L 286.029413 99.895659 
L 286.63875 99.56705 
L 287.248087 100.288386 
L 287.857423 99.158293 
L 288.46676 99.719332 
L 290.29477 98.004156 
L 290.904106 98.108349 
L 291.513443 97.643488 
L 292.122779 97.731651 
L 292.732116 98.148423 
L 293.341453 96.882078 
L 293.950789 97.186642 
L 294.560126 96.473321 
L 295.169463 96.449276 
L 295.778799 96.296994 
L 296.388136 96.593544 
L 296.997472 96.128683 
L 297.606809 95.166902 
L 298.216146 95.439406 
L 298.825482 94.974545 
L 299.434819 95.174917 
L 300.044155 95.006605 
L 300.653492 94.357403 
L 301.262829 94.557774 
L 301.872165 93.483785 
L 302.481502 94.405492 
L 303.090838 94.325343 
L 303.700175 94.509685 
L 304.309512 92.71436 
L 304.918848 93.363562 
L 305.528185 93.604007 
L 306.137521 93.099072 
L 306.746858 92.802523 
L 307.356195 92.986865 
L 307.965531 92.305603 
L 308.574868 92.497959 
L 309.793541 91.68846 
L 310.402878 90.646531 
L 311.012214 91.68846 
L 311.621551 91.448015 
L 312.230888 90.94308 
L 312.840224 91.431985 
L 313.449561 90.903006 
L 314.058897 90.742709 
L 314.668234 91.119406 
L 315.277571 89.780928 
L 316.496244 90.101521 
L 317.10558 89.893135 
L 317.714917 89.364156 
L 318.324254 89.676735 
L 318.93359 89.275993 
L 319.542927 88.41039 
L 320.152264 88.610761 
L 320.7616 88.041707 
L 321.370937 88.226048 
L 321.980273 88.546642 
L 322.58961 87.86538 
L 323.198947 87.929499 
L 323.808283 87.015807 
L 324.41762 86.799406 
L 325.026956 87.280297 
L 326.24563 86.863525 
L 326.854966 85.885714 
L 327.464303 86.286456 
L 328.073639 85.509017 
L 328.682976 86.062041 
L 329.292313 86.086085 
L 329.901649 85.805566 
L 331.120322 85.725417 
L 331.729659 84.980037 
L 332.338996 85.236512 
L 332.948332 85.308646 
L 334.167006 84.451058 
L 334.776342 83.657588 
L 335.385679 84.258701 
L 335.995015 83.841929 
L 337.823025 83.008386 
L 338.432362 83.54538 
L 339.041698 82.896178 
L 339.651035 83.104564 
L 340.260372 82.840074 
L 340.869708 82.415288 
L 341.479045 83.216772 
L 342.088381 83.04846 
L 342.697718 81.742041 
L 343.307055 82.415288 
L 343.916391 81.52564 
L 344.525728 81.493581 
L 345.135064 80.876438 
L 345.744401 81.453506 
L 346.353738 80.740186 
L 346.963074 81.036735 
L 348.181748 80.139072 
L 348.791084 80.459666 
L 349.400421 80.483711 
L 350.009757 80.066939 
L 350.619094 79.850538 
L 351.228431 79.409722 
L 351.837767 79.914657 
L 352.447104 79.377662 
L 353.05644 79.305529 
L 353.665777 78.552134 
L 354.275114 78.367792 
L 354.88445 79.049054 
L 355.493787 78.488015 
L 356.103123 78.423896 
L 356.71246 77.96705 
L 357.321797 77.117477 
L 357.931133 77.47013 
L 358.54047 77.061373 
L 359.149807 77.061373 
L 359.759143 76.131651 
L 360.36848 76.909091 
L 360.977816 77.325863 
L 361.587153 76.187755 
L 362.19649 75.923265 
L 362.805826 76.147681 
L 363.415163 75.91525 
L 364.024499 76.468275 
L 364.633836 75.979369 
L 365.243173 75.113766 
L 365.852509 75.290093 
L 366.461846 75.193915 
L 367.071182 74.737069 
L 367.680519 75.69885 
L 368.289856 75.490464 
L 368.899192 75.073692 
L 369.508529 74.352356 
L 370.117865 74.576772 
L 370.727202 74.304267 
L 371.336539 74.376401 
L 371.945875 74.192059 
L 372.555212 73.582931 
L 373.164549 73.871466 
L 373.773885 73.430649 
L 374.383222 73.695139 
L 374.992558 72.821521 
L 376.820568 73.430649 
L 377.429905 72.989833 
L 378.039241 72.380705 
L 378.648578 72.060111 
L 379.257915 71.979963 
L 379.867251 72.084156 
L 380.476588 71.827681 
L 381.085924 72.252468 
L 381.695261 72.116215 
L 382.304598 71.450983 
L 382.913934 72.589091 
L 383.523271 71.827681 
L 384.132607 71.539147 
L 384.741944 70.938033 
L 385.351281 70.785751 
L 385.960617 71.09833 
L 386.569954 70.160594 
L 387.179291 71.402894 
L 387.788627 69.992282 
L 388.397964 70.825826 
L 389.0073 71.122375 
L 389.616637 70.096475 
L 390.225974 69.639629 
L 390.83531 70.232727 
L 392.053983 68.870204 
L 392.66332 69.335065 
L 393.272657 68.886234 
L 393.881993 69.134694 
L 395.100666 68.653803 
L 395.710003 67.916438 
L 396.31934 68.653803 
L 396.928676 69.150724 
L 398.14735 67.435547 
L 398.756686 67.595844 
L 399.366023 68.253061 
L 399.975359 67.355399 
L 400.584696 67.098924 
L 401.194033 66.714212 
L 401.803369 67.155028 
L 403.631379 66.273395 
L 404.240716 66.457737 
L 404.850052 66.145158 
L 405.459389 66.465751 
L 406.678062 65.27154 
L 407.287399 65.151317 
L 407.896735 66.257365 
L 408.506072 65.600148 
L 409.115408 64.614323 
L 409.724745 64.253655 
L 410.334082 65.263525 
L 410.943418 65.439852 
L 411.552755 64.221596 
L 412.162092 64.462041 
L 412.771428 64.942931 
L 413.380765 63.884972 
L 413.990101 63.836883 
L 414.599438 62.931206 
L 415.208775 62.95525 
L 415.818111 63.836883 
L 416.427448 63.74872 
L 417.036784 62.754879 
L 418.255458 63.21974 
L 418.864794 62.562523 
L 419.474131 62.98731 
L 420.083467 62.033544 
L 420.692804 62.298033 
L 421.302141 61.640816 
L 421.911477 62.025529 
L 422.520814 61.817143 
L 423.13015 60.45462 
L 423.739487 61.720965 
L 424.348824 62.097662 
L 424.95816 62.113692 
L 425.567497 61.664861 
L 426.176834 61.023673 
L 426.78617 61.087792 
L 427.395507 60.695065 
L 428.61418 61.095807 
L 429.223517 59.597032 
L 429.832853 60.126011 
L 430.44219 60.382486 
L 431.051526 60.166085 
L 432.2702 61.248089 
L 432.879536 60.719109 
L 433.488873 59.757328 
L 434.098209 59.292468 
L 434.707546 59.741299 
L 435.316883 59.605046 
L 435.926219 58.843636 
L 436.535556 59.16423 
L 437.144893 58.68334 
L 437.754229 59.404675 
L 438.363566 58.971874 
L 438.972902 58.699369 
L 441.410249 58.515028 
L 442.019585 57.88987 
L 442.628922 57.713544 
L 443.238259 57.208609 
L 443.847595 57.104416 
L 444.456932 57.176549 
L 445.066268 57.489128 
L 445.675605 56.575436 
L 446.284942 57.192579 
L 446.894278 56.423154 
L 447.503615 56.912059 
L 448.112951 56.391095 
L 448.722288 56.928089 
L 449.331625 56.006382 
L 449.940961 55.950278 
L 451.159635 56.174694 
L 451.768971 55.581596 
L 452.378308 56.286902 
L 452.987644 55.293061 
L 453.596981 55.349165 
L 454.206318 55.573581 
L 454.815654 54.836215 
L 455.424991 54.868275 
L 456.034327 54.427458 
L 456.643664 54.756067 
L 457.253001 53.866419 
L 457.862337 54.57974 
L 458.471674 53.770241 
L 459.08101 54.84423 
L 459.690347 53.914508 
L 460.299684 54.002672 
L 460.90902 52.984787 
L 461.518357 53.914508 
L 462.127693 53.161113 
L 462.73703 53.658033 
L 463.346367 52.223377 
L 463.955703 53.537811 
L 464.56504 53.642004 
L 465.174377 52.896623 
L 466.39305 52.359629 
L 467.611723 52.471837 
L 468.22106 51.461967 
L 468.830396 53.05692 
L 469.439733 51.598219 
L 470.049069 51.325714 
L 470.658406 51.934842 
L 471.267743 51.558145 
L 471.877079 50.684527 
L 472.486416 51.486011 
L 473.095752 51.293655 
L 473.705089 51.838664 
L 474.314426 50.916957 
L 474.923762 51.630278 
L 475.533099 49.899072 
L 476.142436 51.133358 
L 476.751772 50.395993 
L 477.361109 49.867013 
L 477.970445 50.131503 
L 478.579782 51.029165 
L 479.798455 51.381818 
L 480.407792 49.546419 
L 481.017128 50.059369 
L 481.626465 49.770835 
L 482.235802 50.444082 
L 482.845138 49.089573 
L 483.454475 49.025455 
L 484.063811 49.578479 
L 484.673148 49.338033 
L 485.282485 50.01128 
L 485.891821 49.554434 
L 486.501158 48.50449 
L 487.110494 48.552579 
L 487.719831 49.081558 
L 488.329168 49.241855 
L 489.547841 48.680816 
L 490.157178 48.760965 
L 490.766514 49.033469 
L 491.375851 48.961336 
L 491.985187 47.919406 
L 493.203861 48.424341 
L 493.813197 48.680816 
L 495.641207 48.031614 
L 496.250544 48.272059 
L 496.85988 47.614842 
L 497.469217 46.685121 
L 498.078553 46.612987 
L 498.68789 47.694991 
L 499.297227 47.262189 
L 499.906563 46.212245 
L 500.5159 47.166011 
L 501.125236 47.630872 
L 501.734573 46.292393 
L 502.34391 45.530983 
L 502.953246 46.781299 
L 503.562583 45.995844 
L 504.17192 46.236289 
L 504.781256 46.308423 
L 505.390593 45.72334 
L 505.999929 46.180186 
L 506.609266 46.140111 
L 507.218603 45.547013 
L 507.827939 45.226419 
L 508.437276 44.721484 
L 509.046612 45.627161 
L 509.655949 45.090167 
L 510.265286 45.69128 
L 510.874622 45.138256 
L 511.483959 44.881781 
L 512.093295 44.224564 
L 512.702632 45.715325 
L 513.311969 44.569202 
L 513.921305 45.130241 
L 514.530642 44.240594 
L 515.139979 44.92987 
L 515.749315 44.529128 
L 516.358652 44.336772 
L 517.577325 43.567347 
L 518.795998 43.984119 
L 519.405335 42.854026 
L 520.014671 42.781892 
L 520.624008 43.663525 
L 521.233345 43.086456 
L 521.842681 43.222709 
L 522.452018 42.829981 
L 523.670691 42.653655 
L 524.280028 42.653655 
L 524.889364 42.38115 
L 525.498701 42.453284 
L 526.108037 42.389165 
L 526.717374 43.014323 
L 527.326711 41.747978 
L 527.936047 42.998293 
L 529.154721 42.020482 
L 529.764057 42.365121 
L 530.373394 41.731948 
L 530.98273 42.092616 
L 531.592067 41.587681 
L 532.201404 42.012468 
L 533.420077 41.475473 
L 534.029413 41.667829 
L 534.63875 41.667829 
L 535.248087 42.38115 
L 535.857423 41.307161 
L 536.46676 41.659814 
L 537.076096 41.154879 
L 537.685433 41.38731 
L 538.29477 40.866345 
L 538.904106 42.14872 
L 539.513443 40.738108 
L 540.122779 40.136994 
L 540.732116 40.706048 
L 541.341453 39.928609 
L 541.950789 40.569796 
L 542.560126 40.465603 
L 543.169463 40.770167 
L 543.778799 39.543896 
L 544.388136 40.754137 
L 545.606809 39.912579 
L 546.216146 40.008757 
L 546.825482 40.826271 
L 547.434819 39.648089 
L 548.044155 39.680148 
L 548.653492 38.934768 
L 549.262829 40.145009 
L 549.872165 39.431688 
L 550.481502 39.415659 
L 551.090838 40.072876 
L 551.700175 39.167199 
L 552.309512 38.998887 
L 552.918848 39.511837 
L 553.528185 39.07102 
L 554.137521 38.405788 
L 554.746858 38.814545 
L 555.356195 38.485937 
L 555.965531 38.982857 
L 556.574868 38.245492 
L 557.793541 38.085195 
L 558.402878 38.101224 
L 559.012214 37.556215 
L 559.621551 37.860779 
L 560.230888 37.620334 
L 560.840224 37.860779 
L 561.449561 38.453878 
L 562.058897 37.724527 
L 562.668234 37.700482 
L 563.277571 37.323785 
L 563.886907 37.612319 
L 564.496244 37.283711 
L 565.10558 37.572245 
L 565.714917 37.203562 
L 566.93359 37.524156 
L 567.542927 37.03525 
L 568.152264 36.907013 
L 568.7616 36.386048 
L 569.370937 37.075325 
L 569.980273 37.243636 
L 571.198947 36.225751 
L 571.808283 36.971132 
L 572.41762 36.394063 
L 573.026956 36.626494 
L 573.636293 35.873098 
L 574.24563 36.602449 
L 574.854966 35.857069 
L 576.073639 36.033395 
L 576.682976 36.225751 
L 577.292313 36.033395 
L 577.901649 36.442152 
L 578.510986 36.001336 
L 579.120322 36.794805 
L 579.729659 36.698627 
L 580.338996 36.081484 
L 580.948332 36.345974 
L 581.557669 35.384193 
L 582.167006 36.145603 
L 582.776342 36.105529 
L 583.385679 34.799109 
L 583.995015 35.881113 
L 584.604352 35.456327 
L 585.213689 35.312059 
L 585.823025 34.590724 
L 586.432362 34.374323 
L 587.041698 35.055584 
L 587.651035 35.159777 
L 588.260372 34.702931 
L 589.479045 34.895288 
L 590.088381 34.999481 
L 590.697718 34.542635 
L 591.307055 35.865083 
L 592.525728 34.294174 
L 593.135064 34.662857 
L 593.744401 34.013655 
L 594.353738 34.654842 
L 594.963074 33.941521 
L 595.572411 34.550649 
L 596.181748 33.115993 
L 596.791084 34.2541 
L 597.400421 34.27013 
L 598.009757 33.484675 
L 598.619094 34.069759 
L 600.447104 33.436586 
L 601.05644 33.725121 
L 601.665777 33.212171 
L 602.275114 34.390353 
L 602.88445 33.444601 
L 604.71246 33.677032 
L 605.321797 32.71525 
L 605.931133 33.172096 
L 606.54047 32.090093 
L 607.149807 33.212171 
L 607.759143 33.067904 
L 608.36848 33.083933 
L 608.977816 32.242375 
L 609.587153 33.172096 
L 610.19649 32.522894 
L 610.805826 32.931651 
L 611.415163 32.114137 
L 612.024499 32.522894 
L 612.633836 32.386642 
L 613.243173 31.384787 
L 613.852509 32.370612 
L 614.461846 31.72141 
L 615.071182 31.264564 
L 615.680519 31.593173 
L 616.289856 31.256549 
L 616.899192 32.562968 
L 617.508529 32.082078 
L 618.727202 31.745455 
L 619.336539 31.112282 
L 619.945875 30.767644 
L 620.555212 30.807718 
L 621.164549 30.69551 
L 621.773885 30.927941 
L 622.383222 30.631391 
L 622.992558 30.735584 
L 623.601895 30.551243 
L 624.211232 30.070353 
L 624.820568 31.216475 
L 625.429905 30.086382 
L 626.039241 31.48898 
L 626.648578 30.374917 
L 627.257915 29.677625 
L 627.867251 29.982189 
L 628.476588 31.681336 
L 629.085924 30.19859 
L 629.695261 30.44705 
L 630.304598 29.429165 
L 630.913934 29.180705 
L 631.523271 29.805863 
L 632.132607 30.238664 
L 632.741944 29.821892 
L 633.351281 29.004378 
L 634.569954 29.613506 
L 635.179291 29.549388 
L 635.788627 29.349017 
L 637.616637 29.373061 
L 638.225974 29.68564 
L 638.83531 29.349017 
L 639.444647 29.525343 
L 640.053983 28.42731 
L 640.66332 29.45321 
L 641.881993 28.795993 
L 642.49133 28.868126 
L 643.100666 29.252839 
L 643.710003 28.956289 
L 644.31934 28.130761 
L 644.928676 28.92423 
L 645.538013 28.587607 
L 646.14735 27.802152 
L 646.756686 28.980334 
L 647.366023 27.922375 
L 647.975359 28.892171 
L 648.584696 28.258998 
L 649.194033 27.91436 
L 649.803369 27.946419 
L 650.412706 29.220779 
L 651.022042 27.978479 
L 651.631379 29.324972 
L 652.240716 28.226939 
L 652.850052 28.451354 
L 653.459389 27.786122 
L 654.068725 27.858256 
L 654.678062 27.481558 
L 655.287399 27.705974 
L 655.896735 27.064787 
L 656.506072 27.513618 
L 657.115408 27.40141 
L 657.724745 27.016698 
L 658.334082 27.794137 
L 658.943418 27.281187 
L 659.552755 27.545677 
L 660.162092 26.672059 
L 660.771428 26.519777 
L 661.380765 27.529647 
L 661.990101 27.040742 
L 662.599438 26.103006 
L 663.208775 26.175139 
L 663.818111 28.082672 
L 664.427448 27.072801 
L 665.036784 27.160965 
L 665.646121 26.191169 
L 666.255458 26.87243 
L 666.864794 26.648015 
L 667.474131 26.631985 
L 668.083467 27.545677 
L 668.692804 26.88846 
L 669.302141 27.241113 
L 669.911477 26.39154 
L 670.520814 26.864416 
L 671.13015 26.816327 
L 672.348824 26.119035 
L 672.95816 27.160965 
L 673.567497 26.247273 
L 674.176834 27.38538 
L 674.78617 25.261447 
L 675.395507 26.287347 
L 676.004843 25.63013 
L 676.61418 25.6141 
L 677.223517 26.367495 
L 677.832853 25.285492 
L 678.44219 26.463673 
L 679.660863 25.517922 
L 680.2702 26.191169 
L 680.879536 25.029017 
L 681.488873 25.710278 
L 682.098209 25.934694 
L 682.707546 24.932839 
L 683.926219 26.038887 
L 684.535556 24.187458 
L 685.144893 25.582041 
L 685.754229 25.670204 
L 686.363566 25.085121 
L 686.972902 24.211503 
L 687.582239 25.069091 
L 688.800912 25.093135 
L 689.410249 24.580186 
L 690.019585 24.403859 
L 690.628922 23.866865 
L 691.238259 25.10115 
L 691.847595 24.780557 
L 692.456932 24.948868 
L 693.066268 24.572171 
L 693.675605 25.029017 
L 694.284942 25.694249 
L 694.894278 24.812616 
L 695.503615 24.331725 
L 696.112951 23.241707 
L 698.550298 24.019147 
L 699.159635 23.890909 
L 699.768971 23.442078 
L 700.378308 24.3718 
L 700.987644 24.011132 
L 701.596981 23.442078 
L 702.206318 23.690538 
L 702.815654 23.31384 
L 703.424991 23.59436 
L 704.034327 24.179443 
L 704.643664 22.616549 
L 705.253001 23.602375 
L 705.862337 23.225677 
L 707.08101 23.890909 
L 707.690347 23.914954 
L 708.299684 23.82679 
L 708.90902 23.546271 
L 709.518357 23.586345 
L 710.127693 22.953173 
L 710.73703 22.720742 
L 711.346367 23.458108 
L 711.955703 22.680668 
L 712.56504 23.562301 
L 713.174377 22.744787 
L 713.783713 22.32 
L 714.39305 23.177588 
L 715.002386 23.458108 
L 715.002386 23.458108 
" clip-path="url(#pf2fa79af23)" style="fill: none; stroke: #ff7f0e; stroke-width: 1.5; stroke-linecap: square"/>
   </g>
   <g id="patch_3">
    <path d="M 75.83875 339.84 
L 75.83875 7.2 
" style="fill: none; stroke: #000000; stroke-width: 0.8; stroke-linejoin: miter; stroke-linecap: square"/>
   </g>
   <g id="patch_4">
    <path d="M 745.43875 339.84 
L 745.43875 7.2 
" style="fill: none; stroke: #000000; stroke-width: 0.8; stroke-linejoin: miter; stroke-linecap: square"/>
   </g>
   <g id="patch_5">
    <path d="M 75.83875 339.84 
L 745.43875 339.84 
" style="fill: none; stroke: #000000; stroke-width: 0.8; stroke-linejoin: miter; stroke-linecap: square"/>
   </g>
   <g id="patch_6">
    <path d="M 75.83875 7.2 
L 745.43875 7.2 
" style="fill: none; stroke: #000000; stroke-width: 0.8; stroke-linejoin: miter; stroke-linecap: square"/>
   </g>
   <g id="legend_1">
    <g id="patch_7">
     <path d="M 413.41875 326.84 
L 727.23875 326.84 
Q 732.43875 326.84 732.43875 321.64 
L 732.43875 247.856875 
Q 732.43875 242.656875 727.23875 242.656875 
L 413.41875 242.656875 
Q 408.21875 242.656875 408.21875 247.856875 
L 408.21875 321.64 
Q 408.21875 326.84 413.41875 326.84 
z
" style="fill: #ffffff; opacity: 0.8; stroke: #cccccc; stroke-linejoin: miter"/>
    </g>
    <g id="line2d_17">
     <path d="M 418.61875 263.712812 
L 444.61875 263.712812 
L 470.61875 263.712812 
" style="fill: none; stroke: #1f77b4; stroke-width: 1.5; stroke-linecap: square"/>
    </g>
    <g id="text_17">
     <!-- UCB ($c=2$) -->
     <g transform="translate(491.41875 272.812812) scale(0.26 -0.26)">
      <defs>
       <path id="DejaVuSans-55" d="M 556 4666 
L 1191 4666 
L 1191 1831 
Q 1191 1081 1462 751 
Q 1734 422 2344 422 
Q 2950 422 3222 751 
Q 3494 1081 3494 1831 
L 3494 4666 
L 4128 4666 
L 4128 1753 
Q 4128 841 3676 375 
Q 3225 -91 2344 -91 
Q 1459 -91 1007 375 
Q 556 841 556 1753 
L 556 4666 
z
" transform="scale(0.015625)"/>
       <path id="DejaVuSans-43" d="M 4122 4306 
L 4122 3641 
Q 3803 3938 3442 4084 
Q 3081 4231 2675 4231 
Q 1875 4231 1450 3742 
Q 1025 3253 1025 2328 
Q 1025 1406 1450 917 
Q 1875 428 2675 428 
Q 3081 428 3442 575 
Q 3803 722 4122 1019 
L 4122 359 
Q 3791 134 3420 21 
Q 3050 -91 2638 -91 
Q 1578 -91 968 557 
Q 359 1206 359 2328 
Q 359 3453 968 4101 
Q 1578 4750 2638 4750 
Q 3056 4750 3426 4639 
Q 3797 4528 4122 4306 
z
" transform="scale(0.015625)"/>
       <path id="DejaVuSans-42" d="M 1259 2228 
L 1259 519 
L 2272 519 
Q 2781 519 3026 730 
Q 3272 941 3272 1375 
Q 3272 1813 3026 2020 
Q 2781 2228 2272 2228 
L 1259 2228 
z
M 1259 4147 
L 1259 2741 
L 2194 2741 
Q 2656 2741 2882 2914 
Q 3109 3088 3109 3444 
Q 3109 3797 2882 3972 
Q 2656 4147 2194 4147 
L 1259 4147 
z
M 628 4666 
L 2241 4666 
Q 2963 4666 3353 4366 
Q 3744 4066 3744 3513 
Q 3744 3084 3544 2831 
Q 3344 2578 2956 2516 
Q 3422 2416 3680 2098 
Q 3938 1781 3938 1306 
Q 3938 681 3513 340 
Q 3088 0 2303 0 
L 628 0 
L 628 4666 
z
" transform="scale(0.015625)"/>
       <path id="DejaVuSans-28" d="M 1984 4856 
Q 1566 4138 1362 3434 
Q 1159 2731 1159 2009 
Q 1159 1288 1364 580 
Q 1569 -128 1984 -844 
L 1484 -844 
Q 1016 -109 783 600 
Q 550 1309 550 2009 
Q 550 2706 781 3412 
Q 1013 4119 1484 4856 
L 1984 4856 
z
" transform="scale(0.015625)"/>
       <path id="DejaVuSans-Oblique-63" d="M 3431 3366 
L 3316 2797 
Q 3109 2947 2876 3022 
Q 2644 3097 2394 3097 
Q 2119 3097 1870 3000 
Q 1622 2903 1453 2725 
Q 1184 2453 1037 2087 
Q 891 1722 891 1331 
Q 891 859 1127 628 
Q 1363 397 1844 397 
Q 2081 397 2348 469 
Q 2616 541 2906 684 
L 2797 116 
Q 2547 13 2283 -39 
Q 2019 -91 1741 -91 
Q 1044 -91 669 257 
Q 294 606 294 1253 
Q 294 1797 489 2255 
Q 684 2713 1069 3078 
Q 1331 3328 1684 3456 
Q 2038 3584 2456 3584 
Q 2700 3584 2940 3529 
Q 3181 3475 3431 3366 
z
" transform="scale(0.015625)"/>
       <path id="DejaVuSans-3d" d="M 678 2906 
L 4684 2906 
L 4684 2381 
L 678 2381 
L 678 2906 
z
M 678 1631 
L 4684 1631 
L 4684 1100 
L 678 1100 
L 678 1631 
z
" transform="scale(0.015625)"/>
       <path id="DejaVuSans-29" d="M 513 4856 
L 1013 4856 
Q 1481 4119 1714 3412 
Q 1947 2706 1947 2009 
Q 1947 1309 1714 600 
Q 1481 -109 1013 -844 
L 513 -844 
Q 928 -128 1133 580 
Q 1338 1288 1338 2009 
Q 1338 2731 1133 3434 
Q 928 4138 513 4856 
z
" transform="scale(0.015625)"/>
      </defs>
      <use xlink:href="#DejaVuSans-55" transform="translate(0 0.125)"/>
      <use xlink:href="#DejaVuSans-43" transform="translate(73.193359 0.125)"/>
      <use xlink:href="#DejaVuSans-42" transform="translate(143.017578 0.125)"/>
      <use xlink:href="#DejaVuSans-20" transform="translate(211.621094 0.125)"/>
      <use xlink:href="#DejaVuSans-28" transform="translate(243.408203 0.125)"/>
      <use xlink:href="#DejaVuSans-Oblique-63" transform="translate(282.421875 0.125)"/>
      <use xlink:href="#DejaVuSans-3d" transform="translate(356.884766 0.125)"/>
      <use xlink:href="#DejaVuSans-32" transform="translate(460.15625 0.125)"/>
      <use xlink:href="#DejaVuSans-29" transform="translate(523.779297 0.125)"/>
     </g>
    </g>
    <g id="line2d_18">
     <path d="M 418.61875 301.88 
L 444.61875 301.88 
L 470.61875 301.88 
" style="fill: none; stroke: #ff7f0e; stroke-width: 1.5; stroke-linecap: square"/>
    </g>
    <g id="text_18">
     <!-- $\epsilon$-greedy ($\epsilon=0.1$) -->
     <g transform="translate(491.41875 310.98) scale(0.26 -0.26)">
      <defs>
       <path id="DejaVuSans-Oblique-3b5" d="M 1263 1888 
Q 925 1963 778 2166 
Q 669 2309 669 2503 
Q 669 3034 1175 3344 
Q 1575 3588 2188 3588 
Q 2425 3588 2684 3550 
Q 2944 3513 3234 3438 
L 3134 2916 
Q 2847 3006 2606 3047 
Q 2359 3088 2138 3088 
Q 1766 3088 1522 2944 
Q 1228 2772 1228 2522 
Q 1228 2356 1381 2241 
Q 1563 2103 1925 2103 
L 2409 2103 
L 2319 1628 
L 1856 1628 
Q 1425 1628 1172 1469 
Q 828 1253 828 916 
Q 828 703 1013 563 
Q 1244 388 1716 388 
Q 2006 388 2284 444 
Q 2563 503 2806 619 
L 2700 84 
Q 2403 -3 2131 -47 
Q 1859 -91 1609 -91 
Q 866 -91 516 194 
Q 250 413 250 781 
Q 250 1278 600 1584 
Q 859 1813 1263 1888 
z
" transform="scale(0.015625)"/>
       <path id="DejaVuSans-2d" d="M 313 2009 
L 1997 2009 
L 1997 1497 
L 313 1497 
L 313 2009 
z
" transform="scale(0.015625)"/>
       <path id="DejaVuSans-67" d="M 2906 1791 
Q 2906 2416 2648 2759 
Q 2391 3103 1925 3103 
Q 1463 3103 1205 2759 
Q 947 2416 947 1791 
Q 947 1169 1205 825 
Q 1463 481 1925 481 
Q 2391 481 2648 825 
Q 2906 1169 2906 1791 
z
M 3481 434 
Q 3481 -459 3084 -895 
Q 2688 -1331 1869 -1331 
Q 1566 -1331 1297 -1286 
Q 1028 -1241 775 -1147 
L 775 -588 
Q 1028 -725 1275 -790 
Q 1522 -856 1778 -856 
Q 2344 -856 2625 -561 
Q 2906 -266 2906 331 
L 2906 616 
Q 2728 306 2450 153 
Q 2172 0 1784 0 
Q 1141 0 747 490 
Q 353 981 353 1791 
Q 353 2603 747 3093 
Q 1141 3584 1784 3584 
Q 2172 3584 2450 3431 
Q 2728 3278 2906 2969 
L 2906 3500 
L 3481 3500 
L 3481 434 
z
" transform="scale(0.015625)"/>
       <path id="DejaVuSans-72" d="M 2631 2963 
Q 2534 3019 2420 3045 
Q 2306 3072 2169 3072 
Q 1681 3072 1420 2755 
Q 1159 2438 1159 1844 
L 1159 0 
L 581 0 
L 581 3500 
L 1159 3500 
L 1159 2956 
Q 1341 3275 1631 3429 
Q 1922 3584 2338 3584 
Q 2397 3584 2469 3576 
Q 2541 3569 2628 3553 
L 2631 2963 
z
" transform="scale(0.015625)"/>
       <path id="DejaVuSans-64" d="M 2906 2969 
L 2906 4863 
L 3481 4863 
L 3481 0 
L 2906 0 
L 2906 525 
Q 2725 213 2448 61 
Q 2172 -91 1784 -91 
Q 1150 -91 751 415 
Q 353 922 353 1747 
Q 353 2572 751 3078 
Q 1150 3584 1784 3584 
Q 2172 3584 2448 3432 
Q 2725 3281 2906 2969 
z
M 947 1747 
Q 947 1113 1208 752 
Q 1469 391 1925 391 
Q 2381 391 2643 752 
Q 2906 1113 2906 1747 
Q 2906 2381 2643 2742 
Q 2381 3103 1925 3103 
Q 1469 3103 1208 2742 
Q 947 2381 947 1747 
z
" transform="scale(0.015625)"/>
       <path id="DejaVuSans-79" d="M 2059 -325 
Q 1816 -950 1584 -1140 
Q 1353 -1331 966 -1331 
L 506 -1331 
L 506 -850 
L 844 -850 
Q 1081 -850 1212 -737 
Q 1344 -625 1503 -206 
L 1606 56 
L 191 3500 
L 800 3500 
L 1894 763 
L 2988 3500 
L 3597 3500 
L 2059 -325 
z
" transform="scale(0.015625)"/>
       <path id="DejaVuSans-2e" d="M 684 794 
L 1344 794 
L 1344 0 
L 684 0 
L 684 794 
z
" transform="scale(0.015625)"/>
      </defs>
      <use xlink:href="#DejaVuSans-Oblique-3b5" transform="translate(0 0.015625)"/>
      <use xlink:href="#DejaVuSans-2d" transform="translate(54.052734 0.015625)"/>
      <use xlink:href="#DejaVuSans-67" transform="translate(90.136719 0.015625)"/>
      <use xlink:href="#DejaVuSans-72" transform="translate(153.613281 0.015625)"/>
      <use xlink:href="#DejaVuSans-65" transform="translate(194.726562 0.015625)"/>
      <use xlink:href="#DejaVuSans-65" transform="translate(256.25 0.015625)"/>
      <use xlink:href="#DejaVuSans-64" transform="translate(317.773438 0.015625)"/>
      <use xlink:href="#DejaVuSans-79" transform="translate(381.25 0.015625)"/>
      <use xlink:href="#DejaVuSans-20" transform="translate(440.429688 0.015625)"/>
      <use xlink:href="#DejaVuSans-28" transform="translate(472.216797 0.015625)"/>
      <use xlink:href="#DejaVuSans-Oblique-3b5" transform="translate(511.230469 0.015625)"/>
      <use xlink:href="#DejaVuSans-3d" transform="translate(584.765625 0.015625)"/>
      <use xlink:href="#DejaVuSans-30" transform="translate(688.037109 0.015625)"/>
      <use xlink:href="#DejaVuSans-2e" transform="translate(751.660156 0.015625)"/>
      <use xlink:href="#DejaVuSans-31" transform="translate(783.447266 0.015625)"/>
      <use xlink:href="#DejaVuSans-29" transform="translate(847.070312 0.015625)"/>
     </g>
    </g>
   </g>
  </g>
 </g>
 <defs>
  <clipPath id="pf2fa79af23">
   <rect x="75.83875" y="7.2" width="669.6" height="332.64"/>
  </clipPath>
 </defs>
</svg>
