<?xml version="1.0" encoding="utf-8" standalone="no"?>
<!DOCTYPE svg PUBLIC "-//W3C//DTD SVG 1.1//EN"
  "http://www.w3.org/Graphics/SVG/1.1/DTD/svg11.dtd">
<svg xmlns:xlink="http://www.w3.org/1999/xlink" width="730.235625pt" height="389.01pt" viewBox="0 0 730.235625 389.01" xmlns="http://www.w3.org/2000/svg" version="1.1">
 <metadata>
  <rdf:RDF xmlns:dc="http://purl.org/dc/elements/1.1/" xmlns:cc="http://creativecommons.org/ns#" xmlns:rdf="http://www.w3.org/1999/02/22-rdf-syntax-ns#">
   <cc:Work>
    <dc:type rdf:resource="http://purl.org/dc/dcmitype/StillImage"/>
    <dc:date>2026-03-08T09:24:41.054517</dc:date>
    <dc:format>image/svg+xml</dc:format>
    <dc:creator>
     <cc:Agent>
      <dc:title>Matplotlib v3.10.3, https://matplotlib.org/</dc:title>
     </cc:Agent>
    </dc:creator>
   </cc:Work>
  </rdf:RDF>
 </metadata>
 <defs>
  <style type="text/css">*{stroke-linejoin: round; stroke-linecap: butt}</style>
 </defs>
 <g id="figure_1">
  <g id="patch_1">
   <path d="M 0 389.01 
L 730.235625 389.01 
L 730.235625 0 
L 0 0 
L 0 389.01 
z
" style="fill: none"/>
  </g>
  <g id="axes_1">
   <g id="patch_2">
    <path d="M 53.435625 339.84 
L 723.035625 339.84 
L 723.035625 7.2 
L 53.435625 7.2 
L 53.435625 339.84 
z
" style="fill: none"/>
   </g>
   <g id="matplotlib.axis_1">
    <g id="xtick_1">
     <g id="line2d_1">
      <defs>
       <path id="m332abc30ba" d="M 0 0 
L 0 3.5 
" style="stroke: #ffffff; stroke-width: 0.8"/>
      </defs>
      <g>
       <use xlink:href="#m332abc30ba" x="83.871989" y="339.84" style="fill: #ffffff; stroke: #ffffff; stroke-width: 0.8"/>
      </g>
     </g>
     <g id="text_1">
      <!-- 0 -->
      <g style="fill: #ffffff" transform="translate(79.418239 357.477813) scale(0.14 -0.14)">
       <defs>
        <path id="DejaVuSans-30" d="M 2034 4250 
Q 1547 4250 1301 3770 
Q 1056 3291 1056 2328 
Q 1056 1369 1301 889 
Q 1547 409 2034 409 
Q 2525 409 2770 889 
Q 3016 1369 3016 2328 
Q 3016 3291 2770 3770 
Q 2525 4250 2034 4250 
z
M 2034 4750 
Q 2819 4750 3233 4129 
Q 3647 3509 3647 2328 
Q 3647 1150 3233 529 
Q 2819 -91 2034 -91 
Q 1250 -91 836 529 
Q 422 1150 422 2328 
Q 422 3509 836 4129 
Q 1250 4750 2034 4750 
z
" transform="scale(0.015625)"/>
       </defs>
       <use xlink:href="#DejaVuSans-30"/>
      </g>
     </g>
    </g>
    <g id="xtick_2">
     <g id="line2d_2">
      <g>
       <use xlink:href="#m332abc30ba" x="205.861422" y="339.84" style="fill: #ffffff; stroke: #ffffff; stroke-width: 0.8"/>
      </g>
     </g>
     <g id="text_2">
      <!-- 100 -->
      <g style="fill: #ffffff" transform="translate(192.500172 357.477813) scale(0.14 -0.14)">
       <defs>
        <path id="DejaVuSans-31" d="M 794 531 
L 1825 531 
L 1825 4091 
L 703 3866 
L 703 4441 
L 1819 4666 
L 2450 4666 
L 2450 531 
L 3481 531 
L 3481 0 
L 794 0 
L 794 531 
z
" transform="scale(0.015625)"/>
       </defs>
       <use xlink:href="#DejaVuSans-31"/>
       <use xlink:href="#DejaVuSans-30" transform="translate(63.623047 0)"/>
       <use xlink:href="#DejaVuSans-30" transform="translate(127.246094 0)"/>
      </g>
     </g>
    </g>
    <g id="xtick_3">
     <g id="line2d_3">
      <g>
       <use xlink:href="#m332abc30ba" x="327.850855" y="339.84" style="fill: #ffffff; stroke: #ffffff; stroke-width: 0.8"/>
      </g>
     </g>
     <g id="text_3">
      <!-- 200 -->
      <g style="fill: #ffffff" transform="translate(314.489605 357.477813) scale(0.14 -0.14)">
       <defs>
        <path id="DejaVuSans-32" d="M 1228 531 
L 3431 531 
L 3431 0 
L 469 0 
L 469 531 
Q 828 903 1448 1529 
Q 2069 2156 2228 2338 
Q 2531 2678 2651 2914 
Q 2772 3150 2772 3378 
Q 2772 3750 2511 3984 
Q 2250 4219 1831 4219 
Q 1534 4219 1204 4116 
Q 875 4013 500 3803 
L 500 4441 
Q 881 4594 1212 4672 
Q 1544 4750 1819 4750 
Q 2544 4750 2975 4387 
Q 3406 4025 3406 3419 
Q 3406 3131 3298 2873 
Q 3191 2616 2906 2266 
Q 2828 2175 2409 1742 
Q 1991 1309 1228 531 
z
" transform="scale(0.015625)"/>
       </defs>
       <use xlink:href="#DejaVuSans-32"/>
       <use xlink:href="#DejaVuSans-30" transform="translate(63.623047 0)"/>
       <use xlink:href="#DejaVuSans-30" transform="translate(127.246094 0)"/>
      </g>
     </g>
    </g>
    <g id="xtick_4">
     <g id="line2d_4">
      <g>
       <use xlink:href="#m332abc30ba" x="449.840289" y="339.84" style="fill: #ffffff; stroke: #ffffff; stroke-width: 0.8"/>
      </g>
     </g>
     <g id="text_4">
      <!-- 300 -->
      <g style="fill: #ffffff" transform="translate(436.479039 357.477813) scale(0.14 -0.14)">
       <defs>
        <path id="DejaVuSans-33" d="M 2597 2516 
Q 3050 2419 3304 2112 
Q 3559 1806 3559 1356 
Q 3559 666 3084 287 
Q 2609 -91 1734 -91 
Q 1441 -91 1130 -33 
Q 819 25 488 141 
L 488 750 
Q 750 597 1062 519 
Q 1375 441 1716 441 
Q 2309 441 2620 675 
Q 2931 909 2931 1356 
Q 2931 1769 2642 2001 
Q 2353 2234 1838 2234 
L 1294 2234 
L 1294 2753 
L 1863 2753 
Q 2328 2753 2575 2939 
Q 2822 3125 2822 3475 
Q 2822 3834 2567 4026 
Q 2313 4219 1838 4219 
Q 1578 4219 1281 4162 
Q 984 4106 628 3988 
L 628 4550 
Q 988 4650 1302 4700 
Q 1616 4750 1894 4750 
Q 2613 4750 3031 4423 
Q 3450 4097 3450 3541 
Q 3450 3153 3228 2886 
Q 3006 2619 2597 2516 
z
" transform="scale(0.015625)"/>
       </defs>
       <use xlink:href="#DejaVuSans-33"/>
       <use xlink:href="#DejaVuSans-30" transform="translate(63.623047 0)"/>
       <use xlink:href="#DejaVuSans-30" transform="translate(127.246094 0)"/>
      </g>
     </g>
    </g>
    <g id="xtick_5">
     <g id="line2d_5">
      <g>
       <use xlink:href="#m332abc30ba" x="571.829722" y="339.84" style="fill: #ffffff; stroke: #ffffff; stroke-width: 0.8"/>
      </g>
     </g>
     <g id="text_5">
      <!-- 400 -->
      <g style="fill: #ffffff" transform="translate(558.468472 357.477813) scale(0.14 -0.14)">
       <defs>
        <path id="DejaVuSans-34" d="M 2419 4116 
L 825 1625 
L 2419 1625 
L 2419 4116 
z
M 2253 4666 
L 3047 4666 
L 3047 1625 
L 3713 1625 
L 3713 1100 
L 3047 1100 
L 3047 0 
L 2419 0 
L 2419 1100 
L 313 1100 
L 313 1709 
L 2253 4666 
z
" transform="scale(0.015625)"/>
       </defs>
       <use xlink:href="#DejaVuSans-34"/>
       <use xlink:href="#DejaVuSans-30" transform="translate(63.623047 0)"/>
       <use xlink:href="#DejaVuSans-30" transform="translate(127.246094 0)"/>
      </g>
     </g>
    </g>
    <g id="xtick_6">
     <g id="line2d_6">
      <g>
       <use xlink:href="#m332abc30ba" x="693.819156" y="339.84" style="fill: #ffffff; stroke: #ffffff; stroke-width: 0.8"/>
      </g>
     </g>
     <g id="text_6">
      <!-- 500 -->
      <g style="fill: #ffffff" transform="translate(680.457906 357.477813) scale(0.14 -0.14)">
       <defs>
        <path id="DejaVuSans-35" d="M 691 4666 
L 3169 4666 
L 3169 4134 
L 1269 4134 
L 1269 2991 
Q 1406 3038 1543 3061 
Q 1681 3084 1819 3084 
Q 2600 3084 3056 2656 
Q 3513 2228 3513 1497 
Q 3513 744 3044 326 
Q 2575 -91 1722 -91 
Q 1428 -91 1123 -41 
Q 819 9 494 109 
L 494 744 
Q 775 591 1075 516 
Q 1375 441 1709 441 
Q 2250 441 2565 725 
Q 2881 1009 2881 1497 
Q 2881 1984 2565 2268 
Q 2250 2553 1709 2553 
Q 1456 2553 1204 2497 
Q 953 2441 691 2322 
L 691 4666 
z
" transform="scale(0.015625)"/>
       </defs>
       <use xlink:href="#DejaVuSans-35"/>
       <use xlink:href="#DejaVuSans-30" transform="translate(63.623047 0)"/>
       <use xlink:href="#DejaVuSans-30" transform="translate(127.246094 0)"/>
      </g>
     </g>
    </g>
    <g id="text_7">
     <!-- Steps -->
     <g style="fill: #ffffff" transform="translate(363.053906 378.066563) scale(0.18 -0.18)">
      <defs>
       <path id="DejaVuSans-53" d="M 3425 4513 
L 3425 3897 
Q 3066 4069 2747 4153 
Q 2428 4238 2131 4238 
Q 1616 4238 1336 4038 
Q 1056 3838 1056 3469 
Q 1056 3159 1242 3001 
Q 1428 2844 1947 2747 
L 2328 2669 
Q 3034 2534 3370 2195 
Q 3706 1856 3706 1288 
Q 3706 609 3251 259 
Q 2797 -91 1919 -91 
Q 1588 -91 1214 -16 
Q 841 59 441 206 
L 441 856 
Q 825 641 1194 531 
Q 1563 422 1919 422 
Q 2459 422 2753 634 
Q 3047 847 3047 1241 
Q 3047 1584 2836 1778 
Q 2625 1972 2144 2069 
L 1759 2144 
Q 1053 2284 737 2584 
Q 422 2884 422 3419 
Q 422 4038 858 4394 
Q 1294 4750 2059 4750 
Q 2388 4750 2728 4690 
Q 3069 4631 3425 4513 
z
" transform="scale(0.015625)"/>
       <path id="DejaVuSans-74" d="M 1172 4494 
L 1172 3500 
L 2356 3500 
L 2356 3053 
L 1172 3053 
L 1172 1153 
Q 1172 725 1289 603 
Q 1406 481 1766 481 
L 2356 481 
L 2356 0 
L 1766 0 
Q 1100 0 847 248 
Q 594 497 594 1153 
L 594 3053 
L 172 3053 
L 172 3500 
L 594 3500 
L 594 4494 
L 1172 4494 
z
" transform="scale(0.015625)"/>
       <path id="DejaVuSans-65" d="M 3597 1894 
L 3597 1613 
L 953 1613 
Q 991 1019 1311 708 
Q 1631 397 2203 397 
Q 2534 397 2845 478 
Q 3156 559 3463 722 
L 3463 178 
Q 3153 47 2828 -22 
Q 2503 -91 2169 -91 
Q 1331 -91 842 396 
Q 353 884 353 1716 
Q 353 2575 817 3079 
Q 1281 3584 2069 3584 
Q 2775 3584 3186 3129 
Q 3597 2675 3597 1894 
z
M 3022 2063 
Q 3016 2534 2758 2815 
Q 2500 3097 2075 3097 
Q 1594 3097 1305 2825 
Q 1016 2553 972 2059 
L 3022 2063 
z
" transform="scale(0.015625)"/>
       <path id="DejaVuSans-70" d="M 1159 525 
L 1159 -1331 
L 581 -1331 
L 581 3500 
L 1159 3500 
L 1159 2969 
Q 1341 3281 1617 3432 
Q 1894 3584 2278 3584 
Q 2916 3584 3314 3078 
Q 3713 2572 3713 1747 
Q 3713 922 3314 415 
Q 2916 -91 2278 -91 
Q 1894 -91 1617 61 
Q 1341 213 1159 525 
z
M 3116 1747 
Q 3116 2381 2855 2742 
Q 2594 3103 2138 3103 
Q 1681 3103 1420 2742 
Q 1159 2381 1159 1747 
Q 1159 1113 1420 752 
Q 1681 391 2138 391 
Q 2594 391 2855 752 
Q 3116 1113 3116 1747 
z
" transform="scale(0.015625)"/>
       <path id="DejaVuSans-73" d="M 2834 3397 
L 2834 2853 
Q 2591 2978 2328 3040 
Q 2066 3103 1784 3103 
Q 1356 3103 1142 2972 
Q 928 2841 928 2578 
Q 928 2378 1081 2264 
Q 1234 2150 1697 2047 
L 1894 2003 
Q 2506 1872 2764 1633 
Q 3022 1394 3022 966 
Q 3022 478 2636 193 
Q 2250 -91 1575 -91 
Q 1294 -91 989 -36 
Q 684 19 347 128 
L 347 722 
Q 666 556 975 473 
Q 1284 391 1588 391 
Q 1994 391 2212 530 
Q 2431 669 2431 922 
Q 2431 1156 2273 1281 
Q 2116 1406 1581 1522 
L 1381 1569 
Q 847 1681 609 1914 
Q 372 2147 372 2553 
Q 372 3047 722 3315 
Q 1072 3584 1716 3584 
Q 2034 3584 2315 3537 
Q 2597 3491 2834 3397 
z
" transform="scale(0.015625)"/>
      </defs>
      <use xlink:href="#DejaVuSans-53"/>
      <use xlink:href="#DejaVuSans-74" transform="translate(63.476562 0)"/>
      <use xlink:href="#DejaVuSans-65" transform="translate(102.685547 0)"/>
      <use xlink:href="#DejaVuSans-70" transform="translate(164.208984 0)"/>
      <use xlink:href="#DejaVuSans-73" transform="translate(227.685547 0)"/>
     </g>
    </g>
   </g>
   <g id="matplotlib.axis_2">
    <g id="ytick_1">
     <g id="line2d_7">
      <defs>
       <path id="me74dbd65d3" d="M 0 0 
L -3.5 0 
" style="stroke: #ffffff; stroke-width: 0.8"/>
      </defs>
      <g>
       <use xlink:href="#me74dbd65d3" x="53.435625" y="327.987269" style="fill: #ffffff; stroke: #ffffff; stroke-width: 0.8"/>
      </g>
     </g>
     <g id="text_8">
      <!-- 0 -->
      <g style="fill: #ffffff" transform="translate(37.528125 333.306175) scale(0.14 -0.14)">
       <use xlink:href="#DejaVuSans-30"/>
      </g>
     </g>
    </g>
    <g id="ytick_2">
     <g id="line2d_8">
      <g>
       <use xlink:href="#me74dbd65d3" x="53.435625" y="284.654795" style="fill: #ffffff; stroke: #ffffff; stroke-width: 0.8"/>
      </g>
     </g>
     <g id="text_9">
      <!-- 10 -->
      <g style="fill: #ffffff" transform="translate(28.620625 289.973701) scale(0.14 -0.14)">
       <use xlink:href="#DejaVuSans-31"/>
       <use xlink:href="#DejaVuSans-30" transform="translate(63.623047 0)"/>
      </g>
     </g>
    </g>
    <g id="ytick_3">
     <g id="line2d_9">
      <g>
       <use xlink:href="#me74dbd65d3" x="53.435625" y="241.322321" style="fill: #ffffff; stroke: #ffffff; stroke-width: 0.8"/>
      </g>
     </g>
     <g id="text_10">
      <!-- 20 -->
      <g style="fill: #ffffff" transform="translate(28.620625 246.641228) scale(0.14 -0.14)">
       <use xlink:href="#DejaVuSans-32"/>
       <use xlink:href="#DejaVuSans-30" transform="translate(63.623047 0)"/>
      </g>
     </g>
    </g>
    <g id="ytick_4">
     <g id="line2d_10">
      <g>
       <use xlink:href="#me74dbd65d3" x="53.435625" y="197.989848" style="fill: #ffffff; stroke: #ffffff; stroke-width: 0.8"/>
      </g>
     </g>
     <g id="text_11">
      <!-- 30 -->
      <g style="fill: #ffffff" transform="translate(28.620625 203.308754) scale(0.14 -0.14)">
       <use xlink:href="#DejaVuSans-33"/>
       <use xlink:href="#DejaVuSans-30" transform="translate(63.623047 0)"/>
      </g>
     </g>
    </g>
    <g id="ytick_5">
     <g id="line2d_11">
      <g>
       <use xlink:href="#me74dbd65d3" x="53.435625" y="154.657374" style="fill: #ffffff; stroke: #ffffff; stroke-width: 0.8"/>
      </g>
     </g>
     <g id="text_12">
      <!-- 40 -->
      <g style="fill: #ffffff" transform="translate(28.620625 159.976281) scale(0.14 -0.14)">
       <use xlink:href="#DejaVuSans-34"/>
       <use xlink:href="#DejaVuSans-30" transform="translate(63.623047 0)"/>
      </g>
     </g>
    </g>
    <g id="ytick_6">
     <g id="line2d_12">
      <g>
       <use xlink:href="#me74dbd65d3" x="53.435625" y="111.324901" style="fill: #ffffff; stroke: #ffffff; stroke-width: 0.8"/>
      </g>
     </g>
     <g id="text_13">
      <!-- 50 -->
      <g style="fill: #ffffff" transform="translate(28.620625 116.643807) scale(0.14 -0.14)">
       <use xlink:href="#DejaVuSans-35"/>
       <use xlink:href="#DejaVuSans-30" transform="translate(63.623047 0)"/>
      </g>
     </g>
    </g>
    <g id="ytick_7">
     <g id="line2d_13">
      <g>
       <use xlink:href="#me74dbd65d3" x="53.435625" y="67.992427" style="fill: #ffffff; stroke: #ffffff; stroke-width: 0.8"/>
      </g>
     </g>
     <g id="text_14">
      <!-- 60 -->
      <g style="fill: #ffffff" transform="translate(28.620625 73.311333) scale(0.14 -0.14)">
       <defs>
        <path id="DejaVuSans-36" d="M 2113 2584 
Q 1688 2584 1439 2293 
Q 1191 2003 1191 1497 
Q 1191 994 1439 701 
Q 1688 409 2113 409 
Q 2538 409 2786 701 
Q 3034 994 3034 1497 
Q 3034 2003 2786 2293 
Q 2538 2584 2113 2584 
z
M 3366 4563 
L 3366 3988 
Q 3128 4100 2886 4159 
Q 2644 4219 2406 4219 
Q 1781 4219 1451 3797 
Q 1122 3375 1075 2522 
Q 1259 2794 1537 2939 
Q 1816 3084 2150 3084 
Q 2853 3084 3261 2657 
Q 3669 2231 3669 1497 
Q 3669 778 3244 343 
Q 2819 -91 2113 -91 
Q 1303 -91 875 529 
Q 447 1150 447 2328 
Q 447 3434 972 4092 
Q 1497 4750 2381 4750 
Q 2619 4750 2861 4703 
Q 3103 4656 3366 4563 
z
" transform="scale(0.015625)"/>
       </defs>
       <use xlink:href="#DejaVuSans-36"/>
       <use xlink:href="#DejaVuSans-30" transform="translate(63.623047 0)"/>
      </g>
     </g>
    </g>
    <g id="ytick_8">
     <g id="line2d_14">
      <g>
       <use xlink:href="#me74dbd65d3" x="53.435625" y="24.659954" style="fill: #ffffff; stroke: #ffffff; stroke-width: 0.8"/>
      </g>
     </g>
     <g id="text_15">
      <!-- 70 -->
      <g style="fill: #ffffff" transform="translate(28.620625 29.97886) scale(0.14 -0.14)">
       <defs>
        <path id="DejaVuSans-37" d="M 525 4666 
L 3525 4666 
L 3525 4397 
L 1831 0 
L 1172 0 
L 2766 4134 
L 525 4134 
L 525 4666 
z
" transform="scale(0.015625)"/>
       </defs>
       <use xlink:href="#DejaVuSans-37"/>
       <use xlink:href="#DejaVuSans-30" transform="translate(63.623047 0)"/>
      </g>
     </g>
    </g>
    <g id="text_16">
     <!-- Average reward -->
     <g style="fill: #ffffff" transform="translate(20.877187 244.506094) rotate(-90) scale(0.18 -0.18)">
      <defs>
       <path id="DejaVuSans-41" d="M 2188 4044 
L 1331 1722 
L 3047 1722 
L 2188 4044 
z
M 1831 4666 
L 2547 4666 
L 4325 0 
L 3669 0 
L 3244 1197 
L 1141 1197 
L 716 0 
L 50 0 
L 1831 4666 
z
" transform="scale(0.015625)"/>
       <path id="DejaVuSans-76" d="M 191 3500 
L 800 3500 
L 1894 563 
L 2988 3500 
L 3597 3500 
L 2284 0 
L 1503 0 
L 191 3500 
z
" transform="scale(0.015625)"/>
       <path id="DejaVuSans-72" d="M 2631 2963 
Q 2534 3019 2420 3045 
Q 2306 3072 2169 3072 
Q 1681 3072 1420 2755 
Q 1159 2438 1159 1844 
L 1159 0 
L 581 0 
L 581 3500 
L 1159 3500 
L 1159 2956 
Q 1341 3275 1631 3429 
Q 1922 3584 2338 3584 
Q 2397 3584 2469 3576 
Q 2541 3569 2628 3553 
L 2631 2963 
z
" transform="scale(0.015625)"/>
       <path id="DejaVuSans-61" d="M 2194 1759 
Q 1497 1759 1228 1600 
Q 959 1441 959 1056 
Q 959 750 1161 570 
Q 1363 391 1709 391 
Q 2188 391 2477 730 
Q 2766 1069 2766 1631 
L 2766 1759 
L 2194 1759 
z
M 3341 1997 
L 3341 0 
L 2766 0 
L 2766 531 
Q 2569 213 2275 61 
Q 1981 -91 1556 -91 
Q 1019 -91 701 211 
Q 384 513 384 1019 
Q 384 1609 779 1909 
Q 1175 2209 1959 2209 
L 2766 2209 
L 2766 2266 
Q 2766 2663 2505 2880 
Q 2244 3097 1772 3097 
Q 1472 3097 1187 3025 
Q 903 2953 641 2809 
L 641 3341 
Q 956 3463 1253 3523 
Q 1550 3584 1831 3584 
Q 2591 3584 2966 3190 
Q 3341 2797 3341 1997 
z
" transform="scale(0.015625)"/>
       <path id="DejaVuSans-67" d="M 2906 1791 
Q 2906 2416 2648 2759 
Q 2391 3103 1925 3103 
Q 1463 3103 1205 2759 
Q 947 2416 947 1791 
Q 947 1169 1205 825 
Q 1463 481 1925 481 
Q 2391 481 2648 825 
Q 2906 1169 2906 1791 
z
M 3481 434 
Q 3481 -459 3084 -895 
Q 2688 -1331 1869 -1331 
Q 1566 -1331 1297 -1286 
Q 1028 -1241 775 -1147 
L 775 -588 
Q 1028 -725 1275 -790 
Q 1522 -856 1778 -856 
Q 2344 -856 2625 -561 
Q 2906 -266 2906 331 
L 2906 616 
Q 2728 306 2450 153 
Q 2172 0 1784 0 
Q 1141 0 747 490 
Q 353 981 353 1791 
Q 353 2603 747 3093 
Q 1141 3584 1784 3584 
Q 2172 3584 2450 3431 
Q 2728 3278 2906 2969 
L 2906 3500 
L 3481 3500 
L 3481 434 
z
" transform="scale(0.015625)"/>
       <path id="DejaVuSans-20" transform="scale(0.015625)"/>
       <path id="DejaVuSans-77" d="M 269 3500 
L 844 3500 
L 1563 769 
L 2278 3500 
L 2956 3500 
L 3675 769 
L 4391 3500 
L 4966 3500 
L 4050 0 
L 3372 0 
L 2619 2869 
L 1863 0 
L 1184 0 
L 269 3500 
z
" transform="scale(0.015625)"/>
       <path id="DejaVuSans-64" d="M 2906 2969 
L 2906 4863 
L 3481 4863 
L 3481 0 
L 2906 0 
L 2906 525 
Q 2725 213 2448 61 
Q 2172 -91 1784 -91 
Q 1150 -91 751 415 
Q 353 922 353 1747 
Q 353 2572 751 3078 
Q 1150 3584 1784 3584 
Q 2172 3584 2448 3432 
Q 2725 3281 2906 2969 
z
M 947 1747 
Q 947 1113 1208 752 
Q 1469 391 1925 391 
Q 2381 391 2643 752 
Q 2906 1113 2906 1747 
Q 2906 2381 2643 2742 
Q 2381 3103 1925 3103 
Q 1469 3103 1208 2742 
Q 947 2381 947 1747 
z
" transform="scale(0.015625)"/>
      </defs>
      <use xlink:href="#DejaVuSans-41"/>
      <use xlink:href="#DejaVuSans-76" transform="translate(62.533203 0)"/>
      <use xlink:href="#DejaVuSans-65" transform="translate(121.712891 0)"/>
      <use xlink:href="#DejaVuSans-72" transform="translate(183.236328 0)"/>
      <use xlink:href="#DejaVuSans-61" transform="translate(224.349609 0)"/>
      <use xlink:href="#DejaVuSans-67" transform="translate(285.628906 0)"/>
      <use xlink:href="#DejaVuSans-65" transform="translate(349.105469 0)"/>
      <use xlink:href="#DejaVuSans-20" transform="translate(410.628906 0)"/>
      <use xlink:href="#DejaVuSans-72" transform="translate(442.416016 0)"/>
      <use xlink:href="#DejaVuSans-65" transform="translate(481.279297 0)"/>
      <use xlink:href="#DejaVuSans-77" transform="translate(542.802734 0)"/>
      <use xlink:href="#DejaVuSans-61" transform="translate(624.589844 0)"/>
      <use xlink:href="#DejaVuSans-72" transform="translate(685.869141 0)"/>
      <use xlink:href="#DejaVuSans-64" transform="translate(725.232422 0)"/>
     </g>
    </g>
   </g>
   <g id="line2d_15">
    <path d="M 83.871989 284.845458 
L 85.091883 284.134805 
L 86.311777 284.472799 
L 87.531672 285.036121 
L 88.751566 284.334135 
L 89.97146 284.438133 
L 91.191355 285.114119 
L 93.631143 284.412133 
L 94.851038 284.975455 
L 96.070932 141.458303 
L 97.290826 234.874449 
L 98.510721 272.175043 
L 99.730615 291.068001 
L 100.950509 303.885747 
L 102.170404 312.032252 
L 103.390298 317.578808 
L 104.610192 321.617395 
L 105.830087 324.494671 
L 107.049981 324.72 
L 108.269875 99.997792 
L 109.48977 196.767872 
L 110.709664 228.001919 
L 111.929558 241.20099 
L 113.149453 243.107619 
L 114.369347 238.991034 
L 115.589241 233.48781 
L 118.02903 216.250152 
L 121.688713 186.26408 
L 122.908607 179.772876 
L 124.128502 171.973031 
L 125.348396 165.013835 
L 129.008079 148.270168 
L 130.227973 143.200268 
L 131.447868 139.647005 
L 132.667762 134.308445 
L 133.887656 129.715202 
L 139.987128 114.07218 
L 141.207022 111.506897 
L 143.646811 107.277648 
L 144.866705 104.868362 
L 146.0866 103.715718 
L 147.306494 100.197121 
L 148.526388 98.290493 
L 149.746283 96.999185 
L 150.966177 94.572566 
L 152.186071 94.286572 
L 153.405966 95.525881 
L 154.62586 93.281259 
L 155.845754 91.339964 
L 157.065649 90.091989 
L 158.285543 88.254692 
L 159.505437 88.142027 
L 160.725332 89.043343 
L 161.945226 88.471354 
L 163.16512 87.110714 
L 164.385015 87.743369 
L 165.604909 85.923405 
L 166.824803 85.767408 
L 168.044698 85.334083 
L 170.484486 84.718762 
L 171.704381 84.294104 
L 172.924275 84.866092 
L 174.144169 84.710095 
L 175.364064 83.644117 
L 176.583958 84.658096 
L 177.803852 85.030756 
L 179.023747 84.857426 
L 181.463535 84.242105 
L 182.68343 83.748115 
L 183.903324 84.528099 
L 185.123218 84.814093 
L 186.343113 83.912778 
L 187.563007 84.138107 
L 188.782901 85.247418 
L 190.002796 85.472747 
L 191.22269 84.103441 
L 192.442584 84.562765 
L 194.882373 85.914738 
L 196.102267 84.380769 
L 197.322162 83.817446 
L 198.542056 84.62343 
L 199.76195 84.30277 
L 200.981845 84.987423 
L 202.201739 85.256085 
L 203.421633 85.100088 
L 204.641528 86.192066 
L 205.861422 86.876719 
L 207.081316 87.370709 
L 208.301211 87.188713 
L 209.521105 87.188713 
L 210.740999 86.937385 
L 211.960894 87.795368 
L 213.180788 88.315357 
L 214.400682 87.639371 
L 215.620577 89.02601 
L 216.840471 88.194026 
L 218.060365 88.575352 
L 219.28026 88.228692 
L 220.500154 88.064029 
L 221.720048 88.653351 
L 222.939943 88.85268 
L 224.159837 89.875326 
L 225.379731 89.831994 
L 226.599626 89.615331 
L 229.039414 90.646644 
L 230.259309 91.235966 
L 231.479203 90.776642 
L 232.699097 91.001971 
L 233.918992 90.871973 
L 235.138886 90.499314 
L 236.35878 91.755956 
L 237.578675 90.733309 
L 238.798569 91.2013 
L 241.238358 90.863307 
L 242.458252 91.183967 
L 243.678146 91.045303 
L 244.898041 90.785308 
L 246.117935 90.230653 
L 247.337829 90.230653 
L 248.557724 90.897973 
L 249.777618 90.863307 
L 250.997512 90.490647 
L 252.217407 90.421315 
L 253.437301 89.918659 
L 254.657195 91.02797 
L 258.316878 90.663977 
L 259.536773 91.443962 
L 260.756667 90.048656 
L 261.976561 90.395316 
L 263.196456 90.975971 
L 264.41635 90.932639 
L 265.636244 90.221986 
L 266.856139 90.343317 
L 268.076033 90.351983 
L 269.295927 91.357297 
L 270.515822 90.724643 
L 271.735716 90.750642 
L 272.95561 91.062636 
L 274.175505 90.984638 
L 275.395399 90.611978 
L 276.615293 91.05397 
L 277.835188 91.045303 
L 280.274976 90.126655 
L 281.494871 89.416002 
L 282.714765 89.944658 
L 283.934659 89.684663 
L 285.154554 90.100655 
L 286.374448 89.814661 
L 288.814237 88.870013 
L 290.034131 89.37267 
L 291.254025 89.19934 
L 292.47392 90.256652 
L 293.693814 89.675997 
L 294.913708 89.788661 
L 296.133603 89.771328 
L 297.353497 89.407336 
L 298.573391 89.69333 
L 299.793286 89.762662 
L 301.01318 89.312004 
L 302.233074 89.52 
L 303.452969 88.731349 
L 304.672863 89.251339 
L 305.892757 89.130008 
L 307.112652 89.156007 
L 308.332546 89.710663 
L 310.772335 89.753995 
L 311.992229 89.649997 
L 313.212123 89.112675 
L 314.432018 88.844013 
L 315.651912 88.82668 
L 316.871806 89.589332 
L 318.091701 89.364003 
L 319.311595 89.710663 
L 320.531489 88.878679 
L 322.971278 88.67935 
L 324.191172 88.350023 
L 325.411067 88.610018 
L 326.630961 87.847367 
L 327.850855 88.194026 
L 329.07075 87.734702 
L 330.290644 87.405375 
L 332.730433 87.890699 
L 333.950327 87.743369 
L 336.390116 87.769368 
L 337.61001 88.410689 
L 338.829904 87.578705 
L 340.049799 87.232045 
L 341.269693 87.206046 
L 342.489587 86.980717 
L 343.709482 86.599391 
L 344.929376 86.573392 
L 346.14927 86.096735 
L 347.369165 86.729389 
L 348.589059 85.828073 
L 349.808953 86.408728 
L 351.028848 85.958071 
L 352.248742 85.299417 
L 353.468636 85.81074 
L 354.688531 85.204086 
L 355.908425 85.056755 
L 360.788002 83.791447 
L 362.007897 83.722115 
L 363.227791 83.14146 
L 364.447685 83.280124 
L 365.66758 82.933464 
L 366.887474 82.950797 
L 368.107368 81.858819 
L 369.327263 82.309476 
L 370.547157 81.815486 
L 371.767051 82.344142 
L 375.426734 81.330162 
L 377.866523 81.512159 
L 379.086417 82.352809 
L 380.306312 81.581491 
L 381.526206 80.957503 
L 382.7461 81.503492 
L 383.965995 81.650823 
L 385.185889 81.945484 
L 387.625678 81.061501 
L 388.845572 80.584844 
L 391.285361 80.333516 
L 393.72515 80.870838 
L 394.945044 79.960856 
L 397.384833 80.333516 
L 398.604727 79.978189 
L 399.824621 80.229518 
L 402.26441 80.160186 
L 403.484304 80.506845 
L 405.924093 79.657529 
L 407.143987 79.128873 
L 408.363882 78.314222 
L 409.583776 77.759567 
L 410.80367 77.594903 
L 412.023565 78.158225 
L 413.243459 78.574217 
L 414.463353 77.369574 
L 415.683248 78.305556 
L 416.903142 77.525571 
L 418.123036 77.655569 
L 419.342931 77.542904 
L 420.562825 77.707568 
L 421.782719 77.716234 
L 423.002614 76.875584 
L 424.222508 76.754253 
L 425.442402 76.286263 
L 426.662297 76.433593 
L 427.882191 76.000268 
L 429.102085 76.407594 
L 430.32198 75.532278 
L 431.541874 75.601609 
L 432.761768 75.064287 
L 433.981663 75.826938 
L 435.201557 75.003621 
L 436.421451 74.396967 
L 437.641346 74.726294 
L 438.86124 74.518298 
L 440.081134 74.630962 
L 441.301029 73.963642 
L 442.520923 74.370967 
L 444.960712 74.344968 
L 446.180606 73.781646 
L 447.4005 74.015641 
L 448.620395 73.954975 
L 449.840289 74.630962 
L 451.060183 75.116286 
L 452.280078 74.422966 
L 458.379549 72.152345 
L 459.599444 72.429672 
L 460.819338 72.03968 
L 462.039232 72.152345 
L 463.259127 72.377673 
L 464.479021 71.987681 
L 466.91881 72.395006 
L 468.138704 71.935682 
L 469.358598 72.117679 
L 470.578493 71.875017 
L 471.798387 70.991034 
L 473.018281 71.69302 
L 474.238176 71.857684 
L 476.677964 70.609709 
L 477.897859 70.176384 
L 479.117753 70.713706 
L 480.337647 69.925055 
L 482.777436 70.401713 
L 483.99733 69.951055 
L 486.437119 69.699727 
L 490.096802 68.547083 
L 491.316696 69.231736 
L 492.536591 69.526397 
L 493.756485 68.963075 
L 496.196274 68.937075 
L 497.416168 68.217756 
L 498.636062 67.325107 
L 499.855957 67.827764 
L 502.295745 67.19511 
L 503.51564 67.6631 
L 504.735534 67.645767 
L 505.955428 67.897096 
L 507.175323 67.749765 
L 508.395217 67.004447 
L 509.615111 67.671767 
L 510.835006 67.585102 
L 512.0549 67.19511 
L 513.274794 66.458458 
L 514.494689 66.250462 
L 515.714583 66.380459 
L 516.934477 66.753118 
L 518.154372 65.903802 
L 519.374266 66.137797 
L 523.033949 65.921135 
L 524.253843 65.765138 
L 525.473738 65.773804 
L 526.693632 64.638494 
L 529.133421 64.829157 
L 530.353315 64.985153 
L 531.573209 64.924488 
L 532.793104 65.617808 
L 535.232892 65.505143 
L 536.452787 65.756471 
L 537.672681 65.089151 
L 538.892575 65.089151 
L 540.11247 64.811824 
L 541.332364 64.335166 
L 542.552258 64.205169 
L 543.772153 64.274501 
L 544.992047 64.707826 
L 546.211941 64.15317 
L 547.431836 63.971174 
L 548.65173 64.014506 
L 549.871624 63.641847 
L 551.091519 63.095858 
L 552.311413 63.390518 
L 553.531307 63.199856 
L 554.751202 63.650513 
L 557.19099 63.511849 
L 558.410885 63.069858 
L 559.630779 63.147857 
L 560.850673 63.347186 
L 562.070568 63.234522 
L 564.510356 62.662533 
L 565.730251 62.714532 
L 566.950145 62.593201 
L 568.170039 62.15121 
L 569.389934 61.934547 
L 570.609828 62.185876 
L 571.829722 61.908548 
L 573.049617 61.28456 
L 574.269511 61.249894 
L 575.489405 60.556575 
L 576.7093 60.365912 
L 577.929194 60.44391 
L 580.368983 59.923921 
L 581.588877 59.213268 
L 582.808771 59.533928 
L 584.028666 59.715925 
L 586.468454 59.577261 
L 587.688349 59.958587 
L 590.128137 58.918607 
L 591.348032 58.944607 
L 592.567926 58.675945 
L 593.78782 59.039938 
L 595.007715 58.207955 
L 596.227609 58.381284 
L 597.447503 58.355285 
L 602.327081 56.699985 
L 603.546975 57.159309 
L 604.766869 56.231994 
L 605.986764 55.989332 
L 607.206658 56.457323 
L 608.426552 56.205994 
L 612.086235 56.283993 
L 613.30613 56.145329 
L 614.526024 55.764003 
L 615.745918 55.547341 
L 616.965813 56.041331 
L 618.185707 55.781336 
L 619.405601 55.738004 
L 620.625496 55.22668 
L 621.84539 55.278679 
L 623.065284 55.096683 
L 624.285179 54.568027 
L 626.724967 54.741357 
L 627.944862 54.533361 
L 629.164756 55.07935 
L 631.604545 54.542027 
L 632.824439 54.680691 
L 634.044333 54.58536 
L 635.264228 54.160702 
L 637.704016 53.736043 
L 640.143805 52.774062 
L 641.363699 52.626732 
L 642.583594 52.332071 
L 643.803488 51.916079 
L 645.023382 52.002744 
L 646.243277 51.647418 
L 647.463171 52.488068 
L 648.683065 52.505401 
L 651.122854 51.933412 
L 652.342748 52.002744 
L 653.562643 51.933412 
L 654.782537 52.167408 
L 656.002431 52.106742 
L 657.222326 51.786082 
L 658.44222 51.942079 
L 660.882009 51.682084 
L 662.101903 51.933412 
L 663.321797 51.422089 
L 664.541692 51.248759 
L 666.98148 51.656085 
L 668.201375 51.040763 
L 669.421269 51.274759 
L 670.641163 51.768749 
L 671.861058 51.86408 
L 674.300846 52.219407 
L 677.960529 51.448089 
L 679.180424 51.578086 
L 680.400318 51.066763 
L 681.620212 51.179427 
L 682.840107 51.127428 
L 684.060001 50.720103 
L 685.279895 50.650771 
L 686.49979 50.468775 
L 687.719684 49.836121 
L 688.939578 49.498127 
L 690.159473 50.026784 
L 691.379367 50.052783 
L 692.599261 50.278112 
L 692.599261 50.278112 
" clip-path="url(#p03899427bf)" style="fill: none; stroke: #8dd3c7; stroke-width: 1.5; stroke-linecap: square"/>
   </g>
   <g id="line2d_16">
    <path d="M 83.871989 285.001455 
L 85.091883 284.56813 
L 86.311777 283.146825 
L 87.531672 284.845458 
L 88.751566 285.001455 
L 89.97146 284.472799 
L 91.191355 285.192118 
L 92.411249 284.845458 
L 93.631143 284.091473 
L 94.851038 285.625442 
L 96.070932 203.7444 
L 97.290826 161.729234 
L 98.510721 145.886882 
L 99.730615 138.71969 
L 100.950509 133.745123 
L 103.390298 126.933258 
L 104.610192 125.234625 
L 107.049981 121.568697 
L 108.269875 120.59805 
L 109.48977 118.804086 
L 111.929558 116.126139 
L 113.149453 115.623482 
L 114.369347 113.647521 
L 115.589241 113.370193 
L 116.809136 112.052886 
L 118.02903 111.896889 
L 119.248924 110.700913 
L 120.468819 110.224256 
L 121.688713 109.600268 
L 122.908607 108.577622 
L 124.128502 107.095651 
L 125.348396 107.580975 
L 126.56829 107.34698 
L 127.788185 105.111024 
L 129.008079 105.717679 
L 130.227973 104.313706 
L 131.447868 104.426371 
L 132.667762 104.253041 
L 133.887656 103.351726 
L 136.327445 102.329079 
L 137.547339 101.852422 
L 138.767234 102.337746 
L 139.987128 100.136456 
L 141.207022 101.08977 
L 142.426917 100.457116 
L 143.646811 99.685798 
L 144.866705 99.373804 
L 146.0866 100.188455 
L 147.306494 98.59382 
L 149.746283 96.600526 
L 150.966177 97.588507 
L 152.186071 96.91252 
L 154.62586 96.721857 
L 155.845754 95.967872 
L 158.285543 96.253866 
L 159.505437 95.439216 
L 160.725332 95.109889 
L 161.945226 95.291885 
L 163.16512 94.607232 
L 164.385015 93.367924 
L 165.604909 92.813268 
L 166.824803 93.125262 
L 168.044698 92.717937 
L 169.264592 92.076616 
L 170.484486 92.232613 
L 171.704381 91.747289 
L 172.924275 91.738623 
L 174.144169 91.426629 
L 175.364064 92.891266 
L 176.583958 91.157968 
L 177.803852 90.629311 
L 179.023747 90.386649 
L 182.68343 89.338004 
L 183.903324 89.338004 
L 185.123218 89.078009 
L 186.343113 89.303338 
L 187.563007 88.497354 
L 188.782901 88.18536 
L 190.002796 87.613371 
L 191.22269 87.951364 
L 192.442584 87.110714 
L 193.662479 87.474707 
L 194.882373 86.963384 
L 196.102267 87.388042 
L 197.322162 86.616724 
L 198.542056 85.290751 
L 199.76195 86.50406 
L 200.981845 85.819407 
L 202.201739 85.420748 
L 204.641528 85.022089 
L 205.861422 85.282084 
L 207.081316 85.14342 
L 208.301211 85.195419 
L 209.521105 84.216105 
L 210.740999 84.103441 
L 211.960894 83.332123 
L 213.180788 83.28879 
L 214.400682 82.292143 
L 215.620577 83.479453 
L 216.840471 81.477493 
L 218.060365 82.110147 
L 219.28026 82.136147 
L 220.500154 80.61951 
L 221.720048 81.052835 
L 222.939943 81.078834 
L 224.159837 81.304163 
L 225.379731 81.182832 
L 226.599626 80.515512 
L 227.81952 79.700861 
L 229.039414 80.290183 
L 230.259309 79.553531 
L 231.479203 79.744194 
L 232.699097 78.652216 
L 233.918992 78.374888 
L 235.138886 79.016208 
L 237.578675 78.539551 
L 238.798569 77.915564 
L 240.018463 78.652216 
L 242.458252 77.395574 
L 243.678146 77.889564 
L 244.898041 78.045561 
L 246.117935 77.369574 
L 247.337829 76.823585 
L 248.557724 76.043601 
L 249.777618 75.818272 
L 250.997512 76.112933 
L 252.217407 76.806252 
L 253.437301 75.818272 
L 254.657195 75.72294 
L 255.87709 74.440299 
L 257.096984 75.514945 
L 259.536773 75.08162 
L 260.756667 73.816312 
L 263.196456 74.093639 
L 264.41635 73.105659 
L 265.636244 73.044994 
L 266.856139 73.148991 
L 268.076033 72.325674 
L 269.295927 73.92031 
L 270.515822 73.434986 
L 271.735716 73.114326 
L 272.95561 72.048347 
L 274.175505 72.23901 
L 275.395399 72.681001 
L 276.615293 72.247676 
L 277.835188 72.473005 
L 279.055082 71.138365 
L 280.274976 71.476358 
L 283.934659 70.835037 
L 285.154554 70.219716 
L 286.374448 70.280382 
L 287.594342 71.493691 
L 288.814237 69.266402 
L 290.034131 70.046386 
L 291.254025 69.457065 
L 292.47392 70.167717 
L 293.693814 69.309734 
L 294.913708 69.422399 
L 296.133603 69.725726 
L 298.573391 67.723766 
L 299.793286 68.711746 
L 301.01318 68.599082 
L 302.233074 67.732432 
L 303.452969 67.645767 
L 304.672863 67.264442 
L 305.892757 67.186443 
L 307.112652 68.096425 
L 308.332546 66.605788 
L 309.55244 66.345793 
L 311.992229 66.64912 
L 313.212123 65.51381 
L 314.432018 66.163797 
L 315.651912 66.077132 
L 316.871806 65.739139 
L 318.091701 65.80847 
L 319.311595 64.84649 
L 320.531489 65.695806 
L 321.751384 65.132484 
L 322.971278 64.248501 
L 324.191172 64.395832 
L 325.411067 65.175816 
L 326.630961 64.187836 
L 327.850855 64.534496 
L 329.07075 63.390518 
L 330.290644 64.057839 
L 332.730433 63.702512 
L 333.950327 62.887862 
L 335.170221 63.745845 
L 337.61001 62.29854 
L 338.829904 63.217189 
L 340.049799 63.364519 
L 341.269693 61.527222 
L 342.489587 62.116544 
L 343.709482 61.397225 
L 346.14927 61.249894 
L 347.369165 61.995213 
L 348.589059 60.868568 
L 349.808953 61.821883 
L 351.028848 61.145896 
L 352.248742 61.301893 
L 353.468636 60.920567 
L 354.688531 60.201248 
L 355.908425 59.94992 
L 357.128319 59.967253 
L 358.348214 59.265267 
L 359.568108 60.071251 
L 360.788002 58.901274 
L 362.007897 58.797276 
L 363.227791 58.866608 
L 364.447685 58.710611 
L 365.66758 59.932587 
L 366.887474 59.698592 
L 368.107368 59.143936 
L 369.327263 58.979273 
L 371.767051 57.341305 
L 372.986946 58.060624 
L 374.20684 58.069291 
L 375.426734 57.713964 
L 376.646629 57.653299 
L 377.866523 58.207955 
L 380.306312 57.887294 
L 381.526206 56.526655 
L 382.7461 57.445303 
L 385.185889 56.032664 
L 386.405783 55.954666 
L 387.625678 56.552654 
L 388.845572 56.145329 
L 390.065467 56.101996 
L 391.285361 55.590673 
L 392.505255 55.781336 
L 393.72515 55.42601 
L 394.945044 54.923353 
L 396.164938 54.715357 
L 397.384833 54.134702 
L 398.604727 54.290699 
L 399.824621 55.270013 
L 401.044516 54.09137 
L 402.26441 54.169368 
L 403.484304 53.978705 
L 404.704199 53.07739 
L 405.924093 54.368697 
L 407.143987 52.938726 
L 408.363882 52.930059 
L 409.583776 53.666711 
L 410.80367 52.791395 
L 413.243459 53.320052 
L 414.463353 52.340738 
L 415.683248 52.002744 
L 416.903142 52.5574 
L 418.123036 52.280072 
L 419.342931 52.349404 
L 420.562825 51.942079 
L 421.782719 50.226113 
L 424.222508 51.378757 
L 425.442402 50.988765 
L 426.662297 51.448089 
L 427.882191 51.170761 
L 429.102085 50.55544 
L 431.541874 50.572773 
L 433.981663 49.333464 
L 435.201557 49.376796 
L 436.421451 50.52944 
L 437.641346 48.501481 
L 438.86124 48.761475 
L 440.081134 49.359464 
L 441.301029 49.142801 
L 442.520923 48.163487 
L 443.740817 48.484148 
L 444.960712 49.151468 
L 446.180606 48.336817 
L 447.4005 48.302151 
L 448.620395 48.440815 
L 449.840289 48.120155 
L 453.499972 47.704163 
L 454.719866 47.816827 
L 455.939761 47.314171 
L 457.159655 47.279505 
L 458.379549 46.750849 
L 459.599444 46.716183 
L 460.819338 46.967511 
L 462.039232 45.918865 
L 464.479021 46.664184 
L 465.698915 45.780201 
L 466.91881 45.51154 
L 468.138704 45.892866 
L 469.358598 45.260212 
L 470.578493 45.277544 
L 471.798387 46.837514 
L 473.018281 44.826887 
L 474.238176 45.372876 
L 475.45807 44.506226 
L 476.677964 43.925571 
L 477.897859 43.899572 
L 479.117753 44.254898 
L 480.337647 43.925571 
L 481.557542 43.760908 
L 482.777436 44.419562 
L 483.99733 43.154253 
L 485.217225 44.393562 
L 486.437119 43.682909 
L 487.657013 44.410895 
L 488.876908 42.538932 
L 490.096802 43.570245 
L 491.316696 42.790261 
L 492.536591 42.720929 
L 493.756485 43.050255 
L 494.976379 42.010276 
L 496.196274 42.512933 
L 497.416168 43.33625 
L 498.636062 41.368955 
L 499.855957 41.030962 
L 501.075851 41.143627 
L 502.295745 42.018942 
L 503.51564 41.178292 
L 504.735534 41.334289 
L 505.955428 41.602951 
L 507.175323 40.944297 
L 508.395217 40.753634 
L 509.615111 40.086314 
L 510.835006 40.675636 
L 513.274794 40.372308 
L 514.494689 39.912984 
L 515.714583 40.086314 
L 516.934477 40.46764 
L 518.154372 39.956317 
L 519.374266 40.32031 
L 520.59416 39.834986 
L 521.814055 39.089667 
L 523.033949 39.167666 
L 524.253843 39.358329 
L 525.473738 38.110353 
L 526.693632 38.821006 
L 527.913526 40.060315 
L 529.133421 39.323663 
L 530.353315 37.633696 
L 531.573209 38.691009 
L 532.793104 38.171019 
L 534.012998 38.517679 
L 535.232892 37.937023 
L 536.452787 38.197018 
L 537.672681 37.590364 
L 538.892575 37.59903 
L 540.11247 37.070374 
L 541.332364 37.183038 
L 542.552258 36.654382 
L 543.772153 37.304369 
L 544.992047 36.533051 
L 546.211941 36.420387 
L 547.431836 37.469033 
L 548.65173 37.356368 
L 549.871624 36.143059 
L 551.091519 36.039061 
L 552.311413 37.113706 
L 554.751202 35.640402 
L 555.971096 35.068414 
L 557.19099 35.484405 
L 558.410885 36.446386 
L 559.630779 35.397741 
L 560.850673 35.7704 
L 562.070568 34.097766 
L 563.290462 34.522425 
L 564.510356 35.267743 
L 565.730251 34.028434 
L 566.950145 34.600423 
L 568.170039 34.401094 
L 569.389934 33.638442 
L 570.609828 34.0631 
L 571.829722 34.695754 
L 573.049617 34.635089 
L 574.269511 33.716441 
L 575.489405 34.175765 
L 576.7093 34.141099 
L 577.929194 32.936456 
L 579.149088 33.153118 
L 580.368983 32.823792 
L 581.588877 33.335115 
L 582.808771 33.023121 
L 584.028666 32.364467 
L 585.24856 32.979788 
L 586.468454 31.991808 
L 587.688349 32.026474 
L 588.908243 32.719794 
L 590.128137 32.199804 
L 591.348032 31.116492 
L 592.567926 31.835811 
L 593.78782 31.584483 
L 595.007715 31.619149 
L 596.227609 31.116492 
L 597.447503 31.974475 
L 599.887292 31.021161 
L 601.107186 29.71252 
L 602.327081 32.000475 
L 603.546975 30.995161 
L 604.766869 30.345174 
L 605.986764 30.579169 
L 607.206658 30.284509 
L 608.426552 31.012494 
L 609.646447 29.946515 
L 610.866341 30.622502 
L 612.086235 29.0192 
L 613.30613 30.119845 
L 615.745918 29.651855 
L 618.185707 28.932535 
L 619.405601 29.079866 
L 620.625496 29.686521 
L 621.84539 28.672541 
L 623.065284 28.386546 
L 624.285179 29.227196 
L 625.505073 28.438545 
L 626.724967 29.088532 
L 627.944862 27.753892 
L 629.164756 27.814558 
L 630.38465 28.464545 
L 631.604545 27.615228 
L 632.824439 27.623895 
L 634.044333 27.762559 
L 635.264228 27.563229 
L 636.484122 27.797225 
L 637.704016 26.930575 
L 638.923911 26.765912 
L 641.363699 27.459231 
L 642.583594 27.3639 
L 643.803488 28.117885 
L 645.023382 26.52325 
L 646.243277 26.583915 
L 647.463171 26.826577 
L 648.683065 26.471251 
L 649.90296 25.985927 
L 651.122854 27.294568 
L 652.342748 26.34992 
L 653.562643 26.436585 
L 654.782537 25.673933 
L 656.002431 26.930575 
L 657.222326 25.734599 
L 658.44222 24.98928 
L 659.662114 25.526603 
L 660.882009 25.231942 
L 662.101903 25.283941 
L 663.321797 25.153944 
L 664.541692 25.569936 
L 665.761586 25.838597 
L 666.98148 25.552603 
L 668.201375 25.613268 
L 669.421269 23.602641 
L 670.641163 24.859283 
L 671.861058 23.940635 
L 673.080952 24.52129 
L 674.300846 24.17463 
L 675.520741 24.105298 
L 676.740635 23.533309 
L 677.960529 22.32 
L 679.180424 23.48131 
L 680.400318 23.845303 
L 681.620212 23.697973 
L 684.060001 22.753325 
L 685.279895 22.501996 
L 686.49979 24.573289 
L 687.719684 22.796657 
L 688.939578 23.845303 
L 690.159473 23.247315 
L 691.379367 23.221315 
L 692.599261 23.585308 
L 692.599261 23.585308 
" clip-path="url(#p03899427bf)" style="fill: none; stroke: #feffb3; stroke-width: 1.5; stroke-linecap: square"/>
   </g>
   <g id="patch_3">
    <path d="M 53.435625 339.84 
L 53.435625 7.2 
" style="fill: none; stroke: #ffffff; stroke-width: 0.8; stroke-linejoin: miter; stroke-linecap: square"/>
   </g>
   <g id="patch_4">
    <path d="M 723.035625 339.84 
L 723.035625 7.2 
" style="fill: none; stroke: #ffffff; stroke-width: 0.8; stroke-linejoin: miter; stroke-linecap: square"/>
   </g>
   <g id="patch_5">
    <path d="M 53.435625 339.84 
L 723.035625 339.84 
" style="fill: none; stroke: #ffffff; stroke-width: 0.8; stroke-linejoin: miter; stroke-linecap: square"/>
   </g>
   <g id="patch_6">
    <path d="M 53.435625 7.2 
L 723.035625 7.2 
" style="fill: none; stroke: #ffffff; stroke-width: 0.8; stroke-linejoin: miter; stroke-linecap: square"/>
   </g>
   <g id="legend_1">
    <g id="patch_7">
     <path d="M 64.635625 67.005 
L 257.755625 67.005 
Q 260.955625 67.005 260.955625 63.805 
L 260.955625 18.4 
Q 260.955625 15.2 257.755625 15.2 
L 64.635625 15.2 
Q 61.435625 15.2 61.435625 18.4 
L 61.435625 63.805 
Q 61.435625 67.005 64.635625 67.005 
z
" style="opacity: 0.8; stroke: #cccccc; stroke-linejoin: miter"/>
    </g>
    <g id="line2d_17">
     <path d="M 67.835625 28.1575 
L 83.835625 28.1575 
L 99.835625 28.1575 
" style="fill: none; stroke: #8dd3c7; stroke-width: 1.5; stroke-linecap: square"/>
    </g>
    <g id="text_17">
     <!-- UCB ($c=2$) -->
     <g style="fill: #ffffff" transform="translate(112.635625 33.7575) scale(0.16 -0.16)">
      <defs>
       <path id="DejaVuSans-55" d="M 556 4666 
L 1191 4666 
L 1191 1831 
Q 1191 1081 1462 751 
Q 1734 422 2344 422 
Q 2950 422 3222 751 
Q 3494 1081 3494 1831 
L 3494 4666 
L 4128 4666 
L 4128 1753 
Q 4128 841 3676 375 
Q 3225 -91 2344 -91 
Q 1459 -91 1007 375 
Q 556 841 556 1753 
L 556 4666 
z
" transform="scale(0.015625)"/>
       <path id="DejaVuSans-43" d="M 4122 4306 
L 4122 3641 
Q 3803 3938 3442 4084 
Q 3081 4231 2675 4231 
Q 1875 4231 1450 3742 
Q 1025 3253 1025 2328 
Q 1025 1406 1450 917 
Q 1875 428 2675 428 
Q 3081 428 3442 575 
Q 3803 722 4122 1019 
L 4122 359 
Q 3791 134 3420 21 
Q 3050 -91 2638 -91 
Q 1578 -91 968 557 
Q 359 1206 359 2328 
Q 359 3453 968 4101 
Q 1578 4750 2638 4750 
Q 3056 4750 3426 4639 
Q 3797 4528 4122 4306 
z
" transform="scale(0.015625)"/>
       <path id="DejaVuSans-42" d="M 1259 2228 
L 1259 519 
L 2272 519 
Q 2781 519 3026 730 
Q 3272 941 3272 1375 
Q 3272 1813 3026 2020 
Q 2781 2228 2272 2228 
L 1259 2228 
z
M 1259 4147 
L 1259 2741 
L 2194 2741 
Q 2656 2741 2882 2914 
Q 3109 3088 3109 3444 
Q 3109 3797 2882 3972 
Q 2656 4147 2194 4147 
L 1259 4147 
z
M 628 4666 
L 2241 4666 
Q 2963 4666 3353 4366 
Q 3744 4066 3744 3513 
Q 3744 3084 3544 2831 
Q 3344 2578 2956 2516 
Q 3422 2416 3680 2098 
Q 3938 1781 3938 1306 
Q 3938 681 3513 340 
Q 3088 0 2303 0 
L 628 0 
L 628 4666 
z
" transform="scale(0.015625)"/>
       <path id="DejaVuSans-28" d="M 1984 4856 
Q 1566 4138 1362 3434 
Q 1159 2731 1159 2009 
Q 1159 1288 1364 580 
Q 1569 -128 1984 -844 
L 1484 -844 
Q 1016 -109 783 600 
Q 550 1309 550 2009 
Q 550 2706 781 3412 
Q 1013 4119 1484 4856 
L 1984 4856 
z
" transform="scale(0.015625)"/>
       <path id="DejaVuSans-Oblique-63" d="M 3431 3366 
L 3316 2797 
Q 3109 2947 2876 3022 
Q 2644 3097 2394 3097 
Q 2119 3097 1870 3000 
Q 1622 2903 1453 2725 
Q 1184 2453 1037 2087 
Q 891 1722 891 1331 
Q 891 859 1127 628 
Q 1363 397 1844 397 
Q 2081 397 2348 469 
Q 2616 541 2906 684 
L 2797 116 
Q 2547 13 2283 -39 
Q 2019 -91 1741 -91 
Q 1044 -91 669 257 
Q 294 606 294 1253 
Q 294 1797 489 2255 
Q 684 2713 1069 3078 
Q 1331 3328 1684 3456 
Q 2038 3584 2456 3584 
Q 2700 3584 2940 3529 
Q 3181 3475 3431 3366 
z
" transform="scale(0.015625)"/>
       <path id="DejaVuSans-3d" d="M 678 2906 
L 4684 2906 
L 4684 2381 
L 678 2381 
L 678 2906 
z
M 678 1631 
L 4684 1631 
L 4684 1100 
L 678 1100 
L 678 1631 
z
" transform="scale(0.015625)"/>
       <path id="DejaVuSans-29" d="M 513 4856 
L 1013 4856 
Q 1481 4119 1714 3412 
Q 1947 2706 1947 2009 
Q 1947 1309 1714 600 
Q 1481 -109 1013 -844 
L 513 -844 
Q 928 -128 1133 580 
Q 1338 1288 1338 2009 
Q 1338 2731 1133 3434 
Q 928 4138 513 4856 
z
" transform="scale(0.015625)"/>
      </defs>
      <use xlink:href="#DejaVuSans-55" transform="translate(0 0.125)"/>
      <use xlink:href="#DejaVuSans-43" transform="translate(73.193359 0.125)"/>
      <use xlink:href="#DejaVuSans-42" transform="translate(143.017578 0.125)"/>
      <use xlink:href="#DejaVuSans-20" transform="translate(211.621094 0.125)"/>
      <use xlink:href="#DejaVuSans-28" transform="translate(243.408203 0.125)"/>
      <use xlink:href="#DejaVuSans-Oblique-63" transform="translate(282.421875 0.125)"/>
      <use xlink:href="#DejaVuSans-3d" transform="translate(356.884766 0.125)"/>
      <use xlink:href="#DejaVuSans-32" transform="translate(460.15625 0.125)"/>
      <use xlink:href="#DejaVuSans-29" transform="translate(523.779297 0.125)"/>
     </g>
    </g>
    <g id="line2d_18">
     <path d="M 67.835625 51.645 
L 83.835625 51.645 
L 99.835625 51.645 
" style="fill: none; stroke: #feffb3; stroke-width: 1.5; stroke-linecap: square"/>
    </g>
    <g id="text_18">
     <!-- $\epsilon$-greedy ($\epsilon=0.1$) -->
     <g style="fill: #ffffff" transform="translate(112.635625 57.245) scale(0.16 -0.16)">
      <defs>
       <path id="DejaVuSans-Oblique-3b5" d="M 1263 1888 
Q 925 1963 778 2166 
Q 669 2309 669 2503 
Q 669 3034 1175 3344 
Q 1575 3588 2188 3588 
Q 2425 3588 2684 3550 
Q 2944 3513 3234 3438 
L 3134 2916 
Q 2847 3006 2606 3047 
Q 2359 3088 2138 3088 
Q 1766 3088 1522 2944 
Q 1228 2772 1228 2522 
Q 1228 2356 1381 2241 
Q 1563 2103 1925 2103 
L 2409 2103 
L 2319 1628 
L 1856 1628 
Q 1425 1628 1172 1469 
Q 828 1253 828 916 
Q 828 703 1013 563 
Q 1244 388 1716 388 
Q 2006 388 2284 444 
Q 2563 503 2806 619 
L 2700 84 
Q 2403 -3 2131 -47 
Q 1859 -91 1609 -91 
Q 866 -91 516 194 
Q 250 413 250 781 
Q 250 1278 600 1584 
Q 859 1813 1263 1888 
z
" transform="scale(0.015625)"/>
       <path id="DejaVuSans-2d" d="M 313 2009 
L 1997 2009 
L 1997 1497 
L 313 1497 
L 313 2009 
z
" transform="scale(0.015625)"/>
       <path id="DejaVuSans-79" d="M 2059 -325 
Q 1816 -950 1584 -1140 
Q 1353 -1331 966 -1331 
L 506 -1331 
L 506 -850 
L 844 -850 
Q 1081 -850 1212 -737 
Q 1344 -625 1503 -206 
L 1606 56 
L 191 3500 
L 800 3500 
L 1894 763 
L 2988 3500 
L 3597 3500 
L 2059 -325 
z
" transform="scale(0.015625)"/>
       <path id="DejaVuSans-2e" d="M 684 794 
L 1344 794 
L 1344 0 
L 684 0 
L 684 794 
z
" transform="scale(0.015625)"/>
      </defs>
      <use xlink:href="#DejaVuSans-Oblique-3b5" transform="translate(0 0.015625)"/>
      <use xlink:href="#DejaVuSans-2d" transform="translate(54.052734 0.015625)"/>
      <use xlink:href="#DejaVuSans-67" transform="translate(90.136719 0.015625)"/>
      <use xlink:href="#DejaVuSans-72" transform="translate(153.613281 0.015625)"/>
      <use xlink:href="#DejaVuSans-65" transform="translate(194.726562 0.015625)"/>
      <use xlink:href="#DejaVuSans-65" transform="translate(256.25 0.015625)"/>
      <use xlink:href="#DejaVuSans-64" transform="translate(317.773438 0.015625)"/>
      <use xlink:href="#DejaVuSans-79" transform="translate(381.25 0.015625)"/>
      <use xlink:href="#DejaVuSans-20" transform="translate(440.429688 0.015625)"/>
      <use xlink:href="#DejaVuSans-28" transform="translate(472.216797 0.015625)"/>
      <use xlink:href="#DejaVuSans-Oblique-3b5" transform="translate(511.230469 0.015625)"/>
      <use xlink:href="#DejaVuSans-3d" transform="translate(584.765625 0.015625)"/>
      <use xlink:href="#DejaVuSans-30" transform="translate(688.037109 0.015625)"/>
      <use xlink:href="#DejaVuSans-2e" transform="translate(751.660156 0.015625)"/>
      <use xlink:href="#DejaVuSans-31" transform="translate(783.447266 0.015625)"/>
      <use xlink:href="#DejaVuSans-29" transform="translate(847.070312 0.015625)"/>
     </g>
    </g>
   </g>
  </g>
 </g>
 <defs>
  <clipPath id="p03899427bf">
   <rect x="53.435625" y="7.2" width="669.6" height="332.64"/>
  </clipPath>
 </defs>
</svg>
