<?xml version="1.0" encoding="utf-8" standalone="no"?>
<!DOCTYPE svg PUBLIC "-//W3C//DTD SVG 1.1//EN"
  "http://www.w3.org/Graphics/SVG/1.1/DTD/svg11.dtd">
<svg xmlns:xlink="http://www.w3.org/1999/xlink" width="734.685pt" height="389.01pt" viewBox="0 0 734.685 389.01" xmlns="http://www.w3.org/2000/svg" version="1.1">
 <metadata>
  <rdf:RDF xmlns:dc="http://purl.org/dc/elements/1.1/" xmlns:cc="http://creativecommons.org/ns#" xmlns:rdf="http://www.w3.org/1999/02/22-rdf-syntax-ns#">
   <cc:Work>
    <dc:type rdf:resource="http://purl.org/dc/dcmitype/StillImage"/>
    <dc:date>2026-03-08T09:17:56.395957</dc:date>
    <dc:format>image/svg+xml</dc:format>
    <dc:creator>
     <cc:Agent>
      <dc:title>Matplotlib v3.10.3, https://matplotlib.org/</dc:title>
     </cc:Agent>
    </dc:creator>
   </cc:Work>
  </rdf:RDF>
 </metadata>
 <defs>
  <style type="text/css">*{stroke-linejoin: round; stroke-linecap: butt}</style>
 </defs>
 <g id="figure_1">
  <g id="patch_1">
   <path d="M 0 389.01 
L 734.685 389.01 
L 734.685 0 
L 0 0 
L 0 389.01 
z
" style="fill: none"/>
  </g>
  <g id="axes_1">
   <g id="patch_2">
    <path d="M 57.885 339.84 
L 727.485 339.84 
L 727.485 7.2 
L 57.885 7.2 
L 57.885 339.84 
z
" style="fill: none"/>
   </g>
   <g id="matplotlib.axis_1">
    <g id="xtick_1">
     <g id="line2d_1">
      <defs>
       <path id="m005ad96121" d="M 0 0 
L 0 3.5 
" style="stroke: #000000; stroke-width: 0.8"/>
      </defs>
      <g>
       <use xlink:href="#m005ad96121" x="88.321364" y="339.84" style="stroke: #000000; stroke-width: 0.8"/>
      </g>
     </g>
     <g id="text_1">
      <!-- 0 -->
      <g transform="translate(83.867614 357.477813) scale(0.14 -0.14)">
       <defs>
        <path id="DejaVuSans-30" d="M 2034 4250 
Q 1547 4250 1301 3770 
Q 1056 3291 1056 2328 
Q 1056 1369 1301 889 
Q 1547 409 2034 409 
Q 2525 409 2770 889 
Q 3016 1369 3016 2328 
Q 3016 3291 2770 3770 
Q 2525 4250 2034 4250 
z
M 2034 4750 
Q 2819 4750 3233 4129 
Q 3647 3509 3647 2328 
Q 3647 1150 3233 529 
Q 2819 -91 2034 -91 
Q 1250 -91 836 529 
Q 422 1150 422 2328 
Q 422 3509 836 4129 
Q 1250 4750 2034 4750 
z
" transform="scale(0.015625)"/>
       </defs>
       <use xlink:href="#DejaVuSans-30"/>
      </g>
     </g>
    </g>
    <g id="xtick_2">
     <g id="line2d_2">
      <g>
       <use xlink:href="#m005ad96121" x="210.310797" y="339.84" style="stroke: #000000; stroke-width: 0.8"/>
      </g>
     </g>
     <g id="text_2">
      <!-- 100 -->
      <g transform="translate(196.949547 357.477813) scale(0.14 -0.14)">
       <defs>
        <path id="DejaVuSans-31" d="M 794 531 
L 1825 531 
L 1825 4091 
L 703 3866 
L 703 4441 
L 1819 4666 
L 2450 4666 
L 2450 531 
L 3481 531 
L 3481 0 
L 794 0 
L 794 531 
z
" transform="scale(0.015625)"/>
       </defs>
       <use xlink:href="#DejaVuSans-31"/>
       <use xlink:href="#DejaVuSans-30" transform="translate(63.623047 0)"/>
       <use xlink:href="#DejaVuSans-30" transform="translate(127.246094 0)"/>
      </g>
     </g>
    </g>
    <g id="xtick_3">
     <g id="line2d_3">
      <g>
       <use xlink:href="#m005ad96121" x="332.30023" y="339.84" style="stroke: #000000; stroke-width: 0.8"/>
      </g>
     </g>
     <g id="text_3">
      <!-- 200 -->
      <g transform="translate(318.93898 357.477813) scale(0.14 -0.14)">
       <defs>
        <path id="DejaVuSans-32" d="M 1228 531 
L 3431 531 
L 3431 0 
L 469 0 
L 469 531 
Q 828 903 1448 1529 
Q 2069 2156 2228 2338 
Q 2531 2678 2651 2914 
Q 2772 3150 2772 3378 
Q 2772 3750 2511 3984 
Q 2250 4219 1831 4219 
Q 1534 4219 1204 4116 
Q 875 4013 500 3803 
L 500 4441 
Q 881 4594 1212 4672 
Q 1544 4750 1819 4750 
Q 2544 4750 2975 4387 
Q 3406 4025 3406 3419 
Q 3406 3131 3298 2873 
Q 3191 2616 2906 2266 
Q 2828 2175 2409 1742 
Q 1991 1309 1228 531 
z
" transform="scale(0.015625)"/>
       </defs>
       <use xlink:href="#DejaVuSans-32"/>
       <use xlink:href="#DejaVuSans-30" transform="translate(63.623047 0)"/>
       <use xlink:href="#DejaVuSans-30" transform="translate(127.246094 0)"/>
      </g>
     </g>
    </g>
    <g id="xtick_4">
     <g id="line2d_4">
      <g>
       <use xlink:href="#m005ad96121" x="454.289664" y="339.84" style="stroke: #000000; stroke-width: 0.8"/>
      </g>
     </g>
     <g id="text_4">
      <!-- 300 -->
      <g transform="translate(440.928414 357.477813) scale(0.14 -0.14)">
       <defs>
        <path id="DejaVuSans-33" d="M 2597 2516 
Q 3050 2419 3304 2112 
Q 3559 1806 3559 1356 
Q 3559 666 3084 287 
Q 2609 -91 1734 -91 
Q 1441 -91 1130 -33 
Q 819 25 488 141 
L 488 750 
Q 750 597 1062 519 
Q 1375 441 1716 441 
Q 2309 441 2620 675 
Q 2931 909 2931 1356 
Q 2931 1769 2642 2001 
Q 2353 2234 1838 2234 
L 1294 2234 
L 1294 2753 
L 1863 2753 
Q 2328 2753 2575 2939 
Q 2822 3125 2822 3475 
Q 2822 3834 2567 4026 
Q 2313 4219 1838 4219 
Q 1578 4219 1281 4162 
Q 984 4106 628 3988 
L 628 4550 
Q 988 4650 1302 4700 
Q 1616 4750 1894 4750 
Q 2613 4750 3031 4423 
Q 3450 4097 3450 3541 
Q 3450 3153 3228 2886 
Q 3006 2619 2597 2516 
z
" transform="scale(0.015625)"/>
       </defs>
       <use xlink:href="#DejaVuSans-33"/>
       <use xlink:href="#DejaVuSans-30" transform="translate(63.623047 0)"/>
       <use xlink:href="#DejaVuSans-30" transform="translate(127.246094 0)"/>
      </g>
     </g>
    </g>
    <g id="xtick_5">
     <g id="line2d_5">
      <g>
       <use xlink:href="#m005ad96121" x="576.279097" y="339.84" style="stroke: #000000; stroke-width: 0.8"/>
      </g>
     </g>
     <g id="text_5">
      <!-- 400 -->
      <g transform="translate(562.917847 357.477813) scale(0.14 -0.14)">
       <defs>
        <path id="DejaVuSans-34" d="M 2419 4116 
L 825 1625 
L 2419 1625 
L 2419 4116 
z
M 2253 4666 
L 3047 4666 
L 3047 1625 
L 3713 1625 
L 3713 1100 
L 3047 1100 
L 3047 0 
L 2419 0 
L 2419 1100 
L 313 1100 
L 313 1709 
L 2253 4666 
z
" transform="scale(0.015625)"/>
       </defs>
       <use xlink:href="#DejaVuSans-34"/>
       <use xlink:href="#DejaVuSans-30" transform="translate(63.623047 0)"/>
       <use xlink:href="#DejaVuSans-30" transform="translate(127.246094 0)"/>
      </g>
     </g>
    </g>
    <g id="xtick_6">
     <g id="line2d_6">
      <g>
       <use xlink:href="#m005ad96121" x="698.268531" y="339.84" style="stroke: #000000; stroke-width: 0.8"/>
      </g>
     </g>
     <g id="text_6">
      <!-- 500 -->
      <g transform="translate(684.907281 357.477813) scale(0.14 -0.14)">
       <defs>
        <path id="DejaVuSans-35" d="M 691 4666 
L 3169 4666 
L 3169 4134 
L 1269 4134 
L 1269 2991 
Q 1406 3038 1543 3061 
Q 1681 3084 1819 3084 
Q 2600 3084 3056 2656 
Q 3513 2228 3513 1497 
Q 3513 744 3044 326 
Q 2575 -91 1722 -91 
Q 1428 -91 1123 -41 
Q 819 9 494 109 
L 494 744 
Q 775 591 1075 516 
Q 1375 441 1709 441 
Q 2250 441 2565 725 
Q 2881 1009 2881 1497 
Q 2881 1984 2565 2268 
Q 2250 2553 1709 2553 
Q 1456 2553 1204 2497 
Q 953 2441 691 2322 
L 691 4666 
z
" transform="scale(0.015625)"/>
       </defs>
       <use xlink:href="#DejaVuSans-35"/>
       <use xlink:href="#DejaVuSans-30" transform="translate(63.623047 0)"/>
       <use xlink:href="#DejaVuSans-30" transform="translate(127.246094 0)"/>
      </g>
     </g>
    </g>
    <g id="text_7">
     <!-- Steps -->
     <g transform="translate(367.503281 378.066563) scale(0.18 -0.18)">
      <defs>
       <path id="DejaVuSans-53" d="M 3425 4513 
L 3425 3897 
Q 3066 4069 2747 4153 
Q 2428 4238 2131 4238 
Q 1616 4238 1336 4038 
Q 1056 3838 1056 3469 
Q 1056 3159 1242 3001 
Q 1428 2844 1947 2747 
L 2328 2669 
Q 3034 2534 3370 2195 
Q 3706 1856 3706 1288 
Q 3706 609 3251 259 
Q 2797 -91 1919 -91 
Q 1588 -91 1214 -16 
Q 841 59 441 206 
L 441 856 
Q 825 641 1194 531 
Q 1563 422 1919 422 
Q 2459 422 2753 634 
Q 3047 847 3047 1241 
Q 3047 1584 2836 1778 
Q 2625 1972 2144 2069 
L 1759 2144 
Q 1053 2284 737 2584 
Q 422 2884 422 3419 
Q 422 4038 858 4394 
Q 1294 4750 2059 4750 
Q 2388 4750 2728 4690 
Q 3069 4631 3425 4513 
z
" transform="scale(0.015625)"/>
       <path id="DejaVuSans-74" d="M 1172 4494 
L 1172 3500 
L 2356 3500 
L 2356 3053 
L 1172 3053 
L 1172 1153 
Q 1172 725 1289 603 
Q 1406 481 1766 481 
L 2356 481 
L 2356 0 
L 1766 0 
Q 1100 0 847 248 
Q 594 497 594 1153 
L 594 3053 
L 172 3053 
L 172 3500 
L 594 3500 
L 594 4494 
L 1172 4494 
z
" transform="scale(0.015625)"/>
       <path id="DejaVuSans-65" d="M 3597 1894 
L 3597 1613 
L 953 1613 
Q 991 1019 1311 708 
Q 1631 397 2203 397 
Q 2534 397 2845 478 
Q 3156 559 3463 722 
L 3463 178 
Q 3153 47 2828 -22 
Q 2503 -91 2169 -91 
Q 1331 -91 842 396 
Q 353 884 353 1716 
Q 353 2575 817 3079 
Q 1281 3584 2069 3584 
Q 2775 3584 3186 3129 
Q 3597 2675 3597 1894 
z
M 3022 2063 
Q 3016 2534 2758 2815 
Q 2500 3097 2075 3097 
Q 1594 3097 1305 2825 
Q 1016 2553 972 2059 
L 3022 2063 
z
" transform="scale(0.015625)"/>
       <path id="DejaVuSans-70" d="M 1159 525 
L 1159 -1331 
L 581 -1331 
L 581 3500 
L 1159 3500 
L 1159 2969 
Q 1341 3281 1617 3432 
Q 1894 3584 2278 3584 
Q 2916 3584 3314 3078 
Q 3713 2572 3713 1747 
Q 3713 922 3314 415 
Q 2916 -91 2278 -91 
Q 1894 -91 1617 61 
Q 1341 213 1159 525 
z
M 3116 1747 
Q 3116 2381 2855 2742 
Q 2594 3103 2138 3103 
Q 1681 3103 1420 2742 
Q 1159 2381 1159 1747 
Q 1159 1113 1420 752 
Q 1681 391 2138 391 
Q 2594 391 2855 752 
Q 3116 1113 3116 1747 
z
" transform="scale(0.015625)"/>
       <path id="DejaVuSans-73" d="M 2834 3397 
L 2834 2853 
Q 2591 2978 2328 3040 
Q 2066 3103 1784 3103 
Q 1356 3103 1142 2972 
Q 928 2841 928 2578 
Q 928 2378 1081 2264 
Q 1234 2150 1697 2047 
L 1894 2003 
Q 2506 1872 2764 1633 
Q 3022 1394 3022 966 
Q 3022 478 2636 193 
Q 2250 -91 1575 -91 
Q 1294 -91 989 -36 
Q 684 19 347 128 
L 347 722 
Q 666 556 975 473 
Q 1284 391 1588 391 
Q 1994 391 2212 530 
Q 2431 669 2431 922 
Q 2431 1156 2273 1281 
Q 2116 1406 1581 1522 
L 1381 1569 
Q 847 1681 609 1914 
Q 372 2147 372 2553 
Q 372 3047 722 3315 
Q 1072 3584 1716 3584 
Q 2034 3584 2315 3537 
Q 2597 3491 2834 3397 
z
" transform="scale(0.015625)"/>
      </defs>
      <use xlink:href="#DejaVuSans-53"/>
      <use xlink:href="#DejaVuSans-74" transform="translate(63.476562 0)"/>
      <use xlink:href="#DejaVuSans-65" transform="translate(102.685547 0)"/>
      <use xlink:href="#DejaVuSans-70" transform="translate(164.208984 0)"/>
      <use xlink:href="#DejaVuSans-73" transform="translate(227.685547 0)"/>
     </g>
    </g>
   </g>
   <g id="matplotlib.axis_2">
    <g id="ytick_1">
     <g id="line2d_7">
      <defs>
       <path id="m457928c805" d="M 0 0 
L -3.5 0 
" style="stroke: #000000; stroke-width: 0.8"/>
      </defs>
      <g>
       <use xlink:href="#m457928c805" x="57.885" y="316.34176" style="stroke: #000000; stroke-width: 0.8"/>
      </g>
     </g>
     <g id="text_8">
      <!-- 0.0 -->
      <g transform="translate(28.620625 321.660666) scale(0.14 -0.14)">
       <defs>
        <path id="DejaVuSans-2e" d="M 684 794 
L 1344 794 
L 1344 0 
L 684 0 
L 684 794 
z
" transform="scale(0.015625)"/>
       </defs>
       <use xlink:href="#DejaVuSans-30"/>
       <use xlink:href="#DejaVuSans-2e" transform="translate(63.623047 0)"/>
       <use xlink:href="#DejaVuSans-30" transform="translate(95.410156 0)"/>
      </g>
     </g>
    </g>
    <g id="ytick_2">
     <g id="line2d_8">
      <g>
       <use xlink:href="#m457928c805" x="57.885" y="276.055154" style="stroke: #000000; stroke-width: 0.8"/>
      </g>
     </g>
     <g id="text_9">
      <!-- 0.2 -->
      <g transform="translate(28.620625 281.37406) scale(0.14 -0.14)">
       <use xlink:href="#DejaVuSans-30"/>
       <use xlink:href="#DejaVuSans-2e" transform="translate(63.623047 0)"/>
       <use xlink:href="#DejaVuSans-32" transform="translate(95.410156 0)"/>
      </g>
     </g>
    </g>
    <g id="ytick_3">
     <g id="line2d_9">
      <g>
       <use xlink:href="#m457928c805" x="57.885" y="235.768548" style="stroke: #000000; stroke-width: 0.8"/>
      </g>
     </g>
     <g id="text_10">
      <!-- 0.4 -->
      <g transform="translate(28.620625 241.087454) scale(0.14 -0.14)">
       <use xlink:href="#DejaVuSans-30"/>
       <use xlink:href="#DejaVuSans-2e" transform="translate(63.623047 0)"/>
       <use xlink:href="#DejaVuSans-34" transform="translate(95.410156 0)"/>
      </g>
     </g>
    </g>
    <g id="ytick_4">
     <g id="line2d_10">
      <g>
       <use xlink:href="#m457928c805" x="57.885" y="195.481941" style="stroke: #000000; stroke-width: 0.8"/>
      </g>
     </g>
     <g id="text_11">
      <!-- 0.6 -->
      <g transform="translate(28.620625 200.800847) scale(0.14 -0.14)">
       <defs>
        <path id="DejaVuSans-36" d="M 2113 2584 
Q 1688 2584 1439 2293 
Q 1191 2003 1191 1497 
Q 1191 994 1439 701 
Q 1688 409 2113 409 
Q 2538 409 2786 701 
Q 3034 994 3034 1497 
Q 3034 2003 2786 2293 
Q 2538 2584 2113 2584 
z
M 3366 4563 
L 3366 3988 
Q 3128 4100 2886 4159 
Q 2644 4219 2406 4219 
Q 1781 4219 1451 3797 
Q 1122 3375 1075 2522 
Q 1259 2794 1537 2939 
Q 1816 3084 2150 3084 
Q 2853 3084 3261 2657 
Q 3669 2231 3669 1497 
Q 3669 778 3244 343 
Q 2819 -91 2113 -91 
Q 1303 -91 875 529 
Q 447 1150 447 2328 
Q 447 3434 972 4092 
Q 1497 4750 2381 4750 
Q 2619 4750 2861 4703 
Q 3103 4656 3366 4563 
z
" transform="scale(0.015625)"/>
       </defs>
       <use xlink:href="#DejaVuSans-30"/>
       <use xlink:href="#DejaVuSans-2e" transform="translate(63.623047 0)"/>
       <use xlink:href="#DejaVuSans-36" transform="translate(95.410156 0)"/>
      </g>
     </g>
    </g>
    <g id="ytick_5">
     <g id="line2d_11">
      <g>
       <use xlink:href="#m457928c805" x="57.885" y="155.195335" style="stroke: #000000; stroke-width: 0.8"/>
      </g>
     </g>
     <g id="text_12">
      <!-- 0.8 -->
      <g transform="translate(28.620625 160.514241) scale(0.14 -0.14)">
       <defs>
        <path id="DejaVuSans-38" d="M 2034 2216 
Q 1584 2216 1326 1975 
Q 1069 1734 1069 1313 
Q 1069 891 1326 650 
Q 1584 409 2034 409 
Q 2484 409 2743 651 
Q 3003 894 3003 1313 
Q 3003 1734 2745 1975 
Q 2488 2216 2034 2216 
z
M 1403 2484 
Q 997 2584 770 2862 
Q 544 3141 544 3541 
Q 544 4100 942 4425 
Q 1341 4750 2034 4750 
Q 2731 4750 3128 4425 
Q 3525 4100 3525 3541 
Q 3525 3141 3298 2862 
Q 3072 2584 2669 2484 
Q 3125 2378 3379 2068 
Q 3634 1759 3634 1313 
Q 3634 634 3220 271 
Q 2806 -91 2034 -91 
Q 1263 -91 848 271 
Q 434 634 434 1313 
Q 434 1759 690 2068 
Q 947 2378 1403 2484 
z
M 1172 3481 
Q 1172 3119 1398 2916 
Q 1625 2713 2034 2713 
Q 2441 2713 2670 2916 
Q 2900 3119 2900 3481 
Q 2900 3844 2670 4047 
Q 2441 4250 2034 4250 
Q 1625 4250 1398 4047 
Q 1172 3844 1172 3481 
z
" transform="scale(0.015625)"/>
       </defs>
       <use xlink:href="#DejaVuSans-30"/>
       <use xlink:href="#DejaVuSans-2e" transform="translate(63.623047 0)"/>
       <use xlink:href="#DejaVuSans-38" transform="translate(95.410156 0)"/>
      </g>
     </g>
    </g>
    <g id="ytick_6">
     <g id="line2d_12">
      <g>
       <use xlink:href="#m457928c805" x="57.885" y="114.908729" style="stroke: #000000; stroke-width: 0.8"/>
      </g>
     </g>
     <g id="text_13">
      <!-- 1.0 -->
      <g transform="translate(28.620625 120.227635) scale(0.14 -0.14)">
       <use xlink:href="#DejaVuSans-31"/>
       <use xlink:href="#DejaVuSans-2e" transform="translate(63.623047 0)"/>
       <use xlink:href="#DejaVuSans-30" transform="translate(95.410156 0)"/>
      </g>
     </g>
    </g>
    <g id="ytick_7">
     <g id="line2d_13">
      <g>
       <use xlink:href="#m457928c805" x="57.885" y="74.622122" style="stroke: #000000; stroke-width: 0.8"/>
      </g>
     </g>
     <g id="text_14">
      <!-- 1.2 -->
      <g transform="translate(28.620625 79.941029) scale(0.14 -0.14)">
       <use xlink:href="#DejaVuSans-31"/>
       <use xlink:href="#DejaVuSans-2e" transform="translate(63.623047 0)"/>
       <use xlink:href="#DejaVuSans-32" transform="translate(95.410156 0)"/>
      </g>
     </g>
    </g>
    <g id="ytick_8">
     <g id="line2d_14">
      <g>
       <use xlink:href="#m457928c805" x="57.885" y="34.335516" style="stroke: #000000; stroke-width: 0.8"/>
      </g>
     </g>
     <g id="text_15">
      <!-- 1.4 -->
      <g transform="translate(28.620625 39.654422) scale(0.14 -0.14)">
       <use xlink:href="#DejaVuSans-31"/>
       <use xlink:href="#DejaVuSans-2e" transform="translate(63.623047 0)"/>
       <use xlink:href="#DejaVuSans-34" transform="translate(95.410156 0)"/>
      </g>
     </g>
    </g>
    <g id="text_16">
     <!-- Average reward -->
     <g transform="translate(20.877188 244.506094) rotate(-90) scale(0.18 -0.18)">
      <defs>
       <path id="DejaVuSans-41" d="M 2188 4044 
L 1331 1722 
L 3047 1722 
L 2188 4044 
z
M 1831 4666 
L 2547 4666 
L 4325 0 
L 3669 0 
L 3244 1197 
L 1141 1197 
L 716 0 
L 50 0 
L 1831 4666 
z
" transform="scale(0.015625)"/>
       <path id="DejaVuSans-76" d="M 191 3500 
L 800 3500 
L 1894 563 
L 2988 3500 
L 3597 3500 
L 2284 0 
L 1503 0 
L 191 3500 
z
" transform="scale(0.015625)"/>
       <path id="DejaVuSans-72" d="M 2631 2963 
Q 2534 3019 2420 3045 
Q 2306 3072 2169 3072 
Q 1681 3072 1420 2755 
Q 1159 2438 1159 1844 
L 1159 0 
L 581 0 
L 581 3500 
L 1159 3500 
L 1159 2956 
Q 1341 3275 1631 3429 
Q 1922 3584 2338 3584 
Q 2397 3584 2469 3576 
Q 2541 3569 2628 3553 
L 2631 2963 
z
" transform="scale(0.015625)"/>
       <path id="DejaVuSans-61" d="M 2194 1759 
Q 1497 1759 1228 1600 
Q 959 1441 959 1056 
Q 959 750 1161 570 
Q 1363 391 1709 391 
Q 2188 391 2477 730 
Q 2766 1069 2766 1631 
L 2766 1759 
L 2194 1759 
z
M 3341 1997 
L 3341 0 
L 2766 0 
L 2766 531 
Q 2569 213 2275 61 
Q 1981 -91 1556 -91 
Q 1019 -91 701 211 
Q 384 513 384 1019 
Q 384 1609 779 1909 
Q 1175 2209 1959 2209 
L 2766 2209 
L 2766 2266 
Q 2766 2663 2505 2880 
Q 2244 3097 1772 3097 
Q 1472 3097 1187 3025 
Q 903 2953 641 2809 
L 641 3341 
Q 956 3463 1253 3523 
Q 1550 3584 1831 3584 
Q 2591 3584 2966 3190 
Q 3341 2797 3341 1997 
z
" transform="scale(0.015625)"/>
       <path id="DejaVuSans-67" d="M 2906 1791 
Q 2906 2416 2648 2759 
Q 2391 3103 1925 3103 
Q 1463 3103 1205 2759 
Q 947 2416 947 1791 
Q 947 1169 1205 825 
Q 1463 481 1925 481 
Q 2391 481 2648 825 
Q 2906 1169 2906 1791 
z
M 3481 434 
Q 3481 -459 3084 -895 
Q 2688 -1331 1869 -1331 
Q 1566 -1331 1297 -1286 
Q 1028 -1241 775 -1147 
L 775 -588 
Q 1028 -725 1275 -790 
Q 1522 -856 1778 -856 
Q 2344 -856 2625 -561 
Q 2906 -266 2906 331 
L 2906 616 
Q 2728 306 2450 153 
Q 2172 0 1784 0 
Q 1141 0 747 490 
Q 353 981 353 1791 
Q 353 2603 747 3093 
Q 1141 3584 1784 3584 
Q 2172 3584 2450 3431 
Q 2728 3278 2906 2969 
L 2906 3500 
L 3481 3500 
L 3481 434 
z
" transform="scale(0.015625)"/>
       <path id="DejaVuSans-20" transform="scale(0.015625)"/>
       <path id="DejaVuSans-77" d="M 269 3500 
L 844 3500 
L 1563 769 
L 2278 3500 
L 2956 3500 
L 3675 769 
L 4391 3500 
L 4966 3500 
L 4050 0 
L 3372 0 
L 2619 2869 
L 1863 0 
L 1184 0 
L 269 3500 
z
" transform="scale(0.015625)"/>
       <path id="DejaVuSans-64" d="M 2906 2969 
L 2906 4863 
L 3481 4863 
L 3481 0 
L 2906 0 
L 2906 525 
Q 2725 213 2448 61 
Q 2172 -91 1784 -91 
Q 1150 -91 751 415 
Q 353 922 353 1747 
Q 353 2572 751 3078 
Q 1150 3584 1784 3584 
Q 2172 3584 2448 3432 
Q 2725 3281 2906 2969 
z
M 947 1747 
Q 947 1113 1208 752 
Q 1469 391 1925 391 
Q 2381 391 2643 752 
Q 2906 1113 2906 1747 
Q 2906 2381 2643 2742 
Q 2381 3103 1925 3103 
Q 1469 3103 1208 2742 
Q 947 2381 947 1747 
z
" transform="scale(0.015625)"/>
      </defs>
      <use xlink:href="#DejaVuSans-41"/>
      <use xlink:href="#DejaVuSans-76" transform="translate(62.533203 0)"/>
      <use xlink:href="#DejaVuSans-65" transform="translate(121.712891 0)"/>
      <use xlink:href="#DejaVuSans-72" transform="translate(183.236328 0)"/>
      <use xlink:href="#DejaVuSans-61" transform="translate(224.349609 0)"/>
      <use xlink:href="#DejaVuSans-67" transform="translate(285.628906 0)"/>
      <use xlink:href="#DejaVuSans-65" transform="translate(349.105469 0)"/>
      <use xlink:href="#DejaVuSans-20" transform="translate(410.628906 0)"/>
      <use xlink:href="#DejaVuSans-72" transform="translate(442.416016 0)"/>
      <use xlink:href="#DejaVuSans-65" transform="translate(481.279297 0)"/>
      <use xlink:href="#DejaVuSans-77" transform="translate(542.802734 0)"/>
      <use xlink:href="#DejaVuSans-61" transform="translate(624.589844 0)"/>
      <use xlink:href="#DejaVuSans-72" transform="translate(685.869141 0)"/>
      <use xlink:href="#DejaVuSans-64" transform="translate(725.232422 0)"/>
     </g>
    </g>
   </g>
   <g id="line2d_15">
    <path d="M 88.321364 316.331726 
L 89.541258 319.955066 
L 90.761152 320.522759 
L 91.981047 314.551941 
L 93.200941 314.207644 
L 94.420835 324.72 
L 96.860624 316.901566 
L 98.080518 315.500345 
L 99.300413 316.421838 
L 100.520307 105.546354 
L 101.740201 166.252828 
L 102.960096 210.157997 
L 104.17999 235.237404 
L 105.399884 257.072657 
L 106.619779 287.503774 
L 107.839673 296.391946 
L 109.059567 309.947038 
L 110.279462 314.960587 
L 111.499356 294.52478 
L 112.71925 200.665966 
L 113.939145 144.070492 
L 115.159039 119.692204 
L 116.378933 103.881699 
L 117.598828 99.278203 
L 118.818722 88.901552 
L 120.038616 89.470695 
L 121.258511 85.114363 
L 123.698299 75.236844 
L 124.918194 76.164281 
L 126.138088 75.253849 
L 127.357982 66.558497 
L 128.577877 66.109525 
L 129.797771 66.073722 
L 131.017665 60.668795 
L 132.23756 57.872999 
L 133.457454 65.365614 
L 134.677348 58.879027 
L 135.897243 60.11253 
L 137.117137 54.831737 
L 138.337031 55.724634 
L 139.556926 54.165397 
L 140.77682 50.981589 
L 141.996714 55.370421 
L 143.216609 49.73496 
L 145.656397 45.016738 
L 146.876292 52.338926 
L 148.096186 48.749692 
L 149.31608 41.91047 
L 150.535975 46.818509 
L 151.755869 47.870258 
L 152.975763 41.280747 
L 154.195658 41.939889 
L 155.415552 39.332831 
L 156.635446 43.484245 
L 157.855341 44.528597 
L 159.075235 44.509491 
L 160.295129 41.887195 
L 161.515024 41.224373 
L 162.734918 43.000538 
L 163.954812 43.566732 
L 165.174707 41.372462 
L 166.394601 36.874894 
L 167.614495 39.563835 
L 168.83439 40.745887 
L 170.054284 38.433744 
L 171.274178 40.070922 
L 172.494073 38.263236 
L 173.713967 39.661668 
L 174.933861 43.455851 
L 176.153756 41.173902 
L 177.37365 42.936609 
L 178.593544 38.578759 
L 179.813439 43.785714 
L 181.033333 35.941794 
L 182.253227 38.639292 
L 183.473122 42.023603 
L 184.693016 38.192942 
L 185.91291 41.53421 
L 187.132805 39.472999 
L 188.352699 41.389189 
L 189.572593 41.213247 
L 190.792488 36.89485 
L 192.012382 38.129506 
L 193.232276 42.051214 
L 194.452171 40.971233 
L 195.672065 34.435479 
L 196.891959 36.149039 
L 198.111854 37.661798 
L 199.331748 42.1265 
L 200.551642 34.95539 
L 201.771537 35.581687 
L 202.991431 43.992741 
L 204.211325 42.862743 
L 205.43122 31.928513 
L 206.651114 39.683774 
L 207.871008 43.550822 
L 209.090903 34.988032 
L 210.310797 35.058597 
L 211.530691 39.858562 
L 212.750586 39.604772 
L 213.97048 36.853449 
L 215.190374 38.575578 
L 216.410269 39.724942 
L 217.630163 39.135457 
L 218.850057 40.756622 
L 220.069952 39.072212 
L 221.289846 36.94786 
L 222.50974 42.640968 
L 223.729635 38.088998 
L 224.949529 39.265602 
L 226.169423 36.389937 
L 227.389318 35.025147 
L 228.609212 37.97349 
L 229.829106 39.52607 
L 231.049001 37.561767 
L 232.268895 47.046934 
L 233.488789 39.183 
L 234.708684 35.865971 
L 237.148472 35.590097 
L 238.368367 34.089742 
L 239.588261 37.264088 
L 240.808155 33.991647 
L 242.02805 39.884323 
L 244.467838 33.478828 
L 245.687733 42.888175 
L 246.907627 39.076579 
L 248.127521 37.815376 
L 249.347416 37.209788 
L 250.56731 41.047778 
L 251.787204 35.111403 
L 253.007099 37.103836 
L 254.226993 37.934358 
L 255.446887 38.51932 
L 256.666782 36.780707 
L 257.886676 39.712593 
L 259.10657 32.023822 
L 260.326465 36.89652 
L 261.546359 35.974055 
L 262.766253 36.049226 
L 263.986148 41.147824 
L 265.206042 34.624747 
L 266.425936 39.41741 
L 267.645831 38.172733 
L 268.865725 41.496423 
L 270.085619 38.772835 
L 271.305514 31.824915 
L 272.525408 34.260599 
L 273.745302 37.783265 
L 274.965197 37.065428 
L 276.185091 37.546661 
L 277.404985 34.967919 
L 278.62488 42.55476 
L 279.844774 35.056594 
L 281.064668 36.657251 
L 282.284563 36.59146 
L 283.504457 41.097836 
L 285.944246 38.254429 
L 287.16414 39.196499 
L 288.384034 34.176158 
L 289.603929 36.848019 
L 290.823823 37.239702 
L 292.043717 30.603967 
L 293.263612 37.505369 
L 294.483506 32.527528 
L 295.7034 41.498778 
L 296.923295 36.066205 
L 298.143189 44.061106 
L 299.363083 38.74213 
L 300.582978 36.45032 
L 301.802872 32.363253 
L 303.022766 34.33681 
L 304.242661 35.538142 
L 305.462555 38.972593 
L 306.682449 39.369003 
L 307.902344 36.545622 
L 309.122238 37.232517 
L 310.342132 41.615462 
L 311.562027 39.411643 
L 312.781921 39.199261 
L 314.001815 40.145538 
L 315.22171 34.280233 
L 316.441604 40.573252 
L 317.661498 36.760637 
L 318.881393 35.093212 
L 320.101287 37.833044 
L 321.321181 28.226968 
L 322.541076 39.097757 
L 323.76097 33.824364 
L 324.980864 39.058356 
L 326.200759 42.700535 
L 327.420653 34.971531 
L 328.640547 35.651303 
L 329.860442 34.747821 
L 331.080336 29.834344 
L 332.30023 39.550405 
L 333.520125 33.282487 
L 334.740019 30.786126 
L 335.959913 35.607168 
L 337.179808 34.182762 
L 338.399702 36.93778 
L 339.619596 33.43333 
L 340.839491 40.293846 
L 342.059385 33.917076 
L 343.279279 40.291359 
L 344.499174 38.430776 
L 345.719068 40.084309 
L 346.938962 33.3356 
L 348.158857 34.793349 
L 349.378751 31.629409 
L 350.598645 38.544968 
L 351.81854 39.83761 
L 353.038434 35.381935 
L 354.258328 36.546498 
L 355.478223 42.833886 
L 356.698117 35.469413 
L 357.918011 36.286148 
L 359.137906 34.021987 
L 360.3578 33.942026 
L 361.577694 36.728944 
L 362.797589 40.129834 
L 364.017483 32.14983 
L 365.237377 33.769098 
L 366.457272 38.889675 
L 367.677166 32.576464 
L 368.89706 35.819488 
L 370.116955 33.821841 
L 371.336849 38.62675 
L 372.556743 33.151903 
L 373.776638 29.0637 
L 374.996532 34.98199 
L 376.216426 38.042161 
L 377.436321 38.086184 
L 378.656215 34.503856 
L 379.876109 31.282034 
L 381.096004 34.137596 
L 382.315898 35.749371 
L 383.535792 32.325148 
L 384.755687 38.519734 
L 385.975581 34.298441 
L 387.195475 31.496557 
L 388.41537 31.113747 
L 389.635264 32.908227 
L 390.855158 35.255503 
L 392.075053 36.269744 
L 393.294947 31.656694 
L 394.514842 28.727666 
L 395.734736 28.272117 
L 396.95463 31.799634 
L 398.174525 30.593164 
L 399.394419 35.318411 
L 400.614313 32.42233 
L 401.834208 28.320724 
L 403.054102 32.757713 
L 404.273996 37.794397 
L 405.493891 38.132832 
L 406.713785 33.501753 
L 407.933679 34.429017 
L 409.153574 30.251222 
L 410.373468 33.109878 
L 411.593362 33.547829 
L 412.813257 35.369627 
L 414.033151 29.16344 
L 415.253045 32.639515 
L 416.47294 35.042389 
L 417.692834 39.468182 
L 418.912728 32.048129 
L 420.132623 31.304049 
L 421.352517 30.690287 
L 422.572411 37.285672 
L 423.792306 30.247614 
L 425.0122 37.019868 
L 426.232094 31.926341 
L 427.451989 37.216134 
L 428.671883 35.314112 
L 429.891777 29.256529 
L 431.111672 32.988286 
L 432.331566 35.741347 
L 434.771355 31.772873 
L 435.991249 31.543202 
L 437.211143 29.729865 
L 438.431038 35.203297 
L 439.650932 31.314457 
L 440.870826 31.006717 
L 442.090721 29.743522 
L 443.310615 29.189298 
L 444.530509 27.740897 
L 445.750404 35.036302 
L 446.970298 34.584801 
L 448.190192 34.867071 
L 449.410087 30.501233 
L 450.629981 33.414662 
L 451.849875 29.264227 
L 453.06977 30.560245 
L 454.289664 32.719466 
L 455.509558 31.393122 
L 456.729453 30.952912 
L 457.949347 27.309483 
L 459.169241 30.043829 
L 460.389136 30.212768 
L 461.60903 28.096925 
L 462.828924 32.92127 
L 464.048819 30.998782 
L 465.268713 29.725761 
L 466.488607 34.847895 
L 467.708502 28.863001 
L 468.928396 34.713337 
L 470.14829 32.297449 
L 471.368185 36.458611 
L 472.588079 38.156186 
L 473.807973 27.068364 
L 475.027868 35.765661 
L 476.247762 31.574055 
L 477.467656 34.628486 
L 478.687551 32.955812 
L 479.907445 40.981486 
L 481.127339 37.654807 
L 482.347234 31.755371 
L 483.567128 33.597002 
L 484.787022 32.633287 
L 486.006917 37.913838 
L 487.226811 38.965487 
L 488.446705 35.2957 
L 489.6666 32.049848 
L 490.886494 30.562433 
L 492.106388 26.025024 
L 493.326283 35.247201 
L 494.546177 33.085059 
L 495.766071 32.293119 
L 496.985966 29.16776 
L 498.20586 29.424985 
L 499.425754 27.431597 
L 500.645649 37.279822 
L 501.865543 36.596239 
L 503.085437 29.117143 
L 504.305332 33.759523 
L 505.525226 26.9059 
L 506.74512 30.545041 
L 507.965015 28.85197 
L 509.184909 29.985961 
L 510.404803 31.519465 
L 511.624698 32.656379 
L 512.844592 31.318728 
L 514.064486 34.123218 
L 515.284381 28.045478 
L 516.504275 30.302341 
L 517.724169 35.477201 
L 518.944064 26.728955 
L 520.163958 32.77419 
L 521.383852 25.343841 
L 522.603747 29.56593 
L 523.823641 24.907203 
L 525.043535 32.399815 
L 526.26343 28.866708 
L 527.483324 32.998894 
L 528.703218 33.263923 
L 529.923113 32.448238 
L 531.143007 28.087423 
L 532.362901 35.164345 
L 533.582796 29.39233 
L 534.80269 24.786454 
L 536.022584 35.781883 
L 537.242479 30.883336 
L 538.462373 34.272945 
L 539.682267 31.606675 
L 540.902162 33.38417 
L 542.122056 35.520532 
L 543.34195 31.600978 
L 544.561845 38.77124 
L 545.781739 32.96728 
L 547.001633 34.34374 
L 548.221528 31.32891 
L 549.441422 36.184508 
L 550.661316 32.003482 
L 551.881211 31.455806 
L 553.101105 36.882302 
L 554.320999 34.666306 
L 555.540894 26.283267 
L 556.760788 32.198387 
L 557.980682 30.267904 
L 559.200577 27.104587 
L 560.420471 33.930103 
L 561.640365 37.213491 
L 562.86026 29.71963 
L 564.080154 33.09198 
L 565.300048 32.806683 
L 566.519943 29.895426 
L 567.739837 32.027038 
L 568.959731 29.014939 
L 570.179626 24.310825 
L 571.39952 32.953915 
L 572.619414 29.74787 
L 573.839309 30.666398 
L 575.059203 35.050046 
L 576.279097 33.406707 
L 577.498992 29.67582 
L 578.718886 33.660895 
L 579.93878 31.223054 
L 581.158675 29.415784 
L 582.378569 27.192054 
L 583.598463 30.010568 
L 584.818358 32.450277 
L 586.038252 34.127634 
L 587.258146 32.757456 
L 588.478041 33.290783 
L 589.697935 32.972071 
L 590.917829 33.244806 
L 592.137724 32.893556 
L 593.357618 35.374077 
L 594.577512 28.745952 
L 595.797407 36.301181 
L 597.017301 32.684786 
L 598.237195 34.692085 
L 599.45709 25.443327 
L 600.676984 32.109645 
L 601.896878 37.758605 
L 603.116773 30.844742 
L 604.336667 35.274012 
L 605.556561 31.305209 
L 606.776456 29.733936 
L 607.99635 28.869605 
L 609.216244 24.788984 
L 610.436139 28.672494 
L 611.656033 36.146686 
L 612.875927 30.722533 
L 614.095822 33.675689 
L 615.315716 29.997154 
L 616.53561 31.451349 
L 617.755505 27.282072 
L 618.975399 26.710327 
L 620.195293 35.925697 
L 621.415188 32.72906 
L 622.635082 25.426583 
L 623.854976 26.242942 
L 625.074871 28.315073 
L 626.294765 26.97426 
L 627.514659 28.327463 
L 628.734554 30.139115 
L 629.954448 29.544224 
L 631.174342 27.625762 
L 632.394237 31.08514 
L 634.834025 25.43075 
L 636.05392 29.423761 
L 637.273814 24.426474 
L 638.493708 30.385549 
L 639.713603 34.200451 
L 640.933497 31.633336 
L 642.153391 34.078957 
L 643.373286 28.001228 
L 644.59318 32.161381 
L 645.813074 26.847391 
L 647.032969 30.746622 
L 649.472757 28.707885 
L 650.692652 26.042225 
L 651.912546 31.777091 
L 653.13244 29.08567 
L 654.352335 33.619808 
L 655.572229 25.579814 
L 656.792123 29.613006 
L 658.012018 24.376891 
L 659.231912 28.561607 
L 660.451806 30.006499 
L 661.671701 24.839366 
L 662.891595 28.494177 
L 664.111489 28.927832 
L 665.331384 26.317106 
L 666.551278 34.857548 
L 667.771172 28.073754 
L 668.991067 27.477045 
L 670.210961 32.94868 
L 671.430855 22.32 
L 672.65075 34.727279 
L 673.870644 30.344427 
L 675.090538 33.702631 
L 676.310433 33.936987 
L 677.530327 30.228803 
L 678.750221 31.910749 
L 679.970116 28.819112 
L 681.19001 34.703588 
L 682.409904 33.444753 
L 683.629799 25.776522 
L 684.849693 30.984864 
L 686.069587 30.886679 
L 687.289482 30.461318 
L 688.509376 33.567582 
L 689.72927 25.724268 
L 690.949165 32.170696 
L 692.169059 28.94758 
L 693.388953 28.602071 
L 694.608848 29.242883 
L 695.828742 29.23855 
L 697.048636 29.944148 
L 697.048636 29.944148 
" clip-path="url(#pa969768a66)" style="fill: none; stroke: #1f77b4; stroke-width: 1.5; stroke-linecap: square"/>
   </g>
   <g id="line2d_16">
    <path d="M 88.321364 317.728231 
L 89.541258 308.653017 
L 90.761152 319.12329 
L 91.981047 313.392655 
L 93.200941 319.055608 
L 94.420835 319.903147 
L 95.64073 305.721123 
L 96.860624 316.798661 
L 98.080518 313.536849 
L 99.300413 309.561844 
L 100.520307 189.95656 
L 101.740201 128.129588 
L 102.960096 116.389171 
L 104.17999 107.478915 
L 105.399884 104.722225 
L 106.619779 99.888507 
L 107.839673 97.602381 
L 109.059567 92.70715 
L 110.279462 89.026519 
L 111.499356 91.161205 
L 112.71925 87.840403 
L 113.939145 94.645567 
L 115.159039 85.425571 
L 116.378933 86.868742 
L 117.598828 81.996341 
L 118.818722 86.465603 
L 120.038616 88.854407 
L 121.258511 90.840916 
L 122.478405 83.013509 
L 123.698299 89.202437 
L 124.918194 88.655302 
L 126.138088 81.607356 
L 127.357982 90.979116 
L 128.577877 84.44473 
L 129.797771 84.053039 
L 131.017665 89.464452 
L 132.23756 84.251068 
L 133.457454 84.650429 
L 134.677348 80.119907 
L 135.897243 85.24705 
L 138.337031 75.742438 
L 139.556926 78.038012 
L 140.77682 76.114791 
L 141.996714 85.327428 
L 143.216609 83.322501 
L 144.436503 78.300622 
L 145.656397 76.57012 
L 146.876292 76.22798 
L 148.096186 77.819781 
L 149.31608 72.502531 
L 150.535975 83.198684 
L 151.755869 76.774558 
L 152.975763 79.85962 
L 154.195658 79.662376 
L 155.415552 77.314142 
L 156.635446 80.150508 
L 157.855341 74.253294 
L 159.075235 70.746848 
L 160.295129 77.552371 
L 161.515024 78.747336 
L 162.734918 75.673075 
L 163.954812 75.069751 
L 165.174707 75.320568 
L 166.394601 73.902105 
L 167.614495 81.039868 
L 168.83439 75.839834 
L 170.054284 77.783917 
L 171.274178 73.576115 
L 172.494073 76.997451 
L 173.713967 79.110579 
L 174.933861 76.548958 
L 176.153756 80.803167 
L 177.37365 78.3542 
L 178.593544 72.319582 
L 179.813439 67.624212 
L 181.033333 75.298188 
L 182.253227 72.071533 
L 183.473122 78.728537 
L 184.693016 76.708637 
L 185.91291 76.977848 
L 187.132805 76.118068 
L 188.352699 76.183733 
L 189.572593 68.745768 
L 190.792488 69.284587 
L 192.012382 70.544951 
L 193.232276 71.304863 
L 194.452171 72.849065 
L 195.672065 77.413074 
L 196.891959 72.993528 
L 198.111854 70.022878 
L 199.331748 78.475121 
L 200.551642 69.932404 
L 201.771537 72.604342 
L 202.991431 74.115289 
L 204.211325 69.263839 
L 205.43122 72.967088 
L 206.651114 75.276764 
L 207.871008 69.82618 
L 209.090903 74.42404 
L 210.310797 71.745942 
L 211.530691 71.008208 
L 212.750586 73.40454 
L 213.97048 64.407167 
L 215.190374 71.973383 
L 216.410269 70.216148 
L 217.630163 74.464169 
L 218.850057 72.501631 
L 220.069952 67.14658 
L 221.289846 67.070326 
L 222.50974 67.888161 
L 223.729635 74.021354 
L 224.949529 71.967083 
L 226.169423 65.316818 
L 227.389318 71.675439 
L 228.609212 70.405524 
L 229.829106 65.491244 
L 231.049001 69.13345 
L 232.268895 70.729088 
L 233.488789 69.262885 
L 234.708684 69.946606 
L 235.928578 71.300828 
L 237.148472 73.848026 
L 238.368367 72.001009 
L 239.588261 67.238285 
L 240.808155 72.848655 
L 242.02805 70.431504 
L 243.247944 69.666123 
L 244.467838 68.693512 
L 245.687733 65.994782 
L 246.907627 69.188182 
L 248.127521 74.517992 
L 249.347416 68.646192 
L 250.56731 68.809977 
L 251.787204 68.376466 
L 253.007099 71.426525 
L 254.226993 65.533573 
L 255.446887 68.218587 
L 256.666782 68.747075 
L 257.886676 65.362378 
L 259.10657 73.787731 
L 260.326465 61.427127 
L 261.546359 67.30891 
L 262.766253 71.652775 
L 263.986148 64.776225 
L 265.206042 70.057259 
L 266.425936 65.004804 
L 267.645831 66.413642 
L 268.865725 65.386136 
L 270.085619 66.752882 
L 271.305514 71.222227 
L 272.525408 61.222265 
L 273.745302 67.241038 
L 274.965197 69.806825 
L 276.185091 66.50616 
L 277.404985 65.203046 
L 278.62488 59.076045 
L 279.844774 64.30457 
L 281.064668 62.940553 
L 282.284563 60.124121 
L 283.504457 63.447583 
L 284.724351 65.953246 
L 285.944246 72.065803 
L 287.16414 65.792087 
L 288.384034 63.2581 
L 289.603929 64.307247 
L 290.823823 61.434975 
L 292.043717 63.299352 
L 293.263612 59.369936 
L 295.7034 67.479646 
L 296.923295 60.119038 
L 298.143189 62.726094 
L 299.363083 63.392209 
L 300.582978 63.562106 
L 301.802872 65.111472 
L 303.022766 58.891705 
L 305.462555 68.904355 
L 306.682449 68.61045 
L 307.902344 66.313846 
L 309.122238 58.79039 
L 310.342132 66.181737 
L 312.781921 55.369562 
L 314.001815 62.497021 
L 315.22171 65.306501 
L 316.441604 65.727228 
L 317.661498 64.499346 
L 318.881393 61.198873 
L 320.101287 61.176733 
L 321.321181 62.101929 
L 322.541076 62.720474 
L 323.76097 61.372547 
L 324.980864 59.211373 
L 326.200759 61.28926 
L 327.420653 64.295116 
L 328.640547 65.318605 
L 329.860442 64.427782 
L 331.080336 69.30426 
L 332.30023 67.727093 
L 333.520125 60.819892 
L 334.740019 61.366931 
L 335.959913 60.949509 
L 337.179808 63.774223 
L 338.399702 58.587993 
L 339.619596 61.927586 
L 340.839491 62.377447 
L 342.059385 60.066634 
L 343.279279 58.403772 
L 344.499174 57.762761 
L 345.719068 60.421977 
L 346.938962 59.632379 
L 348.158857 60.436653 
L 349.378751 62.084357 
L 350.598645 62.421516 
L 351.81854 62.187148 
L 353.038434 60.554032 
L 354.258328 61.163146 
L 355.478223 62.442353 
L 356.698117 53.09031 
L 357.918011 61.509603 
L 359.137906 62.835843 
L 360.3578 59.694519 
L 361.577694 64.110991 
L 362.797589 58.200471 
L 364.017483 58.456706 
L 365.237377 55.32405 
L 366.457272 53.739847 
L 367.677166 61.156434 
L 368.89706 61.653045 
L 370.116955 57.653496 
L 371.336849 60.464005 
L 372.556743 56.924502 
L 373.776638 66.434297 
L 374.996532 63.080212 
L 376.216426 62.358873 
L 377.436321 62.403459 
L 378.656215 55.849862 
L 379.876109 66.855502 
L 381.096004 55.059354 
L 382.315898 60.591193 
L 383.535792 53.980814 
L 384.755687 54.523266 
L 385.975581 57.157504 
L 387.195475 63.653155 
L 388.41537 63.995395 
L 389.635264 58.681092 
L 390.855158 60.815779 
L 392.075053 57.758224 
L 393.294947 65.767075 
L 394.514842 58.437933 
L 395.734736 63.440408 
L 396.95463 60.891332 
L 398.174525 54.806039 
L 399.394419 55.842411 
L 400.614313 56.00775 
L 401.834208 58.092841 
L 403.054102 52.805502 
L 404.273996 58.313781 
L 405.493891 56.451736 
L 406.713785 57.560044 
L 407.933679 58.419699 
L 409.153574 58.538524 
L 410.373468 54.32256 
L 411.593362 61.217875 
L 412.813257 60.221407 
L 414.033151 61.436366 
L 415.253045 56.525518 
L 416.47294 55.530037 
L 417.692834 63.595387 
L 418.912728 59.200313 
L 420.132623 59.529084 
L 421.352517 62.835478 
L 422.572411 57.349899 
L 423.792306 52.653457 
L 425.0122 61.302799 
L 426.232094 51.733505 
L 427.451989 61.349136 
L 429.891777 57.952697 
L 431.111672 63.659865 
L 432.331566 55.106646 
L 433.55146 59.326474 
L 434.771355 59.14626 
L 435.991249 53.573281 
L 437.211143 51.178599 
L 438.431038 54.965036 
L 439.650932 58.185238 
L 440.870826 59.651501 
L 442.090721 61.589527 
L 443.310615 52.759257 
L 444.530509 59.44197 
L 445.750404 56.524392 
L 446.970298 52.202551 
L 448.190192 57.827997 
L 449.410087 61.585305 
L 450.629981 55.719512 
L 451.849875 60.057639 
L 453.06977 55.322301 
L 454.289664 62.090026 
L 455.509558 61.044467 
L 456.729453 54.705918 
L 457.949347 50.656335 
L 459.169241 58.8017 
L 460.389136 59.542642 
L 461.60903 56.360983 
L 462.828924 59.381174 
L 464.048819 54.305657 
L 465.268713 53.615245 
L 466.488607 54.721379 
L 467.708502 61.991239 
L 468.928396 56.460864 
L 470.14829 54.150072 
L 471.368185 65.003858 
L 472.588079 56.764732 
L 473.807973 51.693212 
L 475.027868 55.897553 
L 476.247762 54.614999 
L 477.467656 56.768235 
L 478.687551 56.917596 
L 481.127339 56.798513 
L 482.347234 51.618284 
L 483.567128 54.295303 
L 484.787022 51.050359 
L 486.006917 54.697488 
L 487.226811 52.970789 
L 488.446705 53.99985 
L 489.6666 58.049946 
L 490.886494 59.424475 
L 492.106388 53.015264 
L 493.326283 54.110838 
L 494.546177 57.964039 
L 495.766071 55.023598 
L 496.985966 58.772965 
L 498.20586 59.10066 
L 499.425754 56.384562 
L 500.645649 52.438142 
L 501.865543 55.274819 
L 503.085437 53.212815 
L 504.305332 47.019289 
L 505.525226 52.975289 
L 506.74512 55.741263 
L 507.965015 54.350508 
L 509.184909 55.164728 
L 510.404803 50.680407 
L 511.624698 53.062661 
L 512.844592 60.669461 
L 514.064486 49.161413 
L 515.284381 58.069797 
L 516.504275 56.537644 
L 517.724169 55.849951 
L 520.163958 49.516099 
L 521.383852 54.287773 
L 522.603747 54.64367 
L 523.823641 56.768517 
L 525.043535 53.324453 
L 526.26343 58.943981 
L 527.483324 54.343957 
L 528.703218 60.605884 
L 529.923113 56.899952 
L 531.143007 49.400925 
L 532.362901 50.123791 
L 533.582796 59.177496 
L 534.80269 54.171124 
L 536.022584 55.23233 
L 537.242479 53.552129 
L 538.462373 50.579649 
L 539.682267 57.044042 
L 540.902162 55.239661 
L 542.122056 51.229195 
L 543.34195 56.282382 
L 544.561845 53.528345 
L 545.781739 55.099065 
L 547.001633 51.270386 
L 548.221528 51.046094 
L 549.441422 48.827151 
L 550.661316 54.507859 
L 551.881211 50.333602 
L 553.101105 54.000822 
L 554.320999 48.203287 
L 555.540894 48.758825 
L 556.760788 55.892223 
L 557.980682 51.580205 
L 559.200577 53.0651 
L 560.420471 58.222124 
L 561.640365 51.255211 
L 562.86026 57.674642 
L 564.080154 50.756385 
L 565.300048 52.8034 
L 566.519943 48.700303 
L 567.739837 51.445186 
L 568.959731 57.777562 
L 570.179626 48.923268 
L 571.39952 60.041892 
L 572.619414 55.306993 
L 573.839309 53.366711 
L 575.059203 47.046217 
L 576.279097 49.487667 
L 577.498992 48.822976 
L 578.718886 52.886271 
L 579.93878 49.486651 
L 581.158675 51.611309 
L 582.378569 52.392539 
L 583.598463 51.370931 
L 584.818358 53.683499 
L 586.038252 54.192408 
L 587.258146 48.633302 
L 588.478041 56.490112 
L 589.697935 52.346525 
L 590.917829 49.562891 
L 592.137724 52.73988 
L 593.357618 57.012208 
L 594.577512 58.924095 
L 595.797407 48.761549 
L 597.017301 56.157438 
L 598.237195 49.927776 
L 600.676984 48.186412 
L 601.896878 54.661358 
L 603.116773 48.897247 
L 604.336667 49.129635 
L 605.556561 49.91485 
L 606.776456 48.47074 
L 607.99635 49.839588 
L 609.216244 53.649866 
L 610.436139 52.477905 
L 611.656033 58.012394 
L 612.875927 49.080086 
L 614.095822 47.672429 
L 615.315716 49.74043 
L 616.53561 45.378739 
L 617.755505 55.419134 
L 618.975399 47.840916 
L 620.195293 57.774018 
L 621.415188 55.599255 
L 622.635082 48.038255 
L 623.854976 50.759846 
L 625.074871 48.218682 
L 626.294765 51.228153 
L 627.514659 46.347331 
L 628.734554 48.982986 
L 629.954448 52.021119 
L 631.174342 50.699382 
L 632.394237 48.651757 
L 633.614131 52.01805 
L 636.05392 46.108263 
L 637.273814 47.721649 
L 638.493708 47.80822 
L 639.713603 49.608747 
L 640.933497 56.072166 
L 642.153391 47.795258 
L 643.373286 47.722443 
L 644.59318 50.365442 
L 645.813074 56.08736 
L 647.032969 56.356467 
L 648.252863 51.634003 
L 649.472757 52.300977 
L 650.692652 57.848813 
L 651.912546 52.482778 
L 653.13244 48.098476 
L 654.352335 52.910902 
L 655.572229 50.326638 
L 656.792123 50.626989 
L 658.012018 46.946153 
L 659.231912 54.046984 
L 660.451806 56.350308 
L 661.671701 49.588934 
L 662.891595 54.25371 
L 664.111489 52.486611 
L 665.331384 52.664789 
L 666.551278 51.122466 
L 667.771172 47.950806 
L 668.991067 51.257213 
L 670.210961 53.828143 
L 671.430855 52.032506 
L 672.65075 46.130879 
L 673.870644 50.764526 
L 675.090538 52.661831 
L 676.310433 55.752194 
L 677.530327 50.062572 
L 678.750221 49.853183 
L 679.970116 50.10014 
L 681.19001 46.149377 
L 682.409904 47.597609 
L 683.629799 49.829771 
L 684.849693 53.305142 
L 686.069587 51.125115 
L 687.289482 54.661167 
L 688.509376 51.201095 
L 689.72927 51.455131 
L 690.949165 49.494324 
L 692.169059 48.264964 
L 693.388953 50.95069 
L 694.608848 50.068741 
L 695.828742 49.866146 
L 697.048636 48.35971 
L 697.048636 48.35971 
" clip-path="url(#pa969768a66)" style="fill: none; stroke: #ff7f0e; stroke-width: 1.5; stroke-linecap: square"/>
   </g>
   <g id="patch_3">
    <path d="M 57.885 339.84 
L 57.885 7.2 
" style="fill: none; stroke: #000000; stroke-width: 0.8; stroke-linejoin: miter; stroke-linecap: square"/>
   </g>
   <g id="patch_4">
    <path d="M 727.485 339.84 
L 727.485 7.2 
" style="fill: none; stroke: #000000; stroke-width: 0.8; stroke-linejoin: miter; stroke-linecap: square"/>
   </g>
   <g id="patch_5">
    <path d="M 57.885 339.84 
L 727.485 339.84 
" style="fill: none; stroke: #000000; stroke-width: 0.8; stroke-linejoin: miter; stroke-linecap: square"/>
   </g>
   <g id="patch_6">
    <path d="M 57.885 7.2 
L 727.485 7.2 
" style="fill: none; stroke: #000000; stroke-width: 0.8; stroke-linejoin: miter; stroke-linecap: square"/>
   </g>
   <g id="legend_1">
    <g id="patch_7">
     <path d="M 523.165 331.84 
L 716.285 331.84 
Q 719.485 331.84 719.485 328.64 
L 719.485 283.235 
Q 719.485 280.035 716.285 280.035 
L 523.165 280.035 
Q 519.965 280.035 519.965 283.235 
L 519.965 328.64 
Q 519.965 331.84 523.165 331.84 
z
" style="fill: #ffffff; opacity: 0.8; stroke: #cccccc; stroke-linejoin: miter"/>
    </g>
    <g id="line2d_17">
     <path d="M 526.365 292.9925 
L 542.365 292.9925 
L 558.365 292.9925 
" style="fill: none; stroke: #1f77b4; stroke-width: 1.5; stroke-linecap: square"/>
    </g>
    <g id="text_17">
     <!-- UCB ($c=1$) -->
     <g transform="translate(571.165 298.5925) scale(0.16 -0.16)">
      <defs>
       <path id="DejaVuSans-55" d="M 556 4666 
L 1191 4666 
L 1191 1831 
Q 1191 1081 1462 751 
Q 1734 422 2344 422 
Q 2950 422 3222 751 
Q 3494 1081 3494 1831 
L 3494 4666 
L 4128 4666 
L 4128 1753 
Q 4128 841 3676 375 
Q 3225 -91 2344 -91 
Q 1459 -91 1007 375 
Q 556 841 556 1753 
L 556 4666 
z
" transform="scale(0.015625)"/>
       <path id="DejaVuSans-43" d="M 4122 4306 
L 4122 3641 
Q 3803 3938 3442 4084 
Q 3081 4231 2675 4231 
Q 1875 4231 1450 3742 
Q 1025 3253 1025 2328 
Q 1025 1406 1450 917 
Q 1875 428 2675 428 
Q 3081 428 3442 575 
Q 3803 722 4122 1019 
L 4122 359 
Q 3791 134 3420 21 
Q 3050 -91 2638 -91 
Q 1578 -91 968 557 
Q 359 1206 359 2328 
Q 359 3453 968 4101 
Q 1578 4750 2638 4750 
Q 3056 4750 3426 4639 
Q 3797 4528 4122 4306 
z
" transform="scale(0.015625)"/>
       <path id="DejaVuSans-42" d="M 1259 2228 
L 1259 519 
L 2272 519 
Q 2781 519 3026 730 
Q 3272 941 3272 1375 
Q 3272 1813 3026 2020 
Q 2781 2228 2272 2228 
L 1259 2228 
z
M 1259 4147 
L 1259 2741 
L 2194 2741 
Q 2656 2741 2882 2914 
Q 3109 3088 3109 3444 
Q 3109 3797 2882 3972 
Q 2656 4147 2194 4147 
L 1259 4147 
z
M 628 4666 
L 2241 4666 
Q 2963 4666 3353 4366 
Q 3744 4066 3744 3513 
Q 3744 3084 3544 2831 
Q 3344 2578 2956 2516 
Q 3422 2416 3680 2098 
Q 3938 1781 3938 1306 
Q 3938 681 3513 340 
Q 3088 0 2303 0 
L 628 0 
L 628 4666 
z
" transform="scale(0.015625)"/>
       <path id="DejaVuSans-28" d="M 1984 4856 
Q 1566 4138 1362 3434 
Q 1159 2731 1159 2009 
Q 1159 1288 1364 580 
Q 1569 -128 1984 -844 
L 1484 -844 
Q 1016 -109 783 600 
Q 550 1309 550 2009 
Q 550 2706 781 3412 
Q 1013 4119 1484 4856 
L 1984 4856 
z
" transform="scale(0.015625)"/>
       <path id="DejaVuSans-Oblique-63" d="M 3431 3366 
L 3316 2797 
Q 3109 2947 2876 3022 
Q 2644 3097 2394 3097 
Q 2119 3097 1870 3000 
Q 1622 2903 1453 2725 
Q 1184 2453 1037 2087 
Q 891 1722 891 1331 
Q 891 859 1127 628 
Q 1363 397 1844 397 
Q 2081 397 2348 469 
Q 2616 541 2906 684 
L 2797 116 
Q 2547 13 2283 -39 
Q 2019 -91 1741 -91 
Q 1044 -91 669 257 
Q 294 606 294 1253 
Q 294 1797 489 2255 
Q 684 2713 1069 3078 
Q 1331 3328 1684 3456 
Q 2038 3584 2456 3584 
Q 2700 3584 2940 3529 
Q 3181 3475 3431 3366 
z
" transform="scale(0.015625)"/>
       <path id="DejaVuSans-3d" d="M 678 2906 
L 4684 2906 
L 4684 2381 
L 678 2381 
L 678 2906 
z
M 678 1631 
L 4684 1631 
L 4684 1100 
L 678 1100 
L 678 1631 
z
" transform="scale(0.015625)"/>
       <path id="DejaVuSans-29" d="M 513 4856 
L 1013 4856 
Q 1481 4119 1714 3412 
Q 1947 2706 1947 2009 
Q 1947 1309 1714 600 
Q 1481 -109 1013 -844 
L 513 -844 
Q 928 -128 1133 580 
Q 1338 1288 1338 2009 
Q 1338 2731 1133 3434 
Q 928 4138 513 4856 
z
" transform="scale(0.015625)"/>
      </defs>
      <use xlink:href="#DejaVuSans-55" transform="translate(0 0.125)"/>
      <use xlink:href="#DejaVuSans-43" transform="translate(73.193359 0.125)"/>
      <use xlink:href="#DejaVuSans-42" transform="translate(143.017578 0.125)"/>
      <use xlink:href="#DejaVuSans-20" transform="translate(211.621094 0.125)"/>
      <use xlink:href="#DejaVuSans-28" transform="translate(243.408203 0.125)"/>
      <use xlink:href="#DejaVuSans-Oblique-63" transform="translate(282.421875 0.125)"/>
      <use xlink:href="#DejaVuSans-3d" transform="translate(356.884766 0.125)"/>
      <use xlink:href="#DejaVuSans-31" transform="translate(460.15625 0.125)"/>
      <use xlink:href="#DejaVuSans-29" transform="translate(523.779297 0.125)"/>
     </g>
    </g>
    <g id="line2d_18">
     <path d="M 526.365 316.48 
L 542.365 316.48 
L 558.365 316.48 
" style="fill: none; stroke: #ff7f0e; stroke-width: 1.5; stroke-linecap: square"/>
    </g>
    <g id="text_18">
     <!-- $\epsilon$-greedy ($\epsilon=0.1$) -->
     <g transform="translate(571.165 322.08) scale(0.16 -0.16)">
      <defs>
       <path id="DejaVuSans-Oblique-3b5" d="M 1263 1888 
Q 925 1963 778 2166 
Q 669 2309 669 2503 
Q 669 3034 1175 3344 
Q 1575 3588 2188 3588 
Q 2425 3588 2684 3550 
Q 2944 3513 3234 3438 
L 3134 2916 
Q 2847 3006 2606 3047 
Q 2359 3088 2138 3088 
Q 1766 3088 1522 2944 
Q 1228 2772 1228 2522 
Q 1228 2356 1381 2241 
Q 1563 2103 1925 2103 
L 2409 2103 
L 2319 1628 
L 1856 1628 
Q 1425 1628 1172 1469 
Q 828 1253 828 916 
Q 828 703 1013 563 
Q 1244 388 1716 388 
Q 2006 388 2284 444 
Q 2563 503 2806 619 
L 2700 84 
Q 2403 -3 2131 -47 
Q 1859 -91 1609 -91 
Q 866 -91 516 194 
Q 250 413 250 781 
Q 250 1278 600 1584 
Q 859 1813 1263 1888 
z
" transform="scale(0.015625)"/>
       <path id="DejaVuSans-2d" d="M 313 2009 
L 1997 2009 
L 1997 1497 
L 313 1497 
L 313 2009 
z
" transform="scale(0.015625)"/>
       <path id="DejaVuSans-79" d="M 2059 -325 
Q 1816 -950 1584 -1140 
Q 1353 -1331 966 -1331 
L 506 -1331 
L 506 -850 
L 844 -850 
Q 1081 -850 1212 -737 
Q 1344 -625 1503 -206 
L 1606 56 
L 191 3500 
L 800 3500 
L 1894 763 
L 2988 3500 
L 3597 3500 
L 2059 -325 
z
" transform="scale(0.015625)"/>
      </defs>
      <use xlink:href="#DejaVuSans-Oblique-3b5" transform="translate(0 0.015625)"/>
      <use xlink:href="#DejaVuSans-2d" transform="translate(54.052734 0.015625)"/>
      <use xlink:href="#DejaVuSans-67" transform="translate(90.136719 0.015625)"/>
      <use xlink:href="#DejaVuSans-72" transform="translate(153.613281 0.015625)"/>
      <use xlink:href="#DejaVuSans-65" transform="translate(194.726562 0.015625)"/>
      <use xlink:href="#DejaVuSans-65" transform="translate(256.25 0.015625)"/>
      <use xlink:href="#DejaVuSans-64" transform="translate(317.773438 0.015625)"/>
      <use xlink:href="#DejaVuSans-79" transform="translate(381.25 0.015625)"/>
      <use xlink:href="#DejaVuSans-20" transform="translate(440.429688 0.015625)"/>
      <use xlink:href="#DejaVuSans-28" transform="translate(472.216797 0.015625)"/>
      <use xlink:href="#DejaVuSans-Oblique-3b5" transform="translate(511.230469 0.015625)"/>
      <use xlink:href="#DejaVuSans-3d" transform="translate(584.765625 0.015625)"/>
      <use xlink:href="#DejaVuSans-30" transform="translate(688.037109 0.015625)"/>
      <use xlink:href="#DejaVuSans-2e" transform="translate(751.660156 0.015625)"/>
      <use xlink:href="#DejaVuSans-31" transform="translate(783.447266 0.015625)"/>
      <use xlink:href="#DejaVuSans-29" transform="translate(847.070312 0.015625)"/>
     </g>
    </g>
   </g>
  </g>
 </g>
 <defs>
  <clipPath id="pa969768a66">
   <rect x="57.885" y="7.2" width="669.6" height="332.64"/>
  </clipPath>
 </defs>
</svg>
