<?xml version="1.0" encoding="utf-8" standalone="no"?>
<!DOCTYPE svg PUBLIC "-//W3C//DTD SVG 1.1//EN"
  "http://www.w3.org/Graphics/SVG/1.1/DTD/svg11.dtd">
<svg xmlns:xlink="http://www.w3.org/1999/xlink" width="734.685pt" height="389.01pt" viewBox="0 0 734.685 389.01" xmlns="http://www.w3.org/2000/svg" version="1.1">
 <metadata>
  <rdf:RDF xmlns:dc="http://purl.org/dc/elements/1.1/" xmlns:cc="http://creativecommons.org/ns#" xmlns:rdf="http://www.w3.org/1999/02/22-rdf-syntax-ns#">
   <cc:Work>
    <dc:type rdf:resource="http://purl.org/dc/dcmitype/StillImage"/>
    <dc:date>2026-03-10T23:05:35.991345</dc:date>
    <dc:format>image/svg+xml</dc:format>
    <dc:creator>
     <cc:Agent>
      <dc:title>Matplotlib v3.10.8, https://matplotlib.org/</dc:title>
     </cc:Agent>
    </dc:creator>
   </cc:Work>
  </rdf:RDF>
 </metadata>
 <defs>
  <style type="text/css">*{stroke-linejoin: round; stroke-linecap: butt}</style>
 </defs>
 <g id="figure_1">
  <g id="patch_1">
   <path d="M 0 389.01 
L 734.685 389.01 
L 734.685 0 
L 0 0 
L 0 389.01 
z
" style="fill: none"/>
  </g>
  <g id="axes_1">
   <g id="patch_2">
    <path d="M 57.885 339.84 
L 727.485 339.84 
L 727.485 7.2 
L 57.885 7.2 
L 57.885 339.84 
z
" style="fill: none"/>
   </g>
   <g id="matplotlib.axis_1">
    <g id="xtick_1">
     <g id="line2d_1">
      <defs>
       <path id="mc50c8ea0d5" d="M 0 0 
L 0 3.5 
" style="stroke: #000000; stroke-width: 0.8"/>
      </defs>
      <g>
       <use xlink:href="#mc50c8ea0d5" x="88.321364" y="339.84" style="stroke: #000000; stroke-width: 0.8"/>
      </g>
     </g>
     <g id="text_1">
      <!-- 0 -->
      <g transform="translate(83.867614 357.477813) scale(0.14 -0.14)">
       <defs>
        <path id="DejaVuSans-30" d="M 2034 4250 
Q 1547 4250 1301 3770 
Q 1056 3291 1056 2328 
Q 1056 1369 1301 889 
Q 1547 409 2034 409 
Q 2525 409 2770 889 
Q 3016 1369 3016 2328 
Q 3016 3291 2770 3770 
Q 2525 4250 2034 4250 
z
M 2034 4750 
Q 2819 4750 3233 4129 
Q 3647 3509 3647 2328 
Q 3647 1150 3233 529 
Q 2819 -91 2034 -91 
Q 1250 -91 836 529 
Q 422 1150 422 2328 
Q 422 3509 836 4129 
Q 1250 4750 2034 4750 
z
" transform="scale(0.015625)"/>
       </defs>
       <use xlink:href="#DejaVuSans-30"/>
      </g>
     </g>
    </g>
    <g id="xtick_2">
     <g id="line2d_2">
      <g>
       <use xlink:href="#mc50c8ea0d5" x="210.188686" y="339.84" style="stroke: #000000; stroke-width: 0.8"/>
      </g>
     </g>
     <g id="text_2">
      <!-- 200 -->
      <g transform="translate(196.827436 357.477813) scale(0.14 -0.14)">
       <defs>
        <path id="DejaVuSans-32" d="M 1228 531 
L 3431 531 
L 3431 0 
L 469 0 
L 469 531 
Q 828 903 1448 1529 
Q 2069 2156 2228 2338 
Q 2531 2678 2651 2914 
Q 2772 3150 2772 3378 
Q 2772 3750 2511 3984 
Q 2250 4219 1831 4219 
Q 1534 4219 1204 4116 
Q 875 4013 500 3803 
L 500 4441 
Q 881 4594 1212 4672 
Q 1544 4750 1819 4750 
Q 2544 4750 2975 4387 
Q 3406 4025 3406 3419 
Q 3406 3131 3298 2873 
Q 3191 2616 2906 2266 
Q 2828 2175 2409 1742 
Q 1991 1309 1228 531 
z
" transform="scale(0.015625)"/>
       </defs>
       <use xlink:href="#DejaVuSans-32"/>
       <use xlink:href="#DejaVuSans-30" transform="translate(63.623047 0)"/>
       <use xlink:href="#DejaVuSans-30" transform="translate(127.246094 0)"/>
      </g>
     </g>
    </g>
    <g id="xtick_3">
     <g id="line2d_3">
      <g>
       <use xlink:href="#mc50c8ea0d5" x="332.056007" y="339.84" style="stroke: #000000; stroke-width: 0.8"/>
      </g>
     </g>
     <g id="text_3">
      <!-- 400 -->
      <g transform="translate(318.694757 357.477813) scale(0.14 -0.14)">
       <defs>
        <path id="DejaVuSans-34" d="M 2419 4116 
L 825 1625 
L 2419 1625 
L 2419 4116 
z
M 2253 4666 
L 3047 4666 
L 3047 1625 
L 3713 1625 
L 3713 1100 
L 3047 1100 
L 3047 0 
L 2419 0 
L 2419 1100 
L 313 1100 
L 313 1709 
L 2253 4666 
z
" transform="scale(0.015625)"/>
       </defs>
       <use xlink:href="#DejaVuSans-34"/>
       <use xlink:href="#DejaVuSans-30" transform="translate(63.623047 0)"/>
       <use xlink:href="#DejaVuSans-30" transform="translate(127.246094 0)"/>
      </g>
     </g>
    </g>
    <g id="xtick_4">
     <g id="line2d_4">
      <g>
       <use xlink:href="#mc50c8ea0d5" x="453.923329" y="339.84" style="stroke: #000000; stroke-width: 0.8"/>
      </g>
     </g>
     <g id="text_4">
      <!-- 600 -->
      <g transform="translate(440.562079 357.477813) scale(0.14 -0.14)">
       <defs>
        <path id="DejaVuSans-36" d="M 2113 2584 
Q 1688 2584 1439 2293 
Q 1191 2003 1191 1497 
Q 1191 994 1439 701 
Q 1688 409 2113 409 
Q 2538 409 2786 701 
Q 3034 994 3034 1497 
Q 3034 2003 2786 2293 
Q 2538 2584 2113 2584 
z
M 3366 4563 
L 3366 3988 
Q 3128 4100 2886 4159 
Q 2644 4219 2406 4219 
Q 1781 4219 1451 3797 
Q 1122 3375 1075 2522 
Q 1259 2794 1537 2939 
Q 1816 3084 2150 3084 
Q 2853 3084 3261 2657 
Q 3669 2231 3669 1497 
Q 3669 778 3244 343 
Q 2819 -91 2113 -91 
Q 1303 -91 875 529 
Q 447 1150 447 2328 
Q 447 3434 972 4092 
Q 1497 4750 2381 4750 
Q 2619 4750 2861 4703 
Q 3103 4656 3366 4563 
z
" transform="scale(0.015625)"/>
       </defs>
       <use xlink:href="#DejaVuSans-36"/>
       <use xlink:href="#DejaVuSans-30" transform="translate(63.623047 0)"/>
       <use xlink:href="#DejaVuSans-30" transform="translate(127.246094 0)"/>
      </g>
     </g>
    </g>
    <g id="xtick_5">
     <g id="line2d_5">
      <g>
       <use xlink:href="#mc50c8ea0d5" x="575.790651" y="339.84" style="stroke: #000000; stroke-width: 0.8"/>
      </g>
     </g>
     <g id="text_5">
      <!-- 800 -->
      <g transform="translate(562.429401 357.477813) scale(0.14 -0.14)">
       <defs>
        <path id="DejaVuSans-38" d="M 2034 2216 
Q 1584 2216 1326 1975 
Q 1069 1734 1069 1313 
Q 1069 891 1326 650 
Q 1584 409 2034 409 
Q 2484 409 2743 651 
Q 3003 894 3003 1313 
Q 3003 1734 2745 1975 
Q 2488 2216 2034 2216 
z
M 1403 2484 
Q 997 2584 770 2862 
Q 544 3141 544 3541 
Q 544 4100 942 4425 
Q 1341 4750 2034 4750 
Q 2731 4750 3128 4425 
Q 3525 4100 3525 3541 
Q 3525 3141 3298 2862 
Q 3072 2584 2669 2484 
Q 3125 2378 3379 2068 
Q 3634 1759 3634 1313 
Q 3634 634 3220 271 
Q 2806 -91 2034 -91 
Q 1263 -91 848 271 
Q 434 634 434 1313 
Q 434 1759 690 2068 
Q 947 2378 1403 2484 
z
M 1172 3481 
Q 1172 3119 1398 2916 
Q 1625 2713 2034 2713 
Q 2441 2713 2670 2916 
Q 2900 3119 2900 3481 
Q 2900 3844 2670 4047 
Q 2441 4250 2034 4250 
Q 1625 4250 1398 4047 
Q 1172 3844 1172 3481 
z
" transform="scale(0.015625)"/>
       </defs>
       <use xlink:href="#DejaVuSans-38"/>
       <use xlink:href="#DejaVuSans-30" transform="translate(63.623047 0)"/>
       <use xlink:href="#DejaVuSans-30" transform="translate(127.246094 0)"/>
      </g>
     </g>
    </g>
    <g id="xtick_6">
     <g id="line2d_6">
      <g>
       <use xlink:href="#mc50c8ea0d5" x="697.657973" y="339.84" style="stroke: #000000; stroke-width: 0.8"/>
      </g>
     </g>
     <g id="text_6">
      <!-- 1000 -->
      <g transform="translate(679.842973 357.477813) scale(0.14 -0.14)">
       <defs>
        <path id="DejaVuSans-31" d="M 794 531 
L 1825 531 
L 1825 4091 
L 703 3866 
L 703 4441 
L 1819 4666 
L 2450 4666 
L 2450 531 
L 3481 531 
L 3481 0 
L 794 0 
L 794 531 
z
" transform="scale(0.015625)"/>
       </defs>
       <use xlink:href="#DejaVuSans-31"/>
       <use xlink:href="#DejaVuSans-30" transform="translate(63.623047 0)"/>
       <use xlink:href="#DejaVuSans-30" transform="translate(127.246094 0)"/>
       <use xlink:href="#DejaVuSans-30" transform="translate(190.869141 0)"/>
      </g>
     </g>
    </g>
    <g id="text_7">
     <!-- Steps -->
     <g transform="translate(367.503281 378.066563) scale(0.18 -0.18)">
      <defs>
       <path id="DejaVuSans-53" d="M 3425 4513 
L 3425 3897 
Q 3066 4069 2747 4153 
Q 2428 4238 2131 4238 
Q 1616 4238 1336 4038 
Q 1056 3838 1056 3469 
Q 1056 3159 1242 3001 
Q 1428 2844 1947 2747 
L 2328 2669 
Q 3034 2534 3370 2195 
Q 3706 1856 3706 1288 
Q 3706 609 3251 259 
Q 2797 -91 1919 -91 
Q 1588 -91 1214 -16 
Q 841 59 441 206 
L 441 856 
Q 825 641 1194 531 
Q 1563 422 1919 422 
Q 2459 422 2753 634 
Q 3047 847 3047 1241 
Q 3047 1584 2836 1778 
Q 2625 1972 2144 2069 
L 1759 2144 
Q 1053 2284 737 2584 
Q 422 2884 422 3419 
Q 422 4038 858 4394 
Q 1294 4750 2059 4750 
Q 2388 4750 2728 4690 
Q 3069 4631 3425 4513 
z
" transform="scale(0.015625)"/>
       <path id="DejaVuSans-74" d="M 1172 4494 
L 1172 3500 
L 2356 3500 
L 2356 3053 
L 1172 3053 
L 1172 1153 
Q 1172 725 1289 603 
Q 1406 481 1766 481 
L 2356 481 
L 2356 0 
L 1766 0 
Q 1100 0 847 248 
Q 594 497 594 1153 
L 594 3053 
L 172 3053 
L 172 3500 
L 594 3500 
L 594 4494 
L 1172 4494 
z
" transform="scale(0.015625)"/>
       <path id="DejaVuSans-65" d="M 3597 1894 
L 3597 1613 
L 953 1613 
Q 991 1019 1311 708 
Q 1631 397 2203 397 
Q 2534 397 2845 478 
Q 3156 559 3463 722 
L 3463 178 
Q 3153 47 2828 -22 
Q 2503 -91 2169 -91 
Q 1331 -91 842 396 
Q 353 884 353 1716 
Q 353 2575 817 3079 
Q 1281 3584 2069 3584 
Q 2775 3584 3186 3129 
Q 3597 2675 3597 1894 
z
M 3022 2063 
Q 3016 2534 2758 2815 
Q 2500 3097 2075 3097 
Q 1594 3097 1305 2825 
Q 1016 2553 972 2059 
L 3022 2063 
z
" transform="scale(0.015625)"/>
       <path id="DejaVuSans-70" d="M 1159 525 
L 1159 -1331 
L 581 -1331 
L 581 3500 
L 1159 3500 
L 1159 2969 
Q 1341 3281 1617 3432 
Q 1894 3584 2278 3584 
Q 2916 3584 3314 3078 
Q 3713 2572 3713 1747 
Q 3713 922 3314 415 
Q 2916 -91 2278 -91 
Q 1894 -91 1617 61 
Q 1341 213 1159 525 
z
M 3116 1747 
Q 3116 2381 2855 2742 
Q 2594 3103 2138 3103 
Q 1681 3103 1420 2742 
Q 1159 2381 1159 1747 
Q 1159 1113 1420 752 
Q 1681 391 2138 391 
Q 2594 391 2855 752 
Q 3116 1113 3116 1747 
z
" transform="scale(0.015625)"/>
       <path id="DejaVuSans-73" d="M 2834 3397 
L 2834 2853 
Q 2591 2978 2328 3040 
Q 2066 3103 1784 3103 
Q 1356 3103 1142 2972 
Q 928 2841 928 2578 
Q 928 2378 1081 2264 
Q 1234 2150 1697 2047 
L 1894 2003 
Q 2506 1872 2764 1633 
Q 3022 1394 3022 966 
Q 3022 478 2636 193 
Q 2250 -91 1575 -91 
Q 1294 -91 989 -36 
Q 684 19 347 128 
L 347 722 
Q 666 556 975 473 
Q 1284 391 1588 391 
Q 1994 391 2212 530 
Q 2431 669 2431 922 
Q 2431 1156 2273 1281 
Q 2116 1406 1581 1522 
L 1381 1569 
Q 847 1681 609 1914 
Q 372 2147 372 2553 
Q 372 3047 722 3315 
Q 1072 3584 1716 3584 
Q 2034 3584 2315 3537 
Q 2597 3491 2834 3397 
z
" transform="scale(0.015625)"/>
      </defs>
      <use xlink:href="#DejaVuSans-53"/>
      <use xlink:href="#DejaVuSans-74" transform="translate(63.476562 0)"/>
      <use xlink:href="#DejaVuSans-65" transform="translate(102.685547 0)"/>
      <use xlink:href="#DejaVuSans-70" transform="translate(164.208984 0)"/>
      <use xlink:href="#DejaVuSans-73" transform="translate(227.685547 0)"/>
     </g>
    </g>
   </g>
   <g id="matplotlib.axis_2">
    <g id="ytick_1">
     <g id="line2d_7">
      <defs>
       <path id="ma213ce46b4" d="M 0 0 
L -3.5 0 
" style="stroke: #000000; stroke-width: 0.8"/>
      </defs>
      <g>
       <use xlink:href="#ma213ce46b4" x="57.885" y="324.711342" style="stroke: #000000; stroke-width: 0.8"/>
      </g>
     </g>
     <g id="text_8">
      <!-- 4.0 -->
      <g transform="translate(28.620625 330.030248) scale(0.14 -0.14)">
       <defs>
        <path id="DejaVuSans-2e" d="M 684 794 
L 1344 794 
L 1344 0 
L 684 0 
L 684 794 
z
" transform="scale(0.015625)"/>
       </defs>
       <use xlink:href="#DejaVuSans-34"/>
       <use xlink:href="#DejaVuSans-2e" transform="translate(63.623047 0)"/>
       <use xlink:href="#DejaVuSans-30" transform="translate(95.410156 0)"/>
      </g>
     </g>
    </g>
    <g id="ytick_2">
     <g id="line2d_8">
      <g>
       <use xlink:href="#ma213ce46b4" x="57.885" y="284.361802" style="stroke: #000000; stroke-width: 0.8"/>
      </g>
     </g>
     <g id="text_9">
      <!-- 4.2 -->
      <g transform="translate(28.620625 289.680708) scale(0.14 -0.14)">
       <use xlink:href="#DejaVuSans-34"/>
       <use xlink:href="#DejaVuSans-2e" transform="translate(63.623047 0)"/>
       <use xlink:href="#DejaVuSans-32" transform="translate(95.410156 0)"/>
      </g>
     </g>
    </g>
    <g id="ytick_3">
     <g id="line2d_9">
      <g>
       <use xlink:href="#ma213ce46b4" x="57.885" y="244.012262" style="stroke: #000000; stroke-width: 0.8"/>
      </g>
     </g>
     <g id="text_10">
      <!-- 4.4 -->
      <g transform="translate(28.620625 249.331168) scale(0.14 -0.14)">
       <use xlink:href="#DejaVuSans-34"/>
       <use xlink:href="#DejaVuSans-2e" transform="translate(63.623047 0)"/>
       <use xlink:href="#DejaVuSans-34" transform="translate(95.410156 0)"/>
      </g>
     </g>
    </g>
    <g id="ytick_4">
     <g id="line2d_10">
      <g>
       <use xlink:href="#ma213ce46b4" x="57.885" y="203.662722" style="stroke: #000000; stroke-width: 0.8"/>
      </g>
     </g>
     <g id="text_11">
      <!-- 4.6 -->
      <g transform="translate(28.620625 208.981628) scale(0.14 -0.14)">
       <use xlink:href="#DejaVuSans-34"/>
       <use xlink:href="#DejaVuSans-2e" transform="translate(63.623047 0)"/>
       <use xlink:href="#DejaVuSans-36" transform="translate(95.410156 0)"/>
      </g>
     </g>
    </g>
    <g id="ytick_5">
     <g id="line2d_11">
      <g>
       <use xlink:href="#ma213ce46b4" x="57.885" y="163.313182" style="stroke: #000000; stroke-width: 0.8"/>
      </g>
     </g>
     <g id="text_12">
      <!-- 4.8 -->
      <g transform="translate(28.620625 168.632088) scale(0.14 -0.14)">
       <use xlink:href="#DejaVuSans-34"/>
       <use xlink:href="#DejaVuSans-2e" transform="translate(63.623047 0)"/>
       <use xlink:href="#DejaVuSans-38" transform="translate(95.410156 0)"/>
      </g>
     </g>
    </g>
    <g id="ytick_6">
     <g id="line2d_12">
      <g>
       <use xlink:href="#ma213ce46b4" x="57.885" y="122.963642" style="stroke: #000000; stroke-width: 0.8"/>
      </g>
     </g>
     <g id="text_13">
      <!-- 5.0 -->
      <g transform="translate(28.620625 128.282548) scale(0.14 -0.14)">
       <defs>
        <path id="DejaVuSans-35" d="M 691 4666 
L 3169 4666 
L 3169 4134 
L 1269 4134 
L 1269 2991 
Q 1406 3038 1543 3061 
Q 1681 3084 1819 3084 
Q 2600 3084 3056 2656 
Q 3513 2228 3513 1497 
Q 3513 744 3044 326 
Q 2575 -91 1722 -91 
Q 1428 -91 1123 -41 
Q 819 9 494 109 
L 494 744 
Q 775 591 1075 516 
Q 1375 441 1709 441 
Q 2250 441 2565 725 
Q 2881 1009 2881 1497 
Q 2881 1984 2565 2268 
Q 2250 2553 1709 2553 
Q 1456 2553 1204 2497 
Q 953 2441 691 2322 
L 691 4666 
z
" transform="scale(0.015625)"/>
       </defs>
       <use xlink:href="#DejaVuSans-35"/>
       <use xlink:href="#DejaVuSans-2e" transform="translate(63.623047 0)"/>
       <use xlink:href="#DejaVuSans-30" transform="translate(95.410156 0)"/>
      </g>
     </g>
    </g>
    <g id="ytick_7">
     <g id="line2d_13">
      <g>
       <use xlink:href="#ma213ce46b4" x="57.885" y="82.614102" style="stroke: #000000; stroke-width: 0.8"/>
      </g>
     </g>
     <g id="text_14">
      <!-- 5.2 -->
      <g transform="translate(28.620625 87.933008) scale(0.14 -0.14)">
       <use xlink:href="#DejaVuSans-35"/>
       <use xlink:href="#DejaVuSans-2e" transform="translate(63.623047 0)"/>
       <use xlink:href="#DejaVuSans-32" transform="translate(95.410156 0)"/>
      </g>
     </g>
    </g>
    <g id="ytick_8">
     <g id="line2d_14">
      <g>
       <use xlink:href="#ma213ce46b4" x="57.885" y="42.264562" style="stroke: #000000; stroke-width: 0.8"/>
      </g>
     </g>
     <g id="text_15">
      <!-- 5.4 -->
      <g transform="translate(28.620625 47.583468) scale(0.14 -0.14)">
       <use xlink:href="#DejaVuSans-35"/>
       <use xlink:href="#DejaVuSans-2e" transform="translate(63.623047 0)"/>
       <use xlink:href="#DejaVuSans-34" transform="translate(95.410156 0)"/>
      </g>
     </g>
    </g>
    <g id="text_16">
     <!-- Average reward -->
     <g transform="translate(20.877188 244.506094) rotate(-90) scale(0.18 -0.18)">
      <defs>
       <path id="DejaVuSans-41" d="M 2188 4044 
L 1331 1722 
L 3047 1722 
L 2188 4044 
z
M 1831 4666 
L 2547 4666 
L 4325 0 
L 3669 0 
L 3244 1197 
L 1141 1197 
L 716 0 
L 50 0 
L 1831 4666 
z
" transform="scale(0.015625)"/>
       <path id="DejaVuSans-76" d="M 191 3500 
L 800 3500 
L 1894 563 
L 2988 3500 
L 3597 3500 
L 2284 0 
L 1503 0 
L 191 3500 
z
" transform="scale(0.015625)"/>
       <path id="DejaVuSans-72" d="M 2631 2963 
Q 2534 3019 2420 3045 
Q 2306 3072 2169 3072 
Q 1681 3072 1420 2755 
Q 1159 2438 1159 1844 
L 1159 0 
L 581 0 
L 581 3500 
L 1159 3500 
L 1159 2956 
Q 1341 3275 1631 3429 
Q 1922 3584 2338 3584 
Q 2397 3584 2469 3576 
Q 2541 3569 2628 3553 
L 2631 2963 
z
" transform="scale(0.015625)"/>
       <path id="DejaVuSans-61" d="M 2194 1759 
Q 1497 1759 1228 1600 
Q 959 1441 959 1056 
Q 959 750 1161 570 
Q 1363 391 1709 391 
Q 2188 391 2477 730 
Q 2766 1069 2766 1631 
L 2766 1759 
L 2194 1759 
z
M 3341 1997 
L 3341 0 
L 2766 0 
L 2766 531 
Q 2569 213 2275 61 
Q 1981 -91 1556 -91 
Q 1019 -91 701 211 
Q 384 513 384 1019 
Q 384 1609 779 1909 
Q 1175 2209 1959 2209 
L 2766 2209 
L 2766 2266 
Q 2766 2663 2505 2880 
Q 2244 3097 1772 3097 
Q 1472 3097 1187 3025 
Q 903 2953 641 2809 
L 641 3341 
Q 956 3463 1253 3523 
Q 1550 3584 1831 3584 
Q 2591 3584 2966 3190 
Q 3341 2797 3341 1997 
z
" transform="scale(0.015625)"/>
       <path id="DejaVuSans-67" d="M 2906 1791 
Q 2906 2416 2648 2759 
Q 2391 3103 1925 3103 
Q 1463 3103 1205 2759 
Q 947 2416 947 1791 
Q 947 1169 1205 825 
Q 1463 481 1925 481 
Q 2391 481 2648 825 
Q 2906 1169 2906 1791 
z
M 3481 434 
Q 3481 -459 3084 -895 
Q 2688 -1331 1869 -1331 
Q 1566 -1331 1297 -1286 
Q 1028 -1241 775 -1147 
L 775 -588 
Q 1028 -725 1275 -790 
Q 1522 -856 1778 -856 
Q 2344 -856 2625 -561 
Q 2906 -266 2906 331 
L 2906 616 
Q 2728 306 2450 153 
Q 2172 0 1784 0 
Q 1141 0 747 490 
Q 353 981 353 1791 
Q 353 2603 747 3093 
Q 1141 3584 1784 3584 
Q 2172 3584 2450 3431 
Q 2728 3278 2906 2969 
L 2906 3500 
L 3481 3500 
L 3481 434 
z
" transform="scale(0.015625)"/>
       <path id="DejaVuSans-20" transform="scale(0.015625)"/>
       <path id="DejaVuSans-77" d="M 269 3500 
L 844 3500 
L 1563 769 
L 2278 3500 
L 2956 3500 
L 3675 769 
L 4391 3500 
L 4966 3500 
L 4050 0 
L 3372 0 
L 2619 2869 
L 1863 0 
L 1184 0 
L 269 3500 
z
" transform="scale(0.015625)"/>
       <path id="DejaVuSans-64" d="M 2906 2969 
L 2906 4863 
L 3481 4863 
L 3481 0 
L 2906 0 
L 2906 525 
Q 2725 213 2448 61 
Q 2172 -91 1784 -91 
Q 1150 -91 751 415 
Q 353 922 353 1747 
Q 353 2572 751 3078 
Q 1150 3584 1784 3584 
Q 2172 3584 2448 3432 
Q 2725 3281 2906 2969 
z
M 947 1747 
Q 947 1113 1208 752 
Q 1469 391 1925 391 
Q 2381 391 2643 752 
Q 2906 1113 2906 1747 
Q 2906 2381 2643 2742 
Q 2381 3103 1925 3103 
Q 1469 3103 1208 2742 
Q 947 2381 947 1747 
z
" transform="scale(0.015625)"/>
      </defs>
      <use xlink:href="#DejaVuSans-41"/>
      <use xlink:href="#DejaVuSans-76" transform="translate(62.533203 0)"/>
      <use xlink:href="#DejaVuSans-65" transform="translate(121.712891 0)"/>
      <use xlink:href="#DejaVuSans-72" transform="translate(183.236328 0)"/>
      <use xlink:href="#DejaVuSans-61" transform="translate(224.349609 0)"/>
      <use xlink:href="#DejaVuSans-67" transform="translate(285.628906 0)"/>
      <use xlink:href="#DejaVuSans-65" transform="translate(349.105469 0)"/>
      <use xlink:href="#DejaVuSans-20" transform="translate(410.628906 0)"/>
      <use xlink:href="#DejaVuSans-72" transform="translate(442.416016 0)"/>
      <use xlink:href="#DejaVuSans-65" transform="translate(481.279297 0)"/>
      <use xlink:href="#DejaVuSans-77" transform="translate(542.802734 0)"/>
      <use xlink:href="#DejaVuSans-61" transform="translate(624.589844 0)"/>
      <use xlink:href="#DejaVuSans-72" transform="translate(685.869141 0)"/>
      <use xlink:href="#DejaVuSans-64" transform="translate(725.232422 0)"/>
     </g>
    </g>
   </g>
   <g id="line2d_15">
    <path d="M 88.321364 324.398208 
L 88.9307 322.407621 
L 89.540037 320.951911 
L 90.149373 318.331112 
L 91.977383 313.042473 
L 92.58672 311.056889 
L 93.196057 309.475444 
L 93.805393 307.021843 
L 97.461413 295.131231 
L 99.289423 289.003625 
L 100.508096 284.101906 
L 101.726769 280.174893 
L 103.554779 272.574837 
L 104.164115 270.957028 
L 104.773452 268.024636 
L 105.382789 266.398073 
L 105.992125 263.383717 
L 106.601462 261.239305 
L 107.210799 259.530682 
L 109.038808 251.59681 
L 109.648145 249.521181 
L 110.866818 243.760581 
L 111.476155 242.094287 
L 112.085491 239.24684 
L 112.694828 236.994394 
L 113.913501 231.644091 
L 115.741511 224.286365 
L 124.88156 187.594321 
L 126.100233 183.407182 
L 126.70957 181.839108 
L 127.318907 179.09575 
L 127.928243 177.46784 
L 128.53758 174.659162 
L 134.021609 156.122133 
L 134.630946 154.760122 
L 135.849619 150.329883 
L 136.458956 149.011355 
L 139.505639 140.110761 
L 140.114975 138.729991 
L 141.333649 135.182105 
L 141.942985 133.936016 
L 143.161658 130.373797 
L 143.770995 129.370519 
L 144.380332 127.476133 
L 144.989668 126.018113 
L 145.599005 125.38011 
L 146.208342 123.515834 
L 146.817678 122.024145 
L 147.427015 120.233463 
L 148.036351 119.300315 
L 148.645688 117.551769 
L 149.255025 116.403998 
L 150.473698 113.714127 
L 151.692371 111.560865 
L 152.301708 109.999141 
L 152.911044 109.30611 
L 153.520381 107.808649 
L 154.739054 105.783141 
L 155.348391 104.317233 
L 155.957727 104.325795 
L 156.567064 102.299614 
L 159.613747 97.063404 
L 160.223084 95.95748 
L 161.441757 94.401913 
L 162.051093 92.959285 
L 162.66043 92.457214 
L 163.879103 91.057492 
L 164.48844 89.74868 
L 165.097776 89.248436 
L 166.925786 86.470061 
L 168.144459 85.260432 
L 168.753796 84.132862 
L 169.363133 83.571242 
L 169.972469 82.386721 
L 171.800479 80.384302 
L 172.409816 79.656254 
L 173.019152 79.36313 
L 173.628489 78.736382 
L 174.237826 78.309924 
L 174.847162 77.23488 
L 175.456499 76.961092 
L 177.284509 74.620238 
L 178.503182 73.901234 
L 179.112518 73.480547 
L 179.721855 72.552787 
L 180.331192 71.988377 
L 180.940528 71.035219 
L 181.549865 71.001453 
L 182.159201 70.481776 
L 182.768538 69.774508 
L 183.987211 69.024334 
L 184.596548 68.647323 
L 185.815221 66.983338 
L 187.033894 66.305699 
L 188.252568 65.847495 
L 188.861904 64.927719 
L 190.689914 63.710202 
L 191.299251 62.918758 
L 191.908587 62.981192 
L 192.517924 62.224092 
L 193.12726 61.72279 
L 193.736597 61.60427 
L 194.95527 61.115378 
L 195.564607 60.009165 
L 196.173943 60.087568 
L 197.392617 59.181357 
L 198.001953 59.203194 
L 199.220627 57.852535 
L 199.829963 58.226468 
L 200.4393 57.357101 
L 202.26731 56.987882 
L 203.485983 55.864738 
L 204.095319 55.798263 
L 204.704656 55.267427 
L 205.313993 54.478581 
L 205.923329 54.801527 
L 206.532666 54.14486 
L 207.142002 54.245005 
L 208.360676 53.684732 
L 208.970012 53.026622 
L 209.579349 52.888574 
L 210.188686 52.942446 
L 210.798022 52.051242 
L 211.407359 52.237968 
L 212.016695 51.472113 
L 213.235369 51.157825 
L 213.844705 50.7204 
L 215.063378 50.716167 
L 215.672715 50.168015 
L 216.282052 50.100386 
L 216.891388 49.646126 
L 217.500725 49.651513 
L 218.110061 49.126449 
L 218.719398 49.140687 
L 219.938071 48.740876 
L 220.547408 48.810045 
L 221.156744 48.502202 
L 221.766081 48.037552 
L 222.375418 48.061699 
L 222.984754 47.710373 
L 223.594091 47.586659 
L 224.203428 47.19695 
L 224.812764 46.667268 
L 226.031437 46.997814 
L 227.250111 46.250334 
L 227.859447 46.482947 
L 228.468784 46.001366 
L 229.07812 45.701701 
L 229.687457 45.844944 
L 230.296794 45.165477 
L 230.90613 45.175771 
L 231.515467 45.02185 
L 232.124803 44.68784 
L 233.952813 44.708139 
L 234.56215 44.099188 
L 235.171486 43.82338 
L 235.780823 44.064652 
L 236.999496 43.359307 
L 237.608833 43.478789 
L 238.21817 43.323521 
L 238.827506 43.300144 
L 239.436843 42.66974 
L 240.046179 42.791626 
L 240.655516 42.48186 
L 241.264853 42.665026 
L 241.874189 42.158433 
L 242.483526 42.420484 
L 243.092862 42.423081 
L 243.702199 42.071852 
L 244.311536 42.078394 
L 244.920872 41.755351 
L 246.139545 41.512444 
L 246.748882 41.340245 
L 247.358219 41.043562 
L 247.967555 40.622779 
L 248.576892 40.981512 
L 249.795565 40.504068 
L 250.404902 40.759385 
L 251.014238 39.774962 
L 251.623575 40.236629 
L 252.232912 39.752355 
L 252.842248 40.114454 
L 253.451585 39.928594 
L 254.060921 39.924073 
L 254.670258 39.483473 
L 255.279595 39.733884 
L 255.888931 39.510025 
L 256.498268 39.460578 
L 257.107604 38.695012 
L 257.716941 38.902998 
L 258.326278 38.823343 
L 259.544951 38.358694 
L 260.154287 38.605352 
L 260.763624 38.234306 
L 262.591634 38.043155 
L 263.200971 38.095488 
L 263.810307 37.916266 
L 265.02898 37.706452 
L 266.247654 37.341755 
L 266.85699 37.727616 
L 267.466327 37.303948 
L 268.075663 37.408133 
L 268.685 37.177059 
L 269.294337 37.113567 
L 269.903673 37.252288 
L 270.51301 36.832179 
L 271.122346 36.610629 
L 271.731683 37.097982 
L 272.34102 36.640066 
L 272.950356 36.621692 
L 273.559693 36.490185 
L 274.169029 36.644107 
L 274.778366 36.343094 
L 275.387703 36.705868 
L 275.997039 35.801195 
L 276.606376 35.916636 
L 277.215713 36.238428 
L 278.434386 35.453622 
L 279.043722 35.583397 
L 279.653059 35.442078 
L 280.262396 35.675076 
L 280.871732 35.358672 
L 281.481069 35.172427 
L 282.090405 35.580799 
L 283.309079 34.852944 
L 283.918415 34.985894 
L 284.527752 35.280557 
L 285.137088 34.609652 
L 285.746425 35.563291 
L 286.355762 34.552701 
L 286.965098 35.011098 
L 287.574435 34.562321 
L 288.793108 34.842843 
L 289.402445 34.495269 
L 290.011781 34.628604 
L 290.621118 34.197624 
L 291.839791 33.995891 
L 292.449128 34.358087 
L 293.058464 33.590597 
L 293.667801 34.336346 
L 294.277138 33.698823 
L 294.886474 33.892668 
L 296.105147 33.632444 
L 297.323821 33.835621 
L 297.933157 33.714696 
L 299.15183 33.222052 
L 299.761167 33.169622 
L 300.370504 33.379436 
L 301.589177 32.771159 
L 302.198514 33.10536 
L 302.80785 33.023205 
L 303.417187 33.368277 
L 304.026523 32.868899 
L 304.63586 33.336819 
L 305.245197 32.624068 
L 305.854533 32.858798 
L 306.46387 32.932968 
L 307.073206 32.535659 
L 307.682543 32.73845 
L 308.901216 32.56096 
L 309.510553 32.31103 
L 310.119889 32.426664 
L 311.338563 32.306124 
L 311.947899 32.638113 
L 313.166572 32.205113 
L 313.775909 32.342392 
L 314.385246 32.246961 
L 314.994582 32.314109 
L 315.603919 31.974424 
L 316.213256 32.018291 
L 316.822592 32.198572 
L 317.431929 31.792027 
L 318.650602 31.705927 
L 319.869275 31.722955 
L 321.087948 31.237814 
L 321.697285 31.116986 
L 322.306622 31.269945 
L 322.915958 31.634065 
L 323.525295 31.083508 
L 324.743968 31.13257 
L 325.353305 31.270041 
L 325.962641 30.979226 
L 326.571978 31.319777 
L 327.181314 31.094667 
L 328.399988 30.956523 
L 329.009324 30.73199 
L 329.618661 30.788364 
L 330.227998 31.032041 
L 330.837334 30.785478 
L 332.056007 30.97432 
L 333.274681 30.462724 
L 333.884017 30.688123 
L 334.493354 30.525255 
L 335.10269 30.016641 
L 335.712027 30.4127 
L 336.321364 30.414913 
L 336.9307 30.714001 
L 337.540037 30.024818 
L 338.75871 30.269265 
L 340.58672 30.510729 
L 341.805393 30.038671 
L 342.41473 30.343916 
L 343.024066 29.950551 
L 344.852076 29.839728 
L 345.461413 29.91236 
L 346.070749 29.790666 
L 346.680086 29.498985 
L 347.289423 30.042712 
L 347.898759 29.899372 
L 348.508096 29.971234 
L 349.117432 29.411442 
L 350.336106 29.3973 
L 350.945442 29.687442 
L 351.554779 29.784124 
L 352.164115 28.898115 
L 352.773452 29.470317 
L 353.992125 29.340157 
L 354.601462 29.648288 
L 355.210799 29.204995 
L 355.820135 29.367478 
L 356.429472 29.260503 
L 357.038808 29.416541 
L 357.648145 29.281378 
L 358.257482 29.324861 
L 358.866818 29.01394 
L 359.476155 29.243379 
L 360.085491 29.127746 
L 360.694828 28.709753 
L 361.304165 29.022983 
L 361.913501 29.151123 
L 362.522838 28.797488 
L 363.132174 28.928418 
L 364.350848 28.761798 
L 364.960184 28.971131 
L 365.569521 28.700326 
L 366.178857 29.11245 
L 366.788194 28.767185 
L 367.397531 28.837412 
L 368.006867 29.070218 
L 368.616204 28.668868 
L 369.225541 28.419227 
L 369.834877 28.87368 
L 370.444214 28.298014 
L 371.05355 28.651648 
L 371.662887 28.470694 
L 372.272224 28.734573 
L 373.490897 28.314657 
L 374.100233 28.142457 
L 374.70957 28.495899 
L 375.928243 28.704655 
L 376.53758 28.058474 
L 377.146916 28.445297 
L 377.756253 28.285893 
L 378.36559 28.57488 
L 378.974926 28.028363 
L 379.584263 28.436158 
L 380.1936 28.260688 
L 380.802936 27.852797 
L 382.021609 28.127065 
L 382.630946 27.915231 
L 383.240283 27.87069 
L 383.849619 28.146113 
L 384.458956 27.996809 
L 385.068292 28.126776 
L 385.677629 28.125526 
L 386.896302 27.378142 
L 387.505639 27.582761 
L 388.114975 27.560731 
L 388.724312 27.919271 
L 389.942985 28.084448 
L 392.380332 27.59671 
L 392.989668 27.706283 
L 393.599005 27.999022 
L 394.208342 27.56583 
L 394.817678 27.564579 
L 395.427015 27.900127 
L 396.036351 27.993731 
L 396.645688 27.626532 
L 397.255025 27.631823 
L 397.864361 27.203249 
L 398.473698 27.598923 
L 399.083034 27.320325 
L 399.692371 27.661261 
L 400.301708 27.488292 
L 400.911044 27.794595 
L 401.520381 27.341778 
L 402.129717 27.164865 
L 402.739054 26.848845 
L 403.348391 27.554959 
L 403.957727 27.126673 
L 404.567064 27.257698 
L 405.785737 27.184297 
L 406.395074 27.276361 
L 407.00441 27.027009 
L 407.613747 27.295698 
L 408.223084 27.110992 
L 408.83242 27.280594 
L 409.441757 27.042016 
L 410.66043 27.208925 
L 411.269767 27.200748 
L 411.879103 26.681456 
L 412.48844 26.96063 
L 413.097776 26.638358 
L 413.707113 27.085499 
L 414.925786 26.563321 
L 415.535123 26.936773 
L 416.144459 26.826334 
L 416.753796 26.966114 
L 417.363133 26.895791 
L 417.972469 26.274141 
L 418.581806 26.680782 
L 419.800479 26.589488 
L 420.409816 26.96063 
L 421.628489 26.630854 
L 422.237826 27.025181 
L 422.847162 26.768325 
L 424.065835 26.52157 
L 424.675172 26.66058 
L 425.284509 26.158123 
L 425.893845 27.005749 
L 426.503182 26.471353 
L 427.112518 26.286359 
L 427.721855 26.982372 
L 428.331192 26.874242 
L 428.940528 26.460963 
L 430.159201 26.384003 
L 430.768538 26.517433 
L 431.987211 26.005741 
L 433.205885 26.416422 
L 434.424558 26.073082 
L 435.643231 26.541484 
L 436.252568 26.299538 
L 437.471241 26.258653 
L 438.080577 26.474335 
L 438.689914 26.544177 
L 439.908587 26.10781 
L 441.12726 26.337634 
L 442.345934 25.843739 
L 442.95527 26.051244 
L 443.564607 25.837101 
L 444.173943 26.228927 
L 444.78328 26.358991 
L 445.392617 26.027098 
L 447.220627 25.840276 
L 447.829963 26.024019 
L 449.048636 26.099537 
L 449.657973 25.790732 
L 450.26731 26.040374 
L 450.876646 25.911945 
L 452.095319 25.490682 
L 452.704656 25.611895 
L 453.313993 25.881642 
L 453.923329 25.838063 
L 454.532666 25.622189 
L 455.142002 25.959372 
L 455.751339 25.758024 
L 457.579349 25.934937 
L 458.798022 25.588326 
L 459.407359 25.525122 
L 461.235369 25.708385 
L 461.844705 25.521563 
L 462.454042 25.692992 
L 463.063378 25.603911 
L 463.672715 25.689625 
L 464.282052 25.646143 
L 464.891388 25.465862 
L 465.500725 25.920604 
L 466.110061 25.47731 
L 466.719398 25.536762 
L 467.328735 25.315982 
L 467.938071 25.258646 
L 468.547408 25.520601 
L 469.156744 25.306265 
L 469.766081 25.604295 
L 470.375418 25.075383 
L 470.984754 25.378704 
L 472.203428 25.671347 
L 472.812764 25.11117 
L 474.031437 25.644603 
L 474.640774 25.72243 
L 476.468784 25.22536 
L 477.07812 25.561678 
L 477.687457 25.181781 
L 478.296794 25.335414 
L 478.90613 25.310306 
L 479.515467 25.149073 
L 480.124803 25.423438 
L 480.73414 25.377839 
L 481.343477 24.92733 
L 481.952813 25.651819 
L 482.56215 24.96379 
L 483.171486 24.913958 
L 483.780823 25.520985 
L 484.39016 25.363793 
L 484.999496 25.056913 
L 485.608833 24.933102 
L 486.21817 25.372548 
L 488.046179 24.793707 
L 488.655516 25.30261 
L 489.264853 25.305207 
L 489.874189 24.925791 
L 490.483526 25.215259 
L 491.092862 25.123099 
L 491.702199 24.816603 
L 492.311536 24.824684 
L 492.920872 25.237097 
L 493.530209 24.534254 
L 494.139545 24.913285 
L 495.358219 24.616121 
L 496.576892 24.775141 
L 497.186229 25.105494 
L 497.795565 24.775333 
L 498.404902 25.223436 
L 499.623575 24.583797 
L 500.232912 24.685578 
L 500.842248 25.134451 
L 501.451585 25.10713 
L 502.060921 24.8344 
L 502.670258 24.889042 
L 503.888931 24.553302 
L 504.498268 24.809773 
L 505.107604 24.903184 
L 506.326278 24.804482 
L 506.935614 24.969178 
L 507.544951 24.590627 
L 508.154287 24.715496 
L 508.763624 24.702701 
L 509.372961 24.379659 
L 509.982297 24.956383 
L 510.591634 24.47384 
L 511.810307 24.829686 
L 512.419644 24.584374 
L 513.02898 24.47509 
L 513.638317 24.73541 
L 515.466327 24.486057 
L 516.075663 24.597073 
L 516.685 24.318283 
L 517.294337 24.162534 
L 517.903673 24.720306 
L 518.51301 24.88808 
L 519.122346 24.495196 
L 520.34102 24.131653 
L 520.950356 24.214001 
L 521.559693 24.494619 
L 522.169029 24.553879 
L 522.778366 24.751187 
L 523.387703 24.456331 
L 523.997039 24.285575 
L 524.606376 24.309433 
L 525.215713 24.612657 
L 525.825049 24.540218 
L 527.043722 24.88606 
L 528.262396 24.115973 
L 528.871732 24.537621 
L 530.090405 24.41054 
L 530.699742 24.826608 
L 531.309079 24.590627 
L 531.918415 23.996876 
L 532.527752 24.313858 
L 533.137088 24.346085 
L 533.746425 24.254117 
L 534.355762 24.367442 
L 534.965098 24.825261 
L 535.574435 24.39457 
L 536.183771 24.145122 
L 536.793108 24.040936 
L 537.402445 24.267778 
L 538.011781 24.147046 
L 538.621118 23.895192 
L 539.230455 24.26518 
L 539.839791 24.25277 
L 540.449128 24.484229 
L 541.058464 24.200437 
L 542.277138 24.100292 
L 542.886474 24.288461 
L 543.495811 24.11453 
L 544.714484 24.222467 
L 545.323821 24.269702 
L 545.933157 23.912604 
L 546.542494 24.268162 
L 547.15183 24.20592 
L 547.761167 24.447384 
L 548.370504 23.957819 
L 548.97984 23.97475 
L 549.589177 24.397071 
L 550.80785 24.124919 
L 551.417187 23.892979 
L 552.026523 24.142909 
L 552.63586 23.617941 
L 553.245197 24.19986 
L 553.854533 23.838145 
L 554.46387 23.696152 
L 555.073206 24.275474 
L 556.901216 23.92184 
L 557.510553 24.155126 
L 558.729226 24.026602 
L 559.338563 23.930786 
L 559.947899 23.642472 
L 560.557236 24.056424 
L 561.166572 23.59543 
L 561.775909 23.57696 
L 562.385246 23.73521 
L 562.994582 23.733863 
L 563.603919 23.558104 
L 564.213256 23.87143 
L 564.822592 23.896635 
L 566.041265 24.277879 
L 566.650602 23.769746 
L 567.259939 23.771959 
L 567.869275 23.929728 
L 568.478612 23.661616 
L 569.087948 24.026795 
L 570.306622 24.060657 
L 571.525295 23.43718 
L 572.134631 23.736461 
L 572.743968 24.229971 
L 573.353305 23.665464 
L 573.962641 23.771285 
L 574.571978 24.134443 
L 575.181314 23.689707 
L 575.790651 23.777442 
L 576.399988 24.157724 
L 577.009324 23.804859 
L 577.618661 23.757913 
L 578.227998 24.017656 
L 579.446671 23.570226 
L 580.056007 23.803801 
L 580.665344 23.630447 
L 581.884017 23.803513 
L 582.493354 23.536171 
L 583.10269 23.580038 
L 583.712027 23.467772 
L 584.321364 23.754546 
L 585.540037 23.279122 
L 586.75871 23.631506 
L 587.368047 23.808707 
L 587.977383 23.571476 
L 588.58672 23.505963 
L 589.196057 23.863734 
L 589.805393 23.728765 
L 590.41473 23.398507 
L 591.024066 23.616594 
L 591.633403 23.296823 
L 592.24274 23.859886 
L 594.070749 23.119044 
L 594.680086 23.541846 
L 595.289423 23.758491 
L 595.898759 23.185038 
L 596.508096 23.585425 
L 597.117432 23.170992 
L 597.726769 23.21611 
L 598.336106 23.482298 
L 598.945442 23.148096 
L 601.382789 23.34627 
L 601.992125 23.880088 
L 602.601462 23.499614 
L 603.820135 23.449205 
L 604.429472 23.13155 
L 605.038808 23.39995 
L 605.648145 23.478835 
L 606.866818 23.128279 
L 607.476155 23.187924 
L 608.085491 23.584656 
L 608.694828 23.26575 
L 609.304165 23.343192 
L 609.913501 23.579846 
L 611.132174 23.341749 
L 611.741511 23.112021 
L 612.350848 23.479508 
L 612.960184 22.887489 
L 614.178857 23.546849 
L 614.788194 23.217746 
L 615.397531 23.517604 
L 616.006867 23.35666 
L 616.616204 23.046508 
L 617.225541 23.711448 
L 617.834877 22.938379 
L 618.444214 23.584271 
L 619.05355 23.187924 
L 620.272224 23.030347 
L 620.88156 23.412937 
L 621.490897 23.141747 
L 622.70957 23.42881 
L 623.318907 23.160891 
L 623.928243 23.273639 
L 624.53758 22.919523 
L 625.146916 23.414765 
L 625.756253 22.944728 
L 626.36559 23.213513 
L 626.974926 23.04141 
L 627.584263 23.079409 
L 628.1936 23.618615 
L 628.802936 23.282393 
L 629.412273 23.141843 
L 630.021609 22.620243 
L 630.630946 23.239487 
L 631.240283 22.924526 
L 631.849619 23.28576 
L 632.458956 23.418132 
L 633.068292 23.099226 
L 633.677629 22.992636 
L 634.286966 23.271041 
L 636.114975 23.338959 
L 636.724312 23.042468 
L 637.333649 23.04747 
L 638.552322 23.295669 
L 640.380332 22.912116 
L 640.989668 23.22929 
L 641.599005 23.132608 
L 642.208342 23.152041 
L 642.817678 22.650354 
L 643.427015 22.64843 
L 644.036351 23.004661 
L 644.645688 22.828036 
L 646.473698 23.254783 
L 647.083034 22.737223 
L 647.692371 22.960505 
L 648.301708 22.810047 
L 648.911044 23.283162 
L 649.520381 22.967431 
L 650.129717 23.218612 
L 650.739054 22.725679 
L 651.348391 22.810143 
L 651.957727 23.261902 
L 652.567064 23.132801 
L 653.1764 22.855357 
L 653.785737 23.107596 
L 655.00441 22.76185 
L 656.223084 23.008028 
L 656.83242 22.883352 
L 658.051093 23.073541 
L 658.66043 22.602638 
L 659.269767 22.870365 
L 660.48844 22.685755 
L 661.097776 22.942131 
L 661.707113 22.665361 
L 662.31645 23.05863 
L 665.972469 22.818513 
L 666.581806 23.064113 
L 667.191143 22.934338 
L 667.800479 22.688545 
L 668.409816 22.566082 
L 669.019152 22.887681 
L 670.237826 23.091338 
L 670.847162 22.893164 
L 671.456499 22.936359 
L 672.065835 22.426302 
L 673.284509 22.821687 
L 675.112518 22.844102 
L 675.721855 22.73097 
L 676.940528 22.776377 
L 678.159201 22.444869 
L 678.768538 22.736549 
L 679.987211 22.480848 
L 680.596548 22.639098 
L 681.205885 22.564542 
L 681.815221 22.863919 
L 683.033894 22.56916 
L 683.643231 22.739243 
L 684.252568 22.417259 
L 684.861904 22.419279 
L 686.689914 22.767334 
L 689.12726 22.393497 
L 690.345934 22.919523 
L 690.95527 22.68893 
L 691.564607 22.793212 
L 694.001953 22.726737 
L 694.61129 22.32 
L 695.220627 22.643235 
L 696.4393 22.745881 
L 697.048636 22.364156 
L 697.048636 22.364156 
" clip-path="url(#p40683e360d)" style="fill: none; stroke: #1f77b4; stroke-width: 1.5; stroke-linecap: square"/>
   </g>
   <g id="line2d_16">
    <path d="M 88.321364 324.72 
L 90.149373 316.954864 
L 91.368047 312.091625 
L 91.977383 309.222917 
L 92.58672 307.196832 
L 93.196057 303.268376 
L 93.805393 301.050178 
L 95.024066 295.713439 
L 95.633403 293.433576 
L 96.24274 290.174677 
L 98.070749 282.25966 
L 101.726769 265.860118 
L 102.336106 264.190457 
L 102.945442 260.988509 
L 103.554779 259.166177 
L 104.773452 254.02665 
L 105.382789 251.932166 
L 105.992125 249.039889 
L 107.210799 244.744234 
L 109.648145 235.42786 
L 110.257482 233.913179 
L 110.866818 231.904217 
L 112.085491 227.29668 
L 113.913501 221.64623 
L 114.522838 219.494699 
L 115.741511 216.567405 
L 116.350848 213.913032 
L 117.569521 211.012675 
L 118.178857 209.008716 
L 118.788194 207.541269 
L 120.616204 202.387215 
L 122.444214 197.744564 
L 123.05355 196.118386 
L 125.490897 190.818299 
L 126.70957 187.860028 
L 127.318907 186.185942 
L 128.53758 184.448267 
L 129.756253 181.253342 
L 130.974926 179.519611 
L 131.584263 178.03504 
L 132.1936 177.286309 
L 132.802936 175.688607 
L 133.412273 174.544875 
L 134.630946 172.654914 
L 135.849619 170.675775 
L 137.677629 168.087204 
L 138.896302 165.852363 
L 139.505639 165.168472 
L 140.114975 163.740371 
L 141.333649 162.230788 
L 141.942985 161.27282 
L 142.552322 160.638376 
L 143.161658 159.774301 
L 143.770995 158.440573 
L 144.380332 158.23528 
L 146.208342 155.556569 
L 146.817678 154.365699 
L 148.036351 153.279496 
L 149.255025 151.861592 
L 149.864361 151.406851 
L 150.473698 150.656196 
L 151.083034 149.534014 
L 151.692371 149.519969 
L 152.301708 148.433092 
L 152.911044 148.319479 
L 153.520381 146.811628 
L 154.129717 146.248564 
L 154.739054 146.022589 
L 155.348391 145.575351 
L 155.957727 144.497902 
L 156.567064 144.541096 
L 157.1764 143.227955 
L 159.00441 141.766088 
L 159.613747 141.454782 
L 160.223084 140.567137 
L 162.66043 138.600889 
L 163.269767 138.23725 
L 164.48844 137.065621 
L 165.097776 136.885437 
L 166.31645 135.569891 
L 167.535123 135.164308 
L 168.144459 134.747662 
L 168.753796 133.781999 
L 169.972469 133.004023 
L 170.581806 132.956019 
L 171.191143 131.801417 
L 171.800479 131.396123 
L 172.409816 131.402087 
L 173.628489 130.469901 
L 174.847162 129.582449 
L 175.456499 129.680574 
L 176.675172 128.750408 
L 177.284509 128.000619 
L 177.893845 128.073924 
L 178.503182 127.660646 
L 179.112518 127.42505 
L 179.721855 126.723842 
L 180.331192 126.370112 
L 180.940528 126.360396 
L 181.549865 125.762412 
L 182.159201 125.642834 
L 183.987211 124.243305 
L 184.596548 124.312281 
L 185.205885 123.83397 
L 187.033894 122.835695 
L 187.643231 122.92622 
L 188.252568 121.80827 
L 188.861904 122.359116 
L 191.299251 121.065407 
L 191.908587 120.93063 
L 192.517924 120.417495 
L 193.12726 120.272713 
L 193.736597 119.5134 
L 194.345934 119.717442 
L 194.95527 119.026143 
L 195.564607 119.134657 
L 196.173943 118.944565 
L 196.78328 118.216709 
L 197.392617 118.332247 
L 198.001953 117.680775 
L 199.220627 117.624786 
L 201.048636 116.63969 
L 201.657973 116.500679 
L 202.876646 116.029199 
L 203.485983 116.087305 
L 204.095319 115.747908 
L 204.704656 115.632756 
L 205.923329 115.075753 
L 207.751339 114.423223 
L 208.360676 113.48286 
L 208.970012 114.204944 
L 209.579349 113.672184 
L 210.188686 113.291902 
L 210.798022 113.600322 
L 212.626032 112.812629 
L 213.235369 113.028504 
L 213.844705 112.373473 
L 214.454042 112.145958 
L 215.063378 112.120465 
L 216.282052 111.71469 
L 216.891388 111.529888 
L 217.500725 111.739028 
L 218.110061 111.126133 
L 218.719398 110.89275 
L 219.328735 110.814827 
L 221.156744 109.812126 
L 221.766081 109.753925 
L 222.375418 110.276584 
L 222.984754 109.814531 
L 223.594091 109.942094 
L 224.203428 109.458685 
L 224.812764 109.128235 
L 226.031437 109.144974 
L 226.640774 108.93997 
L 227.250111 108.609039 
L 227.859447 108.556514 
L 229.07812 107.956605 
L 229.687457 107.940732 
L 230.296794 107.754295 
L 230.90613 107.811438 
L 231.515467 107.254724 
L 232.73414 107.518892 
L 233.343477 107.253474 
L 233.952813 107.261362 
L 234.56215 106.989018 
L 235.171486 107.337938 
L 236.39016 106.526003 
L 236.999496 106.30859 
L 238.21817 106.451544 
L 238.827506 105.863468 
L 239.436843 105.835089 
L 240.655516 105.38131 
L 241.264853 105.487323 
L 241.874189 105.264522 
L 242.483526 105.384196 
L 243.092862 105.191313 
L 243.702199 104.753311 
L 244.311536 105.126185 
L 246.139545 104.145322 
L 246.748882 104.285775 
L 247.358219 104.106457 
L 247.967555 104.352154 
L 248.576892 103.680576 
L 249.186229 103.910304 
L 250.404902 103.939645 
L 251.014238 103.51588 
L 251.623575 103.483942 
L 252.232912 103.272877 
L 252.842248 103.500969 
L 253.451585 103.020158 
L 254.060921 102.863543 
L 254.670258 103.078359 
L 255.279595 103.096156 
L 255.888931 102.403895 
L 256.498268 102.635643 
L 257.107604 102.341172 
L 257.716941 101.908846 
L 258.326278 102.311254 
L 258.935614 102.350215 
L 259.544951 101.523081 
L 260.154287 101.905864 
L 261.982297 101.796676 
L 262.591634 101.490084 
L 263.200971 101.394172 
L 263.810307 101.537222 
L 265.02898 101.335297 
L 265.638317 101.524139 
L 266.247654 101.014082 
L 266.85699 100.841594 
L 268.075663 101.046791 
L 269.294337 100.692098 
L 269.903673 100.628317 
L 270.51301 100.729039 
L 271.122346 100.603209 
L 271.731683 99.846686 
L 272.34102 100.404939 
L 272.950356 99.810899 
L 273.559693 100.134999 
L 274.169029 99.704886 
L 274.778366 99.759239 
L 275.387703 99.976364 
L 275.997039 99.836873 
L 276.606376 99.490165 
L 277.825049 99.323257 
L 278.434386 99.483239 
L 279.043722 99.298822 
L 279.653059 99.413878 
L 280.262396 99.042351 
L 280.871732 99.149422 
L 281.481069 98.887275 
L 282.090405 98.789727 
L 282.699742 99.007718 
L 284.527752 98.196265 
L 285.746425 98.561635 
L 286.355762 98.109395 
L 286.965098 98.548937 
L 287.574435 97.833299 
L 288.183771 97.970866 
L 289.402445 97.782505 
L 290.011781 97.953454 
L 291.230455 98.001073 
L 291.839791 97.602129 
L 292.449128 97.739696 
L 293.667801 97.534884 
L 294.277138 97.512566 
L 294.886474 97.200683 
L 295.495811 97.369515 
L 296.105147 97.072447 
L 296.714484 97.119681 
L 297.323821 96.734012 
L 297.933157 96.656859 
L 298.542494 97.023673 
L 299.15183 96.714869 
L 299.761167 96.780189 
L 302.198514 96.433 
L 302.80785 96.495531 
L 303.417187 96.229824 
L 304.026523 96.56518 
L 304.63586 96.433193 
L 305.245197 96.036845 
L 305.854533 96.044638 
L 306.46387 95.859836 
L 307.073206 96.212604 
L 307.682543 96.105821 
L 308.29188 96.181435 
L 308.901216 95.816449 
L 309.510553 96.049255 
L 310.119889 95.859643 
L 310.729226 95.433474 
L 311.338563 95.76604 
L 311.947899 95.176714 
L 312.557236 95.124862 
L 313.166572 95.660508 
L 314.385246 95.0606 
L 315.603919 95.10591 
L 316.822592 94.713892 
L 317.431929 95.005284 
L 318.041265 94.763339 
L 318.650602 94.915433 
L 319.259939 94.613266 
L 319.869275 94.508118 
L 321.087948 94.793739 
L 321.697285 94.388637 
L 322.306622 94.203739 
L 322.915958 94.389407 
L 323.525295 94.169973 
L 324.134631 94.52149 
L 325.962641 94.137938 
L 326.571978 94.360835 
L 327.790651 93.859052 
L 328.399988 94.174494 
L 329.618661 93.825381 
L 330.227998 93.915618 
L 332.056007 93.776607 
L 332.665344 93.675885 
L 333.274681 93.218931 
L 333.884017 93.433171 
L 335.10269 93.524465 
L 335.712027 93.995176 
L 336.321364 93.26607 
L 336.9307 93.293198 
L 337.540037 92.954091 
L 338.149373 92.960632 
L 338.75871 93.185454 
L 340.58672 93.063086 
L 341.196057 93.086655 
L 341.805393 93.250678 
L 342.41473 92.508489 
L 343.024066 92.76698 
L 343.633403 92.616233 
L 344.852076 92.773522 
L 345.461413 92.398242 
L 346.070749 92.654714 
L 346.680086 92.495886 
L 347.289423 92.997477 
L 347.898759 92.459907 
L 348.508096 92.422293 
L 349.117432 92.044223 
L 349.726769 92.262888 
L 350.336106 92.007667 
L 350.945442 92.619216 
L 351.554779 92.609884 
L 352.773452 91.836718 
L 353.382789 91.849321 
L 353.992125 92.205552 
L 354.601462 91.968321 
L 355.210799 91.851533 
L 355.820135 92.063945 
L 357.038808 91.794967 
L 357.648145 92.068274 
L 358.257482 91.503094 
L 358.866818 91.832197 
L 359.476155 91.247873 
L 360.085491 91.964473 
L 360.694828 91.432675 
L 361.304165 91.850956 
L 363.741511 91.278177 
L 364.350848 91.332915 
L 364.960184 90.956 
L 365.569521 90.890391 
L 366.178857 91.186401 
L 368.006867 91.066823 
L 368.616204 91.213818 
L 369.834877 91.084236 
L 370.444214 91.199099 
L 371.05355 90.87144 
L 371.662887 90.723194 
L 372.272224 90.749553 
L 372.88156 90.963311 
L 374.100233 90.57947 
L 374.70957 90.977549 
L 375.318907 90.48375 
L 375.928243 90.582549 
L 377.146916 91.133106 
L 377.756253 90.126557 
L 378.36559 90.308953 
L 379.584263 90.43363 
L 380.1936 90.533679 
L 380.802936 90.107413 
L 381.412273 89.868065 
L 382.021609 90.225066 
L 382.630946 89.834684 
L 383.240283 90.370522 
L 383.849619 90.067682 
L 384.458956 90.255562 
L 385.068292 90.093656 
L 385.677629 90.164171 
L 386.286966 89.786679 
L 386.896302 89.996012 
L 387.505639 90.063064 
L 388.114975 89.820253 
L 388.724312 90.042958 
L 389.333649 89.721263 
L 389.942985 89.787064 
L 390.552322 89.650748 
L 391.161658 89.828623 
L 391.770995 89.693846 
L 393.599005 89.752528 
L 394.208342 89.770325 
L 394.817678 89.400337 
L 395.427015 89.83122 
L 396.036351 89.212745 
L 396.645688 89.149541 
L 397.864361 89.679704 
L 398.473698 89.229003 
L 399.083034 89.135881 
L 399.692371 89.327705 
L 400.301708 89.401876 
L 401.520381 89.285762 
L 402.129717 89.458635 
L 402.739054 89.15541 
L 403.348391 89.122413 
L 403.957727 89.270562 
L 404.567064 88.900574 
L 405.1764 89.236026 
L 405.785737 88.973783 
L 406.395074 89.409861 
L 407.00441 88.887587 
L 407.613747 88.720197 
L 408.223084 88.796869 
L 408.83242 88.495087 
L 409.441757 88.665555 
L 410.051093 88.996005 
L 410.66043 89.127511 
L 411.269767 88.450835 
L 412.48844 88.638234 
L 413.097776 88.400522 
L 414.31645 88.700572 
L 414.925786 88.413894 
L 415.535123 88.545304 
L 416.144459 88.0947 
L 416.753796 88.352518 
L 417.363133 89.003316 
L 417.972469 88.470075 
L 418.581806 88.322792 
L 419.800479 88.328371 
L 420.409816 87.98859 
L 421.019152 88.559061 
L 422.237826 88.10634 
L 423.456499 88.348574 
L 424.065835 87.497389 
L 424.675172 88.386092 
L 425.284509 88.374163 
L 425.893845 87.956555 
L 427.112518 88.370892 
L 427.721855 87.645249 
L 428.331192 87.852081 
L 428.940528 87.644672 
L 429.549865 87.645538 
L 430.159201 87.876324 
L 431.377875 88.082097 
L 432.596548 87.485075 
L 433.815221 87.424084 
L 434.424558 87.310182 
L 435.033894 87.909802 
L 435.643231 87.602152 
L 436.252568 87.469298 
L 436.861904 87.605038 
L 437.471241 87.071316 
L 438.080577 87.604941 
L 439.908587 87.47228 
L 440.517924 87.606962 
L 441.12726 87.527307 
L 441.736597 87.153952 
L 442.95527 87.294886 
L 443.564607 87.118165 
L 444.173943 87.382718 
L 444.78328 87.376272 
L 445.392617 86.691226 
L 446.001953 87.098348 
L 447.220627 86.69998 
L 447.829963 87.187622 
L 448.4393 87.24592 
L 449.048636 86.920473 
L 449.657973 86.795027 
L 450.26731 87.028506 
L 450.876646 87.410231 
L 451.485983 86.75443 
L 452.095319 87.084976 
L 452.704656 86.580499 
L 453.313993 86.798105 
L 453.923329 86.726339 
L 454.532666 86.857846 
L 455.142002 86.809168 
L 455.751339 86.902387 
L 456.360676 86.671505 
L 456.970012 86.580884 
L 457.579349 86.709793 
L 459.407359 86.570687 
L 460.016695 86.567897 
L 460.626032 86.352022 
L 461.844705 86.494496 
L 463.672715 86.540672 
L 464.282052 86.134608 
L 464.891388 86.43639 
L 465.500725 86.47439 
L 466.719398 86.193291 
L 467.328735 86.270251 
L 467.938071 86.64986 
L 468.547408 86.234465 
L 470.375418 86.231483 
L 471.594091 86.171357 
L 472.203428 85.848892 
L 474.031437 86.024458 
L 475.250111 85.994444 
L 476.468784 86.027633 
L 477.07812 85.643503 
L 477.687457 85.806948 
L 478.296794 86.152309 
L 479.515467 85.701897 
L 480.124803 85.790113 
L 480.73414 86.304403 
L 481.343477 86.243315 
L 481.952813 85.913827 
L 482.56215 85.856107 
L 483.171486 85.573373 
L 483.780823 86.171453 
L 484.39016 85.742109 
L 485.608833 85.478134 
L 486.21817 85.893914 
L 486.827506 85.959042 
L 487.436843 85.33239 
L 488.046179 85.677655 
L 488.655516 85.38126 
L 489.264853 85.287272 
L 489.874189 85.706803 
L 490.483526 85.449755 
L 491.092862 85.656875 
L 491.702199 85.713634 
L 492.311536 85.08448 
L 492.920872 85.24225 
L 493.530209 85.080248 
L 494.139545 85.378278 
L 494.748882 85.131715 
L 495.358219 85.406272 
L 495.967555 85.251389 
L 496.576892 84.884383 
L 497.186229 85.305646 
L 497.795565 85.207136 
L 498.404902 85.297469 
L 499.014238 85.68131 
L 499.623575 85.415796 
L 501.451585 85.147492 
L 502.060921 84.990877 
L 502.670258 85.393574 
L 503.279595 85.140181 
L 503.888931 85.405695 
L 504.498268 85.044365 
L 505.107604 85.028011 
L 506.326278 85.229936 
L 506.935614 84.888231 
L 507.544951 84.755089 
L 508.154287 84.814252 
L 508.763624 85.061777 
L 509.372961 84.521225 
L 509.982297 84.851001 
L 510.591634 84.856292 
L 511.200971 84.599917 
L 512.419644 84.921131 
L 513.02898 85.338932 
L 513.638317 84.7143 
L 514.85699 84.550374 
L 515.466327 84.779235 
L 516.075663 84.678417 
L 516.685 84.966731 
L 517.294337 84.640033 
L 519.122346 84.845421 
L 519.731683 84.57452 
L 520.34102 84.811655 
L 521.559693 84.472643 
L 522.169029 84.751241 
L 522.778366 84.538156 
L 523.387703 84.556915 
L 523.997039 85.054081 
L 524.606376 84.597512 
L 525.215713 84.393085 
L 525.825049 84.559897 
L 526.434386 84.465524 
L 527.043722 84.215595 
L 527.653059 84.640706 
L 528.262396 84.113333 
L 528.871732 84.533346 
L 529.481069 84.310834 
L 530.090405 84.228967 
L 530.699742 84.528632 
L 531.309079 84.424158 
L 531.918415 84.521898 
L 532.527752 84.429642 
L 533.137088 84.166532 
L 534.355762 84.318818 
L 534.965098 84.104771 
L 535.574435 84.031947 
L 536.183771 84.505255 
L 537.402445 84.19241 
L 538.011781 83.668308 
L 538.621118 84.68265 
L 539.230455 83.942769 
L 539.839791 84.24484 
L 540.449128 84.261771 
L 541.667801 83.682065 
L 542.886474 83.912947 
L 543.495811 83.803855 
L 544.714484 84.173459 
L 545.323821 83.675235 
L 545.933157 84.356625 
L 546.542494 84.172978 
L 547.15183 83.736034 
L 547.761167 83.564796 
L 548.370504 84.118528 
L 548.97984 83.425209 
L 549.589177 83.925357 
L 550.198514 84.21242 
L 550.80785 83.686394 
L 552.63586 83.825982 
L 553.245197 83.650511 
L 554.46387 83.50544 
L 555.073206 83.709386 
L 555.682543 83.570568 
L 556.29188 83.752965 
L 556.901216 83.260321 
L 558.119889 83.800296 
L 558.729226 83.797217 
L 559.947899 83.268979 
L 560.557236 83.668405 
L 561.166572 83.208372 
L 561.775909 83.33199 
L 562.385246 83.720353 
L 562.994582 83.368258 
L 563.603919 83.701498 
L 564.213256 83.288123 
L 564.822592 83.195578 
L 566.041265 83.345459 
L 566.650602 83.680334 
L 567.259939 83.404814 
L 569.087948 83.147958 
L 569.697285 83.516888 
L 570.306622 83.336031 
L 570.915958 83.510539 
L 571.525295 83.222514 
L 572.134631 83.378936 
L 572.743968 83.20337 
L 573.353305 83.49659 
L 573.962641 83.145361 
L 574.571978 83.045889 
L 575.181314 83.667539 
L 575.790651 83.121695 
L 576.399988 82.966331 
L 577.009324 83.313231 
L 578.227998 83.11448 
L 578.837334 82.869361 
L 579.446671 83.303996 
L 580.056007 83.03877 
L 580.665344 83.258108 
L 581.274681 83.31073 
L 581.884017 82.834055 
L 583.10269 83.136799 
L 583.712027 82.567964 
L 584.321364 82.99548 
L 584.9307 83.010103 
L 586.149373 82.599806 
L 586.75871 83.001348 
L 587.368047 82.87292 
L 587.977383 83.183456 
L 588.58672 82.545741 
L 589.196057 83.002887 
L 589.805393 83.184034 
L 590.41473 83.002695 
L 591.024066 83.188844 
L 591.633403 82.99346 
L 592.24274 82.947861 
L 592.852076 83.049833 
L 593.461413 82.836845 
L 594.070749 83.002118 
L 594.680086 82.745454 
L 595.289423 82.888793 
L 596.508096 83.035692 
L 597.117432 82.569407 
L 597.726769 82.908033 
L 598.336106 82.900241 
L 598.945442 82.180563 
L 599.554779 82.651658 
L 600.164115 82.68985 
L 600.773452 82.6025 
L 601.992125 82.681673 
L 602.601462 82.558055 
L 603.210799 82.982685 
L 603.820135 82.625107 
L 604.429472 82.444538 
L 605.038808 82.407501 
L 605.648145 82.7215 
L 606.257482 82.154781 
L 607.476155 82.248192 
L 608.085491 81.846458 
L 608.694828 82.780856 
L 609.304165 82.412022 
L 609.913501 82.77797 
L 610.522838 82.498507 
L 611.132174 82.408367 
L 611.741511 82.150933 
L 612.350848 82.513803 
L 612.960184 82.341218 
L 613.569521 82.55642 
L 614.788194 82.502932 
L 615.397531 82.407886 
L 616.006867 82.144776 
L 616.616204 82.378544 
L 617.225541 82.060889 
L 617.834877 82.725829 
L 618.444214 81.934097 
L 619.662887 82.145065 
L 620.272224 82.010095 
L 620.88156 82.316014 
L 621.490897 81.884361 
L 622.100233 81.978157 
L 622.70957 82.369598 
L 624.53758 81.923515 
L 625.756253 82.29812 
L 626.36559 82.285999 
L 626.974926 81.806246 
L 628.1936 82.226547 
L 628.802936 81.920917 
L 629.412273 81.79701 
L 630.021609 81.865217 
L 630.630946 82.182968 
L 631.240283 81.788449 
L 631.849619 81.84386 
L 632.458956 82.028373 
L 633.068292 81.745735 
L 633.677629 82.070028 
L 635.505639 81.610381 
L 636.114975 81.898117 
L 636.724312 81.666081 
L 637.942985 81.789988 
L 638.552322 81.670506 
L 639.161658 81.906487 
L 639.770995 81.799896 
L 640.380332 81.848574 
L 640.989668 81.738713 
L 641.599005 81.952952 
L 642.208342 81.552757 
L 642.817678 81.539962 
L 643.427015 81.809324 
L 644.036351 81.712739 
L 644.645688 82.143045 
L 645.255025 81.633373 
L 645.864361 81.293399 
L 646.473698 81.876857 
L 647.083034 81.746986 
L 648.301708 81.311004 
L 648.911044 81.73852 
L 649.520381 81.864447 
L 650.129717 81.725629 
L 650.739054 81.29946 
L 651.957727 81.544676 
L 653.1764 81.457037 
L 653.785737 81.620097 
L 654.395074 81.502925 
L 655.00441 81.760647 
L 655.613747 81.402972 
L 656.223084 81.485031 
L 656.83242 80.788153 
L 658.051093 81.89629 
L 658.66043 81.556701 
L 659.879103 81.497634 
L 660.48844 81.666466 
L 661.097776 81.596047 
L 661.707113 81.649919 
L 662.31645 80.984787 
L 662.925786 81.078968 
L 663.535123 81.577192 
L 665.363133 81.178055 
L 665.972469 81.382866 
L 666.581806 81.407493 
L 667.191143 81.24222 
L 667.800479 81.23818 
L 668.409816 80.953137 
L 669.019152 81.406916 
L 669.628489 81.201047 
L 670.237826 81.261557 
L 670.847162 81.684071 
L 671.456499 80.907345 
L 672.065835 81.113504 
L 672.675172 81.010184 
L 673.893845 81.334381 
L 674.503182 81.196429 
L 675.112518 80.848663 
L 675.721855 81.010377 
L 676.331192 81.362856 
L 676.940528 81.076947 
L 677.549865 81.087722 
L 678.768538 80.816051 
L 679.377875 81.089935 
L 679.987211 80.781803 
L 681.205885 81.211917 
L 681.815221 80.788249 
L 683.033894 81.435199 
L 683.643231 81.05511 
L 684.252568 81.001526 
L 684.861904 81.234524 
L 685.471241 80.829711 
L 686.080577 81.132359 
L 686.689914 80.938418 
L 687.299251 81.225289 
L 688.517924 80.780841 
L 689.12726 81.15285 
L 689.736597 80.727835 
L 690.345934 80.927067 
L 690.95527 80.672712 
L 691.564607 81.02269 
L 692.173943 80.641254 
L 692.78328 80.486467 
L 693.392617 80.610374 
L 694.001953 80.848471 
L 694.61129 80.718696 
L 695.220627 80.734184 
L 695.829963 81.057323 
L 697.048636 80.660302 
L 697.048636 80.660302 
" clip-path="url(#p40683e360d)" style="fill: none; stroke: #ff7f0e; stroke-width: 1.5; stroke-linecap: square"/>
   </g>
   <g id="patch_3">
    <path d="M 57.885 339.84 
L 57.885 7.2 
" style="fill: none; stroke: #000000; stroke-width: 0.8; stroke-linejoin: miter; stroke-linecap: square"/>
   </g>
   <g id="patch_4">
    <path d="M 727.485 339.84 
L 727.485 7.2 
" style="fill: none; stroke: #000000; stroke-width: 0.8; stroke-linejoin: miter; stroke-linecap: square"/>
   </g>
   <g id="patch_5">
    <path d="M 57.885 339.84 
L 727.485 339.84 
" style="fill: none; stroke: #000000; stroke-width: 0.8; stroke-linejoin: miter; stroke-linecap: square"/>
   </g>
   <g id="patch_6">
    <path d="M 57.885 7.2 
L 727.485 7.2 
" style="fill: none; stroke: #000000; stroke-width: 0.8; stroke-linejoin: miter; stroke-linecap: square"/>
   </g>
   <g id="legend_1">
    <g id="patch_7">
     <path d="M 530.4625 331.84 
L 716.285 331.84 
Q 719.485 331.84 719.485 328.64 
L 719.485 283.27 
Q 719.485 280.07 716.285 280.07 
L 530.4625 280.07 
Q 527.2625 280.07 527.2625 283.27 
L 527.2625 328.64 
Q 527.2625 331.84 530.4625 331.84 
z
" style="fill: #ffffff; opacity: 0.8; stroke: #cccccc; stroke-linejoin: miter"/>
    </g>
    <g id="line2d_17">
     <path d="M 533.6625 293.0275 
L 549.6625 293.0275 
L 565.6625 293.0275 
" style="fill: none; stroke: #1f77b4; stroke-width: 1.5; stroke-linecap: square"/>
    </g>
    <g id="text_17">
     <!-- With baseline -->
     <g transform="translate(578.4625 298.6275) scale(0.16 -0.16)">
      <defs>
       <path id="DejaVuSans-57" d="M 213 4666 
L 850 4666 
L 1831 722 
L 2809 4666 
L 3519 4666 
L 4500 722 
L 5478 4666 
L 6119 4666 
L 4947 0 
L 4153 0 
L 3169 4050 
L 2175 0 
L 1381 0 
L 213 4666 
z
" transform="scale(0.015625)"/>
       <path id="DejaVuSans-69" d="M 603 3500 
L 1178 3500 
L 1178 0 
L 603 0 
L 603 3500 
z
M 603 4863 
L 1178 4863 
L 1178 4134 
L 603 4134 
L 603 4863 
z
" transform="scale(0.015625)"/>
       <path id="DejaVuSans-68" d="M 3513 2113 
L 3513 0 
L 2938 0 
L 2938 2094 
Q 2938 2591 2744 2837 
Q 2550 3084 2163 3084 
Q 1697 3084 1428 2787 
Q 1159 2491 1159 1978 
L 1159 0 
L 581 0 
L 581 4863 
L 1159 4863 
L 1159 2956 
Q 1366 3272 1645 3428 
Q 1925 3584 2291 3584 
Q 2894 3584 3203 3211 
Q 3513 2838 3513 2113 
z
" transform="scale(0.015625)"/>
       <path id="DejaVuSans-62" d="M 3116 1747 
Q 3116 2381 2855 2742 
Q 2594 3103 2138 3103 
Q 1681 3103 1420 2742 
Q 1159 2381 1159 1747 
Q 1159 1113 1420 752 
Q 1681 391 2138 391 
Q 2594 391 2855 752 
Q 3116 1113 3116 1747 
z
M 1159 2969 
Q 1341 3281 1617 3432 
Q 1894 3584 2278 3584 
Q 2916 3584 3314 3078 
Q 3713 2572 3713 1747 
Q 3713 922 3314 415 
Q 2916 -91 2278 -91 
Q 1894 -91 1617 61 
Q 1341 213 1159 525 
L 1159 0 
L 581 0 
L 581 4863 
L 1159 4863 
L 1159 2969 
z
" transform="scale(0.015625)"/>
       <path id="DejaVuSans-6c" d="M 603 4863 
L 1178 4863 
L 1178 0 
L 603 0 
L 603 4863 
z
" transform="scale(0.015625)"/>
       <path id="DejaVuSans-6e" d="M 3513 2113 
L 3513 0 
L 2938 0 
L 2938 2094 
Q 2938 2591 2744 2837 
Q 2550 3084 2163 3084 
Q 1697 3084 1428 2787 
Q 1159 2491 1159 1978 
L 1159 0 
L 581 0 
L 581 3500 
L 1159 3500 
L 1159 2956 
Q 1366 3272 1645 3428 
Q 1925 3584 2291 3584 
Q 2894 3584 3203 3211 
Q 3513 2838 3513 2113 
z
" transform="scale(0.015625)"/>
      </defs>
      <use xlink:href="#DejaVuSans-57"/>
      <use xlink:href="#DejaVuSans-69" transform="translate(96.626953 0)"/>
      <use xlink:href="#DejaVuSans-74" transform="translate(124.410156 0)"/>
      <use xlink:href="#DejaVuSans-68" transform="translate(163.619141 0)"/>
      <use xlink:href="#DejaVuSans-20" transform="translate(226.998047 0)"/>
      <use xlink:href="#DejaVuSans-62" transform="translate(258.785156 0)"/>
      <use xlink:href="#DejaVuSans-61" transform="translate(322.261719 0)"/>
      <use xlink:href="#DejaVuSans-73" transform="translate(383.541016 0)"/>
      <use xlink:href="#DejaVuSans-65" transform="translate(435.640625 0)"/>
      <use xlink:href="#DejaVuSans-6c" transform="translate(497.164062 0)"/>
      <use xlink:href="#DejaVuSans-69" transform="translate(524.947266 0)"/>
      <use xlink:href="#DejaVuSans-6e" transform="translate(552.730469 0)"/>
      <use xlink:href="#DejaVuSans-65" transform="translate(616.109375 0)"/>
     </g>
    </g>
    <g id="line2d_18">
     <path d="M 533.6625 316.5125 
L 549.6625 316.5125 
L 565.6625 316.5125 
" style="fill: none; stroke: #ff7f0e; stroke-width: 1.5; stroke-linecap: square"/>
    </g>
    <g id="text_18">
     <!-- Without baseline -->
     <g transform="translate(578.4625 322.1125) scale(0.16 -0.16)">
      <defs>
       <path id="DejaVuSans-6f" d="M 1959 3097 
Q 1497 3097 1228 2736 
Q 959 2375 959 1747 
Q 959 1119 1226 758 
Q 1494 397 1959 397 
Q 2419 397 2687 759 
Q 2956 1122 2956 1747 
Q 2956 2369 2687 2733 
Q 2419 3097 1959 3097 
z
M 1959 3584 
Q 2709 3584 3137 3096 
Q 3566 2609 3566 1747 
Q 3566 888 3137 398 
Q 2709 -91 1959 -91 
Q 1206 -91 779 398 
Q 353 888 353 1747 
Q 353 2609 779 3096 
Q 1206 3584 1959 3584 
z
" transform="scale(0.015625)"/>
       <path id="DejaVuSans-75" d="M 544 1381 
L 544 3500 
L 1119 3500 
L 1119 1403 
Q 1119 906 1312 657 
Q 1506 409 1894 409 
Q 2359 409 2629 706 
Q 2900 1003 2900 1516 
L 2900 3500 
L 3475 3500 
L 3475 0 
L 2900 0 
L 2900 538 
Q 2691 219 2414 64 
Q 2138 -91 1772 -91 
Q 1169 -91 856 284 
Q 544 659 544 1381 
z
M 1991 3584 
L 1991 3584 
z
" transform="scale(0.015625)"/>
      </defs>
      <use xlink:href="#DejaVuSans-57"/>
      <use xlink:href="#DejaVuSans-69" transform="translate(96.626953 0)"/>
      <use xlink:href="#DejaVuSans-74" transform="translate(124.410156 0)"/>
      <use xlink:href="#DejaVuSans-68" transform="translate(163.619141 0)"/>
      <use xlink:href="#DejaVuSans-6f" transform="translate(226.998047 0)"/>
      <use xlink:href="#DejaVuSans-75" transform="translate(288.179688 0)"/>
      <use xlink:href="#DejaVuSans-74" transform="translate(351.558594 0)"/>
      <use xlink:href="#DejaVuSans-20" transform="translate(390.767578 0)"/>
      <use xlink:href="#DejaVuSans-62" transform="translate(422.554688 0)"/>
      <use xlink:href="#DejaVuSans-61" transform="translate(486.03125 0)"/>
      <use xlink:href="#DejaVuSans-73" transform="translate(547.310547 0)"/>
      <use xlink:href="#DejaVuSans-65" transform="translate(599.410156 0)"/>
      <use xlink:href="#DejaVuSans-6c" transform="translate(660.933594 0)"/>
      <use xlink:href="#DejaVuSans-69" transform="translate(688.716797 0)"/>
      <use xlink:href="#DejaVuSans-6e" transform="translate(716.5 0)"/>
      <use xlink:href="#DejaVuSans-65" transform="translate(779.878906 0)"/>
     </g>
    </g>
   </g>
  </g>
 </g>
 <defs>
  <clipPath id="p40683e360d">
   <rect x="57.885" y="7.2" width="669.6" height="332.64"/>
  </clipPath>
 </defs>
</svg>
