<?xml version="1.0" encoding="utf-8" standalone="no"?>
<!DOCTYPE svg PUBLIC "-//W3C//DTD SVG 1.1//EN"
  "http://www.w3.org/Graphics/SVG/1.1/DTD/svg11.dtd">
<svg xmlns:xlink="http://www.w3.org/1999/xlink" width="725.145625pt" height="301.97875pt" viewBox="0 0 725.145625 301.97875" xmlns="http://www.w3.org/2000/svg" version="1.1">
 <metadata>
  <rdf:RDF xmlns:dc="http://purl.org/dc/elements/1.1/" xmlns:cc="http://creativecommons.org/ns#" xmlns:rdf="http://www.w3.org/1999/02/22-rdf-syntax-ns#">
   <cc:Work>
    <dc:type rdf:resource="http://purl.org/dc/dcmitype/StillImage"/>
    <dc:date>2026-03-27T15:54:22.969137</dc:date>
    <dc:format>image/svg+xml</dc:format>
    <dc:creator>
     <cc:Agent>
      <dc:title>Matplotlib v3.10.8, https://matplotlib.org/</dc:title>
     </cc:Agent>
    </dc:creator>
   </cc:Work>
  </rdf:RDF>
 </metadata>
 <defs>
  <style type="text/css">*{stroke-linejoin: round; stroke-linecap: butt}</style>
 </defs>
 <g id="figure_1">
  <g id="patch_1">
   <path d="M 0 301.97875 
L 725.145625 301.97875 
L 725.145625 0 
L 0 0 
L 0 301.97875 
z
" style="fill: none"/>
  </g>
  <g id="axes_1">
   <g id="patch_2">
    <path d="M 48.345625 256.68 
L 717.945625 256.68 
L 717.945625 7.2 
L 48.345625 7.2 
L 48.345625 256.68 
z
" style="fill: none"/>
   </g>
   <g id="matplotlib.axis_1">
    <g id="xtick_1">
     <g id="line2d_1">
      <defs>
       <path id="m0abe74ab42" d="M 0 0 
L 0 3.5 
" style="stroke: #000000; stroke-width: 0.8"/>
      </defs>
      <g>
       <use xlink:href="#m0abe74ab42" x="78.781989" y="256.68" style="stroke: #000000; stroke-width: 0.8"/>
      </g>
     </g>
     <g id="text_1">
      <!-- 0 -->
      <g transform="translate(75.600739 271.278438) scale(0.1 -0.1)">
       <defs>
        <path id="DejaVuSans-30" d="M 2034 4250 
Q 1547 4250 1301 3770 
Q 1056 3291 1056 2328 
Q 1056 1369 1301 889 
Q 1547 409 2034 409 
Q 2525 409 2770 889 
Q 3016 1369 3016 2328 
Q 3016 3291 2770 3770 
Q 2525 4250 2034 4250 
z
M 2034 4750 
Q 2819 4750 3233 4129 
Q 3647 3509 3647 2328 
Q 3647 1150 3233 529 
Q 2819 -91 2034 -91 
Q 1250 -91 836 529 
Q 422 1150 422 2328 
Q 422 3509 836 4129 
Q 1250 4750 2034 4750 
z
" transform="scale(0.015625)"/>
       </defs>
       <use xlink:href="#DejaVuSans-30"/>
      </g>
     </g>
    </g>
    <g id="xtick_2">
     <g id="line2d_2">
      <g>
       <use xlink:href="#m0abe74ab42" x="180.253446" y="256.68" style="stroke: #000000; stroke-width: 0.8"/>
      </g>
     </g>
     <g id="text_2">
      <!-- 1000 -->
      <g transform="translate(167.528446 271.278438) scale(0.1 -0.1)">
       <defs>
        <path id="DejaVuSans-31" d="M 794 531 
L 1825 531 
L 1825 4091 
L 703 3866 
L 703 4441 
L 1819 4666 
L 2450 4666 
L 2450 531 
L 3481 531 
L 3481 0 
L 794 0 
L 794 531 
z
" transform="scale(0.015625)"/>
       </defs>
       <use xlink:href="#DejaVuSans-31"/>
       <use xlink:href="#DejaVuSans-30" transform="translate(63.623047 0)"/>
       <use xlink:href="#DejaVuSans-30" transform="translate(127.246094 0)"/>
       <use xlink:href="#DejaVuSans-30" transform="translate(190.869141 0)"/>
      </g>
     </g>
    </g>
    <g id="xtick_3">
     <g id="line2d_3">
      <g>
       <use xlink:href="#m0abe74ab42" x="281.724903" y="256.68" style="stroke: #000000; stroke-width: 0.8"/>
      </g>
     </g>
     <g id="text_3">
      <!-- 2000 -->
      <g transform="translate(268.999903 271.278438) scale(0.1 -0.1)">
       <defs>
        <path id="DejaVuSans-32" d="M 1228 531 
L 3431 531 
L 3431 0 
L 469 0 
L 469 531 
Q 828 903 1448 1529 
Q 2069 2156 2228 2338 
Q 2531 2678 2651 2914 
Q 2772 3150 2772 3378 
Q 2772 3750 2511 3984 
Q 2250 4219 1831 4219 
Q 1534 4219 1204 4116 
Q 875 4013 500 3803 
L 500 4441 
Q 881 4594 1212 4672 
Q 1544 4750 1819 4750 
Q 2544 4750 2975 4387 
Q 3406 4025 3406 3419 
Q 3406 3131 3298 2873 
Q 3191 2616 2906 2266 
Q 2828 2175 2409 1742 
Q 1991 1309 1228 531 
z
" transform="scale(0.015625)"/>
       </defs>
       <use xlink:href="#DejaVuSans-32"/>
       <use xlink:href="#DejaVuSans-30" transform="translate(63.623047 0)"/>
       <use xlink:href="#DejaVuSans-30" transform="translate(127.246094 0)"/>
       <use xlink:href="#DejaVuSans-30" transform="translate(190.869141 0)"/>
      </g>
     </g>
    </g>
    <g id="xtick_4">
     <g id="line2d_4">
      <g>
       <use xlink:href="#m0abe74ab42" x="383.196361" y="256.68" style="stroke: #000000; stroke-width: 0.8"/>
      </g>
     </g>
     <g id="text_4">
      <!-- 3000 -->
      <g transform="translate(370.471361 271.278438) scale(0.1 -0.1)">
       <defs>
        <path id="DejaVuSans-33" d="M 2597 2516 
Q 3050 2419 3304 2112 
Q 3559 1806 3559 1356 
Q 3559 666 3084 287 
Q 2609 -91 1734 -91 
Q 1441 -91 1130 -33 
Q 819 25 488 141 
L 488 750 
Q 750 597 1062 519 
Q 1375 441 1716 441 
Q 2309 441 2620 675 
Q 2931 909 2931 1356 
Q 2931 1769 2642 2001 
Q 2353 2234 1838 2234 
L 1294 2234 
L 1294 2753 
L 1863 2753 
Q 2328 2753 2575 2939 
Q 2822 3125 2822 3475 
Q 2822 3834 2567 4026 
Q 2313 4219 1838 4219 
Q 1578 4219 1281 4162 
Q 984 4106 628 3988 
L 628 4550 
Q 988 4650 1302 4700 
Q 1616 4750 1894 4750 
Q 2613 4750 3031 4423 
Q 3450 4097 3450 3541 
Q 3450 3153 3228 2886 
Q 3006 2619 2597 2516 
z
" transform="scale(0.015625)"/>
       </defs>
       <use xlink:href="#DejaVuSans-33"/>
       <use xlink:href="#DejaVuSans-30" transform="translate(63.623047 0)"/>
       <use xlink:href="#DejaVuSans-30" transform="translate(127.246094 0)"/>
       <use xlink:href="#DejaVuSans-30" transform="translate(190.869141 0)"/>
      </g>
     </g>
    </g>
    <g id="xtick_5">
     <g id="line2d_5">
      <g>
       <use xlink:href="#m0abe74ab42" x="484.667818" y="256.68" style="stroke: #000000; stroke-width: 0.8"/>
      </g>
     </g>
     <g id="text_5">
      <!-- 4000 -->
      <g transform="translate(471.942818 271.278438) scale(0.1 -0.1)">
       <defs>
        <path id="DejaVuSans-34" d="M 2419 4116 
L 825 1625 
L 2419 1625 
L 2419 4116 
z
M 2253 4666 
L 3047 4666 
L 3047 1625 
L 3713 1625 
L 3713 1100 
L 3047 1100 
L 3047 0 
L 2419 0 
L 2419 1100 
L 313 1100 
L 313 1709 
L 2253 4666 
z
" transform="scale(0.015625)"/>
       </defs>
       <use xlink:href="#DejaVuSans-34"/>
       <use xlink:href="#DejaVuSans-30" transform="translate(63.623047 0)"/>
       <use xlink:href="#DejaVuSans-30" transform="translate(127.246094 0)"/>
       <use xlink:href="#DejaVuSans-30" transform="translate(190.869141 0)"/>
      </g>
     </g>
    </g>
    <g id="xtick_6">
     <g id="line2d_6">
      <g>
       <use xlink:href="#m0abe74ab42" x="586.139275" y="256.68" style="stroke: #000000; stroke-width: 0.8"/>
      </g>
     </g>
     <g id="text_6">
      <!-- 5000 -->
      <g transform="translate(573.414275 271.278438) scale(0.1 -0.1)">
       <defs>
        <path id="DejaVuSans-35" d="M 691 4666 
L 3169 4666 
L 3169 4134 
L 1269 4134 
L 1269 2991 
Q 1406 3038 1543 3061 
Q 1681 3084 1819 3084 
Q 2600 3084 3056 2656 
Q 3513 2228 3513 1497 
Q 3513 744 3044 326 
Q 2575 -91 1722 -91 
Q 1428 -91 1123 -41 
Q 819 9 494 109 
L 494 744 
Q 775 591 1075 516 
Q 1375 441 1709 441 
Q 2250 441 2565 725 
Q 2881 1009 2881 1497 
Q 2881 1984 2565 2268 
Q 2250 2553 1709 2553 
Q 1456 2553 1204 2497 
Q 953 2441 691 2322 
L 691 4666 
z
" transform="scale(0.015625)"/>
       </defs>
       <use xlink:href="#DejaVuSans-35"/>
       <use xlink:href="#DejaVuSans-30" transform="translate(63.623047 0)"/>
       <use xlink:href="#DejaVuSans-30" transform="translate(127.246094 0)"/>
       <use xlink:href="#DejaVuSans-30" transform="translate(190.869141 0)"/>
      </g>
     </g>
    </g>
    <g id="xtick_7">
     <g id="line2d_7">
      <g>
       <use xlink:href="#m0abe74ab42" x="687.610733" y="256.68" style="stroke: #000000; stroke-width: 0.8"/>
      </g>
     </g>
     <g id="text_7">
      <!-- 6000 -->
      <g transform="translate(674.885733 271.278438) scale(0.1 -0.1)">
       <defs>
        <path id="DejaVuSans-36" d="M 2113 2584 
Q 1688 2584 1439 2293 
Q 1191 2003 1191 1497 
Q 1191 994 1439 701 
Q 1688 409 2113 409 
Q 2538 409 2786 701 
Q 3034 994 3034 1497 
Q 3034 2003 2786 2293 
Q 2538 2584 2113 2584 
z
M 3366 4563 
L 3366 3988 
Q 3128 4100 2886 4159 
Q 2644 4219 2406 4219 
Q 1781 4219 1451 3797 
Q 1122 3375 1075 2522 
Q 1259 2794 1537 2939 
Q 1816 3084 2150 3084 
Q 2853 3084 3261 2657 
Q 3669 2231 3669 1497 
Q 3669 778 3244 343 
Q 2819 -91 2113 -91 
Q 1303 -91 875 529 
Q 447 1150 447 2328 
Q 447 3434 972 4092 
Q 1497 4750 2381 4750 
Q 2619 4750 2861 4703 
Q 3103 4656 3366 4563 
z
" transform="scale(0.015625)"/>
       </defs>
       <use xlink:href="#DejaVuSans-36"/>
       <use xlink:href="#DejaVuSans-30" transform="translate(63.623047 0)"/>
       <use xlink:href="#DejaVuSans-30" transform="translate(127.246094 0)"/>
       <use xlink:href="#DejaVuSans-30" transform="translate(190.869141 0)"/>
      </g>
     </g>
    </g>
    <g id="text_8">
     <!-- Steps -->
     <g transform="translate(357.963906 291.035313) scale(0.18 -0.18)">
      <defs>
       <path id="DejaVuSans-53" d="M 3425 4513 
L 3425 3897 
Q 3066 4069 2747 4153 
Q 2428 4238 2131 4238 
Q 1616 4238 1336 4038 
Q 1056 3838 1056 3469 
Q 1056 3159 1242 3001 
Q 1428 2844 1947 2747 
L 2328 2669 
Q 3034 2534 3370 2195 
Q 3706 1856 3706 1288 
Q 3706 609 3251 259 
Q 2797 -91 1919 -91 
Q 1588 -91 1214 -16 
Q 841 59 441 206 
L 441 856 
Q 825 641 1194 531 
Q 1563 422 1919 422 
Q 2459 422 2753 634 
Q 3047 847 3047 1241 
Q 3047 1584 2836 1778 
Q 2625 1972 2144 2069 
L 1759 2144 
Q 1053 2284 737 2584 
Q 422 2884 422 3419 
Q 422 4038 858 4394 
Q 1294 4750 2059 4750 
Q 2388 4750 2728 4690 
Q 3069 4631 3425 4513 
z
" transform="scale(0.015625)"/>
       <path id="DejaVuSans-74" d="M 1172 4494 
L 1172 3500 
L 2356 3500 
L 2356 3053 
L 1172 3053 
L 1172 1153 
Q 1172 725 1289 603 
Q 1406 481 1766 481 
L 2356 481 
L 2356 0 
L 1766 0 
Q 1100 0 847 248 
Q 594 497 594 1153 
L 594 3053 
L 172 3053 
L 172 3500 
L 594 3500 
L 594 4494 
L 1172 4494 
z
" transform="scale(0.015625)"/>
       <path id="DejaVuSans-65" d="M 3597 1894 
L 3597 1613 
L 953 1613 
Q 991 1019 1311 708 
Q 1631 397 2203 397 
Q 2534 397 2845 478 
Q 3156 559 3463 722 
L 3463 178 
Q 3153 47 2828 -22 
Q 2503 -91 2169 -91 
Q 1331 -91 842 396 
Q 353 884 353 1716 
Q 353 2575 817 3079 
Q 1281 3584 2069 3584 
Q 2775 3584 3186 3129 
Q 3597 2675 3597 1894 
z
M 3022 2063 
Q 3016 2534 2758 2815 
Q 2500 3097 2075 3097 
Q 1594 3097 1305 2825 
Q 1016 2553 972 2059 
L 3022 2063 
z
" transform="scale(0.015625)"/>
       <path id="DejaVuSans-70" d="M 1159 525 
L 1159 -1331 
L 581 -1331 
L 581 3500 
L 1159 3500 
L 1159 2969 
Q 1341 3281 1617 3432 
Q 1894 3584 2278 3584 
Q 2916 3584 3314 3078 
Q 3713 2572 3713 1747 
Q 3713 922 3314 415 
Q 2916 -91 2278 -91 
Q 1894 -91 1617 61 
Q 1341 213 1159 525 
z
M 3116 1747 
Q 3116 2381 2855 2742 
Q 2594 3103 2138 3103 
Q 1681 3103 1420 2742 
Q 1159 2381 1159 1747 
Q 1159 1113 1420 752 
Q 1681 391 2138 391 
Q 2594 391 2855 752 
Q 3116 1113 3116 1747 
z
" transform="scale(0.015625)"/>
       <path id="DejaVuSans-73" d="M 2834 3397 
L 2834 2853 
Q 2591 2978 2328 3040 
Q 2066 3103 1784 3103 
Q 1356 3103 1142 2972 
Q 928 2841 928 2578 
Q 928 2378 1081 2264 
Q 1234 2150 1697 2047 
L 1894 2003 
Q 2506 1872 2764 1633 
Q 3022 1394 3022 966 
Q 3022 478 2636 193 
Q 2250 -91 1575 -91 
Q 1294 -91 989 -36 
Q 684 19 347 128 
L 347 722 
Q 666 556 975 473 
Q 1284 391 1588 391 
Q 1994 391 2212 530 
Q 2431 669 2431 922 
Q 2431 1156 2273 1281 
Q 2116 1406 1581 1522 
L 1381 1569 
Q 847 1681 609 1914 
Q 372 2147 372 2553 
Q 372 3047 722 3315 
Q 1072 3584 1716 3584 
Q 2034 3584 2315 3537 
Q 2597 3491 2834 3397 
z
" transform="scale(0.015625)"/>
      </defs>
      <use xlink:href="#DejaVuSans-53"/>
      <use xlink:href="#DejaVuSans-74" transform="translate(63.476562 0)"/>
      <use xlink:href="#DejaVuSans-65" transform="translate(102.685547 0)"/>
      <use xlink:href="#DejaVuSans-70" transform="translate(164.208984 0)"/>
      <use xlink:href="#DejaVuSans-73" transform="translate(227.685547 0)"/>
     </g>
    </g>
   </g>
   <g id="matplotlib.axis_2">
    <g id="ytick_1">
     <g id="line2d_8">
      <defs>
       <path id="m064b20f634" d="M 0 0 
L -3.5 0 
" style="stroke: #000000; stroke-width: 0.8"/>
      </defs>
      <g>
       <use xlink:href="#m064b20f634" x="48.345625" y="245.34" style="stroke: #000000; stroke-width: 0.8"/>
      </g>
     </g>
     <g id="text_9">
      <!-- 0 -->
      <g transform="translate(34.983125 249.139219) scale(0.1 -0.1)">
       <use xlink:href="#DejaVuSans-30"/>
      </g>
     </g>
    </g>
    <g id="ytick_2">
     <g id="line2d_9">
      <g>
       <use xlink:href="#m064b20f634" x="48.345625" y="202.057451" style="stroke: #000000; stroke-width: 0.8"/>
      </g>
     </g>
     <g id="text_10">
      <!-- 10 -->
      <g transform="translate(28.620625 205.85667) scale(0.1 -0.1)">
       <use xlink:href="#DejaVuSans-31"/>
       <use xlink:href="#DejaVuSans-30" transform="translate(63.623047 0)"/>
      </g>
     </g>
    </g>
    <g id="ytick_3">
     <g id="line2d_10">
      <g>
       <use xlink:href="#m064b20f634" x="48.345625" y="158.774903" style="stroke: #000000; stroke-width: 0.8"/>
      </g>
     </g>
     <g id="text_11">
      <!-- 20 -->
      <g transform="translate(28.620625 162.574122) scale(0.1 -0.1)">
       <use xlink:href="#DejaVuSans-32"/>
       <use xlink:href="#DejaVuSans-30" transform="translate(63.623047 0)"/>
      </g>
     </g>
    </g>
    <g id="ytick_4">
     <g id="line2d_11">
      <g>
       <use xlink:href="#m064b20f634" x="48.345625" y="115.492354" style="stroke: #000000; stroke-width: 0.8"/>
      </g>
     </g>
     <g id="text_12">
      <!-- 30 -->
      <g transform="translate(28.620625 119.291573) scale(0.1 -0.1)">
       <use xlink:href="#DejaVuSans-33"/>
       <use xlink:href="#DejaVuSans-30" transform="translate(63.623047 0)"/>
      </g>
     </g>
    </g>
    <g id="ytick_5">
     <g id="line2d_12">
      <g>
       <use xlink:href="#m064b20f634" x="48.345625" y="72.209806" style="stroke: #000000; stroke-width: 0.8"/>
      </g>
     </g>
     <g id="text_13">
      <!-- 40 -->
      <g transform="translate(28.620625 76.009024) scale(0.1 -0.1)">
       <use xlink:href="#DejaVuSans-34"/>
       <use xlink:href="#DejaVuSans-30" transform="translate(63.623047 0)"/>
      </g>
     </g>
    </g>
    <g id="ytick_6">
     <g id="line2d_13">
      <g>
       <use xlink:href="#m064b20f634" x="48.345625" y="28.927257" style="stroke: #000000; stroke-width: 0.8"/>
      </g>
     </g>
     <g id="text_14">
      <!-- 50 -->
      <g transform="translate(28.620625 32.726476) scale(0.1 -0.1)">
       <use xlink:href="#DejaVuSans-35"/>
       <use xlink:href="#DejaVuSans-30" transform="translate(63.623047 0)"/>
      </g>
     </g>
    </g>
    <g id="text_15">
     <!-- Cumulative Reward -->
     <g transform="translate(20.877187 219.685781) rotate(-90) scale(0.18 -0.18)">
      <defs>
       <path id="DejaVuSans-43" d="M 4122 4306 
L 4122 3641 
Q 3803 3938 3442 4084 
Q 3081 4231 2675 4231 
Q 1875 4231 1450 3742 
Q 1025 3253 1025 2328 
Q 1025 1406 1450 917 
Q 1875 428 2675 428 
Q 3081 428 3442 575 
Q 3803 722 4122 1019 
L 4122 359 
Q 3791 134 3420 21 
Q 3050 -91 2638 -91 
Q 1578 -91 968 557 
Q 359 1206 359 2328 
Q 359 3453 968 4101 
Q 1578 4750 2638 4750 
Q 3056 4750 3426 4639 
Q 3797 4528 4122 4306 
z
" transform="scale(0.015625)"/>
       <path id="DejaVuSans-75" d="M 544 1381 
L 544 3500 
L 1119 3500 
L 1119 1403 
Q 1119 906 1312 657 
Q 1506 409 1894 409 
Q 2359 409 2629 706 
Q 2900 1003 2900 1516 
L 2900 3500 
L 3475 3500 
L 3475 0 
L 2900 0 
L 2900 538 
Q 2691 219 2414 64 
Q 2138 -91 1772 -91 
Q 1169 -91 856 284 
Q 544 659 544 1381 
z
M 1991 3584 
L 1991 3584 
z
" transform="scale(0.015625)"/>
       <path id="DejaVuSans-6d" d="M 3328 2828 
Q 3544 3216 3844 3400 
Q 4144 3584 4550 3584 
Q 5097 3584 5394 3201 
Q 5691 2819 5691 2113 
L 5691 0 
L 5113 0 
L 5113 2094 
Q 5113 2597 4934 2840 
Q 4756 3084 4391 3084 
Q 3944 3084 3684 2787 
Q 3425 2491 3425 1978 
L 3425 0 
L 2847 0 
L 2847 2094 
Q 2847 2600 2669 2842 
Q 2491 3084 2119 3084 
Q 1678 3084 1418 2786 
Q 1159 2488 1159 1978 
L 1159 0 
L 581 0 
L 581 3500 
L 1159 3500 
L 1159 2956 
Q 1356 3278 1631 3431 
Q 1906 3584 2284 3584 
Q 2666 3584 2933 3390 
Q 3200 3197 3328 2828 
z
" transform="scale(0.015625)"/>
       <path id="DejaVuSans-6c" d="M 603 4863 
L 1178 4863 
L 1178 0 
L 603 0 
L 603 4863 
z
" transform="scale(0.015625)"/>
       <path id="DejaVuSans-61" d="M 2194 1759 
Q 1497 1759 1228 1600 
Q 959 1441 959 1056 
Q 959 750 1161 570 
Q 1363 391 1709 391 
Q 2188 391 2477 730 
Q 2766 1069 2766 1631 
L 2766 1759 
L 2194 1759 
z
M 3341 1997 
L 3341 0 
L 2766 0 
L 2766 531 
Q 2569 213 2275 61 
Q 1981 -91 1556 -91 
Q 1019 -91 701 211 
Q 384 513 384 1019 
Q 384 1609 779 1909 
Q 1175 2209 1959 2209 
L 2766 2209 
L 2766 2266 
Q 2766 2663 2505 2880 
Q 2244 3097 1772 3097 
Q 1472 3097 1187 3025 
Q 903 2953 641 2809 
L 641 3341 
Q 956 3463 1253 3523 
Q 1550 3584 1831 3584 
Q 2591 3584 2966 3190 
Q 3341 2797 3341 1997 
z
" transform="scale(0.015625)"/>
       <path id="DejaVuSans-69" d="M 603 3500 
L 1178 3500 
L 1178 0 
L 603 0 
L 603 3500 
z
M 603 4863 
L 1178 4863 
L 1178 4134 
L 603 4134 
L 603 4863 
z
" transform="scale(0.015625)"/>
       <path id="DejaVuSans-76" d="M 191 3500 
L 800 3500 
L 1894 563 
L 2988 3500 
L 3597 3500 
L 2284 0 
L 1503 0 
L 191 3500 
z
" transform="scale(0.015625)"/>
       <path id="DejaVuSans-20" transform="scale(0.015625)"/>
       <path id="DejaVuSans-52" d="M 2841 2188 
Q 3044 2119 3236 1894 
Q 3428 1669 3622 1275 
L 4263 0 
L 3584 0 
L 2988 1197 
Q 2756 1666 2539 1819 
Q 2322 1972 1947 1972 
L 1259 1972 
L 1259 0 
L 628 0 
L 628 4666 
L 2053 4666 
Q 2853 4666 3247 4331 
Q 3641 3997 3641 3322 
Q 3641 2881 3436 2590 
Q 3231 2300 2841 2188 
z
M 1259 4147 
L 1259 2491 
L 2053 2491 
Q 2509 2491 2742 2702 
Q 2975 2913 2975 3322 
Q 2975 3731 2742 3939 
Q 2509 4147 2053 4147 
L 1259 4147 
z
" transform="scale(0.015625)"/>
       <path id="DejaVuSans-77" d="M 269 3500 
L 844 3500 
L 1563 769 
L 2278 3500 
L 2956 3500 
L 3675 769 
L 4391 3500 
L 4966 3500 
L 4050 0 
L 3372 0 
L 2619 2869 
L 1863 0 
L 1184 0 
L 269 3500 
z
" transform="scale(0.015625)"/>
       <path id="DejaVuSans-72" d="M 2631 2963 
Q 2534 3019 2420 3045 
Q 2306 3072 2169 3072 
Q 1681 3072 1420 2755 
Q 1159 2438 1159 1844 
L 1159 0 
L 581 0 
L 581 3500 
L 1159 3500 
L 1159 2956 
Q 1341 3275 1631 3429 
Q 1922 3584 2338 3584 
Q 2397 3584 2469 3576 
Q 2541 3569 2628 3553 
L 2631 2963 
z
" transform="scale(0.015625)"/>
       <path id="DejaVuSans-64" d="M 2906 2969 
L 2906 4863 
L 3481 4863 
L 3481 0 
L 2906 0 
L 2906 525 
Q 2725 213 2448 61 
Q 2172 -91 1784 -91 
Q 1150 -91 751 415 
Q 353 922 353 1747 
Q 353 2572 751 3078 
Q 1150 3584 1784 3584 
Q 2172 3584 2448 3432 
Q 2725 3281 2906 2969 
z
M 947 1747 
Q 947 1113 1208 752 
Q 1469 391 1925 391 
Q 2381 391 2643 752 
Q 2906 1113 2906 1747 
Q 2906 2381 2643 2742 
Q 2381 3103 1925 3103 
Q 1469 3103 1208 2742 
Q 947 2381 947 1747 
z
" transform="scale(0.015625)"/>
      </defs>
      <use xlink:href="#DejaVuSans-43"/>
      <use xlink:href="#DejaVuSans-75" transform="translate(69.824219 0)"/>
      <use xlink:href="#DejaVuSans-6d" transform="translate(133.203125 0)"/>
      <use xlink:href="#DejaVuSans-75" transform="translate(230.615234 0)"/>
      <use xlink:href="#DejaVuSans-6c" transform="translate(293.994141 0)"/>
      <use xlink:href="#DejaVuSans-61" transform="translate(321.777344 0)"/>
      <use xlink:href="#DejaVuSans-74" transform="translate(383.056641 0)"/>
      <use xlink:href="#DejaVuSans-69" transform="translate(422.265625 0)"/>
      <use xlink:href="#DejaVuSans-76" transform="translate(450.048828 0)"/>
      <use xlink:href="#DejaVuSans-65" transform="translate(509.228516 0)"/>
      <use xlink:href="#DejaVuSans-20" transform="translate(570.751953 0)"/>
      <use xlink:href="#DejaVuSans-52" transform="translate(602.539062 0)"/>
      <use xlink:href="#DejaVuSans-65" transform="translate(667.521484 0)"/>
      <use xlink:href="#DejaVuSans-77" transform="translate(729.044922 0)"/>
      <use xlink:href="#DejaVuSans-61" transform="translate(810.832031 0)"/>
      <use xlink:href="#DejaVuSans-72" transform="translate(872.111328 0)"/>
      <use xlink:href="#DejaVuSans-64" transform="translate(911.474609 0)"/>
     </g>
    </g>
   </g>
   <g id="line2d_14">
    <path d="M 78.781989 245.34 
L 237.178934 245.34 
L 237.381876 244.907175 
L 248.239322 244.907175 
L 248.442265 244.474349 
L 251.283466 244.474349 
L 251.486409 244.041523 
L 254.834967 244.041523 
L 255.03791 243.608698 
L 257.879111 243.608698 
L 258.082054 243.175873 
L 260.821783 243.175873 
L 261.024726 242.743047 
L 263.967398 242.743047 
L 264.170341 242.310221 
L 267.315956 242.310221 
L 267.518899 241.877396 
L 271.0704 241.877396 
L 271.273343 241.44457 
L 274.723373 241.44457 
L 274.926316 241.011745 
L 277.970459 241.011745 
L 278.173402 240.578919 
L 281.217546 240.578919 
L 281.420489 240.146093 
L 284.363161 240.146093 
L 284.566104 239.713268 
L 287.914662 239.713268 
L 288.117605 239.280442 
L 290.857335 239.280442 
L 291.060277 238.847617 
L 294.104421 238.847617 
L 294.307364 238.414791 
L 297.250036 238.414791 
L 297.452979 237.981965 
L 300.497123 237.981965 
L 300.700066 237.54914 
L 303.541267 237.54914 
L 303.74421 237.116314 
L 306.483939 237.116314 
L 306.686882 236.683489 
L 309.832497 236.683489 
L 310.03544 236.250664 
L 312.876641 236.250664 
L 313.079584 235.817839 
L 316.123727 235.817839 
L 316.32667 235.385014 
L 319.7767 235.385014 
L 319.979643 234.952189 
L 323.429672 234.952189 
L 323.632615 234.519364 
L 326.372345 234.519364 
L 326.575288 234.086539 
L 329.416488 234.086539 
L 329.619431 233.653714 
L 332.562104 233.653714 
L 332.765046 233.220889 
L 336.51949 233.220889 
L 336.722433 232.788064 
L 339.96952 232.788064 
L 340.172463 232.355239 
L 343.521021 232.355239 
L 343.723964 231.922413 
L 346.666636 231.922413 
L 346.869579 231.489588 
L 349.812251 231.489588 
L 350.015194 231.056763 
L 353.160809 231.056763 
L 353.363752 230.623938 
L 354.58141 230.623938 
L 354.784353 230.191113 
L 356.306425 230.191113 
L 356.509367 229.758288 
L 359.249097 229.758288 
L 359.45204 229.325463 
L 362.496183 229.325463 
L 362.699126 228.892638 
L 365.641799 228.892638 
L 365.844742 228.459813 
L 368.280056 228.459813 
L 368.482999 228.026988 
L 369.396243 228.026988 
L 369.599185 227.594162 
L 371.933029 227.594162 
L 372.135972 227.161337 
L 372.947744 227.161337 
L 373.150686 226.728512 
L 374.977173 226.728512 
L 375.180116 226.295686 
L 376.093359 226.295686 
L 376.296302 225.862861 
L 378.122788 225.862861 
L 378.325731 225.430036 
L 379.543388 225.430036 
L 379.746331 224.997211 
L 381.268403 224.997211 
L 381.471346 224.564386 
L 382.587532 224.564386 
L 382.790475 224.131561 
L 567.367056 224.131561 
L 567.569999 223.698736 
L 575.180358 223.698736 
L 575.383301 223.265911 
L 577.717144 223.265911 
L 577.920087 222.833084 
L 580.456874 222.833084 
L 580.659817 222.400259 
L 582.99366 222.400259 
L 583.196603 221.967434 
L 586.545161 221.967434 
L 586.748104 221.534609 
L 589.081948 221.534609 
L 589.284891 221.101784 
L 591.517263 221.101784 
L 591.720206 220.668956 
L 594.054049 220.668956 
L 594.256992 220.236131 
L 596.18495 220.236131 
L 596.387893 219.803306 
L 598.823208 219.803306 
L 599.026151 219.370479 
L 601.258523 219.370479 
L 601.461466 218.937654 
L 603.795309 218.937654 
L 603.998252 218.504829 
L 606.63651 218.504829 
L 606.839453 218.072004 
L 608.970353 218.072004 
L 609.173296 217.639179 
L 611.405668 217.639179 
L 611.608611 217.206352 
L 613.536569 217.206352 
L 613.739512 216.773527 
L 615.768941 216.773527 
L 615.971884 216.340702 
L 618.102785 216.340702 
L 618.305727 215.907874 
L 620.233685 215.907874 
L 620.436628 215.475051 
L 622.567529 215.475051 
L 622.770472 215.042224 
L 624.698429 215.042224 
L 624.901372 214.609401 
L 627.438159 214.609401 
L 627.641102 214.176574 
L 629.772002 214.176574 
L 629.974945 213.743751 
L 632.105846 213.743751 
L 632.308789 213.310924 
L 634.845575 213.310924 
L 635.048518 212.878101 
L 637.179419 212.878101 
L 637.382361 212.445274 
L 639.614733 212.445274 
L 639.817676 212.012451 
L 641.745634 212.012451 
L 641.948577 211.579624 
L 644.079478 211.579624 
L 644.282421 211.146801 
L 646.717736 211.146801 
L 646.920678 210.713973 
L 648.950108 210.713973 
L 649.15305 210.28115 
L 651.486894 210.28115 
L 651.689837 209.848323 
L 653.617795 209.848323 
L 653.820738 209.4155 
L 656.560467 209.4155 
L 656.76341 208.982673 
L 659.198725 208.982673 
L 659.401668 208.54985 
L 661.329625 208.54985 
L 661.532568 208.117023 
L 663.866412 208.117023 
L 664.069355 207.6842 
L 666.50467 207.6842 
L 666.707613 207.251373 
L 668.63557 207.251373 
L 668.838513 206.81855 
L 671.172357 206.81855 
L 671.3753 206.385723 
L 673.607672 206.385723 
L 673.810615 205.952896 
L 676.144458 205.952896 
L 676.347401 205.520073 
L 678.275359 205.520073 
L 678.478302 205.08725 
L 681.11656 205.08725 
L 681.319502 204.654422 
L 683.754817 204.654422 
L 683.95776 204.221595 
L 686.088661 204.221595 
L 686.291604 203.788772 
L 687.509261 203.788772 
L 687.509261 203.788772 
" clip-path="url(#pd0a9b131ac)" style="fill: none; stroke: #1f77b4; stroke-width: 1.5; stroke-linecap: square"/>
   </g>
   <g id="line2d_15">
    <path d="M 78.781989 245.34 
L 330.532674 245.34 
L 330.735617 244.907175 
L 357.422611 244.907175 
L 357.625553 244.474349 
L 375.687473 244.474349 
L 375.890416 244.041523 
L 537.128562 244.041523 
L 537.331504 243.608698 
L 629.061702 243.608698 
L 629.264645 243.175873 
L 656.256052 243.175873 
L 656.458995 242.743047 
L 663.257583 242.743047 
L 663.460526 242.310221 
L 677.159173 242.310221 
L 677.362116 241.877396 
L 684.668061 241.877396 
L 684.871003 241.44457 
L 687.509261 241.44457 
L 687.509261 241.44457 
" clip-path="url(#pd0a9b131ac)" style="fill: none; stroke: #ff7f0e; stroke-width: 1.5; stroke-linecap: square"/>
   </g>
   <g id="line2d_16">
    <path d="M 78.781989 245.34 
L 97.554208 245.34 
L 97.757151 244.907175 
L 99.482166 244.907175 
L 99.685109 244.474349 
L 110.745498 244.474349 
L 110.948441 244.041523 
L 129.111831 244.041523 
L 129.314774 243.608698 
L 135.808948 243.608698 
L 136.011891 243.175873 
L 147.681108 243.175873 
L 147.884051 242.743047 
L 153.36351 242.743047 
L 153.566453 242.310221 
L 179.746089 242.310221 
L 179.949032 241.877396 
L 180.151975 241.877396 
L 180.354917 241.44457 
L 186.341733 241.44457 
L 186.544676 241.011745 
L 189.182934 241.011745 
L 189.385877 240.578919 
L 192.835907 240.578919 
L 193.03885 240.146093 
L 206.940439 240.146093 
L 207.143382 239.713268 
L 208.36104 239.713268 
L 208.665454 238.847617 
L 220.537615 238.847617 
L 220.842029 237.981965 
L 243.16575 237.981965 
L 243.368692 237.54914 
L 244.180464 237.54914 
L 244.383407 237.116314 
L 258.589411 237.116314 
L 258.792354 236.683489 
L 270.765986 236.683489 
L 270.968929 236.250664 
L 275.636616 236.250664 
L 275.839559 235.817839 
L 283.957275 235.817839 
L 284.160218 235.385014 
L 284.363161 235.385014 
L 284.566104 234.952189 
L 285.174933 234.952189 
L 285.377876 234.519364 
L 290.958806 234.519364 
L 291.161749 234.086539 
L 291.770578 234.086539 
L 291.973521 233.220888 
L 299.58388 233.220888 
L 299.786823 232.788063 
L 300.903009 232.788063 
L 301.105952 232.355237 
L 307.194239 232.355237 
L 307.397182 231.922412 
L 309.832497 231.922412 
L 310.03544 231.489587 
L 317.138442 231.489587 
L 317.442856 230.623937 
L 317.645799 230.623937 
L 317.848742 230.191112 
L 318.863457 230.191112 
L 319.0664 229.758287 
L 321.298772 229.758287 
L 321.501715 228.892636 
L 328.80766 228.892636 
L 329.010602 228.459811 
L 334.38859 228.459811 
L 334.591533 228.026986 
L 340.882763 228.026986 
L 341.085706 227.59416 
L 345.854864 227.59416 
L 346.057807 227.161335 
L 347.681351 227.161335 
L 347.884294 226.728509 
L 350.015194 226.728509 
L 350.218137 226.295684 
L 354.276995 226.295684 
L 354.479938 225.862859 
L 357.929968 225.862859 
L 358.132911 225.430034 
L 371.222729 225.430034 
L 371.425672 224.997209 
L 375.788944 224.997209 
L 375.991887 224.564384 
L 376.296302 224.564384 
L 376.499245 224.131559 
L 380.659574 224.131559 
L 380.862517 223.698734 
L 394.25675 223.698734 
L 394.459692 223.265909 
L 413.942212 223.265909 
L 414.145155 222.833084 
L 418.001071 222.833084 
L 418.204014 222.400257 
L 418.812842 222.400257 
L 419.015785 221.967432 
L 423.277586 221.967432 
L 423.480529 221.534607 
L 426.930559 221.534607 
L 427.133502 221.101781 
L 427.742331 221.101781 
L 427.945273 220.668956 
L 429.568817 220.668956 
L 429.77176 220.236129 
L 432.207075 220.236129 
L 432.410018 219.803304 
L 434.540918 219.803304 
L 434.743861 219.370479 
L 441.542449 219.370479 
L 441.745392 218.937652 
L 445.601307 218.937652 
L 445.80425 218.504827 
L 447.021907 218.504827 
L 447.326322 217.639177 
L 449.355751 217.639177 
L 449.558694 217.206352 
L 449.761637 217.206352 
L 449.96458 216.773525 
L 454.632267 216.773525 
L 454.83521 216.340699 
L 456.96611 216.340699 
L 457.169053 215.907874 
L 457.371996 215.907874 
L 457.67641 215.042224 
L 459.401425 215.042224 
L 459.604368 214.609397 
L 461.532326 214.609397 
L 461.735269 214.176574 
L 462.952926 214.176574 
L 463.155869 213.743747 
L 465.28677 213.743747 
L 465.489713 213.310924 
L 466.910313 213.310924 
L 467.113256 212.878097 
L 467.316199 212.878097 
L 467.620613 212.012447 
L 470.1574 212.012447 
L 470.461814 211.146796 
L 471.273586 211.146796 
L 471.476529 210.713973 
L 473.303015 210.713973 
L 473.505958 210.281146 
L 473.911844 210.281146 
L 474.114787 209.848323 
L 474.216258 209.848323 
L 474.419201 209.415496 
L 474.825087 209.415496 
L 475.02803 208.982673 
L 478.478059 208.982673 
L 478.681002 208.117023 
L 479.188359 208.117023 
L 479.391302 207.684196 
L 480.101603 207.684196 
L 480.304545 207.251369 
L 480.913374 207.251369 
L 481.116317 206.818546 
L 481.725146 206.818546 
L 481.928089 206.385723 
L 483.754575 206.385723 
L 483.957518 205.952896 
L 487.001662 205.952896 
L 487.204605 205.520068 
L 487.306076 205.520068 
L 487.509019 205.087245 
L 489.538448 205.087245 
L 489.842862 204.221595 
L 492.684063 204.221595 
L 492.887006 203.788768 
L 494.713492 203.788768 
L 494.916435 203.355945 
L 495.322321 203.355945 
L 495.525264 202.923122 
L 496.438507 202.923122 
L 496.945864 201.191822 
L 498.163522 201.191822 
L 498.366465 200.758995 
L 499.482651 200.758995 
L 499.685594 200.326168 
L 500.294423 200.326168 
L 500.598837 199.460522 
L 501.816494 199.460522 
L 502.019437 199.027694 
L 502.831209 199.027694 
L 503.034152 198.594867 
L 504.556224 198.594867 
L 504.759167 198.162044 
L 506.38271 198.162044 
L 506.788596 196.863567 
L 507.904782 196.863567 
L 508.107725 196.430744 
L 508.615082 196.430744 
L 508.818025 195.997921 
L 509.83274 195.997921 
L 510.035682 195.565094 
L 511.557754 195.565094 
L 511.760697 195.132267 
L 512.268054 195.132267 
L 512.470997 194.699444 
L 515.210727 194.699444 
L 515.41367 193.833794 
L 515.616613 193.833794 
L 515.819556 193.400966 
L 516.326913 193.400966 
L 516.631327 192.53532 
L 517.037213 192.53532 
L 517.240156 192.102493 
L 518.965171 192.102493 
L 519.168114 191.669666 
L 519.573999 191.669666 
L 519.776942 190.80402 
L 522.110786 190.80402 
L 522.4152 189.938366 
L 522.516672 189.938366 
L 522.719615 189.505543 
L 523.429915 189.505543 
L 523.734329 188.639893 
L 524.749044 188.639893 
L 524.951987 188.207066 
L 526.169644 188.207066 
L 526.372587 187.774238 
L 527.082887 187.774238 
L 527.28583 187.341411 
L 527.488773 187.341411 
L 527.691716 186.908584 
L 528.503488 186.908584 
L 528.706431 186.475757 
L 528.909374 186.475757 
L 529.112316 186.04293 
L 529.416731 186.04293 
L 529.619674 185.610103 
L 530.431445 185.610103 
L 530.634388 185.177276 
L 530.837331 185.177276 
L 531.040274 184.744448 
L 531.44616 184.744448 
L 531.649103 184.311621 
L 532.257932 184.311621 
L 532.460875 183.445971 
L 532.86676 183.445971 
L 533.069703 183.013144 
L 534.084418 183.013144 
L 534.287361 182.580317 
L 534.896189 182.580317 
L 535.099132 182.14749 
L 535.200604 182.14749 
L 535.403547 180.849012 
L 535.505018 180.849012 
L 535.809433 179.983358 
L 537.838862 179.983358 
L 538.143276 179.117704 
L 538.650633 179.117704 
L 538.853576 178.252054 
L 539.056519 177.819227 
L 539.157991 177.819227 
L 539.360934 177.386399 
L 541.491834 177.386399 
L 541.694777 176.953572 
L 541.89772 176.953572 
L 542.100663 176.520745 
L 542.303606 176.520745 
L 542.506549 176.087922 
L 545.34775 176.087922 
L 545.550693 175.655087 
L 545.855107 175.655087 
L 546.05805 175.222268 
L 546.260993 175.222268 
L 546.463936 174.789433 
L 546.666879 174.789433 
L 546.869821 174.356614 
L 547.986007 174.356614 
L 548.18895 173.490959 
L 548.797779 173.490959 
L 549.000722 173.058132 
L 549.508079 173.058132 
L 549.711022 172.192486 
L 550.015437 172.192486 
L 550.21838 171.759651 
L 551.030151 171.759651 
L 551.233094 171.326832 
L 551.436037 171.326832 
L 551.63898 170.893997 
L 552.247809 170.893997 
L 552.450752 170.461178 
L 553.05958 170.461178 
L 553.262523 170.028342 
L 553.769881 170.028342 
L 553.972823 169.595523 
L 554.987538 169.595523 
L 555.190481 169.162688 
L 555.291952 169.162688 
L 555.596367 168.297034 
L 555.697838 168.297034 
L 556.002253 167.431379 
L 556.611081 167.431379 
L 556.915496 166.565725 
L 557.93021 166.565725 
L 558.234625 165.700071 
L 559.046396 165.700071 
L 559.350811 164.834417 
L 561.786126 164.834417 
L 561.989069 164.401598 
L 562.09054 164.401598 
L 562.293483 163.968762 
L 562.699369 163.968762 
L 563.105255 162.670289 
L 563.612612 162.670289 
L 563.917026 161.804635 
L 564.627326 161.804635 
L 564.830269 161.3718 
L 564.931741 161.3718 
L 565.134684 160.938981 
L 565.743513 160.938981 
L 565.946455 160.506145 
L 567.164113 160.506145 
L 567.367056 159.640499 
L 567.569999 159.640499 
L 567.772942 159.207672 
L 568.584713 159.207672 
L 568.787656 158.774845 
L 569.092071 158.774845 
L 569.295014 158.342018 
L 569.903842 158.342018 
L 570.106785 157.909191 
L 571.222971 157.909191 
L 571.730329 156.17789 
L 574.470058 156.17789 
L 574.875944 154.879401 
L 576.905373 154.879401 
L 577.108316 154.446582 
L 577.717144 154.446582 
L 578.021559 153.580928 
L 578.224502 153.580928 
L 578.427445 153.1481 
L 578.630388 153.1481 
L 578.934802 152.282446 
L 579.036273 152.282446 
L 579.239216 151.849619 
L 579.442159 151.849619 
L 579.645102 151.416792 
L 580.964231 151.416792 
L 581.167174 150.983965 
L 581.674531 150.983965 
L 581.978946 150.11831 
L 582.080417 150.11831 
L 582.28336 149.685483 
L 582.892189 149.685483 
L 583.095132 149.252656 
L 583.70396 149.252656 
L 584.008375 148.387002 
L 584.109846 148.387002 
L 584.312789 147.954175 
L 584.718675 147.954175 
L 585.023089 147.088521 
L 585.936333 147.088521 
L 586.139275 146.655693 
L 587.15399 146.655693 
L 587.356933 146.222866 
L 587.458404 146.222866 
L 587.762819 145.357212 
L 588.067233 145.357212 
L 588.270176 144.924385 
L 588.473119 144.924385 
L 588.676062 144.491558 
L 588.879005 144.491558 
L 589.081948 144.058731 
L 589.284891 144.058731 
L 589.487834 143.625903 
L 590.60402 143.625903 
L 590.908434 142.760249 
L 591.415791 142.760249 
L 591.618734 142.327422 
L 592.73492 142.327422 
L 592.937863 141.894595 
L 593.039335 141.894595 
L 593.242277 141.028941 
L 593.343749 141.028941 
L 593.546692 140.596113 
L 593.648163 140.596113 
L 593.851106 140.163286 
L 595.47465 140.163286 
L 595.677592 139.730459 
L 595.880535 139.730459 
L 596.083478 139.297632 
L 597.707022 139.297632 
L 598.112907 137.999151 
L 600.040865 137.999151 
L 600.243808 137.133496 
L 600.446751 136.700669 
L 600.649694 136.700669 
L 600.852637 136.267842 
L 600.954108 136.267842 
L 601.157051 135.835015 
L 601.867351 135.835015 
L 602.273237 134.536534 
L 603.085009 134.536534 
L 603.287952 134.103706 
L 603.490895 134.103706 
L 603.693838 133.238052 
L 604.404138 133.238052 
L 604.607081 132.805225 
L 604.911495 132.805225 
L 605.114438 132.372398 
L 605.418852 132.372398 
L 605.621795 131.939571 
L 606.535038 131.939571 
L 606.737981 131.506744 
L 607.854167 131.506744 
L 608.05711 131.073916 
L 608.564468 131.073916 
L 608.76741 130.641089 
L 608.970353 130.641089 
L 609.274768 129.775435 
L 609.376239 129.775435 
L 609.579182 129.342608 
L 610.695368 129.342608 
L 610.999783 128.476954 
L 612.014497 128.476954 
L 612.318911 127.611299 
L 612.623326 127.611299 
L 612.826269 127.178472 
L 614.348341 127.178472 
L 614.551284 126.312818 
L 615.261584 126.312818 
L 615.565998 125.447164 
L 616.37777 125.447164 
L 616.580713 124.581509 
L 616.885127 124.581509 
L 617.08807 124.148682 
L 618.001313 124.148682 
L 618.305727 123.283028 
L 619.117499 123.283028 
L 619.320442 121.984555 
L 619.523385 121.984555 
L 619.929271 120.686073 
L 620.436628 120.686073 
L 620.639571 120.253246 
L 621.349871 120.253246 
L 621.552814 119.820419 
L 623.074886 119.820419 
L 623.277829 119.387592 
L 623.785186 119.387592 
L 623.988129 118.954765 
L 624.394015 118.954765 
L 624.799901 117.656283 
L 625.814615 117.656283 
L 626.220501 116.357802 
L 626.930801 116.357802 
L 627.133744 115.924975 
L 628.351402 115.924975 
L 628.757288 114.626493 
L 629.163173 114.626493 
L 629.366116 113.760839 
L 629.569059 113.760839 
L 629.772002 113.328012 
L 631.801431 113.328012 
L 632.004374 112.895185 
L 632.816146 112.895185 
L 633.12056 112.029531 
L 633.627918 112.029531 
L 633.83086 111.596704 
L 634.338218 111.596704 
L 634.642632 110.731049 
L 635.657347 110.731049 
L 635.86029 110.298222 
L 636.266175 110.298222 
L 636.469118 109.865395 
L 636.672061 109.865395 
L 636.976476 108.999741 
L 637.788247 108.999741 
L 638.092662 108.134086 
L 639.513262 108.134086 
L 639.716205 107.701259 
L 639.817676 107.701259 
L 640.020619 107.268432 
L 640.223562 107.268432 
L 640.426505 106.835613 
L 640.933862 106.835613 
L 641.136805 106.402778 
L 641.238277 106.402778 
L 641.542691 105.537124 
L 641.745634 105.537124 
L 641.948577 105.104305 
L 643.267706 105.104305 
L 643.470649 104.671469 
L 643.673592 104.671469 
L 643.876535 104.238634 
L 644.586835 104.238634 
L 644.891249 103.372996 
L 644.992721 103.372996 
L 645.297135 102.507325 
L 646.616264 102.507325 
L 646.819207 102.074506 
L 646.920678 102.074506 
L 647.123621 101.208852 
L 647.833922 101.208852 
L 648.036864 100.343198 
L 648.950108 100.343198 
L 649.15305 99.910379 
L 649.355993 99.910379 
L 649.558936 99.044708 
L 649.863351 99.044708 
L 650.066294 98.611889 
L 650.269237 98.611889 
L 650.472179 98.179071 
L 651.89278 98.179071 
L 652.298666 96.880581 
L 652.400137 96.880581 
L 652.60308 96.014927 
L 652.907494 96.014927 
L 653.110437 95.582091 
L 654.733981 95.582091 
L 654.936924 95.149272 
L 655.241338 95.149272 
L 655.545752 94.283618 
L 656.154581 94.283618 
L 656.357524 93.850783 
L 656.458995 93.850783 
L 656.661938 93.417964 
L 657.778124 93.417964 
L 657.981067 92.552309 
L 659.807554 92.552309 
L 660.010496 92.119474 
L 660.314911 92.119474 
L 660.517854 91.686655 
L 660.822268 91.686655 
L 661.228154 90.388166 
L 661.63404 90.388166 
L 661.836983 89.955347 
L 662.141397 89.955347 
L 662.34434 89.522528 
L 662.851697 89.522528 
L 663.05464 89.089692 
L 664.373769 89.089692 
L 664.576712 88.656857 
L 664.678183 88.656857 
L 664.982598 87.791219 
L 665.591427 87.791219 
L 665.794369 87.358384 
L 666.910556 87.358384 
L 667.113498 86.925548 
L 668.63557 86.925548 
L 668.838513 86.49273 
L 669.548813 86.49273 
L 669.853228 85.627075 
L 670.056171 85.627075 
L 670.360585 84.761421 
L 670.867942 84.761421 
L 671.070885 84.328602 
L 671.476771 84.328602 
L 671.679714 83.895783 
L 671.781185 83.895783 
L 671.984128 83.462964 
L 672.592957 83.462964 
L 672.7959 83.030145 
L 673.100314 83.030145 
L 673.303257 82.597327 
L 673.709143 82.597327 
L 673.912086 82.164508 
L 674.723858 82.164508 
L 675.028272 81.29887 
L 675.129744 81.29887 
L 675.332686 80.866051 
L 675.840044 80.866051 
L 676.042987 80.433232 
L 676.347401 80.433232 
L 676.651815 79.567594 
L 676.854758 79.567594 
L 677.057701 79.134776 
L 677.159173 79.134776 
L 677.362116 78.701957 
L 677.66653 78.701957 
L 677.869473 77.836319 
L 678.072416 77.4035 
L 678.985659 77.4035 
L 679.188602 76.970681 
L 680.203316 76.970681 
L 680.609202 75.672224 
L 682.435688 75.672224 
L 682.638631 75.239406 
L 683.653346 75.239406 
L 683.856289 74.806587 
L 684.160703 74.806587 
L 684.363646 74.373768 
L 684.566589 74.373768 
L 684.769532 73.940949 
L 684.871003 73.940949 
L 685.175418 73.075311 
L 685.378361 73.075311 
L 685.581304 72.20964 
L 685.784247 72.20964 
L 685.98719 71.776822 
L 686.494547 71.776822 
L 686.69749 71.344003 
L 687.40779 71.344003 
L 687.509261 70.911184 
L 687.509261 70.911184 
" clip-path="url(#pd0a9b131ac)" style="fill: none; stroke: #2ca02c; stroke-width: 1.5; stroke-linecap: square"/>
   </g>
   <g id="line2d_17">
    <path d="M 78.781989 245.34 
L 230.278874 245.34 
L 230.481817 244.907175 
L 289.944091 244.907175 
L 290.147034 244.474349 
L 302.932438 244.474349 
L 303.135381 244.041523 
L 311.861926 244.041523 
L 312.064869 243.608698 
L 313.282527 243.608698 
L 313.48547 243.175873 
L 319.0664 243.175873 
L 319.269343 242.743047 
L 354.276995 242.743047 
L 354.479938 242.310221 
L 361.785883 242.310221 
L 361.988826 241.877396 
L 368.584471 241.877396 
L 368.787414 241.44457 
L 387.153748 241.44457 
L 387.35669 241.011745 
L 389.893477 241.011745 
L 390.09642 240.578919 
L 390.502306 240.578919 
L 390.705249 240.146094 
L 396.590593 240.146094 
L 396.793536 239.713268 
L 412.521612 239.713268 
L 412.724555 239.280443 
L 414.44957 239.280443 
L 414.652513 238.847617 
L 419.726085 238.847617 
L 419.929028 238.414792 
L 420.0305 238.414792 
L 420.233443 237.981966 
L 423.784944 237.981966 
L 423.987887 237.54914 
L 424.698187 237.54914 
L 424.90113 237.116315 
L 431.90266 237.116315 
L 432.105603 236.683489 
L 433.323261 236.683489 
L 433.526204 236.250663 
L 437.990948 236.250663 
L 438.193891 235.817838 
L 440.527734 235.817838 
L 440.730677 235.385013 
L 441.542449 235.385013 
L 441.745392 234.952187 
L 443.470406 234.952187 
L 443.673349 234.519361 
L 450.370466 234.519361 
L 450.573408 234.086536 
L 453.110195 234.086536 
L 453.313138 233.653711 
L 460.010254 233.653711 
L 460.213197 233.220885 
L 461.430854 233.220885 
L 461.633797 232.788059 
L 461.938212 232.788059 
L 462.141155 232.355234 
L 462.54704 232.355234 
L 462.749983 231.922409 
L 463.460284 231.922409 
L 463.663226 231.489584 
L 463.967641 231.489584 
L 464.170584 231.056759 
L 471.476529 231.056759 
L 471.679472 230.623934 
L 471.882414 230.623934 
L 472.085357 230.191109 
L 472.491243 230.191109 
L 472.694186 229.758284 
L 473.100072 229.758284 
L 473.404486 228.892634 
L 474.419201 228.892634 
L 474.622144 228.459809 
L 475.636858 228.459809 
L 475.839801 228.026984 
L 478.883945 228.026984 
L 479.086888 227.594158 
L 481.014846 227.594158 
L 481.217789 227.161335 
L 483.450161 227.161335 
L 483.653104 226.728507 
L 486.291361 226.728507 
L 486.494304 226.295684 
L 487.001662 226.295684 
L 487.204605 225.862857 
L 487.813433 225.862857 
L 488.016376 225.430034 
L 489.741391 225.430034 
L 489.944334 224.997207 
L 490.045805 224.997207 
L 490.248748 224.564384 
L 490.959048 224.564384 
L 491.161991 224.131557 
L 492.887006 224.131557 
L 493.089949 223.698732 
L 494.104664 223.698732 
L 494.307607 223.265907 
L 495.22085 223.265907 
L 495.626735 221.967432 
L 496.235564 221.967432 
L 496.438507 221.534607 
L 498.06205 221.534607 
L 498.264993 221.101781 
L 499.076765 221.101781 
L 499.381179 220.236131 
L 500.395894 220.236131 
L 500.598837 219.803306 
L 500.700308 219.803306 
L 500.903251 219.370481 
L 503.135623 219.370481 
L 503.338566 218.937656 
L 503.541509 218.937656 
L 503.744452 218.504831 
L 505.063581 218.504831 
L 505.266524 218.072006 
L 506.078296 218.072006 
L 506.281239 217.639181 
L 507.498896 217.639181 
L 507.701839 217.206356 
L 508.006253 217.206356 
L 508.209196 216.773531 
L 509.731268 216.773531 
L 510.035682 215.907881 
L 510.137154 215.907881 
L 510.441568 215.04223 
L 510.847454 215.04223 
L 511.050397 214.609405 
L 511.354811 214.609405 
L 511.659226 213.743755 
L 513.384241 213.743755 
L 513.587183 213.31093 
L 515.616613 213.31093 
L 515.921027 212.44528 
L 517.646042 212.44528 
L 517.848985 212.012455 
L 517.950456 212.012455 
L 518.153399 211.146805 
L 518.457813 211.146805 
L 518.660756 210.71398 
L 519.979885 210.71398 
L 520.182828 210.281155 
L 521.400486 210.281155 
L 521.603429 209.848332 
L 521.806371 209.848332 
L 522.009314 208.982677 
L 523.632858 208.982677 
L 523.835801 208.549854 
L 523.937272 208.549854 
L 524.140215 208.117031 
L 524.951987 208.117031 
L 525.256401 206.385731 
L 525.560815 205.520077 
L 527.28583 205.520077 
L 527.590245 204.654422 
L 527.691716 204.654422 
L 527.894659 204.221595 
L 528.097602 204.221595 
L 528.300545 203.788768 
L 528.503488 203.788768 
L 528.706431 202.490287 
L 530.73586 202.490287 
L 530.938803 202.05746 
L 531.141746 202.05746 
L 531.44616 201.191805 
L 531.852046 201.191805 
L 532.054989 200.758978 
L 532.765289 200.758978 
L 532.968232 200.326151 
L 533.881475 200.326151 
L 534.084418 199.893324 
L 534.185889 199.893324 
L 534.388832 199.460497 
L 534.896189 199.460497 
L 535.099132 199.02767 
L 535.60649 199.02767 
L 535.809433 198.594843 
L 536.012376 198.594843 
L 536.215318 198.162015 
L 536.621204 198.162015 
L 536.824147 197.729188 
L 537.128562 197.729188 
L 537.432976 196.863534 
L 537.73739 196.863534 
L 537.940333 195.997888 
L 538.549162 195.997888 
L 538.752105 195.565061 
L 539.360934 195.565061 
L 539.563877 195.132234 
L 539.766819 195.132234 
L 539.969762 194.699407 
L 540.071234 194.699407 
L 540.274177 194.266579 
L 540.578591 194.266579 
L 540.883005 193.400925 
L 541.796249 193.400925 
L 541.999192 192.968098 
L 542.405077 192.968098 
L 542.60802 192.535271 
L 542.912435 192.535271 
L 543.216849 191.669617 
L 543.31832 191.669617 
L 543.622735 190.803962 
L 544.434506 190.803962 
L 544.637449 190.371135 
L 545.043335 190.371135 
L 545.246278 189.938308 
L 545.550693 189.938308 
L 545.855107 189.072654 
L 545.956578 189.072654 
L 546.159521 188.639827 
L 546.463936 188.639827 
L 546.666879 188.206999 
L 547.174236 188.206999 
L 547.47865 187.341345 
L 547.580122 187.341345 
L 547.783065 186.908518 
L 548.087479 186.908518 
L 548.290422 185.17721 
L 548.899251 185.17721 
L 549.102194 184.744382 
L 550.116908 184.744382 
L 550.319851 183.878736 
L 550.624265 183.878736 
L 550.827208 183.445909 
L 551.233094 183.445909 
L 551.436037 183.013082 
L 551.63898 183.013082 
L 551.841923 182.580255 
L 552.044866 182.580255 
L 552.247809 182.147428 
L 552.450752 182.147428 
L 552.856637 180.848946 
L 553.262523 180.848946 
L 553.465466 180.416119 
L 553.871352 180.416119 
L 554.074295 179.983292 
L 554.175766 179.983292 
L 554.378709 179.550465 
L 555.08901 179.550465 
L 555.291952 178.684811 
L 555.697838 177.386338 
L 556.50961 177.386338 
L 556.712553 176.95351 
L 556.814024 176.95351 
L 557.016967 176.520683 
L 557.118439 176.520683 
L 557.321382 176.087856 
L 557.727267 176.087856 
L 557.93021 175.655029 
L 558.336096 175.655029 
L 558.539039 175.222202 
L 558.741982 175.222202 
L 558.944925 174.789375 
L 559.858168 174.789375 
L 560.264054 173.490893 
L 560.66994 173.490893 
L 560.872883 173.058066 
L 561.075825 173.058066 
L 561.278768 172.625239 
L 561.38024 172.625239 
L 561.583183 172.192412 
L 561.989069 172.192412 
L 562.394954 170.893931 
L 562.80084 170.893931 
L 563.105255 170.028276 
L 563.206726 170.028276 
L 563.409669 169.595449 
L 563.815555 169.595449 
L 564.018498 169.162622 
L 564.119969 169.162622 
L 564.322912 168.729795 
L 564.424384 168.729795 
L 564.728798 167.864141 
L 565.54057 167.864141 
L 565.743513 167.431313 
L 566.149398 167.431313 
L 566.352341 166.998486 
L 566.555284 166.998486 
L 566.758227 166.565659 
L 567.164113 166.565659 
L 567.367056 164.834359 
L 567.569999 164.401532 
L 567.67147 164.401532 
L 567.874413 163.968705 
L 568.38177 163.968705 
L 568.584713 163.535877 
L 569.396485 163.535877 
L 569.700899 162.670223 
L 569.802371 162.670223 
L 570.005314 162.237396 
L 570.208257 162.237396 
L 570.4112 161.371742 
L 570.817085 161.371742 
L 571.020028 160.938915 
L 571.222971 160.938915 
L 571.628857 159.640433 
L 572.339157 159.640433 
L 572.5421 159.207606 
L 572.846515 159.207606 
L 573.049457 158.774779 
L 573.150929 158.774779 
L 573.353872 158.341952 
L 573.556815 158.341952 
L 573.759758 157.909125 
L 573.861229 157.909125 
L 574.064172 157.476298 
L 574.165643 157.476298 
L 574.470058 156.610643 
L 575.078887 156.610643 
L 575.28183 156.177816 
L 575.586244 156.177816 
L 575.99213 154.879335 
L 576.600958 154.879335 
L 577.006844 153.580853 
L 577.209787 153.580853 
L 577.41273 153.148026 
L 577.818616 153.148026 
L 578.325973 151.416718 
L 579.442159 151.416718 
L 579.848045 150.118236 
L 580.050988 150.118236 
L 580.355402 149.252582 
L 580.456874 149.252582 
L 580.659817 148.819755 
L 582.181889 148.819755 
L 582.892189 146.222792 
L 583.095132 146.222792 
L 583.298075 145.789965 
L 583.602489 145.789965 
L 583.805432 145.357138 
L 584.211318 145.357138 
L 584.515732 144.491483 
L 585.124561 144.491483 
L 585.428975 142.760175 
L 585.73339 142.760175 
L 585.936333 141.461693 
L 587.255461 141.461693 
L 587.762819 139.730385 
L 587.86429 139.730385 
L 588.067233 139.297558 
L 588.371648 139.297558 
L 588.676062 138.431903 
L 588.777533 138.431903 
L 588.980476 137.999076 
L 589.487834 137.999076 
L 589.690776 137.566249 
L 589.792248 137.566249 
L 589.995191 137.133422 
L 590.096662 137.133422 
L 590.401077 136.267768 
L 591.31432 136.267768 
L 591.517263 135.834941 
L 592.227563 135.834941 
L 592.430506 135.402114 
L 592.531977 135.402114 
L 592.633449 134.969286 
L 592.836392 133.237986 
L 593.343749 133.237986 
L 593.546692 132.805159 
L 593.749635 132.805159 
L 594.054049 131.939505 
L 595.068764 131.939505 
L 595.271707 131.506678 
L 595.47465 131.506678 
L 595.982007 129.775369 
L 596.18495 129.775369 
L 596.387893 129.342542 
L 596.692307 129.342542 
L 596.89525 128.909715 
L 597.199664 128.909715 
L 597.402607 128.476888 
L 597.707022 128.476888 
L 598.011436 127.611233 
L 598.112907 127.611233 
L 598.31585 127.178406 
L 598.721736 127.178406 
L 598.924679 126.745579 
L 599.432036 126.745579 
L 599.634979 126.312752 
L 599.736451 126.312752 
L 599.939394 125.879925 
L 600.040865 125.879925 
L 600.345279 125.01427 
L 600.446751 125.01427 
L 600.649694 123.715789 
L 600.751165 123.715789 
L 600.954108 123.282962 
L 601.05558 123.282962 
L 601.258523 122.850135 
L 602.679123 122.850135 
L 602.882066 122.417308 
L 603.085009 122.417308 
L 603.89678 119.387518 
L 605.621795 119.387518 
L 605.824738 118.954691 
L 605.92621 118.954691 
L 606.230624 118.089036 
L 606.332095 118.089036 
L 606.940924 115.924901 
L 607.549753 115.924901 
L 607.752696 115.492073 
L 608.665939 115.492073 
L 609.173296 113.760765 
L 609.274768 113.760765 
L 609.477711 113.327938 
L 609.579182 113.327938 
L 609.782125 112.895111 
L 610.898311 112.895111 
L 611.101254 112.462283 
L 611.202725 112.462283 
L 611.608611 111.163802 
L 612.21744 111.163802 
L 612.724797 109.432494 
L 612.826269 109.432494 
L 613.029212 108.999666 
L 613.435097 108.999666 
L 613.63804 108.566839 
L 614.145398 108.566839 
L 614.348341 108.134012 
L 614.551284 108.134012 
L 614.957169 106.835531 
L 615.261584 106.835531 
L 615.565998 105.969876 
L 615.971884 105.969876 
L 616.276298 105.104222 
L 616.885127 105.104222 
L 617.08807 104.671387 
L 617.291013 104.671387 
L 617.493956 102.940078 
L 617.595427 102.940078 
L 617.79837 102.507259 
L 617.899842 102.507259 
L 618.102785 102.07444 
L 618.50867 102.07444 
L 618.711613 101.641622 
L 620.335157 101.641622 
L 620.5381 101.208803 
L 620.842514 101.208803 
L 621.045457 100.775984 
L 621.146928 100.775984 
L 621.857228 98.179054 
L 621.9587 98.179054 
L 622.263114 97.313416 
L 622.567529 97.313416 
L 622.770472 96.880597 
L 623.683715 96.880597 
L 623.886658 96.447778 
L 624.495486 96.447778 
L 624.901372 95.149305 
L 625.408729 95.149305 
L 625.611672 94.283651 
L 626.11903 94.283651 
L 626.626387 92.552376 
L 627.235216 92.552376 
L 627.641102 91.253902 
L 627.844044 91.253902 
L 628.046987 90.821083 
L 628.452873 90.821083 
L 628.655816 90.388265 
L 628.858759 90.388265 
L 629.163173 89.522627 
L 629.772002 89.522627 
L 629.974945 89.089808 
L 630.786717 89.089808 
L 630.98966 88.656989 
L 631.395545 88.656989 
L 632.004374 86.492878 
L 632.105846 86.492878 
L 632.613203 84.761586 
L 634.135275 84.761586 
L 634.845575 82.164673 
L 635.149989 82.164673 
L 635.352932 81.299019 
L 635.758818 81.299019 
L 636.063232 80.433381 
L 636.976476 80.433381 
L 637.179419 79.567727 
L 637.28089 79.567727 
L 637.686776 78.26927 
L 638.092662 78.26927 
L 638.295605 77.836451 
L 638.397076 77.836451 
L 638.70149 76.970813 
L 639.005905 76.970813 
L 639.208848 76.105159 
L 639.716205 76.105159 
L 639.919148 75.67234 
L 640.73092 75.67234 
L 640.933862 75.239521 
L 641.238277 75.239521 
L 641.542691 74.373883 
L 641.847106 74.373883 
L 642.252991 73.075427 
L 642.455934 73.075427 
L 642.658877 72.642608 
L 643.876535 72.642608 
L 644.180949 71.77697 
L 644.282421 71.77697 
L 644.485363 70.911316 
L 644.586835 70.911316 
L 644.789778 70.478497 
L 644.992721 70.478497 
L 645.195664 70.045678 
L 645.703021 70.045678 
L 645.905964 69.612859 
L 646.210378 69.612859 
L 646.717736 67.881567 
L 647.02215 67.881567 
L 647.225093 67.448748 
L 647.428036 67.448748 
L 647.630979 67.015929 
L 647.833922 67.015929 
L 648.036864 66.583111 
L 648.44275 66.583111 
L 648.645693 65.717456 
L 648.848636 65.717456 
L 649.15305 64.851818 
L 649.457465 64.851818 
L 649.964822 63.120543 
L 650.370708 63.120543 
L 650.573651 62.687724 
L 651.283951 62.687724 
L 651.486894 62.254905 
L 651.791308 62.254905 
L 651.994251 61.389251 
L 652.501609 61.389251 
L 652.704551 60.956432 
L 653.719266 60.956432 
L 653.922209 60.090778 
L 654.02368 60.090778 
L 654.226623 58.792305 
L 654.632509 58.792305 
L 654.936924 57.926667 
L 655.038395 57.926667 
L 655.342809 57.061029 
L 655.444281 57.061029 
L 655.647224 56.62821 
L 656.458995 56.62821 
L 656.661938 56.195391 
L 657.575181 56.195391 
L 657.778124 55.762572 
L 658.082539 55.762572 
L 658.386953 54.031264 
L 658.589896 54.031264 
L 658.792839 53.598445 
L 659.097253 53.598445 
L 659.503139 52.299988 
L 660.720797 52.299988 
L 661.126682 51.001532 
L 661.329625 51.001532 
L 661.836983 49.27024 
L 662.34434 49.27024 
L 662.750226 47.971783 
L 663.359055 47.971783 
L 663.561997 47.538964 
L 663.967883 47.538964 
L 664.373769 46.240508 
L 664.779655 46.240508 
L 664.982598 45.807689 
L 665.388484 45.807689 
L 665.591427 44.509215 
L 665.794369 44.509215 
L 665.997312 44.076397 
L 666.301727 44.076397 
L 666.50467 43.643578 
L 666.606141 43.643578 
L 666.809084 42.777923 
L 667.113498 42.777923 
L 667.316441 42.345105 
L 667.823799 42.345105 
L 668.128213 41.479467 
L 668.432627 41.479467 
L 668.63557 41.046648 
L 668.939985 41.046648 
L 669.142928 40.613829 
L 669.244399 40.613829 
L 669.447342 40.18101 
L 669.853228 40.18101 
L 670.056171 39.748191 
L 670.157642 39.748191 
L 670.360585 39.315372 
L 670.563528 39.315372 
L 670.766471 38.882553 
L 670.867942 38.882553 
L 671.070885 37.151261 
L 671.882657 37.151261 
L 672.187071 36.285624 
L 672.7959 36.285624 
L 673.201786 34.987167 
L 673.607672 34.987167 
L 674.115029 33.255892 
L 674.825329 33.255892 
L 675.028272 32.823073 
L 675.332686 32.823073 
L 675.637101 31.957435 
L 676.24593 31.957435 
L 676.550344 31.091797 
L 676.753287 31.091797 
L 676.95623 30.226143 
L 677.565059 30.226143 
L 677.970944 28.927686 
L 678.072416 28.927686 
L 678.275359 28.494867 
L 679.290073 28.494867 
L 679.493016 28.062048 
L 679.594488 28.062048 
L 679.797431 27.62923 
L 679.898902 27.62923 
L 680.101845 26.763575 
L 680.710674 26.763575 
L 680.913617 26.330756 
L 681.218031 26.330756 
L 681.420974 25.897938 
L 681.623917 25.897938 
L 681.82686 25.465119 
L 682.131274 25.465119 
L 682.435688 24.599481 
L 682.841574 24.599481 
L 683.348932 22.868205 
L 683.754817 22.868205 
L 683.95776 22.435386 
L 684.465118 22.435386 
L 684.769532 21.569749 
L 685.784247 21.569749 
L 686.088661 20.704111 
L 686.190132 20.704111 
L 686.393075 19.838457 
L 686.596018 19.405638 
L 686.69749 19.405638 
L 686.900433 18.972819 
L 687.001904 18.972819 
L 687.204847 18.54 
L 687.509261 18.54 
L 687.509261 18.54 
" clip-path="url(#pd0a9b131ac)" style="fill: none; stroke: #d62728; stroke-width: 1.5; stroke-linecap: square"/>
   </g>
   <g id="patch_3">
    <path d="M 48.345625 256.68 
L 48.345625 7.2 
" style="fill: none; stroke: #000000; stroke-width: 0.8; stroke-linejoin: miter; stroke-linecap: square"/>
   </g>
   <g id="patch_4">
    <path d="M 717.945625 256.68 
L 717.945625 7.2 
" style="fill: none; stroke: #000000; stroke-width: 0.8; stroke-linejoin: miter; stroke-linecap: square"/>
   </g>
   <g id="patch_5">
    <path d="M 48.345625 256.68 
L 717.945625 256.68 
" style="fill: none; stroke: #000000; stroke-width: 0.8; stroke-linejoin: miter; stroke-linecap: square"/>
   </g>
   <g id="patch_6">
    <path d="M 48.345625 7.2 
L 717.945625 7.2 
" style="fill: none; stroke: #000000; stroke-width: 0.8; stroke-linejoin: miter; stroke-linecap: square"/>
   </g>
   <g id="legend_1">
    <g id="patch_7">
     <path d="M 59.545625 113.94 
L 288.145625 113.94 
Q 291.345625 113.94 291.345625 110.74 
L 291.345625 18.4 
Q 291.345625 15.2 288.145625 15.2 
L 59.545625 15.2 
Q 56.345625 15.2 56.345625 18.4 
L 56.345625 110.74 
Q 56.345625 113.94 59.545625 113.94 
z
" style="fill: #ffffff; opacity: 0.8; stroke: #cccccc; stroke-linejoin: miter"/>
    </g>
    <g id="line2d_18">
     <path d="M 62.745625 28.1575 
L 78.745625 28.1575 
L 94.745625 28.1575 
" style="fill: none; stroke: #1f77b4; stroke-width: 1.5; stroke-linecap: square"/>
    </g>
    <g id="text_16">
     <!-- DynaQ -->
     <g transform="translate(107.545625 33.7575) scale(0.16 -0.16)">
      <defs>
       <path id="DejaVuSans-44" d="M 1259 4147 
L 1259 519 
L 2022 519 
Q 2988 519 3436 956 
Q 3884 1394 3884 2338 
Q 3884 3275 3436 3711 
Q 2988 4147 2022 4147 
L 1259 4147 
z
M 628 4666 
L 1925 4666 
Q 3281 4666 3915 4102 
Q 4550 3538 4550 2338 
Q 4550 1131 3912 565 
Q 3275 0 1925 0 
L 628 0 
L 628 4666 
z
" transform="scale(0.015625)"/>
       <path id="DejaVuSans-79" d="M 2059 -325 
Q 1816 -950 1584 -1140 
Q 1353 -1331 966 -1331 
L 506 -1331 
L 506 -850 
L 844 -850 
Q 1081 -850 1212 -737 
Q 1344 -625 1503 -206 
L 1606 56 
L 191 3500 
L 800 3500 
L 1894 763 
L 2988 3500 
L 3597 3500 
L 2059 -325 
z
" transform="scale(0.015625)"/>
       <path id="DejaVuSans-6e" d="M 3513 2113 
L 3513 0 
L 2938 0 
L 2938 2094 
Q 2938 2591 2744 2837 
Q 2550 3084 2163 3084 
Q 1697 3084 1428 2787 
Q 1159 2491 1159 1978 
L 1159 0 
L 581 0 
L 581 3500 
L 1159 3500 
L 1159 2956 
Q 1366 3272 1645 3428 
Q 1925 3584 2291 3584 
Q 2894 3584 3203 3211 
Q 3513 2838 3513 2113 
z
" transform="scale(0.015625)"/>
       <path id="DejaVuSans-51" d="M 2522 4238 
Q 1834 4238 1429 3725 
Q 1025 3213 1025 2328 
Q 1025 1447 1429 934 
Q 1834 422 2522 422 
Q 3209 422 3611 934 
Q 4013 1447 4013 2328 
Q 4013 3213 3611 3725 
Q 3209 4238 2522 4238 
z
M 3406 84 
L 4238 -825 
L 3475 -825 
L 2784 -78 
Q 2681 -84 2626 -87 
Q 2572 -91 2522 -91 
Q 1538 -91 948 567 
Q 359 1225 359 2328 
Q 359 3434 948 4092 
Q 1538 4750 2522 4750 
Q 3503 4750 4090 4092 
Q 4678 3434 4678 2328 
Q 4678 1516 4351 937 
Q 4025 359 3406 84 
z
" transform="scale(0.015625)"/>
      </defs>
      <use xlink:href="#DejaVuSans-44"/>
      <use xlink:href="#DejaVuSans-79" transform="translate(77.001953 0)"/>
      <use xlink:href="#DejaVuSans-6e" transform="translate(136.181641 0)"/>
      <use xlink:href="#DejaVuSans-61" transform="translate(199.560547 0)"/>
      <use xlink:href="#DejaVuSans-51" transform="translate(260.839844 0)"/>
     </g>
    </g>
    <g id="line2d_19">
     <path d="M 62.745625 51.6425 
L 78.745625 51.6425 
L 94.745625 51.6425 
" style="fill: none; stroke: #ff7f0e; stroke-width: 1.5; stroke-linecap: square"/>
    </g>
    <g id="text_17">
     <!-- DynaQ+ Selective -->
     <g transform="translate(107.545625 57.2425) scale(0.16 -0.16)">
      <defs>
       <path id="DejaVuSans-2b" d="M 2944 4013 
L 2944 2272 
L 4684 2272 
L 4684 1741 
L 2944 1741 
L 2944 0 
L 2419 0 
L 2419 1741 
L 678 1741 
L 678 2272 
L 2419 2272 
L 2419 4013 
L 2944 4013 
z
" transform="scale(0.015625)"/>
       <path id="DejaVuSans-63" d="M 3122 3366 
L 3122 2828 
Q 2878 2963 2633 3030 
Q 2388 3097 2138 3097 
Q 1578 3097 1268 2742 
Q 959 2388 959 1747 
Q 959 1106 1268 751 
Q 1578 397 2138 397 
Q 2388 397 2633 464 
Q 2878 531 3122 666 
L 3122 134 
Q 2881 22 2623 -34 
Q 2366 -91 2075 -91 
Q 1284 -91 818 406 
Q 353 903 353 1747 
Q 353 2603 823 3093 
Q 1294 3584 2113 3584 
Q 2378 3584 2631 3529 
Q 2884 3475 3122 3366 
z
" transform="scale(0.015625)"/>
      </defs>
      <use xlink:href="#DejaVuSans-44"/>
      <use xlink:href="#DejaVuSans-79" transform="translate(77.001953 0)"/>
      <use xlink:href="#DejaVuSans-6e" transform="translate(136.181641 0)"/>
      <use xlink:href="#DejaVuSans-61" transform="translate(199.560547 0)"/>
      <use xlink:href="#DejaVuSans-51" transform="translate(260.839844 0)"/>
      <use xlink:href="#DejaVuSans-2b" transform="translate(339.550781 0)"/>
      <use xlink:href="#DejaVuSans-20" transform="translate(423.339844 0)"/>
      <use xlink:href="#DejaVuSans-53" transform="translate(455.126953 0)"/>
      <use xlink:href="#DejaVuSans-65" transform="translate(518.603516 0)"/>
      <use xlink:href="#DejaVuSans-6c" transform="translate(580.126953 0)"/>
      <use xlink:href="#DejaVuSans-65" transform="translate(607.910156 0)"/>
      <use xlink:href="#DejaVuSans-63" transform="translate(669.433594 0)"/>
      <use xlink:href="#DejaVuSans-74" transform="translate(724.414062 0)"/>
      <use xlink:href="#DejaVuSans-69" transform="translate(763.623047 0)"/>
      <use xlink:href="#DejaVuSans-76" transform="translate(791.40625 0)"/>
      <use xlink:href="#DejaVuSans-65" transform="translate(850.585938 0)"/>
     </g>
    </g>
    <g id="line2d_20">
     <path d="M 62.745625 75.1275 
L 78.745625 75.1275 
L 94.745625 75.1275 
" style="fill: none; stroke: #2ca02c; stroke-width: 1.5; stroke-linecap: square"/>
    </g>
    <g id="text_18">
     <!-- DynaQ+ -->
     <g transform="translate(107.545625 80.7275) scale(0.16 -0.16)">
      <use xlink:href="#DejaVuSans-44"/>
      <use xlink:href="#DejaVuSans-79" transform="translate(77.001953 0)"/>
      <use xlink:href="#DejaVuSans-6e" transform="translate(136.181641 0)"/>
      <use xlink:href="#DejaVuSans-61" transform="translate(199.560547 0)"/>
      <use xlink:href="#DejaVuSans-51" transform="translate(260.839844 0)"/>
      <use xlink:href="#DejaVuSans-2b" transform="translate(339.550781 0)"/>
     </g>
    </g>
    <g id="line2d_21">
     <path d="M 62.745625 98.6125 
L 78.745625 98.6125 
L 94.745625 98.6125 
" style="fill: none; stroke: #d62728; stroke-width: 1.5; stroke-linecap: square"/>
    </g>
    <g id="text_19">
     <!-- DynaQ+ Action Bonus -->
     <g transform="translate(107.545625 104.2125) scale(0.16 -0.16)">
      <defs>
       <path id="DejaVuSans-41" d="M 2188 4044 
L 1331 1722 
L 3047 1722 
L 2188 4044 
z
M 1831 4666 
L 2547 4666 
L 4325 0 
L 3669 0 
L 3244 1197 
L 1141 1197 
L 716 0 
L 50 0 
L 1831 4666 
z
" transform="scale(0.015625)"/>
       <path id="DejaVuSans-6f" d="M 1959 3097 
Q 1497 3097 1228 2736 
Q 959 2375 959 1747 
Q 959 1119 1226 758 
Q 1494 397 1959 397 
Q 2419 397 2687 759 
Q 2956 1122 2956 1747 
Q 2956 2369 2687 2733 
Q 2419 3097 1959 3097 
z
M 1959 3584 
Q 2709 3584 3137 3096 
Q 3566 2609 3566 1747 
Q 3566 888 3137 398 
Q 2709 -91 1959 -91 
Q 1206 -91 779 398 
Q 353 888 353 1747 
Q 353 2609 779 3096 
Q 1206 3584 1959 3584 
z
" transform="scale(0.015625)"/>
       <path id="DejaVuSans-42" d="M 1259 2228 
L 1259 519 
L 2272 519 
Q 2781 519 3026 730 
Q 3272 941 3272 1375 
Q 3272 1813 3026 2020 
Q 2781 2228 2272 2228 
L 1259 2228 
z
M 1259 4147 
L 1259 2741 
L 2194 2741 
Q 2656 2741 2882 2914 
Q 3109 3088 3109 3444 
Q 3109 3797 2882 3972 
Q 2656 4147 2194 4147 
L 1259 4147 
z
M 628 4666 
L 2241 4666 
Q 2963 4666 3353 4366 
Q 3744 4066 3744 3513 
Q 3744 3084 3544 2831 
Q 3344 2578 2956 2516 
Q 3422 2416 3680 2098 
Q 3938 1781 3938 1306 
Q 3938 681 3513 340 
Q 3088 0 2303 0 
L 628 0 
L 628 4666 
z
" transform="scale(0.015625)"/>
      </defs>
      <use xlink:href="#DejaVuSans-44"/>
      <use xlink:href="#DejaVuSans-79" transform="translate(77.001953 0)"/>
      <use xlink:href="#DejaVuSans-6e" transform="translate(136.181641 0)"/>
      <use xlink:href="#DejaVuSans-61" transform="translate(199.560547 0)"/>
      <use xlink:href="#DejaVuSans-51" transform="translate(260.839844 0)"/>
      <use xlink:href="#DejaVuSans-2b" transform="translate(339.550781 0)"/>
      <use xlink:href="#DejaVuSans-20" transform="translate(423.339844 0)"/>
      <use xlink:href="#DejaVuSans-41" transform="translate(455.126953 0)"/>
      <use xlink:href="#DejaVuSans-63" transform="translate(521.785156 0)"/>
      <use xlink:href="#DejaVuSans-74" transform="translate(576.765625 0)"/>
      <use xlink:href="#DejaVuSans-69" transform="translate(615.974609 0)"/>
      <use xlink:href="#DejaVuSans-6f" transform="translate(643.757812 0)"/>
      <use xlink:href="#DejaVuSans-6e" transform="translate(704.939453 0)"/>
      <use xlink:href="#DejaVuSans-20" transform="translate(768.318359 0)"/>
      <use xlink:href="#DejaVuSans-42" transform="translate(800.105469 0)"/>
      <use xlink:href="#DejaVuSans-6f" transform="translate(868.708984 0)"/>
      <use xlink:href="#DejaVuSans-6e" transform="translate(929.890625 0)"/>
      <use xlink:href="#DejaVuSans-75" transform="translate(993.269531 0)"/>
      <use xlink:href="#DejaVuSans-73" transform="translate(1056.648438 0)"/>
     </g>
    </g>
   </g>
  </g>
 </g>
 <defs>
  <clipPath id="pd0a9b131ac">
   <rect x="48.345625" y="7.2" width="669.6" height="249.48"/>
  </clipPath>
 </defs>
</svg>
