<?xml version="1.0" encoding="utf-8" standalone="no"?>
<!DOCTYPE svg PUBLIC "-//W3C//DTD SVG 1.1//EN"
  "http://www.w3.org/Graphics/SVG/1.1/DTD/svg11.dtd">
<svg xmlns:xlink="http://www.w3.org/1999/xlink" width="725.145625pt" height="301.97875pt" viewBox="0 0 725.145625 301.97875" xmlns="http://www.w3.org/2000/svg" version="1.1">
 <metadata>
  <rdf:RDF xmlns:dc="http://purl.org/dc/elements/1.1/" xmlns:cc="http://creativecommons.org/ns#" xmlns:rdf="http://www.w3.org/1999/02/22-rdf-syntax-ns#">
   <cc:Work>
    <dc:type rdf:resource="http://purl.org/dc/dcmitype/StillImage"/>
    <dc:date>2026-03-27T15:56:27.339613</dc:date>
    <dc:format>image/svg+xml</dc:format>
    <dc:creator>
     <cc:Agent>
      <dc:title>Matplotlib v3.10.8, https://matplotlib.org/</dc:title>
     </cc:Agent>
    </dc:creator>
   </cc:Work>
  </rdf:RDF>
 </metadata>
 <defs>
  <style type="text/css">*{stroke-linejoin: round; stroke-linecap: butt}</style>
 </defs>
 <g id="figure_1">
  <g id="patch_1">
   <path d="M 0 301.97875 
L 725.145625 301.97875 
L 725.145625 0 
L 0 0 
L 0 301.97875 
z
" style="fill: none"/>
  </g>
  <g id="axes_1">
   <g id="patch_2">
    <path d="M 48.345625 256.68 
L 717.945625 256.68 
L 717.945625 7.2 
L 48.345625 7.2 
L 48.345625 256.68 
z
" style="fill: none"/>
   </g>
   <g id="matplotlib.axis_1">
    <g id="xtick_1">
     <g id="line2d_1">
      <defs>
       <path id="m84abd36e4a" d="M 0 0 
L 0 3.5 
" style="stroke: #000000; stroke-width: 0.8"/>
      </defs>
      <g>
       <use xlink:href="#m84abd36e4a" x="78.781989" y="256.68" style="stroke: #000000; stroke-width: 0.8"/>
      </g>
     </g>
     <g id="text_1">
      <!-- 0 -->
      <g transform="translate(75.600739 271.278438) scale(0.1 -0.1)">
       <defs>
        <path id="DejaVuSans-30" d="M 2034 4250 
Q 1547 4250 1301 3770 
Q 1056 3291 1056 2328 
Q 1056 1369 1301 889 
Q 1547 409 2034 409 
Q 2525 409 2770 889 
Q 3016 1369 3016 2328 
Q 3016 3291 2770 3770 
Q 2525 4250 2034 4250 
z
M 2034 4750 
Q 2819 4750 3233 4129 
Q 3647 3509 3647 2328 
Q 3647 1150 3233 529 
Q 2819 -91 2034 -91 
Q 1250 -91 836 529 
Q 422 1150 422 2328 
Q 422 3509 836 4129 
Q 1250 4750 2034 4750 
z
" transform="scale(0.015625)"/>
       </defs>
       <use xlink:href="#DejaVuSans-30"/>
      </g>
     </g>
    </g>
    <g id="xtick_2">
     <g id="line2d_2">
      <g>
       <use xlink:href="#m84abd36e4a" x="180.253446" y="256.68" style="stroke: #000000; stroke-width: 0.8"/>
      </g>
     </g>
     <g id="text_2">
      <!-- 1000 -->
      <g transform="translate(167.528446 271.278438) scale(0.1 -0.1)">
       <defs>
        <path id="DejaVuSans-31" d="M 794 531 
L 1825 531 
L 1825 4091 
L 703 3866 
L 703 4441 
L 1819 4666 
L 2450 4666 
L 2450 531 
L 3481 531 
L 3481 0 
L 794 0 
L 794 531 
z
" transform="scale(0.015625)"/>
       </defs>
       <use xlink:href="#DejaVuSans-31"/>
       <use xlink:href="#DejaVuSans-30" transform="translate(63.623047 0)"/>
       <use xlink:href="#DejaVuSans-30" transform="translate(127.246094 0)"/>
       <use xlink:href="#DejaVuSans-30" transform="translate(190.869141 0)"/>
      </g>
     </g>
    </g>
    <g id="xtick_3">
     <g id="line2d_3">
      <g>
       <use xlink:href="#m84abd36e4a" x="281.724903" y="256.68" style="stroke: #000000; stroke-width: 0.8"/>
      </g>
     </g>
     <g id="text_3">
      <!-- 2000 -->
      <g transform="translate(268.999903 271.278438) scale(0.1 -0.1)">
       <defs>
        <path id="DejaVuSans-32" d="M 1228 531 
L 3431 531 
L 3431 0 
L 469 0 
L 469 531 
Q 828 903 1448 1529 
Q 2069 2156 2228 2338 
Q 2531 2678 2651 2914 
Q 2772 3150 2772 3378 
Q 2772 3750 2511 3984 
Q 2250 4219 1831 4219 
Q 1534 4219 1204 4116 
Q 875 4013 500 3803 
L 500 4441 
Q 881 4594 1212 4672 
Q 1544 4750 1819 4750 
Q 2544 4750 2975 4387 
Q 3406 4025 3406 3419 
Q 3406 3131 3298 2873 
Q 3191 2616 2906 2266 
Q 2828 2175 2409 1742 
Q 1991 1309 1228 531 
z
" transform="scale(0.015625)"/>
       </defs>
       <use xlink:href="#DejaVuSans-32"/>
       <use xlink:href="#DejaVuSans-30" transform="translate(63.623047 0)"/>
       <use xlink:href="#DejaVuSans-30" transform="translate(127.246094 0)"/>
       <use xlink:href="#DejaVuSans-30" transform="translate(190.869141 0)"/>
      </g>
     </g>
    </g>
    <g id="xtick_4">
     <g id="line2d_4">
      <g>
       <use xlink:href="#m84abd36e4a" x="383.196361" y="256.68" style="stroke: #000000; stroke-width: 0.8"/>
      </g>
     </g>
     <g id="text_4">
      <!-- 3000 -->
      <g transform="translate(370.471361 271.278438) scale(0.1 -0.1)">
       <defs>
        <path id="DejaVuSans-33" d="M 2597 2516 
Q 3050 2419 3304 2112 
Q 3559 1806 3559 1356 
Q 3559 666 3084 287 
Q 2609 -91 1734 -91 
Q 1441 -91 1130 -33 
Q 819 25 488 141 
L 488 750 
Q 750 597 1062 519 
Q 1375 441 1716 441 
Q 2309 441 2620 675 
Q 2931 909 2931 1356 
Q 2931 1769 2642 2001 
Q 2353 2234 1838 2234 
L 1294 2234 
L 1294 2753 
L 1863 2753 
Q 2328 2753 2575 2939 
Q 2822 3125 2822 3475 
Q 2822 3834 2567 4026 
Q 2313 4219 1838 4219 
Q 1578 4219 1281 4162 
Q 984 4106 628 3988 
L 628 4550 
Q 988 4650 1302 4700 
Q 1616 4750 1894 4750 
Q 2613 4750 3031 4423 
Q 3450 4097 3450 3541 
Q 3450 3153 3228 2886 
Q 3006 2619 2597 2516 
z
" transform="scale(0.015625)"/>
       </defs>
       <use xlink:href="#DejaVuSans-33"/>
       <use xlink:href="#DejaVuSans-30" transform="translate(63.623047 0)"/>
       <use xlink:href="#DejaVuSans-30" transform="translate(127.246094 0)"/>
       <use xlink:href="#DejaVuSans-30" transform="translate(190.869141 0)"/>
      </g>
     </g>
    </g>
    <g id="xtick_5">
     <g id="line2d_5">
      <g>
       <use xlink:href="#m84abd36e4a" x="484.667818" y="256.68" style="stroke: #000000; stroke-width: 0.8"/>
      </g>
     </g>
     <g id="text_5">
      <!-- 4000 -->
      <g transform="translate(471.942818 271.278438) scale(0.1 -0.1)">
       <defs>
        <path id="DejaVuSans-34" d="M 2419 4116 
L 825 1625 
L 2419 1625 
L 2419 4116 
z
M 2253 4666 
L 3047 4666 
L 3047 1625 
L 3713 1625 
L 3713 1100 
L 3047 1100 
L 3047 0 
L 2419 0 
L 2419 1100 
L 313 1100 
L 313 1709 
L 2253 4666 
z
" transform="scale(0.015625)"/>
       </defs>
       <use xlink:href="#DejaVuSans-34"/>
       <use xlink:href="#DejaVuSans-30" transform="translate(63.623047 0)"/>
       <use xlink:href="#DejaVuSans-30" transform="translate(127.246094 0)"/>
       <use xlink:href="#DejaVuSans-30" transform="translate(190.869141 0)"/>
      </g>
     </g>
    </g>
    <g id="xtick_6">
     <g id="line2d_6">
      <g>
       <use xlink:href="#m84abd36e4a" x="586.139275" y="256.68" style="stroke: #000000; stroke-width: 0.8"/>
      </g>
     </g>
     <g id="text_6">
      <!-- 5000 -->
      <g transform="translate(573.414275 271.278438) scale(0.1 -0.1)">
       <defs>
        <path id="DejaVuSans-35" d="M 691 4666 
L 3169 4666 
L 3169 4134 
L 1269 4134 
L 1269 2991 
Q 1406 3038 1543 3061 
Q 1681 3084 1819 3084 
Q 2600 3084 3056 2656 
Q 3513 2228 3513 1497 
Q 3513 744 3044 326 
Q 2575 -91 1722 -91 
Q 1428 -91 1123 -41 
Q 819 9 494 109 
L 494 744 
Q 775 591 1075 516 
Q 1375 441 1709 441 
Q 2250 441 2565 725 
Q 2881 1009 2881 1497 
Q 2881 1984 2565 2268 
Q 2250 2553 1709 2553 
Q 1456 2553 1204 2497 
Q 953 2441 691 2322 
L 691 4666 
z
" transform="scale(0.015625)"/>
       </defs>
       <use xlink:href="#DejaVuSans-35"/>
       <use xlink:href="#DejaVuSans-30" transform="translate(63.623047 0)"/>
       <use xlink:href="#DejaVuSans-30" transform="translate(127.246094 0)"/>
       <use xlink:href="#DejaVuSans-30" transform="translate(190.869141 0)"/>
      </g>
     </g>
    </g>
    <g id="xtick_7">
     <g id="line2d_7">
      <g>
       <use xlink:href="#m84abd36e4a" x="687.610733" y="256.68" style="stroke: #000000; stroke-width: 0.8"/>
      </g>
     </g>
     <g id="text_7">
      <!-- 6000 -->
      <g transform="translate(674.885733 271.278438) scale(0.1 -0.1)">
       <defs>
        <path id="DejaVuSans-36" d="M 2113 2584 
Q 1688 2584 1439 2293 
Q 1191 2003 1191 1497 
Q 1191 994 1439 701 
Q 1688 409 2113 409 
Q 2538 409 2786 701 
Q 3034 994 3034 1497 
Q 3034 2003 2786 2293 
Q 2538 2584 2113 2584 
z
M 3366 4563 
L 3366 3988 
Q 3128 4100 2886 4159 
Q 2644 4219 2406 4219 
Q 1781 4219 1451 3797 
Q 1122 3375 1075 2522 
Q 1259 2794 1537 2939 
Q 1816 3084 2150 3084 
Q 2853 3084 3261 2657 
Q 3669 2231 3669 1497 
Q 3669 778 3244 343 
Q 2819 -91 2113 -91 
Q 1303 -91 875 529 
Q 447 1150 447 2328 
Q 447 3434 972 4092 
Q 1497 4750 2381 4750 
Q 2619 4750 2861 4703 
Q 3103 4656 3366 4563 
z
" transform="scale(0.015625)"/>
       </defs>
       <use xlink:href="#DejaVuSans-36"/>
       <use xlink:href="#DejaVuSans-30" transform="translate(63.623047 0)"/>
       <use xlink:href="#DejaVuSans-30" transform="translate(127.246094 0)"/>
       <use xlink:href="#DejaVuSans-30" transform="translate(190.869141 0)"/>
      </g>
     </g>
    </g>
    <g id="text_8">
     <!-- Steps -->
     <g transform="translate(357.963906 291.035313) scale(0.18 -0.18)">
      <defs>
       <path id="DejaVuSans-53" d="M 3425 4513 
L 3425 3897 
Q 3066 4069 2747 4153 
Q 2428 4238 2131 4238 
Q 1616 4238 1336 4038 
Q 1056 3838 1056 3469 
Q 1056 3159 1242 3001 
Q 1428 2844 1947 2747 
L 2328 2669 
Q 3034 2534 3370 2195 
Q 3706 1856 3706 1288 
Q 3706 609 3251 259 
Q 2797 -91 1919 -91 
Q 1588 -91 1214 -16 
Q 841 59 441 206 
L 441 856 
Q 825 641 1194 531 
Q 1563 422 1919 422 
Q 2459 422 2753 634 
Q 3047 847 3047 1241 
Q 3047 1584 2836 1778 
Q 2625 1972 2144 2069 
L 1759 2144 
Q 1053 2284 737 2584 
Q 422 2884 422 3419 
Q 422 4038 858 4394 
Q 1294 4750 2059 4750 
Q 2388 4750 2728 4690 
Q 3069 4631 3425 4513 
z
" transform="scale(0.015625)"/>
       <path id="DejaVuSans-74" d="M 1172 4494 
L 1172 3500 
L 2356 3500 
L 2356 3053 
L 1172 3053 
L 1172 1153 
Q 1172 725 1289 603 
Q 1406 481 1766 481 
L 2356 481 
L 2356 0 
L 1766 0 
Q 1100 0 847 248 
Q 594 497 594 1153 
L 594 3053 
L 172 3053 
L 172 3500 
L 594 3500 
L 594 4494 
L 1172 4494 
z
" transform="scale(0.015625)"/>
       <path id="DejaVuSans-65" d="M 3597 1894 
L 3597 1613 
L 953 1613 
Q 991 1019 1311 708 
Q 1631 397 2203 397 
Q 2534 397 2845 478 
Q 3156 559 3463 722 
L 3463 178 
Q 3153 47 2828 -22 
Q 2503 -91 2169 -91 
Q 1331 -91 842 396 
Q 353 884 353 1716 
Q 353 2575 817 3079 
Q 1281 3584 2069 3584 
Q 2775 3584 3186 3129 
Q 3597 2675 3597 1894 
z
M 3022 2063 
Q 3016 2534 2758 2815 
Q 2500 3097 2075 3097 
Q 1594 3097 1305 2825 
Q 1016 2553 972 2059 
L 3022 2063 
z
" transform="scale(0.015625)"/>
       <path id="DejaVuSans-70" d="M 1159 525 
L 1159 -1331 
L 581 -1331 
L 581 3500 
L 1159 3500 
L 1159 2969 
Q 1341 3281 1617 3432 
Q 1894 3584 2278 3584 
Q 2916 3584 3314 3078 
Q 3713 2572 3713 1747 
Q 3713 922 3314 415 
Q 2916 -91 2278 -91 
Q 1894 -91 1617 61 
Q 1341 213 1159 525 
z
M 3116 1747 
Q 3116 2381 2855 2742 
Q 2594 3103 2138 3103 
Q 1681 3103 1420 2742 
Q 1159 2381 1159 1747 
Q 1159 1113 1420 752 
Q 1681 391 2138 391 
Q 2594 391 2855 752 
Q 3116 1113 3116 1747 
z
" transform="scale(0.015625)"/>
       <path id="DejaVuSans-73" d="M 2834 3397 
L 2834 2853 
Q 2591 2978 2328 3040 
Q 2066 3103 1784 3103 
Q 1356 3103 1142 2972 
Q 928 2841 928 2578 
Q 928 2378 1081 2264 
Q 1234 2150 1697 2047 
L 1894 2003 
Q 2506 1872 2764 1633 
Q 3022 1394 3022 966 
Q 3022 478 2636 193 
Q 2250 -91 1575 -91 
Q 1294 -91 989 -36 
Q 684 19 347 128 
L 347 722 
Q 666 556 975 473 
Q 1284 391 1588 391 
Q 1994 391 2212 530 
Q 2431 669 2431 922 
Q 2431 1156 2273 1281 
Q 2116 1406 1581 1522 
L 1381 1569 
Q 847 1681 609 1914 
Q 372 2147 372 2553 
Q 372 3047 722 3315 
Q 1072 3584 1716 3584 
Q 2034 3584 2315 3537 
Q 2597 3491 2834 3397 
z
" transform="scale(0.015625)"/>
      </defs>
      <use xlink:href="#DejaVuSans-53"/>
      <use xlink:href="#DejaVuSans-74" transform="translate(63.476562 0)"/>
      <use xlink:href="#DejaVuSans-65" transform="translate(102.685547 0)"/>
      <use xlink:href="#DejaVuSans-70" transform="translate(164.208984 0)"/>
      <use xlink:href="#DejaVuSans-73" transform="translate(227.685547 0)"/>
     </g>
    </g>
   </g>
   <g id="matplotlib.axis_2">
    <g id="ytick_1">
     <g id="line2d_8">
      <defs>
       <path id="mafd06fdc60" d="M 0 0 
L -3.5 0 
" style="stroke: #000000; stroke-width: 0.8"/>
      </defs>
      <g>
       <use xlink:href="#mafd06fdc60" x="48.345625" y="245.34" style="stroke: #000000; stroke-width: 0.8"/>
      </g>
     </g>
     <g id="text_9">
      <!-- 0 -->
      <g transform="translate(34.983125 249.139219) scale(0.1 -0.1)">
       <use xlink:href="#DejaVuSans-30"/>
      </g>
     </g>
    </g>
    <g id="ytick_2">
     <g id="line2d_9">
      <g>
       <use xlink:href="#mafd06fdc60" x="48.345625" y="200.912698" style="stroke: #000000; stroke-width: 0.8"/>
      </g>
     </g>
     <g id="text_10">
      <!-- 10 -->
      <g transform="translate(28.620625 204.711917) scale(0.1 -0.1)">
       <use xlink:href="#DejaVuSans-31"/>
       <use xlink:href="#DejaVuSans-30" transform="translate(63.623047 0)"/>
      </g>
     </g>
    </g>
    <g id="ytick_3">
     <g id="line2d_10">
      <g>
       <use xlink:href="#mafd06fdc60" x="48.345625" y="156.485396" style="stroke: #000000; stroke-width: 0.8"/>
      </g>
     </g>
     <g id="text_11">
      <!-- 20 -->
      <g transform="translate(28.620625 160.284615) scale(0.1 -0.1)">
       <use xlink:href="#DejaVuSans-32"/>
       <use xlink:href="#DejaVuSans-30" transform="translate(63.623047 0)"/>
      </g>
     </g>
    </g>
    <g id="ytick_4">
     <g id="line2d_11">
      <g>
       <use xlink:href="#mafd06fdc60" x="48.345625" y="112.058094" style="stroke: #000000; stroke-width: 0.8"/>
      </g>
     </g>
     <g id="text_12">
      <!-- 30 -->
      <g transform="translate(28.620625 115.857313) scale(0.1 -0.1)">
       <use xlink:href="#DejaVuSans-33"/>
       <use xlink:href="#DejaVuSans-30" transform="translate(63.623047 0)"/>
      </g>
     </g>
    </g>
    <g id="ytick_5">
     <g id="line2d_12">
      <g>
       <use xlink:href="#mafd06fdc60" x="48.345625" y="67.630792" style="stroke: #000000; stroke-width: 0.8"/>
      </g>
     </g>
     <g id="text_13">
      <!-- 40 -->
      <g transform="translate(28.620625 71.430011) scale(0.1 -0.1)">
       <use xlink:href="#DejaVuSans-34"/>
       <use xlink:href="#DejaVuSans-30" transform="translate(63.623047 0)"/>
      </g>
     </g>
    </g>
    <g id="ytick_6">
     <g id="line2d_13">
      <g>
       <use xlink:href="#mafd06fdc60" x="48.345625" y="23.203491" style="stroke: #000000; stroke-width: 0.8"/>
      </g>
     </g>
     <g id="text_14">
      <!-- 50 -->
      <g transform="translate(28.620625 27.002709) scale(0.1 -0.1)">
       <use xlink:href="#DejaVuSans-35"/>
       <use xlink:href="#DejaVuSans-30" transform="translate(63.623047 0)"/>
      </g>
     </g>
    </g>
    <g id="text_15">
     <!-- Cumulative Reward -->
     <g transform="translate(20.877187 219.685781) rotate(-90) scale(0.18 -0.18)">
      <defs>
       <path id="DejaVuSans-43" d="M 4122 4306 
L 4122 3641 
Q 3803 3938 3442 4084 
Q 3081 4231 2675 4231 
Q 1875 4231 1450 3742 
Q 1025 3253 1025 2328 
Q 1025 1406 1450 917 
Q 1875 428 2675 428 
Q 3081 428 3442 575 
Q 3803 722 4122 1019 
L 4122 359 
Q 3791 134 3420 21 
Q 3050 -91 2638 -91 
Q 1578 -91 968 557 
Q 359 1206 359 2328 
Q 359 3453 968 4101 
Q 1578 4750 2638 4750 
Q 3056 4750 3426 4639 
Q 3797 4528 4122 4306 
z
" transform="scale(0.015625)"/>
       <path id="DejaVuSans-75" d="M 544 1381 
L 544 3500 
L 1119 3500 
L 1119 1403 
Q 1119 906 1312 657 
Q 1506 409 1894 409 
Q 2359 409 2629 706 
Q 2900 1003 2900 1516 
L 2900 3500 
L 3475 3500 
L 3475 0 
L 2900 0 
L 2900 538 
Q 2691 219 2414 64 
Q 2138 -91 1772 -91 
Q 1169 -91 856 284 
Q 544 659 544 1381 
z
M 1991 3584 
L 1991 3584 
z
" transform="scale(0.015625)"/>
       <path id="DejaVuSans-6d" d="M 3328 2828 
Q 3544 3216 3844 3400 
Q 4144 3584 4550 3584 
Q 5097 3584 5394 3201 
Q 5691 2819 5691 2113 
L 5691 0 
L 5113 0 
L 5113 2094 
Q 5113 2597 4934 2840 
Q 4756 3084 4391 3084 
Q 3944 3084 3684 2787 
Q 3425 2491 3425 1978 
L 3425 0 
L 2847 0 
L 2847 2094 
Q 2847 2600 2669 2842 
Q 2491 3084 2119 3084 
Q 1678 3084 1418 2786 
Q 1159 2488 1159 1978 
L 1159 0 
L 581 0 
L 581 3500 
L 1159 3500 
L 1159 2956 
Q 1356 3278 1631 3431 
Q 1906 3584 2284 3584 
Q 2666 3584 2933 3390 
Q 3200 3197 3328 2828 
z
" transform="scale(0.015625)"/>
       <path id="DejaVuSans-6c" d="M 603 4863 
L 1178 4863 
L 1178 0 
L 603 0 
L 603 4863 
z
" transform="scale(0.015625)"/>
       <path id="DejaVuSans-61" d="M 2194 1759 
Q 1497 1759 1228 1600 
Q 959 1441 959 1056 
Q 959 750 1161 570 
Q 1363 391 1709 391 
Q 2188 391 2477 730 
Q 2766 1069 2766 1631 
L 2766 1759 
L 2194 1759 
z
M 3341 1997 
L 3341 0 
L 2766 0 
L 2766 531 
Q 2569 213 2275 61 
Q 1981 -91 1556 -91 
Q 1019 -91 701 211 
Q 384 513 384 1019 
Q 384 1609 779 1909 
Q 1175 2209 1959 2209 
L 2766 2209 
L 2766 2266 
Q 2766 2663 2505 2880 
Q 2244 3097 1772 3097 
Q 1472 3097 1187 3025 
Q 903 2953 641 2809 
L 641 3341 
Q 956 3463 1253 3523 
Q 1550 3584 1831 3584 
Q 2591 3584 2966 3190 
Q 3341 2797 3341 1997 
z
" transform="scale(0.015625)"/>
       <path id="DejaVuSans-69" d="M 603 3500 
L 1178 3500 
L 1178 0 
L 603 0 
L 603 3500 
z
M 603 4863 
L 1178 4863 
L 1178 4134 
L 603 4134 
L 603 4863 
z
" transform="scale(0.015625)"/>
       <path id="DejaVuSans-76" d="M 191 3500 
L 800 3500 
L 1894 563 
L 2988 3500 
L 3597 3500 
L 2284 0 
L 1503 0 
L 191 3500 
z
" transform="scale(0.015625)"/>
       <path id="DejaVuSans-20" transform="scale(0.015625)"/>
       <path id="DejaVuSans-52" d="M 2841 2188 
Q 3044 2119 3236 1894 
Q 3428 1669 3622 1275 
L 4263 0 
L 3584 0 
L 2988 1197 
Q 2756 1666 2539 1819 
Q 2322 1972 1947 1972 
L 1259 1972 
L 1259 0 
L 628 0 
L 628 4666 
L 2053 4666 
Q 2853 4666 3247 4331 
Q 3641 3997 3641 3322 
Q 3641 2881 3436 2590 
Q 3231 2300 2841 2188 
z
M 1259 4147 
L 1259 2491 
L 2053 2491 
Q 2509 2491 2742 2702 
Q 2975 2913 2975 3322 
Q 2975 3731 2742 3939 
Q 2509 4147 2053 4147 
L 1259 4147 
z
" transform="scale(0.015625)"/>
       <path id="DejaVuSans-77" d="M 269 3500 
L 844 3500 
L 1563 769 
L 2278 3500 
L 2956 3500 
L 3675 769 
L 4391 3500 
L 4966 3500 
L 4050 0 
L 3372 0 
L 2619 2869 
L 1863 0 
L 1184 0 
L 269 3500 
z
" transform="scale(0.015625)"/>
       <path id="DejaVuSans-72" d="M 2631 2963 
Q 2534 3019 2420 3045 
Q 2306 3072 2169 3072 
Q 1681 3072 1420 2755 
Q 1159 2438 1159 1844 
L 1159 0 
L 581 0 
L 581 3500 
L 1159 3500 
L 1159 2956 
Q 1341 3275 1631 3429 
Q 1922 3584 2338 3584 
Q 2397 3584 2469 3576 
Q 2541 3569 2628 3553 
L 2631 2963 
z
" transform="scale(0.015625)"/>
       <path id="DejaVuSans-64" d="M 2906 2969 
L 2906 4863 
L 3481 4863 
L 3481 0 
L 2906 0 
L 2906 525 
Q 2725 213 2448 61 
Q 2172 -91 1784 -91 
Q 1150 -91 751 415 
Q 353 922 353 1747 
Q 353 2572 751 3078 
Q 1150 3584 1784 3584 
Q 2172 3584 2448 3432 
Q 2725 3281 2906 2969 
z
M 947 1747 
Q 947 1113 1208 752 
Q 1469 391 1925 391 
Q 2381 391 2643 752 
Q 2906 1113 2906 1747 
Q 2906 2381 2643 2742 
Q 2381 3103 1925 3103 
Q 1469 3103 1208 2742 
Q 947 2381 947 1747 
z
" transform="scale(0.015625)"/>
      </defs>
      <use xlink:href="#DejaVuSans-43"/>
      <use xlink:href="#DejaVuSans-75" transform="translate(69.824219 0)"/>
      <use xlink:href="#DejaVuSans-6d" transform="translate(133.203125 0)"/>
      <use xlink:href="#DejaVuSans-75" transform="translate(230.615234 0)"/>
      <use xlink:href="#DejaVuSans-6c" transform="translate(293.994141 0)"/>
      <use xlink:href="#DejaVuSans-61" transform="translate(321.777344 0)"/>
      <use xlink:href="#DejaVuSans-74" transform="translate(383.056641 0)"/>
      <use xlink:href="#DejaVuSans-69" transform="translate(422.265625 0)"/>
      <use xlink:href="#DejaVuSans-76" transform="translate(450.048828 0)"/>
      <use xlink:href="#DejaVuSans-65" transform="translate(509.228516 0)"/>
      <use xlink:href="#DejaVuSans-20" transform="translate(570.751953 0)"/>
      <use xlink:href="#DejaVuSans-52" transform="translate(602.539062 0)"/>
      <use xlink:href="#DejaVuSans-65" transform="translate(667.521484 0)"/>
      <use xlink:href="#DejaVuSans-77" transform="translate(729.044922 0)"/>
      <use xlink:href="#DejaVuSans-61" transform="translate(810.832031 0)"/>
      <use xlink:href="#DejaVuSans-72" transform="translate(872.111328 0)"/>
      <use xlink:href="#DejaVuSans-64" transform="translate(911.474609 0)"/>
     </g>
    </g>
   </g>
   <g id="line2d_14">
    <path d="M 78.781989 245.34 
L 114.905827 245.34 
L 115.10877 245.117863 
L 121.907358 245.117863 
L 122.110301 244.895727 
L 126.879459 244.895727 
L 127.082402 244.67359 
L 139.056034 244.67359 
L 139.258977 244.451454 
L 142.607535 244.451454 
L 142.810478 244.229317 
L 143.723721 244.229317 
L 143.926664 244.007181 
L 144.738436 244.007181 
L 144.941379 243.785044 
L 146.767865 243.785044 
L 147.072279 243.340771 
L 149.609066 243.340771 
L 149.812009 243.118635 
L 152.247324 243.118635 
L 152.450267 242.896498 
L 161.278283 242.896498 
L 161.481226 242.674362 
L 162.191527 242.674362 
L 162.39447 242.452225 
L 164.119484 242.452225 
L 164.322427 242.230088 
L 164.423899 242.230088 
L 164.626842 242.007952 
L 164.829784 242.007952 
L 165.032727 241.785815 
L 179.84756 241.785815 
L 180.050503 241.563679 
L 181.065218 241.563679 
L 181.268161 241.341542 
L 182.181404 241.341542 
L 182.384347 241.119406 
L 193.03885 241.119406 
L 193.241793 240.897269 
L 195.677108 240.897269 
L 195.88005 240.675133 
L 197.199179 240.675133 
L 197.402122 240.452997 
L 201.055095 240.452997 
L 201.258038 240.23086 
L 202.475695 240.23086 
L 202.678638 240.008724 
L 203.794824 240.008724 
L 203.997767 239.786588 
L 206.737496 239.786588 
L 206.940439 239.564451 
L 208.868397 239.564451 
L 209.07134 239.342315 
L 209.680169 239.342315 
L 209.883112 239.120179 
L 212.014012 239.120179 
L 212.216955 238.898043 
L 213.434613 238.898043 
L 213.637555 238.675906 
L 214.347856 238.675906 
L 214.550799 238.45377 
L 220.537615 238.45377 
L 220.740557 238.231634 
L 222.262629 238.231634 
L 222.465572 238.009497 
L 224.292058 238.009497 
L 224.495001 237.787361 
L 231.090646 237.787361 
L 231.293589 237.565225 
L 235.961276 237.565225 
L 236.164219 237.343089 
L 239.71572 237.343089 
L 239.918663 237.120952 
L 241.13632 237.120952 
L 241.339263 236.898816 
L 253.109952 236.898816 
L 253.414367 236.454543 
L 253.515838 236.454543 
L 253.718781 236.232407 
L 256.45851 236.232407 
L 256.661453 236.01027 
L 259.401183 236.01027 
L 259.604126 235.788134 
L 262.648269 235.788134 
L 262.952684 235.343861 
L 263.865927 235.343861 
L 264.170341 234.899589 
L 264.474756 234.899589 
L 264.677699 234.677452 
L 265.185056 234.677452 
L 265.387999 234.455316 
L 266.19977 234.455316 
L 266.402713 234.23318 
L 267.113014 234.23318 
L 267.315956 234.011044 
L 277.767517 234.011044 
L 277.970459 233.788907 
L 278.274874 233.788907 
L 278.477817 233.566771 
L 278.68076 233.566771 
L 278.883703 233.344635 
L 279.39106 233.344635 
L 279.594003 233.122498 
L 285.580819 233.122498 
L 285.783762 232.900362 
L 288.219077 232.900362 
L 288.42202 232.678226 
L 289.538206 232.678226 
L 289.84262 232.233953 
L 292.176463 232.233953 
L 292.379406 232.011817 
L 292.480878 232.011817 
L 292.683821 231.789681 
L 298.772108 231.789681 
L 298.975051 231.567544 
L 302.932438 231.567544 
L 303.135381 231.345408 
L 303.236852 231.345408 
L 303.439795 231.123272 
L 306.078053 231.123272 
L 306.280996 230.901135 
L 306.889825 230.901135 
L 307.092768 230.678999 
L 310.238383 230.678999 
L 310.542797 230.234726 
L 312.470755 230.234726 
L 312.673698 230.01259 
L 313.688412 230.01259 
L 313.891355 229.790454 
L 319.269343 229.790454 
L 319.472286 229.568318 
L 320.081114 229.568318 
L 320.284057 229.346181 
L 324.545858 229.346181 
L 324.748801 229.124045 
L 330.025317 229.124045 
L 330.329731 228.679772 
L 330.735617 228.679772 
L 330.93856 228.457636 
L 331.547389 228.457636 
L 331.750332 228.2355 
L 332.562104 228.2355 
L 332.866518 227.791227 
L 334.185647 227.791227 
L 334.38859 227.569091 
L 336.012133 227.569091 
L 336.215076 227.346955 
L 339.665106 227.346955 
L 339.868048 227.124817 
L 340.172463 227.124817 
L 340.375406 226.90268 
L 341.288649 226.90268 
L 341.491592 226.680543 
L 341.593063 226.680543 
L 341.796006 226.458405 
L 342.303363 226.458405 
L 342.506306 226.236268 
L 344.535735 226.236268 
L 344.738678 226.01413 
L 347.072522 226.01413 
L 347.275465 225.791993 
L 348.188708 225.791993 
L 348.391651 225.569856 
L 349.609308 225.569856 
L 349.812251 225.347718 
L 351.537266 225.347718 
L 351.740209 225.125581 
L 353.160809 225.125581 
L 353.363752 224.903444 
L 355.088767 224.903444 
L 355.29171 224.681306 
L 356.813782 224.681306 
L 357.016725 224.459169 
L 359.046154 224.459169 
L 359.249097 224.237032 
L 360.060868 224.237032 
L 360.263811 224.014894 
L 363.409427 224.014894 
L 363.612369 223.792757 
L 364.931498 223.792757 
L 365.134441 223.57062 
L 365.641799 223.57062 
L 365.844742 223.348482 
L 366.45357 223.348482 
L 366.656513 223.126345 
L 367.874171 223.126345 
L 368.077114 222.904207 
L 369.294771 222.904207 
L 369.497714 222.68207 
L 371.019786 222.68207 
L 371.222729 222.459933 
L 373.150686 222.459933 
L 373.353629 222.237795 
L 375.281587 222.237795 
L 375.48453 222.015658 
L 375.890416 222.015658 
L 376.093359 221.793521 
L 377.108073 221.793521 
L 377.311016 221.571383 
L 378.427202 221.571383 
L 378.630145 221.349246 
L 379.949274 221.349246 
L 380.152217 221.127109 
L 380.761046 221.127109 
L 380.963989 220.682836 
L 382.283118 220.682836 
L 382.486061 220.460699 
L 402.070052 220.460699 
L 402.272995 220.238561 
L 406.737739 220.238561 
L 407.042153 219.794289 
L 407.448039 219.794289 
L 407.650982 219.572153 
L 408.259811 219.572153 
L 408.462754 219.350016 
L 411.303954 219.350016 
L 411.506897 219.127879 
L 412.318669 219.127879 
L 412.521612 218.905744 
L 419.3202 218.905744 
L 419.523142 218.683606 
L 420.233443 218.683606 
L 420.436386 218.461469 
L 420.639328 218.461469 
L 420.842271 218.239334 
L 424.495244 218.239334 
L 424.799658 217.795061 
L 425.205544 217.795061 
L 425.408487 217.572924 
L 425.712901 217.572924 
L 425.915844 217.128651 
L 426.220259 217.128651 
L 426.423202 216.906514 
L 428.046745 216.906514 
L 428.249688 216.462241 
L 429.568817 216.462241 
L 429.77176 216.240104 
L 429.873231 216.240104 
L 430.076174 216.017968 
L 433.018846 216.017968 
L 433.221789 215.795831 
L 441.339506 215.795831 
L 441.542449 215.573696 
L 441.745392 215.573696 
L 441.948335 215.129421 
L 443.064521 215.129421 
L 443.267463 214.907286 
L 443.368935 214.907286 
L 443.571878 214.685151 
L 444.992478 214.685151 
L 445.195421 214.463013 
L 445.296893 214.463013 
L 445.499836 214.240876 
L 445.601307 214.240876 
L 445.80425 214.018741 
L 446.007193 214.018741 
L 446.210136 213.796605 
L 446.616022 213.796605 
L 446.818964 213.574468 
L 447.935151 213.574468 
L 448.239565 213.130196 
L 450.471937 213.130196 
L 450.67488 212.90806 
L 450.776351 212.90806 
L 450.979294 212.463786 
L 452.298423 212.463786 
L 452.501366 212.24165 
L 453.414609 212.24165 
L 453.617552 212.019513 
L 454.023438 212.019513 
L 454.226381 211.797378 
L 455.038153 211.797378 
L 455.342567 211.353103 
L 455.748453 211.353103 
L 455.951396 211.130968 
L 456.96611 211.130968 
L 457.169053 210.908833 
L 459.401425 210.908833 
L 459.604368 210.686695 
L 460.314668 210.686695 
L 460.517611 210.464558 
L 462.039683 210.464558 
L 462.242626 210.242423 
L 463.257341 210.242423 
L 463.460284 210.020287 
L 463.967641 210.020287 
L 464.170584 209.79815 
L 464.880884 209.79815 
L 465.083827 209.576013 
L 465.692656 209.576013 
L 465.895598 209.353875 
L 466.098541 209.353875 
L 466.301484 209.131742 
L 468.838271 209.131742 
L 469.041214 208.909605 
L 469.244157 208.909605 
L 469.447099 208.687467 
L 471.273586 208.687467 
L 471.476529 208.465334 
L 471.578 208.465334 
L 471.780943 208.243197 
L 471.882414 208.243197 
L 472.085357 208.02106 
L 472.2883 208.02106 
L 472.491243 207.798922 
L 472.9986 207.798922 
L 473.201543 207.576785 
L 474.216258 207.576785 
L 474.419201 207.354652 
L 475.230973 207.354652 
L 475.433915 207.132514 
L 475.535387 207.132514 
L 475.839801 206.688244 
L 477.361873 206.688244 
L 477.564816 206.466107 
L 479.086888 206.466107 
L 479.391302 206.021832 
L 479.594245 206.021832 
L 480.000131 205.355424 
L 480.101603 205.355424 
L 480.304545 205.133287 
L 481.826617 205.133287 
L 482.02956 204.911154 
L 482.232503 204.911154 
L 482.435446 204.689016 
L 482.638389 204.689016 
L 482.942803 204.244742 
L 483.145746 204.244742 
L 483.450161 203.800471 
L 483.653104 203.800471 
L 483.856046 203.578334 
L 484.160461 203.578334 
L 484.363404 203.356196 
L 485.47959 203.356196 
L 485.885476 202.689788 
L 486.088418 202.689788 
L 486.291361 202.245514 
L 486.697247 202.245514 
L 487.001662 201.801239 
L 488.320791 201.801239 
L 488.625205 201.356964 
L 489.842862 201.356964 
L 490.045805 200.912694 
L 491.06052 200.912694 
L 491.263463 200.690557 
L 491.466406 200.690557 
L 491.669349 200.468419 
L 491.973763 200.468419 
L 492.176706 200.246282 
L 492.278177 200.246282 
L 492.48112 200.024144 
L 492.887006 200.024144 
L 493.089949 199.802007 
L 494.916435 199.802007 
L 495.119378 199.57987 
L 495.22085 199.57987 
L 495.423793 199.135599 
L 496.844393 199.135599 
L 497.047336 198.913458 
L 497.250279 198.913458 
L 497.453222 198.691325 
L 497.554693 198.691325 
L 497.757636 198.469183 
L 500.80178 198.469183 
L 501.004723 198.024912 
L 501.207666 198.024912 
L 501.51208 197.580638 
L 501.917966 197.580638 
L 502.22238 197.136363 
L 503.237095 197.136363 
L 503.541509 196.247818 
L 503.744452 196.247818 
L 503.947395 196.02568 
L 505.773881 196.02568 
L 506.078296 195.581406 
L 506.38271 195.581406 
L 506.890067 194.692856 
L 507.194482 194.692856 
L 507.498896 194.248582 
L 508.310668 194.248582 
L 508.615082 193.360036 
L 509.122439 193.360036 
L 509.426854 192.915762 
L 510.54304 192.915762 
L 510.847454 192.471487 
L 511.050397 192.471487 
L 511.25334 192.24935 
L 511.354811 192.24935 
L 511.557754 192.027212 
L 511.862169 192.027212 
L 512.166583 191.582938 
L 512.470997 191.582938 
L 512.67394 191.3608 
L 513.282769 191.3608 
L 513.485712 190.91653 
L 514.500427 190.91653 
L 514.804841 190.472255 
L 515.41367 190.472255 
L 515.616613 190.250113 
L 515.718084 190.250113 
L 515.921027 190.02798 
L 516.12397 190.02798 
L 516.326913 189.583706 
L 516.631327 189.583706 
L 516.935742 188.69516 
L 518.153399 188.69516 
L 518.356342 188.473023 
L 518.762228 188.473023 
L 518.965171 188.250886 
L 519.979885 188.250886 
L 520.182828 188.028748 
L 520.9946 188.028748 
L 521.197543 187.806611 
L 521.299014 187.806611 
L 521.501957 187.584474 
L 521.603429 187.584474 
L 521.907843 187.140199 
L 522.618143 187.140199 
L 523.024029 186.473787 
L 523.226972 186.473787 
L 523.429915 186.25165 
L 523.632858 186.25165 
L 523.937272 185.807375 
L 524.749044 185.807375 
L 525.053458 185.3631 
L 525.662287 185.3631 
L 525.86523 185.140963 
L 525.966701 185.140963 
L 526.169644 184.918825 
L 526.372587 184.918825 
L 526.57553 184.252418 
L 527.387302 184.252418 
L 527.590245 183.586001 
L 528.402016 183.586001 
L 528.604959 183.363868 
L 529.010845 183.363868 
L 529.213788 183.141727 
L 529.416731 183.141727 
L 529.619674 182.919593 
L 529.721145 182.919593 
L 529.924088 182.475319 
L 530.228502 182.475319 
L 530.532917 181.364628 
L 531.141746 181.364628 
L 531.344688 181.142495 
L 531.852046 181.142495 
L 532.054989 180.920353 
L 532.460875 180.920353 
L 532.663817 180.69822 
L 533.069703 180.69822 
L 533.272646 180.476078 
L 533.374118 180.476078 
L 533.678532 180.031804 
L 534.490304 180.031804 
L 534.794718 179.587529 
L 535.505018 179.587529 
L 535.707961 179.143254 
L 536.215318 179.143254 
L 536.418261 178.921121 
L 536.722676 178.921121 
L 536.925619 178.698979 
L 537.02709 178.698979 
L 537.230033 178.476846 
L 537.635919 178.476846 
L 537.838862 178.254705 
L 537.940333 178.254705 
L 538.143276 178.032572 
L 538.346219 178.032572 
L 538.650633 177.588297 
L 540.071234 177.588297 
L 540.274177 177.144022 
L 540.578591 177.144022 
L 540.781534 176.921881 
L 541.288891 176.921881 
L 541.593306 176.477606 
L 541.89772 176.477606 
L 542.100663 176.255473 
L 542.202134 176.255473 
L 542.405077 176.033331 
L 542.506549 176.033331 
L 542.709492 175.366923 
L 543.115378 175.366923 
L 543.419792 174.922649 
L 543.622735 174.922649 
L 543.927149 174.478374 
L 544.130092 174.478374 
L 544.333035 174.034099 
L 544.535978 173.811958 
L 544.637449 173.811958 
L 544.840392 173.589824 
L 544.941864 173.589824 
L 545.144807 173.367683 
L 545.855107 173.367683 
L 546.05805 173.14555 
L 546.666879 173.14555 
L 547.072764 172.479133 
L 547.681593 172.479133 
L 547.986007 172.034859 
L 548.290422 172.034859 
L 548.594836 171.590584 
L 548.899251 171.590584 
L 549.102194 171.368451 
L 549.711022 171.368451 
L 549.913965 170.924176 
L 550.015437 170.924176 
L 550.522794 170.035627 
L 550.624265 170.035627 
L 550.827208 169.813485 
L 551.334566 169.813485 
L 551.63898 169.36921 
L 551.943394 169.36921 
L 552.247809 168.924936 
L 552.653695 168.924936 
L 552.856637 168.702803 
L 552.958109 168.702803 
L 553.161052 168.258528 
L 553.363995 168.036386 
L 553.871352 168.036386 
L 554.074295 167.814253 
L 554.784595 167.814253 
L 554.987538 167.369978 
L 555.190481 167.369978 
L 555.393424 167.147837 
L 555.79931 167.147837 
L 556.205196 166.481429 
L 556.306667 166.481429 
L 556.50961 166.259287 
L 557.321382 166.259287 
L 557.524324 166.037154 
L 557.828739 166.037154 
L 558.133153 165.59288 
L 558.336096 165.59288 
L 558.640511 164.70433 
L 558.944925 164.260055 
L 559.655225 164.260055 
L 559.858168 164.037914 
L 560.162582 164.037914 
L 560.365525 163.593639 
L 560.466997 163.593639 
L 560.66994 163.371506 
L 561.075825 163.371506 
L 561.278768 162.927231 
L 561.481711 162.927231 
L 561.786126 162.482957 
L 562.192012 162.482957 
L 562.496426 162.038682 
L 562.597897 162.038682 
L 562.902312 161.594407 
L 563.003783 161.594407 
L 563.409669 160.927991 
L 564.018498 160.927991 
L 564.221441 160.705858 
L 564.525855 160.705858 
L 564.830269 160.261583 
L 565.134684 160.261583 
L 565.337627 160.039441 
L 565.642041 160.039441 
L 565.946455 159.595167 
L 566.758227 159.595167 
L 566.96117 159.373034 
L 567.265584 159.373034 
L 567.468527 158.928759 
L 567.569999 158.928759 
L 567.772942 158.706617 
L 568.178828 158.706617 
L 568.38177 158.484484 
L 568.483242 158.484484 
L 568.686185 158.262343 
L 569.295014 158.262343 
L 569.497956 158.040209 
L 570.005314 158.040209 
L 570.208257 157.818068 
L 570.4112 157.818068 
L 570.614142 157.373793 
L 571.527386 157.373793 
L 571.730329 157.15166 
L 572.034743 157.15166 
L 572.339157 156.707385 
L 572.5421 156.707385 
L 572.846515 155.818836 
L 572.947986 155.818836 
L 573.2524 155.374561 
L 573.759758 155.374561 
L 573.962701 154.708145 
L 574.064172 154.708145 
L 574.267115 154.486012 
L 574.470058 154.486012 
L 574.673001 154.041737 
L 574.774472 154.041737 
L 575.078887 153.597462 
L 575.180358 153.597462 
L 575.383301 153.375321 
L 575.890658 153.375321 
L 576.093601 153.153188 
L 576.398016 153.153188 
L 576.600958 152.708913 
L 576.70243 152.708913 
L 576.905373 152.486771 
L 577.108316 152.486771 
L 577.41273 152.042497 
L 577.514202 152.042497 
L 577.717144 151.820363 
L 578.224502 151.820363 
L 578.427445 151.598222 
L 578.630388 151.598222 
L 578.833331 151.376089 
L 578.934802 151.376089 
L 579.137745 150.931814 
L 579.340688 150.709672 
L 580.050988 150.709672 
L 580.253931 150.487539 
L 580.355402 150.487539 
L 580.86276 149.59899 
L 581.065703 149.59899 
L 581.268646 149.376857 
L 581.978946 149.376857 
L 582.181889 149.154724 
L 582.486303 149.154724 
L 582.892189 148.488316 
L 583.602489 148.488316 
L 583.805432 148.266183 
L 584.211318 148.266183 
L 584.414261 147.821908 
L 585.124561 147.821908 
L 585.327504 147.599775 
L 585.428975 147.599775 
L 585.73339 147.155509 
L 585.834861 147.155509 
L 586.037804 146.933375 
L 586.44369 146.933375 
L 586.646633 146.266968 
L 586.748104 146.266968 
L 586.951047 146.044835 
L 587.356933 146.044835 
L 587.559876 145.822701 
L 587.661347 145.822701 
L 587.86429 145.600568 
L 588.371648 145.600568 
L 588.676062 145.156302 
L 589.792248 145.156302 
L 590.198134 144.489894 
L 590.60402 144.489894 
L 590.806962 144.267761 
L 591.212848 144.267761 
L 591.415791 143.601353 
L 591.720206 143.601353 
L 591.923149 143.157079 
L 592.02462 143.157079 
L 592.227563 142.934945 
L 592.937863 142.934945 
L 593.242277 142.490679 
L 593.44522 142.490679 
L 593.648163 142.268546 
L 593.749635 142.268546 
L 593.952578 142.046413 
L 594.155521 142.046413 
L 594.358464 141.82428 
L 594.662878 141.82428 
L 594.865821 141.157872 
L 595.373178 141.157872 
L 595.677592 140.713606 
L 596.489364 140.713606 
L 596.692307 140.269331 
L 596.793778 140.269331 
L 596.996721 140.047198 
L 597.098193 140.047198 
L 597.504079 139.380799 
L 597.60555 139.380799 
L 597.808493 139.158665 
L 598.011436 139.158665 
L 598.214379 138.714391 
L 598.518793 138.714391 
L 598.721736 138.492258 
L 598.823208 138.492258 
L 599.026151 138.270124 
L 599.330565 138.270124 
L 599.634979 137.159442 
L 600.142337 137.159442 
L 600.345279 136.937309 
L 600.548222 136.937309 
L 600.852637 136.493043 
L 601.461466 136.493043 
L 601.664408 136.048768 
L 602.171766 136.048768 
L 602.374709 135.826635 
L 602.679123 135.826635 
L 602.882066 135.604502 
L 603.18648 135.604502 
L 603.389423 135.382369 
L 603.490895 135.382369 
L 603.693838 135.160235 
L 604.201195 135.160235 
L 604.505609 134.715969 
L 604.607081 134.715969 
L 604.810024 134.049561 
L 605.418852 134.049561 
L 605.621795 133.827428 
L 606.129153 133.827428 
L 606.535038 133.16102 
L 606.737981 133.16102 
L 607.143867 132.494621 
L 607.549753 132.494621 
L 607.752696 132.272488 
L 607.854167 132.272488 
L 608.158582 131.828222 
L 609.071825 131.828222 
L 609.477711 131.161822 
L 609.985068 131.161822 
L 610.289482 130.717556 
L 610.492425 130.717556 
L 610.695368 130.495423 
L 611.202725 130.495423 
L 611.405668 129.829015 
L 611.608611 129.829015 
L 611.811554 129.162607 
L 612.115969 129.162607 
L 612.521854 128.496199 
L 612.826269 128.496199 
L 613.232155 127.8298 
L 613.536569 127.8298 
L 613.840983 127.385534 
L 614.043926 127.385534 
L 614.348341 126.941268 
L 614.449812 126.941268 
L 614.652755 126.719134 
L 615.261584 126.719134 
L 615.464527 126.497001 
L 615.870412 126.497001 
L 616.37777 125.60846 
L 617.08807 125.60846 
L 617.392484 125.164194 
L 617.595427 125.164194 
L 618.305727 123.831395 
L 618.407199 123.831395 
L 618.610142 123.609262 
L 618.711613 123.609262 
L 618.914556 123.387129 
L 620.132214 123.387129 
L 620.335157 123.164996 
L 620.5381 123.164996 
L 620.741042 122.720721 
L 620.842514 122.720721 
L 621.045457 122.498588 
L 621.146928 122.498588 
L 621.552814 121.832189 
L 621.755757 121.832189 
L 622.060171 121.387923 
L 622.364586 121.387923 
L 622.567529 120.943648 
L 622.973414 120.277249 
L 623.683715 120.277249 
L 623.886658 120.055115 
L 624.901372 120.055115 
L 625.611672 118.722308 
L 625.916087 118.722308 
L 626.220501 118.278042 
L 627.133744 118.278042 
L 627.336687 118.055909 
L 627.844044 118.055909 
L 628.046987 117.611634 
L 628.148459 117.611634 
L 628.351402 117.389501 
L 628.858759 117.389501 
L 629.061702 117.167368 
L 629.366116 117.167368 
L 629.569059 116.945235 
L 629.670531 116.945235 
L 630.076416 116.278835 
L 630.685245 116.278835 
L 630.888188 116.056702 
L 631.497017 116.056702 
L 631.69996 115.834569 
L 632.004374 115.834569 
L 632.207317 115.612436 
L 632.308789 115.612436 
L 632.714674 114.946028 
L 633.12056 114.946028 
L 633.424975 114.501762 
L 634.033803 114.501762 
L 634.236746 114.279629 
L 634.439689 114.279629 
L 635.048518 113.168955 
L 635.352932 113.168955 
L 635.555875 112.946822 
L 635.961761 112.946822 
L 636.266175 112.502555 
L 636.976476 112.502555 
L 637.179419 112.280422 
L 637.382361 112.280422 
L 637.686776 111.836156 
L 637.99119 111.836156 
L 638.194133 111.614023 
L 638.70149 111.614023 
L 638.904433 111.39189 
L 639.107376 111.39189 
L 639.310319 110.947615 
L 640.122091 110.947615 
L 640.325034 110.725482 
L 640.426505 110.725482 
L 640.629448 110.281207 
L 640.933862 110.281207 
L 641.136805 110.059074 
L 641.238277 110.059074 
L 641.644163 109.392666 
L 642.354463 109.392666 
L 642.557406 109.170533 
L 642.963292 109.170533 
L 643.166234 108.504125 
L 643.876535 108.504125 
L 644.383892 107.615593 
L 644.789778 107.615593 
L 644.992721 107.39346 
L 645.297135 107.39346 
L 645.601549 106.949194 
L 646.31185 106.949194 
L 646.514793 106.72706 
L 647.123621 106.72706 
L 647.428036 106.282794 
L 647.630979 106.282794 
L 647.833922 106.060661 
L 648.036864 106.060661 
L 648.44275 105.394262 
L 648.544222 105.394262 
L 649.051579 104.505729 
L 649.254522 104.505729 
L 649.558936 104.061463 
L 649.761879 104.061463 
L 650.167765 103.395064 
L 650.573651 103.395064 
L 650.979537 102.728656 
L 651.081008 102.728656 
L 651.283951 102.506523 
L 651.791308 102.506523 
L 652.197194 101.840123 
L 652.400137 101.840123 
L 652.60308 101.61799 
L 653.414852 101.61799 
L 653.922209 100.729458 
L 654.531038 100.729458 
L 655.139866 99.618775 
L 655.850167 99.618775 
L 656.256052 98.952376 
L 656.357524 98.952376 
L 656.560467 98.730243 
L 656.966353 98.730243 
L 657.47371 97.84171 
L 657.981067 97.84171 
L 658.18401 97.619577 
L 658.488425 97.619577 
L 658.792839 97.175311 
L 659.097253 97.175311 
L 659.300196 96.953178 
L 659.706082 96.953178 
L 659.909025 96.731045 
L 660.010496 96.731045 
L 660.213439 96.508912 
L 660.619325 96.508912 
L 660.822268 96.286778 
L 661.126682 96.286778 
L 661.329625 95.842495 
L 661.735511 95.176096 
L 661.836983 95.176096 
L 662.039926 94.953963 
L 663.257583 94.953963 
L 663.76494 94.06543 
L 663.866412 94.06543 
L 664.069355 93.843297 
L 664.373769 93.843297 
L 664.576712 93.621164 
L 664.678183 93.621164 
L 664.881126 93.399031 
L 665.591427 93.399031 
L 665.794369 92.954748 
L 665.997312 92.954748 
L 666.301727 92.510481 
L 667.012027 92.510481 
L 667.21497 92.288348 
L 667.316441 92.288348 
L 667.620856 91.844082 
L 667.823799 91.844082 
L 668.026742 91.399816 
L 668.229684 91.399816 
L 668.432627 91.177683 
L 668.534099 91.177683 
L 668.737042 90.95555 
L 668.838513 90.95555 
L 669.244399 90.28915 
L 669.34587 90.28915 
L 669.548813 90.067017 
L 670.360585 90.067017 
L 670.766471 89.400618 
L 671.172357 89.400618 
L 671.3753 89.178485 
L 671.781185 89.178485 
L 671.984128 88.956352 
L 672.694429 88.956352 
L 672.998843 88.512085 
L 673.100314 88.512085 
L 673.5062 87.845686 
L 673.912086 87.845686 
L 674.2165 87.40142 
L 674.723858 87.40142 
L 674.926801 87.179287 
L 675.332686 87.179287 
L 675.535629 86.735003 
L 675.941515 86.068604 
L 676.347401 86.068604 
L 676.550344 85.624338 
L 676.753287 85.624338 
L 677.159173 84.957938 
L 677.362116 84.957938 
L 677.565059 84.735805 
L 677.66653 84.735805 
L 677.869473 84.069389 
L 678.072416 84.069389 
L 678.37683 83.625123 
L 678.985659 83.625123 
L 679.391545 82.958723 
L 679.898902 82.958723 
L 680.507731 81.848058 
L 681.218031 81.848058 
L 681.420974 81.625925 
L 681.522445 81.625925 
L 681.82686 81.181658 
L 682.232746 81.181658 
L 682.435688 80.959525 
L 682.943046 80.959525 
L 683.24746 80.515259 
L 683.551875 80.515259 
L 683.856289 80.070993 
L 684.566589 80.070993 
L 684.769532 79.62671 
L 685.073946 79.62671 
L 685.479832 78.96031 
L 685.682775 78.96031 
L 686.190132 78.071778 
L 687.103376 78.071778 
L 687.306318 77.849645 
L 687.40779 77.849645 
L 687.509261 77.627512 
L 687.509261 77.627512 
" clip-path="url(#p46ce427110)" style="fill: none; stroke: #1f77b4; stroke-width: 1.5; stroke-linecap: square"/>
   </g>
   <g id="line2d_15">
    <path d="M 78.781989 245.34 
L 203.388938 245.34 
L 203.591881 245.117863 
L 211.20224 245.117863 
L 211.405183 244.895727 
L 228.55386 244.895727 
L 228.756803 244.67359 
L 241.745149 244.67359 
L 241.948092 244.451454 
L 245.702536 244.451454 
L 245.905479 244.229317 
L 252.501124 244.229317 
L 252.704067 244.007181 
L 266.19977 244.007181 
L 266.402713 243.785044 
L 271.171872 243.785044 
L 271.374815 243.562908 
L 274.013073 243.562908 
L 274.216016 243.340771 
L 277.767517 243.340771 
L 277.970459 243.118635 
L 286.088176 243.118635 
L 286.291119 242.896498 
L 290.451449 242.896498 
L 290.654392 242.674362 
L 294.916193 242.674362 
L 295.119136 242.452225 
L 298.061808 242.452225 
L 298.264751 242.230088 
L 306.686882 242.230088 
L 306.889825 242.007952 
L 316.022256 242.007952 
L 316.225199 241.785815 
L 322.110543 241.785815 
L 322.313486 241.563679 
L 322.617901 241.563679 
L 322.820844 241.341542 
L 332.359161 241.341542 
L 332.562104 241.119406 
L 332.765046 241.119406 
L 332.967989 240.897269 
L 338.853334 240.897269 
L 339.056277 240.675133 
L 342.912192 240.675133 
L 343.115135 240.452997 
L 347.884294 240.452997 
L 348.087236 240.23086 
L 352.349038 240.23086 
L 352.551981 240.008724 
L 358.031439 240.008724 
L 358.234382 239.786588 
L 360.87264 239.786588 
L 361.075583 239.564451 
L 361.58294 239.564451 
L 361.785883 239.342315 
L 363.105012 239.342315 
L 363.307955 239.120179 
L 363.612369 239.120179 
L 363.815312 238.898043 
L 376.600716 238.898043 
L 376.803659 238.675906 
L 377.006602 238.675906 
L 377.209545 238.45377 
L 377.716902 238.45377 
L 377.919845 238.231634 
L 379.441917 238.231634 
L 379.64486 238.009497 
L 382.587532 238.009497 
L 382.790475 237.787361 
L 388.168462 237.787361 
L 388.371405 237.565225 
L 389.284648 237.565225 
L 389.487591 237.343088 
L 393.242035 237.343088 
L 393.444978 237.120952 
L 395.271464 237.120952 
L 395.474407 236.898815 
L 397.503836 236.898815 
L 397.706779 236.676679 
L 399.12738 236.676679 
L 399.330322 236.454542 
L 404.606838 236.454542 
L 404.809781 236.232405 
L 412.521612 236.232405 
L 412.724555 236.010269 
L 415.362813 236.010269 
L 415.565756 235.788132 
L 416.073113 235.788132 
L 416.276056 235.565995 
L 425.205544 235.565995 
L 425.408487 235.343859 
L 427.640859 235.343859 
L 427.843802 235.121723 
L 429.264402 235.121723 
L 429.467345 234.899587 
L 429.568817 234.899587 
L 429.77176 234.677449 
L 429.873231 234.677449 
L 430.076174 234.455313 
L 431.395303 234.455313 
L 431.598246 234.233177 
L 433.018846 234.233177 
L 433.221789 234.011039 
L 439.005662 234.011039 
L 439.208605 233.788903 
L 440.121848 233.788903 
L 440.324791 233.566767 
L 441.846863 233.566767 
L 442.049806 233.34463 
L 442.35422 233.34463 
L 442.557163 233.122494 
L 446.311607 233.122494 
L 446.51455 232.900358 
L 448.645451 232.900358 
L 448.848394 232.678222 
L 449.761637 232.678222 
L 450.066051 232.233949 
L 452.704309 232.233949 
L 452.907252 232.011813 
L 453.008723 232.011813 
L 453.211666 231.789676 
L 456.154339 231.789676 
L 456.357281 231.56754 
L 458.183768 231.56754 
L 458.488182 231.123267 
L 461.024969 231.123267 
L 461.227911 230.901131 
L 461.329383 230.901131 
L 461.633797 230.456859 
L 461.735269 230.456859 
L 461.938212 230.012586 
L 463.155869 230.012586 
L 463.358812 229.790449 
L 463.561755 229.790449 
L 463.764698 229.568313 
L 465.794127 229.568313 
L 465.99707 229.346176 
L 467.620613 229.346176 
L 467.823556 229.124041 
L 468.736799 229.124041 
L 468.939742 228.901903 
L 470.461814 228.901903 
L 470.664757 228.679768 
L 471.172114 228.679768 
L 471.476529 228.235496 
L 472.592715 228.235496 
L 472.795658 228.013358 
L 473.810372 228.013358 
L 474.114787 227.569086 
L 475.535387 227.569086 
L 475.73833 227.34695 
L 475.941273 227.34695 
L 476.144216 227.124813 
L 476.44863 227.124813 
L 476.651573 226.902678 
L 478.782474 226.902678 
L 478.985416 226.68054 
L 479.391302 226.68054 
L 479.594245 226.458405 
L 479.89866 226.458405 
L 480.101603 226.236268 
L 481.623674 226.236268 
L 481.826617 226.014133 
L 482.638389 226.014133 
L 482.841332 225.791995 
L 483.145746 225.791995 
L 483.348689 225.56986 
L 484.566347 225.56986 
L 484.76929 225.347723 
L 485.073704 225.347723 
L 485.378118 224.90345 
L 485.885476 224.90345 
L 486.088418 224.681315 
L 486.494304 224.681315 
L 486.798719 224.237042 
L 487.204605 224.237042 
L 487.407547 224.014905 
L 488.117848 224.014905 
L 488.320791 223.79277 
L 488.625205 223.79277 
L 488.828148 223.570632 
L 489.234034 223.570632 
L 489.538448 223.12636 
L 490.045805 223.12636 
L 490.248748 222.904224 
L 492.176706 222.904224 
L 492.48112 222.459952 
L 493.191421 222.459952 
L 493.394363 222.237814 
L 494.612021 222.237814 
L 494.814964 221.793542 
L 495.322321 221.793542 
L 495.525264 221.571407 
L 496.64145 221.571407 
L 496.844393 221.349269 
L 497.453222 221.349269 
L 497.757636 220.904997 
L 498.467936 220.904997 
L 498.670879 220.682861 
L 499.787065 220.682861 
L 499.990008 220.460724 
L 500.395894 220.460724 
L 500.598837 220.238589 
L 501.207666 220.238589 
L 501.715023 219.350042 
L 502.120909 219.350042 
L 502.425323 218.905767 
L 502.628266 218.905767 
L 502.831209 218.683629 
L 503.237095 218.683629 
L 503.440038 218.461492 
L 503.845924 218.461492 
L 504.150338 218.017217 
L 504.251809 218.017217 
L 504.454752 217.572945 
L 504.759167 217.572945 
L 504.96211 217.350807 
L 505.165052 217.350807 
L 505.367995 217.12867 
L 505.469467 217.12867 
L 505.67241 216.906533 
L 506.078296 216.906533 
L 506.281239 216.684395 
L 506.788596 216.684395 
L 507.194482 216.017983 
L 507.600367 216.017983 
L 507.80331 215.795846 
L 508.412139 215.795846 
L 508.615082 215.573709 
L 508.919496 215.573709 
L 509.122439 215.351571 
L 509.325382 215.351571 
L 509.528325 214.907299 
L 509.629797 214.907299 
L 509.83274 214.685161 
L 510.137154 214.685161 
L 510.340097 214.463024 
L 510.54304 214.463024 
L 511.050397 213.574474 
L 511.151868 213.574474 
L 511.354811 213.352337 
L 513.384241 213.352337 
L 513.790126 212.685925 
L 514.804841 212.685925 
L 515.007784 212.463788 
L 515.210727 212.463788 
L 515.41367 212.24165 
L 516.022498 212.24165 
L 516.529856 211.353101 
L 516.83427 211.353101 
L 517.138684 210.908826 
L 517.747513 210.908826 
L 518.153399 210.242414 
L 518.559285 210.242414 
L 519.168114 209.131729 
L 519.675471 209.131729 
L 519.878414 208.909592 
L 520.182828 208.909592 
L 520.385771 208.465317 
L 520.893128 208.465317 
L 521.096071 208.24318 
L 521.501957 208.24318 
L 521.7049 208.021043 
L 521.806371 208.021043 
L 522.009314 207.576772 
L 522.110786 207.576772 
L 522.313729 207.354635 
L 523.024029 207.354635 
L 523.226972 207.132497 
L 523.835801 207.132497 
L 524.241686 206.466085 
L 524.546101 206.466085 
L 524.850515 206.021811 
L 525.256401 206.021811 
L 525.459344 205.799673 
L 525.560815 205.799673 
L 526.068173 204.911124 
L 526.981416 204.911124 
L 527.184359 204.688987 
L 527.488773 204.688987 
L 527.691716 204.022579 
L 527.894659 204.022579 
L 528.199073 203.578304 
L 528.706431 203.578304 
L 528.909374 203.356167 
L 529.924088 203.356167 
L 530.329974 202.689755 
L 530.431445 202.689755 
L 530.837331 202.023343 
L 530.938803 202.023343 
L 531.141746 201.801205 
L 531.243217 201.801205 
L 531.44616 201.579068 
L 531.649103 201.579068 
L 531.953517 201.134793 
L 532.460875 201.134793 
L 532.765289 200.690518 
L 532.86676 200.690518 
L 533.069703 200.024106 
L 533.577061 200.024106 
L 533.780003 199.801969 
L 534.185889 199.801969 
L 534.388832 199.579832 
L 534.896189 199.579832 
L 535.403547 198.691282 
L 536.113847 198.691282 
L 536.519733 198.02487 
L 536.722676 198.02487 
L 537.02709 197.580595 
L 537.534447 197.580595 
L 537.940333 196.914183 
L 538.346219 196.914183 
L 538.549162 196.692046 
L 538.853576 196.692046 
L 539.056519 196.469909 
L 539.157991 196.469909 
L 539.462405 195.581359 
L 540.071234 195.581359 
L 540.274177 194.914947 
L 540.47712 194.914947 
L 540.680063 194.69281 
L 540.984477 194.69281 
L 541.18742 194.026398 
L 541.390363 194.026398 
L 541.694777 193.582123 
L 541.796249 193.582123 
L 542.202134 192.915711 
L 543.115378 192.915711 
L 543.31832 192.693574 
L 543.419792 192.693574 
L 543.622735 192.027161 
L 543.825678 191.582887 
L 544.130092 191.582887 
L 544.434506 191.138612 
L 544.535978 191.138612 
L 544.738921 190.694337 
L 544.840392 190.694337 
L 545.043335 190.4722 
L 545.956578 190.4722 
L 546.159521 190.027925 
L 546.463936 190.027925 
L 546.76835 189.583651 
L 546.869821 189.583651 
L 547.072764 189.361513 
L 547.275707 189.361513 
L 547.580122 188.917238 
L 547.986007 188.917238 
L 548.290422 188.472964 
L 548.493365 188.472964 
L 549.000722 187.584414 
L 549.203665 187.584414 
L 549.609551 186.918002 
L 549.812494 186.918002 
L 550.015437 186.695865 
L 550.319851 186.695865 
L 551.030151 185.363041 
L 551.131623 185.363041 
L 551.537508 184.696629 
L 551.63898 184.696629 
L 551.943394 184.252354 
L 552.044866 184.252354 
L 552.247809 183.585946 
L 552.958109 183.585946 
L 553.262523 183.141671 
L 553.363995 183.141671 
L 553.668409 182.697397 
L 554.175766 182.697397 
L 554.480181 181.808847 
L 554.987538 180.920298 
L 555.291952 180.920298 
L 555.494895 180.698161 
L 555.79931 180.698161 
L 556.002253 180.476023 
L 556.205196 180.476023 
L 556.408138 180.031748 
L 556.611081 180.031748 
L 556.814024 179.365336 
L 557.016967 179.365336 
L 557.21991 178.921062 
L 557.321382 178.921062 
L 557.625796 178.032512 
L 557.828739 177.810375 
L 557.93021 177.810375 
L 558.133153 177.143963 
L 558.336096 177.143963 
L 558.640511 176.699688 
L 559.046396 176.699688 
L 559.249339 176.477551 
L 559.553754 176.477551 
L 560.264054 175.144727 
L 560.365525 175.144727 
L 560.66994 174.700452 
L 560.771411 174.700452 
L 560.974354 174.478315 
L 561.075825 174.478315 
L 561.481711 173.811907 
L 561.989069 173.811907 
L 562.597897 172.701216 
L 562.80084 172.701216 
L 563.105255 171.812666 
L 563.308198 171.590533 
L 563.409669 171.590533 
L 563.612612 170.924117 
L 564.119969 170.924117 
L 564.322912 170.701984 
L 564.728798 170.701984 
L 565.033212 170.257709 
L 565.134684 170.257709 
L 565.439098 169.813434 
L 565.54057 169.813434 
L 565.743513 169.591293 
L 565.844984 169.591293 
L 566.047927 169.147018 
L 566.149398 169.147018 
L 566.555284 168.48061 
L 567.265584 168.48061 
L 567.569999 168.036335 
L 567.67147 168.036335 
L 567.975885 167.592061 
L 568.178828 167.592061 
L 569.193542 165.592846 
L 569.802371 165.592846 
L 570.817085 163.593631 
L 571.020028 163.593631 
L 571.222971 163.371498 
L 571.527386 163.371498 
L 571.730329 162.70509 
L 571.933271 162.70509 
L 572.136214 162.482957 
L 572.237686 162.482957 
L 572.440629 162.260823 
L 572.5421 162.260823 
L 572.745043 162.03869 
L 573.049457 162.03869 
L 573.353872 161.594424 
L 573.455343 161.594424 
L 574.267115 160.039484 
L 574.368586 160.039484 
L 574.673001 159.595218 
L 574.774472 159.595218 
L 575.078887 159.150951 
L 575.789187 159.150951 
L 576.499487 157.818144 
L 576.905373 157.818144 
L 577.311259 157.151745 
L 577.41273 157.151745 
L 577.615673 156.485337 
L 577.818616 156.485337 
L 578.021559 155.818929 
L 578.427445 155.818929 
L 578.630388 155.374654 
L 578.833331 155.152521 
L 579.036273 155.152521 
L 579.340688 154.708255 
L 579.543631 154.708255 
L 579.746574 154.041847 
L 580.050988 154.041847 
L 580.86276 152.486898 
L 581.167174 152.486898 
L 581.370117 152.042624 
L 581.776003 152.042624 
L 581.978946 151.820491 
L 582.181889 151.820491 
L 582.587774 151.154083 
L 582.99366 151.154083 
L 583.196603 150.709816 
L 583.399546 150.043409 
L 583.501018 150.043409 
L 584.008375 149.154868 
L 584.109846 149.154868 
L 584.312789 148.48846 
L 584.414261 148.48846 
L 584.617204 148.266327 
L 584.921618 148.266327 
L 585.124561 147.822052 
L 585.530447 147.822052 
L 585.936333 147.155653 
L 586.037804 147.155653 
L 586.240747 146.93352 
L 586.342218 146.93352 
L 586.748104 146.26712 
L 586.849576 146.26712 
L 587.15399 145.378579 
L 587.255461 145.378579 
L 587.458404 144.712171 
L 587.559876 144.490038 
L 587.762819 143.601497 
L 588.168705 143.601497 
L 588.57459 142.935098 
L 588.777533 142.935098 
L 588.980476 142.712965 
L 589.284891 142.712965 
L 589.589305 142.268699 
L 589.690776 142.268699 
L 589.893719 141.824424 
L 590.401077 140.935883 
L 590.502548 140.935883 
L 590.705491 140.491608 
L 591.009905 140.491608 
L 591.31432 139.603067 
L 591.517263 139.603067 
L 591.720206 139.380934 
L 591.923149 139.380934 
L 592.126091 139.158801 
L 592.227563 139.158801 
L 592.531977 138.714535 
L 592.633449 138.714535 
L 592.836392 138.27026 
L 592.937863 138.27026 
L 593.140806 138.048127 
L 593.44522 138.048127 
L 593.648163 137.825994 
L 593.952578 137.825994 
L 594.155521 137.159586 
L 594.256992 137.159586 
L 594.358464 136.937453 
L 594.561406 135.82677 
L 595.170235 135.82677 
L 595.576121 135.160371 
L 595.779064 135.160371 
L 596.387893 134.049705 
L 596.590836 134.049705 
L 596.793778 133.827572 
L 596.996721 133.827572 
L 597.402607 133.161173 
L 597.60555 133.161173 
L 597.808493 132.494765 
L 598.112907 132.494765 
L 598.924679 130.939825 
L 599.026151 130.939825 
L 599.432036 130.273425 
L 599.533508 130.273425 
L 599.837922 129.829159 
L 599.939394 129.829159 
L 600.142337 129.607026 
L 600.243808 129.607026 
L 600.446751 129.384893 
L 600.548222 129.384893 
L 600.852637 128.27421 
L 601.258523 128.27421 
L 601.562937 127.385669 
L 601.76588 126.941395 
L 601.867351 126.941395 
L 602.070294 126.719262 
L 602.171766 126.719262 
L 602.47618 126.274995 
L 602.577652 126.274995 
L 602.780594 126.052862 
L 602.983537 126.052862 
L 603.18648 125.830729 
L 603.287952 125.830729 
L 603.490895 124.720047 
L 603.592366 124.720047 
L 603.795309 124.497913 
L 603.89678 124.497913 
L 604.099723 124.27578 
L 604.201195 124.27578 
L 604.708552 123.387248 
L 604.911495 123.387248 
L 605.114438 123.165115 
L 605.317381 123.165115 
L 605.520324 122.942982 
L 605.621795 122.942982 
L 605.92621 122.498715 
L 606.230624 122.498715 
L 607.854167 119.166685 
L 608.05711 119.166685 
L 608.361525 118.722418 
L 609.376239 118.722418 
L 609.680654 118.278152 
L 609.782125 118.278152 
L 609.985068 118.056019 
L 610.086539 118.056019 
L 610.593897 116.723203 
L 610.79684 116.056796 
L 611.608611 114.501847 
L 612.21744 114.501847 
L 612.420383 114.279714 
L 612.623326 114.279714 
L 612.826269 114.057581 
L 612.92774 114.057581 
L 613.232155 113.613314 
L 613.333626 113.613314 
L 613.536569 113.391181 
L 613.840983 111.391949 
L 613.942455 111.391949 
L 614.348341 110.72555 
L 614.551284 110.72555 
L 614.754226 110.503417 
L 615.058641 110.503417 
L 615.261584 110.281284 
L 615.66747 110.281284 
L 616.073355 109.614884 
L 616.174827 109.614884 
L 617.189541 107.615669 
L 617.392484 107.615669 
L 617.899842 106.727137 
L 618.204256 106.727137 
L 618.610142 106.060737 
L 619.016028 106.060737 
L 619.726328 104.72793 
L 619.827799 104.72793 
L 619.929271 104.505797 
L 620.132214 103.839389 
L 620.5381 103.839389 
L 620.741042 103.617256 
L 620.842514 103.617256 
L 621.045457 102.284423 
L 621.2484 102.06229 
L 621.349871 102.06229 
L 621.552814 101.840157 
L 621.755757 101.840157 
L 621.9587 101.618024 
L 622.060171 101.618024 
L 622.263114 101.395891 
L 622.364586 101.395891 
L 622.973414 100.285225 
L 623.074886 100.285225 
L 623.277829 99.840959 
L 623.582243 99.840959 
L 623.886658 99.396693 
L 624.089601 99.396693 
L 624.394015 98.508143 
L 624.901372 97.619611 
L 625.104315 97.619611 
L 625.510201 96.953212 
L 625.611672 96.953212 
L 626.321973 95.620413 
L 626.423444 95.620413 
L 626.727858 95.17613 
L 626.930801 95.17613 
L 627.235216 94.731864 
L 627.336687 94.731864 
L 627.742573 94.065464 
L 627.844044 94.065464 
L 628.046987 93.843331 
L 628.148459 93.843331 
L 628.757288 92.732648 
L 628.858759 92.732648 
L 629.061702 92.066249 
L 629.163173 92.066249 
L 629.467588 91.621983 
L 629.772002 91.621983 
L 630.076416 91.177717 
L 630.177888 91.177717 
L 630.380831 90.5113 
L 630.583774 90.5113 
L 631.192603 89.400635 
L 631.598488 89.400635 
L 632.004374 88.734235 
L 632.308789 88.734235 
L 632.41026 88.512102 
L 632.613203 87.845686 
L 632.714674 87.845686 
L 633.222032 86.957153 
L 633.323503 86.957153 
L 633.526446 86.290754 
L 633.627918 86.290754 
L 634.236746 85.180089 
L 634.439689 85.180089 
L 634.744104 84.735822 
L 634.845575 84.735822 
L 635.149989 84.291556 
L 635.251461 84.291556 
L 635.454404 84.069423 
L 635.555875 84.069423 
L 635.86029 83.625157 
L 635.961761 83.625157 
L 636.164704 83.403024 
L 636.266175 83.403024 
L 636.773533 82.514491 
L 636.875004 82.514491 
L 637.077947 82.070225 
L 637.382361 82.070225 
L 637.686776 81.625959 
L 637.788247 81.625959 
L 638.295605 80.737426 
L 638.397076 80.737426 
L 639.513262 78.516078 
L 639.716205 78.516078 
L 639.919148 78.293945 
L 640.020619 78.293945 
L 640.426505 77.627545 
L 640.527977 77.627545 
L 641.136805 76.51688 
L 641.238277 76.51688 
L 641.542691 76.072614 
L 641.745634 76.072614 
L 642.050048 75.628347 
L 642.557406 75.628347 
L 644.180949 72.296317 
L 644.485363 72.296317 
L 644.688306 72.074184 
L 645.297135 72.074184 
L 645.601549 71.185651 
L 646.007435 71.185651 
L 646.210378 70.519252 
L 646.514793 70.519252 
L 646.920678 69.852852 
L 647.02215 69.852852 
L 647.225093 69.630719 
L 647.326564 69.630719 
L 647.73245 68.742187 
L 647.935393 67.853637 
L 648.138336 67.853637 
L 648.341279 67.631504 
L 648.544222 67.631504 
L 648.950108 66.965105 
L 649.457465 66.965105 
L 650.573651 64.743757 
L 650.675122 64.743757 
L 651.588365 62.966692 
L 651.994251 62.966692 
L 652.298666 62.522426 
L 652.60308 62.522426 
L 653.719266 60.301094 
L 653.820738 60.301094 
L 654.02368 60.078961 
L 654.328095 60.078961 
L 654.733981 59.412562 
L 654.835452 59.412562 
L 655.342809 58.524029 
L 655.444281 58.524029 
L 656.154581 57.191231 
L 656.256052 57.191231 
L 656.661938 56.524831 
L 657.067824 56.524831 
L 657.270767 56.302698 
L 657.372239 56.302698 
L 657.575181 55.636282 
L 657.879596 55.636282 
L 658.082539 55.192016 
L 658.285482 55.192016 
L 658.589896 54.747749 
L 658.995782 54.747749 
L 659.503139 53.859217 
L 659.604611 53.859217 
L 660.111968 52.970684 
L 660.314911 51.860002 
L 660.720797 51.860002 
L 660.92374 51.193603 
L 661.025211 51.193603 
L 661.228154 50.971469 
L 661.329625 50.971469 
L 661.532568 50.749336 
L 661.63404 50.749336 
L 661.836983 50.527203 
L 662.34434 50.527203 
L 663.156112 48.972271 
L 663.561997 48.972271 
L 663.866412 48.083739 
L 664.069355 47.639473 
L 664.272298 47.417339 
L 664.373769 47.417339 
L 664.576712 46.973073 
L 664.678183 46.973073 
L 664.881126 46.75094 
L 665.084069 46.75094 
L 665.287012 46.528807 
L 665.388484 46.528807 
L 665.794369 45.862408 
L 665.997312 45.862408 
L 666.301727 45.418141 
L 666.606141 45.418141 
L 666.809084 44.085326 
L 667.21497 43.418926 
L 667.823799 43.418926 
L 668.026742 42.75251 
L 668.229684 42.75251 
L 668.737042 41.863978 
L 668.838513 41.863978 
L 669.34587 40.975445 
L 669.548813 40.975445 
L 670.360585 39.420513 
L 670.462057 39.420513 
L 670.867942 38.754114 
L 670.969414 38.754114 
L 671.273828 38.309848 
L 671.3753 38.309848 
L 671.882657 37.421315 
L 671.984128 37.421315 
L 672.187071 37.199182 
L 672.390014 37.199182 
L 673.404729 35.199984 
L 673.709143 35.199984 
L 673.912086 34.533585 
L 674.013558 34.533585 
L 674.317972 34.089318 
L 674.723858 34.089318 
L 675.332686 32.978653 
L 675.434158 32.978653 
L 675.738572 32.534387 
L 675.941515 32.534387 
L 676.144458 32.312253 
L 676.24593 32.312253 
L 676.550344 31.867987 
L 676.651815 31.867987 
L 677.463587 30.313055 
L 677.66653 30.313055 
L 678.478302 28.758124 
L 678.579773 28.758124 
L 678.782716 28.53599 
L 679.188602 28.53599 
L 679.493016 28.091724 
L 679.797431 28.091724 
L 680.203316 27.425325 
L 680.507731 27.425325 
L 680.812145 26.536792 
L 681.11656 25.64826 
L 681.82686 24.315461 
L 682.53716 24.315461 
L 682.943046 23.649062 
L 683.145989 23.649062 
L 683.450403 23.204796 
L 683.551875 23.204796 
L 683.95776 22.538396 
L 684.160703 22.538396 
L 684.363646 22.316263 
L 684.566589 22.316263 
L 684.972475 21.649864 
L 685.073946 21.649864 
L 685.276889 20.983464 
L 685.378361 20.983464 
L 685.784247 20.317065 
L 685.98719 20.317065 
L 686.190132 19.650666 
L 686.393075 19.206399 
L 686.900433 19.206399 
L 687.103376 18.54 
L 687.509261 18.54 
L 687.509261 18.54 
" clip-path="url(#p46ce427110)" style="fill: none; stroke: #ff7f0e; stroke-width: 1.5; stroke-linecap: square"/>
   </g>
   <g id="patch_3">
    <path d="M 48.345625 256.68 
L 48.345625 7.2 
" style="fill: none; stroke: #000000; stroke-width: 0.8; stroke-linejoin: miter; stroke-linecap: square"/>
   </g>
   <g id="patch_4">
    <path d="M 717.945625 256.68 
L 717.945625 7.2 
" style="fill: none; stroke: #000000; stroke-width: 0.8; stroke-linejoin: miter; stroke-linecap: square"/>
   </g>
   <g id="patch_5">
    <path d="M 48.345625 256.68 
L 717.945625 256.68 
" style="fill: none; stroke: #000000; stroke-width: 0.8; stroke-linejoin: miter; stroke-linecap: square"/>
   </g>
   <g id="patch_6">
    <path d="M 48.345625 7.2 
L 717.945625 7.2 
" style="fill: none; stroke: #000000; stroke-width: 0.8; stroke-linejoin: miter; stroke-linecap: square"/>
   </g>
   <g id="legend_1">
    <g id="patch_7">
     <path d="M 59.545625 66.97 
L 288.145625 66.97 
Q 291.345625 66.97 291.345625 63.77 
L 291.345625 18.4 
Q 291.345625 15.2 288.145625 15.2 
L 59.545625 15.2 
Q 56.345625 15.2 56.345625 18.4 
L 56.345625 63.77 
Q 56.345625 66.97 59.545625 66.97 
z
" style="fill: #ffffff; opacity: 0.8; stroke: #cccccc; stroke-linejoin: miter"/>
    </g>
    <g id="line2d_16">
     <path d="M 62.745625 28.1575 
L 78.745625 28.1575 
L 94.745625 28.1575 
" style="fill: none; stroke: #1f77b4; stroke-width: 1.5; stroke-linecap: square"/>
    </g>
    <g id="text_16">
     <!-- DynaQ+ -->
     <g transform="translate(107.545625 33.7575) scale(0.16 -0.16)">
      <defs>
       <path id="DejaVuSans-44" d="M 1259 4147 
L 1259 519 
L 2022 519 
Q 2988 519 3436 956 
Q 3884 1394 3884 2338 
Q 3884 3275 3436 3711 
Q 2988 4147 2022 4147 
L 1259 4147 
z
M 628 4666 
L 1925 4666 
Q 3281 4666 3915 4102 
Q 4550 3538 4550 2338 
Q 4550 1131 3912 565 
Q 3275 0 1925 0 
L 628 0 
L 628 4666 
z
" transform="scale(0.015625)"/>
       <path id="DejaVuSans-79" d="M 2059 -325 
Q 1816 -950 1584 -1140 
Q 1353 -1331 966 -1331 
L 506 -1331 
L 506 -850 
L 844 -850 
Q 1081 -850 1212 -737 
Q 1344 -625 1503 -206 
L 1606 56 
L 191 3500 
L 800 3500 
L 1894 763 
L 2988 3500 
L 3597 3500 
L 2059 -325 
z
" transform="scale(0.015625)"/>
       <path id="DejaVuSans-6e" d="M 3513 2113 
L 3513 0 
L 2938 0 
L 2938 2094 
Q 2938 2591 2744 2837 
Q 2550 3084 2163 3084 
Q 1697 3084 1428 2787 
Q 1159 2491 1159 1978 
L 1159 0 
L 581 0 
L 581 3500 
L 1159 3500 
L 1159 2956 
Q 1366 3272 1645 3428 
Q 1925 3584 2291 3584 
Q 2894 3584 3203 3211 
Q 3513 2838 3513 2113 
z
" transform="scale(0.015625)"/>
       <path id="DejaVuSans-51" d="M 2522 4238 
Q 1834 4238 1429 3725 
Q 1025 3213 1025 2328 
Q 1025 1447 1429 934 
Q 1834 422 2522 422 
Q 3209 422 3611 934 
Q 4013 1447 4013 2328 
Q 4013 3213 3611 3725 
Q 3209 4238 2522 4238 
z
M 3406 84 
L 4238 -825 
L 3475 -825 
L 2784 -78 
Q 2681 -84 2626 -87 
Q 2572 -91 2522 -91 
Q 1538 -91 948 567 
Q 359 1225 359 2328 
Q 359 3434 948 4092 
Q 1538 4750 2522 4750 
Q 3503 4750 4090 4092 
Q 4678 3434 4678 2328 
Q 4678 1516 4351 937 
Q 4025 359 3406 84 
z
" transform="scale(0.015625)"/>
       <path id="DejaVuSans-2b" d="M 2944 4013 
L 2944 2272 
L 4684 2272 
L 4684 1741 
L 2944 1741 
L 2944 0 
L 2419 0 
L 2419 1741 
L 678 1741 
L 678 2272 
L 2419 2272 
L 2419 4013 
L 2944 4013 
z
" transform="scale(0.015625)"/>
      </defs>
      <use xlink:href="#DejaVuSans-44"/>
      <use xlink:href="#DejaVuSans-79" transform="translate(77.001953 0)"/>
      <use xlink:href="#DejaVuSans-6e" transform="translate(136.181641 0)"/>
      <use xlink:href="#DejaVuSans-61" transform="translate(199.560547 0)"/>
      <use xlink:href="#DejaVuSans-51" transform="translate(260.839844 0)"/>
      <use xlink:href="#DejaVuSans-2b" transform="translate(339.550781 0)"/>
     </g>
    </g>
    <g id="line2d_17">
     <path d="M 62.745625 51.6425 
L 78.745625 51.6425 
L 94.745625 51.6425 
" style="fill: none; stroke: #ff7f0e; stroke-width: 1.5; stroke-linecap: square"/>
    </g>
    <g id="text_17">
     <!-- DynaQ+ Action Bonus -->
     <g transform="translate(107.545625 57.2425) scale(0.16 -0.16)">
      <defs>
       <path id="DejaVuSans-41" d="M 2188 4044 
L 1331 1722 
L 3047 1722 
L 2188 4044 
z
M 1831 4666 
L 2547 4666 
L 4325 0 
L 3669 0 
L 3244 1197 
L 1141 1197 
L 716 0 
L 50 0 
L 1831 4666 
z
" transform="scale(0.015625)"/>
       <path id="DejaVuSans-63" d="M 3122 3366 
L 3122 2828 
Q 2878 2963 2633 3030 
Q 2388 3097 2138 3097 
Q 1578 3097 1268 2742 
Q 959 2388 959 1747 
Q 959 1106 1268 751 
Q 1578 397 2138 397 
Q 2388 397 2633 464 
Q 2878 531 3122 666 
L 3122 134 
Q 2881 22 2623 -34 
Q 2366 -91 2075 -91 
Q 1284 -91 818 406 
Q 353 903 353 1747 
Q 353 2603 823 3093 
Q 1294 3584 2113 3584 
Q 2378 3584 2631 3529 
Q 2884 3475 3122 3366 
z
" transform="scale(0.015625)"/>
       <path id="DejaVuSans-6f" d="M 1959 3097 
Q 1497 3097 1228 2736 
Q 959 2375 959 1747 
Q 959 1119 1226 758 
Q 1494 397 1959 397 
Q 2419 397 2687 759 
Q 2956 1122 2956 1747 
Q 2956 2369 2687 2733 
Q 2419 3097 1959 3097 
z
M 1959 3584 
Q 2709 3584 3137 3096 
Q 3566 2609 3566 1747 
Q 3566 888 3137 398 
Q 2709 -91 1959 -91 
Q 1206 -91 779 398 
Q 353 888 353 1747 
Q 353 2609 779 3096 
Q 1206 3584 1959 3584 
z
" transform="scale(0.015625)"/>
       <path id="DejaVuSans-42" d="M 1259 2228 
L 1259 519 
L 2272 519 
Q 2781 519 3026 730 
Q 3272 941 3272 1375 
Q 3272 1813 3026 2020 
Q 2781 2228 2272 2228 
L 1259 2228 
z
M 1259 4147 
L 1259 2741 
L 2194 2741 
Q 2656 2741 2882 2914 
Q 3109 3088 3109 3444 
Q 3109 3797 2882 3972 
Q 2656 4147 2194 4147 
L 1259 4147 
z
M 628 4666 
L 2241 4666 
Q 2963 4666 3353 4366 
Q 3744 4066 3744 3513 
Q 3744 3084 3544 2831 
Q 3344 2578 2956 2516 
Q 3422 2416 3680 2098 
Q 3938 1781 3938 1306 
Q 3938 681 3513 340 
Q 3088 0 2303 0 
L 628 0 
L 628 4666 
z
" transform="scale(0.015625)"/>
      </defs>
      <use xlink:href="#DejaVuSans-44"/>
      <use xlink:href="#DejaVuSans-79" transform="translate(77.001953 0)"/>
      <use xlink:href="#DejaVuSans-6e" transform="translate(136.181641 0)"/>
      <use xlink:href="#DejaVuSans-61" transform="translate(199.560547 0)"/>
      <use xlink:href="#DejaVuSans-51" transform="translate(260.839844 0)"/>
      <use xlink:href="#DejaVuSans-2b" transform="translate(339.550781 0)"/>
      <use xlink:href="#DejaVuSans-20" transform="translate(423.339844 0)"/>
      <use xlink:href="#DejaVuSans-41" transform="translate(455.126953 0)"/>
      <use xlink:href="#DejaVuSans-63" transform="translate(521.785156 0)"/>
      <use xlink:href="#DejaVuSans-74" transform="translate(576.765625 0)"/>
      <use xlink:href="#DejaVuSans-69" transform="translate(615.974609 0)"/>
      <use xlink:href="#DejaVuSans-6f" transform="translate(643.757812 0)"/>
      <use xlink:href="#DejaVuSans-6e" transform="translate(704.939453 0)"/>
      <use xlink:href="#DejaVuSans-20" transform="translate(768.318359 0)"/>
      <use xlink:href="#DejaVuSans-42" transform="translate(800.105469 0)"/>
      <use xlink:href="#DejaVuSans-6f" transform="translate(868.708984 0)"/>
      <use xlink:href="#DejaVuSans-6e" transform="translate(929.890625 0)"/>
      <use xlink:href="#DejaVuSans-75" transform="translate(993.269531 0)"/>
      <use xlink:href="#DejaVuSans-73" transform="translate(1056.648438 0)"/>
     </g>
    </g>
   </g>
  </g>
 </g>
 <defs>
  <clipPath id="p46ce427110">
   <rect x="48.345625" y="7.2" width="669.6" height="249.48"/>
  </clipPath>
 </defs>
</svg>
