<?xml version="1.0" encoding="utf-8" standalone="no"?>
<!DOCTYPE svg PUBLIC "-//W3C//DTD SVG 1.1//EN"
  "http://www.w3.org/Graphics/SVG/1.1/DTD/svg11.dtd">
<svg xmlns:xlink="http://www.w3.org/1999/xlink" width="746.416562pt" height="389.01pt" viewBox="0 0 746.416562 389.01" xmlns="http://www.w3.org/2000/svg" version="1.1">
 <metadata>
  <rdf:RDF xmlns:dc="http://purl.org/dc/elements/1.1/" xmlns:cc="http://creativecommons.org/ns#" xmlns:rdf="http://www.w3.org/1999/02/22-rdf-syntax-ns#">
   <cc:Work>
    <dc:type rdf:resource="http://purl.org/dc/dcmitype/StillImage"/>
    <dc:date>2026-03-08T09:24:36.110433</dc:date>
    <dc:format>image/svg+xml</dc:format>
    <dc:creator>
     <cc:Agent>
      <dc:title>Matplotlib v3.10.3, https://matplotlib.org/</dc:title>
     </cc:Agent>
    </dc:creator>
   </cc:Work>
  </rdf:RDF>
 </metadata>
 <defs>
  <style type="text/css">*{stroke-linejoin: round; stroke-linecap: butt}</style>
 </defs>
 <g id="figure_1">
  <g id="patch_1">
   <path d="M 0 389.01 
L 746.416562 389.01 
L 746.416562 0 
L 0 0 
L 0 389.01 
z
" style="fill: none"/>
  </g>
  <g id="axes_1">
   <g id="patch_2">
    <path d="M 69.616562 339.84 
L 739.216563 339.84 
L 739.216563 7.2 
L 69.616562 7.2 
L 69.616562 339.84 
z
" style="fill: none"/>
   </g>
   <g id="matplotlib.axis_1">
    <g id="xtick_1">
     <g id="line2d_1">
      <defs>
       <path id="m7b7c537a66" d="M 0 0 
L 0 3.5 
" style="stroke: #ffffff; stroke-width: 0.8"/>
      </defs>
      <g>
       <use xlink:href="#m7b7c537a66" x="100.052926" y="339.84" style="fill: #ffffff; stroke: #ffffff; stroke-width: 0.8"/>
      </g>
     </g>
     <g id="text_1">
      <!-- 0 -->
      <g style="fill: #ffffff" transform="translate(95.599176 357.477813) scale(0.14 -0.14)">
       <defs>
        <path id="DejaVuSans-30" d="M 2034 4250 
Q 1547 4250 1301 3770 
Q 1056 3291 1056 2328 
Q 1056 1369 1301 889 
Q 1547 409 2034 409 
Q 2525 409 2770 889 
Q 3016 1369 3016 2328 
Q 3016 3291 2770 3770 
Q 2525 4250 2034 4250 
z
M 2034 4750 
Q 2819 4750 3233 4129 
Q 3647 3509 3647 2328 
Q 3647 1150 3233 529 
Q 2819 -91 2034 -91 
Q 1250 -91 836 529 
Q 422 1150 422 2328 
Q 422 3509 836 4129 
Q 1250 4750 2034 4750 
z
" transform="scale(0.015625)"/>
       </defs>
       <use xlink:href="#DejaVuSans-30"/>
      </g>
     </g>
    </g>
    <g id="xtick_2">
     <g id="line2d_2">
      <g>
       <use xlink:href="#m7b7c537a66" x="222.04236" y="339.84" style="fill: #ffffff; stroke: #ffffff; stroke-width: 0.8"/>
      </g>
     </g>
     <g id="text_2">
      <!-- 100 -->
      <g style="fill: #ffffff" transform="translate(208.68111 357.477813) scale(0.14 -0.14)">
       <defs>
        <path id="DejaVuSans-31" d="M 794 531 
L 1825 531 
L 1825 4091 
L 703 3866 
L 703 4441 
L 1819 4666 
L 2450 4666 
L 2450 531 
L 3481 531 
L 3481 0 
L 794 0 
L 794 531 
z
" transform="scale(0.015625)"/>
       </defs>
       <use xlink:href="#DejaVuSans-31"/>
       <use xlink:href="#DejaVuSans-30" transform="translate(63.623047 0)"/>
       <use xlink:href="#DejaVuSans-30" transform="translate(127.246094 0)"/>
      </g>
     </g>
    </g>
    <g id="xtick_3">
     <g id="line2d_3">
      <g>
       <use xlink:href="#m7b7c537a66" x="344.031793" y="339.84" style="fill: #ffffff; stroke: #ffffff; stroke-width: 0.8"/>
      </g>
     </g>
     <g id="text_3">
      <!-- 200 -->
      <g style="fill: #ffffff" transform="translate(330.670543 357.477813) scale(0.14 -0.14)">
       <defs>
        <path id="DejaVuSans-32" d="M 1228 531 
L 3431 531 
L 3431 0 
L 469 0 
L 469 531 
Q 828 903 1448 1529 
Q 2069 2156 2228 2338 
Q 2531 2678 2651 2914 
Q 2772 3150 2772 3378 
Q 2772 3750 2511 3984 
Q 2250 4219 1831 4219 
Q 1534 4219 1204 4116 
Q 875 4013 500 3803 
L 500 4441 
Q 881 4594 1212 4672 
Q 1544 4750 1819 4750 
Q 2544 4750 2975 4387 
Q 3406 4025 3406 3419 
Q 3406 3131 3298 2873 
Q 3191 2616 2906 2266 
Q 2828 2175 2409 1742 
Q 1991 1309 1228 531 
z
" transform="scale(0.015625)"/>
       </defs>
       <use xlink:href="#DejaVuSans-32"/>
       <use xlink:href="#DejaVuSans-30" transform="translate(63.623047 0)"/>
       <use xlink:href="#DejaVuSans-30" transform="translate(127.246094 0)"/>
      </g>
     </g>
    </g>
    <g id="xtick_4">
     <g id="line2d_4">
      <g>
       <use xlink:href="#m7b7c537a66" x="466.021226" y="339.84" style="fill: #ffffff; stroke: #ffffff; stroke-width: 0.8"/>
      </g>
     </g>
     <g id="text_4">
      <!-- 300 -->
      <g style="fill: #ffffff" transform="translate(452.659976 357.477813) scale(0.14 -0.14)">
       <defs>
        <path id="DejaVuSans-33" d="M 2597 2516 
Q 3050 2419 3304 2112 
Q 3559 1806 3559 1356 
Q 3559 666 3084 287 
Q 2609 -91 1734 -91 
Q 1441 -91 1130 -33 
Q 819 25 488 141 
L 488 750 
Q 750 597 1062 519 
Q 1375 441 1716 441 
Q 2309 441 2620 675 
Q 2931 909 2931 1356 
Q 2931 1769 2642 2001 
Q 2353 2234 1838 2234 
L 1294 2234 
L 1294 2753 
L 1863 2753 
Q 2328 2753 2575 2939 
Q 2822 3125 2822 3475 
Q 2822 3834 2567 4026 
Q 2313 4219 1838 4219 
Q 1578 4219 1281 4162 
Q 984 4106 628 3988 
L 628 4550 
Q 988 4650 1302 4700 
Q 1616 4750 1894 4750 
Q 2613 4750 3031 4423 
Q 3450 4097 3450 3541 
Q 3450 3153 3228 2886 
Q 3006 2619 2597 2516 
z
" transform="scale(0.015625)"/>
       </defs>
       <use xlink:href="#DejaVuSans-33"/>
       <use xlink:href="#DejaVuSans-30" transform="translate(63.623047 0)"/>
       <use xlink:href="#DejaVuSans-30" transform="translate(127.246094 0)"/>
      </g>
     </g>
    </g>
    <g id="xtick_5">
     <g id="line2d_5">
      <g>
       <use xlink:href="#m7b7c537a66" x="588.01066" y="339.84" style="fill: #ffffff; stroke: #ffffff; stroke-width: 0.8"/>
      </g>
     </g>
     <g id="text_5">
      <!-- 400 -->
      <g style="fill: #ffffff" transform="translate(574.64941 357.477813) scale(0.14 -0.14)">
       <defs>
        <path id="DejaVuSans-34" d="M 2419 4116 
L 825 1625 
L 2419 1625 
L 2419 4116 
z
M 2253 4666 
L 3047 4666 
L 3047 1625 
L 3713 1625 
L 3713 1100 
L 3047 1100 
L 3047 0 
L 2419 0 
L 2419 1100 
L 313 1100 
L 313 1709 
L 2253 4666 
z
" transform="scale(0.015625)"/>
       </defs>
       <use xlink:href="#DejaVuSans-34"/>
       <use xlink:href="#DejaVuSans-30" transform="translate(63.623047 0)"/>
       <use xlink:href="#DejaVuSans-30" transform="translate(127.246094 0)"/>
      </g>
     </g>
    </g>
    <g id="xtick_6">
     <g id="line2d_6">
      <g>
       <use xlink:href="#m7b7c537a66" x="710.000093" y="339.84" style="fill: #ffffff; stroke: #ffffff; stroke-width: 0.8"/>
      </g>
     </g>
     <g id="text_6">
      <!-- 500 -->
      <g style="fill: #ffffff" transform="translate(696.638843 357.477813) scale(0.14 -0.14)">
       <defs>
        <path id="DejaVuSans-35" d="M 691 4666 
L 3169 4666 
L 3169 4134 
L 1269 4134 
L 1269 2991 
Q 1406 3038 1543 3061 
Q 1681 3084 1819 3084 
Q 2600 3084 3056 2656 
Q 3513 2228 3513 1497 
Q 3513 744 3044 326 
Q 2575 -91 1722 -91 
Q 1428 -91 1123 -41 
Q 819 9 494 109 
L 494 744 
Q 775 591 1075 516 
Q 1375 441 1709 441 
Q 2250 441 2565 725 
Q 2881 1009 2881 1497 
Q 2881 1984 2565 2268 
Q 2250 2553 1709 2553 
Q 1456 2553 1204 2497 
Q 953 2441 691 2322 
L 691 4666 
z
" transform="scale(0.015625)"/>
       </defs>
       <use xlink:href="#DejaVuSans-35"/>
       <use xlink:href="#DejaVuSans-30" transform="translate(63.623047 0)"/>
       <use xlink:href="#DejaVuSans-30" transform="translate(127.246094 0)"/>
      </g>
     </g>
    </g>
    <g id="text_7">
     <!-- Steps -->
     <g style="fill: #ffffff" transform="translate(379.234844 378.066563) scale(0.18 -0.18)">
      <defs>
       <path id="DejaVuSans-53" d="M 3425 4513 
L 3425 3897 
Q 3066 4069 2747 4153 
Q 2428 4238 2131 4238 
Q 1616 4238 1336 4038 
Q 1056 3838 1056 3469 
Q 1056 3159 1242 3001 
Q 1428 2844 1947 2747 
L 2328 2669 
Q 3034 2534 3370 2195 
Q 3706 1856 3706 1288 
Q 3706 609 3251 259 
Q 2797 -91 1919 -91 
Q 1588 -91 1214 -16 
Q 841 59 441 206 
L 441 856 
Q 825 641 1194 531 
Q 1563 422 1919 422 
Q 2459 422 2753 634 
Q 3047 847 3047 1241 
Q 3047 1584 2836 1778 
Q 2625 1972 2144 2069 
L 1759 2144 
Q 1053 2284 737 2584 
Q 422 2884 422 3419 
Q 422 4038 858 4394 
Q 1294 4750 2059 4750 
Q 2388 4750 2728 4690 
Q 3069 4631 3425 4513 
z
" transform="scale(0.015625)"/>
       <path id="DejaVuSans-74" d="M 1172 4494 
L 1172 3500 
L 2356 3500 
L 2356 3053 
L 1172 3053 
L 1172 1153 
Q 1172 725 1289 603 
Q 1406 481 1766 481 
L 2356 481 
L 2356 0 
L 1766 0 
Q 1100 0 847 248 
Q 594 497 594 1153 
L 594 3053 
L 172 3053 
L 172 3500 
L 594 3500 
L 594 4494 
L 1172 4494 
z
" transform="scale(0.015625)"/>
       <path id="DejaVuSans-65" d="M 3597 1894 
L 3597 1613 
L 953 1613 
Q 991 1019 1311 708 
Q 1631 397 2203 397 
Q 2534 397 2845 478 
Q 3156 559 3463 722 
L 3463 178 
Q 3153 47 2828 -22 
Q 2503 -91 2169 -91 
Q 1331 -91 842 396 
Q 353 884 353 1716 
Q 353 2575 817 3079 
Q 1281 3584 2069 3584 
Q 2775 3584 3186 3129 
Q 3597 2675 3597 1894 
z
M 3022 2063 
Q 3016 2534 2758 2815 
Q 2500 3097 2075 3097 
Q 1594 3097 1305 2825 
Q 1016 2553 972 2059 
L 3022 2063 
z
" transform="scale(0.015625)"/>
       <path id="DejaVuSans-70" d="M 1159 525 
L 1159 -1331 
L 581 -1331 
L 581 3500 
L 1159 3500 
L 1159 2969 
Q 1341 3281 1617 3432 
Q 1894 3584 2278 3584 
Q 2916 3584 3314 3078 
Q 3713 2572 3713 1747 
Q 3713 922 3314 415 
Q 2916 -91 2278 -91 
Q 1894 -91 1617 61 
Q 1341 213 1159 525 
z
M 3116 1747 
Q 3116 2381 2855 2742 
Q 2594 3103 2138 3103 
Q 1681 3103 1420 2742 
Q 1159 2381 1159 1747 
Q 1159 1113 1420 752 
Q 1681 391 2138 391 
Q 2594 391 2855 752 
Q 3116 1113 3116 1747 
z
" transform="scale(0.015625)"/>
       <path id="DejaVuSans-73" d="M 2834 3397 
L 2834 2853 
Q 2591 2978 2328 3040 
Q 2066 3103 1784 3103 
Q 1356 3103 1142 2972 
Q 928 2841 928 2578 
Q 928 2378 1081 2264 
Q 1234 2150 1697 2047 
L 1894 2003 
Q 2506 1872 2764 1633 
Q 3022 1394 3022 966 
Q 3022 478 2636 193 
Q 2250 -91 1575 -91 
Q 1294 -91 989 -36 
Q 684 19 347 128 
L 347 722 
Q 666 556 975 473 
Q 1284 391 1588 391 
Q 1994 391 2212 530 
Q 2431 669 2431 922 
Q 2431 1156 2273 1281 
Q 2116 1406 1581 1522 
L 1381 1569 
Q 847 1681 609 1914 
Q 372 2147 372 2553 
Q 372 3047 722 3315 
Q 1072 3584 1716 3584 
Q 2034 3584 2315 3537 
Q 2597 3491 2834 3397 
z
" transform="scale(0.015625)"/>
      </defs>
      <use xlink:href="#DejaVuSans-53"/>
      <use xlink:href="#DejaVuSans-74" transform="translate(63.476562 0)"/>
      <use xlink:href="#DejaVuSans-65" transform="translate(102.685547 0)"/>
      <use xlink:href="#DejaVuSans-70" transform="translate(164.208984 0)"/>
      <use xlink:href="#DejaVuSans-73" transform="translate(227.685547 0)"/>
     </g>
    </g>
   </g>
   <g id="matplotlib.axis_2">
    <g id="ytick_1">
     <g id="line2d_7">
      <defs>
       <path id="m73293af11d" d="M 0 0 
L -3.5 0 
" style="stroke: #ffffff; stroke-width: 0.8"/>
      </defs>
      <g>
       <use xlink:href="#m73293af11d" x="69.616562" y="317.47385" style="fill: #ffffff; stroke: #ffffff; stroke-width: 0.8"/>
      </g>
     </g>
     <g id="text_8">
      <!-- −1.0 -->
      <g style="fill: #ffffff" transform="translate(28.620625 322.792756) scale(0.14 -0.14)">
       <defs>
        <path id="DejaVuSans-2212" d="M 678 2272 
L 4684 2272 
L 4684 1741 
L 678 1741 
L 678 2272 
z
" transform="scale(0.015625)"/>
        <path id="DejaVuSans-2e" d="M 684 794 
L 1344 794 
L 1344 0 
L 684 0 
L 684 794 
z
" transform="scale(0.015625)"/>
       </defs>
       <use xlink:href="#DejaVuSans-2212"/>
       <use xlink:href="#DejaVuSans-31" transform="translate(83.789062 0)"/>
       <use xlink:href="#DejaVuSans-2e" transform="translate(147.412109 0)"/>
       <use xlink:href="#DejaVuSans-30" transform="translate(179.199219 0)"/>
      </g>
     </g>
    </g>
    <g id="ytick_2">
     <g id="line2d_8">
      <g>
       <use xlink:href="#m73293af11d" x="69.616562" y="254.22199" style="fill: #ffffff; stroke: #ffffff; stroke-width: 0.8"/>
      </g>
     </g>
     <g id="text_9">
      <!-- −0.5 -->
      <g style="fill: #ffffff" transform="translate(28.620625 259.540896) scale(0.14 -0.14)">
       <use xlink:href="#DejaVuSans-2212"/>
       <use xlink:href="#DejaVuSans-30" transform="translate(83.789062 0)"/>
       <use xlink:href="#DejaVuSans-2e" transform="translate(147.412109 0)"/>
       <use xlink:href="#DejaVuSans-35" transform="translate(179.199219 0)"/>
      </g>
     </g>
    </g>
    <g id="ytick_3">
     <g id="line2d_9">
      <g>
       <use xlink:href="#m73293af11d" x="69.616562" y="190.97013" style="fill: #ffffff; stroke: #ffffff; stroke-width: 0.8"/>
      </g>
     </g>
     <g id="text_10">
      <!-- 0.0 -->
      <g style="fill: #ffffff" transform="translate(40.352187 196.289036) scale(0.14 -0.14)">
       <use xlink:href="#DejaVuSans-30"/>
       <use xlink:href="#DejaVuSans-2e" transform="translate(63.623047 0)"/>
       <use xlink:href="#DejaVuSans-30" transform="translate(95.410156 0)"/>
      </g>
     </g>
    </g>
    <g id="ytick_4">
     <g id="line2d_10">
      <g>
       <use xlink:href="#m73293af11d" x="69.616562" y="127.71827" style="fill: #ffffff; stroke: #ffffff; stroke-width: 0.8"/>
      </g>
     </g>
     <g id="text_11">
      <!-- 0.5 -->
      <g style="fill: #ffffff" transform="translate(40.352187 133.037176) scale(0.14 -0.14)">
       <use xlink:href="#DejaVuSans-30"/>
       <use xlink:href="#DejaVuSans-2e" transform="translate(63.623047 0)"/>
       <use xlink:href="#DejaVuSans-35" transform="translate(95.410156 0)"/>
      </g>
     </g>
    </g>
    <g id="ytick_5">
     <g id="line2d_11">
      <g>
       <use xlink:href="#m73293af11d" x="69.616562" y="64.46641" style="fill: #ffffff; stroke: #ffffff; stroke-width: 0.8"/>
      </g>
     </g>
     <g id="text_12">
      <!-- 1.0 -->
      <g style="fill: #ffffff" transform="translate(40.352187 69.785316) scale(0.14 -0.14)">
       <use xlink:href="#DejaVuSans-31"/>
       <use xlink:href="#DejaVuSans-2e" transform="translate(63.623047 0)"/>
       <use xlink:href="#DejaVuSans-30" transform="translate(95.410156 0)"/>
      </g>
     </g>
    </g>
    <g id="text_13">
     <!-- Average reward -->
     <g style="fill: #ffffff" transform="translate(20.877187 244.506094) rotate(-90) scale(0.18 -0.18)">
      <defs>
       <path id="DejaVuSans-41" d="M 2188 4044 
L 1331 1722 
L 3047 1722 
L 2188 4044 
z
M 1831 4666 
L 2547 4666 
L 4325 0 
L 3669 0 
L 3244 1197 
L 1141 1197 
L 716 0 
L 50 0 
L 1831 4666 
z
" transform="scale(0.015625)"/>
       <path id="DejaVuSans-76" d="M 191 3500 
L 800 3500 
L 1894 563 
L 2988 3500 
L 3597 3500 
L 2284 0 
L 1503 0 
L 191 3500 
z
" transform="scale(0.015625)"/>
       <path id="DejaVuSans-72" d="M 2631 2963 
Q 2534 3019 2420 3045 
Q 2306 3072 2169 3072 
Q 1681 3072 1420 2755 
Q 1159 2438 1159 1844 
L 1159 0 
L 581 0 
L 581 3500 
L 1159 3500 
L 1159 2956 
Q 1341 3275 1631 3429 
Q 1922 3584 2338 3584 
Q 2397 3584 2469 3576 
Q 2541 3569 2628 3553 
L 2631 2963 
z
" transform="scale(0.015625)"/>
       <path id="DejaVuSans-61" d="M 2194 1759 
Q 1497 1759 1228 1600 
Q 959 1441 959 1056 
Q 959 750 1161 570 
Q 1363 391 1709 391 
Q 2188 391 2477 730 
Q 2766 1069 2766 1631 
L 2766 1759 
L 2194 1759 
z
M 3341 1997 
L 3341 0 
L 2766 0 
L 2766 531 
Q 2569 213 2275 61 
Q 1981 -91 1556 -91 
Q 1019 -91 701 211 
Q 384 513 384 1019 
Q 384 1609 779 1909 
Q 1175 2209 1959 2209 
L 2766 2209 
L 2766 2266 
Q 2766 2663 2505 2880 
Q 2244 3097 1772 3097 
Q 1472 3097 1187 3025 
Q 903 2953 641 2809 
L 641 3341 
Q 956 3463 1253 3523 
Q 1550 3584 1831 3584 
Q 2591 3584 2966 3190 
Q 3341 2797 3341 1997 
z
" transform="scale(0.015625)"/>
       <path id="DejaVuSans-67" d="M 2906 1791 
Q 2906 2416 2648 2759 
Q 2391 3103 1925 3103 
Q 1463 3103 1205 2759 
Q 947 2416 947 1791 
Q 947 1169 1205 825 
Q 1463 481 1925 481 
Q 2391 481 2648 825 
Q 2906 1169 2906 1791 
z
M 3481 434 
Q 3481 -459 3084 -895 
Q 2688 -1331 1869 -1331 
Q 1566 -1331 1297 -1286 
Q 1028 -1241 775 -1147 
L 775 -588 
Q 1028 -725 1275 -790 
Q 1522 -856 1778 -856 
Q 2344 -856 2625 -561 
Q 2906 -266 2906 331 
L 2906 616 
Q 2728 306 2450 153 
Q 2172 0 1784 0 
Q 1141 0 747 490 
Q 353 981 353 1791 
Q 353 2603 747 3093 
Q 1141 3584 1784 3584 
Q 2172 3584 2450 3431 
Q 2728 3278 2906 2969 
L 2906 3500 
L 3481 3500 
L 3481 434 
z
" transform="scale(0.015625)"/>
       <path id="DejaVuSans-20" transform="scale(0.015625)"/>
       <path id="DejaVuSans-77" d="M 269 3500 
L 844 3500 
L 1563 769 
L 2278 3500 
L 2956 3500 
L 3675 769 
L 4391 3500 
L 4966 3500 
L 4050 0 
L 3372 0 
L 2619 2869 
L 1863 0 
L 1184 0 
L 269 3500 
z
" transform="scale(0.015625)"/>
       <path id="DejaVuSans-64" d="M 2906 2969 
L 2906 4863 
L 3481 4863 
L 3481 0 
L 2906 0 
L 2906 525 
Q 2725 213 2448 61 
Q 2172 -91 1784 -91 
Q 1150 -91 751 415 
Q 353 922 353 1747 
Q 353 2572 751 3078 
Q 1150 3584 1784 3584 
Q 2172 3584 2448 3432 
Q 2725 3281 2906 2969 
z
M 947 1747 
Q 947 1113 1208 752 
Q 1469 391 1925 391 
Q 2381 391 2643 752 
Q 2906 1113 2906 1747 
Q 2906 2381 2643 2742 
Q 2381 3103 1925 3103 
Q 1469 3103 1208 2742 
Q 947 2381 947 1747 
z
" transform="scale(0.015625)"/>
      </defs>
      <use xlink:href="#DejaVuSans-41"/>
      <use xlink:href="#DejaVuSans-76" transform="translate(62.533203 0)"/>
      <use xlink:href="#DejaVuSans-65" transform="translate(121.712891 0)"/>
      <use xlink:href="#DejaVuSans-72" transform="translate(183.236328 0)"/>
      <use xlink:href="#DejaVuSans-61" transform="translate(224.349609 0)"/>
      <use xlink:href="#DejaVuSans-67" transform="translate(285.628906 0)"/>
      <use xlink:href="#DejaVuSans-65" transform="translate(349.105469 0)"/>
      <use xlink:href="#DejaVuSans-20" transform="translate(410.628906 0)"/>
      <use xlink:href="#DejaVuSans-72" transform="translate(442.416016 0)"/>
      <use xlink:href="#DejaVuSans-65" transform="translate(481.279297 0)"/>
      <use xlink:href="#DejaVuSans-77" transform="translate(542.802734 0)"/>
      <use xlink:href="#DejaVuSans-61" transform="translate(624.589844 0)"/>
      <use xlink:href="#DejaVuSans-72" transform="translate(685.869141 0)"/>
      <use xlink:href="#DejaVuSans-64" transform="translate(725.232422 0)"/>
     </g>
    </g>
   </g>
   <g id="line2d_12">
    <path d="M 100.052926 191.732843 
L 101.27282 191.766544 
L 102.492715 191.204274 
L 103.712609 191.536627 
L 104.932503 191.556974 
L 106.152398 190.35351 
L 107.372292 189.899552 
L 108.592186 191.180378 
L 109.812081 190.738858 
L 111.031975 190.043461 
L 112.251869 53.898372 
L 113.471764 100.571349 
L 114.691658 133.660384 
L 117.131447 180.543506 
L 118.351341 201.203564 
L 120.79113 249.55575 
L 122.011024 280.196443 
L 123.230918 324.72 
L 124.450813 36.16003 
L 125.670707 70.357739 
L 126.890601 94.868309 
L 128.110496 109.776365 
L 129.33039 122.72491 
L 130.550284 129.260877 
L 131.770179 135.114761 
L 132.990073 137.956961 
L 134.209967 136.165266 
L 135.429862 133.311666 
L 136.649756 125.716317 
L 139.089545 108.603512 
L 140.309439 101.320714 
L 141.529333 92.461205 
L 142.749228 87.221024 
L 143.969122 82.86404 
L 145.189016 79.004889 
L 147.628805 73.065663 
L 151.288488 66.980007 
L 153.728277 63.586593 
L 154.948171 62.619704 
L 157.38796 58.601144 
L 158.607854 58.464113 
L 159.827749 57.226407 
L 161.047643 56.57552 
L 162.267537 54.920282 
L 163.487432 53.482919 
L 164.707326 53.001831 
L 165.92722 51.747836 
L 167.147115 51.017409 
L 168.367009 52.07187 
L 169.586903 51.018566 
L 170.806798 50.823652 
L 172.026692 49.35933 
L 173.246586 49.324259 
L 174.466481 48.072406 
L 175.686375 48.802492 
L 176.906269 48.310848 
L 178.126164 48.31898 
L 179.346058 48.507568 
L 180.565952 48.077239 
L 181.785847 47.116319 
L 183.005741 47.361975 
L 184.225635 47.924806 
L 185.44553 46.465423 
L 186.665424 46.039263 
L 187.885318 46.153155 
L 189.105213 46.084649 
L 190.325107 44.786742 
L 191.545001 46.151261 
L 192.764896 44.468039 
L 193.98479 44.855083 
L 195.204684 46.37832 
L 196.424579 45.288028 
L 198.864367 44.412928 
L 200.084262 44.849159 
L 202.52405 45.453298 
L 203.743945 45.330025 
L 204.963839 45.01962 
L 206.183733 45.068352 
L 207.403628 45.342723 
L 208.623522 44.613637 
L 209.843416 44.979594 
L 211.063311 44.471834 
L 212.283205 44.897293 
L 213.503099 44.168745 
L 214.722994 44.891226 
L 215.942888 44.302756 
L 217.162782 44.246025 
L 218.382677 45.406009 
L 219.602571 45.011971 
L 220.822465 45.020328 
L 222.04236 44.514246 
L 223.262254 45.844258 
L 224.482148 45.115798 
L 225.702043 44.576714 
L 226.921937 44.25481 
L 228.141831 46.245613 
L 229.361726 45.132118 
L 230.58162 45.058519 
L 231.801514 44.322938 
L 233.021409 44.09675 
L 234.241303 43.325028 
L 235.461197 44.654114 
L 236.681092 44.61167 
L 237.900986 43.967583 
L 239.12088 45.104181 
L 240.340775 45.152158 
L 241.560669 45.527727 
L 242.780563 45.300798 
L 244.000458 44.050447 
L 245.220352 44.186179 
L 246.440246 45.335795 
L 247.660141 43.379613 
L 248.880035 44.825381 
L 250.099929 42.962004 
L 251.319824 44.827285 
L 252.539718 45.030432 
L 253.759612 44.154266 
L 254.979507 43.953538 
L 256.199401 44.323298 
L 258.63919 43.468115 
L 259.859084 44.405032 
L 262.298873 42.454179 
L 263.518767 42.465338 
L 264.738661 43.176629 
L 265.958556 43.181054 
L 267.17845 43.06 
L 268.398344 42.542547 
L 269.618239 43.112726 
L 270.838133 43.452534 
L 272.058027 42.89112 
L 273.277922 42.520031 
L 275.71771 42.257117 
L 276.937605 41.639089 
L 278.157499 41.328885 
L 279.377393 43.114572 
L 280.597288 41.531514 
L 281.817182 42.353677 
L 283.037076 41.844118 
L 284.256971 42.195249 
L 285.476865 41.536333 
L 286.696759 41.080047 
L 287.916654 41.449463 
L 289.136548 42.071971 
L 290.356442 42.377325 
L 291.576337 41.689417 
L 292.796231 42.249716 
L 294.016125 41.57651 
L 295.23602 41.64176 
L 296.455914 41.848323 
L 300.115597 41.14335 
L 301.335491 41.391135 
L 302.555386 41.809182 
L 303.77528 41.929827 
L 304.995174 40.801245 
L 306.215069 40.426071 
L 307.434963 41.13986 
L 308.654857 41.408534 
L 309.874752 40.167419 
L 311.094646 39.557526 
L 312.31454 40.931861 
L 313.534435 40.766891 
L 314.754329 40.107312 
L 315.974223 41.614971 
L 317.194118 39.985577 
L 318.414012 39.623147 
L 319.633906 39.893653 
L 320.853801 40.801375 
L 322.073695 41.356735 
L 324.513484 40.087285 
L 325.733378 40.394678 
L 326.953272 40.380247 
L 328.173167 41.440808 
L 329.393061 40.475387 
L 330.612955 39.965198 
L 331.83285 39.988114 
L 333.052744 40.56292 
L 334.272638 40.455625 
L 336.712427 39.398203 
L 337.932321 40.339814 
L 340.37211 40.0183 
L 341.592004 39.616846 
L 342.811899 38.849696 
L 344.031793 39.38939 
L 345.251687 39.040377 
L 346.471582 40.092824 
L 347.691476 39.043992 
L 348.91137 38.481139 
L 350.131265 38.838626 
L 351.351159 38.000546 
L 352.571053 38.530962 
L 353.790948 40.348725 
L 356.230736 38.491957 
L 357.450631 37.833084 
L 358.670525 38.756663 
L 359.890419 39.068246 
L 361.110314 37.817796 
L 362.330208 39.449719 
L 363.550102 37.995683 
L 364.769997 38.327163 
L 365.989891 38.868474 
L 367.209785 38.312525 
L 368.42968 38.277739 
L 369.649574 37.492426 
L 370.869468 37.942827 
L 372.089363 37.678953 
L 373.309257 37.85564 
L 374.529151 38.524633 
L 375.749046 38.211319 
L 376.96894 37.192809 
L 378.188834 38.210181 
L 379.408729 36.406774 
L 380.628623 37.582242 
L 381.848517 37.096023 
L 383.068412 38.041421 
L 384.288306 37.133294 
L 385.5082 36.073215 
L 386.728095 36.041213 
L 387.947989 36.248731 
L 389.167883 36.197451 
L 390.387778 35.802812 
L 391.607672 36.91498 
L 392.827566 36.848604 
L 394.047461 38.380588 
L 395.267355 37.103265 
L 396.487249 36.315162 
L 397.707144 37.16315 
L 398.927038 36.640641 
L 400.146932 37.733157 
L 401.366827 37.039359 
L 402.586721 36.207975 
L 403.806615 35.621421 
L 405.02651 35.547476 
L 406.246404 37.195572 
L 407.466298 36.090701 
L 408.686193 36.42937 
L 411.125981 35.167687 
L 412.345876 36.129752 
L 413.56577 36.319337 
L 414.785664 36.021805 
L 416.005559 36.246327 
L 417.225453 36.276116 
L 418.445347 36.753945 
L 419.665242 36.670465 
L 420.885136 36.441142 
L 422.10503 35.107941 
L 423.324925 35.62455 
L 424.544819 34.695465 
L 425.764713 34.354006 
L 426.984608 35.433972 
L 428.204502 35.762336 
L 429.424396 36.495772 
L 430.644291 34.784878 
L 431.864185 35.758754 
L 433.084079 34.677623 
L 434.303974 34.035745 
L 435.523868 35.206996 
L 436.743762 35.004699 
L 437.963657 35.113651 
L 439.183551 34.411911 
L 440.403445 34.859803 
L 441.62334 34.876994 
L 442.843234 34.105567 
L 444.063128 33.874926 
L 445.283023 33.919884 
L 446.502917 33.083377 
L 447.722811 33.936417 
L 448.942706 33.209561 
L 450.1626 33.370675 
L 451.382494 33.376467 
L 452.602389 33.523616 
L 453.822283 33.405236 
L 455.042177 33.518875 
L 456.262072 34.26362 
L 457.481966 32.774421 
L 458.70186 34.366017 
L 459.921755 33.677506 
L 461.141649 34.411778 
L 462.361543 33.761324 
L 463.581438 32.749382 
L 464.801332 33.158355 
L 466.021226 33.752963 
L 467.241121 34.07117 
L 469.680909 32.661928 
L 470.900804 33.310054 
L 472.120698 32.370764 
L 473.340592 32.754518 
L 474.560487 31.708041 
L 475.780381 32.558912 
L 477.000275 32.088413 
L 478.22017 33.057921 
L 479.440064 33.366661 
L 480.659958 33.549865 
L 481.879853 32.090216 
L 483.099747 32.852309 
L 485.539536 32.044518 
L 486.75943 32.897471 
L 487.979324 32.568352 
L 489.199219 33.536423 
L 490.419113 31.990553 
L 491.639007 32.679774 
L 492.858902 32.15669 
L 494.078796 32.85654 
L 495.29869 32.233073 
L 497.738479 32.815957 
L 498.958373 31.574638 
L 500.178268 32.790884 
L 501.398162 31.309501 
L 503.837951 31.898754 
L 505.057845 31.201791 
L 506.277739 30.888191 
L 507.497634 31.491764 
L 508.717528 32.738393 
L 511.157317 30.43376 
L 513.597105 31.794842 
L 514.817 30.997317 
L 516.036894 30.441417 
L 517.256788 31.247106 
L 518.476683 30.757868 
L 519.696577 32.019052 
L 522.136366 30.918794 
L 523.35626 31.271441 
L 524.576154 31.403549 
L 527.015943 31.26979 
L 528.235837 29.539882 
L 529.455732 30.072441 
L 530.675626 30.929632 
L 531.89552 30.997699 
L 533.115415 30.721567 
L 534.335309 29.995672 
L 535.555203 28.953082 
L 536.775098 29.769086 
L 537.994992 31.135143 
L 539.214886 30.761461 
L 540.434781 30.604026 
L 541.654675 30.610847 
L 542.874569 29.180262 
L 544.094464 29.372488 
L 545.314358 30.203999 
L 546.534252 30.007556 
L 547.754147 29.365671 
L 548.974041 30.348777 
L 550.193935 29.891272 
L 551.41383 29.800761 
L 552.633724 29.372369 
L 553.853618 30.021925 
L 555.073513 30.398211 
L 556.293407 29.222605 
L 557.513301 30.503439 
L 558.733196 29.008607 
L 559.95309 29.240527 
L 561.172984 29.890897 
L 562.392879 29.271779 
L 563.612773 29.250171 
L 564.832667 28.782124 
L 566.052562 28.68693 
L 568.49235 29.897456 
L 569.712245 29.193166 
L 572.152033 29.197678 
L 573.371928 29.025545 
L 574.591822 27.599688 
L 575.811716 28.924769 
L 577.031611 29.72617 
L 578.251505 29.414905 
L 579.471399 29.684375 
L 580.691294 29.171255 
L 583.131082 29.904985 
L 585.570871 28.335857 
L 586.790765 28.167929 
L 588.01066 28.695297 
L 589.230554 28.403043 
L 590.450448 29.473036 
L 591.670343 28.458495 
L 592.890237 28.195539 
L 594.110131 28.730836 
L 595.330026 28.168592 
L 596.54992 28.497677 
L 597.769814 27.757043 
L 598.989709 28.729405 
L 600.209603 28.610329 
L 601.429497 27.884167 
L 602.649392 28.457611 
L 603.869286 27.870405 
L 605.08918 27.784919 
L 606.309075 27.902315 
L 607.528969 27.613208 
L 608.748863 28.137994 
L 609.968758 27.635047 
L 611.188652 27.358865 
L 612.408546 26.660958 
L 613.628441 27.253647 
L 614.848335 27.555317 
L 616.068229 26.938282 
L 617.288124 27.627498 
L 618.508018 27.254435 
L 619.727912 27.54283 
L 620.947807 27.2873 
L 622.167701 27.62705 
L 623.387595 27.647556 
L 624.60749 26.918932 
L 625.827384 27.417843 
L 627.047278 27.482262 
L 628.267173 27.147434 
L 630.706961 26.980031 
L 631.926856 26.541501 
L 633.14675 27.488639 
L 634.366644 28.0376 
L 635.586539 26.290297 
L 636.806433 27.33403 
L 638.026327 26.859106 
L 639.246222 27.572003 
L 640.466116 26.333 
L 641.68601 26.410341 
L 642.905905 25.253411 
L 644.125799 26.513026 
L 645.345693 25.720045 
L 646.565588 25.989452 
L 647.785482 26.903704 
L 649.005376 27.035361 
L 650.225271 25.618869 
L 651.445165 26.577996 
L 652.665059 26.429876 
L 653.884954 26.797695 
L 655.104848 26.290109 
L 656.324742 24.984259 
L 657.544637 26.069334 
L 658.764531 25.513171 
L 659.984425 25.651463 
L 661.20432 25.98627 
L 662.424214 25.102291 
L 663.644109 26.388672 
L 664.864003 25.409755 
L 666.083897 24.925375 
L 667.303792 25.982396 
L 668.523686 25.425917 
L 669.74358 25.563015 
L 670.963475 24.842474 
L 672.183369 26.504626 
L 673.403263 25.818068 
L 674.623158 25.73415 
L 675.843052 26.288182 
L 677.062946 25.700648 
L 678.282841 26.070763 
L 679.502735 24.999549 
L 680.722629 25.662516 
L 681.942524 25.082171 
L 683.162418 26.411582 
L 684.382312 26.942666 
L 685.602207 24.691103 
L 686.822101 26.868452 
L 688.041995 26.398144 
L 689.26189 24.793056 
L 690.481784 25.046576 
L 691.701678 25.541809 
L 692.921573 24.229567 
L 695.361361 26.537499 
L 696.581256 25.357624 
L 697.80115 25.374014 
L 699.021044 24.952371 
L 700.240939 25.023145 
L 701.460833 25.505159 
L 702.680727 25.711458 
L 703.900622 24.574831 
L 705.120516 25.022243 
L 706.34041 24.12423 
L 707.560305 24.013152 
L 708.780199 24.391913 
L 708.780199 24.391913 
" clip-path="url(#pea23fb545e)" style="fill: none; stroke: #8dd3c7; stroke-width: 1.5; stroke-linecap: square"/>
   </g>
   <g id="line2d_13">
    <path d="M 100.052926 191.447125 
L 101.27282 190.325249 
L 102.492715 190.074507 
L 104.932503 191.142848 
L 106.152398 191.421738 
L 107.372292 191.94476 
L 108.592186 190.955015 
L 109.812081 190.268699 
L 111.031975 192.205315 
L 112.251869 113.589957 
L 113.471764 75.225651 
L 114.691658 62.573261 
L 115.911552 57.566719 
L 117.131447 55.477126 
L 118.351341 52.753514 
L 119.571235 51.780242 
L 122.011024 50.222804 
L 123.230918 48.439894 
L 124.450813 48.817677 
L 125.670707 48.171927 
L 126.890601 46.70794 
L 128.110496 46.126853 
L 129.33039 47.215497 
L 130.550284 45.909639 
L 131.770179 44.947819 
L 132.990073 45.569535 
L 134.209967 43.710628 
L 135.429862 44.995359 
L 136.649756 44.081524 
L 137.86965 44.13469 
L 139.089545 43.890892 
L 140.309439 43.373702 
L 141.529333 43.326308 
L 143.969122 41.970177 
L 145.189016 42.894299 
L 146.408911 42.115531 
L 147.628805 43.079636 
L 148.8487 42.42911 
L 150.068594 42.239675 
L 151.288488 41.601844 
L 152.508383 41.783061 
L 153.728277 40.921243 
L 154.948171 41.526137 
L 156.168066 40.048043 
L 157.38796 40.856355 
L 159.827749 41.085124 
L 161.047643 39.865998 
L 162.267537 40.752731 
L 163.487432 40.644931 
L 164.707326 39.852687 
L 165.92722 38.575255 
L 167.147115 38.753007 
L 168.367009 40.009949 
L 169.586903 39.625188 
L 173.246586 39.894863 
L 174.466481 38.804471 
L 175.686375 39.523915 
L 176.906269 39.548528 
L 178.126164 38.814484 
L 179.346058 39.011518 
L 180.565952 37.895625 
L 181.785847 38.143841 
L 183.005741 37.700013 
L 184.225635 37.418945 
L 186.665424 38.188722 
L 187.885318 36.804046 
L 189.105213 38.543964 
L 190.325107 37.423639 
L 191.545001 39.364808 
L 192.764896 38.307813 
L 193.98479 38.550208 
L 195.204684 37.659688 
L 196.424579 37.870698 
L 198.864367 36.92309 
L 200.084262 36.925745 
L 201.304156 38.066558 
L 202.52405 37.429609 
L 203.743945 38.185784 
L 204.963839 36.771083 
L 206.183733 36.287163 
L 207.403628 36.666223 
L 208.623522 36.037526 
L 209.843416 37.326513 
L 211.063311 36.367213 
L 212.283205 37.100521 
L 213.503099 36.501428 
L 214.722994 35.71243 
L 215.942888 36.182595 
L 217.162782 37.355867 
L 218.382677 36.63879 
L 219.602571 35.475717 
L 220.822465 35.857376 
L 222.04236 36.382058 
L 223.262254 36.454848 
L 224.482148 36.369421 
L 225.702043 36.488593 
L 226.921937 36.01457 
L 228.141831 36.365627 
L 229.361726 34.737303 
L 230.58162 34.914366 
L 231.801514 36.536789 
L 233.021409 35.005007 
L 234.241303 34.54443 
L 235.461197 34.44092 
L 236.681092 35.473201 
L 237.900986 36.355003 
L 239.12088 34.818361 
L 240.340775 35.777742 
L 241.560669 34.921299 
L 242.780563 35.154949 
L 245.220352 35.199075 
L 246.440246 34.727921 
L 247.660141 35.872526 
L 248.880035 34.579164 
L 250.099929 34.721169 
L 251.319824 35.995551 
L 252.539718 34.813438 
L 253.759612 34.896077 
L 254.979507 34.256864 
L 256.199401 35.403766 
L 257.419295 35.0783 
L 258.63919 33.524544 
L 259.859084 34.933963 
L 261.078978 34.790362 
L 262.298873 34.327213 
L 263.518767 33.08888 
L 264.738661 34.106012 
L 265.958556 34.017909 
L 267.17845 34.853505 
L 268.398344 34.118766 
L 269.618239 33.979434 
L 270.838133 34.144124 
L 272.058027 33.505859 
L 273.277922 34.192098 
L 274.497816 34.356142 
L 275.71771 33.780569 
L 278.157499 33.405321 
L 279.377393 33.88708 
L 281.817182 33.044024 
L 283.037076 34.339872 
L 284.256971 32.35255 
L 285.476865 34.220933 
L 286.696759 34.312184 
L 287.916654 33.060624 
L 289.136548 33.024784 
L 290.356442 33.91134 
L 291.576337 33.437773 
L 292.796231 32.457385 
L 294.016125 33.612668 
L 295.23602 33.13593 
L 296.455914 33.329665 
L 297.675808 31.512463 
L 298.895703 33.191395 
L 300.115597 33.750264 
L 301.335491 32.651591 
L 302.555386 32.967088 
L 303.77528 32.843194 
L 304.995174 31.242767 
L 306.215069 33.206245 
L 307.434963 31.52478 
L 308.654857 32.799944 
L 309.874752 32.184624 
L 311.094646 33.067015 
L 313.534435 31.808828 
L 314.754329 30.910451 
L 315.974223 31.908976 
L 317.194118 31.825577 
L 318.414012 33.073059 
L 319.633906 32.121754 
L 320.853801 32.261258 
L 322.073695 31.289024 
L 323.293589 33.278852 
L 324.513484 31.408763 
L 325.733378 31.984838 
L 326.953272 30.74023 
L 328.173167 31.705422 
L 329.393061 32.161215 
L 330.612955 31.421621 
L 331.83285 31.539917 
L 335.492533 31.322973 
L 336.712427 32.105447 
L 337.932321 32.075593 
L 339.152216 30.275963 
L 340.37211 31.30034 
L 341.592004 31.562815 
L 342.811899 31.029943 
L 344.031793 31.990805 
L 345.251687 29.825962 
L 346.471582 31.245564 
L 347.691476 31.440428 
L 348.91137 31.854544 
L 350.131265 29.753308 
L 351.351159 31.387214 
L 353.790948 30.89348 
L 355.010842 32.066637 
L 356.230736 30.556702 
L 357.450631 30.115508 
L 358.670525 32.74681 
L 359.890419 30.640489 
L 361.110314 29.833377 
L 362.330208 30.979894 
L 363.550102 31.139707 
L 364.769997 30.829786 
L 365.989891 30.179427 
L 367.209785 30.869185 
L 368.42968 30.825211 
L 369.649574 31.044169 
L 370.869468 29.55885 
L 372.089363 30.601261 
L 374.529151 30.279883 
L 375.749046 30.019744 
L 376.96894 30.788762 
L 378.188834 30.017886 
L 379.408729 29.868004 
L 380.628623 28.855095 
L 381.848517 31.334457 
L 383.068412 30.470314 
L 384.288306 28.582094 
L 385.5082 30.667981 
L 387.947989 30.48977 
L 389.167883 29.27349 
L 390.387778 30.603966 
L 391.607672 29.52307 
L 392.827566 31.115837 
L 394.047461 30.593977 
L 395.267355 30.510253 
L 396.487249 29.494511 
L 397.707144 29.792528 
L 398.927038 28.874735 
L 400.146932 29.874265 
L 401.366827 30.012611 
L 402.586721 29.196384 
L 403.806615 29.838065 
L 405.02651 29.56162 
L 406.246404 29.744654 
L 407.466298 29.294413 
L 408.686193 29.417112 
L 409.906087 28.267491 
L 411.125981 28.892138 
L 412.345876 29.045312 
L 413.56577 28.712038 
L 414.785664 29.43424 
L 417.225453 29.59511 
L 418.445347 29.309831 
L 419.665242 29.835087 
L 420.885136 27.285161 
L 422.10503 30.325998 
L 423.324925 28.338534 
L 424.544819 28.52722 
L 425.764713 29.926744 
L 426.984608 28.038966 
L 428.204502 28.529281 
L 429.424396 29.451695 
L 430.644291 29.904449 
L 431.864185 28.481239 
L 433.084079 28.038579 
L 434.303974 28.682411 
L 435.523868 28.935411 
L 436.743762 28.308279 
L 437.963657 27.430261 
L 440.403445 30.145136 
L 441.62334 28.595454 
L 442.843234 28.798412 
L 444.063128 28.627342 
L 445.283023 29.097913 
L 446.502917 28.074161 
L 447.722811 28.357471 
L 448.942706 27.902972 
L 450.1626 27.84243 
L 451.382494 28.262675 
L 452.602389 29.566758 
L 453.822283 28.478053 
L 455.042177 27.916669 
L 456.262072 28.342761 
L 457.481966 28.03893 
L 458.70186 27.026854 
L 459.921755 28.844763 
L 461.141649 27.870134 
L 462.361543 28.153753 
L 463.581438 27.491355 
L 464.801332 27.691597 
L 466.021226 28.281697 
L 467.241121 28.317176 
L 468.461015 28.948731 
L 469.680909 27.936438 
L 470.900804 27.703605 
L 472.120698 28.191959 
L 473.340592 26.693971 
L 474.560487 28.238505 
L 475.780381 27.341943 
L 477.000275 28.355315 
L 478.22017 27.835939 
L 479.440064 26.485802 
L 480.659958 28.086202 
L 481.879853 27.631333 
L 483.099747 26.895505 
L 484.319641 26.334763 
L 485.539536 28.047377 
L 486.75943 27.319366 
L 487.979324 27.366996 
L 489.199219 25.939385 
L 490.419113 27.508703 
L 491.639007 27.482747 
L 492.858902 26.86342 
L 495.29869 26.984187 
L 496.518585 27.298547 
L 497.738479 25.700285 
L 498.958373 27.11186 
L 500.178268 27.007241 
L 501.398162 27.761304 
L 502.618056 28.13304 
L 503.837951 27.54732 
L 505.057845 27.095498 
L 507.497634 27.59069 
L 509.937422 27.458474 
L 511.157317 26.450554 
L 512.377211 27.310521 
L 514.817 26.16354 
L 516.036894 26.93141 
L 517.256788 26.041434 
L 518.476683 27.379873 
L 519.696577 26.23104 
L 520.916471 27.258236 
L 522.136366 26.118156 
L 523.35626 27.096993 
L 524.576154 27.138435 
L 525.796049 26.292635 
L 527.015943 26.019969 
L 528.235837 27.230438 
L 529.455732 25.021222 
L 530.675626 25.903781 
L 531.89552 26.522578 
L 533.115415 27.520076 
L 534.335309 25.598253 
L 535.555203 27.208538 
L 536.775098 26.413143 
L 537.994992 25.28058 
L 539.214886 26.32762 
L 540.434781 26.48023 
L 541.654675 25.764489 
L 542.874569 25.482424 
L 544.094464 26.826537 
L 545.314358 27.419128 
L 546.534252 24.970083 
L 547.754147 26.074397 
L 548.974041 26.47204 
L 550.193935 26.063616 
L 551.41383 25.988828 
L 552.633724 26.798301 
L 555.073513 26.382795 
L 556.293407 25.548792 
L 557.513301 26.665162 
L 558.733196 24.798682 
L 559.95309 26.728771 
L 561.172984 26.694754 
L 562.392879 25.459437 
L 563.612773 26.617796 
L 564.832667 27.002406 
L 566.052562 25.095583 
L 567.272456 25.908528 
L 568.49235 26.893067 
L 569.712245 24.811878 
L 570.932139 25.38303 
L 572.152033 24.356708 
L 573.371928 25.262288 
L 574.591822 25.469939 
L 575.811716 27.132057 
L 577.031611 26.855099 
L 578.251505 25.585642 
L 579.471399 24.904634 
L 580.691294 25.444862 
L 581.911188 24.924388 
L 584.350977 25.259907 
L 585.570871 25.128887 
L 586.790765 25.98025 
L 588.01066 27.067757 
L 589.230554 25.502936 
L 590.450448 26.352098 
L 591.670343 25.872135 
L 592.890237 26.033508 
L 594.110131 25.013587 
L 595.330026 25.450484 
L 596.54992 24.629923 
L 597.769814 25.507965 
L 598.989709 25.653872 
L 600.209603 22.870309 
L 601.429497 24.589764 
L 602.649392 25.054868 
L 603.869286 25.817365 
L 605.08918 25.7295 
L 606.309075 24.703407 
L 607.528969 24.541841 
L 608.748863 25.378369 
L 609.968758 25.046065 
L 611.188652 25.129211 
L 612.408546 24.935405 
L 613.628441 25.365305 
L 614.848335 26.405487 
L 616.068229 24.760954 
L 617.288124 25.124524 
L 618.508018 24.9109 
L 619.727912 24.917173 
L 620.947807 24.290773 
L 622.167701 25.475438 
L 623.387595 24.729655 
L 624.60749 26.801387 
L 625.827384 23.910173 
L 627.047278 25.551781 
L 628.267173 24.110135 
L 629.487067 25.483744 
L 630.706961 25.557385 
L 631.926856 24.817922 
L 633.14675 24.768681 
L 634.366644 24.539443 
L 635.586539 24.582521 
L 636.806433 24.8302 
L 638.026327 24.195173 
L 639.246222 24.277166 
L 640.466116 24.985626 
L 641.68601 24.088344 
L 642.905905 24.220449 
L 644.125799 24.477976 
L 645.345693 23.87609 
L 646.565588 24.772093 
L 647.785482 24.242169 
L 649.005376 23.53118 
L 650.225271 24.601748 
L 651.445165 25.434271 
L 652.665059 25.367638 
L 653.884954 24.972207 
L 655.104848 23.695225 
L 656.324742 25.268678 
L 657.544637 25.340296 
L 658.764531 24.48103 
L 659.984425 24.201557 
L 661.20432 23.518517 
L 662.424214 23.826822 
L 663.644109 24.267633 
L 664.864003 24.417923 
L 666.083897 23.621589 
L 667.303792 25.56653 
L 669.74358 24.323244 
L 670.963475 24.005241 
L 672.183369 25.745748 
L 673.403263 22.32 
L 674.623158 24.215284 
L 675.843052 23.290388 
L 678.282841 24.263112 
L 679.502735 23.833331 
L 680.722629 24.298865 
L 684.382312 24.836758 
L 685.602207 25.04272 
L 686.822101 23.570268 
L 688.041995 23.058746 
L 689.26189 23.912904 
L 690.481784 23.187901 
L 691.701678 23.346326 
L 692.921573 23.704589 
L 694.141467 22.832042 
L 695.361361 23.092521 
L 697.80115 23.309825 
L 699.021044 22.487668 
L 700.240939 23.267717 
L 701.460833 23.523522 
L 702.680727 24.868026 
L 703.900622 22.819499 
L 705.120516 23.592916 
L 706.34041 22.45166 
L 707.560305 23.395345 
L 708.780199 25.155372 
L 708.780199 25.155372 
" clip-path="url(#pea23fb545e)" style="fill: none; stroke: #feffb3; stroke-width: 1.5; stroke-linecap: square"/>
   </g>
   <g id="patch_3">
    <path d="M 69.616562 339.84 
L 69.616562 7.2 
" style="fill: none; stroke: #ffffff; stroke-width: 0.8; stroke-linejoin: miter; stroke-linecap: square"/>
   </g>
   <g id="patch_4">
    <path d="M 739.216563 339.84 
L 739.216563 7.2 
" style="fill: none; stroke: #ffffff; stroke-width: 0.8; stroke-linejoin: miter; stroke-linecap: square"/>
   </g>
   <g id="patch_5">
    <path d="M 69.616562 339.84 
L 739.216563 339.84 
" style="fill: none; stroke: #ffffff; stroke-width: 0.8; stroke-linejoin: miter; stroke-linecap: square"/>
   </g>
   <g id="patch_6">
    <path d="M 69.616562 7.2 
L 739.216563 7.2 
" style="fill: none; stroke: #ffffff; stroke-width: 0.8; stroke-linejoin: miter; stroke-linecap: square"/>
   </g>
   <g id="legend_1">
    <g id="patch_7">
     <path d="M 534.896563 331.84 
L 728.016562 331.84 
Q 731.216563 331.84 731.216563 328.64 
L 731.216563 283.235 
Q 731.216563 280.035 728.016562 280.035 
L 534.896563 280.035 
Q 531.696563 280.035 531.696563 283.235 
L 531.696563 328.64 
Q 531.696563 331.84 534.896563 331.84 
z
" style="opacity: 0.8; stroke: #cccccc; stroke-linejoin: miter"/>
    </g>
    <g id="line2d_14">
     <path d="M 538.096563 292.9925 
L 554.096563 292.9925 
L 570.096563 292.9925 
" style="fill: none; stroke: #8dd3c7; stroke-width: 1.5; stroke-linecap: square"/>
    </g>
    <g id="text_14">
     <!-- UCB ($c=2$) -->
     <g style="fill: #ffffff" transform="translate(582.896562 298.5925) scale(0.16 -0.16)">
      <defs>
       <path id="DejaVuSans-55" d="M 556 4666 
L 1191 4666 
L 1191 1831 
Q 1191 1081 1462 751 
Q 1734 422 2344 422 
Q 2950 422 3222 751 
Q 3494 1081 3494 1831 
L 3494 4666 
L 4128 4666 
L 4128 1753 
Q 4128 841 3676 375 
Q 3225 -91 2344 -91 
Q 1459 -91 1007 375 
Q 556 841 556 1753 
L 556 4666 
z
" transform="scale(0.015625)"/>
       <path id="DejaVuSans-43" d="M 4122 4306 
L 4122 3641 
Q 3803 3938 3442 4084 
Q 3081 4231 2675 4231 
Q 1875 4231 1450 3742 
Q 1025 3253 1025 2328 
Q 1025 1406 1450 917 
Q 1875 428 2675 428 
Q 3081 428 3442 575 
Q 3803 722 4122 1019 
L 4122 359 
Q 3791 134 3420 21 
Q 3050 -91 2638 -91 
Q 1578 -91 968 557 
Q 359 1206 359 2328 
Q 359 3453 968 4101 
Q 1578 4750 2638 4750 
Q 3056 4750 3426 4639 
Q 3797 4528 4122 4306 
z
" transform="scale(0.015625)"/>
       <path id="DejaVuSans-42" d="M 1259 2228 
L 1259 519 
L 2272 519 
Q 2781 519 3026 730 
Q 3272 941 3272 1375 
Q 3272 1813 3026 2020 
Q 2781 2228 2272 2228 
L 1259 2228 
z
M 1259 4147 
L 1259 2741 
L 2194 2741 
Q 2656 2741 2882 2914 
Q 3109 3088 3109 3444 
Q 3109 3797 2882 3972 
Q 2656 4147 2194 4147 
L 1259 4147 
z
M 628 4666 
L 2241 4666 
Q 2963 4666 3353 4366 
Q 3744 4066 3744 3513 
Q 3744 3084 3544 2831 
Q 3344 2578 2956 2516 
Q 3422 2416 3680 2098 
Q 3938 1781 3938 1306 
Q 3938 681 3513 340 
Q 3088 0 2303 0 
L 628 0 
L 628 4666 
z
" transform="scale(0.015625)"/>
       <path id="DejaVuSans-28" d="M 1984 4856 
Q 1566 4138 1362 3434 
Q 1159 2731 1159 2009 
Q 1159 1288 1364 580 
Q 1569 -128 1984 -844 
L 1484 -844 
Q 1016 -109 783 600 
Q 550 1309 550 2009 
Q 550 2706 781 3412 
Q 1013 4119 1484 4856 
L 1984 4856 
z
" transform="scale(0.015625)"/>
       <path id="DejaVuSans-Oblique-63" d="M 3431 3366 
L 3316 2797 
Q 3109 2947 2876 3022 
Q 2644 3097 2394 3097 
Q 2119 3097 1870 3000 
Q 1622 2903 1453 2725 
Q 1184 2453 1037 2087 
Q 891 1722 891 1331 
Q 891 859 1127 628 
Q 1363 397 1844 397 
Q 2081 397 2348 469 
Q 2616 541 2906 684 
L 2797 116 
Q 2547 13 2283 -39 
Q 2019 -91 1741 -91 
Q 1044 -91 669 257 
Q 294 606 294 1253 
Q 294 1797 489 2255 
Q 684 2713 1069 3078 
Q 1331 3328 1684 3456 
Q 2038 3584 2456 3584 
Q 2700 3584 2940 3529 
Q 3181 3475 3431 3366 
z
" transform="scale(0.015625)"/>
       <path id="DejaVuSans-3d" d="M 678 2906 
L 4684 2906 
L 4684 2381 
L 678 2381 
L 678 2906 
z
M 678 1631 
L 4684 1631 
L 4684 1100 
L 678 1100 
L 678 1631 
z
" transform="scale(0.015625)"/>
       <path id="DejaVuSans-29" d="M 513 4856 
L 1013 4856 
Q 1481 4119 1714 3412 
Q 1947 2706 1947 2009 
Q 1947 1309 1714 600 
Q 1481 -109 1013 -844 
L 513 -844 
Q 928 -128 1133 580 
Q 1338 1288 1338 2009 
Q 1338 2731 1133 3434 
Q 928 4138 513 4856 
z
" transform="scale(0.015625)"/>
      </defs>
      <use xlink:href="#DejaVuSans-55" transform="translate(0 0.125)"/>
      <use xlink:href="#DejaVuSans-43" transform="translate(73.193359 0.125)"/>
      <use xlink:href="#DejaVuSans-42" transform="translate(143.017578 0.125)"/>
      <use xlink:href="#DejaVuSans-20" transform="translate(211.621094 0.125)"/>
      <use xlink:href="#DejaVuSans-28" transform="translate(243.408203 0.125)"/>
      <use xlink:href="#DejaVuSans-Oblique-63" transform="translate(282.421875 0.125)"/>
      <use xlink:href="#DejaVuSans-3d" transform="translate(356.884766 0.125)"/>
      <use xlink:href="#DejaVuSans-32" transform="translate(460.15625 0.125)"/>
      <use xlink:href="#DejaVuSans-29" transform="translate(523.779297 0.125)"/>
     </g>
    </g>
    <g id="line2d_15">
     <path d="M 538.096563 316.48 
L 554.096563 316.48 
L 570.096563 316.48 
" style="fill: none; stroke: #feffb3; stroke-width: 1.5; stroke-linecap: square"/>
    </g>
    <g id="text_15">
     <!-- $\epsilon$-greedy ($\epsilon=0.1$) -->
     <g style="fill: #ffffff" transform="translate(582.896562 322.08) scale(0.16 -0.16)">
      <defs>
       <path id="DejaVuSans-Oblique-3b5" d="M 1263 1888 
Q 925 1963 778 2166 
Q 669 2309 669 2503 
Q 669 3034 1175 3344 
Q 1575 3588 2188 3588 
Q 2425 3588 2684 3550 
Q 2944 3513 3234 3438 
L 3134 2916 
Q 2847 3006 2606 3047 
Q 2359 3088 2138 3088 
Q 1766 3088 1522 2944 
Q 1228 2772 1228 2522 
Q 1228 2356 1381 2241 
Q 1563 2103 1925 2103 
L 2409 2103 
L 2319 1628 
L 1856 1628 
Q 1425 1628 1172 1469 
Q 828 1253 828 916 
Q 828 703 1013 563 
Q 1244 388 1716 388 
Q 2006 388 2284 444 
Q 2563 503 2806 619 
L 2700 84 
Q 2403 -3 2131 -47 
Q 1859 -91 1609 -91 
Q 866 -91 516 194 
Q 250 413 250 781 
Q 250 1278 600 1584 
Q 859 1813 1263 1888 
z
" transform="scale(0.015625)"/>
       <path id="DejaVuSans-2d" d="M 313 2009 
L 1997 2009 
L 1997 1497 
L 313 1497 
L 313 2009 
z
" transform="scale(0.015625)"/>
       <path id="DejaVuSans-79" d="M 2059 -325 
Q 1816 -950 1584 -1140 
Q 1353 -1331 966 -1331 
L 506 -1331 
L 506 -850 
L 844 -850 
Q 1081 -850 1212 -737 
Q 1344 -625 1503 -206 
L 1606 56 
L 191 3500 
L 800 3500 
L 1894 763 
L 2988 3500 
L 3597 3500 
L 2059 -325 
z
" transform="scale(0.015625)"/>
      </defs>
      <use xlink:href="#DejaVuSans-Oblique-3b5" transform="translate(0 0.015625)"/>
      <use xlink:href="#DejaVuSans-2d" transform="translate(54.052734 0.015625)"/>
      <use xlink:href="#DejaVuSans-67" transform="translate(90.136719 0.015625)"/>
      <use xlink:href="#DejaVuSans-72" transform="translate(153.613281 0.015625)"/>
      <use xlink:href="#DejaVuSans-65" transform="translate(194.726562 0.015625)"/>
      <use xlink:href="#DejaVuSans-65" transform="translate(256.25 0.015625)"/>
      <use xlink:href="#DejaVuSans-64" transform="translate(317.773438 0.015625)"/>
      <use xlink:href="#DejaVuSans-79" transform="translate(381.25 0.015625)"/>
      <use xlink:href="#DejaVuSans-20" transform="translate(440.429688 0.015625)"/>
      <use xlink:href="#DejaVuSans-28" transform="translate(472.216797 0.015625)"/>
      <use xlink:href="#DejaVuSans-Oblique-3b5" transform="translate(511.230469 0.015625)"/>
      <use xlink:href="#DejaVuSans-3d" transform="translate(584.765625 0.015625)"/>
      <use xlink:href="#DejaVuSans-30" transform="translate(688.037109 0.015625)"/>
      <use xlink:href="#DejaVuSans-2e" transform="translate(751.660156 0.015625)"/>
      <use xlink:href="#DejaVuSans-31" transform="translate(783.447266 0.015625)"/>
      <use xlink:href="#DejaVuSans-29" transform="translate(847.070312 0.015625)"/>
     </g>
    </g>
   </g>
  </g>
 </g>
 <defs>
  <clipPath id="pea23fb545e">
   <rect x="69.616562" y="7.2" width="669.6" height="332.64"/>
  </clipPath>
 </defs>
</svg>
