<?xml version="1.0" encoding="utf-8" standalone="no"?>
<!DOCTYPE svg PUBLIC "-//W3C//DTD SVG 1.1//EN"
  "http://www.w3.org/Graphics/SVG/1.1/DTD/svg11.dtd">
<svg xmlns:xlink="http://www.w3.org/1999/xlink" width="734.685pt" height="389.01pt" viewBox="0 0 734.685 389.01" xmlns="http://www.w3.org/2000/svg" version="1.1">
 <metadata>
  <rdf:RDF xmlns:dc="http://purl.org/dc/elements/1.1/" xmlns:cc="http://creativecommons.org/ns#" xmlns:rdf="http://www.w3.org/1999/02/22-rdf-syntax-ns#">
   <cc:Work>
    <dc:type rdf:resource="http://purl.org/dc/dcmitype/StillImage"/>
    <dc:date>2026-03-08T08:58:29.266310</dc:date>
    <dc:format>image/svg+xml</dc:format>
    <dc:creator>
     <cc:Agent>
      <dc:title>Matplotlib v3.10.3, https://matplotlib.org/</dc:title>
     </cc:Agent>
    </dc:creator>
   </cc:Work>
  </rdf:RDF>
 </metadata>
 <defs>
  <style type="text/css">*{stroke-linejoin: round; stroke-linecap: butt}</style>
 </defs>
 <g id="figure_1">
  <g id="patch_1">
   <path d="M 0 389.01 
L 734.685 389.01 
L 734.685 0 
L 0 0 
z
"/>
  </g>
  <g id="axes_1">
   <g id="patch_2">
    <path d="M 57.885 339.84 
L 727.485 339.84 
L 727.485 7.2 
L 57.885 7.2 
z
"/>
   </g>
   <g id="matplotlib.axis_1">
    <g id="xtick_1">
     <g id="line2d_1">
      <defs>
       <path id="mb4e4c83207" d="M 0 0 
L 0 3.5 
" style="stroke: #ffffff; stroke-width: 0.8"/>
      </defs>
      <g>
       <use xlink:href="#mb4e4c83207" x="88.321364" y="339.84" style="fill: #ffffff; stroke: #ffffff; stroke-width: 0.8"/>
      </g>
     </g>
     <g id="text_1">
      <!-- 0 -->
      <g style="fill: #ffffff" transform="translate(83.867614 357.477813) scale(0.14 -0.14)">
       <defs>
        <path id="DejaVuSans-30" d="M 2034 4250 
Q 1547 4250 1301 3770 
Q 1056 3291 1056 2328 
Q 1056 1369 1301 889 
Q 1547 409 2034 409 
Q 2525 409 2770 889 
Q 3016 1369 3016 2328 
Q 3016 3291 2770 3770 
Q 2525 4250 2034 4250 
z
M 2034 4750 
Q 2819 4750 3233 4129 
Q 3647 3509 3647 2328 
Q 3647 1150 3233 529 
Q 2819 -91 2034 -91 
Q 1250 -91 836 529 
Q 422 1150 422 2328 
Q 422 3509 836 4129 
Q 1250 4750 2034 4750 
z
" transform="scale(0.015625)"/>
       </defs>
       <use xlink:href="#DejaVuSans-30"/>
      </g>
     </g>
    </g>
    <g id="xtick_2">
     <g id="line2d_2">
      <g>
       <use xlink:href="#mb4e4c83207" x="210.310797" y="339.84" style="fill: #ffffff; stroke: #ffffff; stroke-width: 0.8"/>
      </g>
     </g>
     <g id="text_2">
      <!-- 100 -->
      <g style="fill: #ffffff" transform="translate(196.949547 357.477813) scale(0.14 -0.14)">
       <defs>
        <path id="DejaVuSans-31" d="M 794 531 
L 1825 531 
L 1825 4091 
L 703 3866 
L 703 4441 
L 1819 4666 
L 2450 4666 
L 2450 531 
L 3481 531 
L 3481 0 
L 794 0 
L 794 531 
z
" transform="scale(0.015625)"/>
       </defs>
       <use xlink:href="#DejaVuSans-31"/>
       <use xlink:href="#DejaVuSans-30" transform="translate(63.623047 0)"/>
       <use xlink:href="#DejaVuSans-30" transform="translate(127.246094 0)"/>
      </g>
     </g>
    </g>
    <g id="xtick_3">
     <g id="line2d_3">
      <g>
       <use xlink:href="#mb4e4c83207" x="332.30023" y="339.84" style="fill: #ffffff; stroke: #ffffff; stroke-width: 0.8"/>
      </g>
     </g>
     <g id="text_3">
      <!-- 200 -->
      <g style="fill: #ffffff" transform="translate(318.93898 357.477813) scale(0.14 -0.14)">
       <defs>
        <path id="DejaVuSans-32" d="M 1228 531 
L 3431 531 
L 3431 0 
L 469 0 
L 469 531 
Q 828 903 1448 1529 
Q 2069 2156 2228 2338 
Q 2531 2678 2651 2914 
Q 2772 3150 2772 3378 
Q 2772 3750 2511 3984 
Q 2250 4219 1831 4219 
Q 1534 4219 1204 4116 
Q 875 4013 500 3803 
L 500 4441 
Q 881 4594 1212 4672 
Q 1544 4750 1819 4750 
Q 2544 4750 2975 4387 
Q 3406 4025 3406 3419 
Q 3406 3131 3298 2873 
Q 3191 2616 2906 2266 
Q 2828 2175 2409 1742 
Q 1991 1309 1228 531 
z
" transform="scale(0.015625)"/>
       </defs>
       <use xlink:href="#DejaVuSans-32"/>
       <use xlink:href="#DejaVuSans-30" transform="translate(63.623047 0)"/>
       <use xlink:href="#DejaVuSans-30" transform="translate(127.246094 0)"/>
      </g>
     </g>
    </g>
    <g id="xtick_4">
     <g id="line2d_4">
      <g>
       <use xlink:href="#mb4e4c83207" x="454.289664" y="339.84" style="fill: #ffffff; stroke: #ffffff; stroke-width: 0.8"/>
      </g>
     </g>
     <g id="text_4">
      <!-- 300 -->
      <g style="fill: #ffffff" transform="translate(440.928414 357.477813) scale(0.14 -0.14)">
       <defs>
        <path id="DejaVuSans-33" d="M 2597 2516 
Q 3050 2419 3304 2112 
Q 3559 1806 3559 1356 
Q 3559 666 3084 287 
Q 2609 -91 1734 -91 
Q 1441 -91 1130 -33 
Q 819 25 488 141 
L 488 750 
Q 750 597 1062 519 
Q 1375 441 1716 441 
Q 2309 441 2620 675 
Q 2931 909 2931 1356 
Q 2931 1769 2642 2001 
Q 2353 2234 1838 2234 
L 1294 2234 
L 1294 2753 
L 1863 2753 
Q 2328 2753 2575 2939 
Q 2822 3125 2822 3475 
Q 2822 3834 2567 4026 
Q 2313 4219 1838 4219 
Q 1578 4219 1281 4162 
Q 984 4106 628 3988 
L 628 4550 
Q 988 4650 1302 4700 
Q 1616 4750 1894 4750 
Q 2613 4750 3031 4423 
Q 3450 4097 3450 3541 
Q 3450 3153 3228 2886 
Q 3006 2619 2597 2516 
z
" transform="scale(0.015625)"/>
       </defs>
       <use xlink:href="#DejaVuSans-33"/>
       <use xlink:href="#DejaVuSans-30" transform="translate(63.623047 0)"/>
       <use xlink:href="#DejaVuSans-30" transform="translate(127.246094 0)"/>
      </g>
     </g>
    </g>
    <g id="xtick_5">
     <g id="line2d_5">
      <g>
       <use xlink:href="#mb4e4c83207" x="576.279097" y="339.84" style="fill: #ffffff; stroke: #ffffff; stroke-width: 0.8"/>
      </g>
     </g>
     <g id="text_5">
      <!-- 400 -->
      <g style="fill: #ffffff" transform="translate(562.917847 357.477813) scale(0.14 -0.14)">
       <defs>
        <path id="DejaVuSans-34" d="M 2419 4116 
L 825 1625 
L 2419 1625 
L 2419 4116 
z
M 2253 4666 
L 3047 4666 
L 3047 1625 
L 3713 1625 
L 3713 1100 
L 3047 1100 
L 3047 0 
L 2419 0 
L 2419 1100 
L 313 1100 
L 313 1709 
L 2253 4666 
z
" transform="scale(0.015625)"/>
       </defs>
       <use xlink:href="#DejaVuSans-34"/>
       <use xlink:href="#DejaVuSans-30" transform="translate(63.623047 0)"/>
       <use xlink:href="#DejaVuSans-30" transform="translate(127.246094 0)"/>
      </g>
     </g>
    </g>
    <g id="xtick_6">
     <g id="line2d_6">
      <g>
       <use xlink:href="#mb4e4c83207" x="698.268531" y="339.84" style="fill: #ffffff; stroke: #ffffff; stroke-width: 0.8"/>
      </g>
     </g>
     <g id="text_6">
      <!-- 500 -->
      <g style="fill: #ffffff" transform="translate(684.907281 357.477813) scale(0.14 -0.14)">
       <defs>
        <path id="DejaVuSans-35" d="M 691 4666 
L 3169 4666 
L 3169 4134 
L 1269 4134 
L 1269 2991 
Q 1406 3038 1543 3061 
Q 1681 3084 1819 3084 
Q 2600 3084 3056 2656 
Q 3513 2228 3513 1497 
Q 3513 744 3044 326 
Q 2575 -91 1722 -91 
Q 1428 -91 1123 -41 
Q 819 9 494 109 
L 494 744 
Q 775 591 1075 516 
Q 1375 441 1709 441 
Q 2250 441 2565 725 
Q 2881 1009 2881 1497 
Q 2881 1984 2565 2268 
Q 2250 2553 1709 2553 
Q 1456 2553 1204 2497 
Q 953 2441 691 2322 
L 691 4666 
z
" transform="scale(0.015625)"/>
       </defs>
       <use xlink:href="#DejaVuSans-35"/>
       <use xlink:href="#DejaVuSans-30" transform="translate(63.623047 0)"/>
       <use xlink:href="#DejaVuSans-30" transform="translate(127.246094 0)"/>
      </g>
     </g>
    </g>
    <g id="text_7">
     <!-- Steps -->
     <g style="fill: #ffffff" transform="translate(367.503281 378.066563) scale(0.18 -0.18)">
      <defs>
       <path id="DejaVuSans-53" d="M 3425 4513 
L 3425 3897 
Q 3066 4069 2747 4153 
Q 2428 4238 2131 4238 
Q 1616 4238 1336 4038 
Q 1056 3838 1056 3469 
Q 1056 3159 1242 3001 
Q 1428 2844 1947 2747 
L 2328 2669 
Q 3034 2534 3370 2195 
Q 3706 1856 3706 1288 
Q 3706 609 3251 259 
Q 2797 -91 1919 -91 
Q 1588 -91 1214 -16 
Q 841 59 441 206 
L 441 856 
Q 825 641 1194 531 
Q 1563 422 1919 422 
Q 2459 422 2753 634 
Q 3047 847 3047 1241 
Q 3047 1584 2836 1778 
Q 2625 1972 2144 2069 
L 1759 2144 
Q 1053 2284 737 2584 
Q 422 2884 422 3419 
Q 422 4038 858 4394 
Q 1294 4750 2059 4750 
Q 2388 4750 2728 4690 
Q 3069 4631 3425 4513 
z
" transform="scale(0.015625)"/>
       <path id="DejaVuSans-74" d="M 1172 4494 
L 1172 3500 
L 2356 3500 
L 2356 3053 
L 1172 3053 
L 1172 1153 
Q 1172 725 1289 603 
Q 1406 481 1766 481 
L 2356 481 
L 2356 0 
L 1766 0 
Q 1100 0 847 248 
Q 594 497 594 1153 
L 594 3053 
L 172 3053 
L 172 3500 
L 594 3500 
L 594 4494 
L 1172 4494 
z
" transform="scale(0.015625)"/>
       <path id="DejaVuSans-65" d="M 3597 1894 
L 3597 1613 
L 953 1613 
Q 991 1019 1311 708 
Q 1631 397 2203 397 
Q 2534 397 2845 478 
Q 3156 559 3463 722 
L 3463 178 
Q 3153 47 2828 -22 
Q 2503 -91 2169 -91 
Q 1331 -91 842 396 
Q 353 884 353 1716 
Q 353 2575 817 3079 
Q 1281 3584 2069 3584 
Q 2775 3584 3186 3129 
Q 3597 2675 3597 1894 
z
M 3022 2063 
Q 3016 2534 2758 2815 
Q 2500 3097 2075 3097 
Q 1594 3097 1305 2825 
Q 1016 2553 972 2059 
L 3022 2063 
z
" transform="scale(0.015625)"/>
       <path id="DejaVuSans-70" d="M 1159 525 
L 1159 -1331 
L 581 -1331 
L 581 3500 
L 1159 3500 
L 1159 2969 
Q 1341 3281 1617 3432 
Q 1894 3584 2278 3584 
Q 2916 3584 3314 3078 
Q 3713 2572 3713 1747 
Q 3713 922 3314 415 
Q 2916 -91 2278 -91 
Q 1894 -91 1617 61 
Q 1341 213 1159 525 
z
M 3116 1747 
Q 3116 2381 2855 2742 
Q 2594 3103 2138 3103 
Q 1681 3103 1420 2742 
Q 1159 2381 1159 1747 
Q 1159 1113 1420 752 
Q 1681 391 2138 391 
Q 2594 391 2855 752 
Q 3116 1113 3116 1747 
z
" transform="scale(0.015625)"/>
       <path id="DejaVuSans-73" d="M 2834 3397 
L 2834 2853 
Q 2591 2978 2328 3040 
Q 2066 3103 1784 3103 
Q 1356 3103 1142 2972 
Q 928 2841 928 2578 
Q 928 2378 1081 2264 
Q 1234 2150 1697 2047 
L 1894 2003 
Q 2506 1872 2764 1633 
Q 3022 1394 3022 966 
Q 3022 478 2636 193 
Q 2250 -91 1575 -91 
Q 1294 -91 989 -36 
Q 684 19 347 128 
L 347 722 
Q 666 556 975 473 
Q 1284 391 1588 391 
Q 1994 391 2212 530 
Q 2431 669 2431 922 
Q 2431 1156 2273 1281 
Q 2116 1406 1581 1522 
L 1381 1569 
Q 847 1681 609 1914 
Q 372 2147 372 2553 
Q 372 3047 722 3315 
Q 1072 3584 1716 3584 
Q 2034 3584 2315 3537 
Q 2597 3491 2834 3397 
z
" transform="scale(0.015625)"/>
      </defs>
      <use xlink:href="#DejaVuSans-53"/>
      <use xlink:href="#DejaVuSans-74" transform="translate(63.476562 0)"/>
      <use xlink:href="#DejaVuSans-65" transform="translate(102.685547 0)"/>
      <use xlink:href="#DejaVuSans-70" transform="translate(164.208984 0)"/>
      <use xlink:href="#DejaVuSans-73" transform="translate(227.685547 0)"/>
     </g>
    </g>
   </g>
   <g id="matplotlib.axis_2">
    <g id="ytick_1">
     <g id="line2d_7">
      <defs>
       <path id="m05ba8cc9d4" d="M 0 0 
L -3.5 0 
" style="stroke: #ffffff; stroke-width: 0.8"/>
      </defs>
      <g>
       <use xlink:href="#m05ba8cc9d4" x="57.885" y="319.271955" style="fill: #ffffff; stroke: #ffffff; stroke-width: 0.8"/>
      </g>
     </g>
     <g id="text_8">
      <!-- 0.0 -->
      <g style="fill: #ffffff" transform="translate(28.620625 324.590861) scale(0.14 -0.14)">
       <defs>
        <path id="DejaVuSans-2e" d="M 684 794 
L 1344 794 
L 1344 0 
L 684 0 
L 684 794 
z
" transform="scale(0.015625)"/>
       </defs>
       <use xlink:href="#DejaVuSans-30"/>
       <use xlink:href="#DejaVuSans-2e" transform="translate(63.623047 0)"/>
       <use xlink:href="#DejaVuSans-30" transform="translate(95.410156 0)"/>
      </g>
     </g>
    </g>
    <g id="ytick_2">
     <g id="line2d_8">
      <g>
       <use xlink:href="#m05ba8cc9d4" x="57.885" y="279.063523" style="fill: #ffffff; stroke: #ffffff; stroke-width: 0.8"/>
      </g>
     </g>
     <g id="text_9">
      <!-- 0.2 -->
      <g style="fill: #ffffff" transform="translate(28.620625 284.38243) scale(0.14 -0.14)">
       <use xlink:href="#DejaVuSans-30"/>
       <use xlink:href="#DejaVuSans-2e" transform="translate(63.623047 0)"/>
       <use xlink:href="#DejaVuSans-32" transform="translate(95.410156 0)"/>
      </g>
     </g>
    </g>
    <g id="ytick_3">
     <g id="line2d_9">
      <g>
       <use xlink:href="#m05ba8cc9d4" x="57.885" y="238.855092" style="fill: #ffffff; stroke: #ffffff; stroke-width: 0.8"/>
      </g>
     </g>
     <g id="text_10">
      <!-- 0.4 -->
      <g style="fill: #ffffff" transform="translate(28.620625 244.173998) scale(0.14 -0.14)">
       <use xlink:href="#DejaVuSans-30"/>
       <use xlink:href="#DejaVuSans-2e" transform="translate(63.623047 0)"/>
       <use xlink:href="#DejaVuSans-34" transform="translate(95.410156 0)"/>
      </g>
     </g>
    </g>
    <g id="ytick_4">
     <g id="line2d_10">
      <g>
       <use xlink:href="#m05ba8cc9d4" x="57.885" y="198.64666" style="fill: #ffffff; stroke: #ffffff; stroke-width: 0.8"/>
      </g>
     </g>
     <g id="text_11">
      <!-- 0.6 -->
      <g style="fill: #ffffff" transform="translate(28.620625 203.965566) scale(0.14 -0.14)">
       <defs>
        <path id="DejaVuSans-36" d="M 2113 2584 
Q 1688 2584 1439 2293 
Q 1191 2003 1191 1497 
Q 1191 994 1439 701 
Q 1688 409 2113 409 
Q 2538 409 2786 701 
Q 3034 994 3034 1497 
Q 3034 2003 2786 2293 
Q 2538 2584 2113 2584 
z
M 3366 4563 
L 3366 3988 
Q 3128 4100 2886 4159 
Q 2644 4219 2406 4219 
Q 1781 4219 1451 3797 
Q 1122 3375 1075 2522 
Q 1259 2794 1537 2939 
Q 1816 3084 2150 3084 
Q 2853 3084 3261 2657 
Q 3669 2231 3669 1497 
Q 3669 778 3244 343 
Q 2819 -91 2113 -91 
Q 1303 -91 875 529 
Q 447 1150 447 2328 
Q 447 3434 972 4092 
Q 1497 4750 2381 4750 
Q 2619 4750 2861 4703 
Q 3103 4656 3366 4563 
z
" transform="scale(0.015625)"/>
       </defs>
       <use xlink:href="#DejaVuSans-30"/>
       <use xlink:href="#DejaVuSans-2e" transform="translate(63.623047 0)"/>
       <use xlink:href="#DejaVuSans-36" transform="translate(95.410156 0)"/>
      </g>
     </g>
    </g>
    <g id="ytick_5">
     <g id="line2d_11">
      <g>
       <use xlink:href="#m05ba8cc9d4" x="57.885" y="158.438228" style="fill: #ffffff; stroke: #ffffff; stroke-width: 0.8"/>
      </g>
     </g>
     <g id="text_12">
      <!-- 0.8 -->
      <g style="fill: #ffffff" transform="translate(28.620625 163.757135) scale(0.14 -0.14)">
       <defs>
        <path id="DejaVuSans-38" d="M 2034 2216 
Q 1584 2216 1326 1975 
Q 1069 1734 1069 1313 
Q 1069 891 1326 650 
Q 1584 409 2034 409 
Q 2484 409 2743 651 
Q 3003 894 3003 1313 
Q 3003 1734 2745 1975 
Q 2488 2216 2034 2216 
z
M 1403 2484 
Q 997 2584 770 2862 
Q 544 3141 544 3541 
Q 544 4100 942 4425 
Q 1341 4750 2034 4750 
Q 2731 4750 3128 4425 
Q 3525 4100 3525 3541 
Q 3525 3141 3298 2862 
Q 3072 2584 2669 2484 
Q 3125 2378 3379 2068 
Q 3634 1759 3634 1313 
Q 3634 634 3220 271 
Q 2806 -91 2034 -91 
Q 1263 -91 848 271 
Q 434 634 434 1313 
Q 434 1759 690 2068 
Q 947 2378 1403 2484 
z
M 1172 3481 
Q 1172 3119 1398 2916 
Q 1625 2713 2034 2713 
Q 2441 2713 2670 2916 
Q 2900 3119 2900 3481 
Q 2900 3844 2670 4047 
Q 2441 4250 2034 4250 
Q 1625 4250 1398 4047 
Q 1172 3844 1172 3481 
z
" transform="scale(0.015625)"/>
       </defs>
       <use xlink:href="#DejaVuSans-30"/>
       <use xlink:href="#DejaVuSans-2e" transform="translate(63.623047 0)"/>
       <use xlink:href="#DejaVuSans-38" transform="translate(95.410156 0)"/>
      </g>
     </g>
    </g>
    <g id="ytick_6">
     <g id="line2d_12">
      <g>
       <use xlink:href="#m05ba8cc9d4" x="57.885" y="118.229797" style="fill: #ffffff; stroke: #ffffff; stroke-width: 0.8"/>
      </g>
     </g>
     <g id="text_13">
      <!-- 1.0 -->
      <g style="fill: #ffffff" transform="translate(28.620625 123.548703) scale(0.14 -0.14)">
       <use xlink:href="#DejaVuSans-31"/>
       <use xlink:href="#DejaVuSans-2e" transform="translate(63.623047 0)"/>
       <use xlink:href="#DejaVuSans-30" transform="translate(95.410156 0)"/>
      </g>
     </g>
    </g>
    <g id="ytick_7">
     <g id="line2d_13">
      <g>
       <use xlink:href="#m05ba8cc9d4" x="57.885" y="78.021365" style="fill: #ffffff; stroke: #ffffff; stroke-width: 0.8"/>
      </g>
     </g>
     <g id="text_14">
      <!-- 1.2 -->
      <g style="fill: #ffffff" transform="translate(28.620625 83.340271) scale(0.14 -0.14)">
       <use xlink:href="#DejaVuSans-31"/>
       <use xlink:href="#DejaVuSans-2e" transform="translate(63.623047 0)"/>
       <use xlink:href="#DejaVuSans-32" transform="translate(95.410156 0)"/>
      </g>
     </g>
    </g>
    <g id="ytick_8">
     <g id="line2d_14">
      <g>
       <use xlink:href="#m05ba8cc9d4" x="57.885" y="37.812934" style="fill: #ffffff; stroke: #ffffff; stroke-width: 0.8"/>
      </g>
     </g>
     <g id="text_15">
      <!-- 1.4 -->
      <g style="fill: #ffffff" transform="translate(28.620625 43.13184) scale(0.14 -0.14)">
       <use xlink:href="#DejaVuSans-31"/>
       <use xlink:href="#DejaVuSans-2e" transform="translate(63.623047 0)"/>
       <use xlink:href="#DejaVuSans-34" transform="translate(95.410156 0)"/>
      </g>
     </g>
    </g>
    <g id="text_16">
     <!-- Average reward -->
     <g style="fill: #ffffff" transform="translate(20.877188 244.506094) rotate(-90) scale(0.18 -0.18)">
      <defs>
       <path id="DejaVuSans-41" d="M 2188 4044 
L 1331 1722 
L 3047 1722 
L 2188 4044 
z
M 1831 4666 
L 2547 4666 
L 4325 0 
L 3669 0 
L 3244 1197 
L 1141 1197 
L 716 0 
L 50 0 
L 1831 4666 
z
" transform="scale(0.015625)"/>
       <path id="DejaVuSans-76" d="M 191 3500 
L 800 3500 
L 1894 563 
L 2988 3500 
L 3597 3500 
L 2284 0 
L 1503 0 
L 191 3500 
z
" transform="scale(0.015625)"/>
       <path id="DejaVuSans-72" d="M 2631 2963 
Q 2534 3019 2420 3045 
Q 2306 3072 2169 3072 
Q 1681 3072 1420 2755 
Q 1159 2438 1159 1844 
L 1159 0 
L 581 0 
L 581 3500 
L 1159 3500 
L 1159 2956 
Q 1341 3275 1631 3429 
Q 1922 3584 2338 3584 
Q 2397 3584 2469 3576 
Q 2541 3569 2628 3553 
L 2631 2963 
z
" transform="scale(0.015625)"/>
       <path id="DejaVuSans-61" d="M 2194 1759 
Q 1497 1759 1228 1600 
Q 959 1441 959 1056 
Q 959 750 1161 570 
Q 1363 391 1709 391 
Q 2188 391 2477 730 
Q 2766 1069 2766 1631 
L 2766 1759 
L 2194 1759 
z
M 3341 1997 
L 3341 0 
L 2766 0 
L 2766 531 
Q 2569 213 2275 61 
Q 1981 -91 1556 -91 
Q 1019 -91 701 211 
Q 384 513 384 1019 
Q 384 1609 779 1909 
Q 1175 2209 1959 2209 
L 2766 2209 
L 2766 2266 
Q 2766 2663 2505 2880 
Q 2244 3097 1772 3097 
Q 1472 3097 1187 3025 
Q 903 2953 641 2809 
L 641 3341 
Q 956 3463 1253 3523 
Q 1550 3584 1831 3584 
Q 2591 3584 2966 3190 
Q 3341 2797 3341 1997 
z
" transform="scale(0.015625)"/>
       <path id="DejaVuSans-67" d="M 2906 1791 
Q 2906 2416 2648 2759 
Q 2391 3103 1925 3103 
Q 1463 3103 1205 2759 
Q 947 2416 947 1791 
Q 947 1169 1205 825 
Q 1463 481 1925 481 
Q 2391 481 2648 825 
Q 2906 1169 2906 1791 
z
M 3481 434 
Q 3481 -459 3084 -895 
Q 2688 -1331 1869 -1331 
Q 1566 -1331 1297 -1286 
Q 1028 -1241 775 -1147 
L 775 -588 
Q 1028 -725 1275 -790 
Q 1522 -856 1778 -856 
Q 2344 -856 2625 -561 
Q 2906 -266 2906 331 
L 2906 616 
Q 2728 306 2450 153 
Q 2172 0 1784 0 
Q 1141 0 747 490 
Q 353 981 353 1791 
Q 353 2603 747 3093 
Q 1141 3584 1784 3584 
Q 2172 3584 2450 3431 
Q 2728 3278 2906 2969 
L 2906 3500 
L 3481 3500 
L 3481 434 
z
" transform="scale(0.015625)"/>
       <path id="DejaVuSans-20" transform="scale(0.015625)"/>
       <path id="DejaVuSans-77" d="M 269 3500 
L 844 3500 
L 1563 769 
L 2278 3500 
L 2956 3500 
L 3675 769 
L 4391 3500 
L 4966 3500 
L 4050 0 
L 3372 0 
L 2619 2869 
L 1863 0 
L 1184 0 
L 269 3500 
z
" transform="scale(0.015625)"/>
       <path id="DejaVuSans-64" d="M 2906 2969 
L 2906 4863 
L 3481 4863 
L 3481 0 
L 2906 0 
L 2906 525 
Q 2725 213 2448 61 
Q 2172 -91 1784 -91 
Q 1150 -91 751 415 
Q 353 922 353 1747 
Q 353 2572 751 3078 
Q 1150 3584 1784 3584 
Q 2172 3584 2448 3432 
Q 2725 3281 2906 2969 
z
M 947 1747 
Q 947 1113 1208 752 
Q 1469 391 1925 391 
Q 2381 391 2643 752 
Q 2906 1113 2906 1747 
Q 2906 2381 2643 2742 
Q 2381 3103 1925 3103 
Q 1469 3103 1208 2742 
Q 947 2381 947 1747 
z
" transform="scale(0.015625)"/>
      </defs>
      <use xlink:href="#DejaVuSans-41"/>
      <use xlink:href="#DejaVuSans-76" transform="translate(62.533203 0)"/>
      <use xlink:href="#DejaVuSans-65" transform="translate(121.712891 0)"/>
      <use xlink:href="#DejaVuSans-72" transform="translate(183.236328 0)"/>
      <use xlink:href="#DejaVuSans-61" transform="translate(224.349609 0)"/>
      <use xlink:href="#DejaVuSans-67" transform="translate(285.628906 0)"/>
      <use xlink:href="#DejaVuSans-65" transform="translate(349.105469 0)"/>
      <use xlink:href="#DejaVuSans-20" transform="translate(410.628906 0)"/>
      <use xlink:href="#DejaVuSans-72" transform="translate(442.416016 0)"/>
      <use xlink:href="#DejaVuSans-65" transform="translate(481.279297 0)"/>
      <use xlink:href="#DejaVuSans-77" transform="translate(542.802734 0)"/>
      <use xlink:href="#DejaVuSans-61" transform="translate(624.589844 0)"/>
      <use xlink:href="#DejaVuSans-72" transform="translate(685.869141 0)"/>
      <use xlink:href="#DejaVuSans-64" transform="translate(725.232422 0)"/>
     </g>
    </g>
   </g>
   <g id="line2d_15">
    <path d="M 88.321364 315.258168 
L 89.541258 324.476734 
L 90.761152 315.484249 
L 91.981047 320.338271 
L 93.200941 317.31686 
L 94.420835 323.217726 
L 95.64073 324.72 
L 96.860624 315.521999 
L 98.080518 316.616439 
L 99.300413 320.167174 
L 100.520307 103.422863 
L 101.740201 161.027783 
L 102.960096 207.157385 
L 104.17999 239.51948 
L 106.619779 286.486061 
L 107.839673 301.348254 
L 109.059567 305.310292 
L 110.279462 315.245105 
L 111.499356 289.562291 
L 112.71925 194.931417 
L 113.939145 152.425677 
L 115.159039 123.653604 
L 116.378933 104.941589 
L 117.598828 99.125622 
L 118.818722 96.163763 
L 120.038616 87.239659 
L 121.258511 88.371609 
L 122.478405 81.305167 
L 123.698299 75.495516 
L 124.918194 78.306024 
L 126.138088 72.150163 
L 127.357982 75.039016 
L 129.797771 63.128621 
L 131.017665 63.55107 
L 132.23756 64.955272 
L 133.457454 62.741704 
L 134.677348 62.530503 
L 135.897243 56.306083 
L 137.117137 57.500437 
L 138.337031 49.240138 
L 139.556926 52.433622 
L 141.996714 53.165741 
L 143.216609 52.963317 
L 144.436503 51.693304 
L 145.656397 53.615219 
L 146.876292 47.656789 
L 148.096186 46.147978 
L 149.31608 48.088943 
L 150.535975 43.488956 
L 151.755869 49.432809 
L 152.975763 46.29922 
L 154.195658 48.005559 
L 155.415552 46.466382 
L 156.635446 47.501691 
L 157.855341 41.641267 
L 159.075235 43.519256 
L 160.295129 39.937649 
L 161.515024 41.619767 
L 162.734918 42.125216 
L 163.954812 44.174123 
L 165.174707 44.911343 
L 166.394601 45.342473 
L 167.614495 42.577166 
L 168.83439 41.781899 
L 170.054284 42.725242 
L 171.274178 44.4815 
L 172.494073 43.250708 
L 173.713967 43.310492 
L 174.933861 45.26183 
L 176.153756 41.134029 
L 177.37365 41.402616 
L 178.593544 39.544042 
L 179.813439 37.215257 
L 181.033333 38.500333 
L 182.253227 43.253793 
L 183.473122 42.113927 
L 184.693016 38.940796 
L 185.91291 41.113009 
L 187.132805 39.726312 
L 188.352699 41.554959 
L 189.572593 38.402902 
L 190.792488 46.209906 
L 192.012382 38.462387 
L 193.232276 34.40891 
L 194.452171 42.469217 
L 195.672065 39.867262 
L 196.891959 38.053803 
L 198.111854 41.454472 
L 199.331748 40.400141 
L 200.551642 36.297087 
L 201.771537 41.028058 
L 202.991431 39.860574 
L 204.211325 37.486386 
L 205.43122 36.227708 
L 206.651114 42.869421 
L 207.871008 38.47185 
L 209.090903 41.093289 
L 210.310797 38.928734 
L 211.530691 37.573636 
L 212.750586 39.509194 
L 213.97048 44.74764 
L 215.190374 41.051942 
L 216.410269 41.796098 
L 217.630163 37.168608 
L 218.850057 42.547817 
L 220.069952 37.000035 
L 221.289846 38.328382 
L 222.50974 36.009177 
L 223.729635 42.089393 
L 224.949529 36.022785 
L 226.169423 38.903149 
L 227.389318 36.735493 
L 228.609212 45.10825 
L 229.829106 45.806249 
L 231.049001 39.165828 
L 232.268895 33.279906 
L 233.488789 40.888135 
L 234.708684 37.344891 
L 235.928578 35.310636 
L 237.148472 35.391817 
L 238.368367 33.391301 
L 239.588261 37.450627 
L 240.808155 40.652424 
L 242.02805 38.389731 
L 243.247944 37.052382 
L 244.467838 41.100352 
L 245.687733 36.942574 
L 246.907627 37.056196 
L 248.127521 41.102856 
L 249.347416 39.28733 
L 250.56731 40.867085 
L 251.787204 42.642704 
L 253.007099 39.355377 
L 254.226993 40.242729 
L 255.446887 33.926396 
L 256.666782 34.877228 
L 257.886676 46.319923 
L 259.10657 38.351792 
L 260.326465 39.216654 
L 261.546359 32.071223 
L 262.766253 37.700029 
L 263.986148 42.61007 
L 265.206042 39.519 
L 266.425936 42.767316 
L 267.645831 38.195501 
L 268.865725 39.014133 
L 270.085619 37.922758 
L 271.305514 38.398413 
L 272.525408 34.706319 
L 273.745302 37.455751 
L 274.965197 39.26371 
L 276.185091 35.99436 
L 277.404985 34.184223 
L 278.62488 36.18065 
L 279.844774 39.630307 
L 281.064668 40.783453 
L 282.284563 32.958391 
L 283.504457 38.879872 
L 284.724351 41.020402 
L 287.16414 36.238484 
L 288.384034 40.075903 
L 289.603929 41.043986 
L 290.823823 41.631664 
L 292.043717 38.146626 
L 293.263612 36.693186 
L 294.483506 33.608544 
L 295.7034 40.453501 
L 296.923295 37.542988 
L 298.143189 35.308393 
L 299.363083 35.741131 
L 300.582978 33.667647 
L 301.802872 37.253612 
L 303.022766 37.481617 
L 304.242661 35.434782 
L 305.462555 34.736341 
L 306.682449 42.115709 
L 307.902344 34.463279 
L 309.122238 37.183369 
L 310.342132 38.376094 
L 311.562027 38.095359 
L 312.781921 36.97848 
L 314.001815 40.807666 
L 315.22171 36.767008 
L 316.441604 38.596182 
L 317.661498 38.238255 
L 318.881393 41.236523 
L 320.101287 33.743083 
L 321.321181 37.122262 
L 322.541076 36.874755 
L 323.76097 39.422707 
L 324.980864 43.230664 
L 326.200759 32.544924 
L 327.420653 34.392324 
L 328.640547 41.226255 
L 329.860442 34.743499 
L 331.080336 34.084891 
L 332.30023 33.905328 
L 333.520125 32.40148 
L 334.740019 37.250409 
L 335.959913 34.21295 
L 337.179808 37.43664 
L 338.399702 33.579277 
L 339.619596 38.053308 
L 340.839491 43.67536 
L 342.059385 35.705501 
L 343.279279 36.834372 
L 345.719068 38.915545 
L 346.938962 40.075466 
L 348.158857 40.3013 
L 349.378751 37.211547 
L 350.598645 40.461445 
L 351.81854 34.897387 
L 353.038434 41.623297 
L 354.258328 36.35889 
L 355.478223 37.815918 
L 356.698117 35.923447 
L 357.918011 34.417624 
L 359.137906 36.716556 
L 360.3578 41.403717 
L 361.577694 38.708505 
L 362.797589 38.120489 
L 364.017483 40.488062 
L 365.237377 38.757971 
L 366.457272 37.804129 
L 367.677166 38.124649 
L 368.89706 30.359339 
L 370.116955 28.655737 
L 371.336849 32.210739 
L 372.556743 41.538004 
L 373.776638 34.600382 
L 374.996532 35.937596 
L 376.216426 34.030288 
L 377.436321 40.048991 
L 378.656215 34.639532 
L 379.876109 34.398567 
L 381.096004 33.681868 
L 382.315898 34.06429 
L 383.535792 36.803698 
L 384.755687 36.92181 
L 385.975581 43.156374 
L 387.195475 36.851855 
L 388.41537 33.376547 
L 389.635264 36.942156 
L 390.855158 41.145391 
L 392.075053 35.138435 
L 393.294947 33.451964 
L 394.514842 37.546923 
L 395.734736 37.950934 
L 396.95463 37.907236 
L 398.174525 36.376333 
L 399.394419 34.53341 
L 400.614313 33.002919 
L 401.834208 37.101389 
L 403.054102 35.085946 
L 404.273996 34.436846 
L 405.493891 36.219926 
L 406.713785 33.67345 
L 407.933679 33.852514 
L 409.153574 31.666736 
L 410.373468 43.060638 
L 411.593362 34.52859 
L 412.813257 36.600275 
L 414.033151 39.835492 
L 415.253045 35.733871 
L 416.47294 30.969128 
L 417.692834 38.752792 
L 418.912728 37.128124 
L 420.132623 36.011642 
L 421.352517 34.052422 
L 422.572411 31.074205 
L 423.792306 37.193583 
L 425.0122 33.925486 
L 426.232094 37.044568 
L 427.451989 37.200083 
L 428.671883 34.809058 
L 429.891777 29.054943 
L 431.111672 30.914454 
L 432.331566 38.080382 
L 433.55146 35.397474 
L 434.771355 29.356279 
L 435.991249 39.117975 
L 437.211143 30.984953 
L 438.431038 31.497266 
L 439.650932 33.791024 
L 440.870826 32.60476 
L 442.090721 34.828918 
L 443.310615 31.313415 
L 444.530509 34.647748 
L 445.750404 35.616514 
L 446.970298 27.076645 
L 448.190192 31.038658 
L 449.410087 31.307447 
L 450.629981 29.739326 
L 451.849875 34.035281 
L 453.06977 31.66243 
L 454.289664 33.014941 
L 455.509558 36.412936 
L 456.729453 33.49094 
L 457.949347 34.03414 
L 459.169241 31.274637 
L 460.389136 31.169776 
L 461.60903 32.521997 
L 462.828924 40.693835 
L 464.048819 42.008638 
L 465.268713 34.916237 
L 466.488607 31.1523 
L 468.928396 39.986321 
L 470.14829 31.429319 
L 471.368185 35.932561 
L 472.588079 36.916687 
L 473.807973 43.200769 
L 475.027868 33.624253 
L 476.247762 34.65996 
L 477.467656 33.366662 
L 478.687551 35.52941 
L 479.907445 33.410251 
L 481.127339 35.372342 
L 482.347234 38.218779 
L 483.567128 40.777769 
L 484.787022 32.693761 
L 486.006917 30.510856 
L 487.226811 30.345328 
L 488.446705 35.214832 
L 489.6666 33.289221 
L 490.886494 30.539667 
L 492.106388 33.572085 
L 493.326283 30.775207 
L 494.546177 37.804677 
L 495.766071 35.173211 
L 496.985966 31.996989 
L 498.20586 35.252878 
L 499.425754 33.460905 
L 500.645649 30.755504 
L 501.865543 32.156866 
L 503.085437 29.460586 
L 504.305332 33.357944 
L 505.525226 33.216509 
L 506.74512 35.227194 
L 507.965015 39.835576 
L 509.184909 35.731358 
L 510.404803 33.471672 
L 511.624698 32.788537 
L 512.844592 35.449014 
L 514.064486 36.530432 
L 516.504275 30.132469 
L 517.724169 32.415313 
L 518.944064 34.137964 
L 520.163958 33.011443 
L 521.383852 34.348353 
L 522.603747 31.423133 
L 523.823641 29.507192 
L 525.043535 27.810097 
L 526.26343 37.08908 
L 527.483324 29.245931 
L 528.703218 29.585191 
L 529.923113 34.347334 
L 531.143007 35.862387 
L 533.582796 36.421561 
L 534.80269 28.955614 
L 536.022584 35.453845 
L 537.242479 36.715673 
L 538.462373 33.672285 
L 539.682267 34.71711 
L 540.902162 34.985789 
L 542.122056 32.037414 
L 543.34195 33.067856 
L 544.561845 37.946596 
L 545.781739 34.709132 
L 547.001633 30.31546 
L 548.221528 27.52732 
L 549.441422 35.217955 
L 550.661316 29.090172 
L 551.881211 30.711391 
L 553.101105 34.524128 
L 554.320999 36.444007 
L 555.540894 32.782524 
L 556.760788 36.399644 
L 557.980682 29.192768 
L 559.200577 31.004609 
L 560.420471 33.057831 
L 561.640365 30.026455 
L 562.86026 30.457778 
L 564.080154 35.903129 
L 565.300048 34.774865 
L 566.519943 30.216839 
L 567.739837 29.416337 
L 568.959731 33.281724 
L 570.179626 34.77852 
L 571.39952 29.036437 
L 572.619414 28.142549 
L 573.839309 24.373832 
L 575.059203 30.022573 
L 576.279097 32.62343 
L 577.498992 29.537608 
L 578.718886 33.61253 
L 579.93878 28.747244 
L 581.158675 28.638024 
L 582.378569 34.533184 
L 583.598463 36.378277 
L 584.818358 29.954995 
L 586.038252 22.32 
L 587.258146 30.515676 
L 588.478041 32.710687 
L 589.697935 31.104954 
L 590.917829 36.079678 
L 592.137724 32.392227 
L 593.357618 31.5413 
L 594.577512 30.925615 
L 595.797407 33.640814 
L 597.017301 28.120895 
L 598.237195 28.721434 
L 599.45709 27.573346 
L 600.676984 27.900086 
L 601.896878 33.315151 
L 603.116773 24.555099 
L 604.336667 25.298216 
L 605.556561 29.769624 
L 606.776456 29.119283 
L 607.99635 29.439979 
L 609.216244 26.938086 
L 610.436139 33.55632 
L 611.656033 29.197317 
L 612.875927 30.617986 
L 614.095822 30.376569 
L 615.315716 25.185347 
L 616.53561 31.734573 
L 617.755505 31.894828 
L 618.975399 29.975184 
L 620.195293 35.350474 
L 621.415188 29.932083 
L 622.635082 29.434877 
L 623.854976 28.664453 
L 625.074871 32.401236 
L 626.294765 29.32587 
L 627.514659 28.550306 
L 628.734554 28.321984 
L 629.954448 34.361064 
L 631.174342 28.418823 
L 632.394237 27.922674 
L 633.614131 34.281238 
L 634.834025 26.915148 
L 636.05392 29.350573 
L 638.493708 29.678957 
L 639.713603 26.179884 
L 640.933497 28.451401 
L 642.153391 27.617356 
L 643.373286 28.012341 
L 644.59318 29.602929 
L 645.813074 33.342697 
L 647.032969 26.965698 
L 648.252863 30.585369 
L 649.472757 30.659083 
L 650.692652 33.253912 
L 651.912546 34.901098 
L 653.13244 34.608213 
L 654.352335 32.274938 
L 655.572229 32.189221 
L 656.792123 33.872095 
L 658.012018 28.846887 
L 659.231912 32.671826 
L 660.451806 34.729532 
L 661.671701 33.882974 
L 662.891595 32.451589 
L 664.111489 30.661258 
L 665.331384 23.72376 
L 666.551278 27.144329 
L 667.771172 28.943671 
L 668.991067 29.886249 
L 670.210961 29.150199 
L 671.430855 29.044209 
L 672.65075 31.031101 
L 673.870644 30.710079 
L 675.090538 31.874814 
L 676.310433 26.900377 
L 677.530327 33.834916 
L 678.750221 35.788549 
L 679.970116 35.498359 
L 681.19001 28.757424 
L 682.409904 28.03853 
L 683.629799 31.97717 
L 684.849693 30.145053 
L 686.069587 30.564142 
L 687.289482 26.588058 
L 688.509376 35.242742 
L 689.72927 34.651505 
L 690.949165 29.384816 
L 692.169059 32.540009 
L 693.388953 29.712657 
L 695.828742 32.463418 
L 697.048636 31.523443 
L 697.048636 31.523443 
" clip-path="url(#p578cab6509)" style="fill: none; stroke: #8dd3c7; stroke-width: 1.5; stroke-linecap: square"/>
   </g>
   <g id="line2d_16">
    <path d="M 88.321364 323.966259 
L 89.541258 317.331668 
L 90.761152 321.095435 
L 91.981047 323.487125 
L 93.200941 321.762289 
L 94.420835 320.996223 
L 95.64073 323.444368 
L 96.860624 315.54581 
L 98.080518 321.781865 
L 99.300413 319.416606 
L 100.520307 197.951476 
L 101.740201 138.126415 
L 102.960096 116.392842 
L 104.17999 106.604365 
L 105.399884 100.698372 
L 106.619779 97.729563 
L 107.839673 98.243077 
L 109.059567 97.601609 
L 110.279462 94.590934 
L 111.499356 93.699159 
L 112.71925 94.966672 
L 113.939145 90.160514 
L 115.159039 91.541718 
L 116.378933 92.394456 
L 117.598828 94.562616 
L 118.818722 85.799117 
L 120.038616 91.728683 
L 121.258511 86.864005 
L 122.478405 89.781222 
L 124.918194 78.767686 
L 127.357982 92.010938 
L 128.577877 87.67088 
L 129.797771 86.395481 
L 131.017665 82.778951 
L 132.23756 87.318938 
L 133.457454 82.214357 
L 134.677348 82.3539 
L 135.897243 84.193403 
L 137.117137 80.809804 
L 138.337031 81.761016 
L 139.556926 93.785653 
L 140.77682 80.213147 
L 141.996714 79.491864 
L 143.216609 74.539026 
L 144.436503 79.677934 
L 145.656397 80.630032 
L 146.876292 82.710793 
L 148.096186 75.924848 
L 149.31608 75.806954 
L 150.535975 84.220837 
L 151.755869 83.746197 
L 152.975763 77.091597 
L 154.195658 84.812787 
L 155.415552 81.358114 
L 156.635446 79.901549 
L 157.855341 84.224854 
L 159.075235 74.708894 
L 161.515024 78.857736 
L 162.734918 84.525762 
L 163.954812 80.378484 
L 165.174707 77.57318 
L 166.394601 79.365773 
L 167.614495 81.921926 
L 168.83439 76.769936 
L 170.054284 77.040002 
L 171.274178 76.198097 
L 172.494073 82.311363 
L 173.713967 80.398495 
L 174.933861 73.690479 
L 176.153756 72.898314 
L 177.37365 75.820463 
L 178.593544 75.302015 
L 179.813439 72.885569 
L 181.033333 84.190468 
L 182.253227 75.127927 
L 183.473122 74.930392 
L 184.693016 70.332426 
L 185.91291 69.750656 
L 187.132805 72.683047 
L 188.352699 73.786886 
L 189.572593 75.569304 
L 190.792488 79.080214 
L 192.012382 76.017622 
L 193.232276 69.628565 
L 194.452171 78.311116 
L 195.672065 72.501512 
L 196.891959 83.280142 
L 198.111854 76.92392 
L 199.331748 74.44842 
L 200.551642 77.112883 
L 201.771537 72.299141 
L 202.991431 75.380673 
L 204.211325 75.252554 
L 205.43122 79.886891 
L 206.651114 74.310656 
L 207.871008 75.186154 
L 209.090903 75.87739 
L 210.310797 76.882441 
L 211.530691 72.676842 
L 212.750586 71.495079 
L 213.97048 71.964012 
L 215.190374 74.484645 
L 216.410269 75.485499 
L 217.630163 71.184114 
L 218.850057 69.763512 
L 220.069952 74.542779 
L 221.289846 67.890694 
L 222.50974 71.666236 
L 223.729635 71.656012 
L 224.949529 74.492772 
L 226.169423 77.938886 
L 227.389318 72.216365 
L 228.609212 68.053567 
L 229.829106 75.48292 
L 231.049001 71.026241 
L 232.268895 72.092011 
L 233.488789 69.454401 
L 234.708684 72.90919 
L 235.928578 75.671696 
L 237.148472 75.787679 
L 238.368367 69.224391 
L 239.588261 74.122103 
L 240.808155 67.9689 
L 242.02805 68.845576 
L 243.247944 71.257406 
L 244.467838 68.473576 
L 245.687733 73.343335 
L 246.907627 74.469815 
L 248.127521 74.601181 
L 249.347416 75.929558 
L 250.56731 72.718873 
L 251.787204 70.440732 
L 253.007099 73.797625 
L 254.226993 73.324659 
L 255.446887 69.719826 
L 256.666782 68.528416 
L 257.886676 76.879144 
L 259.10657 65.623798 
L 260.326465 73.08132 
L 261.546359 72.530267 
L 262.766253 73.117765 
L 263.986148 60.879708 
L 265.206042 72.635097 
L 266.425936 67.730039 
L 267.645831 68.763055 
L 268.865725 75.502969 
L 270.085619 66.981968 
L 271.305514 72.37791 
L 272.525408 73.478483 
L 273.745302 71.382504 
L 274.965197 70.111049 
L 276.185091 62.235323 
L 277.404985 72.895581 
L 278.62488 77.253158 
L 279.844774 67.327915 
L 281.064668 67.009713 
L 282.284563 70.837251 
L 283.504457 72.383662 
L 285.944246 66.185987 
L 287.16414 69.143156 
L 288.384034 74.027882 
L 289.603929 69.590952 
L 290.823823 70.025031 
L 292.043717 68.697714 
L 293.263612 71.745958 
L 294.483506 64.938312 
L 295.7034 71.941149 
L 298.143189 66.009594 
L 299.363083 63.913959 
L 300.582978 69.606837 
L 301.802872 69.772462 
L 303.022766 72.566168 
L 304.242661 63.59797 
L 305.462555 69.993985 
L 306.682449 66.075869 
L 307.902344 68.965141 
L 309.122238 69.72728 
L 310.342132 66.011303 
L 311.562027 70.682376 
L 312.781921 69.719511 
L 314.001815 69.445934 
L 315.22171 70.194978 
L 316.441604 66.333833 
L 317.661498 65.293428 
L 318.881393 61.633641 
L 320.101287 66.789753 
L 321.321181 68.595179 
L 322.541076 70.108772 
L 323.76097 64.306937 
L 324.980864 70.485745 
L 326.200759 64.64173 
L 327.420653 72.629449 
L 328.640547 68.35099 
L 329.860442 62.695889 
L 331.080336 66.554795 
L 332.30023 68.245576 
L 333.520125 71.366089 
L 334.740019 64.850645 
L 335.959913 64.344897 
L 337.179808 65.143143 
L 338.399702 66.588349 
L 339.619596 71.106447 
L 340.839491 66.26373 
L 342.059385 66.049298 
L 343.279279 66.273824 
L 344.499174 62.463613 
L 345.719068 66.522078 
L 346.938962 70.034576 
L 348.158857 69.813957 
L 349.378751 66.435589 
L 350.598645 67.726384 
L 351.81854 67.834205 
L 353.038434 64.59913 
L 354.258328 66.720688 
L 355.478223 67.628527 
L 356.698117 66.644991 
L 357.918011 63.853614 
L 359.137906 66.494032 
L 360.3578 65.419706 
L 361.577694 67.090043 
L 362.797589 71.189809 
L 364.017483 66.189561 
L 365.237377 65.416664 
L 366.457272 61.644333 
L 367.677166 61.966986 
L 368.89706 61.559929 
L 370.116955 58.096057 
L 371.336849 68.107107 
L 372.556743 66.83002 
L 373.776638 61.955139 
L 374.996532 59.754126 
L 376.216426 59.152787 
L 377.436321 56.76856 
L 378.656215 65.094671 
L 379.876109 63.607184 
L 381.096004 62.76042 
L 382.315898 60.812002 
L 383.535792 60.584843 
L 384.755687 70.935887 
L 385.975581 65.795441 
L 387.195475 65.147063 
L 388.41537 59.826912 
L 389.635264 69.883643 
L 390.855158 62.93143 
L 392.075053 58.504561 
L 393.294947 61.951891 
L 394.514842 63.874181 
L 395.734736 59.569678 
L 396.95463 59.705668 
L 398.174525 66.171747 
L 399.394419 57.564002 
L 400.614313 64.55782 
L 401.834208 64.727055 
L 403.054102 66.141051 
L 404.273996 62.09226 
L 405.493891 66.007681 
L 406.713785 63.726123 
L 407.933679 60.676036 
L 409.153574 59.480246 
L 410.373468 60.118071 
L 411.593362 62.786302 
L 412.813257 60.570935 
L 414.033151 59.770622 
L 415.253045 64.97821 
L 416.47294 67.252855 
L 417.692834 59.561247 
L 418.912728 61.340947 
L 420.132623 64.044253 
L 421.352517 58.08175 
L 422.572411 64.778205 
L 423.792306 62.586342 
L 425.0122 61.171194 
L 426.232094 62.117953 
L 427.451989 58.011132 
L 429.891777 62.902959 
L 431.111672 59.265629 
L 432.331566 62.7978 
L 433.55146 61.86345 
L 434.771355 69.311204 
L 435.991249 60.957118 
L 437.211143 56.127974 
L 438.431038 64.53257 
L 439.650932 61.215826 
L 440.870826 62.887081 
L 442.090721 63.833686 
L 443.310615 58.214015 
L 444.530509 57.246085 
L 445.750404 63.467386 
L 446.970298 58.304168 
L 448.190192 65.905886 
L 449.410087 62.945546 
L 450.629981 60.842574 
L 451.849875 59.003266 
L 453.06977 59.90849 
L 454.289664 64.134109 
L 455.509558 58.23969 
L 456.729453 66.337735 
L 457.949347 64.918408 
L 459.169241 59.095334 
L 460.389136 56.215522 
L 461.60903 59.348642 
L 462.828924 57.858547 
L 464.048819 59.297417 
L 465.268713 62.734531 
L 466.488607 63.77996 
L 467.708502 60.282524 
L 468.928396 60.820394 
L 470.14829 66.197291 
L 471.368185 64.915204 
L 472.588079 59.956765 
L 473.807973 62.421224 
L 475.027868 60.817207 
L 476.247762 60.216032 
L 477.467656 62.881645 
L 478.687551 60.626286 
L 479.907445 57.135991 
L 481.127339 55.21195 
L 483.567128 59.339189 
L 484.787022 59.072399 
L 486.006917 59.966856 
L 487.226811 58.663232 
L 488.446705 65.930392 
L 489.6666 62.522305 
L 490.886494 58.711567 
L 492.106388 59.295024 
L 493.326283 58.179138 
L 494.546177 60.845321 
L 495.766071 57.304054 
L 496.985966 54.44942 
L 498.20586 61.23595 
L 499.425754 59.470908 
L 500.645649 58.265306 
L 501.865543 60.53509 
L 503.085437 58.081351 
L 504.305332 59.888287 
L 505.525226 59.353948 
L 506.74512 55.650202 
L 507.965015 55.957874 
L 509.184909 53.342863 
L 510.404803 58.643251 
L 511.624698 61.666845 
L 512.844592 60.843832 
L 515.284381 57.245237 
L 516.504275 55.743647 
L 517.724169 62.517537 
L 518.944064 63.909054 
L 520.163958 58.696117 
L 521.383852 55.143027 
L 522.603747 56.651296 
L 523.823641 54.141991 
L 525.043535 61.81665 
L 526.26343 61.263553 
L 527.483324 56.938137 
L 528.703218 58.134845 
L 529.923113 53.177796 
L 531.143007 54.942058 
L 532.362901 57.350093 
L 533.582796 59.169937 
L 534.80269 63.217131 
L 536.022584 59.096015 
L 537.242479 53.048678 
L 538.462373 61.434509 
L 539.682267 60.74697 
L 540.902162 58.488155 
L 542.122056 57.603939 
L 543.34195 59.459386 
L 544.561845 63.794699 
L 545.781739 61.071343 
L 547.001633 59.126093 
L 548.221528 64.858892 
L 549.441422 54.720273 
L 551.881211 58.55789 
L 553.101105 64.099044 
L 554.320999 58.691331 
L 555.540894 63.001558 
L 556.760788 53.793443 
L 557.980682 53.208902 
L 559.200577 60.433808 
L 560.420471 57.358051 
L 561.640365 56.30433 
L 562.86026 56.139598 
L 564.080154 57.260483 
L 565.300048 54.078557 
L 566.519943 54.831148 
L 567.739837 53.984583 
L 568.959731 57.591693 
L 570.179626 57.538546 
L 571.39952 53.840657 
L 573.839309 59.182465 
L 575.059203 53.09603 
L 576.279097 53.441445 
L 577.498992 60.151673 
L 578.718886 56.848021 
L 579.93878 51.502601 
L 581.158675 57.39555 
L 582.378569 57.966681 
L 583.598463 56.289749 
L 584.818358 60.636303 
L 586.038252 61.721298 
L 587.258146 55.306172 
L 588.478041 51.373993 
L 589.697935 61.869237 
L 590.917829 58.981084 
L 592.137724 56.586355 
L 593.357618 65.360114 
L 594.577512 54.570941 
L 595.797407 51.60162 
L 597.017301 62.990322 
L 598.237195 55.243469 
L 599.45709 57.935375 
L 600.676984 55.032108 
L 601.896878 54.969206 
L 603.116773 55.650229 
L 604.336667 53.398879 
L 605.556561 52.865587 
L 606.776456 53.694595 
L 607.99635 61.221473 
L 609.216244 55.126445 
L 610.436139 56.62987 
L 611.656033 57.519698 
L 612.875927 62.253181 
L 614.095822 57.406497 
L 615.315716 53.546904 
L 616.53561 54.48212 
L 617.755505 58.741763 
L 618.975399 58.370034 
L 620.195293 54.736791 
L 621.415188 60.393993 
L 622.635082 58.134708 
L 623.854976 60.346024 
L 625.074871 61.656535 
L 626.294765 54.863564 
L 627.514659 49.414616 
L 628.734554 49.243215 
L 629.954448 57.801547 
L 631.174342 57.891807 
L 632.394237 53.982821 
L 633.614131 54.945624 
L 634.834025 56.721912 
L 636.05392 55.802865 
L 637.273814 56.031941 
L 638.493708 58.386847 
L 639.713603 61.42407 
L 642.153391 55.964041 
L 643.373286 54.928621 
L 644.59318 53.404216 
L 645.813074 57.554583 
L 647.032969 51.247868 
L 648.252863 55.863226 
L 649.472757 56.304323 
L 650.692652 59.966651 
L 651.912546 52.776297 
L 653.13244 54.75512 
L 654.352335 56.193648 
L 655.572229 58.165996 
L 656.792123 57.250939 
L 658.012018 51.929678 
L 659.231912 55.044773 
L 660.451806 59.309875 
L 662.891595 49.521744 
L 664.111489 50.709172 
L 665.331384 53.158941 
L 666.551278 56.058704 
L 667.771172 55.26253 
L 668.991067 51.793076 
L 670.210961 53.31959 
L 671.430855 54.388846 
L 672.65075 52.949237 
L 673.870644 57.226967 
L 675.090538 52.675107 
L 676.310433 48.565528 
L 677.530327 53.759096 
L 678.750221 58.257297 
L 679.970116 54.304902 
L 681.19001 56.668572 
L 683.629799 47.801749 
L 684.849693 54.977172 
L 686.069587 56.668342 
L 687.289482 54.431919 
L 688.509376 57.314458 
L 689.72927 54.132744 
L 690.949165 58.707968 
L 692.169059 55.871481 
L 693.388953 58.597126 
L 694.608848 56.803254 
L 695.828742 53.537563 
L 697.048636 52.11909 
L 697.048636 52.11909 
" clip-path="url(#p578cab6509)" style="fill: none; stroke: #feffb3; stroke-width: 1.5; stroke-linecap: square"/>
   </g>
   <g id="patch_3">
    <path d="M 57.885 339.84 
L 57.885 7.2 
" style="fill: none; stroke: #ffffff; stroke-width: 0.8; stroke-linejoin: miter; stroke-linecap: square"/>
   </g>
   <g id="patch_4">
    <path d="M 727.485 339.84 
L 727.485 7.2 
" style="fill: none; stroke: #ffffff; stroke-width: 0.8; stroke-linejoin: miter; stroke-linecap: square"/>
   </g>
   <g id="patch_5">
    <path d="M 57.885 339.84 
L 727.485 339.84 
" style="fill: none; stroke: #ffffff; stroke-width: 0.8; stroke-linejoin: miter; stroke-linecap: square"/>
   </g>
   <g id="patch_6">
    <path d="M 57.885 7.2 
L 727.485 7.2 
" style="fill: none; stroke: #ffffff; stroke-width: 0.8; stroke-linejoin: miter; stroke-linecap: square"/>
   </g>
  </g>
 </g>
 <defs>
  <clipPath id="p578cab6509">
   <rect x="57.885" y="7.2" width="669.6" height="332.64"/>
  </clipPath>
 </defs>
</svg>
