<?xml version="1.0" encoding="utf-8" standalone="no"?>
<!DOCTYPE svg PUBLIC "-//W3C//DTD SVG 1.1//EN"
  "http://www.w3.org/Graphics/SVG/1.1/DTD/svg11.dtd">
<svg xmlns:xlink="http://www.w3.org/1999/xlink" width="746.416562pt" height="389.01pt" viewBox="0 0 746.416562 389.01" xmlns="http://www.w3.org/2000/svg" version="1.1">
 <metadata>
  <rdf:RDF xmlns:dc="http://purl.org/dc/elements/1.1/" xmlns:cc="http://creativecommons.org/ns#" xmlns:rdf="http://www.w3.org/1999/02/22-rdf-syntax-ns#">
   <cc:Work>
    <dc:type rdf:resource="http://purl.org/dc/dcmitype/StillImage"/>
    <dc:date>2026-03-08T00:58:31.043650</dc:date>
    <dc:format>image/svg+xml</dc:format>
    <dc:creator>
     <cc:Agent>
      <dc:title>Matplotlib v3.10.3, https://matplotlib.org/</dc:title>
     </cc:Agent>
    </dc:creator>
   </cc:Work>
  </rdf:RDF>
 </metadata>
 <defs>
  <style type="text/css">*{stroke-linejoin: round; stroke-linecap: butt}</style>
 </defs>
 <g id="figure_1">
  <g id="patch_1">
   <path d="M 0 389.01 
L 746.416562 389.01 
L 746.416562 0 
L 0 0 
z
"/>
  </g>
  <g id="axes_1">
   <g id="patch_2">
    <path d="M 69.616562 339.84 
L 739.216563 339.84 
L 739.216563 7.2 
L 69.616562 7.2 
z
"/>
   </g>
   <g id="matplotlib.axis_1">
    <g id="xtick_1">
     <g id="line2d_1">
      <defs>
       <path id="m9695d661dc" d="M 0 0 
L 0 3.5 
" style="stroke: #ffffff; stroke-width: 0.8"/>
      </defs>
      <g>
       <use xlink:href="#m9695d661dc" x="100.052926" y="339.84" style="fill: #ffffff; stroke: #ffffff; stroke-width: 0.8"/>
      </g>
     </g>
     <g id="text_1">
      <!-- 0 -->
      <g style="fill: #ffffff" transform="translate(95.599176 357.477813) scale(0.14 -0.14)">
       <defs>
        <path id="DejaVuSans-30" d="M 2034 4250 
Q 1547 4250 1301 3770 
Q 1056 3291 1056 2328 
Q 1056 1369 1301 889 
Q 1547 409 2034 409 
Q 2525 409 2770 889 
Q 3016 1369 3016 2328 
Q 3016 3291 2770 3770 
Q 2525 4250 2034 4250 
z
M 2034 4750 
Q 2819 4750 3233 4129 
Q 3647 3509 3647 2328 
Q 3647 1150 3233 529 
Q 2819 -91 2034 -91 
Q 1250 -91 836 529 
Q 422 1150 422 2328 
Q 422 3509 836 4129 
Q 1250 4750 2034 4750 
z
" transform="scale(0.015625)"/>
       </defs>
       <use xlink:href="#DejaVuSans-30"/>
      </g>
     </g>
    </g>
    <g id="xtick_2">
     <g id="line2d_2">
      <g>
       <use xlink:href="#m9695d661dc" x="222.04236" y="339.84" style="fill: #ffffff; stroke: #ffffff; stroke-width: 0.8"/>
      </g>
     </g>
     <g id="text_2">
      <!-- 100 -->
      <g style="fill: #ffffff" transform="translate(208.68111 357.477813) scale(0.14 -0.14)">
       <defs>
        <path id="DejaVuSans-31" d="M 794 531 
L 1825 531 
L 1825 4091 
L 703 3866 
L 703 4441 
L 1819 4666 
L 2450 4666 
L 2450 531 
L 3481 531 
L 3481 0 
L 794 0 
L 794 531 
z
" transform="scale(0.015625)"/>
       </defs>
       <use xlink:href="#DejaVuSans-31"/>
       <use xlink:href="#DejaVuSans-30" transform="translate(63.623047 0)"/>
       <use xlink:href="#DejaVuSans-30" transform="translate(127.246094 0)"/>
      </g>
     </g>
    </g>
    <g id="xtick_3">
     <g id="line2d_3">
      <g>
       <use xlink:href="#m9695d661dc" x="344.031793" y="339.84" style="fill: #ffffff; stroke: #ffffff; stroke-width: 0.8"/>
      </g>
     </g>
     <g id="text_3">
      <!-- 200 -->
      <g style="fill: #ffffff" transform="translate(330.670543 357.477813) scale(0.14 -0.14)">
       <defs>
        <path id="DejaVuSans-32" d="M 1228 531 
L 3431 531 
L 3431 0 
L 469 0 
L 469 531 
Q 828 903 1448 1529 
Q 2069 2156 2228 2338 
Q 2531 2678 2651 2914 
Q 2772 3150 2772 3378 
Q 2772 3750 2511 3984 
Q 2250 4219 1831 4219 
Q 1534 4219 1204 4116 
Q 875 4013 500 3803 
L 500 4441 
Q 881 4594 1212 4672 
Q 1544 4750 1819 4750 
Q 2544 4750 2975 4387 
Q 3406 4025 3406 3419 
Q 3406 3131 3298 2873 
Q 3191 2616 2906 2266 
Q 2828 2175 2409 1742 
Q 1991 1309 1228 531 
z
" transform="scale(0.015625)"/>
       </defs>
       <use xlink:href="#DejaVuSans-32"/>
       <use xlink:href="#DejaVuSans-30" transform="translate(63.623047 0)"/>
       <use xlink:href="#DejaVuSans-30" transform="translate(127.246094 0)"/>
      </g>
     </g>
    </g>
    <g id="xtick_4">
     <g id="line2d_4">
      <g>
       <use xlink:href="#m9695d661dc" x="466.021226" y="339.84" style="fill: #ffffff; stroke: #ffffff; stroke-width: 0.8"/>
      </g>
     </g>
     <g id="text_4">
      <!-- 300 -->
      <g style="fill: #ffffff" transform="translate(452.659976 357.477813) scale(0.14 -0.14)">
       <defs>
        <path id="DejaVuSans-33" d="M 2597 2516 
Q 3050 2419 3304 2112 
Q 3559 1806 3559 1356 
Q 3559 666 3084 287 
Q 2609 -91 1734 -91 
Q 1441 -91 1130 -33 
Q 819 25 488 141 
L 488 750 
Q 750 597 1062 519 
Q 1375 441 1716 441 
Q 2309 441 2620 675 
Q 2931 909 2931 1356 
Q 2931 1769 2642 2001 
Q 2353 2234 1838 2234 
L 1294 2234 
L 1294 2753 
L 1863 2753 
Q 2328 2753 2575 2939 
Q 2822 3125 2822 3475 
Q 2822 3834 2567 4026 
Q 2313 4219 1838 4219 
Q 1578 4219 1281 4162 
Q 984 4106 628 3988 
L 628 4550 
Q 988 4650 1302 4700 
Q 1616 4750 1894 4750 
Q 2613 4750 3031 4423 
Q 3450 4097 3450 3541 
Q 3450 3153 3228 2886 
Q 3006 2619 2597 2516 
z
" transform="scale(0.015625)"/>
       </defs>
       <use xlink:href="#DejaVuSans-33"/>
       <use xlink:href="#DejaVuSans-30" transform="translate(63.623047 0)"/>
       <use xlink:href="#DejaVuSans-30" transform="translate(127.246094 0)"/>
      </g>
     </g>
    </g>
    <g id="xtick_5">
     <g id="line2d_5">
      <g>
       <use xlink:href="#m9695d661dc" x="588.01066" y="339.84" style="fill: #ffffff; stroke: #ffffff; stroke-width: 0.8"/>
      </g>
     </g>
     <g id="text_5">
      <!-- 400 -->
      <g style="fill: #ffffff" transform="translate(574.64941 357.477813) scale(0.14 -0.14)">
       <defs>
        <path id="DejaVuSans-34" d="M 2419 4116 
L 825 1625 
L 2419 1625 
L 2419 4116 
z
M 2253 4666 
L 3047 4666 
L 3047 1625 
L 3713 1625 
L 3713 1100 
L 3047 1100 
L 3047 0 
L 2419 0 
L 2419 1100 
L 313 1100 
L 313 1709 
L 2253 4666 
z
" transform="scale(0.015625)"/>
       </defs>
       <use xlink:href="#DejaVuSans-34"/>
       <use xlink:href="#DejaVuSans-30" transform="translate(63.623047 0)"/>
       <use xlink:href="#DejaVuSans-30" transform="translate(127.246094 0)"/>
      </g>
     </g>
    </g>
    <g id="xtick_6">
     <g id="line2d_6">
      <g>
       <use xlink:href="#m9695d661dc" x="710.000093" y="339.84" style="fill: #ffffff; stroke: #ffffff; stroke-width: 0.8"/>
      </g>
     </g>
     <g id="text_6">
      <!-- 500 -->
      <g style="fill: #ffffff" transform="translate(696.638843 357.477813) scale(0.14 -0.14)">
       <defs>
        <path id="DejaVuSans-35" d="M 691 4666 
L 3169 4666 
L 3169 4134 
L 1269 4134 
L 1269 2991 
Q 1406 3038 1543 3061 
Q 1681 3084 1819 3084 
Q 2600 3084 3056 2656 
Q 3513 2228 3513 1497 
Q 3513 744 3044 326 
Q 2575 -91 1722 -91 
Q 1428 -91 1123 -41 
Q 819 9 494 109 
L 494 744 
Q 775 591 1075 516 
Q 1375 441 1709 441 
Q 2250 441 2565 725 
Q 2881 1009 2881 1497 
Q 2881 1984 2565 2268 
Q 2250 2553 1709 2553 
Q 1456 2553 1204 2497 
Q 953 2441 691 2322 
L 691 4666 
z
" transform="scale(0.015625)"/>
       </defs>
       <use xlink:href="#DejaVuSans-35"/>
       <use xlink:href="#DejaVuSans-30" transform="translate(63.623047 0)"/>
       <use xlink:href="#DejaVuSans-30" transform="translate(127.246094 0)"/>
      </g>
     </g>
    </g>
    <g id="text_7">
     <!-- Steps -->
     <g style="fill: #ffffff" transform="translate(379.234844 378.066563) scale(0.18 -0.18)">
      <defs>
       <path id="DejaVuSans-53" d="M 3425 4513 
L 3425 3897 
Q 3066 4069 2747 4153 
Q 2428 4238 2131 4238 
Q 1616 4238 1336 4038 
Q 1056 3838 1056 3469 
Q 1056 3159 1242 3001 
Q 1428 2844 1947 2747 
L 2328 2669 
Q 3034 2534 3370 2195 
Q 3706 1856 3706 1288 
Q 3706 609 3251 259 
Q 2797 -91 1919 -91 
Q 1588 -91 1214 -16 
Q 841 59 441 206 
L 441 856 
Q 825 641 1194 531 
Q 1563 422 1919 422 
Q 2459 422 2753 634 
Q 3047 847 3047 1241 
Q 3047 1584 2836 1778 
Q 2625 1972 2144 2069 
L 1759 2144 
Q 1053 2284 737 2584 
Q 422 2884 422 3419 
Q 422 4038 858 4394 
Q 1294 4750 2059 4750 
Q 2388 4750 2728 4690 
Q 3069 4631 3425 4513 
z
" transform="scale(0.015625)"/>
       <path id="DejaVuSans-74" d="M 1172 4494 
L 1172 3500 
L 2356 3500 
L 2356 3053 
L 1172 3053 
L 1172 1153 
Q 1172 725 1289 603 
Q 1406 481 1766 481 
L 2356 481 
L 2356 0 
L 1766 0 
Q 1100 0 847 248 
Q 594 497 594 1153 
L 594 3053 
L 172 3053 
L 172 3500 
L 594 3500 
L 594 4494 
L 1172 4494 
z
" transform="scale(0.015625)"/>
       <path id="DejaVuSans-65" d="M 3597 1894 
L 3597 1613 
L 953 1613 
Q 991 1019 1311 708 
Q 1631 397 2203 397 
Q 2534 397 2845 478 
Q 3156 559 3463 722 
L 3463 178 
Q 3153 47 2828 -22 
Q 2503 -91 2169 -91 
Q 1331 -91 842 396 
Q 353 884 353 1716 
Q 353 2575 817 3079 
Q 1281 3584 2069 3584 
Q 2775 3584 3186 3129 
Q 3597 2675 3597 1894 
z
M 3022 2063 
Q 3016 2534 2758 2815 
Q 2500 3097 2075 3097 
Q 1594 3097 1305 2825 
Q 1016 2553 972 2059 
L 3022 2063 
z
" transform="scale(0.015625)"/>
       <path id="DejaVuSans-70" d="M 1159 525 
L 1159 -1331 
L 581 -1331 
L 581 3500 
L 1159 3500 
L 1159 2969 
Q 1341 3281 1617 3432 
Q 1894 3584 2278 3584 
Q 2916 3584 3314 3078 
Q 3713 2572 3713 1747 
Q 3713 922 3314 415 
Q 2916 -91 2278 -91 
Q 1894 -91 1617 61 
Q 1341 213 1159 525 
z
M 3116 1747 
Q 3116 2381 2855 2742 
Q 2594 3103 2138 3103 
Q 1681 3103 1420 2742 
Q 1159 2381 1159 1747 
Q 1159 1113 1420 752 
Q 1681 391 2138 391 
Q 2594 391 2855 752 
Q 3116 1113 3116 1747 
z
" transform="scale(0.015625)"/>
       <path id="DejaVuSans-73" d="M 2834 3397 
L 2834 2853 
Q 2591 2978 2328 3040 
Q 2066 3103 1784 3103 
Q 1356 3103 1142 2972 
Q 928 2841 928 2578 
Q 928 2378 1081 2264 
Q 1234 2150 1697 2047 
L 1894 2003 
Q 2506 1872 2764 1633 
Q 3022 1394 3022 966 
Q 3022 478 2636 193 
Q 2250 -91 1575 -91 
Q 1294 -91 989 -36 
Q 684 19 347 128 
L 347 722 
Q 666 556 975 473 
Q 1284 391 1588 391 
Q 1994 391 2212 530 
Q 2431 669 2431 922 
Q 2431 1156 2273 1281 
Q 2116 1406 1581 1522 
L 1381 1569 
Q 847 1681 609 1914 
Q 372 2147 372 2553 
Q 372 3047 722 3315 
Q 1072 3584 1716 3584 
Q 2034 3584 2315 3537 
Q 2597 3491 2834 3397 
z
" transform="scale(0.015625)"/>
      </defs>
      <use xlink:href="#DejaVuSans-53"/>
      <use xlink:href="#DejaVuSans-74" transform="translate(63.476562 0)"/>
      <use xlink:href="#DejaVuSans-65" transform="translate(102.685547 0)"/>
      <use xlink:href="#DejaVuSans-70" transform="translate(164.208984 0)"/>
      <use xlink:href="#DejaVuSans-73" transform="translate(227.685547 0)"/>
     </g>
    </g>
   </g>
   <g id="matplotlib.axis_2">
    <g id="ytick_1">
     <g id="line2d_7">
      <defs>
       <path id="mc423342af3" d="M 0 0 
L -3.5 0 
" style="stroke: #ffffff; stroke-width: 0.8"/>
      </defs>
      <g>
       <use xlink:href="#mc423342af3" x="69.616562" y="317.187947" style="fill: #ffffff; stroke: #ffffff; stroke-width: 0.8"/>
      </g>
     </g>
     <g id="text_8">
      <!-- −1.0 -->
      <g style="fill: #ffffff" transform="translate(28.620625 322.506853) scale(0.14 -0.14)">
       <defs>
        <path id="DejaVuSans-2212" d="M 678 2272 
L 4684 2272 
L 4684 1741 
L 678 1741 
L 678 2272 
z
" transform="scale(0.015625)"/>
        <path id="DejaVuSans-2e" d="M 684 794 
L 1344 794 
L 1344 0 
L 684 0 
L 684 794 
z
" transform="scale(0.015625)"/>
       </defs>
       <use xlink:href="#DejaVuSans-2212"/>
       <use xlink:href="#DejaVuSans-31" transform="translate(83.789062 0)"/>
       <use xlink:href="#DejaVuSans-2e" transform="translate(147.412109 0)"/>
       <use xlink:href="#DejaVuSans-30" transform="translate(179.199219 0)"/>
      </g>
     </g>
    </g>
    <g id="ytick_2">
     <g id="line2d_8">
      <g>
       <use xlink:href="#mc423342af3" x="69.616562" y="253.635133" style="fill: #ffffff; stroke: #ffffff; stroke-width: 0.8"/>
      </g>
     </g>
     <g id="text_9">
      <!-- −0.5 -->
      <g style="fill: #ffffff" transform="translate(28.620625 258.954039) scale(0.14 -0.14)">
       <use xlink:href="#DejaVuSans-2212"/>
       <use xlink:href="#DejaVuSans-30" transform="translate(83.789062 0)"/>
       <use xlink:href="#DejaVuSans-2e" transform="translate(147.412109 0)"/>
       <use xlink:href="#DejaVuSans-35" transform="translate(179.199219 0)"/>
      </g>
     </g>
    </g>
    <g id="ytick_3">
     <g id="line2d_9">
      <g>
       <use xlink:href="#mc423342af3" x="69.616562" y="190.082318" style="fill: #ffffff; stroke: #ffffff; stroke-width: 0.8"/>
      </g>
     </g>
     <g id="text_10">
      <!-- 0.0 -->
      <g style="fill: #ffffff" transform="translate(40.352187 195.401224) scale(0.14 -0.14)">
       <use xlink:href="#DejaVuSans-30"/>
       <use xlink:href="#DejaVuSans-2e" transform="translate(63.623047 0)"/>
       <use xlink:href="#DejaVuSans-30" transform="translate(95.410156 0)"/>
      </g>
     </g>
    </g>
    <g id="ytick_4">
     <g id="line2d_10">
      <g>
       <use xlink:href="#mc423342af3" x="69.616562" y="126.529504" style="fill: #ffffff; stroke: #ffffff; stroke-width: 0.8"/>
      </g>
     </g>
     <g id="text_11">
      <!-- 0.5 -->
      <g style="fill: #ffffff" transform="translate(40.352187 131.84841) scale(0.14 -0.14)">
       <use xlink:href="#DejaVuSans-30"/>
       <use xlink:href="#DejaVuSans-2e" transform="translate(63.623047 0)"/>
       <use xlink:href="#DejaVuSans-35" transform="translate(95.410156 0)"/>
      </g>
     </g>
    </g>
    <g id="ytick_5">
     <g id="line2d_11">
      <g>
       <use xlink:href="#mc423342af3" x="69.616562" y="62.97669" style="fill: #ffffff; stroke: #ffffff; stroke-width: 0.8"/>
      </g>
     </g>
     <g id="text_12">
      <!-- 1.0 -->
      <g style="fill: #ffffff" transform="translate(40.352187 68.295596) scale(0.14 -0.14)">
       <use xlink:href="#DejaVuSans-31"/>
       <use xlink:href="#DejaVuSans-2e" transform="translate(63.623047 0)"/>
       <use xlink:href="#DejaVuSans-30" transform="translate(95.410156 0)"/>
      </g>
     </g>
    </g>
    <g id="text_13">
     <!-- Average reward -->
     <g style="fill: #ffffff" transform="translate(20.877187 244.506094) rotate(-90) scale(0.18 -0.18)">
      <defs>
       <path id="DejaVuSans-41" d="M 2188 4044 
L 1331 1722 
L 3047 1722 
L 2188 4044 
z
M 1831 4666 
L 2547 4666 
L 4325 0 
L 3669 0 
L 3244 1197 
L 1141 1197 
L 716 0 
L 50 0 
L 1831 4666 
z
" transform="scale(0.015625)"/>
       <path id="DejaVuSans-76" d="M 191 3500 
L 800 3500 
L 1894 563 
L 2988 3500 
L 3597 3500 
L 2284 0 
L 1503 0 
L 191 3500 
z
" transform="scale(0.015625)"/>
       <path id="DejaVuSans-72" d="M 2631 2963 
Q 2534 3019 2420 3045 
Q 2306 3072 2169 3072 
Q 1681 3072 1420 2755 
Q 1159 2438 1159 1844 
L 1159 0 
L 581 0 
L 581 3500 
L 1159 3500 
L 1159 2956 
Q 1341 3275 1631 3429 
Q 1922 3584 2338 3584 
Q 2397 3584 2469 3576 
Q 2541 3569 2628 3553 
L 2631 2963 
z
" transform="scale(0.015625)"/>
       <path id="DejaVuSans-61" d="M 2194 1759 
Q 1497 1759 1228 1600 
Q 959 1441 959 1056 
Q 959 750 1161 570 
Q 1363 391 1709 391 
Q 2188 391 2477 730 
Q 2766 1069 2766 1631 
L 2766 1759 
L 2194 1759 
z
M 3341 1997 
L 3341 0 
L 2766 0 
L 2766 531 
Q 2569 213 2275 61 
Q 1981 -91 1556 -91 
Q 1019 -91 701 211 
Q 384 513 384 1019 
Q 384 1609 779 1909 
Q 1175 2209 1959 2209 
L 2766 2209 
L 2766 2266 
Q 2766 2663 2505 2880 
Q 2244 3097 1772 3097 
Q 1472 3097 1187 3025 
Q 903 2953 641 2809 
L 641 3341 
Q 956 3463 1253 3523 
Q 1550 3584 1831 3584 
Q 2591 3584 2966 3190 
Q 3341 2797 3341 1997 
z
" transform="scale(0.015625)"/>
       <path id="DejaVuSans-67" d="M 2906 1791 
Q 2906 2416 2648 2759 
Q 2391 3103 1925 3103 
Q 1463 3103 1205 2759 
Q 947 2416 947 1791 
Q 947 1169 1205 825 
Q 1463 481 1925 481 
Q 2391 481 2648 825 
Q 2906 1169 2906 1791 
z
M 3481 434 
Q 3481 -459 3084 -895 
Q 2688 -1331 1869 -1331 
Q 1566 -1331 1297 -1286 
Q 1028 -1241 775 -1147 
L 775 -588 
Q 1028 -725 1275 -790 
Q 1522 -856 1778 -856 
Q 2344 -856 2625 -561 
Q 2906 -266 2906 331 
L 2906 616 
Q 2728 306 2450 153 
Q 2172 0 1784 0 
Q 1141 0 747 490 
Q 353 981 353 1791 
Q 353 2603 747 3093 
Q 1141 3584 1784 3584 
Q 2172 3584 2450 3431 
Q 2728 3278 2906 2969 
L 2906 3500 
L 3481 3500 
L 3481 434 
z
" transform="scale(0.015625)"/>
       <path id="DejaVuSans-20" transform="scale(0.015625)"/>
       <path id="DejaVuSans-77" d="M 269 3500 
L 844 3500 
L 1563 769 
L 2278 3500 
L 2956 3500 
L 3675 769 
L 4391 3500 
L 4966 3500 
L 4050 0 
L 3372 0 
L 2619 2869 
L 1863 0 
L 1184 0 
L 269 3500 
z
" transform="scale(0.015625)"/>
       <path id="DejaVuSans-64" d="M 2906 2969 
L 2906 4863 
L 3481 4863 
L 3481 0 
L 2906 0 
L 2906 525 
Q 2725 213 2448 61 
Q 2172 -91 1784 -91 
Q 1150 -91 751 415 
Q 353 922 353 1747 
Q 353 2572 751 3078 
Q 1150 3584 1784 3584 
Q 2172 3584 2448 3432 
Q 2725 3281 2906 2969 
z
M 947 1747 
Q 947 1113 1208 752 
Q 1469 391 1925 391 
Q 2381 391 2643 752 
Q 2906 1113 2906 1747 
Q 2906 2381 2643 2742 
Q 2381 3103 1925 3103 
Q 1469 3103 1208 2742 
Q 947 2381 947 1747 
z
" transform="scale(0.015625)"/>
      </defs>
      <use xlink:href="#DejaVuSans-41"/>
      <use xlink:href="#DejaVuSans-76" transform="translate(62.533203 0)"/>
      <use xlink:href="#DejaVuSans-65" transform="translate(121.712891 0)"/>
      <use xlink:href="#DejaVuSans-72" transform="translate(183.236328 0)"/>
      <use xlink:href="#DejaVuSans-61" transform="translate(224.349609 0)"/>
      <use xlink:href="#DejaVuSans-67" transform="translate(285.628906 0)"/>
      <use xlink:href="#DejaVuSans-65" transform="translate(349.105469 0)"/>
      <use xlink:href="#DejaVuSans-20" transform="translate(410.628906 0)"/>
      <use xlink:href="#DejaVuSans-72" transform="translate(442.416016 0)"/>
      <use xlink:href="#DejaVuSans-65" transform="translate(481.279297 0)"/>
      <use xlink:href="#DejaVuSans-77" transform="translate(542.802734 0)"/>
      <use xlink:href="#DejaVuSans-61" transform="translate(624.589844 0)"/>
      <use xlink:href="#DejaVuSans-72" transform="translate(685.869141 0)"/>
      <use xlink:href="#DejaVuSans-64" transform="translate(725.232422 0)"/>
     </g>
    </g>
   </g>
   <g id="line2d_12">
    <path d="M 100.052926 190.126417 
L 101.27282 190.984181 
L 103.712609 189.388562 
L 106.152398 190.718125 
L 107.372292 189.304317 
L 108.592186 190.532751 
L 109.812081 190.447972 
L 111.031975 190.139523 
L 112.251869 51.272827 
L 113.471764 100.440289 
L 114.691658 131.080903 
L 115.911552 156.284863 
L 119.571235 223.664286 
L 120.79113 248.273249 
L 122.011024 279.51405 
L 123.230918 324.72 
L 124.450813 33.649379 
L 125.670707 70.026257 
L 126.890601 92.628287 
L 128.110496 108.401477 
L 129.33039 120.131586 
L 130.550284 128.016122 
L 131.770179 133.616808 
L 132.990073 136.041039 
L 134.209967 135.558724 
L 135.429862 130.030427 
L 136.649756 123.740946 
L 137.86965 115.245648 
L 140.309439 99.342708 
L 141.529333 92.913004 
L 143.969122 81.822895 
L 145.189016 78.359844 
L 146.408911 74.348751 
L 147.628805 71.358219 
L 148.8487 69.528215 
L 150.068594 66.59574 
L 151.288488 65.13994 
L 152.508383 62.986382 
L 156.168066 59.007623 
L 157.38796 56.607518 
L 158.607854 56.418233 
L 159.827749 56.49599 
L 161.047643 54.597259 
L 162.267537 53.851097 
L 163.487432 52.31965 
L 164.707326 51.405709 
L 165.92722 50.908996 
L 167.147115 50.938703 
L 168.367009 49.201827 
L 169.586903 49.211816 
L 170.806798 48.50697 
L 172.026692 47.478072 
L 173.246586 47.806351 
L 174.466481 46.593826 
L 175.686375 46.570666 
L 176.906269 45.378913 
L 178.126164 45.984647 
L 179.346058 45.292379 
L 180.565952 45.474785 
L 181.785847 44.884171 
L 183.005741 45.813189 
L 185.44553 44.086179 
L 186.665424 45.039378 
L 190.325107 43.329652 
L 191.545001 44.055605 
L 192.764896 44.386431 
L 193.98479 42.692116 
L 195.204684 43.971577 
L 196.424579 43.936419 
L 197.644473 43.458121 
L 198.864367 44.170184 
L 201.304156 42.59827 
L 202.52405 42.677556 
L 203.743945 43.303657 
L 204.963839 41.853713 
L 206.183733 43.606185 
L 207.403628 43.113107 
L 208.623522 42.778147 
L 211.063311 43.121923 
L 212.283205 42.863095 
L 213.503099 41.887302 
L 215.942888 43.247174 
L 217.162782 42.239584 
L 218.382677 42.88544 
L 219.602571 42.312399 
L 220.822465 42.694567 
L 222.04236 42.605523 
L 224.482148 43.163103 
L 225.702043 42.546015 
L 226.921937 42.585036 
L 228.141831 43.146728 
L 229.361726 43.551372 
L 230.58162 42.338228 
L 231.801514 43.442992 
L 233.021409 42.920844 
L 234.241303 42.543811 
L 236.681092 43.200156 
L 237.900986 42.746197 
L 239.12088 42.502388 
L 240.340775 42.090857 
L 241.560669 42.301802 
L 242.780563 43.17444 
L 244.000458 41.491763 
L 245.220352 42.186258 
L 246.440246 42.691626 
L 247.660141 42.087263 
L 250.099929 41.656085 
L 251.319824 41.687974 
L 252.539718 42.085483 
L 253.759612 42.230722 
L 254.979507 42.018933 
L 256.199401 41.246179 
L 257.419295 41.359697 
L 258.63919 42.108022 
L 259.859084 41.632485 
L 261.078978 41.775998 
L 262.298873 42.375928 
L 263.518767 40.991291 
L 264.738661 41.236546 
L 265.958556 41.595381 
L 267.17845 40.916708 
L 268.398344 41.212152 
L 269.618239 41.184059 
L 270.838133 40.838585 
L 272.058027 39.860872 
L 273.277922 40.991009 
L 274.497816 40.756519 
L 275.71771 41.004762 
L 276.937605 41.441931 
L 278.157499 40.350411 
L 279.377393 40.978419 
L 280.597288 40.168824 
L 281.817182 40.094799 
L 283.037076 40.616788 
L 284.256971 40.876296 
L 285.476865 40.485468 
L 286.696759 40.624011 
L 287.916654 40.440564 
L 289.136548 40.402837 
L 290.356442 39.961613 
L 291.576337 39.997463 
L 292.796231 40.355699 
L 294.016125 39.320593 
L 296.455914 39.513621 
L 297.675808 38.596861 
L 298.895703 39.700291 
L 300.115597 39.021692 
L 301.335491 39.482867 
L 302.555386 39.323656 
L 303.77528 39.88853 
L 304.995174 38.694018 
L 307.434963 39.312615 
L 308.654857 39.04946 
L 309.874752 39.153207 
L 311.094646 38.909668 
L 312.31454 39.922271 
L 313.534435 38.558899 
L 314.754329 39.086384 
L 315.974223 38.932015 
L 317.194118 39.366996 
L 318.414012 39.390565 
L 319.633906 38.718033 
L 320.853801 39.316658 
L 322.073695 38.464918 
L 323.293589 38.796344 
L 324.513484 39.250011 
L 325.733378 38.591864 
L 329.393061 37.75506 
L 330.612955 37.814753 
L 331.83285 38.36867 
L 333.052744 37.986989 
L 334.272638 37.105135 
L 335.492533 37.35962 
L 336.712427 37.937636 
L 337.932321 37.067266 
L 339.152216 36.731733 
L 340.37211 36.910524 
L 342.811899 36.645565 
L 344.031793 36.287946 
L 345.251687 37.325763 
L 346.471582 36.562048 
L 347.691476 36.359914 
L 348.91137 37.810154 
L 350.131265 37.200533 
L 351.351159 37.903733 
L 352.571053 37.26892 
L 353.790948 37.384673 
L 355.010842 36.565849 
L 356.230736 37.354076 
L 359.890419 37.153369 
L 361.110314 36.791574 
L 362.330208 36.68751 
L 364.769997 36.90623 
L 365.989891 37.311414 
L 367.209785 37.230437 
L 368.42968 36.189802 
L 369.649574 36.184344 
L 370.869468 35.957104 
L 372.089363 36.030707 
L 373.309257 35.914044 
L 374.529151 35.312456 
L 375.749046 35.622506 
L 376.96894 35.726372 
L 378.188834 35.706898 
L 379.408729 35.996554 
L 380.628623 35.638806 
L 381.848517 34.988922 
L 383.068412 35.473221 
L 384.288306 34.922244 
L 385.5082 34.967588 
L 386.728095 35.290356 
L 387.947989 34.829575 
L 389.167883 35.659913 
L 390.387778 36.095134 
L 391.607672 34.728528 
L 392.827566 34.683144 
L 394.047461 34.415253 
L 395.267355 35.250168 
L 396.487249 35.114702 
L 397.707144 34.522649 
L 398.927038 34.856091 
L 401.366827 35.243427 
L 402.586721 34.29928 
L 403.806615 34.980957 
L 405.02651 34.915317 
L 406.246404 33.681854 
L 407.466298 33.652502 
L 408.686193 34.18924 
L 409.906087 33.874443 
L 411.125981 34.191811 
L 412.345876 34.238275 
L 413.56577 34.939714 
L 414.785664 34.093114 
L 416.005559 33.619534 
L 417.225453 33.973929 
L 418.445347 33.895837 
L 419.665242 33.443686 
L 420.885136 33.279753 
L 422.10503 33.337112 
L 423.324925 33.712875 
L 424.544819 33.091089 
L 425.764713 32.751816 
L 426.984608 32.863749 
L 428.204502 32.404409 
L 429.424396 32.93083 
L 430.644291 32.483592 
L 433.084079 33.048096 
L 434.303974 32.527291 
L 435.523868 33.03658 
L 436.743762 32.252383 
L 437.963657 31.947433 
L 439.183551 33.368683 
L 440.403445 32.713696 
L 442.843234 31.765712 
L 444.063128 32.350889 
L 446.502917 31.678712 
L 447.722811 31.560332 
L 448.942706 32.399076 
L 450.1626 31.845299 
L 451.382494 32.071658 
L 452.602389 31.545063 
L 455.042177 31.125877 
L 456.262072 31.237419 
L 457.481966 32.008792 
L 458.70186 32.025589 
L 459.921755 32.195579 
L 461.141649 31.906574 
L 462.361543 31.082123 
L 463.581438 32.077699 
L 464.801332 31.345147 
L 466.021226 31.652938 
L 467.241121 31.269213 
L 468.461015 31.581091 
L 470.900804 31.113985 
L 472.120698 31.201863 
L 473.340592 30.889593 
L 474.560487 30.80952 
L 475.780381 30.997328 
L 477.000275 31.332342 
L 478.22017 30.411226 
L 479.440064 31.024855 
L 480.659958 30.647714 
L 481.879853 31.276866 
L 483.099747 30.829173 
L 484.319641 30.819623 
L 485.539536 30.498494 
L 486.75943 30.526764 
L 487.979324 30.089848 
L 489.199219 30.119491 
L 490.419113 29.74495 
L 491.639007 30.543459 
L 492.858902 30.489389 
L 494.078796 29.88765 
L 495.29869 30.572851 
L 496.518585 29.179201 
L 497.738479 29.546655 
L 498.958373 29.281113 
L 500.178268 29.909688 
L 501.398162 30.106192 
L 502.618056 29.570307 
L 503.837951 29.618483 
L 505.057845 29.935879 
L 506.277739 29.685227 
L 507.497634 29.885885 
L 508.717528 29.383481 
L 511.157317 30.240142 
L 512.377211 29.249939 
L 513.597105 29.460765 
L 514.817 29.398624 
L 516.036894 28.973654 
L 517.256788 29.260137 
L 518.476683 28.442691 
L 519.696577 29.57757 
L 520.916471 29.87027 
L 522.136366 29.563347 
L 523.35626 29.960776 
L 524.576154 29.786698 
L 525.796049 29.236812 
L 527.015943 28.446089 
L 528.235837 29.292918 
L 529.455732 29.286928 
L 530.675626 28.704633 
L 531.89552 28.947614 
L 533.115415 28.866938 
L 534.335309 29.062522 
L 535.555203 28.664184 
L 537.994992 29.055999 
L 539.214886 28.86957 
L 540.434781 28.035113 
L 541.654675 28.760287 
L 542.874569 28.858833 
L 544.094464 28.044184 
L 545.314358 27.918576 
L 546.534252 28.616647 
L 547.754147 27.887136 
L 548.974041 28.789639 
L 550.193935 28.373438 
L 552.633724 28.044232 
L 553.853618 27.688332 
L 555.073513 28.119042 
L 557.513301 27.745585 
L 558.733196 27.900651 
L 559.95309 28.246917 
L 561.172984 27.529141 
L 562.392879 27.437584 
L 563.612773 27.648095 
L 564.832667 28.192633 
L 566.052562 27.201846 
L 567.272456 28.499463 
L 568.49235 27.861984 
L 569.712245 26.946879 
L 570.932139 26.843842 
L 572.152033 27.837561 
L 573.371928 26.790508 
L 574.591822 26.89022 
L 575.811716 27.598996 
L 577.031611 26.963962 
L 578.251505 27.289471 
L 579.471399 26.726409 
L 580.691294 27.526714 
L 581.911188 26.071693 
L 583.131082 27.272017 
L 584.350977 26.387318 
L 585.570871 26.786083 
L 586.790765 26.147504 
L 588.01066 26.943852 
L 589.230554 26.120393 
L 590.450448 26.941524 
L 591.670343 26.630532 
L 592.890237 26.041687 
L 594.110131 26.804882 
L 595.330026 26.257865 
L 596.54992 26.723517 
L 597.769814 26.190606 
L 598.989709 26.067549 
L 600.209603 26.310922 
L 601.429497 25.866257 
L 602.649392 26.441151 
L 603.869286 26.574259 
L 605.08918 25.978625 
L 607.528969 25.925157 
L 608.748863 26.093094 
L 609.968758 26.788726 
L 611.188652 25.61744 
L 612.408546 25.375175 
L 613.628441 26.512549 
L 614.848335 25.531581 
L 616.068229 26.295542 
L 617.288124 26.354809 
L 618.508018 25.851058 
L 619.727912 25.130903 
L 620.947807 25.8447 
L 622.167701 25.733461 
L 623.387595 26.101066 
L 624.60749 25.50328 
L 625.827384 25.572392 
L 627.047278 25.101512 
L 628.267173 25.383719 
L 629.487067 25.284751 
L 630.706961 25.483756 
L 631.926856 25.198356 
L 633.14675 25.032428 
L 634.366644 26.470899 
L 635.586539 25.533399 
L 641.68601 24.790869 
L 642.905905 24.893773 
L 644.125799 24.150835 
L 645.345693 25.236524 
L 646.565588 24.532894 
L 649.005376 25.226054 
L 650.225271 25.090826 
L 651.445165 24.509991 
L 652.665059 25.283783 
L 653.884954 24.42839 
L 655.104848 24.28708 
L 656.324742 23.863386 
L 657.544637 25.725597 
L 658.764531 24.264128 
L 659.984425 24.693357 
L 661.20432 24.209476 
L 662.424214 24.225623 
L 663.644109 24.888799 
L 664.864003 24.186579 
L 666.083897 23.977215 
L 667.303792 24.499849 
L 668.523686 24.258253 
L 669.74358 24.273931 
L 670.963475 24.157916 
L 672.183369 23.541702 
L 674.623158 23.82692 
L 675.843052 23.869125 
L 677.062946 24.203157 
L 678.282841 24.068949 
L 679.502735 24.404848 
L 680.722629 24.015574 
L 681.942524 24.187299 
L 683.162418 23.370284 
L 684.382312 24.350602 
L 685.602207 23.085575 
L 686.822101 23.937224 
L 688.041995 23.099971 
L 689.26189 23.591387 
L 690.481784 22.711437 
L 691.701678 23.428346 
L 692.921573 23.516865 
L 694.141467 23.214087 
L 695.361361 23.140224 
L 696.581256 23.183723 
L 697.80115 23.480788 
L 699.021044 23.528188 
L 700.240939 23.345856 
L 701.460833 23.593846 
L 702.680727 22.935017 
L 703.900622 23.795609 
L 705.120516 23.745138 
L 706.34041 23.143953 
L 708.780199 22.32 
L 708.780199 22.32 
" clip-path="url(#pcdc1be635d)" style="fill: none; stroke: #8dd3c7; stroke-width: 1.5; stroke-linecap: square"/>
   </g>
   <g id="line2d_13">
    <path d="M 100.052926 190.309709 
L 101.27282 158.109429 
L 102.492715 139.724785 
L 103.712609 125.681351 
L 104.932503 115.355088 
L 107.372292 101.900474 
L 108.592186 98.381044 
L 111.031975 89.300199 
L 112.251869 87.466371 
L 113.471764 84.999567 
L 114.691658 81.818626 
L 115.911552 80.558567 
L 117.131447 78.549454 
L 118.351341 76.762451 
L 119.571235 75.266286 
L 120.79113 74.51966 
L 122.011024 73.051868 
L 123.230918 72.592464 
L 124.450813 71.053534 
L 125.670707 70.262784 
L 126.890601 70.675745 
L 128.110496 68.203055 
L 129.33039 68.174361 
L 130.550284 68.295965 
L 131.770179 66.753156 
L 132.990073 67.072338 
L 134.209967 66.359049 
L 137.86965 64.85617 
L 139.089545 64.545444 
L 140.309439 63.234135 
L 141.529333 63.553802 
L 142.749228 63.029629 
L 143.969122 62.833819 
L 145.189016 63.30277 
L 146.408911 62.034736 
L 147.628805 62.014291 
L 148.8487 61.014321 
L 150.068594 61.425886 
L 151.288488 60.040862 
L 154.948171 59.608609 
L 156.168066 59.837478 
L 157.38796 58.570266 
L 158.607854 59.443834 
L 159.827749 59.212 
L 161.047643 58.744305 
L 162.267537 58.844816 
L 163.487432 57.776478 
L 164.707326 59.085235 
L 165.92722 58.210101 
L 167.147115 57.846356 
L 168.367009 57.933025 
L 169.586903 57.02928 
L 170.806798 56.857199 
L 172.026692 56.293659 
L 173.246586 57.137897 
L 174.466481 55.946255 
L 175.686375 55.349302 
L 176.906269 55.529961 
L 178.126164 55.381429 
L 179.346058 55.349683 
L 180.565952 55.458906 
L 181.785847 53.988536 
L 183.005741 54.937269 
L 184.225635 54.452703 
L 185.44553 54.831317 
L 186.665424 53.744356 
L 187.885318 54.47364 
L 189.105213 54.235767 
L 190.325107 53.504471 
L 191.545001 53.979352 
L 192.764896 53.497774 
L 193.98479 52.872962 
L 195.204684 53.617347 
L 196.424579 53.093996 
L 197.644473 53.158565 
L 198.864367 54.035351 
L 200.084262 53.009851 
L 201.304156 53.177379 
L 202.52405 52.242009 
L 203.743945 51.855314 
L 204.963839 53.230394 
L 206.183733 51.843063 
L 207.403628 51.665948 
L 208.623522 51.758808 
L 209.843416 51.273339 
L 211.063311 51.298597 
L 212.283205 52.1007 
L 213.503099 50.89461 
L 214.722994 51.17214 
L 215.942888 50.719036 
L 217.162782 50.866232 
L 219.602571 50.536675 
L 220.822465 50.710027 
L 222.04236 49.812734 
L 224.482148 50.166253 
L 225.702043 50.389449 
L 226.921937 50.258268 
L 228.141831 48.926608 
L 229.361726 50.112706 
L 230.58162 49.363561 
L 231.801514 49.57205 
L 233.021409 49.199095 
L 234.241303 49.355668 
L 236.681092 48.611592 
L 237.900986 48.513059 
L 239.12088 49.211621 
L 240.340775 48.237117 
L 241.560669 48.354485 
L 242.780563 48.801774 
L 244.000458 48.224044 
L 246.440246 47.659176 
L 247.660141 47.074703 
L 250.099929 47.688527 
L 252.539718 46.918353 
L 254.979507 47.359503 
L 256.199401 46.774103 
L 257.419295 47.125133 
L 258.63919 46.659315 
L 259.859084 45.977489 
L 262.298873 46.082001 
L 263.518767 45.921597 
L 264.738661 45.217081 
L 265.958556 46.148993 
L 267.17845 45.996144 
L 268.398344 45.619384 
L 269.618239 45.458848 
L 270.838133 44.951323 
L 272.058027 45.897038 
L 273.277922 45.592825 
L 274.497816 44.984013 
L 275.71771 45.708331 
L 276.937605 45.131869 
L 278.157499 44.961679 
L 279.377393 44.674604 
L 280.597288 45.051236 
L 281.817182 43.646424 
L 283.037076 45.591304 
L 284.256971 44.543107 
L 285.476865 44.807696 
L 286.696759 44.650373 
L 287.916654 44.353854 
L 289.136548 44.6022 
L 290.356442 44.322087 
L 291.576337 43.79419 
L 292.796231 44.121487 
L 294.016125 43.592679 
L 295.23602 43.628198 
L 296.455914 43.100513 
L 297.675808 43.854615 
L 298.895703 43.077697 
L 300.115597 42.674808 
L 301.335491 42.901841 
L 302.555386 42.92441 
L 303.77528 42.574837 
L 304.995174 43.270769 
L 306.215069 42.394024 
L 307.434963 42.738567 
L 308.654857 41.870199 
L 309.874752 42.248663 
L 311.094646 43.723611 
L 312.31454 42.250796 
L 313.534435 42.127141 
L 314.754329 42.593773 
L 317.194118 42.178065 
L 318.414012 43.029354 
L 319.633906 41.838828 
L 320.853801 41.442703 
L 322.073695 41.864663 
L 323.293589 40.947999 
L 324.513484 41.579847 
L 325.733378 40.707359 
L 326.953272 41.840303 
L 328.173167 41.845528 
L 329.393061 42.118737 
L 330.612955 41.053624 
L 331.83285 40.72883 
L 333.052744 40.859849 
L 334.272638 41.176945 
L 335.492533 40.953311 
L 336.712427 41.082805 
L 337.932321 40.073782 
L 339.152216 40.05906 
L 340.37211 40.946675 
L 341.592004 40.034175 
L 342.811899 40.447032 
L 346.471582 40.696597 
L 348.91137 39.925561 
L 350.131265 39.644289 
L 351.351159 40.262871 
L 352.571053 40.187053 
L 353.790948 39.565865 
L 355.010842 39.907612 
L 356.230736 39.43676 
L 357.450631 39.61189 
L 358.670525 39.272328 
L 359.890419 38.502447 
L 361.110314 39.249725 
L 362.330208 38.824781 
L 363.550102 39.45562 
L 367.209785 38.977898 
L 368.42968 38.328 
L 369.649574 39.143589 
L 370.869468 38.482542 
L 372.089363 38.867915 
L 373.309257 38.093096 
L 374.529151 38.333524 
L 375.749046 37.91733 
L 376.96894 38.870055 
L 378.188834 37.928823 
L 379.408729 38.796621 
L 381.848517 38.106923 
L 383.068412 37.536897 
L 384.288306 38.118683 
L 386.728095 37.630392 
L 387.947989 37.907685 
L 389.167883 37.914696 
L 390.387778 37.459369 
L 391.607672 37.245562 
L 392.827566 37.225871 
L 394.047461 36.339771 
L 395.267355 37.95171 
L 396.487249 36.943628 
L 397.707144 36.88207 
L 398.927038 37.936502 
L 400.146932 36.434009 
L 401.366827 36.26564 
L 402.586721 36.580178 
L 403.806615 37.139315 
L 405.02651 36.860417 
L 406.246404 36.84724 
L 407.466298 37.328967 
L 408.686193 35.80385 
L 409.906087 36.152939 
L 411.125981 36.263726 
L 412.345876 36.261502 
L 413.56577 37.536212 
L 414.785664 36.461174 
L 416.005559 35.940567 
L 418.445347 36.58309 
L 419.665242 35.735531 
L 420.885136 36.019031 
L 422.10503 36.474485 
L 423.324925 35.251101 
L 424.544819 36.933989 
L 425.764713 35.38828 
L 426.984608 36.121987 
L 429.424396 35.477735 
L 430.644291 36.279418 
L 431.864185 34.745009 
L 433.084079 35.344137 
L 434.303974 35.499256 
L 436.743762 35.382092 
L 437.963657 34.511501 
L 439.183551 36.009571 
L 440.403445 35.130187 
L 441.62334 35.416317 
L 442.843234 34.560107 
L 445.283023 34.768823 
L 446.502917 34.245975 
L 447.722811 34.034943 
L 448.942706 34.04057 
L 450.1626 34.552786 
L 451.382494 34.339188 
L 452.602389 35.082094 
L 456.262072 34.151157 
L 457.481966 33.751016 
L 458.70186 34.025475 
L 459.921755 33.287738 
L 461.141649 34.853859 
L 462.361543 33.734013 
L 463.581438 33.525165 
L 464.801332 33.435814 
L 466.021226 33.518367 
L 467.241121 33.307211 
L 468.461015 34.126236 
L 469.680909 34.029248 
L 470.900804 33.048296 
L 472.120698 33.129378 
L 473.340592 33.341877 
L 474.560487 33.325702 
L 475.780381 33.628284 
L 478.22017 33.652682 
L 479.440064 33.295007 
L 480.659958 33.526243 
L 481.879853 32.897256 
L 483.099747 33.576457 
L 484.319641 33.506443 
L 486.75943 32.799444 
L 487.979324 32.35838 
L 489.199219 32.612493 
L 490.419113 32.30796 
L 491.639007 33.177939 
L 492.858902 32.900537 
L 494.078796 33.294747 
L 495.29869 32.026105 
L 496.518585 32.267907 
L 497.738479 32.746053 
L 498.958373 33.008836 
L 500.178268 32.757717 
L 503.837951 32.444964 
L 505.057845 32.576425 
L 506.277739 32.240374 
L 507.497634 32.062703 
L 508.717528 32.061271 
L 509.937422 32.236874 
L 511.157317 31.306652 
L 512.377211 31.819167 
L 513.597105 31.698623 
L 516.036894 31.91769 
L 517.256788 31.53633 
L 518.476683 30.961049 
L 519.696577 31.494799 
L 520.916471 31.738542 
L 522.136366 32.324742 
L 523.35626 31.583236 
L 524.576154 31.508555 
L 525.796049 30.754101 
L 527.015943 31.258913 
L 528.235837 31.282022 
L 529.455732 30.242094 
L 530.675626 31.441321 
L 531.89552 30.871089 
L 533.115415 31.319531 
L 534.335309 31.223548 
L 536.775098 30.589589 
L 537.994992 30.007142 
L 539.214886 29.649763 
L 540.434781 31.493537 
L 541.654675 30.679311 
L 546.534252 30.727741 
L 547.754147 30.256095 
L 548.974041 30.564695 
L 550.193935 29.848778 
L 551.41383 30.686397 
L 552.633724 30.446683 
L 553.853618 30.334824 
L 555.073513 30.048263 
L 556.293407 29.587416 
L 557.513301 30.43131 
L 558.733196 30.679757 
L 559.95309 29.463459 
L 561.172984 30.563667 
L 562.392879 29.852352 
L 564.832667 30.599359 
L 566.052562 30.386971 
L 567.272456 29.929485 
L 568.49235 29.269186 
L 569.712245 30.226722 
L 570.932139 29.616047 
L 572.152033 29.990064 
L 573.371928 29.872191 
L 574.591822 29.464462 
L 575.811716 29.541039 
L 577.031611 30.395285 
L 578.251505 29.957157 
L 579.471399 28.960804 
L 580.691294 29.72138 
L 581.911188 29.138147 
L 583.131082 28.707039 
L 584.350977 29.026593 
L 585.570871 29.662106 
L 586.790765 29.186898 
L 589.230554 29.233041 
L 590.450448 28.525198 
L 591.670343 28.402794 
L 594.110131 29.271455 
L 595.330026 28.962837 
L 596.54992 29.490514 
L 597.769814 28.619424 
L 598.989709 28.251395 
L 600.209603 28.491894 
L 601.429497 28.340146 
L 602.649392 28.324019 
L 603.869286 28.546673 
L 605.08918 29.21583 
L 606.309075 29.072981 
L 607.528969 28.705516 
L 608.748863 29.082047 
L 609.968758 28.324198 
L 611.188652 28.330048 
L 612.408546 28.091591 
L 613.628441 27.973232 
L 614.848335 28.461665 
L 616.068229 28.275628 
L 617.288124 28.555451 
L 618.508018 28.466694 
L 619.727912 27.810967 
L 620.947807 28.088888 
L 622.167701 28.236515 
L 623.387595 27.685361 
L 624.60749 27.296575 
L 627.047278 28.361737 
L 628.267173 27.808432 
L 629.487067 28.88124 
L 630.706961 27.892934 
L 631.926856 28.175297 
L 634.366644 27.597799 
L 635.586539 27.797039 
L 636.806433 27.113679 
L 638.026327 27.74202 
L 639.246222 27.213427 
L 640.466116 27.755168 
L 641.68601 27.396145 
L 642.905905 27.351549 
L 644.125799 27.463257 
L 645.345693 28.136308 
L 646.565588 27.434852 
L 647.785482 27.405518 
L 649.005376 26.89465 
L 650.225271 27.70164 
L 651.445165 26.617895 
L 652.665059 27.247198 
L 653.884954 27.606399 
L 655.104848 27.641407 
L 656.324742 27.88475 
L 657.544637 27.507731 
L 658.764531 26.314413 
L 659.984425 26.829011 
L 661.20432 26.937738 
L 662.424214 26.526073 
L 664.864003 27.229338 
L 667.303792 27.25537 
L 668.523686 26.312049 
L 669.74358 26.592142 
L 670.963475 27.095133 
L 672.183369 26.376311 
L 673.403263 26.417255 
L 674.623158 26.786883 
L 675.843052 26.270625 
L 677.062946 26.542256 
L 678.282841 26.557367 
L 679.502735 25.984378 
L 680.722629 26.640533 
L 681.942524 26.659695 
L 683.162418 26.375864 
L 685.602207 26.713443 
L 686.822101 25.869617 
L 688.041995 26.935988 
L 689.26189 26.457824 
L 690.481784 26.601434 
L 691.701678 26.533378 
L 692.921573 25.912922 
L 694.141467 25.121079 
L 695.361361 25.990472 
L 696.581256 26.351797 
L 697.80115 26.34779 
L 699.021044 25.988555 
L 700.240939 26.025396 
L 701.460833 25.529472 
L 702.680727 26.059966 
L 703.900622 25.567764 
L 705.120516 25.563275 
L 706.34041 26.150761 
L 707.560305 25.427536 
L 708.780199 26.167986 
L 708.780199 26.167986 
" clip-path="url(#pcdc1be635d)" style="fill: none; stroke: #feffb3; stroke-width: 1.5; stroke-linecap: square"/>
   </g>
   <g id="patch_3">
    <path d="M 69.616562 339.84 
L 69.616562 7.2 
" style="fill: none; stroke: #ffffff; stroke-width: 0.8; stroke-linejoin: miter; stroke-linecap: square"/>
   </g>
   <g id="patch_4">
    <path d="M 739.216563 339.84 
L 739.216563 7.2 
" style="fill: none; stroke: #ffffff; stroke-width: 0.8; stroke-linejoin: miter; stroke-linecap: square"/>
   </g>
   <g id="patch_5">
    <path d="M 69.616562 339.84 
L 739.216563 339.84 
" style="fill: none; stroke: #ffffff; stroke-width: 0.8; stroke-linejoin: miter; stroke-linecap: square"/>
   </g>
   <g id="patch_6">
    <path d="M 69.616562 7.2 
L 739.216563 7.2 
" style="fill: none; stroke: #ffffff; stroke-width: 0.8; stroke-linejoin: miter; stroke-linecap: square"/>
   </g>
   <g id="legend_1">
    <g id="patch_7">
     <path d="M 534.896563 331.84 
L 728.016562 331.84 
Q 731.216563 331.84 731.216563 328.64 
L 731.216563 283.235 
Q 731.216563 280.035 728.016562 280.035 
L 534.896563 280.035 
Q 531.696563 280.035 531.696563 283.235 
L 531.696563 328.64 
Q 531.696563 331.84 534.896563 331.84 
z
" style="opacity: 0.8; stroke: #cccccc; stroke-linejoin: miter"/>
    </g>
    <g id="line2d_14">
     <path d="M 538.096563 292.9925 
L 554.096563 292.9925 
L 570.096563 292.9925 
" style="fill: none; stroke: #8dd3c7; stroke-width: 1.5; stroke-linecap: square"/>
    </g>
    <g id="text_14">
     <!-- UCB ($c=2$) -->
     <g style="fill: #ffffff" transform="translate(582.896562 298.5925) scale(0.16 -0.16)">
      <defs>
       <path id="DejaVuSans-55" d="M 556 4666 
L 1191 4666 
L 1191 1831 
Q 1191 1081 1462 751 
Q 1734 422 2344 422 
Q 2950 422 3222 751 
Q 3494 1081 3494 1831 
L 3494 4666 
L 4128 4666 
L 4128 1753 
Q 4128 841 3676 375 
Q 3225 -91 2344 -91 
Q 1459 -91 1007 375 
Q 556 841 556 1753 
L 556 4666 
z
" transform="scale(0.015625)"/>
       <path id="DejaVuSans-43" d="M 4122 4306 
L 4122 3641 
Q 3803 3938 3442 4084 
Q 3081 4231 2675 4231 
Q 1875 4231 1450 3742 
Q 1025 3253 1025 2328 
Q 1025 1406 1450 917 
Q 1875 428 2675 428 
Q 3081 428 3442 575 
Q 3803 722 4122 1019 
L 4122 359 
Q 3791 134 3420 21 
Q 3050 -91 2638 -91 
Q 1578 -91 968 557 
Q 359 1206 359 2328 
Q 359 3453 968 4101 
Q 1578 4750 2638 4750 
Q 3056 4750 3426 4639 
Q 3797 4528 4122 4306 
z
" transform="scale(0.015625)"/>
       <path id="DejaVuSans-42" d="M 1259 2228 
L 1259 519 
L 2272 519 
Q 2781 519 3026 730 
Q 3272 941 3272 1375 
Q 3272 1813 3026 2020 
Q 2781 2228 2272 2228 
L 1259 2228 
z
M 1259 4147 
L 1259 2741 
L 2194 2741 
Q 2656 2741 2882 2914 
Q 3109 3088 3109 3444 
Q 3109 3797 2882 3972 
Q 2656 4147 2194 4147 
L 1259 4147 
z
M 628 4666 
L 2241 4666 
Q 2963 4666 3353 4366 
Q 3744 4066 3744 3513 
Q 3744 3084 3544 2831 
Q 3344 2578 2956 2516 
Q 3422 2416 3680 2098 
Q 3938 1781 3938 1306 
Q 3938 681 3513 340 
Q 3088 0 2303 0 
L 628 0 
L 628 4666 
z
" transform="scale(0.015625)"/>
       <path id="DejaVuSans-28" d="M 1984 4856 
Q 1566 4138 1362 3434 
Q 1159 2731 1159 2009 
Q 1159 1288 1364 580 
Q 1569 -128 1984 -844 
L 1484 -844 
Q 1016 -109 783 600 
Q 550 1309 550 2009 
Q 550 2706 781 3412 
Q 1013 4119 1484 4856 
L 1984 4856 
z
" transform="scale(0.015625)"/>
       <path id="DejaVuSans-Oblique-63" d="M 3431 3366 
L 3316 2797 
Q 3109 2947 2876 3022 
Q 2644 3097 2394 3097 
Q 2119 3097 1870 3000 
Q 1622 2903 1453 2725 
Q 1184 2453 1037 2087 
Q 891 1722 891 1331 
Q 891 859 1127 628 
Q 1363 397 1844 397 
Q 2081 397 2348 469 
Q 2616 541 2906 684 
L 2797 116 
Q 2547 13 2283 -39 
Q 2019 -91 1741 -91 
Q 1044 -91 669 257 
Q 294 606 294 1253 
Q 294 1797 489 2255 
Q 684 2713 1069 3078 
Q 1331 3328 1684 3456 
Q 2038 3584 2456 3584 
Q 2700 3584 2940 3529 
Q 3181 3475 3431 3366 
z
" transform="scale(0.015625)"/>
       <path id="DejaVuSans-3d" d="M 678 2906 
L 4684 2906 
L 4684 2381 
L 678 2381 
L 678 2906 
z
M 678 1631 
L 4684 1631 
L 4684 1100 
L 678 1100 
L 678 1631 
z
" transform="scale(0.015625)"/>
       <path id="DejaVuSans-29" d="M 513 4856 
L 1013 4856 
Q 1481 4119 1714 3412 
Q 1947 2706 1947 2009 
Q 1947 1309 1714 600 
Q 1481 -109 1013 -844 
L 513 -844 
Q 928 -128 1133 580 
Q 1338 1288 1338 2009 
Q 1338 2731 1133 3434 
Q 928 4138 513 4856 
z
" transform="scale(0.015625)"/>
      </defs>
      <use xlink:href="#DejaVuSans-55" transform="translate(0 0.125)"/>
      <use xlink:href="#DejaVuSans-43" transform="translate(73.193359 0.125)"/>
      <use xlink:href="#DejaVuSans-42" transform="translate(143.017578 0.125)"/>
      <use xlink:href="#DejaVuSans-20" transform="translate(211.621094 0.125)"/>
      <use xlink:href="#DejaVuSans-28" transform="translate(243.408203 0.125)"/>
      <use xlink:href="#DejaVuSans-Oblique-63" transform="translate(282.421875 0.125)"/>
      <use xlink:href="#DejaVuSans-3d" transform="translate(356.884766 0.125)"/>
      <use xlink:href="#DejaVuSans-32" transform="translate(460.15625 0.125)"/>
      <use xlink:href="#DejaVuSans-29" transform="translate(523.779297 0.125)"/>
     </g>
    </g>
    <g id="line2d_15">
     <path d="M 538.096563 316.48 
L 554.096563 316.48 
L 570.096563 316.48 
" style="fill: none; stroke: #feffb3; stroke-width: 1.5; stroke-linecap: square"/>
    </g>
    <g id="text_15">
     <!-- $\epsilon$-greedy ($\epsilon=0.1$) -->
     <g style="fill: #ffffff" transform="translate(582.896562 322.08) scale(0.16 -0.16)">
      <defs>
       <path id="DejaVuSans-Oblique-3b5" d="M 1263 1888 
Q 925 1963 778 2166 
Q 669 2309 669 2503 
Q 669 3034 1175 3344 
Q 1575 3588 2188 3588 
Q 2425 3588 2684 3550 
Q 2944 3513 3234 3438 
L 3134 2916 
Q 2847 3006 2606 3047 
Q 2359 3088 2138 3088 
Q 1766 3088 1522 2944 
Q 1228 2772 1228 2522 
Q 1228 2356 1381 2241 
Q 1563 2103 1925 2103 
L 2409 2103 
L 2319 1628 
L 1856 1628 
Q 1425 1628 1172 1469 
Q 828 1253 828 916 
Q 828 703 1013 563 
Q 1244 388 1716 388 
Q 2006 388 2284 444 
Q 2563 503 2806 619 
L 2700 84 
Q 2403 -3 2131 -47 
Q 1859 -91 1609 -91 
Q 866 -91 516 194 
Q 250 413 250 781 
Q 250 1278 600 1584 
Q 859 1813 1263 1888 
z
" transform="scale(0.015625)"/>
       <path id="DejaVuSans-2d" d="M 313 2009 
L 1997 2009 
L 1997 1497 
L 313 1497 
L 313 2009 
z
" transform="scale(0.015625)"/>
       <path id="DejaVuSans-79" d="M 2059 -325 
Q 1816 -950 1584 -1140 
Q 1353 -1331 966 -1331 
L 506 -1331 
L 506 -850 
L 844 -850 
Q 1081 -850 1212 -737 
Q 1344 -625 1503 -206 
L 1606 56 
L 191 3500 
L 800 3500 
L 1894 763 
L 2988 3500 
L 3597 3500 
L 2059 -325 
z
" transform="scale(0.015625)"/>
      </defs>
      <use xlink:href="#DejaVuSans-Oblique-3b5" transform="translate(0 0.015625)"/>
      <use xlink:href="#DejaVuSans-2d" transform="translate(54.052734 0.015625)"/>
      <use xlink:href="#DejaVuSans-67" transform="translate(90.136719 0.015625)"/>
      <use xlink:href="#DejaVuSans-72" transform="translate(153.613281 0.015625)"/>
      <use xlink:href="#DejaVuSans-65" transform="translate(194.726562 0.015625)"/>
      <use xlink:href="#DejaVuSans-65" transform="translate(256.25 0.015625)"/>
      <use xlink:href="#DejaVuSans-64" transform="translate(317.773438 0.015625)"/>
      <use xlink:href="#DejaVuSans-79" transform="translate(381.25 0.015625)"/>
      <use xlink:href="#DejaVuSans-20" transform="translate(440.429688 0.015625)"/>
      <use xlink:href="#DejaVuSans-28" transform="translate(472.216797 0.015625)"/>
      <use xlink:href="#DejaVuSans-Oblique-3b5" transform="translate(511.230469 0.015625)"/>
      <use xlink:href="#DejaVuSans-3d" transform="translate(584.765625 0.015625)"/>
      <use xlink:href="#DejaVuSans-30" transform="translate(688.037109 0.015625)"/>
      <use xlink:href="#DejaVuSans-2e" transform="translate(751.660156 0.015625)"/>
      <use xlink:href="#DejaVuSans-31" transform="translate(783.447266 0.015625)"/>
      <use xlink:href="#DejaVuSans-29" transform="translate(847.070312 0.015625)"/>
     </g>
    </g>
   </g>
  </g>
 </g>
 <defs>
  <clipPath id="pcdc1be635d">
   <rect x="69.616562" y="7.2" width="669.6" height="332.64"/>
  </clipPath>
 </defs>
</svg>
