<?xml version="1.0" encoding="utf-8" standalone="no"?>
<!DOCTYPE svg PUBLIC "-//W3C//DTD SVG 1.1//EN"
  "http://www.w3.org/Graphics/SVG/1.1/DTD/svg11.dtd">
<svg xmlns:xlink="http://www.w3.org/1999/xlink" width="434.988625pt" height="368.460625pt" viewBox="0 0 434.988625 368.460625" xmlns="http://www.w3.org/2000/svg" version="1.1">
 <metadata>
  <rdf:RDF xmlns:dc="http://purl.org/dc/elements/1.1/" xmlns:cc="http://creativecommons.org/ns#" xmlns:rdf="http://www.w3.org/1999/02/22-rdf-syntax-ns#">
   <cc:Work>
    <dc:type rdf:resource="http://purl.org/dc/dcmitype/StillImage"/>
    <dc:date>2026-03-13T20:33:21.645942</dc:date>
    <dc:format>image/svg+xml</dc:format>
    <dc:creator>
     <cc:Agent>
      <dc:title>Matplotlib v3.10.8, https://matplotlib.org/</dc:title>
     </cc:Agent>
    </dc:creator>
   </cc:Work>
  </rdf:RDF>
 </metadata>
 <defs>
  <style type="text/css">*{stroke-linejoin: round; stroke-linecap: butt}</style>
 </defs>
 <g id="figure_1">
  <g id="patch_1">
   <path d="M 0 368.460625 
L 434.988625 368.460625 
L 434.988625 0 
L 0 0 
L 0 368.460625 
z
" style="fill: none"/>
  </g>
  <g id="axes_1">
   <g id="patch_2">
    <path d="M 28.620625 339.84 
L 427.788625 339.84 
L 427.788625 7.2 
L 28.620625 7.2 
L 28.620625 339.84 
z
" style="fill: none"/>
   </g>
   <g id="matplotlib.axis_1">
    <g id="text_1">
     <!-- w -->
     <g transform="translate(220.844312 357.517188) scale(0.18 -0.18)">
      <defs>
       <path id="DejaVuSans-77" d="M 269 3500 
L 844 3500 
L 1563 769 
L 2278 3500 
L 2956 3500 
L 3675 769 
L 4391 3500 
L 4966 3500 
L 4050 0 
L 3372 0 
L 2619 2869 
L 1863 0 
L 1184 0 
L 269 3500 
z
" transform="scale(0.015625)"/>
      </defs>
      <use xlink:href="#DejaVuSans-77"/>
     </g>
    </g>
   </g>
   <g id="matplotlib.axis_2">
    <g id="text_2">
     <!-- Loss -->
     <g transform="translate(20.877188 193.260938) rotate(-90) scale(0.18 -0.18)">
      <defs>
       <path id="DejaVuSans-4c" d="M 628 4666 
L 1259 4666 
L 1259 531 
L 3531 531 
L 3531 0 
L 628 0 
L 628 4666 
z
" transform="scale(0.015625)"/>
       <path id="DejaVuSans-6f" d="M 1959 3097 
Q 1497 3097 1228 2736 
Q 959 2375 959 1747 
Q 959 1119 1226 758 
Q 1494 397 1959 397 
Q 2419 397 2687 759 
Q 2956 1122 2956 1747 
Q 2956 2369 2687 2733 
Q 2419 3097 1959 3097 
z
M 1959 3584 
Q 2709 3584 3137 3096 
Q 3566 2609 3566 1747 
Q 3566 888 3137 398 
Q 2709 -91 1959 -91 
Q 1206 -91 779 398 
Q 353 888 353 1747 
Q 353 2609 779 3096 
Q 1206 3584 1959 3584 
z
" transform="scale(0.015625)"/>
       <path id="DejaVuSans-73" d="M 2834 3397 
L 2834 2853 
Q 2591 2978 2328 3040 
Q 2066 3103 1784 3103 
Q 1356 3103 1142 2972 
Q 928 2841 928 2578 
Q 928 2378 1081 2264 
Q 1234 2150 1697 2047 
L 1894 2003 
Q 2506 1872 2764 1633 
Q 3022 1394 3022 966 
Q 3022 478 2636 193 
Q 2250 -91 1575 -91 
Q 1294 -91 989 -36 
Q 684 19 347 128 
L 347 722 
Q 666 556 975 473 
Q 1284 391 1588 391 
Q 1994 391 2212 530 
Q 2431 669 2431 922 
Q 2431 1156 2273 1281 
Q 2116 1406 1581 1522 
L 1381 1569 
Q 847 1681 609 1914 
Q 372 2147 372 2553 
Q 372 3047 722 3315 
Q 1072 3584 1716 3584 
Q 2034 3584 2315 3537 
Q 2597 3491 2834 3397 
z
" transform="scale(0.015625)"/>
      </defs>
      <use xlink:href="#DejaVuSans-4c"/>
      <use xlink:href="#DejaVuSans-6f" transform="translate(53.962891 0)"/>
      <use xlink:href="#DejaVuSans-73" transform="translate(115.144531 0)"/>
      <use xlink:href="#DejaVuSans-73" transform="translate(167.244141 0)"/>
     </g>
    </g>
   </g>
   <g id="line2d_1">
    <path d="M 28.620625 7.2 
L 35.623572 27.840266 
L 42.62652 47.74338 
L 49.629467 66.909341 
L 56.632414 85.33815 
L 62.634941 100.547558 
L 68.637467 115.215386 
L 74.639993 129.341632 
L 80.64252 142.926297 
L 86.645046 155.96938 
L 92.647572 168.470882 
L 98.650099 180.430803 
L 104.652625 191.849143 
L 110.655151 202.725901 
L 115.657257 211.376158 
L 120.659362 219.650317 
L 125.661467 227.548378 
L 130.663572 235.070341 
L 135.665678 242.216206 
L 140.667783 248.985972 
L 145.669888 255.379641 
L 150.671993 261.397211 
L 155.674099 267.038683 
L 160.676204 272.304057 
L 165.678309 277.193333 
L 170.680414 281.70651 
L 174.682099 285.046262 
L 178.683783 288.145311 
L 182.685467 291.003657 
L 186.687151 293.6213 
L 190.688836 295.99824 
L 194.69052 298.134477 
L 198.692204 300.030012 
L 202.693888 301.684844 
L 206.695572 303.098973 
L 210.697257 304.272399 
L 214.698941 305.205122 
L 218.700625 305.897143 
L 222.702309 306.348461 
L 226.703993 306.559076 
L 230.705678 306.528988 
L 234.707362 306.258197 
L 238.709046 305.746704 
L 242.71073 304.994507 
L 246.712414 304.001608 
L 250.714099 302.768006 
L 254.715783 301.293702 
L 258.717467 299.578694 
L 262.719151 297.622984 
L 266.720836 295.426571 
L 270.72252 292.989455 
L 274.724204 290.311636 
L 278.725888 287.393114 
L 282.727572 284.23389 
L 286.729257 280.833963 
L 290.730941 277.193333 
L 295.733046 272.304057 
L 300.735151 267.038683 
L 305.737257 261.397211 
L 310.739362 255.379641 
L 315.741467 248.985972 
L 320.743572 242.216206 
L 325.745678 235.070341 
L 330.747783 227.548378 
L 335.749888 219.650317 
L 340.751993 211.376158 
L 345.754099 202.725901 
L 351.756625 191.849143 
L 357.759151 180.430803 
L 363.761678 168.470882 
L 369.764204 155.96938 
L 375.76673 142.926297 
L 381.769257 129.341632 
L 387.771783 115.215386 
L 393.774309 100.547558 
L 399.776836 85.33815 
L 405.779362 69.587159 
L 412.782309 50.526506 
L 419.785257 30.7287 
L 426.788204 10.193741 
L 427.788625 7.2 
L 427.788625 7.2 
" clip-path="url(#p01e62b0195)" style="fill: none; stroke: #1f77b4; stroke-width: 2; stroke-linecap: square"/>
   </g>
   <g id="line2d_2">
    <path d="M 263.290312 369.460625 
L 427.788625 40.464 
L 427.788625 40.464 
" clip-path="url(#p01e62b0195)" style="fill: none; stroke: #ff7f0e; stroke-width: 2; stroke-linecap: square"/>
   </g>
  </g>
 </g>
 <defs>
  <clipPath id="p01e62b0195">
   <rect x="28.620625" y="7.2" width="399.168" height="332.64"/>
  </clipPath>
 </defs>
</svg>
