<?xml version="1.0" encoding="utf-8" standalone="no"?>
<!DOCTYPE svg PUBLIC "-//W3C//DTD SVG 1.1//EN"
  "http://www.w3.org/Graphics/SVG/1.1/DTD/svg11.dtd">
<svg xmlns:xlink="http://www.w3.org/1999/xlink" width="725.145625pt" height="304.695255pt" viewBox="0 0 725.145625 304.695255" xmlns="http://www.w3.org/2000/svg" version="1.1">
 <metadata>
  <rdf:RDF xmlns:dc="http://purl.org/dc/elements/1.1/" xmlns:cc="http://creativecommons.org/ns#" xmlns:rdf="http://www.w3.org/1999/02/22-rdf-syntax-ns#">
   <cc:Work>
    <dc:type rdf:resource="http://purl.org/dc/dcmitype/StillImage"/>
    <dc:date>2026-03-06T21:19:01.115865</dc:date>
    <dc:format>image/svg+xml</dc:format>
    <dc:creator>
     <cc:Agent>
      <dc:title>Matplotlib v3.10.8, https://matplotlib.org/</dc:title>
     </cc:Agent>
    </dc:creator>
   </cc:Work>
  </rdf:RDF>
 </metadata>
 <defs>
  <style type="text/css">*{stroke-linejoin: round; stroke-linecap: butt}</style>
 </defs>
 <g id="figure_1">
  <g id="patch_1">
   <path d="M 0 304.695255 
L 725.145625 304.695255 
L 725.145625 0 
L 0 0 
z
"/>
  </g>
  <g id="axes_1">
   <g id="patch_2">
    <path d="M 48.345625 259.396505 
L 717.945625 259.396505 
L 717.945625 9.916505 
L 48.345625 9.916505 
z
"/>
   </g>
   <g id="matplotlib.axis_1">
    <g id="xtick_1">
     <g id="line2d_1">
      <defs>
       <path id="m32c043fa7d" d="M 0 0 
L 0 3.5 
" style="stroke: #ffffff; stroke-width: 0.8"/>
      </defs>
      <g>
       <use xlink:href="#m32c043fa7d" x="78.781989" y="259.396505" style="fill: #ffffff; stroke: #ffffff; stroke-width: 0.8"/>
      </g>
     </g>
     <g id="text_1">
      <!-- 0 -->
      <g style="fill: #ffffff" transform="translate(75.600739 273.994943) scale(0.1 -0.1)">
       <defs>
        <path id="DejaVuSans-30" d="M 2034 4250 
Q 1547 4250 1301 3770 
Q 1056 3291 1056 2328 
Q 1056 1369 1301 889 
Q 1547 409 2034 409 
Q 2525 409 2770 889 
Q 3016 1369 3016 2328 
Q 3016 3291 2770 3770 
Q 2525 4250 2034 4250 
z
M 2034 4750 
Q 2819 4750 3233 4129 
Q 3647 3509 3647 2328 
Q 3647 1150 3233 529 
Q 2819 -91 2034 -91 
Q 1250 -91 836 529 
Q 422 1150 422 2328 
Q 422 3509 836 4129 
Q 1250 4750 2034 4750 
z
" transform="scale(0.015625)"/>
       </defs>
       <use xlink:href="#DejaVuSans-30"/>
      </g>
     </g>
    </g>
    <g id="xtick_2">
     <g id="line2d_2">
      <g>
       <use xlink:href="#m32c043fa7d" x="154.910962" y="259.396505" style="fill: #ffffff; stroke: #ffffff; stroke-width: 0.8"/>
      </g>
     </g>
     <g id="text_2">
      <!-- 250 -->
      <g style="fill: #ffffff" transform="translate(145.367212 273.994943) scale(0.1 -0.1)">
       <defs>
        <path id="DejaVuSans-32" d="M 1228 531 
L 3431 531 
L 3431 0 
L 469 0 
L 469 531 
Q 828 903 1448 1529 
Q 2069 2156 2228 2338 
Q 2531 2678 2651 2914 
Q 2772 3150 2772 3378 
Q 2772 3750 2511 3984 
Q 2250 4219 1831 4219 
Q 1534 4219 1204 4116 
Q 875 4013 500 3803 
L 500 4441 
Q 881 4594 1212 4672 
Q 1544 4750 1819 4750 
Q 2544 4750 2975 4387 
Q 3406 4025 3406 3419 
Q 3406 3131 3298 2873 
Q 3191 2616 2906 2266 
Q 2828 2175 2409 1742 
Q 1991 1309 1228 531 
z
" transform="scale(0.015625)"/>
        <path id="DejaVuSans-35" d="M 691 4666 
L 3169 4666 
L 3169 4134 
L 1269 4134 
L 1269 2991 
Q 1406 3038 1543 3061 
Q 1681 3084 1819 3084 
Q 2600 3084 3056 2656 
Q 3513 2228 3513 1497 
Q 3513 744 3044 326 
Q 2575 -91 1722 -91 
Q 1428 -91 1123 -41 
Q 819 9 494 109 
L 494 744 
Q 775 591 1075 516 
Q 1375 441 1709 441 
Q 2250 441 2565 725 
Q 2881 1009 2881 1497 
Q 2881 1984 2565 2268 
Q 2250 2553 1709 2553 
Q 1456 2553 1204 2497 
Q 953 2441 691 2322 
L 691 4666 
z
" transform="scale(0.015625)"/>
       </defs>
       <use xlink:href="#DejaVuSans-32"/>
       <use xlink:href="#DejaVuSans-35" transform="translate(63.623047 0)"/>
       <use xlink:href="#DejaVuSans-30" transform="translate(127.246094 0)"/>
      </g>
     </g>
    </g>
    <g id="xtick_3">
     <g id="line2d_3">
      <g>
       <use xlink:href="#m32c043fa7d" x="231.039936" y="259.396505" style="fill: #ffffff; stroke: #ffffff; stroke-width: 0.8"/>
      </g>
     </g>
     <g id="text_3">
      <!-- 500 -->
      <g style="fill: #ffffff" transform="translate(221.496186 273.994943) scale(0.1 -0.1)">
       <use xlink:href="#DejaVuSans-35"/>
       <use xlink:href="#DejaVuSans-30" transform="translate(63.623047 0)"/>
       <use xlink:href="#DejaVuSans-30" transform="translate(127.246094 0)"/>
      </g>
     </g>
    </g>
    <g id="xtick_4">
     <g id="line2d_4">
      <g>
       <use xlink:href="#m32c043fa7d" x="307.168909" y="259.396505" style="fill: #ffffff; stroke: #ffffff; stroke-width: 0.8"/>
      </g>
     </g>
     <g id="text_4">
      <!-- 750 -->
      <g style="fill: #ffffff" transform="translate(297.625159 273.994943) scale(0.1 -0.1)">
       <defs>
        <path id="DejaVuSans-37" d="M 525 4666 
L 3525 4666 
L 3525 4397 
L 1831 0 
L 1172 0 
L 2766 4134 
L 525 4134 
L 525 4666 
z
" transform="scale(0.015625)"/>
       </defs>
       <use xlink:href="#DejaVuSans-37"/>
       <use xlink:href="#DejaVuSans-35" transform="translate(63.623047 0)"/>
       <use xlink:href="#DejaVuSans-30" transform="translate(127.246094 0)"/>
      </g>
     </g>
    </g>
    <g id="xtick_5">
     <g id="line2d_5">
      <g>
       <use xlink:href="#m32c043fa7d" x="383.297883" y="259.396505" style="fill: #ffffff; stroke: #ffffff; stroke-width: 0.8"/>
      </g>
     </g>
     <g id="text_5">
      <!-- 1000 -->
      <g style="fill: #ffffff" transform="translate(370.572883 273.994943) scale(0.1 -0.1)">
       <defs>
        <path id="DejaVuSans-31" d="M 794 531 
L 1825 531 
L 1825 4091 
L 703 3866 
L 703 4441 
L 1819 4666 
L 2450 4666 
L 2450 531 
L 3481 531 
L 3481 0 
L 794 0 
L 794 531 
z
" transform="scale(0.015625)"/>
       </defs>
       <use xlink:href="#DejaVuSans-31"/>
       <use xlink:href="#DejaVuSans-30" transform="translate(63.623047 0)"/>
       <use xlink:href="#DejaVuSans-30" transform="translate(127.246094 0)"/>
       <use xlink:href="#DejaVuSans-30" transform="translate(190.869141 0)"/>
      </g>
     </g>
    </g>
    <g id="xtick_6">
     <g id="line2d_6">
      <g>
       <use xlink:href="#m32c043fa7d" x="459.426857" y="259.396505" style="fill: #ffffff; stroke: #ffffff; stroke-width: 0.8"/>
      </g>
     </g>
     <g id="text_6">
      <!-- 1250 -->
      <g style="fill: #ffffff" transform="translate(446.701857 273.994943) scale(0.1 -0.1)">
       <use xlink:href="#DejaVuSans-31"/>
       <use xlink:href="#DejaVuSans-32" transform="translate(63.623047 0)"/>
       <use xlink:href="#DejaVuSans-35" transform="translate(127.246094 0)"/>
       <use xlink:href="#DejaVuSans-30" transform="translate(190.869141 0)"/>
      </g>
     </g>
    </g>
    <g id="xtick_7">
     <g id="line2d_7">
      <g>
       <use xlink:href="#m32c043fa7d" x="535.55583" y="259.396505" style="fill: #ffffff; stroke: #ffffff; stroke-width: 0.8"/>
      </g>
     </g>
     <g id="text_7">
      <!-- 1500 -->
      <g style="fill: #ffffff" transform="translate(522.83083 273.994943) scale(0.1 -0.1)">
       <use xlink:href="#DejaVuSans-31"/>
       <use xlink:href="#DejaVuSans-35" transform="translate(63.623047 0)"/>
       <use xlink:href="#DejaVuSans-30" transform="translate(127.246094 0)"/>
       <use xlink:href="#DejaVuSans-30" transform="translate(190.869141 0)"/>
      </g>
     </g>
    </g>
    <g id="xtick_8">
     <g id="line2d_8">
      <g>
       <use xlink:href="#m32c043fa7d" x="611.684804" y="259.396505" style="fill: #ffffff; stroke: #ffffff; stroke-width: 0.8"/>
      </g>
     </g>
     <g id="text_8">
      <!-- 1750 -->
      <g style="fill: #ffffff" transform="translate(598.959804 273.994943) scale(0.1 -0.1)">
       <use xlink:href="#DejaVuSans-31"/>
       <use xlink:href="#DejaVuSans-37" transform="translate(63.623047 0)"/>
       <use xlink:href="#DejaVuSans-35" transform="translate(127.246094 0)"/>
       <use xlink:href="#DejaVuSans-30" transform="translate(190.869141 0)"/>
      </g>
     </g>
    </g>
    <g id="xtick_9">
     <g id="line2d_9">
      <g>
       <use xlink:href="#m32c043fa7d" x="687.813777" y="259.396505" style="fill: #ffffff; stroke: #ffffff; stroke-width: 0.8"/>
      </g>
     </g>
     <g id="text_9">
      <!-- 2000 -->
      <g style="fill: #ffffff" transform="translate(675.088777 273.994943) scale(0.1 -0.1)">
       <use xlink:href="#DejaVuSans-32"/>
       <use xlink:href="#DejaVuSans-30" transform="translate(63.623047 0)"/>
       <use xlink:href="#DejaVuSans-30" transform="translate(127.246094 0)"/>
       <use xlink:href="#DejaVuSans-30" transform="translate(190.869141 0)"/>
      </g>
     </g>
    </g>
    <g id="text_10">
     <!-- Steps -->
     <g style="fill: #ffffff" transform="translate(357.963906 293.751818) scale(0.18 -0.18)">
      <defs>
       <path id="DejaVuSans-53" d="M 3425 4513 
L 3425 3897 
Q 3066 4069 2747 4153 
Q 2428 4238 2131 4238 
Q 1616 4238 1336 4038 
Q 1056 3838 1056 3469 
Q 1056 3159 1242 3001 
Q 1428 2844 1947 2747 
L 2328 2669 
Q 3034 2534 3370 2195 
Q 3706 1856 3706 1288 
Q 3706 609 3251 259 
Q 2797 -91 1919 -91 
Q 1588 -91 1214 -16 
Q 841 59 441 206 
L 441 856 
Q 825 641 1194 531 
Q 1563 422 1919 422 
Q 2459 422 2753 634 
Q 3047 847 3047 1241 
Q 3047 1584 2836 1778 
Q 2625 1972 2144 2069 
L 1759 2144 
Q 1053 2284 737 2584 
Q 422 2884 422 3419 
Q 422 4038 858 4394 
Q 1294 4750 2059 4750 
Q 2388 4750 2728 4690 
Q 3069 4631 3425 4513 
z
" transform="scale(0.015625)"/>
       <path id="DejaVuSans-74" d="M 1172 4494 
L 1172 3500 
L 2356 3500 
L 2356 3053 
L 1172 3053 
L 1172 1153 
Q 1172 725 1289 603 
Q 1406 481 1766 481 
L 2356 481 
L 2356 0 
L 1766 0 
Q 1100 0 847 248 
Q 594 497 594 1153 
L 594 3053 
L 172 3053 
L 172 3500 
L 594 3500 
L 594 4494 
L 1172 4494 
z
" transform="scale(0.015625)"/>
       <path id="DejaVuSans-65" d="M 3597 1894 
L 3597 1613 
L 953 1613 
Q 991 1019 1311 708 
Q 1631 397 2203 397 
Q 2534 397 2845 478 
Q 3156 559 3463 722 
L 3463 178 
Q 3153 47 2828 -22 
Q 2503 -91 2169 -91 
Q 1331 -91 842 396 
Q 353 884 353 1716 
Q 353 2575 817 3079 
Q 1281 3584 2069 3584 
Q 2775 3584 3186 3129 
Q 3597 2675 3597 1894 
z
M 3022 2063 
Q 3016 2534 2758 2815 
Q 2500 3097 2075 3097 
Q 1594 3097 1305 2825 
Q 1016 2553 972 2059 
L 3022 2063 
z
" transform="scale(0.015625)"/>
       <path id="DejaVuSans-70" d="M 1159 525 
L 1159 -1331 
L 581 -1331 
L 581 3500 
L 1159 3500 
L 1159 2969 
Q 1341 3281 1617 3432 
Q 1894 3584 2278 3584 
Q 2916 3584 3314 3078 
Q 3713 2572 3713 1747 
Q 3713 922 3314 415 
Q 2916 -91 2278 -91 
Q 1894 -91 1617 61 
Q 1341 213 1159 525 
z
M 3116 1747 
Q 3116 2381 2855 2742 
Q 2594 3103 2138 3103 
Q 1681 3103 1420 2742 
Q 1159 2381 1159 1747 
Q 1159 1113 1420 752 
Q 1681 391 2138 391 
Q 2594 391 2855 752 
Q 3116 1113 3116 1747 
z
" transform="scale(0.015625)"/>
       <path id="DejaVuSans-73" d="M 2834 3397 
L 2834 2853 
Q 2591 2978 2328 3040 
Q 2066 3103 1784 3103 
Q 1356 3103 1142 2972 
Q 928 2841 928 2578 
Q 928 2378 1081 2264 
Q 1234 2150 1697 2047 
L 1894 2003 
Q 2506 1872 2764 1633 
Q 3022 1394 3022 966 
Q 3022 478 2636 193 
Q 2250 -91 1575 -91 
Q 1294 -91 989 -36 
Q 684 19 347 128 
L 347 722 
Q 666 556 975 473 
Q 1284 391 1588 391 
Q 1994 391 2212 530 
Q 2431 669 2431 922 
Q 2431 1156 2273 1281 
Q 2116 1406 1581 1522 
L 1381 1569 
Q 847 1681 609 1914 
Q 372 2147 372 2553 
Q 372 3047 722 3315 
Q 1072 3584 1716 3584 
Q 2034 3584 2315 3537 
Q 2597 3491 2834 3397 
z
" transform="scale(0.015625)"/>
      </defs>
      <use xlink:href="#DejaVuSans-53"/>
      <use xlink:href="#DejaVuSans-74" transform="translate(63.476562 0)"/>
      <use xlink:href="#DejaVuSans-65" transform="translate(102.685547 0)"/>
      <use xlink:href="#DejaVuSans-70" transform="translate(164.208984 0)"/>
      <use xlink:href="#DejaVuSans-73" transform="translate(227.685547 0)"/>
     </g>
    </g>
   </g>
   <g id="matplotlib.axis_2">
    <g id="ytick_1">
     <g id="line2d_10">
      <defs>
       <path id="m30df3a667b" d="M 0 0 
L -3.5 0 
" style="stroke: #ffffff; stroke-width: 0.8"/>
      </defs>
      <g>
       <use xlink:href="#m30df3a667b" x="48.345625" y="245.643026" style="fill: #ffffff; stroke: #ffffff; stroke-width: 0.8"/>
      </g>
     </g>
     <g id="text_11">
      <!-- 10 -->
      <g style="fill: #ffffff" transform="translate(28.620625 249.442245) scale(0.1 -0.1)">
       <use xlink:href="#DejaVuSans-31"/>
       <use xlink:href="#DejaVuSans-30" transform="translate(63.623047 0)"/>
      </g>
     </g>
    </g>
    <g id="ytick_2">
     <g id="line2d_11">
      <g>
       <use xlink:href="#m30df3a667b" x="48.345625" y="212.122482" style="fill: #ffffff; stroke: #ffffff; stroke-width: 0.8"/>
      </g>
     </g>
     <g id="text_12">
      <!-- 20 -->
      <g style="fill: #ffffff" transform="translate(28.620625 215.921701) scale(0.1 -0.1)">
       <use xlink:href="#DejaVuSans-32"/>
       <use xlink:href="#DejaVuSans-30" transform="translate(63.623047 0)"/>
      </g>
     </g>
    </g>
    <g id="ytick_3">
     <g id="line2d_12">
      <g>
       <use xlink:href="#m30df3a667b" x="48.345625" y="178.601938" style="fill: #ffffff; stroke: #ffffff; stroke-width: 0.8"/>
      </g>
     </g>
     <g id="text_13">
      <!-- 30 -->
      <g style="fill: #ffffff" transform="translate(28.620625 182.401157) scale(0.1 -0.1)">
       <defs>
        <path id="DejaVuSans-33" d="M 2597 2516 
Q 3050 2419 3304 2112 
Q 3559 1806 3559 1356 
Q 3559 666 3084 287 
Q 2609 -91 1734 -91 
Q 1441 -91 1130 -33 
Q 819 25 488 141 
L 488 750 
Q 750 597 1062 519 
Q 1375 441 1716 441 
Q 2309 441 2620 675 
Q 2931 909 2931 1356 
Q 2931 1769 2642 2001 
Q 2353 2234 1838 2234 
L 1294 2234 
L 1294 2753 
L 1863 2753 
Q 2328 2753 2575 2939 
Q 2822 3125 2822 3475 
Q 2822 3834 2567 4026 
Q 2313 4219 1838 4219 
Q 1578 4219 1281 4162 
Q 984 4106 628 3988 
L 628 4550 
Q 988 4650 1302 4700 
Q 1616 4750 1894 4750 
Q 2613 4750 3031 4423 
Q 3450 4097 3450 3541 
Q 3450 3153 3228 2886 
Q 3006 2619 2597 2516 
z
" transform="scale(0.015625)"/>
       </defs>
       <use xlink:href="#DejaVuSans-33"/>
       <use xlink:href="#DejaVuSans-30" transform="translate(63.623047 0)"/>
      </g>
     </g>
    </g>
    <g id="ytick_4">
     <g id="line2d_13">
      <g>
       <use xlink:href="#m30df3a667b" x="48.345625" y="145.081394" style="fill: #ffffff; stroke: #ffffff; stroke-width: 0.8"/>
      </g>
     </g>
     <g id="text_14">
      <!-- 40 -->
      <g style="fill: #ffffff" transform="translate(28.620625 148.880613) scale(0.1 -0.1)">
       <defs>
        <path id="DejaVuSans-34" d="M 2419 4116 
L 825 1625 
L 2419 1625 
L 2419 4116 
z
M 2253 4666 
L 3047 4666 
L 3047 1625 
L 3713 1625 
L 3713 1100 
L 3047 1100 
L 3047 0 
L 2419 0 
L 2419 1100 
L 313 1100 
L 313 1709 
L 2253 4666 
z
" transform="scale(0.015625)"/>
       </defs>
       <use xlink:href="#DejaVuSans-34"/>
       <use xlink:href="#DejaVuSans-30" transform="translate(63.623047 0)"/>
      </g>
     </g>
    </g>
    <g id="ytick_5">
     <g id="line2d_14">
      <g>
       <use xlink:href="#m30df3a667b" x="48.345625" y="111.56085" style="fill: #ffffff; stroke: #ffffff; stroke-width: 0.8"/>
      </g>
     </g>
     <g id="text_15">
      <!-- 50 -->
      <g style="fill: #ffffff" transform="translate(28.620625 115.360069) scale(0.1 -0.1)">
       <use xlink:href="#DejaVuSans-35"/>
       <use xlink:href="#DejaVuSans-30" transform="translate(63.623047 0)"/>
      </g>
     </g>
    </g>
    <g id="ytick_6">
     <g id="line2d_15">
      <g>
       <use xlink:href="#m30df3a667b" x="48.345625" y="78.040307" style="fill: #ffffff; stroke: #ffffff; stroke-width: 0.8"/>
      </g>
     </g>
     <g id="text_16">
      <!-- 60 -->
      <g style="fill: #ffffff" transform="translate(28.620625 81.839525) scale(0.1 -0.1)">
       <defs>
        <path id="DejaVuSans-36" d="M 2113 2584 
Q 1688 2584 1439 2293 
Q 1191 2003 1191 1497 
Q 1191 994 1439 701 
Q 1688 409 2113 409 
Q 2538 409 2786 701 
Q 3034 994 3034 1497 
Q 3034 2003 2786 2293 
Q 2538 2584 2113 2584 
z
M 3366 4563 
L 3366 3988 
Q 3128 4100 2886 4159 
Q 2644 4219 2406 4219 
Q 1781 4219 1451 3797 
Q 1122 3375 1075 2522 
Q 1259 2794 1537 2939 
Q 1816 3084 2150 3084 
Q 2853 3084 3261 2657 
Q 3669 2231 3669 1497 
Q 3669 778 3244 343 
Q 2819 -91 2113 -91 
Q 1303 -91 875 529 
Q 447 1150 447 2328 
Q 447 3434 972 4092 
Q 1497 4750 2381 4750 
Q 2619 4750 2861 4703 
Q 3103 4656 3366 4563 
z
" transform="scale(0.015625)"/>
       </defs>
       <use xlink:href="#DejaVuSans-36"/>
       <use xlink:href="#DejaVuSans-30" transform="translate(63.623047 0)"/>
      </g>
     </g>
    </g>
    <g id="ytick_7">
     <g id="line2d_16">
      <g>
       <use xlink:href="#m30df3a667b" x="48.345625" y="44.519763" style="fill: #ffffff; stroke: #ffffff; stroke-width: 0.8"/>
      </g>
     </g>
     <g id="text_17">
      <!-- 70 -->
      <g style="fill: #ffffff" transform="translate(28.620625 48.318981) scale(0.1 -0.1)">
       <use xlink:href="#DejaVuSans-37"/>
       <use xlink:href="#DejaVuSans-30" transform="translate(63.623047 0)"/>
      </g>
     </g>
    </g>
    <g id="ytick_8">
     <g id="line2d_17">
      <g>
       <use xlink:href="#m30df3a667b" x="48.345625" y="10.999219" style="fill: #ffffff; stroke: #ffffff; stroke-width: 0.8"/>
      </g>
     </g>
     <g id="text_18">
      <!-- 80 -->
      <g style="fill: #ffffff" transform="translate(28.620625 14.798438) scale(0.1 -0.1)">
       <defs>
        <path id="DejaVuSans-38" d="M 2034 2216 
Q 1584 2216 1326 1975 
Q 1069 1734 1069 1313 
Q 1069 891 1326 650 
Q 1584 409 2034 409 
Q 2484 409 2743 651 
Q 3003 894 3003 1313 
Q 3003 1734 2745 1975 
Q 2488 2216 2034 2216 
z
M 1403 2484 
Q 997 2584 770 2862 
Q 544 3141 544 3541 
Q 544 4100 942 4425 
Q 1341 4750 2034 4750 
Q 2731 4750 3128 4425 
Q 3525 4100 3525 3541 
Q 3525 3141 3298 2862 
Q 3072 2584 2669 2484 
Q 3125 2378 3379 2068 
Q 3634 1759 3634 1313 
Q 3634 634 3220 271 
Q 2806 -91 2034 -91 
Q 1263 -91 848 271 
Q 434 634 434 1313 
Q 434 1759 690 2068 
Q 947 2378 1403 2484 
z
M 1172 3481 
Q 1172 3119 1398 2916 
Q 1625 2713 2034 2713 
Q 2441 2713 2670 2916 
Q 2900 3119 2900 3481 
Q 2900 3844 2670 4047 
Q 2441 4250 2034 4250 
Q 1625 4250 1398 4047 
Q 1172 3844 1172 3481 
z
" transform="scale(0.015625)"/>
       </defs>
       <use xlink:href="#DejaVuSans-38"/>
       <use xlink:href="#DejaVuSans-30" transform="translate(63.623047 0)"/>
      </g>
     </g>
    </g>
    <g id="text_19">
     <!-- % Optimal Action -->
     <g style="fill: #ffffff" transform="translate(20.877187 212.724474) rotate(-90) scale(0.18 -0.18)">
      <defs>
       <path id="DejaVuSans-25" d="M 4653 2053 
Q 4381 2053 4226 1822 
Q 4072 1591 4072 1178 
Q 4072 772 4226 539 
Q 4381 306 4653 306 
Q 4919 306 5073 539 
Q 5228 772 5228 1178 
Q 5228 1588 5073 1820 
Q 4919 2053 4653 2053 
z
M 4653 2450 
Q 5147 2450 5437 2106 
Q 5728 1763 5728 1178 
Q 5728 594 5436 251 
Q 5144 -91 4653 -91 
Q 4153 -91 3862 251 
Q 3572 594 3572 1178 
Q 3572 1766 3864 2108 
Q 4156 2450 4653 2450 
z
M 1428 4353 
Q 1159 4353 1004 4120 
Q 850 3888 850 3481 
Q 850 3069 1003 2837 
Q 1156 2606 1428 2606 
Q 1700 2606 1854 2837 
Q 2009 3069 2009 3481 
Q 2009 3884 1853 4118 
Q 1697 4353 1428 4353 
z
M 4250 4750 
L 4750 4750 
L 1831 -91 
L 1331 -91 
L 4250 4750 
z
M 1428 4750 
Q 1922 4750 2215 4408 
Q 2509 4066 2509 3481 
Q 2509 2891 2217 2550 
Q 1925 2209 1428 2209 
Q 931 2209 642 2551 
Q 353 2894 353 3481 
Q 353 4063 643 4406 
Q 934 4750 1428 4750 
z
" transform="scale(0.015625)"/>
       <path id="DejaVuSans-20" transform="scale(0.015625)"/>
       <path id="DejaVuSans-4f" d="M 2522 4238 
Q 1834 4238 1429 3725 
Q 1025 3213 1025 2328 
Q 1025 1447 1429 934 
Q 1834 422 2522 422 
Q 3209 422 3611 934 
Q 4013 1447 4013 2328 
Q 4013 3213 3611 3725 
Q 3209 4238 2522 4238 
z
M 2522 4750 
Q 3503 4750 4090 4092 
Q 4678 3434 4678 2328 
Q 4678 1225 4090 567 
Q 3503 -91 2522 -91 
Q 1538 -91 948 565 
Q 359 1222 359 2328 
Q 359 3434 948 4092 
Q 1538 4750 2522 4750 
z
" transform="scale(0.015625)"/>
       <path id="DejaVuSans-69" d="M 603 3500 
L 1178 3500 
L 1178 0 
L 603 0 
L 603 3500 
z
M 603 4863 
L 1178 4863 
L 1178 4134 
L 603 4134 
L 603 4863 
z
" transform="scale(0.015625)"/>
       <path id="DejaVuSans-6d" d="M 3328 2828 
Q 3544 3216 3844 3400 
Q 4144 3584 4550 3584 
Q 5097 3584 5394 3201 
Q 5691 2819 5691 2113 
L 5691 0 
L 5113 0 
L 5113 2094 
Q 5113 2597 4934 2840 
Q 4756 3084 4391 3084 
Q 3944 3084 3684 2787 
Q 3425 2491 3425 1978 
L 3425 0 
L 2847 0 
L 2847 2094 
Q 2847 2600 2669 2842 
Q 2491 3084 2119 3084 
Q 1678 3084 1418 2786 
Q 1159 2488 1159 1978 
L 1159 0 
L 581 0 
L 581 3500 
L 1159 3500 
L 1159 2956 
Q 1356 3278 1631 3431 
Q 1906 3584 2284 3584 
Q 2666 3584 2933 3390 
Q 3200 3197 3328 2828 
z
" transform="scale(0.015625)"/>
       <path id="DejaVuSans-61" d="M 2194 1759 
Q 1497 1759 1228 1600 
Q 959 1441 959 1056 
Q 959 750 1161 570 
Q 1363 391 1709 391 
Q 2188 391 2477 730 
Q 2766 1069 2766 1631 
L 2766 1759 
L 2194 1759 
z
M 3341 1997 
L 3341 0 
L 2766 0 
L 2766 531 
Q 2569 213 2275 61 
Q 1981 -91 1556 -91 
Q 1019 -91 701 211 
Q 384 513 384 1019 
Q 384 1609 779 1909 
Q 1175 2209 1959 2209 
L 2766 2209 
L 2766 2266 
Q 2766 2663 2505 2880 
Q 2244 3097 1772 3097 
Q 1472 3097 1187 3025 
Q 903 2953 641 2809 
L 641 3341 
Q 956 3463 1253 3523 
Q 1550 3584 1831 3584 
Q 2591 3584 2966 3190 
Q 3341 2797 3341 1997 
z
" transform="scale(0.015625)"/>
       <path id="DejaVuSans-6c" d="M 603 4863 
L 1178 4863 
L 1178 0 
L 603 0 
L 603 4863 
z
" transform="scale(0.015625)"/>
       <path id="DejaVuSans-41" d="M 2188 4044 
L 1331 1722 
L 3047 1722 
L 2188 4044 
z
M 1831 4666 
L 2547 4666 
L 4325 0 
L 3669 0 
L 3244 1197 
L 1141 1197 
L 716 0 
L 50 0 
L 1831 4666 
z
" transform="scale(0.015625)"/>
       <path id="DejaVuSans-63" d="M 3122 3366 
L 3122 2828 
Q 2878 2963 2633 3030 
Q 2388 3097 2138 3097 
Q 1578 3097 1268 2742 
Q 959 2388 959 1747 
Q 959 1106 1268 751 
Q 1578 397 2138 397 
Q 2388 397 2633 464 
Q 2878 531 3122 666 
L 3122 134 
Q 2881 22 2623 -34 
Q 2366 -91 2075 -91 
Q 1284 -91 818 406 
Q 353 903 353 1747 
Q 353 2603 823 3093 
Q 1294 3584 2113 3584 
Q 2378 3584 2631 3529 
Q 2884 3475 3122 3366 
z
" transform="scale(0.015625)"/>
       <path id="DejaVuSans-6f" d="M 1959 3097 
Q 1497 3097 1228 2736 
Q 959 2375 959 1747 
Q 959 1119 1226 758 
Q 1494 397 1959 397 
Q 2419 397 2687 759 
Q 2956 1122 2956 1747 
Q 2956 2369 2687 2733 
Q 2419 3097 1959 3097 
z
M 1959 3584 
Q 2709 3584 3137 3096 
Q 3566 2609 3566 1747 
Q 3566 888 3137 398 
Q 2709 -91 1959 -91 
Q 1206 -91 779 398 
Q 353 888 353 1747 
Q 353 2609 779 3096 
Q 1206 3584 1959 3584 
z
" transform="scale(0.015625)"/>
       <path id="DejaVuSans-6e" d="M 3513 2113 
L 3513 0 
L 2938 0 
L 2938 2094 
Q 2938 2591 2744 2837 
Q 2550 3084 2163 3084 
Q 1697 3084 1428 2787 
Q 1159 2491 1159 1978 
L 1159 0 
L 581 0 
L 581 3500 
L 1159 3500 
L 1159 2956 
Q 1366 3272 1645 3428 
Q 1925 3584 2291 3584 
Q 2894 3584 3203 3211 
Q 3513 2838 3513 2113 
z
" transform="scale(0.015625)"/>
      </defs>
      <use xlink:href="#DejaVuSans-25"/>
      <use xlink:href="#DejaVuSans-20" transform="translate(95.019531 0)"/>
      <use xlink:href="#DejaVuSans-4f" transform="translate(126.806641 0)"/>
      <use xlink:href="#DejaVuSans-70" transform="translate(205.517578 0)"/>
      <use xlink:href="#DejaVuSans-74" transform="translate(268.994141 0)"/>
      <use xlink:href="#DejaVuSans-69" transform="translate(308.203125 0)"/>
      <use xlink:href="#DejaVuSans-6d" transform="translate(335.986328 0)"/>
      <use xlink:href="#DejaVuSans-61" transform="translate(433.398438 0)"/>
      <use xlink:href="#DejaVuSans-6c" transform="translate(494.677734 0)"/>
      <use xlink:href="#DejaVuSans-20" transform="translate(522.460938 0)"/>
      <use xlink:href="#DejaVuSans-41" transform="translate(554.248047 0)"/>
      <use xlink:href="#DejaVuSans-63" transform="translate(620.90625 0)"/>
      <use xlink:href="#DejaVuSans-74" transform="translate(675.886719 0)"/>
      <use xlink:href="#DejaVuSans-69" transform="translate(715.095703 0)"/>
      <use xlink:href="#DejaVuSans-6f" transform="translate(742.878906 0)"/>
      <use xlink:href="#DejaVuSans-6e" transform="translate(804.060547 0)"/>
     </g>
    </g>
   </g>
   <g id="line2d_18">
    <path d="M 78.781989 243.899958 
L 79.086505 246.112314 
L 79.39102 247.453135 
L 79.695536 245.106697 
L 80.000052 244.972615 
L 80.304568 245.106697 
L 80.609084 244.503328 
L 80.9136 248.056505 
L 81.218116 244.972615 
L 81.522632 246.246396 
L 81.827148 131.472054 
L 82.436179 113.035754 
L 83.045211 104.052249 
L 83.349727 100.096824 
L 84.872307 90.778113 
L 86.394886 84.677374 
L 86.699402 84.476251 
L 87.003918 83.671758 
L 87.308434 81.92869 
L 87.61295 81.995731 
L 87.917465 80.453786 
L 88.831013 78.576635 
L 89.135529 78.8448 
L 89.440045 78.107348 
L 89.744561 78.107348 
L 90.049077 77.772142 
L 90.353593 76.632444 
L 90.658109 76.565403 
L 90.962624 76.632444 
L 91.26714 75.492745 
L 91.571656 75.224581 
L 91.876172 74.688252 
L 92.180688 75.023458 
L 92.485204 73.682636 
L 92.78972 73.280389 
L 93.094236 73.146307 
L 93.398752 72.542937 
L 93.703267 72.341814 
L 94.312299 71.403239 
L 94.616815 71.202116 
L 94.921331 71.336198 
L 95.225847 71.000992 
L 95.530363 71.000992 
L 95.834879 70.86691 
L 96.139395 70.464664 
L 96.443911 70.26354 
L 97.052942 69.392006 
L 97.357458 69.123842 
L 97.661974 68.587513 
L 98.271006 68.319349 
L 98.575522 67.648938 
L 99.184554 67.648938 
L 100.098101 66.710363 
L 101.011649 66.106993 
L 101.316165 66.174034 
L 101.620681 66.039952 
L 101.925197 65.637705 
L 102.534228 65.637705 
L 103.447776 64.498007 
L 103.752292 64.833212 
L 104.056808 64.632089 
L 104.361324 64.09576 
L 104.66584 64.162801 
L 105.274871 63.626473 
L 105.579387 64.09576 
L 106.188419 63.559432 
L 106.492935 63.49239 
L 106.797451 63.224226 
L 107.101967 63.291267 
L 107.406483 62.889021 
L 108.32003 63.291267 
L 108.929062 62.956062 
L 109.233578 62.553815 
L 109.538094 62.889021 
L 110.147126 62.486774 
L 110.451642 61.950445 
L 110.756158 61.950445 
L 111.060673 61.548199 
L 111.365189 61.61524 
L 111.669705 61.548199 
L 112.583253 60.743706 
L 112.887769 60.877788 
L 113.192285 61.280035 
L 113.496801 60.810747 
L 114.105832 60.944829 
L 115.01938 60.073295 
L 115.323896 60.140336 
L 115.628412 59.872172 
L 115.932928 59.872172 
L 116.237444 60.542583 
L 117.150991 59.939213 
L 117.455507 59.335843 
L 118.064539 59.000638 
L 118.369055 59.201761 
L 118.673571 59.201761 
L 118.978087 59.000638 
L 119.282603 59.000638 
L 119.891634 58.53135 
L 120.19615 58.53135 
L 120.805182 58.330227 
L 121.109698 58.464309 
L 121.414214 58.263186 
L 121.71873 57.92798 
L 122.023246 57.860939 
L 122.632277 57.995021 
L 122.936793 57.592775 
L 123.241309 57.659816 
L 123.545825 57.32461 
L 123.850341 57.458693 
L 124.154857 57.257569 
L 124.459373 57.190528 
L 124.763889 56.989405 
L 125.068405 56.6542 
L 125.37292 56.855323 
L 125.677436 56.6542 
L 125.981952 56.318994 
L 126.590984 56.721241 
L 126.8955 56.318994 
L 127.200016 56.117871 
L 127.504532 55.782665 
L 127.809048 55.849706 
L 128.418079 56.251953 
L 128.722595 56.184912 
L 129.027111 55.983789 
L 130.245175 55.782665 
L 130.854207 55.782665 
L 131.158722 55.581542 
L 131.767754 55.715624 
L 132.681302 54.978172 
L 132.985818 54.84409 
L 133.290334 54.978172 
L 133.59485 54.978172 
L 133.899366 54.777049 
L 134.203881 54.777049 
L 134.508397 54.911131 
L 134.812913 54.710008 
L 135.117429 54.642967 
L 135.421945 54.710008 
L 136.335493 54.039597 
L 136.640009 53.972556 
L 136.944524 54.039597 
L 137.553556 54.374803 
L 137.858072 54.24072 
L 138.162588 54.441844 
L 138.467104 54.173679 
L 139.076136 54.441844 
L 139.380652 53.838474 
L 139.685167 53.637351 
L 140.294199 54.173679 
L 140.598715 54.24072 
L 141.207747 53.704392 
L 141.512263 53.637351 
L 141.816779 53.436227 
L 142.121295 53.637351 
L 142.425811 53.637351 
L 142.730326 53.436227 
L 143.339358 53.369186 
L 143.643874 53.235104 
L 143.94839 53.369186 
L 144.252906 53.302145 
L 144.557422 53.369186 
L 144.861938 52.96694 
L 145.470969 53.235104 
L 145.775485 52.899899 
L 146.080001 52.832858 
L 146.384517 53.033981 
L 146.689033 52.765816 
L 147.907097 52.765816 
L 148.211613 52.564693 
L 148.820644 52.497652 
L 149.12516 52.229488 
L 149.429676 52.765816 
L 149.734192 52.497652 
L 150.038708 52.832858 
L 151.561287 51.7602 
L 151.865803 51.894282 
L 152.170319 51.424995 
L 152.474835 51.559077 
L 152.779351 51.827241 
L 153.388383 51.559077 
L 153.692899 51.223871 
L 154.30193 51.022748 
L 155.215478 50.687543 
L 155.519994 50.352337 
L 155.82451 50.553461 
L 156.129026 50.218255 
L 157.042573 49.816009 
L 157.651605 49.212639 
L 158.260637 49.212639 
L 158.565153 49.413762 
L 159.174185 49.27968 
L 159.478701 49.547844 
L 159.783217 49.413762 
L 160.087732 49.413762 
L 160.696764 49.748967 
L 161.00128 49.413762 
L 161.305796 49.27968 
L 161.914828 49.346721 
L 162.52386 49.212639 
L 163.132891 48.810392 
L 163.437407 48.944474 
L 163.741923 48.877433 
L 164.046439 48.67631 
L 164.350955 48.67631 
L 164.655471 48.877433 
L 164.959987 48.810392 
L 165.264503 48.475187 
L 165.569019 48.475187 
L 165.873534 48.609269 
L 166.17805 48.408146 
L 166.482566 48.542228 
L 166.787082 48.542228 
L 167.091598 48.341105 
L 167.396114 48.341105 
L 167.70063 48.005899 
L 168.309662 48.341105 
L 168.918693 48.139981 
L 169.223209 48.139981 
L 170.136757 47.737735 
L 170.441273 47.469571 
L 170.745789 47.737735 
L 171.354821 47.335488 
L 171.659336 47.335488 
L 171.963852 47.134365 
L 173.790948 46.79916 
L 174.095464 46.79916 
L 174.399979 47.134365 
L 174.704495 47.201406 
L 175.009011 47.067324 
L 175.313527 46.732119 
L 175.618043 46.665077 
L 176.227075 46.933242 
L 176.531591 46.598036 
L 176.836107 46.463954 
L 177.445138 46.396913 
L 177.749654 46.128749 
L 179.272234 46.061708 
L 179.57675 45.726502 
L 180.185781 45.391297 
L 180.490297 45.458338 
L 181.099329 45.257215 
L 181.708361 44.854968 
L 182.621909 44.98905 
L 182.926424 44.653845 
L 183.23094 44.519763 
L 183.535456 44.251598 
L 183.839972 44.452722 
L 184.144488 44.519763 
L 184.75352 44.117516 
L 185.362552 44.452722 
L 185.667068 44.318639 
L 186.276099 44.519763 
L 186.580615 44.318639 
L 186.885131 44.38568 
L 187.189647 44.586804 
L 187.494163 44.519763 
L 187.798679 44.251598 
L 188.103195 44.318639 
L 188.712226 44.251598 
L 189.016742 44.251598 
L 189.321258 44.38568 
L 189.625774 44.184557 
L 189.93029 43.849352 
L 190.539322 44.050475 
L 190.843838 44.050475 
L 191.148354 43.916393 
L 191.45287 43.983434 
L 191.757385 43.782311 
L 192.061901 43.916393 
L 192.366417 43.380064 
L 193.888997 43.782311 
L 194.193513 43.648229 
L 194.498028 43.782311 
L 196.325124 43.313023 
L 196.62964 43.178941 
L 197.238672 43.447105 
L 197.543187 43.71527 
L 197.847703 43.380064 
L 198.456735 43.178941 
L 198.761251 42.843735 
L 199.674799 42.910777 
L 200.28383 42.977818 
L 201.197378 43.044859 
L 201.80641 42.50853 
L 202.110926 42.374448 
L 203.024474 42.575571 
L 203.938021 42.307407 
L 204.242537 42.441489 
L 204.547053 42.240366 
L 204.851569 41.90516 
L 205.765117 41.972201 
L 206.069632 41.771078 
L 206.374148 41.771078 
L 206.678664 41.502914 
L 207.287696 41.368832 
L 207.896728 41.704037 
L 208.201244 41.435873 
L 208.50576 41.435873 
L 208.810276 41.234749 
L 209.114791 41.234749 
L 209.419307 41.435873 
L 209.723823 41.167708 
L 210.028339 41.234749 
L 210.332855 41.502914 
L 211.550919 41.234749 
L 211.855434 41.368832 
L 212.15995 40.698421 
L 212.464466 40.63138 
L 212.768982 40.430256 
L 213.073498 40.363215 
L 213.378014 40.63138 
L 213.68253 40.564338 
L 213.987046 40.698421 
L 214.291562 40.698421 
L 214.596077 40.564338 
L 214.900593 40.966585 
L 215.509625 40.899544 
L 215.814141 40.832503 
L 216.118657 40.966585 
L 216.727689 40.63138 
L 218.8593 40.162092 
L 219.163816 40.229133 
L 219.468332 40.162092 
L 219.772848 39.960969 
L 220.381879 39.826887 
L 221.295427 39.960969 
L 221.904459 39.893928 
L 222.513491 39.692804 
L 222.818007 39.759845 
L 223.731554 39.558722 
L 224.03607 39.625763 
L 224.645102 39.42464 
L 224.949618 39.558722 
L 225.863166 39.491681 
L 226.472197 39.089435 
L 227.081229 39.156476 
L 227.385745 39.156476 
L 227.690261 39.022393 
L 227.994777 39.156476 
L 228.299293 39.089435 
L 228.603809 39.156476 
L 228.908325 38.955352 
L 229.517356 39.022393 
L 229.821872 38.82127 
L 230.126388 38.888311 
L 230.430904 38.754229 
L 230.73542 38.955352 
L 231.039936 38.82127 
L 231.344452 38.955352 
L 231.648968 38.82127 
L 232.257999 38.955352 
L 232.562515 38.82127 
L 233.171547 38.82127 
L 234.085095 38.486065 
L 235.607674 38.083818 
L 235.91219 37.949736 
L 236.216706 38.016777 
L 236.825738 37.748613 
L 237.130254 38.150859 
L 237.739285 38.351983 
L 238.043801 37.949736 
L 238.957349 37.949736 
L 239.261865 37.815654 
L 240.175413 38.150859 
L 240.479929 38.083818 
L 240.784444 37.815654 
L 241.393476 37.882695 
L 242.307024 38.016777 
L 242.916056 38.083818 
L 243.220572 37.748613 
L 244.134119 37.748613 
L 244.438635 37.882695 
L 244.743151 37.681572 
L 245.352183 37.882695 
L 245.961215 37.54749 
L 247.483794 37.614531 
L 247.78831 37.815654 
L 249.310889 37.54749 
L 250.224437 37.480448 
L 251.442501 37.212284 
L 252.356048 37.413407 
L 252.96508 37.212284 
L 253.269596 37.346366 
L 253.574112 37.145243 
L 253.878628 37.480448 
L 255.096691 37.145243 
L 255.401207 37.011161 
L 256.010239 37.212284 
L 256.314755 37.212284 
L 256.923787 36.877079 
L 257.228303 36.94412 
L 257.837334 36.742996 
L 258.14185 36.742996 
L 258.750882 36.541873 
L 259.055398 36.541873 
L 259.359914 36.407791 
L 259.66443 36.474832 
L 259.968946 36.675955 
L 260.882493 36.474832 
L 261.187009 36.608914 
L 261.796041 36.34075 
L 262.100557 36.541873 
L 262.709589 36.541873 
L 263.014105 36.34075 
L 264.8412 36.407791 
L 265.450232 36.474832 
L 266.059264 36.407791 
L 267.277327 36.675955 
L 267.581843 36.608914 
L 267.886359 36.675955 
L 268.190875 36.608914 
L 268.495391 36.742996 
L 268.799907 36.474832 
L 269.408938 36.407791 
L 270.322486 36.541873 
L 270.627002 36.474832 
L 270.931518 36.675955 
L 271.54055 36.34075 
L 272.454097 36.206668 
L 273.063129 35.804421 
L 274.281193 36.005544 
L 275.803772 36.005544 
L 276.108288 35.871462 
L 276.412804 35.938503 
L 277.021836 36.273709 
L 277.326352 36.273709 
L 277.935384 35.938503 
L 278.848931 36.474832 
L 279.457963 36.273709 
L 279.762479 36.139627 
L 280.066995 36.407791 
L 280.371511 36.407791 
L 280.980542 35.871462 
L 281.589574 35.804421 
L 281.89409 35.871462 
L 282.198606 35.603298 
L 282.503122 35.603298 
L 282.807638 35.469216 
L 283.721186 35.804421 
L 284.025701 35.670339 
L 284.330217 35.73738 
L 284.939249 35.469216 
L 285.243765 35.603298 
L 285.548281 35.536257 
L 286.157313 35.603298 
L 286.461829 35.402175 
L 286.766344 35.603298 
L 287.07086 35.670339 
L 287.375376 35.402175 
L 287.679892 35.536257 
L 288.288924 35.335134 
L 289.506987 34.999928 
L 289.811503 35.201051 
L 290.116019 35.13401 
L 290.420535 35.335134 
L 290.725051 35.13401 
L 291.638599 34.999928 
L 292.247631 34.999928 
L 292.552146 34.731764 
L 292.856662 34.798805 
L 293.465694 34.463599 
L 293.77021 34.664723 
L 294.074726 34.463599 
L 294.379242 34.463599 
L 294.683758 34.664723 
L 295.901821 34.731764 
L 296.206337 34.932887 
L 296.815369 35.066969 
L 297.424401 34.932887 
L 298.033433 35.066969 
L 298.642464 34.798805 
L 298.94698 34.798805 
L 300.165044 34.329517 
L 300.46956 34.396558 
L 300.774076 34.329517 
L 301.078591 34.396558 
L 301.383107 34.329517 
L 302.296655 34.463599 
L 302.601171 34.329517 
L 302.905687 34.329517 
L 303.210203 34.530641 
L 304.428266 34.597682 
L 304.732782 34.798805 
L 305.64633 34.597682 
L 305.950846 34.329517 
L 306.255362 34.262476 
L 306.864393 34.463599 
L 307.168909 34.463599 
L 307.777941 34.664723 
L 308.082457 34.597682 
L 308.386973 34.731764 
L 309.300521 34.463599 
L 309.605037 34.262476 
L 309.909552 34.463599 
L 310.214068 34.463599 
L 310.518584 34.262476 
L 310.8231 34.396558 
L 311.127616 34.195435 
L 311.432132 34.195435 
L 312.34568 33.86023 
L 312.954711 33.793189 
L 313.259227 33.726148 
L 313.563743 33.793189 
L 313.868259 33.726148 
L 315.086323 33.927271 
L 315.99987 33.659106 
L 316.304386 33.86023 
L 316.608902 33.659106 
L 316.913418 33.927271 
L 317.217934 33.726148 
L 318.131482 34.061353 
L 318.435997 33.86023 
L 319.045029 33.86023 
L 319.349545 33.726148 
L 320.567609 33.659106 
L 321.176641 33.592065 
L 322.394704 33.592065 
L 322.69922 33.390942 
L 323.308252 33.457983 
L 323.612768 33.390942 
L 323.917284 33.457983 
L 324.830831 33.189819 
L 325.135347 33.323901 
L 325.439863 33.189819 
L 325.744379 33.25686 
L 326.353411 32.921654 
L 327.266958 32.854613 
L 327.87599 32.65349 
L 328.180506 32.519408 
L 328.485022 32.787572 
L 328.789538 32.720531 
L 329.39857 32.787572 
L 329.703086 32.65349 
L 330.007601 32.720531 
L 330.312117 32.519408 
L 330.616633 32.519408 
L 330.921149 32.65349 
L 331.834697 32.519408 
L 332.139213 32.65349 
L 332.443729 32.586449 
L 332.748244 32.318285 
L 333.05276 32.385326 
L 333.357276 32.184202 
L 333.661792 32.385326 
L 335.184372 32.117161 
L 335.793403 32.184202 
L 336.097919 32.452367 
L 336.402435 32.251244 
L 336.706951 32.318285 
L 337.315983 32.117161 
L 337.925015 32.05012 
L 338.229531 31.983079 
L 338.534046 32.117161 
L 340.056626 32.05012 
L 340.361142 31.916038 
L 340.970174 31.983079 
L 341.27469 31.983079 
L 341.579205 31.848997 
L 341.883721 31.916038 
L 342.492753 31.714915 
L 342.797269 31.848997 
L 343.101785 31.714915 
L 343.406301 31.916038 
L 343.710817 31.714915 
L 344.015333 31.647874 
L 344.319848 31.446751 
L 346.146944 31.446751 
L 346.45146 31.647874 
L 347.060492 31.312668 
L 347.669523 31.580833 
L 347.974039 31.580833 
L 348.278555 31.446751 
L 348.583071 31.580833 
L 348.887587 31.379709 
L 349.496619 31.446751 
L 350.10565 31.245627 
L 350.410166 31.111545 
L 350.714682 31.178586 
L 351.019198 31.044504 
L 351.323714 30.77634 
L 351.932746 31.044504 
L 352.237262 31.044504 
L 352.541778 31.312668 
L 352.846294 31.245627 
L 353.455325 31.379709 
L 354.064357 31.245627 
L 354.673389 31.379709 
L 355.282421 31.111545 
L 355.586937 31.245627 
L 357.109516 31.245627 
L 357.414032 31.044504 
L 357.718548 31.111545 
L 358.023064 30.843381 
L 359.850159 30.77634 
L 360.154675 30.709299 
L 361.068223 30.843381 
L 361.372739 30.709299 
L 361.98177 30.910422 
L 362.286286 30.977463 
L 362.590802 30.77634 
L 363.50435 30.642257 
L 363.808866 30.709299 
L 364.417897 30.642257 
L 364.722413 30.709299 
L 365.026929 30.307052 
L 365.331445 30.17297 
L 366.244993 30.307052 
L 366.549509 30.17297 
L 366.854025 30.307052 
L 367.158541 30.307052 
L 367.767572 30.038888 
L 369.290152 30.105929 
L 369.594668 30.240011 
L 370.203699 30.307052 
L 370.508215 30.374093 
L 370.812731 30.105929 
L 371.421763 30.17297 
L 371.726279 30.038888 
L 372.030795 30.038888 
L 372.335311 29.904806 
L 372.944343 29.971847 
L 373.248858 29.971847 
L 373.85789 29.703682 
L 374.162406 29.703682 
L 374.466922 29.502559 
L 375.075954 29.435518 
L 375.38047 29.5696 
L 377.207565 29.234395 
L 377.816597 29.301436 
L 378.425629 29.435518 
L 379.03466 29.770723 
L 379.339176 29.904806 
L 379.948208 29.837764 
L 380.252724 29.703682 
L 380.861756 29.703682 
L 381.166272 29.837764 
L 381.775303 29.636641 
L 382.079819 29.770723 
L 382.384335 29.636641 
L 382.993367 29.703682 
L 383.602399 29.636641 
L 383.906915 29.703682 
L 384.211431 29.5696 
L 385.124978 29.5696 
L 385.429494 29.703682 
L 385.73401 29.636641 
L 386.038526 29.301436 
L 387.25659 29.234395 
L 387.865621 29.167354 
L 388.474653 29.234395 
L 388.779169 29.033271 
L 389.997233 28.832148 
L 390.301749 28.899189 
L 390.606264 28.698066 
L 390.91078 28.832148 
L 391.215296 28.832148 
L 391.519812 28.698066 
L 391.824328 28.765107 
L 392.128844 28.698066 
L 392.737876 28.832148 
L 393.042392 28.631025 
L 393.346907 28.765107 
L 393.651423 28.765107 
L 393.955939 28.96623 
L 394.564971 28.832148 
L 395.174003 28.899189 
L 395.783035 28.765107 
L 396.087551 28.563984 
L 396.392066 28.698066 
L 396.696582 28.698066 
L 397.001098 28.832148 
L 397.305614 28.765107 
L 397.61013 28.899189 
L 398.523678 28.698066 
L 399.437225 28.832148 
L 399.741741 28.698066 
L 400.046257 28.832148 
L 400.655289 28.765107 
L 401.873353 28.698066 
L 402.177868 28.631025 
L 402.7869 28.698066 
L 403.395932 28.563984 
L 403.700448 28.631025 
L 404.004964 28.563984 
L 404.918511 28.698066 
L 406.136575 28.765107 
L 406.441091 28.563984 
L 406.745607 28.698066 
L 407.050123 28.698066 
L 407.354639 28.832148 
L 408.268186 28.832148 
L 408.877218 28.496943 
L 409.790766 28.36286 
L 410.095282 28.563984 
L 411.008829 28.496943 
L 411.617861 28.36286 
L 411.922377 28.563984 
L 412.531409 28.698066 
L 413.444956 28.36286 
L 414.053988 28.429902 
L 414.66302 28.295819 
L 414.967536 28.496943 
L 415.272052 28.563984 
L 415.576568 28.36286 
L 416.1856 28.496943 
L 416.490115 28.36286 
L 416.794631 28.027655 
L 417.099147 27.960614 
L 417.403663 28.094696 
L 418.012695 28.027655 
L 418.317211 28.228778 
L 419.83979 28.161737 
L 420.144306 28.094696 
L 420.448822 27.893573 
L 421.057854 27.960614 
L 421.36237 28.228778 
L 421.666886 28.295819 
L 421.971402 28.027655 
L 422.884949 27.893573 
L 423.189465 28.094696 
L 423.493981 28.027655 
L 424.712045 28.228778 
L 425.321076 28.295819 
L 425.625592 28.429902 
L 425.930108 28.295819 
L 426.234624 28.295819 
L 426.53914 28.161737 
L 428.061719 28.228778 
L 428.366235 27.826532 
L 428.670751 28.094696 
L 429.279783 27.960614 
L 429.584299 28.094696 
L 432.629458 28.094696 
L 432.933974 28.228778 
L 433.23849 28.027655 
L 434.152037 28.161737 
L 434.456553 28.027655 
L 434.761069 28.027655 
L 435.370101 27.826532 
L 435.674617 27.960614 
L 437.197196 27.960614 
L 437.501712 27.759491 
L 437.806228 27.69245 
L 438.110744 27.759491 
L 438.41526 27.69245 
L 438.719776 27.826532 
L 439.328808 27.826532 
L 439.633323 27.69245 
L 439.937839 27.826532 
L 440.242355 27.625409 
L 440.546871 27.625409 
L 440.851387 27.759491 
L 441.460419 27.625409 
L 442.373966 27.893573 
L 442.678482 28.027655 
L 442.982998 27.826532 
L 443.287514 27.893573 
L 443.59203 27.759491 
L 444.201062 27.826532 
L 444.505578 27.759491 
L 444.810094 27.826532 
L 446.028157 27.625409 
L 446.332673 27.625409 
L 446.637189 27.759491 
L 448.464284 27.759491 
L 448.7688 27.558367 
L 449.377832 27.625409 
L 449.986864 27.558367 
L 450.29138 27.491326 
L 450.595896 27.69245 
L 451.509443 27.625409 
L 451.813959 27.491326 
L 452.727507 27.424285 
L 453.032023 27.625409 
L 453.641055 27.424285 
L 453.94557 27.625409 
L 454.554602 27.69245 
L 454.859118 27.759491 
L 455.163634 27.625409 
L 455.772666 27.69245 
L 456.077182 27.491326 
L 456.381698 27.491326 
L 457.295245 27.826532 
L 457.904277 27.69245 
L 458.208793 27.759491 
L 458.817825 27.625409 
L 460.035888 27.826532 
L 460.64492 27.826532 
L 460.949436 27.960614 
L 463.690079 27.893573 
L 463.994595 27.826532 
L 464.299111 27.893573 
L 464.908143 27.69245 
L 465.212659 27.893573 
L 465.82169 27.826532 
L 466.126206 27.893573 
L 466.430722 27.826532 
L 466.735238 27.893573 
L 467.039754 27.759491 
L 467.648786 27.826532 
L 468.866849 27.826532 
L 469.171365 27.69245 
L 472.216524 27.69245 
L 472.52104 27.424285 
L 472.825556 27.558367 
L 473.130072 27.424285 
L 473.434588 27.558367 
L 474.652651 27.491326 
L 475.870715 27.290203 
L 476.175231 27.424285 
L 476.479747 27.357244 
L 476.784263 27.625409 
L 478.002326 27.826532 
L 479.524906 27.491326 
L 480.133937 27.625409 
L 480.438453 27.424285 
L 481.047485 27.424285 
L 481.352001 27.290203 
L 482.570064 27.491326 
L 482.87458 27.357244 
L 483.179096 27.357244 
L 483.788128 27.558367 
L 484.092644 27.424285 
L 484.39716 27.491326 
L 484.701676 27.69245 
L 485.006192 27.69245 
L 485.310708 27.558367 
L 486.528771 27.558367 
L 486.833287 27.69245 
L 488.660382 27.625409 
L 489.269414 27.558367 
L 490.182962 27.69245 
L 491.09651 27.625409 
L 492.010057 27.491326 
L 493.532637 27.424285 
L 494.141668 27.223162 
L 494.446184 27.357244 
L 495.359732 27.156121 
L 495.664248 27.290203 
L 495.968764 27.223162 
L 496.27328 27.357244 
L 497.491343 27.290203 
L 498.404891 26.954998 
L 498.709407 27.022039 
L 499.013923 26.954998 
L 499.622955 27.08908 
L 500.231986 27.022039 
L 500.536502 27.022039 
L 500.841018 27.223162 
L 501.145534 27.156121 
L 501.754566 27.223162 
L 502.059082 27.022039 
L 502.668114 26.954998 
L 504.799725 26.887957 
L 505.408757 26.820915 
L 506.017788 26.753874 
L 506.322304 26.954998 
L 506.62682 26.820915 
L 507.540368 26.954998 
L 508.1494 26.820915 
L 508.453916 26.887957 
L 509.671979 26.418669 
L 509.976495 26.552751 
L 510.585527 26.351628 
L 510.890043 26.48571 
L 511.499074 26.48571 
L 511.80359 26.351628 
L 512.108106 26.418669 
L 512.412622 26.284587 
L 513.32617 26.284587 
L 513.630686 26.150505 
L 514.544233 26.418669 
L 514.848749 26.284587 
L 515.153265 26.351628 
L 515.762297 26.284587 
L 516.066813 26.351628 
L 516.371329 26.217546 
L 516.675845 26.351628 
L 517.284876 26.217546 
L 517.893908 26.284587 
L 518.50294 26.217546 
L 519.721004 26.217546 
L 520.025519 26.083464 
L 520.330035 26.217546 
L 521.243583 26.083464 
L 521.852615 26.217546 
L 522.461647 26.016422 
L 522.766163 26.016422 
L 523.070678 25.88234 
L 526.420353 25.949381 
L 526.724869 26.150505 
L 527.029385 26.150505 
L 527.333901 26.016422 
L 527.638417 26.083464 
L 528.247449 26.016422 
L 528.551965 26.217546 
L 529.160996 26.016422 
L 530.988092 26.083464 
L 531.292608 26.217546 
L 531.597123 26.083464 
L 532.206155 26.284587 
L 532.510671 26.150505 
L 532.815187 26.284587 
L 534.946798 26.217546 
L 535.251314 26.418669 
L 536.164862 26.351628 
L 536.773894 26.284587 
L 537.07841 26.351628 
L 537.382925 26.217546 
L 537.991957 26.150505 
L 538.600989 26.083464 
L 541.037116 26.083464 
L 541.341632 26.284587 
L 541.950664 26.217546 
L 543.168727 26.284587 
L 543.473243 26.016422 
L 543.777759 26.016422 
L 544.386791 26.217546 
L 545.300339 26.217546 
L 545.604855 26.083464 
L 546.213886 26.284587 
L 546.518402 26.083464 
L 546.822918 26.150505 
L 547.43195 25.949381 
L 549.563561 25.949381 
L 549.868077 26.083464 
L 551.695173 26.016422 
L 551.999688 25.815299 
L 553.217752 25.88234 
L 553.826784 25.949381 
L 554.1313 25.949381 
L 554.435816 26.150505 
L 554.740331 25.88234 
L 555.044847 25.949381 
L 555.349363 25.88234 
L 555.653879 25.949381 
L 556.262911 25.88234 
L 556.871943 25.949381 
L 557.176459 25.88234 
L 557.480974 25.949381 
L 558.699038 25.748258 
L 559.003554 25.815299 
L 559.612586 25.614176 
L 559.917102 25.614176 
L 560.526133 25.413053 
L 560.830649 25.346012 
L 561.135165 25.480094 
L 561.439681 25.27897 
L 562.048713 25.346012 
L 564.180324 24.943765 
L 564.789356 25.144888 
L 566.00742 25.413053 
L 566.311935 25.346012 
L 566.920967 25.480094 
L 567.225483 25.27897 
L 567.529999 25.413053 
L 567.834515 25.346012 
L 568.139031 25.480094 
L 569.052578 25.413053 
L 569.357094 25.27897 
L 569.66161 25.413053 
L 569.966126 25.346012 
L 570.270642 25.413053 
L 570.575158 25.27897 
L 571.18419 25.413053 
L 572.097737 25.211929 
L 572.402253 25.010806 
L 573.011285 25.077847 
L 573.315801 24.943765 
L 574.533865 25.010806 
L 574.83838 24.809683 
L 575.447412 24.876724 
L 575.751928 24.742642 
L 576.36096 24.809683 
L 576.665476 24.742642 
L 577.274508 25.144888 
L 577.579024 25.077847 
L 577.883539 25.144888 
L 578.188055 25.077847 
L 578.492571 25.27897 
L 578.797087 25.27897 
L 579.101603 25.077847 
L 579.710635 25.010806 
L 580.319667 25.077847 
L 580.624182 25.144888 
L 580.928698 25.077847 
L 581.53773 25.211929 
L 582.146762 25.144888 
L 585.191921 25.144888 
L 585.496437 25.010806 
L 588.541596 25.010806 
L 588.846112 24.742642 
L 589.759659 24.876724 
L 590.673207 24.876724 
L 590.977723 24.742642 
L 593.718366 24.809683 
L 594.327398 24.876724 
L 594.631914 24.742642 
L 594.936429 24.742642 
L 595.240945 24.943765 
L 595.849977 24.809683 
L 596.154493 24.876724 
L 596.459009 24.742642 
L 596.763525 24.876724 
L 598.895136 24.876724 
L 599.199652 25.010806 
L 599.504168 24.943765 
L 599.808684 25.144888 
L 600.1132 25.010806 
L 600.417716 25.010806 
L 600.722231 24.809683 
L 601.331263 25.010806 
L 601.940295 24.943765 
L 602.244811 24.876724 
L 602.549327 25.077847 
L 602.853843 25.144888 
L 603.462875 24.943765 
L 603.76739 24.809683 
L 604.071906 24.876724 
L 604.985454 24.742642 
L 606.812549 24.809683 
L 607.726097 24.943765 
L 608.944161 24.675601 
L 609.248677 24.742642 
L 609.553192 24.541518 
L 612.293835 24.474477 
L 612.598351 24.675601 
L 612.902867 24.60856 
L 613.816415 24.742642 
L 614.120931 24.742642 
L 614.425447 24.541518 
L 616.252542 24.60856 
L 616.861574 24.675601 
L 617.16609 24.60856 
L 617.470606 24.742642 
L 617.775122 24.675601 
L 618.079637 24.809683 
L 618.688669 24.809683 
L 618.993185 24.943765 
L 619.297701 24.876724 
L 619.906733 25.077847 
L 620.515765 24.943765 
L 620.820281 25.077847 
L 622.647376 25.077847 
L 622.951892 25.211929 
L 623.256408 25.077847 
L 623.865439 25.144888 
L 625.388019 24.809683 
L 625.692535 24.943765 
L 625.997051 24.943765 
L 626.301567 24.675601 
L 627.51963 24.675601 
L 627.824146 24.541518 
L 628.433178 24.675601 
L 628.737694 24.474477 
L 629.651241 24.60856 
L 629.955757 24.407436 
L 630.260273 24.474477 
L 630.564789 24.273354 
L 630.869305 24.407436 
L 631.173821 24.206313 
L 632.6964 24.541518 
L 633.305432 24.474477 
L 634.523496 24.541518 
L 634.828012 24.60856 
L 635.132528 24.541518 
L 635.437043 24.675601 
L 635.741559 24.675601 
L 636.350591 25.077847 
L 636.655107 24.943765 
L 636.959623 25.144888 
L 637.264139 24.809683 
L 637.568655 24.943765 
L 638.177686 24.809683 
L 639.39575 25.010806 
L 639.700266 24.876724 
L 640.004782 25.144888 
L 640.309298 24.943765 
L 640.613814 24.876724 
L 640.91833 24.675601 
L 641.527361 24.742642 
L 641.831877 24.876724 
L 642.440909 24.809683 
L 643.354457 24.675601 
L 644.268004 24.60856 
L 644.877036 24.474477 
L 645.486068 24.541518 
L 647.008647 24.474477 
L 647.313163 24.407436 
L 647.617679 24.206313 
L 649.140259 24.139272 
L 649.444775 24.072231 
L 650.358322 24.273354 
L 652.185418 23.804067 
L 652.489934 23.938149 
L 654.621545 23.871108 
L 654.926061 23.737025 
L 655.230577 23.871108 
L 655.535092 23.737025 
L 656.144124 23.804067 
L 657.666704 23.535902 
L 658.275736 23.602943 
L 659.798315 23.267738 
L 660.102831 23.066615 
L 660.407347 23.133656 
L 661.016379 23.066615 
L 663.452506 22.999573 
L 663.757022 22.79845 
L 664.670569 23.133656 
L 665.279601 23.133656 
L 665.584117 22.999573 
L 666.193149 23.066615 
L 666.802181 22.932532 
L 667.106696 22.999573 
L 667.715728 22.664368 
L 668.020244 22.597327 
L 668.32476 22.664368 
L 668.629276 22.597327 
L 668.933792 22.664368 
L 669.238308 22.463245 
L 669.542824 22.396204 
L 670.456371 22.530286 
L 671.065403 22.530286 
L 671.369919 22.329163 
L 672.283467 22.329163 
L 672.892498 22.128039 
L 674.110562 22.060998 
L 674.415078 21.993957 
L 675.02411 22.060998 
L 676.546689 21.725793 
L 677.155721 21.859875 
L 677.460237 21.725793 
L 678.069269 21.792834 
L 678.373785 21.658752 
L 679.896364 21.591711 
L 680.20088 21.323546 
L 680.809912 21.390587 
L 681.418943 21.390587 
L 681.723459 21.256505 
L 682.637007 21.323546 
L 683.550555 21.52467 
L 683.855071 21.390587 
L 684.159587 21.52467 
L 684.464102 21.52467 
L 684.768618 21.658752 
L 685.682166 21.323546 
L 685.986682 21.323546 
L 686.595714 21.52467 
L 686.90023 21.591711 
L 687.204745 21.323546 
L 687.509261 21.390587 
L 687.509261 21.390587 
" clip-path="url(#p7c86a3f772)" style="fill: none; stroke: #8dd3c7; stroke-width: 1.5; stroke-linecap: square"/>
   </g>
   <g id="patch_3">
    <path d="M 48.345625 259.396505 
L 48.345625 9.916505 
" style="fill: none; stroke: #ffffff; stroke-width: 0.8; stroke-linejoin: miter; stroke-linecap: square"/>
   </g>
   <g id="patch_4">
    <path d="M 717.945625 259.396505 
L 717.945625 9.916505 
" style="fill: none; stroke: #ffffff; stroke-width: 0.8; stroke-linejoin: miter; stroke-linecap: square"/>
   </g>
   <g id="patch_5">
    <path d="M 48.345625 259.396505 
L 717.945625 259.396505 
" style="fill: none; stroke: #ffffff; stroke-width: 0.8; stroke-linejoin: miter; stroke-linecap: square"/>
   </g>
   <g id="patch_6">
    <path d="M 48.345625 9.916505 
L 717.945625 9.916505 
" style="fill: none; stroke: #ffffff; stroke-width: 0.8; stroke-linejoin: miter; stroke-linecap: square"/>
   </g>
   <g id="legend_1">
    <g id="patch_7">
     <path d="M 513.625625 251.396505 
L 706.745625 251.396505 
Q 709.945625 251.396505 709.945625 248.196505 
L 709.945625 226.276505 
Q 709.945625 223.076505 706.745625 223.076505 
L 513.625625 223.076505 
Q 510.425625 223.076505 510.425625 226.276505 
L 510.425625 248.196505 
Q 510.425625 251.396505 513.625625 251.396505 
z
" style="opacity: 0.8; stroke: #cccccc; stroke-linejoin: miter"/>
    </g>
    <g id="line2d_19">
     <path d="M 516.825625 236.036505 
L 532.825625 236.036505 
L 548.825625 236.036505 
" style="fill: none; stroke: #8dd3c7; stroke-width: 1.5; stroke-linecap: square"/>
    </g>
    <g id="text_20">
     <!-- $\epsilon$-greedy ($\epsilon=0.1$) -->
     <g style="fill: #ffffff" transform="translate(561.625625 241.636505) scale(0.16 -0.16)">
      <defs>
       <path id="DejaVuSans-Oblique-3b5" d="M 1263 1888 
Q 925 1963 778 2166 
Q 669 2309 669 2503 
Q 669 3034 1175 3344 
Q 1575 3588 2188 3588 
Q 2425 3588 2684 3550 
Q 2944 3513 3234 3438 
L 3134 2916 
Q 2847 3006 2606 3047 
Q 2359 3088 2138 3088 
Q 1766 3088 1522 2944 
Q 1228 2772 1228 2522 
Q 1228 2356 1381 2241 
Q 1563 2103 1925 2103 
L 2409 2103 
L 2319 1628 
L 1856 1628 
Q 1425 1628 1172 1469 
Q 828 1253 828 916 
Q 828 703 1013 563 
Q 1244 388 1716 388 
Q 2006 388 2284 444 
Q 2563 503 2806 619 
L 2700 84 
Q 2403 -3 2131 -47 
Q 1859 -91 1609 -91 
Q 866 -91 516 194 
Q 250 413 250 781 
Q 250 1278 600 1584 
Q 859 1813 1263 1888 
z
" transform="scale(0.015625)"/>
       <path id="DejaVuSans-2d" d="M 313 2009 
L 1997 2009 
L 1997 1497 
L 313 1497 
L 313 2009 
z
" transform="scale(0.015625)"/>
       <path id="DejaVuSans-67" d="M 2906 1791 
Q 2906 2416 2648 2759 
Q 2391 3103 1925 3103 
Q 1463 3103 1205 2759 
Q 947 2416 947 1791 
Q 947 1169 1205 825 
Q 1463 481 1925 481 
Q 2391 481 2648 825 
Q 2906 1169 2906 1791 
z
M 3481 434 
Q 3481 -459 3084 -895 
Q 2688 -1331 1869 -1331 
Q 1566 -1331 1297 -1286 
Q 1028 -1241 775 -1147 
L 775 -588 
Q 1028 -725 1275 -790 
Q 1522 -856 1778 -856 
Q 2344 -856 2625 -561 
Q 2906 -266 2906 331 
L 2906 616 
Q 2728 306 2450 153 
Q 2172 0 1784 0 
Q 1141 0 747 490 
Q 353 981 353 1791 
Q 353 2603 747 3093 
Q 1141 3584 1784 3584 
Q 2172 3584 2450 3431 
Q 2728 3278 2906 2969 
L 2906 3500 
L 3481 3500 
L 3481 434 
z
" transform="scale(0.015625)"/>
       <path id="DejaVuSans-72" d="M 2631 2963 
Q 2534 3019 2420 3045 
Q 2306 3072 2169 3072 
Q 1681 3072 1420 2755 
Q 1159 2438 1159 1844 
L 1159 0 
L 581 0 
L 581 3500 
L 1159 3500 
L 1159 2956 
Q 1341 3275 1631 3429 
Q 1922 3584 2338 3584 
Q 2397 3584 2469 3576 
Q 2541 3569 2628 3553 
L 2631 2963 
z
" transform="scale(0.015625)"/>
       <path id="DejaVuSans-64" d="M 2906 2969 
L 2906 4863 
L 3481 4863 
L 3481 0 
L 2906 0 
L 2906 525 
Q 2725 213 2448 61 
Q 2172 -91 1784 -91 
Q 1150 -91 751 415 
Q 353 922 353 1747 
Q 353 2572 751 3078 
Q 1150 3584 1784 3584 
Q 2172 3584 2448 3432 
Q 2725 3281 2906 2969 
z
M 947 1747 
Q 947 1113 1208 752 
Q 1469 391 1925 391 
Q 2381 391 2643 752 
Q 2906 1113 2906 1747 
Q 2906 2381 2643 2742 
Q 2381 3103 1925 3103 
Q 1469 3103 1208 2742 
Q 947 2381 947 1747 
z
" transform="scale(0.015625)"/>
       <path id="DejaVuSans-79" d="M 2059 -325 
Q 1816 -950 1584 -1140 
Q 1353 -1331 966 -1331 
L 506 -1331 
L 506 -850 
L 844 -850 
Q 1081 -850 1212 -737 
Q 1344 -625 1503 -206 
L 1606 56 
L 191 3500 
L 800 3500 
L 1894 763 
L 2988 3500 
L 3597 3500 
L 2059 -325 
z
" transform="scale(0.015625)"/>
       <path id="DejaVuSans-28" d="M 1984 4856 
Q 1566 4138 1362 3434 
Q 1159 2731 1159 2009 
Q 1159 1288 1364 580 
Q 1569 -128 1984 -844 
L 1484 -844 
Q 1016 -109 783 600 
Q 550 1309 550 2009 
Q 550 2706 781 3412 
Q 1013 4119 1484 4856 
L 1984 4856 
z
" transform="scale(0.015625)"/>
       <path id="DejaVuSans-3d" d="M 678 2906 
L 4684 2906 
L 4684 2381 
L 678 2381 
L 678 2906 
z
M 678 1631 
L 4684 1631 
L 4684 1100 
L 678 1100 
L 678 1631 
z
" transform="scale(0.015625)"/>
       <path id="DejaVuSans-2e" d="M 684 794 
L 1344 794 
L 1344 0 
L 684 0 
L 684 794 
z
" transform="scale(0.015625)"/>
       <path id="DejaVuSans-29" d="M 513 4856 
L 1013 4856 
Q 1481 4119 1714 3412 
Q 1947 2706 1947 2009 
Q 1947 1309 1714 600 
Q 1481 -109 1013 -844 
L 513 -844 
Q 928 -128 1133 580 
Q 1338 1288 1338 2009 
Q 1338 2731 1133 3434 
Q 928 4138 513 4856 
z
" transform="scale(0.015625)"/>
      </defs>
      <use xlink:href="#DejaVuSans-Oblique-3b5" transform="translate(0 0.015625)"/>
      <use xlink:href="#DejaVuSans-2d" transform="translate(54.052734 0.015625)"/>
      <use xlink:href="#DejaVuSans-67" transform="translate(90.136719 0.015625)"/>
      <use xlink:href="#DejaVuSans-72" transform="translate(153.613281 0.015625)"/>
      <use xlink:href="#DejaVuSans-65" transform="translate(194.726562 0.015625)"/>
      <use xlink:href="#DejaVuSans-65" transform="translate(256.25 0.015625)"/>
      <use xlink:href="#DejaVuSans-64" transform="translate(317.773438 0.015625)"/>
      <use xlink:href="#DejaVuSans-79" transform="translate(381.25 0.015625)"/>
      <use xlink:href="#DejaVuSans-20" transform="translate(440.429688 0.015625)"/>
      <use xlink:href="#DejaVuSans-28" transform="translate(472.216797 0.015625)"/>
      <use xlink:href="#DejaVuSans-Oblique-3b5" transform="translate(511.230469 0.015625)"/>
      <use xlink:href="#DejaVuSans-3d" transform="translate(584.765625 0.015625)"/>
      <use xlink:href="#DejaVuSans-30" transform="translate(688.037109 0.015625)"/>
      <use xlink:href="#DejaVuSans-2e" transform="translate(751.660156 0.015625)"/>
      <use xlink:href="#DejaVuSans-31" transform="translate(783.447266 0.015625)"/>
      <use xlink:href="#DejaVuSans-29" transform="translate(847.070312 0.015625)"/>
     </g>
    </g>
   </g>
  </g>
 </g>
 <defs>
  <clipPath id="p7c86a3f772">
   <rect x="48.345625" y="9.916505" width="669.6" height="249.48"/>
  </clipPath>
 </defs>
</svg>
