<?xml version="1.0" encoding="utf-8" standalone="no"?>
<!DOCTYPE svg PUBLIC "-//W3C//DTD SVG 1.1//EN"
  "http://www.w3.org/Graphics/SVG/1.1/DTD/svg11.dtd">
<svg xmlns:xlink="http://www.w3.org/1999/xlink" width="730.235625pt" height="389.01pt" viewBox="0 0 730.235625 389.01" xmlns="http://www.w3.org/2000/svg" version="1.1">
 <metadata>
  <rdf:RDF xmlns:dc="http://purl.org/dc/elements/1.1/" xmlns:cc="http://creativecommons.org/ns#" xmlns:rdf="http://www.w3.org/1999/02/22-rdf-syntax-ns#">
   <cc:Work>
    <dc:type rdf:resource="http://purl.org/dc/dcmitype/StillImage"/>
    <dc:date>2026-03-10T23:05:38.908623</dc:date>
    <dc:format>image/svg+xml</dc:format>
    <dc:creator>
     <cc:Agent>
      <dc:title>Matplotlib v3.10.8, https://matplotlib.org/</dc:title>
     </cc:Agent>
    </dc:creator>
   </cc:Work>
  </rdf:RDF>
 </metadata>
 <defs>
  <style type="text/css">*{stroke-linejoin: round; stroke-linecap: butt}</style>
 </defs>
 <g id="figure_1">
  <g id="patch_1">
   <path d="M 0 389.01 
L 730.235625 389.01 
L 730.235625 0 
L 0 0 
L 0 389.01 
z
" style="fill: none"/>
  </g>
  <g id="axes_1">
   <g id="patch_2">
    <path d="M 53.435625 339.84 
L 723.035625 339.84 
L 723.035625 7.2 
L 53.435625 7.2 
L 53.435625 339.84 
z
" style="fill: none"/>
   </g>
   <g id="matplotlib.axis_1">
    <g id="xtick_1">
     <g id="line2d_1">
      <defs>
       <path id="m6104cd1d85" d="M 0 0 
L 0 3.5 
" style="stroke: #ffffff; stroke-width: 0.8"/>
      </defs>
      <g>
       <use xlink:href="#m6104cd1d85" x="83.871989" y="339.84" style="fill: #ffffff; stroke: #ffffff; stroke-width: 0.8"/>
      </g>
     </g>
     <g id="text_1">
      <!-- 0 -->
      <g style="fill: #ffffff" transform="translate(79.418239 357.477813) scale(0.14 -0.14)">
       <defs>
        <path id="DejaVuSans-30" d="M 2034 4250 
Q 1547 4250 1301 3770 
Q 1056 3291 1056 2328 
Q 1056 1369 1301 889 
Q 1547 409 2034 409 
Q 2525 409 2770 889 
Q 3016 1369 3016 2328 
Q 3016 3291 2770 3770 
Q 2525 4250 2034 4250 
z
M 2034 4750 
Q 2819 4750 3233 4129 
Q 3647 3509 3647 2328 
Q 3647 1150 3233 529 
Q 2819 -91 2034 -91 
Q 1250 -91 836 529 
Q 422 1150 422 2328 
Q 422 3509 836 4129 
Q 1250 4750 2034 4750 
z
" transform="scale(0.015625)"/>
       </defs>
       <use xlink:href="#DejaVuSans-30"/>
      </g>
     </g>
    </g>
    <g id="xtick_2">
     <g id="line2d_2">
      <g>
       <use xlink:href="#m6104cd1d85" x="205.739311" y="339.84" style="fill: #ffffff; stroke: #ffffff; stroke-width: 0.8"/>
      </g>
     </g>
     <g id="text_2">
      <!-- 200 -->
      <g style="fill: #ffffff" transform="translate(192.378061 357.477813) scale(0.14 -0.14)">
       <defs>
        <path id="DejaVuSans-32" d="M 1228 531 
L 3431 531 
L 3431 0 
L 469 0 
L 469 531 
Q 828 903 1448 1529 
Q 2069 2156 2228 2338 
Q 2531 2678 2651 2914 
Q 2772 3150 2772 3378 
Q 2772 3750 2511 3984 
Q 2250 4219 1831 4219 
Q 1534 4219 1204 4116 
Q 875 4013 500 3803 
L 500 4441 
Q 881 4594 1212 4672 
Q 1544 4750 1819 4750 
Q 2544 4750 2975 4387 
Q 3406 4025 3406 3419 
Q 3406 3131 3298 2873 
Q 3191 2616 2906 2266 
Q 2828 2175 2409 1742 
Q 1991 1309 1228 531 
z
" transform="scale(0.015625)"/>
       </defs>
       <use xlink:href="#DejaVuSans-32"/>
       <use xlink:href="#DejaVuSans-30" transform="translate(63.623047 0)"/>
       <use xlink:href="#DejaVuSans-30" transform="translate(127.246094 0)"/>
      </g>
     </g>
    </g>
    <g id="xtick_3">
     <g id="line2d_3">
      <g>
       <use xlink:href="#m6104cd1d85" x="327.606632" y="339.84" style="fill: #ffffff; stroke: #ffffff; stroke-width: 0.8"/>
      </g>
     </g>
     <g id="text_3">
      <!-- 400 -->
      <g style="fill: #ffffff" transform="translate(314.245382 357.477813) scale(0.14 -0.14)">
       <defs>
        <path id="DejaVuSans-34" d="M 2419 4116 
L 825 1625 
L 2419 1625 
L 2419 4116 
z
M 2253 4666 
L 3047 4666 
L 3047 1625 
L 3713 1625 
L 3713 1100 
L 3047 1100 
L 3047 0 
L 2419 0 
L 2419 1100 
L 313 1100 
L 313 1709 
L 2253 4666 
z
" transform="scale(0.015625)"/>
       </defs>
       <use xlink:href="#DejaVuSans-34"/>
       <use xlink:href="#DejaVuSans-30" transform="translate(63.623047 0)"/>
       <use xlink:href="#DejaVuSans-30" transform="translate(127.246094 0)"/>
      </g>
     </g>
    </g>
    <g id="xtick_4">
     <g id="line2d_4">
      <g>
       <use xlink:href="#m6104cd1d85" x="449.473954" y="339.84" style="fill: #ffffff; stroke: #ffffff; stroke-width: 0.8"/>
      </g>
     </g>
     <g id="text_4">
      <!-- 600 -->
      <g style="fill: #ffffff" transform="translate(436.112704 357.477813) scale(0.14 -0.14)">
       <defs>
        <path id="DejaVuSans-36" d="M 2113 2584 
Q 1688 2584 1439 2293 
Q 1191 2003 1191 1497 
Q 1191 994 1439 701 
Q 1688 409 2113 409 
Q 2538 409 2786 701 
Q 3034 994 3034 1497 
Q 3034 2003 2786 2293 
Q 2538 2584 2113 2584 
z
M 3366 4563 
L 3366 3988 
Q 3128 4100 2886 4159 
Q 2644 4219 2406 4219 
Q 1781 4219 1451 3797 
Q 1122 3375 1075 2522 
Q 1259 2794 1537 2939 
Q 1816 3084 2150 3084 
Q 2853 3084 3261 2657 
Q 3669 2231 3669 1497 
Q 3669 778 3244 343 
Q 2819 -91 2113 -91 
Q 1303 -91 875 529 
Q 447 1150 447 2328 
Q 447 3434 972 4092 
Q 1497 4750 2381 4750 
Q 2619 4750 2861 4703 
Q 3103 4656 3366 4563 
z
" transform="scale(0.015625)"/>
       </defs>
       <use xlink:href="#DejaVuSans-36"/>
       <use xlink:href="#DejaVuSans-30" transform="translate(63.623047 0)"/>
       <use xlink:href="#DejaVuSans-30" transform="translate(127.246094 0)"/>
      </g>
     </g>
    </g>
    <g id="xtick_5">
     <g id="line2d_5">
      <g>
       <use xlink:href="#m6104cd1d85" x="571.341276" y="339.84" style="fill: #ffffff; stroke: #ffffff; stroke-width: 0.8"/>
      </g>
     </g>
     <g id="text_5">
      <!-- 800 -->
      <g style="fill: #ffffff" transform="translate(557.980026 357.477813) scale(0.14 -0.14)">
       <defs>
        <path id="DejaVuSans-38" d="M 2034 2216 
Q 1584 2216 1326 1975 
Q 1069 1734 1069 1313 
Q 1069 891 1326 650 
Q 1584 409 2034 409 
Q 2484 409 2743 651 
Q 3003 894 3003 1313 
Q 3003 1734 2745 1975 
Q 2488 2216 2034 2216 
z
M 1403 2484 
Q 997 2584 770 2862 
Q 544 3141 544 3541 
Q 544 4100 942 4425 
Q 1341 4750 2034 4750 
Q 2731 4750 3128 4425 
Q 3525 4100 3525 3541 
Q 3525 3141 3298 2862 
Q 3072 2584 2669 2484 
Q 3125 2378 3379 2068 
Q 3634 1759 3634 1313 
Q 3634 634 3220 271 
Q 2806 -91 2034 -91 
Q 1263 -91 848 271 
Q 434 634 434 1313 
Q 434 1759 690 2068 
Q 947 2378 1403 2484 
z
M 1172 3481 
Q 1172 3119 1398 2916 
Q 1625 2713 2034 2713 
Q 2441 2713 2670 2916 
Q 2900 3119 2900 3481 
Q 2900 3844 2670 4047 
Q 2441 4250 2034 4250 
Q 1625 4250 1398 4047 
Q 1172 3844 1172 3481 
z
" transform="scale(0.015625)"/>
       </defs>
       <use xlink:href="#DejaVuSans-38"/>
       <use xlink:href="#DejaVuSans-30" transform="translate(63.623047 0)"/>
       <use xlink:href="#DejaVuSans-30" transform="translate(127.246094 0)"/>
      </g>
     </g>
    </g>
    <g id="xtick_6">
     <g id="line2d_6">
      <g>
       <use xlink:href="#m6104cd1d85" x="693.208598" y="339.84" style="fill: #ffffff; stroke: #ffffff; stroke-width: 0.8"/>
      </g>
     </g>
     <g id="text_6">
      <!-- 1000 -->
      <g style="fill: #ffffff" transform="translate(675.393598 357.477813) scale(0.14 -0.14)">
       <defs>
        <path id="DejaVuSans-31" d="M 794 531 
L 1825 531 
L 1825 4091 
L 703 3866 
L 703 4441 
L 1819 4666 
L 2450 4666 
L 2450 531 
L 3481 531 
L 3481 0 
L 794 0 
L 794 531 
z
" transform="scale(0.015625)"/>
       </defs>
       <use xlink:href="#DejaVuSans-31"/>
       <use xlink:href="#DejaVuSans-30" transform="translate(63.623047 0)"/>
       <use xlink:href="#DejaVuSans-30" transform="translate(127.246094 0)"/>
       <use xlink:href="#DejaVuSans-30" transform="translate(190.869141 0)"/>
      </g>
     </g>
    </g>
    <g id="text_7">
     <!-- Steps -->
     <g style="fill: #ffffff" transform="translate(363.053906 378.066563) scale(0.18 -0.18)">
      <defs>
       <path id="DejaVuSans-53" d="M 3425 4513 
L 3425 3897 
Q 3066 4069 2747 4153 
Q 2428 4238 2131 4238 
Q 1616 4238 1336 4038 
Q 1056 3838 1056 3469 
Q 1056 3159 1242 3001 
Q 1428 2844 1947 2747 
L 2328 2669 
Q 3034 2534 3370 2195 
Q 3706 1856 3706 1288 
Q 3706 609 3251 259 
Q 2797 -91 1919 -91 
Q 1588 -91 1214 -16 
Q 841 59 441 206 
L 441 856 
Q 825 641 1194 531 
Q 1563 422 1919 422 
Q 2459 422 2753 634 
Q 3047 847 3047 1241 
Q 3047 1584 2836 1778 
Q 2625 1972 2144 2069 
L 1759 2144 
Q 1053 2284 737 2584 
Q 422 2884 422 3419 
Q 422 4038 858 4394 
Q 1294 4750 2059 4750 
Q 2388 4750 2728 4690 
Q 3069 4631 3425 4513 
z
" transform="scale(0.015625)"/>
       <path id="DejaVuSans-74" d="M 1172 4494 
L 1172 3500 
L 2356 3500 
L 2356 3053 
L 1172 3053 
L 1172 1153 
Q 1172 725 1289 603 
Q 1406 481 1766 481 
L 2356 481 
L 2356 0 
L 1766 0 
Q 1100 0 847 248 
Q 594 497 594 1153 
L 594 3053 
L 172 3053 
L 172 3500 
L 594 3500 
L 594 4494 
L 1172 4494 
z
" transform="scale(0.015625)"/>
       <path id="DejaVuSans-65" d="M 3597 1894 
L 3597 1613 
L 953 1613 
Q 991 1019 1311 708 
Q 1631 397 2203 397 
Q 2534 397 2845 478 
Q 3156 559 3463 722 
L 3463 178 
Q 3153 47 2828 -22 
Q 2503 -91 2169 -91 
Q 1331 -91 842 396 
Q 353 884 353 1716 
Q 353 2575 817 3079 
Q 1281 3584 2069 3584 
Q 2775 3584 3186 3129 
Q 3597 2675 3597 1894 
z
M 3022 2063 
Q 3016 2534 2758 2815 
Q 2500 3097 2075 3097 
Q 1594 3097 1305 2825 
Q 1016 2553 972 2059 
L 3022 2063 
z
" transform="scale(0.015625)"/>
       <path id="DejaVuSans-70" d="M 1159 525 
L 1159 -1331 
L 581 -1331 
L 581 3500 
L 1159 3500 
L 1159 2969 
Q 1341 3281 1617 3432 
Q 1894 3584 2278 3584 
Q 2916 3584 3314 3078 
Q 3713 2572 3713 1747 
Q 3713 922 3314 415 
Q 2916 -91 2278 -91 
Q 1894 -91 1617 61 
Q 1341 213 1159 525 
z
M 3116 1747 
Q 3116 2381 2855 2742 
Q 2594 3103 2138 3103 
Q 1681 3103 1420 2742 
Q 1159 2381 1159 1747 
Q 1159 1113 1420 752 
Q 1681 391 2138 391 
Q 2594 391 2855 752 
Q 3116 1113 3116 1747 
z
" transform="scale(0.015625)"/>
       <path id="DejaVuSans-73" d="M 2834 3397 
L 2834 2853 
Q 2591 2978 2328 3040 
Q 2066 3103 1784 3103 
Q 1356 3103 1142 2972 
Q 928 2841 928 2578 
Q 928 2378 1081 2264 
Q 1234 2150 1697 2047 
L 1894 2003 
Q 2506 1872 2764 1633 
Q 3022 1394 3022 966 
Q 3022 478 2636 193 
Q 2250 -91 1575 -91 
Q 1294 -91 989 -36 
Q 684 19 347 128 
L 347 722 
Q 666 556 975 473 
Q 1284 391 1588 391 
Q 1994 391 2212 530 
Q 2431 669 2431 922 
Q 2431 1156 2273 1281 
Q 2116 1406 1581 1522 
L 1381 1569 
Q 847 1681 609 1914 
Q 372 2147 372 2553 
Q 372 3047 722 3315 
Q 1072 3584 1716 3584 
Q 2034 3584 2315 3537 
Q 2597 3491 2834 3397 
z
" transform="scale(0.015625)"/>
      </defs>
      <use xlink:href="#DejaVuSans-53"/>
      <use xlink:href="#DejaVuSans-74" transform="translate(63.476562 0)"/>
      <use xlink:href="#DejaVuSans-65" transform="translate(102.685547 0)"/>
      <use xlink:href="#DejaVuSans-70" transform="translate(164.208984 0)"/>
      <use xlink:href="#DejaVuSans-73" transform="translate(227.685547 0)"/>
     </g>
    </g>
   </g>
   <g id="matplotlib.axis_2">
    <g id="ytick_1">
     <g id="line2d_7">
      <defs>
       <path id="m85ecf7d62c" d="M 0 0 
L -3.5 0 
" style="stroke: #ffffff; stroke-width: 0.8"/>
      </defs>
      <g>
       <use xlink:href="#m85ecf7d62c" x="53.435625" y="324.78448" style="fill: #ffffff; stroke: #ffffff; stroke-width: 0.8"/>
      </g>
     </g>
     <g id="text_8">
      <!-- 10 -->
      <g style="fill: #ffffff" transform="translate(28.620625 330.103387) scale(0.14 -0.14)">
       <use xlink:href="#DejaVuSans-31"/>
       <use xlink:href="#DejaVuSans-30" transform="translate(63.623047 0)"/>
      </g>
     </g>
    </g>
    <g id="ytick_2">
     <g id="line2d_8">
      <g>
       <use xlink:href="#m85ecf7d62c" x="53.435625" y="283.715097" style="fill: #ffffff; stroke: #ffffff; stroke-width: 0.8"/>
      </g>
     </g>
     <g id="text_9">
      <!-- 20 -->
      <g style="fill: #ffffff" transform="translate(28.620625 289.034004) scale(0.14 -0.14)">
       <use xlink:href="#DejaVuSans-32"/>
       <use xlink:href="#DejaVuSans-30" transform="translate(63.623047 0)"/>
      </g>
     </g>
    </g>
    <g id="ytick_3">
     <g id="line2d_9">
      <g>
       <use xlink:href="#m85ecf7d62c" x="53.435625" y="242.645715" style="fill: #ffffff; stroke: #ffffff; stroke-width: 0.8"/>
      </g>
     </g>
     <g id="text_10">
      <!-- 30 -->
      <g style="fill: #ffffff" transform="translate(28.620625 247.964621) scale(0.14 -0.14)">
       <defs>
        <path id="DejaVuSans-33" d="M 2597 2516 
Q 3050 2419 3304 2112 
Q 3559 1806 3559 1356 
Q 3559 666 3084 287 
Q 2609 -91 1734 -91 
Q 1441 -91 1130 -33 
Q 819 25 488 141 
L 488 750 
Q 750 597 1062 519 
Q 1375 441 1716 441 
Q 2309 441 2620 675 
Q 2931 909 2931 1356 
Q 2931 1769 2642 2001 
Q 2353 2234 1838 2234 
L 1294 2234 
L 1294 2753 
L 1863 2753 
Q 2328 2753 2575 2939 
Q 2822 3125 2822 3475 
Q 2822 3834 2567 4026 
Q 2313 4219 1838 4219 
Q 1578 4219 1281 4162 
Q 984 4106 628 3988 
L 628 4550 
Q 988 4650 1302 4700 
Q 1616 4750 1894 4750 
Q 2613 4750 3031 4423 
Q 3450 4097 3450 3541 
Q 3450 3153 3228 2886 
Q 3006 2619 2597 2516 
z
" transform="scale(0.015625)"/>
       </defs>
       <use xlink:href="#DejaVuSans-33"/>
       <use xlink:href="#DejaVuSans-30" transform="translate(63.623047 0)"/>
      </g>
     </g>
    </g>
    <g id="ytick_4">
     <g id="line2d_10">
      <g>
       <use xlink:href="#m85ecf7d62c" x="53.435625" y="201.576332" style="fill: #ffffff; stroke: #ffffff; stroke-width: 0.8"/>
      </g>
     </g>
     <g id="text_11">
      <!-- 40 -->
      <g style="fill: #ffffff" transform="translate(28.620625 206.895238) scale(0.14 -0.14)">
       <use xlink:href="#DejaVuSans-34"/>
       <use xlink:href="#DejaVuSans-30" transform="translate(63.623047 0)"/>
      </g>
     </g>
    </g>
    <g id="ytick_5">
     <g id="line2d_11">
      <g>
       <use xlink:href="#m85ecf7d62c" x="53.435625" y="160.506949" style="fill: #ffffff; stroke: #ffffff; stroke-width: 0.8"/>
      </g>
     </g>
     <g id="text_12">
      <!-- 50 -->
      <g style="fill: #ffffff" transform="translate(28.620625 165.825855) scale(0.14 -0.14)">
       <defs>
        <path id="DejaVuSans-35" d="M 691 4666 
L 3169 4666 
L 3169 4134 
L 1269 4134 
L 1269 2991 
Q 1406 3038 1543 3061 
Q 1681 3084 1819 3084 
Q 2600 3084 3056 2656 
Q 3513 2228 3513 1497 
Q 3513 744 3044 326 
Q 2575 -91 1722 -91 
Q 1428 -91 1123 -41 
Q 819 9 494 109 
L 494 744 
Q 775 591 1075 516 
Q 1375 441 1709 441 
Q 2250 441 2565 725 
Q 2881 1009 2881 1497 
Q 2881 1984 2565 2268 
Q 2250 2553 1709 2553 
Q 1456 2553 1204 2497 
Q 953 2441 691 2322 
L 691 4666 
z
" transform="scale(0.015625)"/>
       </defs>
       <use xlink:href="#DejaVuSans-35"/>
       <use xlink:href="#DejaVuSans-30" transform="translate(63.623047 0)"/>
      </g>
     </g>
    </g>
    <g id="ytick_6">
     <g id="line2d_12">
      <g>
       <use xlink:href="#m85ecf7d62c" x="53.435625" y="119.437566" style="fill: #ffffff; stroke: #ffffff; stroke-width: 0.8"/>
      </g>
     </g>
     <g id="text_13">
      <!-- 60 -->
      <g style="fill: #ffffff" transform="translate(28.620625 124.756472) scale(0.14 -0.14)">
       <use xlink:href="#DejaVuSans-36"/>
       <use xlink:href="#DejaVuSans-30" transform="translate(63.623047 0)"/>
      </g>
     </g>
    </g>
    <g id="ytick_7">
     <g id="line2d_13">
      <g>
       <use xlink:href="#m85ecf7d62c" x="53.435625" y="78.368183" style="fill: #ffffff; stroke: #ffffff; stroke-width: 0.8"/>
      </g>
     </g>
     <g id="text_14">
      <!-- 70 -->
      <g style="fill: #ffffff" transform="translate(28.620625 83.687089) scale(0.14 -0.14)">
       <defs>
        <path id="DejaVuSans-37" d="M 525 4666 
L 3525 4666 
L 3525 4397 
L 1831 0 
L 1172 0 
L 2766 4134 
L 525 4134 
L 525 4666 
z
" transform="scale(0.015625)"/>
       </defs>
       <use xlink:href="#DejaVuSans-37"/>
       <use xlink:href="#DejaVuSans-30" transform="translate(63.623047 0)"/>
      </g>
     </g>
    </g>
    <g id="ytick_8">
     <g id="line2d_14">
      <g>
       <use xlink:href="#m85ecf7d62c" x="53.435625" y="37.2988" style="fill: #ffffff; stroke: #ffffff; stroke-width: 0.8"/>
      </g>
     </g>
     <g id="text_15">
      <!-- 80 -->
      <g style="fill: #ffffff" transform="translate(28.620625 42.617707) scale(0.14 -0.14)">
       <use xlink:href="#DejaVuSans-38"/>
       <use xlink:href="#DejaVuSans-30" transform="translate(63.623047 0)"/>
      </g>
     </g>
    </g>
    <g id="text_16">
     <!-- % Optimal action -->
     <g style="fill: #ffffff" transform="translate(20.877187 251.104219) rotate(-90) scale(0.18 -0.18)">
      <defs>
       <path id="DejaVuSans-25" d="M 4653 2053 
Q 4381 2053 4226 1822 
Q 4072 1591 4072 1178 
Q 4072 772 4226 539 
Q 4381 306 4653 306 
Q 4919 306 5073 539 
Q 5228 772 5228 1178 
Q 5228 1588 5073 1820 
Q 4919 2053 4653 2053 
z
M 4653 2450 
Q 5147 2450 5437 2106 
Q 5728 1763 5728 1178 
Q 5728 594 5436 251 
Q 5144 -91 4653 -91 
Q 4153 -91 3862 251 
Q 3572 594 3572 1178 
Q 3572 1766 3864 2108 
Q 4156 2450 4653 2450 
z
M 1428 4353 
Q 1159 4353 1004 4120 
Q 850 3888 850 3481 
Q 850 3069 1003 2837 
Q 1156 2606 1428 2606 
Q 1700 2606 1854 2837 
Q 2009 3069 2009 3481 
Q 2009 3884 1853 4118 
Q 1697 4353 1428 4353 
z
M 4250 4750 
L 4750 4750 
L 1831 -91 
L 1331 -91 
L 4250 4750 
z
M 1428 4750 
Q 1922 4750 2215 4408 
Q 2509 4066 2509 3481 
Q 2509 2891 2217 2550 
Q 1925 2209 1428 2209 
Q 931 2209 642 2551 
Q 353 2894 353 3481 
Q 353 4063 643 4406 
Q 934 4750 1428 4750 
z
" transform="scale(0.015625)"/>
       <path id="DejaVuSans-20" transform="scale(0.015625)"/>
       <path id="DejaVuSans-4f" d="M 2522 4238 
Q 1834 4238 1429 3725 
Q 1025 3213 1025 2328 
Q 1025 1447 1429 934 
Q 1834 422 2522 422 
Q 3209 422 3611 934 
Q 4013 1447 4013 2328 
Q 4013 3213 3611 3725 
Q 3209 4238 2522 4238 
z
M 2522 4750 
Q 3503 4750 4090 4092 
Q 4678 3434 4678 2328 
Q 4678 1225 4090 567 
Q 3503 -91 2522 -91 
Q 1538 -91 948 565 
Q 359 1222 359 2328 
Q 359 3434 948 4092 
Q 1538 4750 2522 4750 
z
" transform="scale(0.015625)"/>
       <path id="DejaVuSans-69" d="M 603 3500 
L 1178 3500 
L 1178 0 
L 603 0 
L 603 3500 
z
M 603 4863 
L 1178 4863 
L 1178 4134 
L 603 4134 
L 603 4863 
z
" transform="scale(0.015625)"/>
       <path id="DejaVuSans-6d" d="M 3328 2828 
Q 3544 3216 3844 3400 
Q 4144 3584 4550 3584 
Q 5097 3584 5394 3201 
Q 5691 2819 5691 2113 
L 5691 0 
L 5113 0 
L 5113 2094 
Q 5113 2597 4934 2840 
Q 4756 3084 4391 3084 
Q 3944 3084 3684 2787 
Q 3425 2491 3425 1978 
L 3425 0 
L 2847 0 
L 2847 2094 
Q 2847 2600 2669 2842 
Q 2491 3084 2119 3084 
Q 1678 3084 1418 2786 
Q 1159 2488 1159 1978 
L 1159 0 
L 581 0 
L 581 3500 
L 1159 3500 
L 1159 2956 
Q 1356 3278 1631 3431 
Q 1906 3584 2284 3584 
Q 2666 3584 2933 3390 
Q 3200 3197 3328 2828 
z
" transform="scale(0.015625)"/>
       <path id="DejaVuSans-61" d="M 2194 1759 
Q 1497 1759 1228 1600 
Q 959 1441 959 1056 
Q 959 750 1161 570 
Q 1363 391 1709 391 
Q 2188 391 2477 730 
Q 2766 1069 2766 1631 
L 2766 1759 
L 2194 1759 
z
M 3341 1997 
L 3341 0 
L 2766 0 
L 2766 531 
Q 2569 213 2275 61 
Q 1981 -91 1556 -91 
Q 1019 -91 701 211 
Q 384 513 384 1019 
Q 384 1609 779 1909 
Q 1175 2209 1959 2209 
L 2766 2209 
L 2766 2266 
Q 2766 2663 2505 2880 
Q 2244 3097 1772 3097 
Q 1472 3097 1187 3025 
Q 903 2953 641 2809 
L 641 3341 
Q 956 3463 1253 3523 
Q 1550 3584 1831 3584 
Q 2591 3584 2966 3190 
Q 3341 2797 3341 1997 
z
" transform="scale(0.015625)"/>
       <path id="DejaVuSans-6c" d="M 603 4863 
L 1178 4863 
L 1178 0 
L 603 0 
L 603 4863 
z
" transform="scale(0.015625)"/>
       <path id="DejaVuSans-63" d="M 3122 3366 
L 3122 2828 
Q 2878 2963 2633 3030 
Q 2388 3097 2138 3097 
Q 1578 3097 1268 2742 
Q 959 2388 959 1747 
Q 959 1106 1268 751 
Q 1578 397 2138 397 
Q 2388 397 2633 464 
Q 2878 531 3122 666 
L 3122 134 
Q 2881 22 2623 -34 
Q 2366 -91 2075 -91 
Q 1284 -91 818 406 
Q 353 903 353 1747 
Q 353 2603 823 3093 
Q 1294 3584 2113 3584 
Q 2378 3584 2631 3529 
Q 2884 3475 3122 3366 
z
" transform="scale(0.015625)"/>
       <path id="DejaVuSans-6f" d="M 1959 3097 
Q 1497 3097 1228 2736 
Q 959 2375 959 1747 
Q 959 1119 1226 758 
Q 1494 397 1959 397 
Q 2419 397 2687 759 
Q 2956 1122 2956 1747 
Q 2956 2369 2687 2733 
Q 2419 3097 1959 3097 
z
M 1959 3584 
Q 2709 3584 3137 3096 
Q 3566 2609 3566 1747 
Q 3566 888 3137 398 
Q 2709 -91 1959 -91 
Q 1206 -91 779 398 
Q 353 888 353 1747 
Q 353 2609 779 3096 
Q 1206 3584 1959 3584 
z
" transform="scale(0.015625)"/>
       <path id="DejaVuSans-6e" d="M 3513 2113 
L 3513 0 
L 2938 0 
L 2938 2094 
Q 2938 2591 2744 2837 
Q 2550 3084 2163 3084 
Q 1697 3084 1428 2787 
Q 1159 2491 1159 1978 
L 1159 0 
L 581 0 
L 581 3500 
L 1159 3500 
L 1159 2956 
Q 1366 3272 1645 3428 
Q 1925 3584 2291 3584 
Q 2894 3584 3203 3211 
Q 3513 2838 3513 2113 
z
" transform="scale(0.015625)"/>
      </defs>
      <use xlink:href="#DejaVuSans-25"/>
      <use xlink:href="#DejaVuSans-20" transform="translate(95.019531 0)"/>
      <use xlink:href="#DejaVuSans-4f" transform="translate(126.806641 0)"/>
      <use xlink:href="#DejaVuSans-70" transform="translate(205.517578 0)"/>
      <use xlink:href="#DejaVuSans-74" transform="translate(268.994141 0)"/>
      <use xlink:href="#DejaVuSans-69" transform="translate(308.203125 0)"/>
      <use xlink:href="#DejaVuSans-6d" transform="translate(335.986328 0)"/>
      <use xlink:href="#DejaVuSans-61" transform="translate(433.398438 0)"/>
      <use xlink:href="#DejaVuSans-6c" transform="translate(494.677734 0)"/>
      <use xlink:href="#DejaVuSans-20" transform="translate(522.460938 0)"/>
      <use xlink:href="#DejaVuSans-61" transform="translate(554.248047 0)"/>
      <use xlink:href="#DejaVuSans-63" transform="translate(615.527344 0)"/>
      <use xlink:href="#DejaVuSans-74" transform="translate(670.507812 0)"/>
      <use xlink:href="#DejaVuSans-69" transform="translate(709.716797 0)"/>
      <use xlink:href="#DejaVuSans-6f" transform="translate(737.5 0)"/>
      <use xlink:href="#DejaVuSans-6e" transform="translate(798.681641 0)"/>
     </g>
    </g>
   </g>
   <g id="line2d_15">
    <path d="M 83.871989 324.72 
L 84.481325 324.02634 
L 85.699998 322.323606 
L 89.965355 317.048243 
L 91.793365 313.930251 
L 93.621374 311.227067 
L 94.230711 309.887386 
L 94.840048 308.991249 
L 95.449384 307.735757 
L 96.058721 306.750911 
L 99.71474 298.577698 
L 100.324077 297.672114 
L 102.761424 291.374544 
L 103.37076 290.103033 
L 105.808107 283.511806 
L 106.417443 281.49119 
L 107.636116 278.05861 
L 108.85479 274.578803 
L 109.464126 272.960673 
L 113.120146 261.39512 
L 113.729482 259.77822 
L 114.948156 255.7411 
L 115.557492 253.612885 
L 116.166829 251.947927 
L 117.994839 245.704149 
L 118.604175 244.39322 
L 121.041522 235.895956 
L 121.650858 234.320542 
L 124.697541 224.574365 
L 125.916215 220.683032 
L 126.525551 218.555648 
L 127.134888 217.248823 
L 128.353561 213.007574 
L 128.962898 211.332363 
L 129.572234 209.170464 
L 130.181571 207.658703 
L 132.618917 200.503192 
L 133.228254 198.954474 
L 133.837591 196.930975 
L 135.056264 193.656097 
L 136.884274 188.54337 
L 137.49361 187.046806 
L 138.712283 183.498402 
L 139.930957 180.563586 
L 140.540293 178.823483 
L 141.14963 177.532262 
L 141.758967 175.758883 
L 142.368303 174.722701 
L 143.586976 171.494651 
L 144.196313 169.830108 
L 144.80565 168.56231 
L 146.024323 165.465656 
L 147.852333 161.665926 
L 148.461669 160.327079 
L 149.071006 158.557789 
L 150.289679 156.196296 
L 150.899016 154.667709 
L 152.117689 152.368649 
L 152.727025 150.923001 
L 153.336362 149.953764 
L 154.555035 147.146662 
L 155.164372 146.297761 
L 155.773709 144.985187 
L 156.383045 143.992136 
L 156.992382 142.583039 
L 158.820392 139.342674 
L 160.039065 137.040715 
L 160.648401 136.486693 
L 161.257738 135.031207 
L 165.523094 128.16727 
L 166.132431 127.076066 
L 166.741768 126.521637 
L 167.351104 125.289543 
L 167.960441 124.65421 
L 169.788451 121.869277 
L 170.397787 121.254891 
L 172.225797 118.049823 
L 172.835134 117.516747 
L 173.44447 116.785299 
L 174.053807 115.787328 
L 174.663143 115.232068 
L 176.491153 112.990082 
L 177.10049 112.360091 
L 178.319163 110.474992 
L 178.9285 110.127551 
L 179.537836 109.158721 
L 180.147173 108.633854 
L 181.365846 107.071177 
L 181.975183 106.422668 
L 182.584519 105.492033 
L 183.803193 104.519521 
L 184.412529 103.642686 
L 186.240539 101.798274 
L 186.849876 101.018353 
L 188.677885 99.380929 
L 189.896559 98.137336 
L 190.505895 97.742252 
L 191.115232 96.835023 
L 191.724568 96.586142 
L 192.333905 95.84075 
L 192.943242 95.470295 
L 194.771252 93.699391 
L 195.380588 93.408209 
L 195.989925 92.533849 
L 196.599261 92.324385 
L 197.208598 91.809388 
L 198.427271 90.418778 
L 199.645944 89.480749 
L 200.864618 88.787903 
L 201.473954 88.005946 
L 203.301964 86.829719 
L 203.911301 86.293761 
L 204.520637 85.923305 
L 205.129974 85.13107 
L 205.739311 84.9943 
L 208.176657 83.247648 
L 208.785994 83.067762 
L 210.004667 81.931361 
L 210.614003 81.674677 
L 212.442013 80.383457 
L 213.660686 79.649565 
L 214.270023 79.379314 
L 215.488696 78.556717 
L 216.707369 77.95831 
L 217.316706 77.423574 
L 217.926043 77.218245 
L 218.535379 76.673231 
L 219.144716 76.284321 
L 219.754053 76.030112 
L 220.363389 75.373802 
L 220.972726 74.970509 
L 221.582062 75.057585 
L 223.410072 73.889975 
L 224.019409 73.795504 
L 224.628745 73.363855 
L 225.238082 73.088716 
L 225.847419 72.633691 
L 227.675428 71.687421 
L 228.284765 71.272629 
L 228.894102 71.201189 
L 230.112775 70.619201 
L 231.331448 70.001932 
L 231.940785 69.852847 
L 232.550121 69.370312 
L 233.159458 69.257763 
L 233.768795 68.6947 
L 234.378131 68.762882 
L 235.596804 67.936149 
L 236.815478 67.588285 
L 237.424814 67.161586 
L 238.643487 66.782921 
L 240.471497 65.959478 
L 242.299507 65.23461 
L 242.908844 64.871142 
L 245.34619 63.926125 
L 246.564863 63.381957 
L 247.1742 63.329003 
L 247.783537 63.029988 
L 248.392873 62.960177 
L 249.00221 62.518689 
L 249.611546 62.498165 
L 250.220883 62.147419 
L 250.83022 62.086225 
L 251.439556 61.601183 
L 252.658229 61.310001 
L 253.267566 60.880419 
L 253.876903 61.006505 
L 255.095576 60.335437 
L 255.704912 60.297241 
L 256.923586 59.899682 
L 258.142259 59.661485 
L 258.751596 59.103343 
L 259.970269 58.973591 
L 260.579605 58.578069 
L 261.188942 58.591636 
L 261.798279 58.112359 
L 262.407615 58.19038 
L 263.016952 57.888952 
L 264.235625 57.721381 
L 264.844962 57.286034 
L 265.454298 57.199804 
L 267.282308 56.640001 
L 269.110318 56.226023 
L 270.328991 55.747968 
L 271.547664 55.384939 
L 272.157001 55.431751 
L 272.766338 55.034224 
L 273.375674 55.015737 
L 273.985011 54.66828 
L 275.813021 54.575878 
L 276.422357 53.941344 
L 277.031694 54.171332 
L 278.250367 53.586086 
L 278.859704 53.589376 
L 279.46904 53.298194 
L 284.95307 51.993845 
L 285.562406 52.047644 
L 286.171743 51.751512 
L 287.999753 51.383971 
L 288.609089 51.136718 
L 289.218426 51.249268 
L 289.827763 50.84021 
L 291.046436 50.661954 
L 291.655772 50.435664 
L 292.265109 50.508765 
L 294.093119 50.042209 
L 294.702455 50.002385 
L 295.311792 49.675451 
L 295.921129 49.771175 
L 296.530465 49.43481 
L 298.358475 49.100921 
L 298.967812 49.250413 
L 300.186485 48.634366 
L 301.405158 48.630669 
L 302.014495 48.516897 
L 302.623831 48.242165 
L 304.451841 48.04091 
L 305.061178 47.580121 
L 305.670514 47.778085 
L 306.889188 47.435548 
L 307.498524 47.613366 
L 308.107861 47.160378 
L 308.717197 47.198981 
L 309.326534 46.920552 
L 309.935871 46.892195 
L 311.763881 46.460169 
L 312.982554 46.500401 
L 314.201227 46.115971 
L 315.4199 45.934456 
L 316.638573 45.954165 
L 317.24791 45.680248 
L 317.857247 45.607962 
L 318.466583 45.407553 
L 319.685256 45.33157 
L 320.294593 45.161962 
L 321.513266 44.99768 
L 322.122603 44.689641 
L 326.997296 44.07115 
L 328.215969 43.811991 
L 328.825306 43.953274 
L 329.434642 43.731495 
L 330.043979 43.69001 
L 331.262652 43.418161 
L 331.871989 43.3319 
L 332.481325 43.124911 
L 333.090662 43.211141 
L 333.699998 43.10232 
L 334.309335 43.151576 
L 334.918672 42.929014 
L 336.137345 42.768838 
L 337.356018 42.488748 
L 337.965355 42.466157 
L 338.574691 42.200856 
L 339.793365 42.178234 
L 340.402701 42.189326 
L 342.230711 41.833252 
L 344.058721 41.759744 
L 344.668057 41.321546 
L 345.277394 41.393425 
L 345.886731 41.321138 
L 346.496067 41.42504 
L 347.105404 41.169171 
L 347.71474 41.130568 
L 348.324077 40.964658 
L 348.933414 41.128124 
L 349.54275 40.81927 
L 350.152087 40.938776 
L 350.761424 40.673883 
L 351.37076 40.634466 
L 351.980097 40.713739 
L 352.589433 40.413909 
L 353.19877 40.435686 
L 353.808107 40.249221 
L 358.073463 39.889889 
L 358.682799 39.72354 
L 359.292136 39.774864 
L 362.948156 39.279576 
L 363.557492 39.461091 
L 364.166829 39.238498 
L 364.776166 39.164175 
L 365.385502 38.945687 
L 367.822849 38.848365 
L 368.432185 38.651215 
L 369.650858 38.620007 
L 370.869532 38.350194 
L 372.088205 38.323467 
L 372.697541 38.329232 
L 373.916215 38.068851 
L 374.525551 38.097177 
L 375.134888 37.973974 
L 375.744225 38.017496 
L 376.962898 37.803958 
L 377.572234 37.822852 
L 378.790908 37.571903 
L 379.400244 37.603549 
L 380.009581 37.382179 
L 380.618917 37.482383 
L 381.228254 37.379296 
L 381.837591 37.162876 
L 382.446927 37.315219 
L 383.056264 37.283196 
L 384.884274 36.870033 
L 385.49361 36.907821 
L 389.14963 36.540249 
L 389.758967 36.575593 
L 390.368303 36.37556 
L 390.97764 36.478647 
L 391.586976 36.354598 
L 392.196313 36.367758 
L 392.80565 36.211279 
L 393.414986 36.257276 
L 394.633659 36.009648 
L 395.242996 36.119284 
L 395.852333 35.912295 
L 396.461669 35.950898 
L 397.071006 35.851508 
L 398.289679 35.819893 
L 398.899016 35.608799 
L 400.117689 35.663821 
L 401.336362 35.38865 
L 401.945699 35.388274 
L 402.555035 35.251097 
L 403.164372 35.382916 
L 404.992382 35.086001 
L 405.601718 35.241226 
L 406.211055 34.985765 
L 408.039065 35.06297 
L 408.648401 34.750451 
L 409.257738 34.894992 
L 409.867075 34.884338 
L 410.476411 34.652283 
L 411.695084 34.743056 
L 412.304421 34.453096 
L 412.913758 34.551671 
L 413.523094 34.49007 
L 414.132431 34.282266 
L 414.741768 34.392309 
L 422.053807 33.771782 
L 422.663143 33.903194 
L 428.147173 33.306041 
L 429.975183 33.254686 
L 431.193856 33.083041 
L 431.803193 33.146272 
L 432.412529 33.064554 
L 433.021866 33.152413 
L 433.631202 32.928191 
L 434.240539 32.911365 
L 434.849876 33.025951 
L 436.068549 32.724085 
L 437.896559 32.637855 
L 438.505895 32.573371 
L 439.115232 32.657125 
L 439.724568 32.620591 
L 440.333905 32.41686 
L 443.989925 32.267807 
L 445.208598 32.226729 
L 446.427271 32.091619 
L 447.036608 31.926931 
L 447.645944 31.987279 
L 448.255281 31.908036 
L 448.864618 31.956917 
L 449.473954 31.785648 
L 450.692627 31.824251 
L 452.520637 31.818924 
L 453.129974 31.624249 
L 453.739311 31.698572 
L 457.39533 31.272281 
L 458.004667 31.457085 
L 459.832677 31.184798 
L 460.442013 31.140868 
L 461.05135 31.222586 
L 462.270023 31.056268 
L 463.488696 31.027096 
L 464.098033 30.960544 
L 464.707369 31.045176 
L 466.535379 30.836119 
L 467.144716 30.963866 
L 467.754053 30.728927 
L 469.582062 30.734693 
L 470.191399 30.497718 
L 471.410072 30.54453 
L 473.238082 30.428314 
L 473.847419 30.468546 
L 474.456755 30.334658 
L 475.675428 30.282488 
L 476.284765 30.205721 
L 477.503438 30.209826 
L 478.112775 30.024583 
L 478.722111 30.216375 
L 479.940785 30.035267 
L 480.550121 30.043915 
L 481.159458 29.880041 
L 481.768795 29.980246 
L 484.206141 29.833198 
L 484.815478 29.940828 
L 486.643487 29.623765 
L 487.252824 29.70918 
L 487.862161 29.623358 
L 488.471497 29.681669 
L 489.080834 29.390049 
L 490.908844 29.605278 
L 491.51818 29.417184 
L 492.127517 29.481668 
L 493.34619 29.323528 
L 493.955527 29.382654 
L 495.783537 29.196627 
L 497.00221 29.237298 
L 497.611546 29.098084 
L 499.439556 29.152698 
L 500.658229 29.040994 
L 503.095576 28.82824 
L 503.704912 28.920642 
L 504.923586 28.811383 
L 507.970269 28.793742 
L 508.579605 28.472981 
L 509.798279 28.516096 
L 511.016952 28.487771 
L 512.235625 28.368265 
L 512.844962 28.451236 
L 514.063635 28.291059 
L 514.672971 28.371555 
L 515.282308 28.296386 
L 515.891645 28.364568 
L 517.110318 28.143635 
L 517.719654 28.220841 
L 518.328991 28.128846 
L 518.938328 28.185936 
L 519.547664 28.010938 
L 521.985011 28.102557 
L 522.594347 27.903778 
L 523.203684 27.853268 
L 524.422357 28.004797 
L 525.64103 27.718535 
L 526.250367 27.891057 
L 527.46904 27.702962 
L 531.12506 27.617108 
L 532.343733 27.485664 
L 533.562406 27.6282 
L 534.171743 27.463919 
L 534.78108 27.493059 
L 535.390416 27.383831 
L 535.999753 27.455302 
L 537.218426 27.309915 
L 539.655772 27.30744 
L 543.921129 26.991222 
L 545.139802 27.094309 
L 546.358475 26.915239 
L 547.577148 26.967409 
L 548.795822 26.852384 
L 549.405158 26.697158 
L 557.326534 26.528772 
L 559.763881 26.383385 
L 560.373217 26.500008 
L 563.4199 26.226906 
L 564.638573 26.351362 
L 565.857247 26.160792 
L 567.685256 26.1074 
L 568.294593 26.210048 
L 569.513266 26.023614 
L 570.122603 26.096308 
L 574.997296 25.831822 
L 576.825306 25.840439 
L 578.043979 25.701193 
L 578.653315 25.76198 
L 581.090662 25.614556 
L 582.309335 25.610044 
L 583.528008 25.490538 
L 584.137345 25.584977 
L 584.746682 25.453157 
L 585.356018 25.511093 
L 586.574691 25.327071 
L 587.793365 25.485587 
L 590.230711 25.280259 
L 590.840048 25.418659 
L 592.058721 25.196474 
L 592.668057 25.338571 
L 593.277394 25.227682 
L 593.886731 25.243724 
L 594.496067 25.131582 
L 595.71474 25.189925 
L 596.324077 25.062586 
L 598.152087 25.157056 
L 599.37076 24.997287 
L 599.980097 25.045321 
L 600.589433 24.905699 
L 601.19877 25.033822 
L 602.417443 24.859294 
L 606.682799 24.764824 
L 607.292136 24.663398 
L 607.901473 24.803427 
L 608.510809 24.659293 
L 615.822849 24.540602 
L 617.041522 24.393147 
L 619.478868 24.304034 
L 620.088205 24.233785 
L 620.697541 24.307732 
L 624.353561 24.176726 
L 626.181571 24.251049 
L 626.790908 24.060887 
L 631.056264 24.088836 
L 634.712283 23.881847 
L 639.586976 23.720449 
L 641.414986 23.638292 
L 642.024323 23.724146 
L 642.633659 23.595992 
L 643.852333 23.688019 
L 645.071006 23.685543 
L 646.289679 23.630898 
L 649.945699 23.478554 
L 650.555035 23.558204 
L 651.164372 23.421872 
L 654.211055 23.493751 
L 654.820392 23.277707 
L 660.913758 23.256745 
L 661.523094 22.975872 
L 662.132431 23.227605 
L 662.741768 23.166411 
L 663.351104 23.222278 
L 664.569777 23.060033 
L 667.61646 23.007487 
L 668.835134 22.931096 
L 670.053807 22.832521 
L 670.663143 22.972174 
L 672.491153 22.808708 
L 673.709826 22.846903 
L 677.365846 22.736422 
L 677.975183 22.795955 
L 681.021866 22.561048 
L 681.631202 22.651414 
L 683.459212 22.536827 
L 685.287222 22.607046 
L 687.724568 22.44195 
L 688.333905 22.530655 
L 689.552578 22.419766 
L 690.161915 22.452635 
L 691.380588 22.32 
L 692.599261 22.452227 
L 692.599261 22.452227 
" clip-path="url(#p921b388e44)" style="fill: none; stroke: #8dd3c7; stroke-width: 1.5; stroke-linecap: square"/>
   </g>
   <g id="line2d_16">
    <path d="M 83.871989 324.685506 
L 85.090662 322.947858 
L 88.137345 317.891395 
L 88.746682 316.283119 
L 89.356018 315.442016 
L 89.965355 313.968862 
L 90.574691 313.060814 
L 104.589433 283.67362 
L 108.245453 276.551362 
L 108.85479 275.611287 
L 110.682799 271.980759 
L 111.901473 270.012705 
L 112.510809 268.85332 
L 113.120146 268.036856 
L 114.338819 265.768596 
L 115.557492 263.996862 
L 116.166829 262.747542 
L 117.994839 260.179875 
L 119.213512 257.921063 
L 119.822849 257.300504 
L 121.041522 255.456075 
L 121.650858 254.699576 
L 122.869532 252.708946 
L 124.088205 251.446067 
L 124.697541 250.367585 
L 125.306878 249.757288 
L 127.134888 247.271778 
L 129.572234 244.363649 
L 130.181571 243.596058 
L 130.790908 243.09296 
L 132.618917 240.970902 
L 133.228254 240.573359 
L 135.056264 238.251707 
L 137.49361 236.000273 
L 138.102947 235.303331 
L 139.32162 234.350935 
L 139.930957 233.620302 
L 140.540293 233.246588 
L 141.14963 232.529098 
L 141.758967 232.167683 
L 142.368303 231.340558 
L 142.97764 230.980364 
L 143.586976 230.197999 
L 144.80565 229.254643 
L 146.633659 227.695224 
L 147.242996 227.299733 
L 147.852333 226.692726 
L 148.461669 226.539944 
L 149.071006 225.820826 
L 150.289679 224.904165 
L 150.899016 224.651587 
L 151.508352 223.976805 
L 153.945699 222.212873 
L 158.211055 219.535147 
L 158.820392 219.227954 
L 159.429728 218.655445 
L 161.867075 216.965444 
L 162.476411 216.884948 
L 163.085748 216.542834 
L 163.695084 215.956365 
L 165.523094 215.079123 
L 166.132431 214.61791 
L 166.741768 214.477458 
L 167.960441 213.7378 
L 169.179114 213.13449 
L 171.007124 212.226854 
L 171.61646 211.784536 
L 172.225797 211.589046 
L 172.835134 211.256379 
L 174.053807 210.777525 
L 174.663143 210.403373 
L 175.27248 210.219383 
L 175.881817 209.867007 
L 176.491153 209.726962 
L 177.709826 208.920768 
L 178.9285 208.344984 
L 180.147173 208.041473 
L 180.75651 207.575341 
L 182.584519 206.892757 
L 183.803193 206.336275 
L 186.849876 205.207691 
L 187.459212 204.883656 
L 188.068549 204.931706 
L 188.677885 204.468441 
L 190.505895 203.762044 
L 191.115232 203.686875 
L 192.333905 203.206784 
L 193.552578 202.736139 
L 194.771252 202.499979 
L 195.380588 202.158288 
L 195.989925 202.023993 
L 196.599261 201.671617 
L 200.864618 200.349188 
L 202.692627 199.793098 
L 203.911301 199.269046 
L 204.520637 199.306834 
L 205.739311 198.829203 
L 206.348647 198.740498 
L 208.176657 198.092412 
L 208.785994 197.992208 
L 209.39533 197.689934 
L 210.004667 197.568783 
L 210.614003 197.304297 
L 211.22334 197.416001 
L 211.832677 197.022563 
L 213.660686 196.600376 
L 216.098033 195.930937 
L 216.707369 195.970354 
L 217.316706 195.646319 
L 219.144716 195.243026 
L 219.754053 195.239329 
L 220.972726 194.907476 
L 222.800736 194.327588 
L 223.410072 194.331693 
L 225.847419 193.755486 
L 226.456755 193.716476 
L 227.675428 193.320155 
L 228.284765 193.293052 
L 228.894102 192.883993 
L 229.503438 192.879889 
L 231.331448 192.561196 
L 231.940785 192.569405 
L 232.550121 192.343523 
L 233.159458 192.257685 
L 234.378131 191.862194 
L 236.206141 191.700372 
L 236.815478 191.448201 
L 240.471497 190.741819 
L 241.080834 190.718006 
L 241.69017 190.384508 
L 243.51818 190.160286 
L 244.127517 189.983675 
L 245.34619 189.865407 
L 245.955527 189.660455 
L 247.783537 189.406654 
L 250.220883 189.002938 
L 250.83022 188.770083 
L 252.658229 188.568437 
L 254.486239 188.264111 
L 255.095576 187.959362 
L 256.314249 187.947048 
L 256.923586 187.782359 
L 257.532922 187.772097 
L 258.142259 187.584394 
L 259.360932 187.436563 
L 260.579605 187.176997 
L 262.407615 186.904709 
L 263.626288 186.844752 
L 264.235625 186.626656 
L 267.891645 186.283335 
L 269.110318 185.911642 
L 269.719654 185.975719 
L 270.328991 185.923972 
L 270.938328 185.742849 
L 271.547664 185.758046 
L 272.157001 185.500547 
L 272.766338 185.392118 
L 273.375674 185.455364 
L 277.031694 184.833991 
L 277.64103 184.786348 
L 278.250367 184.855344 
L 279.46904 184.594133 
L 281.906387 184.338703 
L 282.515723 184.209327 
L 283.12506 184.217944 
L 286.171743 183.669264 
L 286.78108 183.751404 
L 287.390416 183.562479 
L 287.999753 183.601082 
L 289.218426 183.322637 
L 289.827763 183.461868 
L 291.046436 183.182169 
L 291.655772 183.052402 
L 292.265109 183.103726 
L 292.874446 182.879896 
L 293.483782 182.807625 
L 294.702455 182.861425 
L 295.921129 182.647871 
L 296.530465 182.62774 
L 297.139802 182.477825 
L 297.749139 182.500432 
L 298.967812 182.272904 
L 299.577148 182.327534 
L 300.795822 182.027297 
L 302.623831 182.01868 
L 303.233168 181.843322 
L 305.670514 181.652345 
L 306.279851 181.558705 
L 306.889188 181.579228 
L 308.107861 181.291352 
L 308.717197 181.430159 
L 310.545207 181.032193 
L 311.763881 181.099137 
L 312.373217 180.918845 
L 314.810564 180.748406 
L 315.4199 180.639977 
L 316.029237 180.662161 
L 319.685256 180.145504 
L 320.294593 180.204238 
L 325.778623 179.70566 
L 326.387959 179.71058 
L 326.997296 179.524945 
L 327.606632 179.468685 
L 328.215969 179.53646 
L 331.871989 179.122874 
L 334.918672 178.885084 
L 336.137345 178.746277 
L 337.356018 178.705606 
L 339.184028 178.501907 
L 339.793365 178.56188 
L 342.840048 178.235777 
L 344.058721 178.161031 
L 344.668057 178.046867 
L 345.277394 178.061657 
L 346.496067 177.844798 
L 347.71474 177.889558 
L 348.324077 177.673545 
L 348.933414 177.749936 
L 350.152087 177.556499 
L 352.589433 177.457109 
L 354.417443 177.244355 
L 356.85479 177.245185 
L 358.073463 177.058312 
L 358.682799 177.094048 
L 359.292136 176.910481 
L 361.120146 176.798355 
L 361.729482 176.645996 
L 362.338819 176.780291 
L 362.948156 176.672692 
L 363.557492 176.719911 
L 364.166829 176.526474 
L 365.385502 176.54988 
L 378.790908 175.628285 
L 380.618917 175.53546 
L 382.446927 175.365021 
L 383.6656 175.355167 
L 384.274937 175.241004 
L 385.49361 175.242241 
L 386.102947 175.11697 
L 386.712283 175.145311 
L 387.32162 175.013883 
L 387.930957 175.093141 
L 388.540293 174.953096 
L 389.14963 175.008541 
L 389.758967 174.876314 
L 390.97764 174.845497 
L 393.414986 174.746938 
L 395.852333 174.5227 
L 396.461669 174.620037 
L 398.899016 174.386352 
L 407.429728 173.999478 
L 408.648401 173.813843 
L 409.257738 173.887351 
L 409.867075 173.764556 
L 411.085748 173.757568 
L 411.695084 173.652037 
L 412.913758 173.691455 
L 413.523094 173.568252 
L 414.741768 173.646695 
L 415.351104 173.45777 
L 416.569777 173.5009 
L 417.179114 173.330869 
L 417.788451 173.301291 
L 418.397787 173.401511 
L 419.007124 173.284872 
L 421.44447 173.199441 
L 425.709826 172.931665 
L 426.319163 172.987533 
L 426.9285 172.898405 
L 427.537836 172.94893 
L 428.75651 172.765348 
L 430.584519 172.789568 
L 431.803193 172.658563 
L 439.115232 172.263887 
L 440.333905 172.292212 
L 443.380588 172.05812 
L 443.989925 172.094671 
L 444.599261 171.999809 
L 446.427271 172.001031 
L 448.864618 171.818278 
L 450.083291 171.798977 
L 454.348647 171.667141 
L 454.957984 171.554607 
L 455.56732 171.621958 
L 456.176657 171.483151 
L 459.22334 171.471245 
L 459.832677 171.339409 
L 461.05135 171.328317 
L 464.098033 171.129961 
L 470.800736 170.885184 
L 472.019409 170.781266 
L 474.456755 170.747191 
L 476.284765 170.64083 
L 476.894102 170.786609 
L 477.503438 170.643697 
L 482.378131 170.401803 
L 482.987468 170.521716 
L 484.206141 170.326226 
L 485.424814 170.366067 
L 486.034151 170.255178 
L 488.471497 170.205483 
L 490.299507 170.088437 
L 491.51818 170.087622 
L 493.34619 169.952904 
L 500.048893 169.78986 
L 500.658229 169.669947 
L 503.704912 169.686366 
L 504.314249 169.548781 
L 506.142259 169.553308 
L 506.751596 169.393539 
L 507.970269 169.454326 
L 511.626288 169.305649 
L 516.500981 169.162329 
L 517.110318 169.092096 
L 518.328991 169.128239 
L 519.547664 169.090451 
L 581.699998 167.080112 
L 582.309335 167.137593 
L 583.528008 166.993036 
L 587.184028 166.994274 
L 587.793365 166.921157 
L 589.012038 166.932672 
L 590.840048 166.853806 
L 592.668057 166.743747 
L 596.933414 166.691185 
L 599.980097 166.627516 
L 601.808107 166.5959 
L 603.02678 166.50801 
L 604.245453 166.445171 
L 605.464126 166.461182 
L 608.510809 166.322375 
L 609.729482 166.37782 
L 610.948156 166.298139 
L 613.385502 166.195882 
L 619.478868 166.04393 
L 621.306878 165.979853 
L 621.916215 166.063232 
L 622.525551 165.943303 
L 626.181571 165.912909 
L 628.618917 165.757261 
L 629.837591 165.799984 
L 630.446927 165.707973 
L 631.056264 165.76547 
L 632.884274 165.619268 
L 634.102947 165.620098 
L 635.930957 165.610636 
L 637.14963 165.602019 
L 638.97764 165.585177 
L 639.586976 165.446354 
L 640.80565 165.521523 
L 642.633659 165.405292 
L 645.680342 165.363399 
L 646.899016 165.275524 
L 649.945699 165.238958 
L 650.555035 165.147386 
L 651.164372 165.280851 
L 651.773709 165.195843 
L 652.992382 165.185989 
L 654.211055 165.150661 
L 655.429728 165.121505 
L 669.44447 164.764617 
L 670.053807 164.837718 
L 670.663143 164.698503 
L 671.881817 164.764194 
L 677.365846 164.603202 
L 677.975183 164.638938 
L 678.584519 164.541194 
L 680.412529 164.589243 
L 682.240539 164.509985 
L 687.115232 164.424555 
L 688.333905 164.349809 
L 689.552578 164.332967 
L 692.599261 164.253302 
L 692.599261 164.253302 
" clip-path="url(#p921b388e44)" style="fill: none; stroke: #feffb3; stroke-width: 1.5; stroke-linecap: square"/>
   </g>
   <g id="patch_3">
    <path d="M 53.435625 339.84 
L 53.435625 7.2 
" style="fill: none; stroke: #ffffff; stroke-width: 0.8; stroke-linejoin: miter; stroke-linecap: square"/>
   </g>
   <g id="patch_4">
    <path d="M 723.035625 339.84 
L 723.035625 7.2 
" style="fill: none; stroke: #ffffff; stroke-width: 0.8; stroke-linejoin: miter; stroke-linecap: square"/>
   </g>
   <g id="patch_5">
    <path d="M 53.435625 339.84 
L 723.035625 339.84 
" style="fill: none; stroke: #ffffff; stroke-width: 0.8; stroke-linejoin: miter; stroke-linecap: square"/>
   </g>
   <g id="patch_6">
    <path d="M 53.435625 7.2 
L 723.035625 7.2 
" style="fill: none; stroke: #ffffff; stroke-width: 0.8; stroke-linejoin: miter; stroke-linecap: square"/>
   </g>
   <g id="legend_1">
    <g id="patch_7">
     <path d="M 526.013125 331.84 
L 711.835625 331.84 
Q 715.035625 331.84 715.035625 328.64 
L 715.035625 283.27 
Q 715.035625 280.07 711.835625 280.07 
L 526.013125 280.07 
Q 522.813125 280.07 522.813125 283.27 
L 522.813125 328.64 
Q 522.813125 331.84 526.013125 331.84 
z
" style="opacity: 0.8; stroke: #cccccc; stroke-linejoin: miter"/>
    </g>
    <g id="line2d_17">
     <path d="M 529.213125 293.0275 
L 545.213125 293.0275 
L 561.213125 293.0275 
" style="fill: none; stroke: #8dd3c7; stroke-width: 1.5; stroke-linecap: square"/>
    </g>
    <g id="text_17">
     <!-- With baseline -->
     <g style="fill: #ffffff" transform="translate(574.013125 298.6275) scale(0.16 -0.16)">
      <defs>
       <path id="DejaVuSans-57" d="M 213 4666 
L 850 4666 
L 1831 722 
L 2809 4666 
L 3519 4666 
L 4500 722 
L 5478 4666 
L 6119 4666 
L 4947 0 
L 4153 0 
L 3169 4050 
L 2175 0 
L 1381 0 
L 213 4666 
z
" transform="scale(0.015625)"/>
       <path id="DejaVuSans-68" d="M 3513 2113 
L 3513 0 
L 2938 0 
L 2938 2094 
Q 2938 2591 2744 2837 
Q 2550 3084 2163 3084 
Q 1697 3084 1428 2787 
Q 1159 2491 1159 1978 
L 1159 0 
L 581 0 
L 581 4863 
L 1159 4863 
L 1159 2956 
Q 1366 3272 1645 3428 
Q 1925 3584 2291 3584 
Q 2894 3584 3203 3211 
Q 3513 2838 3513 2113 
z
" transform="scale(0.015625)"/>
       <path id="DejaVuSans-62" d="M 3116 1747 
Q 3116 2381 2855 2742 
Q 2594 3103 2138 3103 
Q 1681 3103 1420 2742 
Q 1159 2381 1159 1747 
Q 1159 1113 1420 752 
Q 1681 391 2138 391 
Q 2594 391 2855 752 
Q 3116 1113 3116 1747 
z
M 1159 2969 
Q 1341 3281 1617 3432 
Q 1894 3584 2278 3584 
Q 2916 3584 3314 3078 
Q 3713 2572 3713 1747 
Q 3713 922 3314 415 
Q 2916 -91 2278 -91 
Q 1894 -91 1617 61 
Q 1341 213 1159 525 
L 1159 0 
L 581 0 
L 581 4863 
L 1159 4863 
L 1159 2969 
z
" transform="scale(0.015625)"/>
      </defs>
      <use xlink:href="#DejaVuSans-57"/>
      <use xlink:href="#DejaVuSans-69" transform="translate(96.626953 0)"/>
      <use xlink:href="#DejaVuSans-74" transform="translate(124.410156 0)"/>
      <use xlink:href="#DejaVuSans-68" transform="translate(163.619141 0)"/>
      <use xlink:href="#DejaVuSans-20" transform="translate(226.998047 0)"/>
      <use xlink:href="#DejaVuSans-62" transform="translate(258.785156 0)"/>
      <use xlink:href="#DejaVuSans-61" transform="translate(322.261719 0)"/>
      <use xlink:href="#DejaVuSans-73" transform="translate(383.541016 0)"/>
      <use xlink:href="#DejaVuSans-65" transform="translate(435.640625 0)"/>
      <use xlink:href="#DejaVuSans-6c" transform="translate(497.164062 0)"/>
      <use xlink:href="#DejaVuSans-69" transform="translate(524.947266 0)"/>
      <use xlink:href="#DejaVuSans-6e" transform="translate(552.730469 0)"/>
      <use xlink:href="#DejaVuSans-65" transform="translate(616.109375 0)"/>
     </g>
    </g>
    <g id="line2d_18">
     <path d="M 529.213125 316.5125 
L 545.213125 316.5125 
L 561.213125 316.5125 
" style="fill: none; stroke: #feffb3; stroke-width: 1.5; stroke-linecap: square"/>
    </g>
    <g id="text_18">
     <!-- Without baseline -->
     <g style="fill: #ffffff" transform="translate(574.013125 322.1125) scale(0.16 -0.16)">
      <defs>
       <path id="DejaVuSans-75" d="M 544 1381 
L 544 3500 
L 1119 3500 
L 1119 1403 
Q 1119 906 1312 657 
Q 1506 409 1894 409 
Q 2359 409 2629 706 
Q 2900 1003 2900 1516 
L 2900 3500 
L 3475 3500 
L 3475 0 
L 2900 0 
L 2900 538 
Q 2691 219 2414 64 
Q 2138 -91 1772 -91 
Q 1169 -91 856 284 
Q 544 659 544 1381 
z
M 1991 3584 
L 1991 3584 
z
" transform="scale(0.015625)"/>
      </defs>
      <use xlink:href="#DejaVuSans-57"/>
      <use xlink:href="#DejaVuSans-69" transform="translate(96.626953 0)"/>
      <use xlink:href="#DejaVuSans-74" transform="translate(124.410156 0)"/>
      <use xlink:href="#DejaVuSans-68" transform="translate(163.619141 0)"/>
      <use xlink:href="#DejaVuSans-6f" transform="translate(226.998047 0)"/>
      <use xlink:href="#DejaVuSans-75" transform="translate(288.179688 0)"/>
      <use xlink:href="#DejaVuSans-74" transform="translate(351.558594 0)"/>
      <use xlink:href="#DejaVuSans-20" transform="translate(390.767578 0)"/>
      <use xlink:href="#DejaVuSans-62" transform="translate(422.554688 0)"/>
      <use xlink:href="#DejaVuSans-61" transform="translate(486.03125 0)"/>
      <use xlink:href="#DejaVuSans-73" transform="translate(547.310547 0)"/>
      <use xlink:href="#DejaVuSans-65" transform="translate(599.410156 0)"/>
      <use xlink:href="#DejaVuSans-6c" transform="translate(660.933594 0)"/>
      <use xlink:href="#DejaVuSans-69" transform="translate(688.716797 0)"/>
      <use xlink:href="#DejaVuSans-6e" transform="translate(716.5 0)"/>
      <use xlink:href="#DejaVuSans-65" transform="translate(779.878906 0)"/>
     </g>
    </g>
   </g>
  </g>
 </g>
 <defs>
  <clipPath id="p921b388e44">
   <rect x="53.435625" y="7.2" width="669.6" height="332.64"/>
  </clipPath>
 </defs>
</svg>
